%FSLAX34Y34*%
G04 Gerber Fmt 3.4, Leading zero omitted, Abs format*
G04 (created by PCBNEW (2014-jan-25)-product) date Sun 10 Aug 2014 09:51:49 PM PDT*
%MOIN*%
G01*
G70*
G90*
G04 APERTURE LIST*
%ADD10C,0.003937*%
%ADD11C,0.008000*%
%ADD12C,0.000100*%
G04 APERTURE END LIST*
G54D10*
G54D11*
X53898Y-51220D02*
X53898Y-50820D01*
X53727Y-51220D02*
X53727Y-51010D01*
X53746Y-50972D01*
X53784Y-50953D01*
X53841Y-50953D01*
X53879Y-50972D01*
X53898Y-50991D01*
X53365Y-51220D02*
X53365Y-51010D01*
X53384Y-50972D01*
X53422Y-50953D01*
X53498Y-50953D01*
X53536Y-50972D01*
X53365Y-51201D02*
X53403Y-51220D01*
X53498Y-51220D01*
X53536Y-51201D01*
X53556Y-51163D01*
X53556Y-51125D01*
X53536Y-51086D01*
X53498Y-51067D01*
X53403Y-51067D01*
X53365Y-51048D01*
X53175Y-51220D02*
X53175Y-50953D01*
X53175Y-51029D02*
X53156Y-50991D01*
X53136Y-50972D01*
X53098Y-50953D01*
X53060Y-50953D01*
X52756Y-51220D02*
X52756Y-50820D01*
X52756Y-51201D02*
X52794Y-51220D01*
X52870Y-51220D01*
X52908Y-51201D01*
X52927Y-51182D01*
X52946Y-51144D01*
X52946Y-51029D01*
X52927Y-50991D01*
X52908Y-50972D01*
X52870Y-50953D01*
X52794Y-50953D01*
X52756Y-50972D01*
X52603Y-50953D02*
X52527Y-51220D01*
X52451Y-51029D01*
X52375Y-51220D01*
X52298Y-50953D01*
X51975Y-51220D02*
X51975Y-51010D01*
X51994Y-50972D01*
X52032Y-50953D01*
X52108Y-50953D01*
X52146Y-50972D01*
X51975Y-51201D02*
X52013Y-51220D01*
X52108Y-51220D01*
X52146Y-51201D01*
X52165Y-51163D01*
X52165Y-51125D01*
X52146Y-51086D01*
X52108Y-51067D01*
X52013Y-51067D01*
X51975Y-51048D01*
X51784Y-51220D02*
X51784Y-50953D01*
X51784Y-51029D02*
X51765Y-50991D01*
X51746Y-50972D01*
X51708Y-50953D01*
X51670Y-50953D01*
X51384Y-51201D02*
X51422Y-51220D01*
X51498Y-51220D01*
X51536Y-51201D01*
X51556Y-51163D01*
X51556Y-51010D01*
X51536Y-50972D01*
X51498Y-50953D01*
X51422Y-50953D01*
X51384Y-50972D01*
X51365Y-51010D01*
X51365Y-51048D01*
X51556Y-51086D01*
X54204Y-50680D02*
X54242Y-50661D01*
X54261Y-50642D01*
X54280Y-50604D01*
X54280Y-50490D01*
X54261Y-50452D01*
X54242Y-50433D01*
X54204Y-50414D01*
X54147Y-50414D01*
X54109Y-50433D01*
X54090Y-50452D01*
X54071Y-50490D01*
X54071Y-50604D01*
X54090Y-50642D01*
X54109Y-50661D01*
X54147Y-50680D01*
X54204Y-50680D01*
X53899Y-50414D02*
X53899Y-50814D01*
X53899Y-50433D02*
X53861Y-50414D01*
X53785Y-50414D01*
X53747Y-50433D01*
X53728Y-50452D01*
X53709Y-50490D01*
X53709Y-50604D01*
X53728Y-50642D01*
X53747Y-50661D01*
X53785Y-50680D01*
X53861Y-50680D01*
X53899Y-50661D01*
X53385Y-50661D02*
X53423Y-50680D01*
X53499Y-50680D01*
X53538Y-50661D01*
X53557Y-50623D01*
X53557Y-50471D01*
X53538Y-50433D01*
X53499Y-50414D01*
X53423Y-50414D01*
X53385Y-50433D01*
X53366Y-50471D01*
X53366Y-50509D01*
X53557Y-50547D01*
X53195Y-50414D02*
X53195Y-50680D01*
X53195Y-50452D02*
X53176Y-50433D01*
X53138Y-50414D01*
X53080Y-50414D01*
X53042Y-50433D01*
X53023Y-50471D01*
X53023Y-50680D01*
X52547Y-50661D02*
X52509Y-50680D01*
X52433Y-50680D01*
X52395Y-50661D01*
X52376Y-50623D01*
X52376Y-50604D01*
X52395Y-50566D01*
X52433Y-50547D01*
X52490Y-50547D01*
X52528Y-50528D01*
X52547Y-50490D01*
X52547Y-50471D01*
X52528Y-50433D01*
X52490Y-50414D01*
X52433Y-50414D01*
X52395Y-50433D01*
X52147Y-50680D02*
X52185Y-50661D01*
X52204Y-50642D01*
X52223Y-50604D01*
X52223Y-50490D01*
X52204Y-50452D01*
X52185Y-50433D01*
X52147Y-50414D01*
X52090Y-50414D01*
X52052Y-50433D01*
X52033Y-50452D01*
X52014Y-50490D01*
X52014Y-50604D01*
X52033Y-50642D01*
X52052Y-50661D01*
X52090Y-50680D01*
X52147Y-50680D01*
X51671Y-50414D02*
X51671Y-50680D01*
X51842Y-50414D02*
X51842Y-50623D01*
X51823Y-50661D01*
X51785Y-50680D01*
X51728Y-50680D01*
X51690Y-50661D01*
X51671Y-50642D01*
X51480Y-50680D02*
X51480Y-50414D01*
X51480Y-50490D02*
X51461Y-50452D01*
X51442Y-50433D01*
X51404Y-50414D01*
X51366Y-50414D01*
X51061Y-50661D02*
X51100Y-50680D01*
X51176Y-50680D01*
X51214Y-50661D01*
X51233Y-50642D01*
X51252Y-50604D01*
X51252Y-50490D01*
X51233Y-50452D01*
X51214Y-50433D01*
X51176Y-50414D01*
X51100Y-50414D01*
X51061Y-50433D01*
X50738Y-50661D02*
X50776Y-50680D01*
X50852Y-50680D01*
X50890Y-50661D01*
X50909Y-50623D01*
X50909Y-50471D01*
X50890Y-50433D01*
X50852Y-50414D01*
X50776Y-50414D01*
X50738Y-50433D01*
X50719Y-50471D01*
X50719Y-50509D01*
X50909Y-50547D01*
G54D12*
G36*
X52042Y-50173D02*
X52056Y-50166D01*
X52085Y-50147D01*
X52127Y-50120D01*
X52176Y-50087D01*
X52225Y-50053D01*
X52266Y-50026D01*
X52295Y-50008D01*
X52307Y-50001D01*
X52313Y-50004D01*
X52337Y-50015D01*
X52371Y-50033D01*
X52390Y-50043D01*
X52422Y-50057D01*
X52437Y-50059D01*
X52440Y-50055D01*
X52451Y-50031D01*
X52469Y-49990D01*
X52493Y-49936D01*
X52520Y-49872D01*
X52549Y-49804D01*
X52578Y-49734D01*
X52606Y-49668D01*
X52630Y-49608D01*
X52650Y-49559D01*
X52663Y-49525D01*
X52667Y-49511D01*
X52666Y-49508D01*
X52650Y-49492D01*
X52623Y-49472D01*
X52564Y-49424D01*
X52505Y-49351D01*
X52470Y-49268D01*
X52458Y-49176D01*
X52468Y-49091D01*
X52502Y-49009D01*
X52559Y-48936D01*
X52628Y-48881D01*
X52709Y-48846D01*
X52800Y-48835D01*
X52887Y-48845D01*
X52971Y-48878D01*
X53044Y-48934D01*
X53075Y-48970D01*
X53118Y-49045D01*
X53143Y-49124D01*
X53145Y-49145D01*
X53142Y-49232D01*
X53116Y-49316D01*
X53069Y-49392D01*
X53005Y-49453D01*
X52997Y-49459D01*
X52967Y-49481D01*
X52947Y-49497D01*
X52932Y-49510D01*
X53043Y-49779D01*
X53061Y-49822D01*
X53092Y-49895D01*
X53119Y-49958D01*
X53140Y-50009D01*
X53155Y-50043D01*
X53162Y-50056D01*
X53163Y-50057D01*
X53172Y-50059D01*
X53193Y-50051D01*
X53230Y-50033D01*
X53255Y-50020D01*
X53284Y-50006D01*
X53297Y-50001D01*
X53308Y-50007D01*
X53335Y-50025D01*
X53375Y-50052D01*
X53423Y-50084D01*
X53469Y-50116D01*
X53511Y-50143D01*
X53542Y-50163D01*
X53557Y-50171D01*
X53559Y-50171D01*
X53573Y-50164D01*
X53597Y-50143D01*
X53633Y-50109D01*
X53685Y-50058D01*
X53693Y-50050D01*
X53736Y-50006D01*
X53770Y-49970D01*
X53794Y-49944D01*
X53802Y-49932D01*
X53802Y-49932D01*
X53794Y-49918D01*
X53775Y-49887D01*
X53747Y-49844D01*
X53713Y-49794D01*
X53624Y-49665D01*
X53673Y-49543D01*
X53688Y-49505D01*
X53707Y-49460D01*
X53721Y-49428D01*
X53728Y-49413D01*
X53742Y-49409D01*
X53775Y-49401D01*
X53823Y-49391D01*
X53881Y-49380D01*
X53936Y-49370D01*
X53986Y-49360D01*
X54022Y-49353D01*
X54038Y-49350D01*
X54042Y-49348D01*
X54045Y-49340D01*
X54048Y-49323D01*
X54049Y-49293D01*
X54049Y-49245D01*
X54049Y-49176D01*
X54049Y-49169D01*
X54049Y-49103D01*
X54048Y-49051D01*
X54046Y-49017D01*
X54044Y-49003D01*
X54043Y-49003D01*
X54028Y-48999D01*
X53993Y-48992D01*
X53943Y-48982D01*
X53884Y-48971D01*
X53880Y-48970D01*
X53821Y-48959D01*
X53771Y-48948D01*
X53737Y-48940D01*
X53722Y-48936D01*
X53719Y-48932D01*
X53707Y-48909D01*
X53690Y-48872D01*
X53670Y-48827D01*
X53651Y-48781D01*
X53634Y-48739D01*
X53623Y-48708D01*
X53620Y-48694D01*
X53620Y-48693D01*
X53629Y-48679D01*
X53649Y-48649D01*
X53678Y-48606D01*
X53712Y-48556D01*
X53715Y-48552D01*
X53749Y-48502D01*
X53777Y-48460D01*
X53795Y-48430D01*
X53802Y-48416D01*
X53802Y-48415D01*
X53791Y-48400D01*
X53765Y-48372D01*
X53729Y-48334D01*
X53685Y-48290D01*
X53671Y-48276D01*
X53622Y-48229D01*
X53589Y-48197D01*
X53568Y-48181D01*
X53558Y-48177D01*
X53557Y-48178D01*
X53542Y-48187D01*
X53511Y-48207D01*
X53468Y-48236D01*
X53417Y-48271D01*
X53413Y-48273D01*
X53364Y-48307D01*
X53322Y-48335D01*
X53292Y-48355D01*
X53279Y-48363D01*
X53277Y-48363D01*
X53257Y-48357D01*
X53221Y-48344D01*
X53178Y-48327D01*
X53131Y-48309D01*
X53089Y-48291D01*
X53058Y-48276D01*
X53043Y-48268D01*
X53043Y-48267D01*
X53037Y-48249D01*
X53029Y-48212D01*
X53018Y-48161D01*
X53006Y-48099D01*
X53005Y-48090D01*
X52993Y-48030D01*
X52984Y-47981D01*
X52977Y-47947D01*
X52973Y-47933D01*
X52965Y-47931D01*
X52936Y-47929D01*
X52891Y-47928D01*
X52838Y-47927D01*
X52781Y-47927D01*
X52726Y-47929D01*
X52679Y-47930D01*
X52645Y-47933D01*
X52631Y-47935D01*
X52631Y-47936D01*
X52625Y-47955D01*
X52617Y-47992D01*
X52607Y-48044D01*
X52595Y-48105D01*
X52593Y-48116D01*
X52582Y-48175D01*
X52572Y-48224D01*
X52564Y-48258D01*
X52561Y-48271D01*
X52555Y-48274D01*
X52531Y-48284D01*
X52491Y-48301D01*
X52442Y-48321D01*
X52327Y-48367D01*
X52187Y-48271D01*
X52174Y-48262D01*
X52124Y-48228D01*
X52082Y-48200D01*
X52053Y-48182D01*
X52041Y-48175D01*
X52040Y-48175D01*
X52026Y-48188D01*
X51999Y-48214D01*
X51961Y-48251D01*
X51916Y-48295D01*
X51884Y-48327D01*
X51845Y-48367D01*
X51821Y-48393D01*
X51807Y-48410D01*
X51802Y-48420D01*
X51804Y-48427D01*
X51813Y-48442D01*
X51833Y-48472D01*
X51862Y-48515D01*
X51896Y-48565D01*
X51924Y-48606D01*
X51955Y-48653D01*
X51975Y-48687D01*
X51982Y-48703D01*
X51980Y-48710D01*
X51970Y-48738D01*
X51953Y-48779D01*
X51932Y-48829D01*
X51884Y-48940D01*
X51811Y-48954D01*
X51767Y-48962D01*
X51705Y-48974D01*
X51646Y-48985D01*
X51554Y-49003D01*
X51550Y-49342D01*
X51565Y-49348D01*
X51578Y-49351D01*
X51612Y-49359D01*
X51661Y-49369D01*
X51719Y-49379D01*
X51768Y-49389D01*
X51817Y-49398D01*
X51853Y-49405D01*
X51868Y-49408D01*
X51872Y-49413D01*
X51885Y-49437D01*
X51902Y-49475D01*
X51922Y-49521D01*
X51942Y-49569D01*
X51959Y-49612D01*
X51971Y-49646D01*
X51976Y-49663D01*
X51969Y-49676D01*
X51950Y-49705D01*
X51923Y-49746D01*
X51889Y-49795D01*
X51856Y-49844D01*
X51828Y-49886D01*
X51808Y-49917D01*
X51800Y-49930D01*
X51804Y-49940D01*
X51823Y-49963D01*
X51860Y-50002D01*
X51915Y-50056D01*
X51924Y-50065D01*
X51968Y-50107D01*
X52005Y-50141D01*
X52031Y-50164D01*
X52042Y-50173D01*
X52042Y-50173D01*
G37*
X52042Y-50173D02*
X52056Y-50166D01*
X52085Y-50147D01*
X52127Y-50120D01*
X52176Y-50087D01*
X52225Y-50053D01*
X52266Y-50026D01*
X52295Y-50008D01*
X52307Y-50001D01*
X52313Y-50004D01*
X52337Y-50015D01*
X52371Y-50033D01*
X52390Y-50043D01*
X52422Y-50057D01*
X52437Y-50059D01*
X52440Y-50055D01*
X52451Y-50031D01*
X52469Y-49990D01*
X52493Y-49936D01*
X52520Y-49872D01*
X52549Y-49804D01*
X52578Y-49734D01*
X52606Y-49668D01*
X52630Y-49608D01*
X52650Y-49559D01*
X52663Y-49525D01*
X52667Y-49511D01*
X52666Y-49508D01*
X52650Y-49492D01*
X52623Y-49472D01*
X52564Y-49424D01*
X52505Y-49351D01*
X52470Y-49268D01*
X52458Y-49176D01*
X52468Y-49091D01*
X52502Y-49009D01*
X52559Y-48936D01*
X52628Y-48881D01*
X52709Y-48846D01*
X52800Y-48835D01*
X52887Y-48845D01*
X52971Y-48878D01*
X53044Y-48934D01*
X53075Y-48970D01*
X53118Y-49045D01*
X53143Y-49124D01*
X53145Y-49145D01*
X53142Y-49232D01*
X53116Y-49316D01*
X53069Y-49392D01*
X53005Y-49453D01*
X52997Y-49459D01*
X52967Y-49481D01*
X52947Y-49497D01*
X52932Y-49510D01*
X53043Y-49779D01*
X53061Y-49822D01*
X53092Y-49895D01*
X53119Y-49958D01*
X53140Y-50009D01*
X53155Y-50043D01*
X53162Y-50056D01*
X53163Y-50057D01*
X53172Y-50059D01*
X53193Y-50051D01*
X53230Y-50033D01*
X53255Y-50020D01*
X53284Y-50006D01*
X53297Y-50001D01*
X53308Y-50007D01*
X53335Y-50025D01*
X53375Y-50052D01*
X53423Y-50084D01*
X53469Y-50116D01*
X53511Y-50143D01*
X53542Y-50163D01*
X53557Y-50171D01*
X53559Y-50171D01*
X53573Y-50164D01*
X53597Y-50143D01*
X53633Y-50109D01*
X53685Y-50058D01*
X53693Y-50050D01*
X53736Y-50006D01*
X53770Y-49970D01*
X53794Y-49944D01*
X53802Y-49932D01*
X53802Y-49932D01*
X53794Y-49918D01*
X53775Y-49887D01*
X53747Y-49844D01*
X53713Y-49794D01*
X53624Y-49665D01*
X53673Y-49543D01*
X53688Y-49505D01*
X53707Y-49460D01*
X53721Y-49428D01*
X53728Y-49413D01*
X53742Y-49409D01*
X53775Y-49401D01*
X53823Y-49391D01*
X53881Y-49380D01*
X53936Y-49370D01*
X53986Y-49360D01*
X54022Y-49353D01*
X54038Y-49350D01*
X54042Y-49348D01*
X54045Y-49340D01*
X54048Y-49323D01*
X54049Y-49293D01*
X54049Y-49245D01*
X54049Y-49176D01*
X54049Y-49169D01*
X54049Y-49103D01*
X54048Y-49051D01*
X54046Y-49017D01*
X54044Y-49003D01*
X54043Y-49003D01*
X54028Y-48999D01*
X53993Y-48992D01*
X53943Y-48982D01*
X53884Y-48971D01*
X53880Y-48970D01*
X53821Y-48959D01*
X53771Y-48948D01*
X53737Y-48940D01*
X53722Y-48936D01*
X53719Y-48932D01*
X53707Y-48909D01*
X53690Y-48872D01*
X53670Y-48827D01*
X53651Y-48781D01*
X53634Y-48739D01*
X53623Y-48708D01*
X53620Y-48694D01*
X53620Y-48693D01*
X53629Y-48679D01*
X53649Y-48649D01*
X53678Y-48606D01*
X53712Y-48556D01*
X53715Y-48552D01*
X53749Y-48502D01*
X53777Y-48460D01*
X53795Y-48430D01*
X53802Y-48416D01*
X53802Y-48415D01*
X53791Y-48400D01*
X53765Y-48372D01*
X53729Y-48334D01*
X53685Y-48290D01*
X53671Y-48276D01*
X53622Y-48229D01*
X53589Y-48197D01*
X53568Y-48181D01*
X53558Y-48177D01*
X53557Y-48178D01*
X53542Y-48187D01*
X53511Y-48207D01*
X53468Y-48236D01*
X53417Y-48271D01*
X53413Y-48273D01*
X53364Y-48307D01*
X53322Y-48335D01*
X53292Y-48355D01*
X53279Y-48363D01*
X53277Y-48363D01*
X53257Y-48357D01*
X53221Y-48344D01*
X53178Y-48327D01*
X53131Y-48309D01*
X53089Y-48291D01*
X53058Y-48276D01*
X53043Y-48268D01*
X53043Y-48267D01*
X53037Y-48249D01*
X53029Y-48212D01*
X53018Y-48161D01*
X53006Y-48099D01*
X53005Y-48090D01*
X52993Y-48030D01*
X52984Y-47981D01*
X52977Y-47947D01*
X52973Y-47933D01*
X52965Y-47931D01*
X52936Y-47929D01*
X52891Y-47928D01*
X52838Y-47927D01*
X52781Y-47927D01*
X52726Y-47929D01*
X52679Y-47930D01*
X52645Y-47933D01*
X52631Y-47935D01*
X52631Y-47936D01*
X52625Y-47955D01*
X52617Y-47992D01*
X52607Y-48044D01*
X52595Y-48105D01*
X52593Y-48116D01*
X52582Y-48175D01*
X52572Y-48224D01*
X52564Y-48258D01*
X52561Y-48271D01*
X52555Y-48274D01*
X52531Y-48284D01*
X52491Y-48301D01*
X52442Y-48321D01*
X52327Y-48367D01*
X52187Y-48271D01*
X52174Y-48262D01*
X52124Y-48228D01*
X52082Y-48200D01*
X52053Y-48182D01*
X52041Y-48175D01*
X52040Y-48175D01*
X52026Y-48188D01*
X51999Y-48214D01*
X51961Y-48251D01*
X51916Y-48295D01*
X51884Y-48327D01*
X51845Y-48367D01*
X51821Y-48393D01*
X51807Y-48410D01*
X51802Y-48420D01*
X51804Y-48427D01*
X51813Y-48442D01*
X51833Y-48472D01*
X51862Y-48515D01*
X51896Y-48565D01*
X51924Y-48606D01*
X51955Y-48653D01*
X51975Y-48687D01*
X51982Y-48703D01*
X51980Y-48710D01*
X51970Y-48738D01*
X51953Y-48779D01*
X51932Y-48829D01*
X51884Y-48940D01*
X51811Y-48954D01*
X51767Y-48962D01*
X51705Y-48974D01*
X51646Y-48985D01*
X51554Y-49003D01*
X51550Y-49342D01*
X51565Y-49348D01*
X51578Y-49351D01*
X51612Y-49359D01*
X51661Y-49369D01*
X51719Y-49379D01*
X51768Y-49389D01*
X51817Y-49398D01*
X51853Y-49405D01*
X51868Y-49408D01*
X51872Y-49413D01*
X51885Y-49437D01*
X51902Y-49475D01*
X51922Y-49521D01*
X51942Y-49569D01*
X51959Y-49612D01*
X51971Y-49646D01*
X51976Y-49663D01*
X51969Y-49676D01*
X51950Y-49705D01*
X51923Y-49746D01*
X51889Y-49795D01*
X51856Y-49844D01*
X51828Y-49886D01*
X51808Y-49917D01*
X51800Y-49930D01*
X51804Y-49940D01*
X51823Y-49963D01*
X51860Y-50002D01*
X51915Y-50056D01*
X51924Y-50065D01*
X51968Y-50107D01*
X52005Y-50141D01*
X52031Y-50164D01*
X52042Y-50173D01*
M02*
