%FSLAX34Y34*%
G04 Gerber Fmt 3.4, Leading zero omitted, Abs format*
G04 (created by PCBNEW (2014-jan-25)-product) date Sun 10 Aug 2014 09:51:49 PM PDT*
%MOIN*%
G01*
G70*
G90*
G04 APERTURE LIST*
%ADD10C,0.003937*%
%ADD11C,0.008000*%
%ADD12C,0.011811*%
%ADD13C,0.012000*%
%ADD14C,0.015000*%
%ADD15C,0.010000*%
%ADD16C,0.005906*%
%ADD17C,0.009850*%
%ADD18C,0.009900*%
G04 APERTURE END LIST*
G54D10*
G54D11*
X47145Y-48028D02*
X47450Y-48028D01*
X47297Y-48180D02*
X47297Y-47876D01*
X47830Y-47780D02*
X47640Y-47780D01*
X47621Y-47971D01*
X47640Y-47952D01*
X47678Y-47933D01*
X47773Y-47933D01*
X47811Y-47952D01*
X47830Y-47971D01*
X47850Y-48009D01*
X47850Y-48104D01*
X47830Y-48142D01*
X47811Y-48161D01*
X47773Y-48180D01*
X47678Y-48180D01*
X47640Y-48161D01*
X47621Y-48142D01*
X47964Y-47780D02*
X48097Y-48180D01*
X48230Y-47780D01*
X56476Y-45816D02*
X56666Y-45816D01*
X56438Y-45930D02*
X56571Y-45530D01*
X56704Y-45930D01*
X57028Y-45930D02*
X56838Y-45930D01*
X56838Y-45530D01*
X57104Y-45530D02*
X57333Y-45530D01*
X57219Y-45930D02*
X57219Y-45530D01*
X58073Y-44342D02*
X58054Y-44361D01*
X57997Y-44380D01*
X57959Y-44380D01*
X57902Y-44361D01*
X57864Y-44323D01*
X57845Y-44285D01*
X57826Y-44209D01*
X57826Y-44152D01*
X57845Y-44076D01*
X57864Y-44038D01*
X57902Y-44000D01*
X57959Y-43980D01*
X57997Y-43980D01*
X58054Y-44000D01*
X58073Y-44019D01*
X58321Y-43980D02*
X58397Y-43980D01*
X58435Y-44000D01*
X58473Y-44038D01*
X58492Y-44114D01*
X58492Y-44247D01*
X58473Y-44323D01*
X58435Y-44361D01*
X58397Y-44380D01*
X58321Y-44380D01*
X58283Y-44361D01*
X58245Y-44323D01*
X58226Y-44247D01*
X58226Y-44114D01*
X58245Y-44038D01*
X58283Y-44000D01*
X58321Y-43980D01*
X58664Y-44380D02*
X58664Y-43980D01*
X58892Y-44380D01*
X58892Y-43980D01*
X59064Y-44361D02*
X59121Y-44380D01*
X59216Y-44380D01*
X59254Y-44361D01*
X59273Y-44342D01*
X59292Y-44304D01*
X59292Y-44266D01*
X59273Y-44228D01*
X59254Y-44209D01*
X59216Y-44190D01*
X59140Y-44171D01*
X59102Y-44152D01*
X59083Y-44133D01*
X59064Y-44095D01*
X59064Y-44057D01*
X59083Y-44019D01*
X59102Y-44000D01*
X59140Y-43980D01*
X59235Y-43980D01*
X59292Y-44000D01*
X59540Y-43980D02*
X59616Y-43980D01*
X59654Y-44000D01*
X59692Y-44038D01*
X59711Y-44114D01*
X59711Y-44247D01*
X59692Y-44323D01*
X59654Y-44361D01*
X59616Y-44380D01*
X59540Y-44380D01*
X59502Y-44361D01*
X59464Y-44323D01*
X59445Y-44247D01*
X59445Y-44114D01*
X59464Y-44038D01*
X59502Y-44000D01*
X59540Y-43980D01*
X60073Y-44380D02*
X59883Y-44380D01*
X59883Y-43980D01*
X60207Y-44171D02*
X60340Y-44171D01*
X60397Y-44380D02*
X60207Y-44380D01*
X60207Y-43980D01*
X60397Y-43980D01*
X56495Y-55280D02*
X56495Y-54880D01*
X56666Y-55261D02*
X56723Y-55280D01*
X56819Y-55280D01*
X56857Y-55261D01*
X56876Y-55242D01*
X56895Y-55204D01*
X56895Y-55166D01*
X56876Y-55128D01*
X56857Y-55109D01*
X56819Y-55090D01*
X56742Y-55071D01*
X56704Y-55052D01*
X56685Y-55033D01*
X56666Y-54995D01*
X56666Y-54957D01*
X56685Y-54919D01*
X56704Y-54900D01*
X56742Y-54880D01*
X56838Y-54880D01*
X56895Y-54900D01*
X57066Y-55280D02*
X57066Y-54880D01*
X57219Y-54880D01*
X57257Y-54900D01*
X57276Y-54919D01*
X57295Y-54957D01*
X57295Y-55014D01*
X57276Y-55052D01*
X57257Y-55071D01*
X57219Y-55090D01*
X57066Y-55090D01*
X75632Y-53572D02*
X75708Y-53572D01*
X75746Y-53591D01*
X75784Y-53629D01*
X75803Y-53705D01*
X75803Y-53838D01*
X75784Y-53915D01*
X75746Y-53953D01*
X75708Y-53972D01*
X75632Y-53972D01*
X75593Y-53953D01*
X75555Y-53915D01*
X75536Y-53838D01*
X75536Y-53705D01*
X75555Y-53629D01*
X75593Y-53591D01*
X75632Y-53572D01*
X75974Y-53972D02*
X75974Y-53572D01*
X76203Y-53972D01*
X76203Y-53572D01*
X76679Y-53553D02*
X76336Y-54067D01*
X76889Y-53572D02*
X76965Y-53572D01*
X77003Y-53591D01*
X77041Y-53629D01*
X77060Y-53705D01*
X77060Y-53838D01*
X77041Y-53915D01*
X77003Y-53953D01*
X76965Y-53972D01*
X76889Y-53972D01*
X76851Y-53953D01*
X76813Y-53915D01*
X76793Y-53838D01*
X76793Y-53705D01*
X76813Y-53629D01*
X76851Y-53591D01*
X76889Y-53572D01*
X77365Y-53762D02*
X77232Y-53762D01*
X77232Y-53972D02*
X77232Y-53572D01*
X77422Y-53572D01*
X77708Y-53762D02*
X77574Y-53762D01*
X77574Y-53972D02*
X77574Y-53572D01*
X77765Y-53572D01*
X65528Y-54099D02*
X65528Y-54385D01*
X65509Y-54442D01*
X65471Y-54480D01*
X65414Y-54499D01*
X65376Y-54499D01*
X65661Y-54099D02*
X65890Y-54099D01*
X65776Y-54499D02*
X65776Y-54099D01*
X66004Y-54385D02*
X66195Y-54385D01*
X65966Y-54499D02*
X66099Y-54099D01*
X66233Y-54499D01*
X66576Y-54118D02*
X66537Y-54099D01*
X66480Y-54099D01*
X66423Y-54118D01*
X66385Y-54156D01*
X66366Y-54195D01*
X66347Y-54271D01*
X66347Y-54328D01*
X66366Y-54404D01*
X66385Y-54442D01*
X66423Y-54480D01*
X66480Y-54499D01*
X66518Y-54499D01*
X66576Y-54480D01*
X66595Y-54461D01*
X66595Y-54328D01*
X66518Y-54328D01*
X44921Y-42780D02*
X44997Y-42780D01*
X45035Y-42800D01*
X45073Y-42838D01*
X45092Y-42914D01*
X45092Y-43047D01*
X45073Y-43123D01*
X45035Y-43161D01*
X44997Y-43180D01*
X44921Y-43180D01*
X44883Y-43161D01*
X44845Y-43123D01*
X44826Y-43047D01*
X44826Y-42914D01*
X44845Y-42838D01*
X44883Y-42800D01*
X44921Y-42780D01*
X42845Y-43930D02*
X42845Y-43530D01*
X42940Y-43530D01*
X42997Y-43550D01*
X43035Y-43588D01*
X43054Y-43626D01*
X43073Y-43702D01*
X43073Y-43759D01*
X43054Y-43835D01*
X43035Y-43873D01*
X42997Y-43911D01*
X42940Y-43930D01*
X42845Y-43930D01*
X42845Y-44930D02*
X42845Y-44530D01*
X42997Y-44530D01*
X43035Y-44550D01*
X43054Y-44569D01*
X43073Y-44607D01*
X43073Y-44664D01*
X43054Y-44702D01*
X43035Y-44721D01*
X42997Y-44740D01*
X42845Y-44740D01*
X54054Y-43930D02*
X53826Y-43930D01*
X53940Y-43930D02*
X53940Y-43530D01*
X53902Y-43588D01*
X53864Y-43626D01*
X53826Y-43645D01*
X54304Y-45930D02*
X54076Y-45930D01*
X54190Y-45930D02*
X54190Y-45530D01*
X54152Y-45588D01*
X54114Y-45626D01*
X54076Y-45645D01*
X78304Y-53680D02*
X78076Y-53680D01*
X78190Y-53680D02*
X78190Y-53280D01*
X78152Y-53338D01*
X78114Y-53376D01*
X78076Y-53395D01*
X63804Y-58430D02*
X63576Y-58430D01*
X63690Y-58430D02*
X63690Y-58030D01*
X63652Y-58088D01*
X63614Y-58126D01*
X63576Y-58145D01*
X58054Y-58430D02*
X57826Y-58430D01*
X57940Y-58430D02*
X57940Y-58030D01*
X57902Y-58088D01*
X57864Y-58126D01*
X57826Y-58145D01*
X49190Y-57271D02*
X48962Y-57271D01*
X49076Y-57271D02*
X49076Y-56871D01*
X49038Y-56928D01*
X49000Y-56966D01*
X48962Y-56985D01*
X49666Y-57271D02*
X49666Y-56871D01*
X49819Y-56871D01*
X49857Y-56890D01*
X49876Y-56909D01*
X49895Y-56947D01*
X49895Y-57004D01*
X49876Y-57042D01*
X49857Y-57061D01*
X49819Y-57081D01*
X49666Y-57081D01*
X50295Y-57271D02*
X50162Y-57081D01*
X50066Y-57271D02*
X50066Y-56871D01*
X50219Y-56871D01*
X50257Y-56890D01*
X50276Y-56909D01*
X50295Y-56947D01*
X50295Y-57004D01*
X50276Y-57042D01*
X50257Y-57061D01*
X50219Y-57081D01*
X50066Y-57081D01*
X50542Y-56871D02*
X50619Y-56871D01*
X50657Y-56890D01*
X50695Y-56928D01*
X50714Y-57004D01*
X50714Y-57138D01*
X50695Y-57214D01*
X50657Y-57252D01*
X50619Y-57271D01*
X50542Y-57271D01*
X50504Y-57252D01*
X50466Y-57214D01*
X50447Y-57138D01*
X50447Y-57004D01*
X50466Y-56928D01*
X50504Y-56890D01*
X50542Y-56871D01*
X51095Y-56890D02*
X51057Y-56871D01*
X51000Y-56871D01*
X50942Y-56890D01*
X50904Y-56928D01*
X50885Y-56966D01*
X50866Y-57042D01*
X50866Y-57100D01*
X50885Y-57176D01*
X50904Y-57214D01*
X50942Y-57252D01*
X51000Y-57271D01*
X51038Y-57271D01*
X51095Y-57252D01*
X51114Y-57233D01*
X51114Y-57100D01*
X51038Y-57100D01*
X51514Y-57271D02*
X51381Y-57081D01*
X51285Y-57271D02*
X51285Y-56871D01*
X51438Y-56871D01*
X51476Y-56890D01*
X51495Y-56909D01*
X51514Y-56947D01*
X51514Y-57004D01*
X51495Y-57042D01*
X51476Y-57061D01*
X51438Y-57081D01*
X51285Y-57081D01*
X51666Y-57157D02*
X51857Y-57157D01*
X51628Y-57271D02*
X51762Y-56871D01*
X51895Y-57271D01*
X52028Y-57271D02*
X52028Y-56871D01*
X52162Y-57157D01*
X52295Y-56871D01*
X52295Y-57271D01*
X48478Y-54831D02*
X48535Y-54850D01*
X48554Y-54869D01*
X48573Y-54907D01*
X48573Y-54964D01*
X48554Y-55002D01*
X48535Y-55021D01*
X48497Y-55040D01*
X48345Y-55040D01*
X48345Y-54640D01*
X48478Y-54640D01*
X48516Y-54660D01*
X48535Y-54679D01*
X48554Y-54717D01*
X48554Y-54755D01*
X48535Y-54793D01*
X48516Y-54812D01*
X48478Y-54831D01*
X48345Y-54831D01*
X48745Y-54640D02*
X48745Y-54964D01*
X48764Y-55002D01*
X48783Y-55021D01*
X48821Y-55040D01*
X48897Y-55040D01*
X48935Y-55021D01*
X48954Y-55002D01*
X48973Y-54964D01*
X48973Y-54640D01*
X49145Y-55021D02*
X49202Y-55040D01*
X49297Y-55040D01*
X49335Y-55021D01*
X49354Y-55002D01*
X49373Y-54964D01*
X49373Y-54926D01*
X49354Y-54888D01*
X49335Y-54869D01*
X49297Y-54850D01*
X49221Y-54831D01*
X49183Y-54812D01*
X49164Y-54793D01*
X49145Y-54755D01*
X49145Y-54717D01*
X49164Y-54679D01*
X49183Y-54660D01*
X49221Y-54640D01*
X49316Y-54640D01*
X49373Y-54660D01*
X50078Y-55040D02*
X49945Y-54850D01*
X49850Y-55040D02*
X49850Y-54640D01*
X50002Y-54640D01*
X50040Y-54660D01*
X50059Y-54679D01*
X50078Y-54717D01*
X50078Y-54774D01*
X50059Y-54812D01*
X50040Y-54831D01*
X50002Y-54850D01*
X49850Y-54850D01*
X50230Y-54926D02*
X50421Y-54926D01*
X50192Y-55040D02*
X50326Y-54640D01*
X50459Y-55040D01*
X50573Y-55021D02*
X50630Y-55040D01*
X50726Y-55040D01*
X50764Y-55021D01*
X50783Y-55002D01*
X50802Y-54964D01*
X50802Y-54926D01*
X50783Y-54888D01*
X50764Y-54869D01*
X50726Y-54850D01*
X50650Y-54831D01*
X50611Y-54812D01*
X50592Y-54793D01*
X50573Y-54755D01*
X50573Y-54717D01*
X50592Y-54679D01*
X50611Y-54660D01*
X50650Y-54640D01*
X50745Y-54640D01*
X50802Y-54660D01*
X50973Y-55040D02*
X50973Y-54640D01*
X51126Y-54640D01*
X51164Y-54660D01*
X51183Y-54679D01*
X51202Y-54717D01*
X51202Y-54774D01*
X51183Y-54812D01*
X51164Y-54831D01*
X51126Y-54850D01*
X50973Y-54850D01*
X51507Y-54831D02*
X51564Y-54850D01*
X51583Y-54869D01*
X51602Y-54907D01*
X51602Y-54964D01*
X51583Y-55002D01*
X51564Y-55021D01*
X51526Y-55040D01*
X51373Y-55040D01*
X51373Y-54640D01*
X51507Y-54640D01*
X51545Y-54660D01*
X51564Y-54679D01*
X51583Y-54717D01*
X51583Y-54755D01*
X51564Y-54793D01*
X51545Y-54812D01*
X51507Y-54831D01*
X51373Y-54831D01*
X51773Y-54831D02*
X51907Y-54831D01*
X51964Y-55040D02*
X51773Y-55040D01*
X51773Y-54640D01*
X51964Y-54640D01*
X52364Y-55040D02*
X52230Y-54850D01*
X52135Y-55040D02*
X52135Y-54640D01*
X52288Y-54640D01*
X52326Y-54660D01*
X52345Y-54679D01*
X52364Y-54717D01*
X52364Y-54774D01*
X52345Y-54812D01*
X52326Y-54831D01*
X52288Y-54850D01*
X52135Y-54850D01*
X52764Y-55040D02*
X52630Y-54850D01*
X52535Y-55040D02*
X52535Y-54640D01*
X52688Y-54640D01*
X52726Y-54660D01*
X52745Y-54679D01*
X52764Y-54717D01*
X52764Y-54774D01*
X52745Y-54812D01*
X52726Y-54831D01*
X52688Y-54850D01*
X52535Y-54850D01*
X53011Y-54850D02*
X53011Y-55040D01*
X52878Y-54640D02*
X53011Y-54850D01*
X53145Y-54640D01*
X53583Y-55040D02*
X53583Y-54640D01*
X53735Y-54640D01*
X53773Y-54660D01*
X53792Y-54679D01*
X53811Y-54717D01*
X53811Y-54774D01*
X53792Y-54812D01*
X53773Y-54831D01*
X53735Y-54850D01*
X53583Y-54850D01*
X53983Y-55040D02*
X53983Y-54640D01*
X48573Y-55680D02*
X48440Y-55490D01*
X48345Y-55680D02*
X48345Y-55280D01*
X48497Y-55280D01*
X48535Y-55300D01*
X48554Y-55319D01*
X48573Y-55357D01*
X48573Y-55414D01*
X48554Y-55452D01*
X48535Y-55471D01*
X48497Y-55490D01*
X48345Y-55490D01*
X48745Y-55471D02*
X48878Y-55471D01*
X48935Y-55680D02*
X48745Y-55680D01*
X48745Y-55280D01*
X48935Y-55280D01*
X49050Y-55280D02*
X49183Y-55680D01*
X49316Y-55280D01*
X49735Y-55566D02*
X49926Y-55566D01*
X49697Y-55680D02*
X49830Y-55280D01*
X49964Y-55680D01*
X50097Y-55642D02*
X50116Y-55661D01*
X50097Y-55680D01*
X50078Y-55661D01*
X50097Y-55642D01*
X50097Y-55680D01*
X51107Y-55680D02*
X50878Y-55680D01*
X50992Y-55680D02*
X50992Y-55280D01*
X50954Y-55338D01*
X50916Y-55376D01*
X50878Y-55395D01*
X51354Y-55280D02*
X51392Y-55280D01*
X51430Y-55300D01*
X51449Y-55319D01*
X51469Y-55357D01*
X51488Y-55433D01*
X51488Y-55528D01*
X51469Y-55604D01*
X51449Y-55642D01*
X51430Y-55661D01*
X51392Y-55680D01*
X51354Y-55680D01*
X51316Y-55661D01*
X51297Y-55642D01*
X51278Y-55604D01*
X51259Y-55528D01*
X51259Y-55433D01*
X51278Y-55357D01*
X51297Y-55319D01*
X51316Y-55300D01*
X51354Y-55280D01*
X51640Y-55566D02*
X51830Y-55566D01*
X51602Y-55680D02*
X51735Y-55280D01*
X51869Y-55680D01*
X52002Y-55280D02*
X52002Y-55604D01*
X52021Y-55642D01*
X52040Y-55661D01*
X52078Y-55680D01*
X52154Y-55680D01*
X52192Y-55661D01*
X52211Y-55642D01*
X52230Y-55604D01*
X52230Y-55280D01*
X52630Y-55300D02*
X52592Y-55280D01*
X52535Y-55280D01*
X52478Y-55300D01*
X52440Y-55338D01*
X52421Y-55376D01*
X52402Y-55452D01*
X52402Y-55509D01*
X52421Y-55585D01*
X52440Y-55623D01*
X52478Y-55661D01*
X52535Y-55680D01*
X52573Y-55680D01*
X52630Y-55661D01*
X52649Y-55642D01*
X52649Y-55509D01*
X52573Y-55509D01*
X52802Y-55319D02*
X52821Y-55300D01*
X52859Y-55280D01*
X52954Y-55280D01*
X52992Y-55300D01*
X53011Y-55319D01*
X53030Y-55357D01*
X53030Y-55395D01*
X53011Y-55452D01*
X52783Y-55680D01*
X53030Y-55680D01*
X53278Y-55280D02*
X53316Y-55280D01*
X53354Y-55300D01*
X53373Y-55319D01*
X53392Y-55357D01*
X53411Y-55433D01*
X53411Y-55528D01*
X53392Y-55604D01*
X53373Y-55642D01*
X53354Y-55661D01*
X53316Y-55680D01*
X53278Y-55680D01*
X53240Y-55661D01*
X53221Y-55642D01*
X53202Y-55604D01*
X53183Y-55528D01*
X53183Y-55433D01*
X53202Y-55357D01*
X53221Y-55319D01*
X53240Y-55300D01*
X53278Y-55280D01*
X53792Y-55680D02*
X53564Y-55680D01*
X53678Y-55680D02*
X53678Y-55280D01*
X53640Y-55338D01*
X53602Y-55376D01*
X53564Y-55395D01*
X54135Y-55414D02*
X54135Y-55680D01*
X54040Y-55261D02*
X53945Y-55547D01*
X54192Y-55547D01*
X48459Y-56473D02*
X48440Y-56454D01*
X48402Y-56397D01*
X48383Y-56359D01*
X48364Y-56301D01*
X48345Y-56206D01*
X48345Y-56130D01*
X48364Y-56035D01*
X48383Y-55978D01*
X48402Y-55940D01*
X48440Y-55882D01*
X48459Y-55863D01*
X48783Y-56301D02*
X48745Y-56320D01*
X48669Y-56320D01*
X48630Y-56301D01*
X48611Y-56282D01*
X48592Y-56244D01*
X48592Y-56130D01*
X48611Y-56092D01*
X48630Y-56073D01*
X48669Y-56054D01*
X48745Y-56054D01*
X48783Y-56073D01*
X48916Y-56473D02*
X48935Y-56454D01*
X48973Y-56397D01*
X48992Y-56359D01*
X49011Y-56301D01*
X49030Y-56206D01*
X49030Y-56130D01*
X49011Y-56035D01*
X48992Y-55978D01*
X48973Y-55940D01*
X48935Y-55882D01*
X48916Y-55863D01*
X49507Y-55959D02*
X49526Y-55940D01*
X49564Y-55920D01*
X49659Y-55920D01*
X49697Y-55940D01*
X49716Y-55959D01*
X49735Y-55997D01*
X49735Y-56035D01*
X49716Y-56092D01*
X49488Y-56320D01*
X49735Y-56320D01*
X49983Y-55920D02*
X50021Y-55920D01*
X50059Y-55940D01*
X50078Y-55959D01*
X50097Y-55997D01*
X50116Y-56073D01*
X50116Y-56168D01*
X50097Y-56244D01*
X50078Y-56282D01*
X50059Y-56301D01*
X50021Y-56320D01*
X49983Y-56320D01*
X49945Y-56301D01*
X49926Y-56282D01*
X49907Y-56244D01*
X49888Y-56168D01*
X49888Y-56073D01*
X49907Y-55997D01*
X49926Y-55959D01*
X49945Y-55940D01*
X49983Y-55920D01*
X50497Y-56320D02*
X50269Y-56320D01*
X50383Y-56320D02*
X50383Y-55920D01*
X50345Y-55978D01*
X50307Y-56016D01*
X50269Y-56035D01*
X50840Y-56054D02*
X50840Y-56320D01*
X50745Y-55901D02*
X50649Y-56187D01*
X50897Y-56187D01*
X51564Y-55940D02*
X51526Y-55920D01*
X51469Y-55920D01*
X51411Y-55940D01*
X51373Y-55978D01*
X51354Y-56016D01*
X51335Y-56092D01*
X51335Y-56149D01*
X51354Y-56225D01*
X51373Y-56263D01*
X51411Y-56301D01*
X51469Y-56320D01*
X51507Y-56320D01*
X51564Y-56301D01*
X51583Y-56282D01*
X51583Y-56149D01*
X51507Y-56149D01*
X51983Y-56320D02*
X51849Y-56130D01*
X51754Y-56320D02*
X51754Y-55920D01*
X51907Y-55920D01*
X51945Y-55940D01*
X51964Y-55959D01*
X51983Y-55997D01*
X51983Y-56054D01*
X51964Y-56092D01*
X51945Y-56111D01*
X51907Y-56130D01*
X51754Y-56130D01*
X52135Y-56206D02*
X52326Y-56206D01*
X52097Y-56320D02*
X52230Y-55920D01*
X52364Y-56320D01*
X52497Y-56320D02*
X52497Y-55920D01*
X52630Y-56206D01*
X52764Y-55920D01*
X52764Y-56320D01*
X53145Y-56320D02*
X52954Y-56320D01*
X52954Y-55920D01*
X53278Y-56320D02*
X53278Y-55920D01*
X53697Y-56282D02*
X53678Y-56301D01*
X53621Y-56320D01*
X53583Y-56320D01*
X53526Y-56301D01*
X53488Y-56263D01*
X53469Y-56225D01*
X53449Y-56149D01*
X53449Y-56092D01*
X53469Y-56016D01*
X53488Y-55978D01*
X53526Y-55940D01*
X53583Y-55920D01*
X53621Y-55920D01*
X53678Y-55940D01*
X53697Y-55959D01*
X53869Y-56320D02*
X53869Y-55920D01*
X53869Y-56111D02*
X54097Y-56111D01*
X54097Y-56320D02*
X54097Y-55920D01*
G54D12*
X40304Y-52542D02*
X39695Y-52542D01*
X40304Y-47792D02*
X39695Y-47792D01*
X40304Y-54792D02*
X39695Y-54792D01*
X40000Y-55017D02*
X40000Y-54567D01*
X40304Y-50292D02*
X39695Y-50292D01*
X40000Y-50517D02*
X40000Y-50067D01*
G54D13*
X59500Y-56520D02*
X59500Y-58500D01*
X59500Y-58500D02*
X58500Y-58500D01*
X58500Y-58500D02*
X58500Y-56500D01*
X58500Y-56500D02*
X59500Y-56500D01*
X59250Y-56500D02*
X59500Y-56750D01*
X62500Y-55730D02*
X62500Y-53750D01*
X62500Y-53750D02*
X63500Y-53750D01*
X63500Y-53750D02*
X63500Y-55750D01*
X63500Y-55750D02*
X62500Y-55750D01*
X62750Y-55750D02*
X62500Y-55500D01*
X59980Y-46250D02*
X58000Y-46250D01*
X58000Y-46250D02*
X58000Y-45250D01*
X58000Y-45250D02*
X60000Y-45250D01*
X60000Y-45250D02*
X60000Y-46250D01*
X60000Y-46000D02*
X59750Y-46250D01*
X57520Y-54000D02*
X59500Y-54000D01*
X59500Y-54000D02*
X59500Y-55000D01*
X59500Y-55000D02*
X57500Y-55000D01*
X57500Y-55000D02*
X57500Y-54000D01*
X57500Y-54250D02*
X57750Y-54000D01*
X72980Y-52500D02*
X71000Y-52500D01*
X71000Y-52500D02*
X71000Y-51500D01*
X71000Y-51500D02*
X73000Y-51500D01*
X73000Y-51500D02*
X73000Y-52500D01*
X73000Y-52250D02*
X72750Y-52500D01*
X65250Y-44270D02*
X65250Y-46250D01*
X65250Y-46250D02*
X64250Y-46250D01*
X64250Y-46250D02*
X64250Y-44250D01*
X64250Y-44250D02*
X65250Y-44250D01*
X65000Y-44250D02*
X65250Y-44500D01*
X65750Y-40520D02*
X65750Y-42500D01*
X65750Y-42500D02*
X64750Y-42500D01*
X64750Y-42500D02*
X64750Y-40500D01*
X64750Y-40500D02*
X65750Y-40500D01*
X65500Y-40500D02*
X65750Y-40750D01*
X61520Y-40250D02*
X63500Y-40250D01*
X63500Y-40250D02*
X63500Y-41250D01*
X63500Y-41250D02*
X61500Y-41250D01*
X61500Y-41250D02*
X61500Y-40250D01*
X61500Y-40500D02*
X61750Y-40250D01*
G54D14*
X63000Y-45000D02*
X63000Y-45400D01*
X63000Y-43100D02*
X63000Y-42600D01*
G54D15*
X62500Y-43200D02*
X63500Y-43200D01*
X62500Y-43300D02*
X63500Y-43300D01*
X62500Y-43400D02*
X63500Y-43400D01*
X62500Y-43100D02*
X63500Y-43100D01*
X62500Y-43500D02*
X63500Y-43000D01*
X62500Y-43000D02*
X63500Y-43500D01*
X62500Y-43500D02*
X63500Y-43500D01*
X62500Y-43250D02*
X63500Y-43250D01*
X63500Y-43000D02*
X62500Y-43000D01*
X62500Y-43000D02*
X62500Y-45000D01*
X62500Y-45000D02*
X63500Y-45000D01*
X63500Y-45000D02*
X63500Y-43000D01*
G54D16*
X46050Y-43600D02*
G75*
G03X46350Y-45200I950J-650D01*
G74*
G01*
X46350Y-45200D02*
X47650Y-45200D01*
X47650Y-45200D02*
G75*
G03X46050Y-44900I-650J950D01*
G74*
G01*
G54D15*
X76000Y-55250D02*
X78000Y-55250D01*
X78000Y-55250D02*
X78000Y-54250D01*
X78000Y-54250D02*
X76000Y-54250D01*
X75000Y-54250D02*
X76000Y-54250D01*
X76000Y-54250D02*
X76000Y-55250D01*
X75000Y-54250D02*
X75000Y-55250D01*
X75000Y-55250D02*
X76000Y-55250D01*
X43250Y-44250D02*
X43250Y-45250D01*
X43250Y-45250D02*
X44250Y-45250D01*
X44250Y-45250D02*
X44250Y-44250D01*
X44250Y-44250D02*
X43250Y-44250D01*
X43250Y-44250D02*
X43250Y-43250D01*
X43250Y-43250D02*
X45250Y-43250D01*
X45250Y-43250D02*
X45250Y-45250D01*
X45250Y-45250D02*
X44250Y-45250D01*
G54D11*
X40346Y-50968D02*
X43299Y-50968D01*
X43299Y-50968D02*
X43299Y-47031D01*
X43299Y-47031D02*
X40346Y-47031D01*
X40346Y-47031D02*
X40346Y-50968D01*
X40346Y-55468D02*
X43299Y-55468D01*
X43299Y-55468D02*
X43299Y-51531D01*
X43299Y-51531D02*
X40346Y-51531D01*
X40346Y-51531D02*
X40346Y-55468D01*
G54D16*
X78700Y-51000D02*
X78400Y-51200D01*
X78700Y-51000D02*
X78400Y-50800D01*
G54D15*
X78400Y-48100D02*
X78200Y-48100D01*
X78200Y-48100D02*
X78200Y-49900D01*
X78200Y-49900D02*
X78400Y-49900D01*
X74600Y-53000D02*
X74600Y-45000D01*
X74600Y-45000D02*
X78400Y-45000D01*
X78400Y-45000D02*
X78400Y-53000D01*
X78400Y-53000D02*
X74600Y-53000D01*
X55250Y-42750D02*
X60250Y-42750D01*
X60250Y-42750D02*
X60250Y-43750D01*
X60250Y-43750D02*
X55250Y-43750D01*
X54250Y-42750D02*
X55250Y-42750D01*
X55250Y-42750D02*
X55250Y-43750D01*
X54250Y-42750D02*
X54250Y-43750D01*
X54250Y-43750D02*
X55250Y-43750D01*
X49500Y-57500D02*
X54500Y-57500D01*
X54500Y-57500D02*
X54500Y-58500D01*
X54500Y-58500D02*
X49500Y-58500D01*
X48500Y-57500D02*
X49500Y-57500D01*
X49500Y-57500D02*
X49500Y-58500D01*
X48500Y-57500D02*
X48500Y-58500D01*
X48500Y-58500D02*
X49500Y-58500D01*
G54D16*
X44750Y-48750D02*
X44750Y-49000D01*
X44750Y-49000D02*
X44250Y-49000D01*
X44250Y-49000D02*
X44250Y-48750D01*
X46750Y-48750D02*
X46750Y-49000D01*
X46750Y-49000D02*
X45250Y-49000D01*
X45250Y-49000D02*
X45250Y-48750D01*
X44000Y-47750D02*
X44000Y-47250D01*
X44000Y-47250D02*
X47000Y-47250D01*
X47000Y-47250D02*
X47000Y-47750D01*
G54D15*
X45000Y-48750D02*
X47000Y-48750D01*
X47000Y-48750D02*
X47000Y-47750D01*
X47000Y-47750D02*
X45000Y-47750D01*
X44000Y-47750D02*
X45000Y-47750D01*
X45000Y-47750D02*
X45000Y-48750D01*
X44000Y-47750D02*
X44000Y-48750D01*
X44000Y-48750D02*
X45000Y-48750D01*
X56500Y-58500D02*
X56500Y-57500D01*
X56500Y-57500D02*
X57500Y-57500D01*
X57500Y-58500D02*
X57500Y-55500D01*
X57500Y-55500D02*
X55500Y-55500D01*
X55500Y-55500D02*
X55500Y-57500D01*
X57500Y-58500D02*
X56500Y-58500D01*
X55500Y-58500D02*
X56500Y-58500D01*
X55500Y-57500D02*
X55500Y-58500D01*
X54500Y-45250D02*
X57500Y-45250D01*
X54500Y-44250D02*
X57500Y-44250D01*
X53500Y-44250D02*
X54500Y-44250D01*
X57500Y-45250D02*
X57500Y-44250D01*
X54500Y-44250D02*
X54500Y-45250D01*
X53500Y-44250D02*
X53500Y-45250D01*
X53500Y-45250D02*
X54500Y-45250D01*
G54D16*
X66250Y-58950D02*
X66050Y-58650D01*
X66250Y-58950D02*
X66450Y-58650D01*
G54D15*
X69150Y-58650D02*
X69150Y-58450D01*
X69150Y-58450D02*
X67350Y-58450D01*
X67350Y-58450D02*
X67350Y-58650D01*
X64250Y-54850D02*
X72250Y-54850D01*
X72250Y-54850D02*
X72250Y-58650D01*
X72250Y-58650D02*
X64250Y-58650D01*
X64250Y-58650D02*
X64250Y-54850D01*
X60250Y-40250D02*
X40250Y-40250D01*
X41250Y-42250D02*
X60250Y-42250D01*
X60250Y-40250D02*
X60250Y-42250D01*
X40250Y-40250D02*
X40250Y-41250D01*
X40250Y-42250D02*
X41250Y-42250D01*
X40250Y-41250D02*
X41250Y-41250D01*
X41250Y-41250D02*
X41250Y-42250D01*
X40250Y-42250D02*
X40250Y-41250D01*
G54D14*
X46750Y-51950D02*
X46750Y-51400D01*
X45750Y-51950D02*
X45750Y-51400D01*
X44750Y-51950D02*
X44750Y-51400D01*
X46739Y-57100D02*
G75*
G03X46739Y-57100I-989J0D01*
G74*
G01*
X43650Y-55300D02*
X43650Y-58450D01*
X43650Y-58450D02*
X47850Y-58450D01*
X47850Y-58450D02*
X47850Y-55300D01*
X43650Y-51950D02*
X43650Y-55300D01*
X43650Y-55300D02*
X47850Y-55300D01*
X47850Y-55300D02*
X47850Y-51950D01*
X45750Y-51950D02*
X47850Y-51950D01*
X45750Y-51950D02*
X43650Y-51950D01*
G54D15*
X66750Y-43750D02*
X73750Y-43750D01*
X73750Y-43750D02*
X73750Y-44750D01*
X73750Y-44750D02*
X66750Y-44750D01*
X65750Y-43750D02*
X66750Y-43750D01*
X66750Y-43750D02*
X66750Y-44750D01*
X65750Y-43750D02*
X65750Y-44750D01*
X65750Y-44750D02*
X66750Y-44750D01*
X66750Y-45250D02*
X73750Y-45250D01*
X73750Y-45250D02*
X73750Y-46250D01*
X73750Y-46250D02*
X66750Y-46250D01*
X65750Y-45250D02*
X66750Y-45250D01*
X66750Y-45250D02*
X66750Y-46250D01*
X65750Y-45250D02*
X65750Y-46250D01*
X65750Y-46250D02*
X66750Y-46250D01*
G54D14*
X71031Y-53750D02*
X70631Y-53750D01*
X73031Y-53750D02*
X73431Y-53750D01*
X71031Y-53250D02*
X73031Y-53250D01*
X73031Y-53250D02*
X73031Y-54250D01*
X73031Y-54250D02*
X71031Y-54250D01*
X71031Y-54250D02*
X71031Y-53250D01*
X61500Y-44969D02*
X61500Y-45369D01*
X61500Y-42969D02*
X61500Y-42569D01*
X61000Y-44969D02*
X61000Y-42969D01*
X61000Y-42969D02*
X62000Y-42969D01*
X62000Y-42969D02*
X62000Y-44969D01*
X62000Y-44969D02*
X61000Y-44969D01*
X49781Y-43500D02*
X49381Y-43500D01*
X51781Y-43500D02*
X52181Y-43500D01*
X49781Y-43000D02*
X51781Y-43000D01*
X51781Y-43000D02*
X51781Y-44000D01*
X51781Y-44000D02*
X49781Y-44000D01*
X49781Y-44000D02*
X49781Y-43000D01*
X49781Y-45500D02*
X49381Y-45500D01*
X51781Y-45500D02*
X52181Y-45500D01*
X49781Y-45000D02*
X51781Y-45000D01*
X51781Y-45000D02*
X51781Y-46000D01*
X51781Y-46000D02*
X49781Y-46000D01*
X49781Y-46000D02*
X49781Y-45000D01*
X77431Y-44439D02*
X77431Y-44341D01*
X75069Y-44439D02*
X75069Y-44341D01*
X77431Y-43061D02*
X77431Y-43159D01*
X75069Y-43061D02*
X75069Y-43159D01*
X75069Y-44439D02*
X77431Y-44439D01*
X75069Y-43061D02*
X77431Y-43061D01*
X66250Y-40500D02*
X74250Y-40500D01*
X74250Y-42500D02*
X66250Y-42500D01*
X66250Y-42500D02*
X66250Y-40500D01*
X66250Y-41000D02*
X66750Y-41000D01*
X66750Y-41000D02*
X66750Y-42000D01*
X66750Y-42000D02*
X66250Y-42000D01*
X74250Y-40500D02*
X74250Y-42500D01*
G54D15*
X72500Y-47000D02*
X72500Y-47500D01*
X72500Y-47500D02*
X71500Y-47500D01*
X71500Y-47500D02*
X71500Y-47000D01*
X73000Y-47000D02*
X73000Y-51000D01*
X73000Y-51000D02*
X71000Y-51000D01*
X71000Y-51000D02*
X71000Y-47000D01*
X71000Y-47000D02*
X73000Y-47000D01*
G54D14*
X48500Y-49500D02*
X49000Y-49500D01*
X49000Y-49500D02*
X49000Y-50500D01*
X49000Y-50500D02*
X48500Y-50500D01*
X48500Y-47500D02*
X69500Y-47500D01*
X69500Y-47500D02*
X69500Y-52500D01*
X69500Y-52500D02*
X48500Y-52500D01*
X48500Y-52500D02*
X48500Y-47500D01*
X60606Y-54150D02*
X60764Y-54071D01*
X60764Y-54071D02*
X61000Y-54031D01*
X61000Y-54031D02*
X61197Y-54071D01*
X61197Y-54071D02*
X61472Y-54228D01*
X61472Y-54228D02*
X61630Y-54465D01*
X61630Y-54465D02*
X61709Y-54701D01*
X61709Y-54701D02*
X61709Y-57299D01*
X61709Y-57299D02*
X61630Y-57575D01*
X61630Y-57575D02*
X61512Y-57732D01*
X61512Y-57732D02*
X61315Y-57890D01*
X61315Y-57890D02*
X61079Y-57969D01*
X61079Y-57969D02*
X60882Y-57969D01*
X60882Y-57969D02*
X60685Y-57890D01*
X60685Y-57890D02*
X60449Y-57693D01*
X60449Y-57693D02*
X60331Y-57496D01*
X60331Y-57496D02*
X60291Y-57299D01*
X60291Y-57260D02*
X60291Y-54661D01*
X60291Y-54661D02*
X60331Y-54504D01*
X60331Y-54504D02*
X60449Y-54307D01*
X60449Y-54307D02*
X60646Y-54110D01*
X60083Y-57256D02*
X60102Y-57437D01*
X60102Y-57437D02*
X60146Y-57594D01*
X60146Y-57594D02*
X60232Y-57764D01*
X60232Y-57764D02*
X60323Y-57878D01*
X60323Y-57878D02*
X60461Y-58008D01*
X60461Y-58008D02*
X60673Y-58122D01*
X60673Y-58122D02*
X60909Y-58173D01*
X60909Y-58173D02*
X61110Y-58173D01*
X61110Y-58173D02*
X61386Y-58106D01*
X61386Y-58106D02*
X61618Y-57949D01*
X61618Y-57949D02*
X61764Y-57768D01*
X61764Y-57768D02*
X61846Y-57602D01*
X61846Y-57602D02*
X61909Y-57425D01*
X61909Y-57425D02*
X61921Y-57252D01*
X61835Y-54362D02*
X61748Y-54213D01*
X61748Y-54213D02*
X61638Y-54087D01*
X61638Y-54087D02*
X61508Y-53988D01*
X61508Y-53988D02*
X61291Y-53870D01*
X61291Y-53870D02*
X61106Y-53827D01*
X61106Y-53827D02*
X60925Y-53819D01*
X60925Y-53819D02*
X60744Y-53854D01*
X60744Y-53854D02*
X60567Y-53929D01*
X60567Y-53929D02*
X60382Y-54071D01*
X60382Y-54071D02*
X60256Y-54209D01*
X60256Y-54209D02*
X60165Y-54362D01*
X60165Y-54362D02*
X60110Y-54531D01*
X60110Y-54531D02*
X60083Y-54705D01*
X61917Y-57260D02*
X61917Y-54720D01*
X61917Y-54720D02*
X61902Y-54555D01*
X61902Y-54555D02*
X61835Y-54362D01*
X60083Y-57260D02*
X60083Y-54720D01*
G54D11*
X58883Y-56192D02*
X58864Y-56211D01*
X58807Y-56230D01*
X58769Y-56230D01*
X58711Y-56211D01*
X58673Y-56173D01*
X58654Y-56135D01*
X58635Y-56059D01*
X58635Y-56002D01*
X58654Y-55926D01*
X58673Y-55888D01*
X58711Y-55850D01*
X58769Y-55830D01*
X58807Y-55830D01*
X58864Y-55850D01*
X58883Y-55869D01*
X59264Y-56230D02*
X59035Y-56230D01*
X59150Y-56230D02*
X59150Y-55830D01*
X59111Y-55888D01*
X59073Y-55926D01*
X59035Y-55945D01*
X63983Y-54242D02*
X63964Y-54261D01*
X63907Y-54280D01*
X63869Y-54280D01*
X63811Y-54261D01*
X63773Y-54223D01*
X63754Y-54185D01*
X63735Y-54109D01*
X63735Y-54052D01*
X63754Y-53976D01*
X63773Y-53938D01*
X63811Y-53900D01*
X63869Y-53880D01*
X63907Y-53880D01*
X63964Y-53900D01*
X63983Y-53919D01*
X64135Y-53919D02*
X64154Y-53900D01*
X64192Y-53880D01*
X64288Y-53880D01*
X64326Y-53900D01*
X64345Y-53919D01*
X64364Y-53957D01*
X64364Y-53995D01*
X64345Y-54052D01*
X64116Y-54280D01*
X64364Y-54280D01*
X58983Y-44992D02*
X58964Y-45011D01*
X58907Y-45030D01*
X58869Y-45030D01*
X58811Y-45011D01*
X58773Y-44973D01*
X58754Y-44935D01*
X58735Y-44859D01*
X58735Y-44802D01*
X58754Y-44726D01*
X58773Y-44688D01*
X58811Y-44650D01*
X58869Y-44630D01*
X58907Y-44630D01*
X58964Y-44650D01*
X58983Y-44669D01*
X59116Y-44630D02*
X59364Y-44630D01*
X59230Y-44783D01*
X59288Y-44783D01*
X59326Y-44802D01*
X59345Y-44821D01*
X59364Y-44859D01*
X59364Y-44954D01*
X59345Y-44992D01*
X59326Y-45011D01*
X59288Y-45030D01*
X59173Y-45030D01*
X59135Y-45011D01*
X59116Y-44992D01*
X56983Y-53842D02*
X56964Y-53861D01*
X56907Y-53880D01*
X56869Y-53880D01*
X56811Y-53861D01*
X56773Y-53823D01*
X56754Y-53785D01*
X56735Y-53709D01*
X56735Y-53652D01*
X56754Y-53576D01*
X56773Y-53538D01*
X56811Y-53500D01*
X56869Y-53480D01*
X56907Y-53480D01*
X56964Y-53500D01*
X56983Y-53519D01*
X57326Y-53614D02*
X57326Y-53880D01*
X57230Y-53461D02*
X57135Y-53747D01*
X57383Y-53747D01*
X70383Y-52142D02*
X70364Y-52161D01*
X70307Y-52180D01*
X70269Y-52180D01*
X70211Y-52161D01*
X70173Y-52123D01*
X70154Y-52085D01*
X70135Y-52009D01*
X70135Y-51952D01*
X70154Y-51876D01*
X70173Y-51838D01*
X70211Y-51800D01*
X70269Y-51780D01*
X70307Y-51780D01*
X70364Y-51800D01*
X70383Y-51819D01*
X70745Y-51780D02*
X70554Y-51780D01*
X70535Y-51971D01*
X70554Y-51952D01*
X70592Y-51933D01*
X70688Y-51933D01*
X70726Y-51952D01*
X70745Y-51971D01*
X70764Y-52009D01*
X70764Y-52104D01*
X70745Y-52142D01*
X70726Y-52161D01*
X70688Y-52180D01*
X70592Y-52180D01*
X70554Y-52161D01*
X70535Y-52142D01*
X64733Y-43992D02*
X64714Y-44011D01*
X64657Y-44030D01*
X64619Y-44030D01*
X64561Y-44011D01*
X64523Y-43973D01*
X64504Y-43935D01*
X64485Y-43859D01*
X64485Y-43802D01*
X64504Y-43726D01*
X64523Y-43688D01*
X64561Y-43650D01*
X64619Y-43630D01*
X64657Y-43630D01*
X64714Y-43650D01*
X64733Y-43669D01*
X65076Y-43630D02*
X65000Y-43630D01*
X64961Y-43650D01*
X64942Y-43669D01*
X64904Y-43726D01*
X64885Y-43802D01*
X64885Y-43954D01*
X64904Y-43992D01*
X64923Y-44011D01*
X64961Y-44030D01*
X65038Y-44030D01*
X65076Y-44011D01*
X65095Y-43992D01*
X65114Y-43954D01*
X65114Y-43859D01*
X65095Y-43821D01*
X65076Y-43802D01*
X65038Y-43783D01*
X64961Y-43783D01*
X64923Y-43802D01*
X64904Y-43821D01*
X64885Y-43859D01*
X65233Y-43092D02*
X65214Y-43111D01*
X65157Y-43130D01*
X65119Y-43130D01*
X65061Y-43111D01*
X65023Y-43073D01*
X65004Y-43035D01*
X64985Y-42959D01*
X64985Y-42902D01*
X65004Y-42826D01*
X65023Y-42788D01*
X65061Y-42750D01*
X65119Y-42730D01*
X65157Y-42730D01*
X65214Y-42750D01*
X65233Y-42769D01*
X65366Y-42730D02*
X65633Y-42730D01*
X65461Y-43130D01*
X60883Y-40942D02*
X60864Y-40961D01*
X60807Y-40980D01*
X60769Y-40980D01*
X60711Y-40961D01*
X60673Y-40923D01*
X60654Y-40885D01*
X60635Y-40809D01*
X60635Y-40752D01*
X60654Y-40676D01*
X60673Y-40638D01*
X60711Y-40600D01*
X60769Y-40580D01*
X60807Y-40580D01*
X60864Y-40600D01*
X60883Y-40619D01*
X61111Y-40752D02*
X61073Y-40733D01*
X61054Y-40714D01*
X61035Y-40676D01*
X61035Y-40657D01*
X61054Y-40619D01*
X61073Y-40600D01*
X61111Y-40580D01*
X61188Y-40580D01*
X61226Y-40600D01*
X61245Y-40619D01*
X61264Y-40657D01*
X61264Y-40676D01*
X61245Y-40714D01*
X61226Y-40733D01*
X61188Y-40752D01*
X61111Y-40752D01*
X61073Y-40771D01*
X61054Y-40790D01*
X61035Y-40828D01*
X61035Y-40904D01*
X61054Y-40942D01*
X61073Y-40961D01*
X61111Y-40980D01*
X61188Y-40980D01*
X61226Y-40961D01*
X61245Y-40942D01*
X61264Y-40904D01*
X61264Y-40828D01*
X61245Y-40790D01*
X61226Y-40771D01*
X61188Y-40752D01*
X63654Y-43680D02*
X63654Y-43280D01*
X63750Y-43280D01*
X63807Y-43300D01*
X63845Y-43338D01*
X63864Y-43376D01*
X63883Y-43452D01*
X63883Y-43509D01*
X63864Y-43585D01*
X63845Y-43623D01*
X63807Y-43661D01*
X63750Y-43680D01*
X63654Y-43680D01*
X64264Y-43680D02*
X64035Y-43680D01*
X64150Y-43680D02*
X64150Y-43280D01*
X64111Y-43338D01*
X64073Y-43376D01*
X64035Y-43395D01*
X63701Y-42916D02*
X63701Y-42611D01*
X63642Y-45498D02*
X63642Y-45194D01*
X63795Y-45346D02*
X63490Y-45346D01*
X46654Y-46280D02*
X46654Y-45880D01*
X46750Y-45880D01*
X46807Y-45900D01*
X46845Y-45938D01*
X46864Y-45976D01*
X46883Y-46052D01*
X46883Y-46109D01*
X46864Y-46185D01*
X46845Y-46223D01*
X46807Y-46261D01*
X46750Y-46280D01*
X46654Y-46280D01*
X47035Y-45919D02*
X47054Y-45900D01*
X47092Y-45880D01*
X47188Y-45880D01*
X47226Y-45900D01*
X47245Y-45919D01*
X47264Y-45957D01*
X47264Y-45995D01*
X47245Y-46052D01*
X47016Y-46280D01*
X47264Y-46280D01*
X46847Y-45528D02*
X47152Y-45528D01*
X46847Y-42778D02*
X47152Y-42778D01*
X47000Y-42930D02*
X47000Y-42626D01*
X41126Y-45316D02*
X41126Y-44916D01*
X41126Y-45107D02*
X41354Y-45107D01*
X41354Y-45316D02*
X41354Y-44916D01*
X41754Y-45316D02*
X41526Y-45316D01*
X41640Y-45316D02*
X41640Y-44916D01*
X41602Y-44973D01*
X41564Y-45012D01*
X41526Y-45031D01*
X76559Y-41379D02*
X76559Y-40979D01*
X76559Y-41170D02*
X76787Y-41170D01*
X76787Y-41379D02*
X76787Y-40979D01*
X76959Y-41017D02*
X76978Y-40998D01*
X77016Y-40979D01*
X77111Y-40979D01*
X77149Y-40998D01*
X77168Y-41017D01*
X77187Y-41055D01*
X77187Y-41094D01*
X77168Y-41151D01*
X76940Y-41379D01*
X77187Y-41379D01*
X41126Y-57127D02*
X41126Y-56727D01*
X41126Y-56918D02*
X41354Y-56918D01*
X41354Y-57127D02*
X41354Y-56727D01*
X41507Y-56727D02*
X41754Y-56727D01*
X41621Y-56880D01*
X41678Y-56880D01*
X41716Y-56899D01*
X41735Y-56918D01*
X41754Y-56956D01*
X41754Y-57051D01*
X41735Y-57089D01*
X41716Y-57108D01*
X41678Y-57127D01*
X41564Y-57127D01*
X41526Y-57108D01*
X41507Y-57089D01*
X76559Y-57127D02*
X76559Y-56727D01*
X76559Y-56918D02*
X76787Y-56918D01*
X76787Y-57127D02*
X76787Y-56727D01*
X77149Y-56861D02*
X77149Y-57127D01*
X77054Y-56708D02*
X76959Y-56994D01*
X77207Y-56994D01*
X74316Y-54580D02*
X74316Y-54866D01*
X74297Y-54923D01*
X74259Y-54961D01*
X74202Y-54980D01*
X74164Y-54980D01*
X74716Y-54980D02*
X74488Y-54980D01*
X74602Y-54980D02*
X74602Y-54580D01*
X74564Y-54638D01*
X74526Y-54676D01*
X74488Y-54695D01*
X43966Y-45530D02*
X43966Y-45816D01*
X43947Y-45873D01*
X43909Y-45911D01*
X43852Y-45930D01*
X43814Y-45930D01*
X44138Y-45569D02*
X44157Y-45550D01*
X44195Y-45530D01*
X44290Y-45530D01*
X44328Y-45550D01*
X44347Y-45569D01*
X44366Y-45607D01*
X44366Y-45645D01*
X44347Y-45702D01*
X44119Y-45930D01*
X44366Y-45930D01*
X42754Y-46838D02*
X42754Y-46438D01*
X42982Y-46838D01*
X42982Y-46438D01*
X43382Y-46838D02*
X43154Y-46838D01*
X43268Y-46838D02*
X43268Y-46438D01*
X43230Y-46495D01*
X43192Y-46533D01*
X43154Y-46552D01*
X42675Y-56094D02*
X42675Y-55694D01*
X42904Y-56094D01*
X42904Y-55694D01*
X43075Y-55732D02*
X43094Y-55713D01*
X43132Y-55694D01*
X43227Y-55694D01*
X43266Y-55713D01*
X43285Y-55732D01*
X43304Y-55770D01*
X43304Y-55808D01*
X43285Y-55865D01*
X43056Y-56094D01*
X43304Y-56094D01*
X73745Y-52730D02*
X73745Y-52330D01*
X73973Y-52730D01*
X73973Y-52330D01*
X74126Y-52330D02*
X74373Y-52330D01*
X74240Y-52483D01*
X74297Y-52483D01*
X74335Y-52502D01*
X74354Y-52521D01*
X74373Y-52559D01*
X74373Y-52654D01*
X74354Y-52692D01*
X74335Y-52711D01*
X74297Y-52730D01*
X74183Y-52730D01*
X74145Y-52711D01*
X74126Y-52692D01*
X53395Y-43080D02*
X53395Y-42680D01*
X53623Y-43080D01*
X53623Y-42680D01*
X53985Y-42814D02*
X53985Y-43080D01*
X53890Y-42661D02*
X53795Y-42947D01*
X54042Y-42947D01*
X53445Y-57280D02*
X53445Y-56880D01*
X53673Y-57280D01*
X53673Y-56880D01*
X54054Y-56880D02*
X53864Y-56880D01*
X53845Y-57071D01*
X53864Y-57052D01*
X53902Y-57033D01*
X53997Y-57033D01*
X54035Y-57052D01*
X54054Y-57071D01*
X54073Y-57109D01*
X54073Y-57204D01*
X54054Y-57242D01*
X54035Y-57261D01*
X53997Y-57280D01*
X53902Y-57280D01*
X53864Y-57261D01*
X53845Y-57242D01*
X45245Y-47130D02*
X45245Y-46730D01*
X45473Y-47130D01*
X45473Y-46730D01*
X45835Y-46730D02*
X45759Y-46730D01*
X45721Y-46750D01*
X45702Y-46769D01*
X45664Y-46826D01*
X45645Y-46902D01*
X45645Y-47054D01*
X45664Y-47092D01*
X45683Y-47111D01*
X45721Y-47130D01*
X45797Y-47130D01*
X45835Y-47111D01*
X45854Y-47092D01*
X45873Y-47054D01*
X45873Y-46959D01*
X45854Y-46921D01*
X45835Y-46902D01*
X45797Y-46883D01*
X45721Y-46883D01*
X45683Y-46902D01*
X45664Y-46921D01*
X45645Y-46959D01*
X54699Y-56043D02*
X54699Y-55643D01*
X54927Y-56043D01*
X54927Y-55643D01*
X55080Y-55643D02*
X55346Y-55643D01*
X55175Y-56043D01*
X54895Y-45830D02*
X54895Y-45430D01*
X55123Y-45830D01*
X55123Y-45430D01*
X55371Y-45602D02*
X55333Y-45583D01*
X55314Y-45564D01*
X55295Y-45526D01*
X55295Y-45507D01*
X55314Y-45469D01*
X55333Y-45450D01*
X55371Y-45430D01*
X55447Y-45430D01*
X55485Y-45450D01*
X55504Y-45469D01*
X55523Y-45507D01*
X55523Y-45526D01*
X55504Y-45564D01*
X55485Y-45583D01*
X55447Y-45602D01*
X55371Y-45602D01*
X55333Y-45621D01*
X55314Y-45640D01*
X55295Y-45678D01*
X55295Y-45754D01*
X55314Y-45792D01*
X55333Y-45811D01*
X55371Y-45830D01*
X55447Y-45830D01*
X55485Y-45811D01*
X55504Y-45792D01*
X55523Y-45754D01*
X55523Y-45678D01*
X55504Y-45640D01*
X55485Y-45621D01*
X55447Y-45602D01*
X72445Y-56930D02*
X72445Y-56530D01*
X72673Y-56930D01*
X72673Y-56530D01*
X72883Y-56930D02*
X72959Y-56930D01*
X72997Y-56911D01*
X73016Y-56892D01*
X73054Y-56835D01*
X73073Y-56759D01*
X73073Y-56607D01*
X73054Y-56569D01*
X73035Y-56550D01*
X72997Y-56530D01*
X72921Y-56530D01*
X72883Y-56550D01*
X72864Y-56569D01*
X72845Y-56607D01*
X72845Y-56702D01*
X72864Y-56740D01*
X72883Y-56759D01*
X72921Y-56778D01*
X72997Y-56778D01*
X73035Y-56759D01*
X73054Y-56740D01*
X73073Y-56702D01*
X48554Y-42830D02*
X48554Y-42430D01*
X48783Y-42830D01*
X48783Y-42430D01*
X49183Y-42830D02*
X48954Y-42830D01*
X49069Y-42830D02*
X49069Y-42430D01*
X49030Y-42488D01*
X48992Y-42526D01*
X48954Y-42545D01*
X49430Y-42430D02*
X49469Y-42430D01*
X49507Y-42450D01*
X49526Y-42469D01*
X49545Y-42507D01*
X49564Y-42583D01*
X49564Y-42678D01*
X49545Y-42754D01*
X49526Y-42792D01*
X49507Y-42811D01*
X49469Y-42830D01*
X49430Y-42830D01*
X49392Y-42811D01*
X49373Y-42792D01*
X49354Y-42754D01*
X49335Y-42678D01*
X49335Y-42583D01*
X49354Y-42507D01*
X49373Y-42469D01*
X49392Y-42450D01*
X49430Y-42430D01*
X48288Y-53368D02*
X48250Y-53349D01*
X48212Y-53311D01*
X48155Y-53254D01*
X48117Y-53235D01*
X48079Y-53235D01*
X48098Y-53330D02*
X48060Y-53311D01*
X48022Y-53273D01*
X48002Y-53197D01*
X48002Y-53063D01*
X48022Y-52987D01*
X48060Y-52949D01*
X48098Y-52930D01*
X48174Y-52930D01*
X48212Y-52949D01*
X48250Y-52987D01*
X48269Y-53063D01*
X48269Y-53197D01*
X48250Y-53273D01*
X48212Y-53311D01*
X48174Y-53330D01*
X48098Y-53330D01*
X48650Y-53330D02*
X48422Y-53330D01*
X48536Y-53330D02*
X48536Y-52930D01*
X48498Y-52987D01*
X48460Y-53025D01*
X48422Y-53044D01*
G54D17*
X46853Y-52303D02*
X46815Y-52284D01*
X46759Y-52284D01*
X46703Y-52303D01*
X46665Y-52340D01*
X46646Y-52378D01*
X46628Y-52453D01*
X46628Y-52509D01*
X46646Y-52584D01*
X46665Y-52621D01*
X46703Y-52659D01*
X46759Y-52678D01*
X46796Y-52678D01*
X46853Y-52659D01*
X46871Y-52640D01*
X46871Y-52509D01*
X46796Y-52509D01*
G54D18*
G54D17*
X44637Y-52659D02*
X44693Y-52678D01*
X44787Y-52678D01*
X44825Y-52659D01*
X44843Y-52640D01*
X44862Y-52603D01*
X44862Y-52565D01*
X44843Y-52528D01*
X44825Y-52509D01*
X44787Y-52490D01*
X44712Y-52471D01*
X44674Y-52453D01*
X44656Y-52434D01*
X44637Y-52396D01*
X44637Y-52359D01*
X44656Y-52321D01*
X44674Y-52303D01*
X44712Y-52284D01*
X44806Y-52284D01*
X44862Y-52303D01*
G54D18*
G54D17*
X45646Y-52678D02*
X45646Y-52284D01*
X45740Y-52284D01*
X45796Y-52303D01*
X45834Y-52340D01*
X45853Y-52378D01*
X45871Y-52453D01*
X45871Y-52509D01*
X45853Y-52584D01*
X45834Y-52621D01*
X45796Y-52659D01*
X45740Y-52678D01*
X45646Y-52678D01*
G54D18*
G54D11*
X74283Y-44830D02*
X74150Y-44640D01*
X74054Y-44830D02*
X74054Y-44430D01*
X74207Y-44430D01*
X74245Y-44450D01*
X74264Y-44469D01*
X74283Y-44507D01*
X74283Y-44564D01*
X74264Y-44602D01*
X74245Y-44621D01*
X74207Y-44640D01*
X74054Y-44640D01*
X74664Y-44830D02*
X74435Y-44830D01*
X74550Y-44830D02*
X74550Y-44430D01*
X74511Y-44488D01*
X74473Y-44526D01*
X74435Y-44545D01*
X69633Y-46930D02*
X69500Y-46740D01*
X69404Y-46930D02*
X69404Y-46530D01*
X69557Y-46530D01*
X69595Y-46550D01*
X69614Y-46569D01*
X69633Y-46607D01*
X69633Y-46664D01*
X69614Y-46702D01*
X69595Y-46721D01*
X69557Y-46740D01*
X69404Y-46740D01*
X69785Y-46569D02*
X69804Y-46550D01*
X69842Y-46530D01*
X69938Y-46530D01*
X69976Y-46550D01*
X69995Y-46569D01*
X70014Y-46607D01*
X70014Y-46645D01*
X69995Y-46702D01*
X69766Y-46930D01*
X70014Y-46930D01*
X70483Y-54630D02*
X70350Y-54440D01*
X70254Y-54630D02*
X70254Y-54230D01*
X70407Y-54230D01*
X70445Y-54250D01*
X70464Y-54269D01*
X70483Y-54307D01*
X70483Y-54364D01*
X70464Y-54402D01*
X70445Y-54421D01*
X70407Y-54440D01*
X70254Y-54440D01*
X70616Y-54230D02*
X70864Y-54230D01*
X70730Y-54383D01*
X70788Y-54383D01*
X70826Y-54402D01*
X70845Y-54421D01*
X70864Y-54459D01*
X70864Y-54554D01*
X70845Y-54592D01*
X70826Y-54611D01*
X70788Y-54630D01*
X70673Y-54630D01*
X70635Y-54611D01*
X70616Y-54592D01*
X60733Y-45530D02*
X60600Y-45340D01*
X60504Y-45530D02*
X60504Y-45130D01*
X60657Y-45130D01*
X60695Y-45150D01*
X60714Y-45169D01*
X60733Y-45207D01*
X60733Y-45264D01*
X60714Y-45302D01*
X60695Y-45321D01*
X60657Y-45340D01*
X60504Y-45340D01*
X61076Y-45264D02*
X61076Y-45530D01*
X60980Y-45111D02*
X60885Y-45397D01*
X61133Y-45397D01*
X52233Y-42880D02*
X52100Y-42690D01*
X52004Y-42880D02*
X52004Y-42480D01*
X52157Y-42480D01*
X52195Y-42500D01*
X52214Y-42519D01*
X52233Y-42557D01*
X52233Y-42614D01*
X52214Y-42652D01*
X52195Y-42671D01*
X52157Y-42690D01*
X52004Y-42690D01*
X52595Y-42480D02*
X52404Y-42480D01*
X52385Y-42671D01*
X52404Y-42652D01*
X52442Y-42633D01*
X52538Y-42633D01*
X52576Y-42652D01*
X52595Y-42671D01*
X52614Y-42709D01*
X52614Y-42804D01*
X52595Y-42842D01*
X52576Y-42861D01*
X52538Y-42880D01*
X52442Y-42880D01*
X52404Y-42861D01*
X52385Y-42842D01*
X49183Y-46430D02*
X49050Y-46240D01*
X48954Y-46430D02*
X48954Y-46030D01*
X49107Y-46030D01*
X49145Y-46050D01*
X49164Y-46069D01*
X49183Y-46107D01*
X49183Y-46164D01*
X49164Y-46202D01*
X49145Y-46221D01*
X49107Y-46240D01*
X48954Y-46240D01*
X49526Y-46030D02*
X49450Y-46030D01*
X49411Y-46050D01*
X49392Y-46069D01*
X49354Y-46126D01*
X49335Y-46202D01*
X49335Y-46354D01*
X49354Y-46392D01*
X49373Y-46411D01*
X49411Y-46430D01*
X49488Y-46430D01*
X49526Y-46411D01*
X49545Y-46392D01*
X49564Y-46354D01*
X49564Y-46259D01*
X49545Y-46221D01*
X49526Y-46202D01*
X49488Y-46183D01*
X49411Y-46183D01*
X49373Y-46202D01*
X49354Y-46221D01*
X49335Y-46259D01*
X74666Y-42761D02*
X74723Y-42780D01*
X74819Y-42780D01*
X74857Y-42761D01*
X74876Y-42742D01*
X74895Y-42704D01*
X74895Y-42666D01*
X74876Y-42628D01*
X74857Y-42609D01*
X74819Y-42590D01*
X74742Y-42571D01*
X74704Y-42552D01*
X74685Y-42533D01*
X74666Y-42495D01*
X74666Y-42457D01*
X74685Y-42419D01*
X74704Y-42400D01*
X74742Y-42380D01*
X74838Y-42380D01*
X74895Y-42400D01*
X75028Y-42380D02*
X75123Y-42780D01*
X75200Y-42495D01*
X75276Y-42780D01*
X75371Y-42380D01*
X75733Y-42780D02*
X75504Y-42780D01*
X75619Y-42780D02*
X75619Y-42380D01*
X75580Y-42438D01*
X75542Y-42476D01*
X75504Y-42495D01*
X74495Y-41230D02*
X74495Y-41554D01*
X74514Y-41592D01*
X74533Y-41611D01*
X74571Y-41630D01*
X74647Y-41630D01*
X74685Y-41611D01*
X74704Y-41592D01*
X74723Y-41554D01*
X74723Y-41230D01*
X75123Y-41630D02*
X74895Y-41630D01*
X75009Y-41630D02*
X75009Y-41230D01*
X74971Y-41288D01*
X74933Y-41326D01*
X74895Y-41345D01*
X73195Y-46630D02*
X73195Y-46954D01*
X73214Y-46992D01*
X73233Y-47011D01*
X73271Y-47030D01*
X73347Y-47030D01*
X73385Y-47011D01*
X73404Y-46992D01*
X73423Y-46954D01*
X73423Y-46630D01*
X73595Y-46669D02*
X73614Y-46650D01*
X73652Y-46630D01*
X73747Y-46630D01*
X73785Y-46650D01*
X73804Y-46669D01*
X73823Y-46707D01*
X73823Y-46745D01*
X73804Y-46802D01*
X73576Y-47030D01*
X73823Y-47030D01*
X47707Y-49777D02*
X47707Y-50100D01*
X47726Y-50138D01*
X47745Y-50157D01*
X47783Y-50177D01*
X47859Y-50177D01*
X47897Y-50157D01*
X47916Y-50138D01*
X47935Y-50100D01*
X47935Y-49777D01*
X48088Y-49777D02*
X48335Y-49777D01*
X48202Y-49929D01*
X48259Y-49929D01*
X48297Y-49948D01*
X48316Y-49967D01*
X48335Y-50005D01*
X48335Y-50100D01*
X48316Y-50138D01*
X48297Y-50157D01*
X48259Y-50177D01*
X48145Y-50177D01*
X48107Y-50157D01*
X48088Y-50138D01*
X62126Y-57030D02*
X62392Y-57430D01*
X62392Y-57030D02*
X62126Y-57430D01*
X62754Y-57430D02*
X62526Y-57430D01*
X62640Y-57430D02*
X62640Y-57030D01*
X62602Y-57088D01*
X62564Y-57126D01*
X62526Y-57145D01*
M02*
