%FSLAX36Y36*%
G04 Gerber Fmt 3.6, Leading zero omitted, Abs format (unit inch)*
G04 Created by KiCad (PCBNEW (2014-jul-16 BZR unknown)-product) date Tue 13 Jan 2015 02:58:16 PM PST*
%MOIN*%
G01*
G04 APERTURE LIST*
%ADD10C,0.003937*%
%ADD11C,0.059100*%
%ADD12C,0.078700*%
%ADD13R,0.078700X0.078700*%
%ADD14C,0.060000*%
%ADD15R,0.068000X0.068000*%
%ADD16C,0.068000*%
%ADD17O,0.068000X0.068000*%
%ADD18R,0.060000X0.060000*%
%ADD19C,0.078740*%
%ADD20R,0.055000X0.055000*%
%ADD21C,0.055000*%
%ADD22R,0.080000X0.080000*%
%ADD23O,0.080000X0.080000*%
%ADD24C,0.236220*%
%ADD25C,0.070866*%
%ADD26C,0.035000*%
%ADD27C,0.040000*%
%ADD28C,0.008000*%
%ADD29C,0.010000*%
G04 APERTURE END LIST*
D10*
D11*
X5200000Y-5800000D03*
X5100000Y-5800000D03*
X5350000Y-5800000D03*
X5450000Y-5800000D03*
X5000000Y-5500000D03*
X5100000Y-5500000D03*
X5100000Y-4675000D03*
X5000000Y-4675000D03*
X7250000Y-5175000D03*
X7150000Y-5175000D03*
X6950000Y-4250000D03*
X6950000Y-4150000D03*
X6725000Y-4800000D03*
X6825000Y-4800000D03*
X7125000Y-4375000D03*
X7025000Y-4375000D03*
D12*
X6625000Y-4050000D03*
D13*
X6625000Y-4450000D03*
D14*
X4775000Y-4350000D03*
X4775000Y-4250000D03*
D15*
X7550000Y-5375000D03*
D16*
X7650000Y-5375000D03*
X7750000Y-5375000D03*
D15*
X4425000Y-4350000D03*
D17*
X4425000Y-4250000D03*
X4525000Y-4350000D03*
X4525000Y-4250000D03*
D18*
X7600000Y-4700000D03*
D14*
X7700000Y-4700000D03*
X7600000Y-4800000D03*
X7700000Y-4800000D03*
X7600000Y-4900000D03*
X7700000Y-4900000D03*
X7600000Y-5000000D03*
X7700000Y-5000000D03*
X7600000Y-5100000D03*
X7700000Y-5100000D03*
D15*
X6475000Y-5825000D03*
D16*
X6575000Y-5825000D03*
X6675000Y-5825000D03*
X6775000Y-5825000D03*
X6875000Y-5825000D03*
X6975000Y-5825000D03*
D15*
X7125000Y-5800000D03*
D16*
X7125000Y-5700000D03*
X7125000Y-5600000D03*
X7125000Y-5500000D03*
X7125000Y-5400000D03*
X7125000Y-5300000D03*
D15*
X4700000Y-5825000D03*
D17*
X4700000Y-5725000D03*
X4800000Y-5825000D03*
X4800000Y-5725000D03*
X4900000Y-5825000D03*
X4900000Y-5725000D03*
D15*
X5050000Y-4375000D03*
D16*
X5150000Y-4375000D03*
X5250000Y-4375000D03*
X5350000Y-4375000D03*
D18*
X5800000Y-5700000D03*
D14*
X5800000Y-5600000D03*
X5900000Y-5700000D03*
X5900000Y-5600000D03*
X6000000Y-5700000D03*
X6000000Y-5600000D03*
X6100000Y-5700000D03*
X6100000Y-5600000D03*
X6200000Y-5700000D03*
X6200000Y-5600000D03*
D15*
X4125000Y-4100000D03*
D17*
X4125000Y-4000000D03*
X4225000Y-4100000D03*
X4225000Y-4000000D03*
X4325000Y-4100000D03*
X4325000Y-4000000D03*
X4425000Y-4100000D03*
X4425000Y-4000000D03*
X4525000Y-4100000D03*
X4525000Y-4000000D03*
X4625000Y-4100000D03*
X4625000Y-4000000D03*
X4725000Y-4100000D03*
X4725000Y-4000000D03*
X4825000Y-4100000D03*
X4825000Y-4000000D03*
X4925000Y-4100000D03*
X4925000Y-4000000D03*
X5025000Y-4100000D03*
X5025000Y-4000000D03*
X5125000Y-4100000D03*
X5125000Y-4000000D03*
X5225000Y-4100000D03*
X5225000Y-4000000D03*
X5325000Y-4100000D03*
X5325000Y-4000000D03*
X5425000Y-4100000D03*
X5425000Y-4000000D03*
X5525000Y-4100000D03*
X5525000Y-4000000D03*
X5625000Y-4100000D03*
X5625000Y-4000000D03*
X5725000Y-4100000D03*
X5725000Y-4000000D03*
X5825000Y-4100000D03*
X5825000Y-4000000D03*
X5925000Y-4100000D03*
X5925000Y-4000000D03*
X6025000Y-4100000D03*
X6025000Y-4000000D03*
X6125000Y-4100000D03*
X6125000Y-4000000D03*
X6225000Y-4100000D03*
X6225000Y-4000000D03*
X6325000Y-4100000D03*
X6325000Y-4000000D03*
D12*
X6800000Y-4050000D03*
X6800000Y-4450000D03*
X4450000Y-4675000D03*
X4850000Y-4675000D03*
X4450000Y-4550000D03*
X4850000Y-4550000D03*
X6500000Y-4275000D03*
X6500000Y-4675000D03*
D13*
X7353000Y-4025000D03*
D12*
X7097000Y-4025000D03*
D11*
X5253900Y-5625000D03*
X5446100Y-5625000D03*
D12*
X6150000Y-4225000D03*
X5750000Y-4225000D03*
D19*
X5625000Y-4646850D03*
X5525000Y-4646850D03*
X5675000Y-4450000D03*
X5475000Y-4450000D03*
D11*
X7375000Y-4375000D03*
X7275000Y-4375000D03*
X7175000Y-4250000D03*
X7275000Y-4250000D03*
D20*
X5800000Y-4650000D03*
D21*
X5900000Y-4650000D03*
X6000000Y-4650000D03*
X6100000Y-4650000D03*
X6100000Y-4350000D03*
X6000000Y-4350000D03*
X5900000Y-4350000D03*
X5800000Y-4350000D03*
D20*
X6625000Y-5000000D03*
D21*
X6625000Y-5100000D03*
X6625000Y-5200000D03*
X6625000Y-5300000D03*
X6625000Y-5400000D03*
X6625000Y-5500000D03*
X6625000Y-5600000D03*
X6925000Y-5600000D03*
X6925000Y-5500000D03*
X6925000Y-5400000D03*
X6925000Y-5300000D03*
X6925000Y-5200000D03*
X6925000Y-5100000D03*
X6925000Y-5000000D03*
D20*
X7050000Y-4750000D03*
D21*
X7050000Y-4850000D03*
X7050000Y-4950000D03*
X7050000Y-5050000D03*
X7350000Y-5050000D03*
X7350000Y-4950000D03*
X7350000Y-4850000D03*
X7350000Y-4750000D03*
D14*
X7275000Y-4600000D03*
X7325000Y-4525000D03*
X7375000Y-4600000D03*
D20*
X4100000Y-5400000D03*
D21*
X4200000Y-5400000D03*
X4300000Y-5400000D03*
X4400000Y-5400000D03*
X4500000Y-5400000D03*
X4600000Y-5400000D03*
X4700000Y-5400000D03*
X4800000Y-5400000D03*
X4900000Y-5400000D03*
X5000000Y-5400000D03*
X5100000Y-5400000D03*
X5200000Y-5400000D03*
X5300000Y-5400000D03*
X5400000Y-5400000D03*
X5500000Y-5400000D03*
X5600000Y-5400000D03*
X5700000Y-5400000D03*
X5800000Y-5400000D03*
X5900000Y-5400000D03*
X6000000Y-5400000D03*
X6000000Y-4800000D03*
X5900000Y-4800000D03*
X5800000Y-4800000D03*
X5700000Y-4800000D03*
X5600000Y-4800000D03*
X5500000Y-4800000D03*
X5400000Y-4800000D03*
X5300000Y-4800000D03*
X5200000Y-4800000D03*
X5100000Y-4800000D03*
X5000000Y-4800000D03*
X4900000Y-4800000D03*
X4800000Y-4800000D03*
X4700000Y-4800000D03*
X4600000Y-4800000D03*
X4500000Y-4800000D03*
X4400000Y-4800000D03*
X4300000Y-4800000D03*
X4200000Y-4800000D03*
X4100000Y-4800000D03*
D12*
X7375000Y-5200000D03*
X7375000Y-5600000D03*
D22*
X4025000Y-4150000D03*
D23*
X4025000Y-4050000D03*
D15*
X6425000Y-4150000D03*
D16*
X6425000Y-4050000D03*
D15*
X5275000Y-4200000D03*
D16*
X5375000Y-4200000D03*
D11*
X6900000Y-4600000D03*
X6800000Y-4600000D03*
D14*
X7025000Y-4600000D03*
X7075000Y-4525000D03*
X7125000Y-4600000D03*
D15*
X6500000Y-5000000D03*
D16*
X6500000Y-5100000D03*
X6500000Y-5200000D03*
X6500000Y-5300000D03*
X6500000Y-5400000D03*
X6500000Y-5500000D03*
D24*
X7677165Y-5708661D03*
X4133858Y-5708661D03*
X7677165Y-4133858D03*
X4133858Y-4527559D03*
D25*
X6375787Y-4800197D03*
X6224213Y-4399803D03*
D26*
X6650000Y-4525000D03*
X6839873Y-5414873D03*
X6725000Y-5200000D03*
X6725000Y-5075000D03*
X6725000Y-4925000D03*
X6825000Y-4925000D03*
X6725000Y-5300000D03*
X6850000Y-5500000D03*
X6725000Y-5450000D03*
X4850000Y-5300000D03*
X4675000Y-5300000D03*
X5100000Y-5300000D03*
X6525000Y-4825000D03*
X6225000Y-5175000D03*
X5900000Y-5175000D03*
X6400000Y-5100000D03*
X6100000Y-4875000D03*
X5650000Y-4900000D03*
X6175000Y-4850000D03*
X6975000Y-4750000D03*
X6625000Y-4725000D03*
X6825000Y-5600000D03*
D27*
X5275000Y-4200000D02*
X4825000Y-4200000D01*
X4825000Y-4200000D02*
X4775000Y-4250000D01*
X5375000Y-4200000D02*
X5275000Y-4200000D01*
X4125000Y-4100000D02*
X4075000Y-4100000D01*
X4075000Y-4100000D02*
X4025000Y-4150000D01*
X4125000Y-4000000D02*
X4075000Y-4000000D01*
X4075000Y-4000000D02*
X4025000Y-4050000D01*
X6525000Y-4350000D02*
X6475197Y-4399803D01*
X6475197Y-4399803D02*
X6224213Y-4399803D01*
X7025000Y-4375000D02*
X7000000Y-4350000D01*
X7000000Y-4350000D02*
X6525000Y-4350000D01*
X6800000Y-4600000D02*
X6725000Y-4525000D01*
X6725000Y-4525000D02*
X6650000Y-4525000D01*
X6839873Y-5414873D02*
X6825000Y-5400000D01*
X6825000Y-4925000D02*
X6725000Y-4925000D01*
X6775000Y-5500000D02*
X6850000Y-5500000D01*
X6725000Y-5450000D02*
X6775000Y-5500000D01*
X6325000Y-4100000D02*
X6225000Y-4100000D01*
X6325000Y-4000000D02*
X6225000Y-4000000D01*
X5075000Y-5300000D02*
X4850000Y-5300000D01*
X5100000Y-5300000D02*
X5075000Y-5300000D01*
X6225000Y-5175000D02*
X6300000Y-5100000D01*
X5100000Y-5300000D02*
X5225000Y-5175000D01*
X5225000Y-5175000D02*
X5900000Y-5175000D01*
X6225000Y-5175000D02*
X5900000Y-5175000D01*
X6300000Y-5100000D02*
X6400000Y-5100000D01*
X6000000Y-4550000D02*
X5775000Y-4550000D01*
X5775000Y-4550000D02*
X5675000Y-4450000D01*
X6100000Y-4650000D02*
X6000000Y-4550000D01*
D28*
X5575000Y-4125000D02*
X5575000Y-4075000D01*
X5975000Y-4125000D02*
X6000000Y-4150000D01*
X5975000Y-4075000D02*
X5975000Y-4125000D01*
X5950000Y-4050000D02*
X5975000Y-4075000D01*
X5600000Y-4050000D02*
X5950000Y-4050000D01*
X5575000Y-4075000D02*
X5600000Y-4050000D01*
X6625000Y-4050000D02*
X6450000Y-4225000D01*
X6450000Y-4225000D02*
X6275000Y-4225000D01*
X6275000Y-4225000D02*
X6200000Y-4150000D01*
X6200000Y-4150000D02*
X6000000Y-4150000D01*
X4850000Y-5450000D02*
X4900000Y-5400000D01*
X4775000Y-5450000D02*
X4850000Y-5450000D01*
X4750000Y-5425000D02*
X4775000Y-5450000D01*
X4750000Y-4525000D02*
X4750000Y-5425000D01*
X5000000Y-4275000D02*
X4750000Y-4525000D01*
X5425000Y-4275000D02*
X5000000Y-4275000D01*
X5575000Y-4125000D02*
X5425000Y-4275000D01*
X6800000Y-4050000D02*
X6625000Y-4050000D01*
X6950000Y-4150000D02*
X6900000Y-4150000D01*
X6900000Y-4150000D02*
X6800000Y-4050000D01*
X7097000Y-4025000D02*
X6972000Y-4150000D01*
X6972000Y-4150000D02*
X6950000Y-4150000D01*
X4775000Y-4350000D02*
X4525000Y-4350000D01*
X4800000Y-5400000D02*
X4800000Y-4875000D01*
X4850000Y-4825000D02*
X4850000Y-4675000D01*
X4800000Y-4875000D02*
X4850000Y-4825000D01*
X4800000Y-5400000D02*
X4850000Y-5350000D01*
X5875000Y-5475000D02*
X6000000Y-5600000D01*
X5400000Y-5475000D02*
X5875000Y-5475000D01*
X5350000Y-5425000D02*
X5400000Y-5475000D01*
X5350000Y-5375000D02*
X5350000Y-5425000D01*
X5325000Y-5350000D02*
X5350000Y-5375000D01*
X4850000Y-5350000D02*
X5325000Y-5350000D01*
X6100000Y-4875000D02*
X6075000Y-4850000D01*
X6075000Y-4850000D02*
X5450000Y-4850000D01*
X5450000Y-4850000D02*
X5400000Y-4800000D01*
X6475000Y-5150000D02*
X6275000Y-5350000D01*
X5950000Y-5325000D02*
X5575000Y-5325000D01*
X5975000Y-5350000D02*
X5950000Y-5325000D01*
X6275000Y-5350000D02*
X5975000Y-5350000D01*
X6925000Y-5200000D02*
X6900000Y-5200000D01*
X6900000Y-5200000D02*
X6850000Y-5150000D01*
X5575000Y-5325000D02*
X5500000Y-5400000D01*
X6850000Y-5150000D02*
X6475000Y-5150000D01*
X7050000Y-5050000D02*
X7050000Y-5250000D01*
X5650000Y-5350000D02*
X5600000Y-5400000D01*
X5925000Y-5350000D02*
X5650000Y-5350000D01*
X5950000Y-5375000D02*
X5925000Y-5350000D01*
X5950000Y-5425000D02*
X5950000Y-5375000D01*
X5975000Y-5450000D02*
X5950000Y-5425000D01*
X6375000Y-5450000D02*
X5975000Y-5450000D01*
X6475000Y-5350000D02*
X6375000Y-5450000D01*
X6950000Y-5350000D02*
X6475000Y-5350000D01*
X7050000Y-5250000D02*
X6950000Y-5350000D01*
X6100000Y-4925000D02*
X6050000Y-4875000D01*
X5675000Y-4875000D02*
X5650000Y-4900000D01*
X6050000Y-4875000D02*
X5675000Y-4875000D01*
X6475000Y-4875000D02*
X6425000Y-4925000D01*
X6425000Y-4925000D02*
X6100000Y-4925000D01*
X7050000Y-4750000D02*
X6925000Y-4875000D01*
X6925000Y-4875000D02*
X6475000Y-4875000D01*
X5400000Y-5400000D02*
X5450000Y-5450000D01*
X6425000Y-5500000D02*
X5975000Y-5500000D01*
X5975000Y-5500000D02*
X5925000Y-5450000D01*
X5450000Y-5450000D02*
X5925000Y-5450000D01*
X6575000Y-5500000D02*
X6525000Y-5450000D01*
X6525000Y-5450000D02*
X6475000Y-5450000D01*
X6475000Y-5450000D02*
X6425000Y-5500000D01*
X6625000Y-5500000D02*
X6575000Y-5500000D01*
X6000000Y-4725000D02*
X6125000Y-4850000D01*
X6125000Y-4850000D02*
X6175000Y-4850000D01*
X6725000Y-5400000D02*
X6775000Y-5450000D01*
X6975000Y-5450000D02*
X7025000Y-5400000D01*
X6775000Y-5450000D02*
X6975000Y-5450000D01*
X5500000Y-4725000D02*
X5150000Y-4375000D01*
X5575000Y-4725000D02*
X5500000Y-4725000D01*
X6000000Y-4725000D02*
X5575000Y-4725000D01*
X6625000Y-5400000D02*
X6725000Y-5400000D01*
X7025000Y-5400000D02*
X7125000Y-5400000D01*
X6050000Y-4300000D02*
X5900000Y-4150000D01*
X6050000Y-4375000D02*
X6050000Y-4300000D01*
X6975000Y-4750000D02*
X6700000Y-4750000D01*
X6700000Y-4750000D02*
X6425000Y-4475000D01*
X6425000Y-4475000D02*
X6200000Y-4475000D01*
X5325000Y-4300000D02*
X5250000Y-4375000D01*
X5450000Y-4300000D02*
X5325000Y-4300000D01*
X5600000Y-4150000D02*
X5450000Y-4300000D01*
X5900000Y-4150000D02*
X5600000Y-4150000D01*
X6075000Y-4400000D02*
X6125000Y-4400000D01*
X6125000Y-4400000D02*
X6200000Y-4475000D01*
X6050000Y-4375000D02*
X6075000Y-4400000D01*
X7350000Y-4950000D02*
X7650000Y-4950000D01*
X7650000Y-4950000D02*
X7700000Y-4900000D01*
X7600000Y-4900000D02*
X7400000Y-4900000D01*
X7400000Y-4900000D02*
X7350000Y-4850000D01*
X6625000Y-5100000D02*
X6500000Y-5100000D01*
X7050000Y-5500000D02*
X7000000Y-5550000D01*
X6775000Y-5550000D02*
X6675000Y-5450000D01*
X7000000Y-5550000D02*
X6775000Y-5550000D01*
X7125000Y-5500000D02*
X7050000Y-5500000D01*
X6675000Y-5450000D02*
X6600000Y-5450000D01*
X6550000Y-5400000D02*
X6600000Y-5450000D01*
X6500000Y-5400000D02*
X6550000Y-5400000D01*
D27*
X7050000Y-4950000D02*
X7125000Y-4875000D01*
X7125000Y-4875000D02*
X7125000Y-4600000D01*
X7275000Y-4600000D02*
X7125000Y-4600000D01*
D28*
X6625000Y-4725000D02*
X6400000Y-4500000D01*
X5350000Y-4375000D02*
X5425000Y-4375000D01*
X5425000Y-4375000D02*
X5500000Y-4300000D01*
X6400000Y-4500000D02*
X6175000Y-4500000D01*
X5925000Y-4300000D02*
X5500000Y-4300000D01*
X5950000Y-4325000D02*
X5925000Y-4300000D01*
X5950000Y-4375000D02*
X5950000Y-4325000D01*
X6825000Y-5600000D02*
X6775000Y-5600000D01*
X6775000Y-5600000D02*
X6725000Y-5550000D01*
X6725000Y-5550000D02*
X6550000Y-5550000D01*
X6550000Y-5550000D02*
X6500000Y-5500000D01*
X6100000Y-4425000D02*
X6000000Y-4425000D01*
X6000000Y-4425000D02*
X5950000Y-4375000D01*
X6175000Y-4500000D02*
X6100000Y-4425000D01*
X6100000Y-4350000D02*
X6175000Y-4275000D01*
X6175000Y-4275000D02*
X6500000Y-4275000D01*
X5625000Y-4646850D02*
X5796850Y-4646850D01*
X5796850Y-4646850D02*
X5800000Y-4650000D01*
X5525000Y-4646850D02*
X5578150Y-4700000D01*
X5850000Y-4700000D02*
X5900000Y-4650000D01*
X5578150Y-4700000D02*
X5850000Y-4700000D01*
X6950000Y-5250000D02*
X7000000Y-5200000D01*
X7100000Y-5000000D02*
X7350000Y-4750000D01*
X7025000Y-5000000D02*
X7100000Y-5000000D01*
X7000000Y-5025000D02*
X7025000Y-5000000D01*
X7000000Y-5200000D02*
X7000000Y-5025000D01*
X6950000Y-5250000D02*
X6475000Y-5250000D01*
X6475000Y-5250000D02*
X6325000Y-5400000D01*
X6000000Y-5400000D02*
X6325000Y-5400000D01*
D27*
X7600000Y-4700000D02*
X7475000Y-4700000D01*
X7475000Y-4700000D02*
X7375000Y-4600000D01*
X7700000Y-4700000D02*
X7600000Y-4700000D01*
X6375787Y-4800197D02*
X6150197Y-4800197D01*
X6150197Y-4800197D02*
X6000000Y-4650000D01*
X6725000Y-4800000D02*
X6625000Y-4800000D01*
X6625000Y-4800000D02*
X6500000Y-4675000D01*
X5000000Y-5500000D02*
X5000000Y-5825000D01*
X5825000Y-5525000D02*
X5900000Y-5600000D01*
X5750000Y-5525000D02*
X5825000Y-5525000D01*
X5675000Y-5600000D02*
X5750000Y-5525000D01*
X5675000Y-5700000D02*
X5675000Y-5600000D01*
X5500000Y-5875000D02*
X5675000Y-5700000D01*
X5050000Y-5875000D02*
X5500000Y-5875000D01*
X5000000Y-5825000D02*
X5050000Y-5875000D01*
X5100000Y-4675000D02*
X4975000Y-4550000D01*
X4975000Y-4550000D02*
X4850000Y-4550000D01*
X6800000Y-4450000D02*
X6625000Y-4450000D01*
X4700000Y-5725000D02*
X4812500Y-5612500D01*
X4887500Y-5612500D02*
X5000000Y-5500000D01*
X4812500Y-5612500D02*
X4887500Y-5612500D01*
X6500000Y-5000000D02*
X5300000Y-5000000D01*
X5300000Y-5000000D02*
X5100000Y-4800000D01*
X6500000Y-4675000D02*
X6375000Y-4550000D01*
X6375000Y-4550000D02*
X6150000Y-4550000D01*
X5925000Y-4475000D02*
X5800000Y-4350000D01*
X6625000Y-5000000D02*
X6500000Y-5000000D01*
X6925000Y-5000000D02*
X6625000Y-5000000D01*
X7025000Y-4600000D02*
X6900000Y-4600000D01*
X6075000Y-4475000D02*
X5925000Y-4475000D01*
X6150000Y-4550000D02*
X6075000Y-4475000D01*
D29*
G36*
X4955000Y-5683920D02*
X4936901Y-5666696D01*
X4911781Y-5657013D01*
X4901000Y-5664757D01*
X4901000Y-5724000D01*
X4901787Y-5724000D01*
X4901787Y-5726000D01*
X4901000Y-5726000D01*
X4901000Y-5726787D01*
X4899000Y-5726787D01*
X4899000Y-5726000D01*
X4898213Y-5726000D01*
X4898213Y-5724000D01*
X4899000Y-5724000D01*
X4899000Y-5664757D01*
X4888594Y-5657282D01*
X4904721Y-5654075D01*
X4919320Y-5644320D01*
X4955000Y-5608640D01*
X4955000Y-5683920D01*
X4955000Y-5683920D01*
G37*
X4955000Y-5683920D02*
X4936901Y-5666696D01*
X4911781Y-5657013D01*
X4901000Y-5664757D01*
X4901000Y-5724000D01*
X4901787Y-5724000D01*
X4901787Y-5726000D01*
X4901000Y-5726000D01*
X4901000Y-5726787D01*
X4899000Y-5726787D01*
X4899000Y-5726000D01*
X4898213Y-5726000D01*
X4898213Y-5724000D01*
X4899000Y-5724000D01*
X4899000Y-5664757D01*
X4888594Y-5657282D01*
X4904721Y-5654075D01*
X4919320Y-5644320D01*
X4955000Y-5608640D01*
X4955000Y-5683920D01*
G36*
X5276787Y-4201000D02*
X5276000Y-4201000D01*
X5276000Y-4201787D01*
X5274000Y-4201787D01*
X5274000Y-4201000D01*
X5214750Y-4201000D01*
X5206000Y-4209750D01*
X5206000Y-4227038D01*
X5206000Y-4240962D01*
X5208087Y-4246000D01*
X5000000Y-4246000D01*
X4988902Y-4248207D01*
X4979494Y-4254494D01*
X4840294Y-4393694D01*
X4840294Y-4238646D01*
X4830978Y-4214524D01*
X4829198Y-4211859D01*
X4816376Y-4210038D01*
X4814962Y-4211452D01*
X4814962Y-4208624D01*
X4813141Y-4195802D01*
X4789497Y-4185332D01*
X4763646Y-4184706D01*
X4739524Y-4194022D01*
X4736859Y-4195802D01*
X4735038Y-4208624D01*
X4775000Y-4248586D01*
X4814962Y-4208624D01*
X4814962Y-4211452D01*
X4776414Y-4250000D01*
X4816376Y-4289962D01*
X4829198Y-4288141D01*
X4839668Y-4264497D01*
X4840294Y-4238646D01*
X4840294Y-4393694D01*
X4830010Y-4403978D01*
X4830010Y-4339108D01*
X4821654Y-4318886D01*
X4809244Y-4306454D01*
X4810476Y-4305978D01*
X4813141Y-4304198D01*
X4814962Y-4291376D01*
X4775000Y-4251414D01*
X4773586Y-4252828D01*
X4773586Y-4250000D01*
X4733624Y-4210038D01*
X4720802Y-4211859D01*
X4710332Y-4235503D01*
X4709706Y-4261354D01*
X4719022Y-4285476D01*
X4720802Y-4288141D01*
X4733624Y-4289962D01*
X4773586Y-4250000D01*
X4773586Y-4252828D01*
X4735038Y-4291376D01*
X4736859Y-4304198D01*
X4741135Y-4306092D01*
X4728400Y-4318804D01*
X4727489Y-4321000D01*
X4576374Y-4321000D01*
X4567875Y-4308281D01*
X4555482Y-4300000D01*
X4567875Y-4291719D01*
X4580665Y-4272578D01*
X4585156Y-4250000D01*
X4580665Y-4227422D01*
X4567875Y-4208281D01*
X4548734Y-4195491D01*
X4526156Y-4191000D01*
X4523844Y-4191000D01*
X4501266Y-4195491D01*
X4482125Y-4208281D01*
X4475000Y-4218944D01*
X4467875Y-4208281D01*
X4448734Y-4195491D01*
X4426156Y-4191000D01*
X4423844Y-4191000D01*
X4401266Y-4195491D01*
X4382125Y-4208281D01*
X4369335Y-4227422D01*
X4364844Y-4250000D01*
X4369335Y-4272578D01*
X4382125Y-4291719D01*
X4382954Y-4292273D01*
X4376839Y-4294806D01*
X4369806Y-4301839D01*
X4366000Y-4311027D01*
X4366000Y-4320973D01*
X4366000Y-4388973D01*
X4369806Y-4398161D01*
X4376839Y-4405194D01*
X4386027Y-4409000D01*
X4395973Y-4409000D01*
X4463973Y-4409000D01*
X4473161Y-4405194D01*
X4480194Y-4398161D01*
X4482702Y-4392105D01*
X4501266Y-4404509D01*
X4523844Y-4409000D01*
X4526156Y-4409000D01*
X4548734Y-4404509D01*
X4567875Y-4391719D01*
X4576374Y-4379000D01*
X4727472Y-4379000D01*
X4728346Y-4381114D01*
X4743804Y-4396600D01*
X4764012Y-4404990D01*
X4785892Y-4405010D01*
X4806114Y-4396654D01*
X4821600Y-4381196D01*
X4829990Y-4360988D01*
X4830010Y-4339108D01*
X4830010Y-4403978D01*
X4729494Y-4504494D01*
X4723207Y-4513902D01*
X4721000Y-4525000D01*
X4721000Y-4751874D01*
X4710489Y-4747509D01*
X4689603Y-4747491D01*
X4670300Y-4755467D01*
X4655519Y-4770222D01*
X4649996Y-4783521D01*
X4644533Y-4770300D01*
X4629778Y-4755519D01*
X4610489Y-4747509D01*
X4589603Y-4747491D01*
X4570300Y-4755467D01*
X4555519Y-4770222D01*
X4549996Y-4783521D01*
X4544533Y-4770300D01*
X4529778Y-4755519D01*
X4514361Y-4749117D01*
X4514361Y-4662256D01*
X4504585Y-4638596D01*
X4486499Y-4620479D01*
X4467266Y-4612492D01*
X4486404Y-4604585D01*
X4504521Y-4586499D01*
X4514339Y-4562856D01*
X4514361Y-4537256D01*
X4504585Y-4513596D01*
X4486499Y-4495479D01*
X4462856Y-4485661D01*
X4437256Y-4485639D01*
X4413596Y-4495415D01*
X4395479Y-4513501D01*
X4385661Y-4537144D01*
X4385639Y-4562744D01*
X4395415Y-4586404D01*
X4413501Y-4604521D01*
X4432734Y-4612507D01*
X4413596Y-4620415D01*
X4395479Y-4638501D01*
X4385661Y-4662144D01*
X4385639Y-4687744D01*
X4395415Y-4711404D01*
X4413501Y-4729521D01*
X4437144Y-4739339D01*
X4462744Y-4739361D01*
X4486404Y-4729585D01*
X4504521Y-4711499D01*
X4514339Y-4687856D01*
X4514361Y-4662256D01*
X4514361Y-4749117D01*
X4510489Y-4747509D01*
X4489603Y-4747491D01*
X4470300Y-4755467D01*
X4455519Y-4770222D01*
X4449996Y-4783521D01*
X4444533Y-4770300D01*
X4429778Y-4755519D01*
X4410489Y-4747509D01*
X4389603Y-4747491D01*
X4370300Y-4755467D01*
X4355519Y-4770222D01*
X4349996Y-4783521D01*
X4344533Y-4770300D01*
X4329778Y-4755519D01*
X4310489Y-4747509D01*
X4289603Y-4747491D01*
X4276993Y-4752701D01*
X4276993Y-4499218D01*
X4255252Y-4446600D01*
X4215030Y-4406307D01*
X4162450Y-4384474D01*
X4105517Y-4384424D01*
X4052899Y-4406165D01*
X4012606Y-4446388D01*
X3990773Y-4498968D01*
X3990723Y-4555901D01*
X4012465Y-4608519D01*
X4052687Y-4648811D01*
X4105267Y-4670644D01*
X4162200Y-4670694D01*
X4214818Y-4648953D01*
X4255110Y-4608730D01*
X4276944Y-4556150D01*
X4276993Y-4499218D01*
X4276993Y-4752701D01*
X4270300Y-4755467D01*
X4255519Y-4770222D01*
X4249996Y-4783521D01*
X4244533Y-4770300D01*
X4229778Y-4755519D01*
X4210489Y-4747509D01*
X4189603Y-4747491D01*
X4170300Y-4755467D01*
X4155519Y-4770222D01*
X4149996Y-4783521D01*
X4144533Y-4770300D01*
X4129778Y-4755519D01*
X4110489Y-4747509D01*
X4089603Y-4747491D01*
X4070300Y-4755467D01*
X4055519Y-4770222D01*
X4047509Y-4789511D01*
X4047491Y-4810397D01*
X4055467Y-4829700D01*
X4070222Y-4844481D01*
X4089511Y-4852491D01*
X4110397Y-4852509D01*
X4129700Y-4844533D01*
X4144481Y-4829778D01*
X4150004Y-4816478D01*
X4155467Y-4829700D01*
X4170222Y-4844481D01*
X4189511Y-4852491D01*
X4210397Y-4852509D01*
X4229700Y-4844533D01*
X4244481Y-4829778D01*
X4250004Y-4816478D01*
X4255467Y-4829700D01*
X4270222Y-4844481D01*
X4289511Y-4852491D01*
X4310397Y-4852509D01*
X4329700Y-4844533D01*
X4344481Y-4829778D01*
X4350004Y-4816478D01*
X4355467Y-4829700D01*
X4370222Y-4844481D01*
X4389511Y-4852491D01*
X4410397Y-4852509D01*
X4429700Y-4844533D01*
X4444481Y-4829778D01*
X4450004Y-4816478D01*
X4455467Y-4829700D01*
X4470222Y-4844481D01*
X4489511Y-4852491D01*
X4510397Y-4852509D01*
X4529700Y-4844533D01*
X4544481Y-4829778D01*
X4550004Y-4816478D01*
X4555467Y-4829700D01*
X4570222Y-4844481D01*
X4589511Y-4852491D01*
X4610397Y-4852509D01*
X4629700Y-4844533D01*
X4644481Y-4829778D01*
X4650004Y-4816478D01*
X4655467Y-4829700D01*
X4670222Y-4844481D01*
X4689511Y-4852491D01*
X4710397Y-4852509D01*
X4721000Y-4848128D01*
X4721000Y-5351874D01*
X4710489Y-5347509D01*
X4689603Y-5347491D01*
X4670300Y-5355467D01*
X4655519Y-5370222D01*
X4649996Y-5383521D01*
X4644533Y-5370300D01*
X4629778Y-5355519D01*
X4610489Y-5347509D01*
X4589603Y-5347491D01*
X4570300Y-5355467D01*
X4555519Y-5370222D01*
X4549996Y-5383521D01*
X4544533Y-5370300D01*
X4529778Y-5355519D01*
X4510489Y-5347509D01*
X4489603Y-5347491D01*
X4470300Y-5355467D01*
X4455519Y-5370222D01*
X4449996Y-5383521D01*
X4444533Y-5370300D01*
X4429778Y-5355519D01*
X4410489Y-5347509D01*
X4389603Y-5347491D01*
X4370300Y-5355467D01*
X4355519Y-5370222D01*
X4349996Y-5383521D01*
X4344533Y-5370300D01*
X4329778Y-5355519D01*
X4310489Y-5347509D01*
X4289603Y-5347491D01*
X4270300Y-5355467D01*
X4255519Y-5370222D01*
X4249996Y-5383521D01*
X4244533Y-5370300D01*
X4229778Y-5355519D01*
X4210489Y-5347509D01*
X4189603Y-5347491D01*
X4170300Y-5355467D01*
X4155519Y-5370222D01*
X4152500Y-5377492D01*
X4152500Y-5367527D01*
X4148694Y-5358339D01*
X4141661Y-5351306D01*
X4132473Y-5347500D01*
X4122527Y-5347500D01*
X4067527Y-5347500D01*
X4058339Y-5351306D01*
X4051306Y-5358339D01*
X4047500Y-5367527D01*
X4047500Y-5377473D01*
X4047500Y-5432473D01*
X4051306Y-5441661D01*
X4058339Y-5448694D01*
X4067527Y-5452500D01*
X4077473Y-5452500D01*
X4132473Y-5452500D01*
X4141661Y-5448694D01*
X4148694Y-5441661D01*
X4152500Y-5432473D01*
X4152500Y-5422527D01*
X4152500Y-5422520D01*
X4155467Y-5429700D01*
X4170222Y-5444481D01*
X4189511Y-5452491D01*
X4210397Y-5452509D01*
X4229700Y-5444533D01*
X4244481Y-5429778D01*
X4250004Y-5416478D01*
X4255467Y-5429700D01*
X4270222Y-5444481D01*
X4289511Y-5452491D01*
X4310397Y-5452509D01*
X4329700Y-5444533D01*
X4344481Y-5429778D01*
X4350004Y-5416478D01*
X4355467Y-5429700D01*
X4370222Y-5444481D01*
X4389511Y-5452491D01*
X4410397Y-5452509D01*
X4429700Y-5444533D01*
X4444481Y-5429778D01*
X4450004Y-5416478D01*
X4455467Y-5429700D01*
X4470222Y-5444481D01*
X4489511Y-5452491D01*
X4510397Y-5452509D01*
X4529700Y-5444533D01*
X4544481Y-5429778D01*
X4550004Y-5416478D01*
X4555467Y-5429700D01*
X4570222Y-5444481D01*
X4589511Y-5452491D01*
X4610397Y-5452509D01*
X4629700Y-5444533D01*
X4644481Y-5429778D01*
X4650004Y-5416478D01*
X4655467Y-5429700D01*
X4670222Y-5444481D01*
X4689511Y-5452491D01*
X4710397Y-5452509D01*
X4729029Y-5444810D01*
X4729494Y-5445506D01*
X4754494Y-5470506D01*
X4763902Y-5476793D01*
X4763902Y-5476793D01*
X4775000Y-5479000D01*
X4850000Y-5479000D01*
X4861098Y-5476793D01*
X4870506Y-5470506D01*
X4888812Y-5452200D01*
X4889511Y-5452491D01*
X4910397Y-5452509D01*
X4929700Y-5444533D01*
X4944481Y-5429778D01*
X4950004Y-5416478D01*
X4955467Y-5429700D01*
X4970222Y-5444481D01*
X4980844Y-5448892D01*
X4969140Y-5453728D01*
X4953782Y-5469060D01*
X4945459Y-5489102D01*
X4945458Y-5490902D01*
X4868860Y-5567500D01*
X4812500Y-5567500D01*
X4795279Y-5570925D01*
X4780680Y-5580680D01*
X4694495Y-5666865D01*
X4676266Y-5670491D01*
X4657125Y-5683281D01*
X4644335Y-5702422D01*
X4639844Y-5725000D01*
X4644335Y-5747578D01*
X4657125Y-5766719D01*
X4657954Y-5767273D01*
X4651839Y-5769806D01*
X4644806Y-5776839D01*
X4641000Y-5786027D01*
X4641000Y-5795973D01*
X4641000Y-5863973D01*
X4644806Y-5873161D01*
X4651172Y-5879528D01*
X4276993Y-5879528D01*
X4276993Y-5680320D01*
X4255252Y-5627702D01*
X4215030Y-5587409D01*
X4162450Y-5565576D01*
X4105517Y-5565526D01*
X4052899Y-5587268D01*
X4012606Y-5627490D01*
X3990773Y-5680070D01*
X3990723Y-5737003D01*
X4012465Y-5789621D01*
X4052687Y-5829914D01*
X4105267Y-5851747D01*
X4162200Y-5851796D01*
X4214818Y-5830055D01*
X4255110Y-5789833D01*
X4276944Y-5737253D01*
X4276993Y-5680320D01*
X4276993Y-5879528D01*
X3962992Y-5879528D01*
X3962992Y-4217490D01*
X3965174Y-4219672D01*
X3978038Y-4225000D01*
X3991962Y-4225000D01*
X4015250Y-4225000D01*
X4024000Y-4216250D01*
X4024000Y-4151000D01*
X4023213Y-4151000D01*
X4023213Y-4149000D01*
X4024000Y-4149000D01*
X4024000Y-4116242D01*
X4024000Y-4083750D01*
X4024000Y-4051000D01*
X4023213Y-4051000D01*
X4023213Y-4049000D01*
X4024000Y-4049000D01*
X4024000Y-3983758D01*
X4012281Y-3976086D01*
X4008466Y-3976845D01*
X3981729Y-3988741D01*
X3962992Y-4008476D01*
X3962992Y-3962992D01*
X4067382Y-3962992D01*
X4057990Y-3984167D01*
X4041534Y-3976845D01*
X4037719Y-3976086D01*
X4026000Y-3983758D01*
X4026000Y-4049000D01*
X4026787Y-4049000D01*
X4026787Y-4051000D01*
X4026000Y-4051000D01*
X4026000Y-4083750D01*
X4026000Y-4116242D01*
X4026000Y-4149000D01*
X4026787Y-4149000D01*
X4026787Y-4151000D01*
X4026000Y-4151000D01*
X4026000Y-4216250D01*
X4034750Y-4225000D01*
X4058038Y-4225000D01*
X4071962Y-4225000D01*
X4084826Y-4219672D01*
X4094672Y-4209826D01*
X4100000Y-4196962D01*
X4100000Y-4169000D01*
X4115250Y-4169000D01*
X4124000Y-4160250D01*
X4124000Y-4101000D01*
X4123213Y-4101000D01*
X4123213Y-4099000D01*
X4124000Y-4099000D01*
X4124000Y-4060243D01*
X4124000Y-4039750D01*
X4124000Y-4001000D01*
X4123213Y-4001000D01*
X4123213Y-3999000D01*
X4124000Y-3999000D01*
X4124000Y-3998213D01*
X4126000Y-3998213D01*
X4126000Y-3999000D01*
X4126787Y-3999000D01*
X4126787Y-4001000D01*
X4126000Y-4001000D01*
X4126000Y-4039750D01*
X4126000Y-4060243D01*
X4126000Y-4099000D01*
X4126787Y-4099000D01*
X4126787Y-4101000D01*
X4126000Y-4101000D01*
X4126000Y-4160250D01*
X4134750Y-4169000D01*
X4165962Y-4169000D01*
X4178826Y-4163672D01*
X4188672Y-4153826D01*
X4191180Y-4147770D01*
X4201266Y-4154509D01*
X4223844Y-4159000D01*
X4226156Y-4159000D01*
X4248734Y-4154509D01*
X4267875Y-4141719D01*
X4275000Y-4131056D01*
X4282125Y-4141719D01*
X4301266Y-4154509D01*
X4323844Y-4159000D01*
X4326156Y-4159000D01*
X4348734Y-4154509D01*
X4367875Y-4141719D01*
X4375000Y-4131056D01*
X4382125Y-4141719D01*
X4401266Y-4154509D01*
X4423844Y-4159000D01*
X4426156Y-4159000D01*
X4448734Y-4154509D01*
X4467875Y-4141719D01*
X4475000Y-4131056D01*
X4482125Y-4141719D01*
X4501266Y-4154509D01*
X4523844Y-4159000D01*
X4526156Y-4159000D01*
X4548734Y-4154509D01*
X4567875Y-4141719D01*
X4575000Y-4131056D01*
X4582125Y-4141719D01*
X4601266Y-4154509D01*
X4623844Y-4159000D01*
X4626156Y-4159000D01*
X4648734Y-4154509D01*
X4667875Y-4141719D01*
X4675000Y-4131056D01*
X4682125Y-4141719D01*
X4701266Y-4154509D01*
X4723844Y-4159000D01*
X4726156Y-4159000D01*
X4748734Y-4154509D01*
X4767875Y-4141719D01*
X4775000Y-4131056D01*
X4782125Y-4141719D01*
X4801266Y-4154509D01*
X4823844Y-4159000D01*
X4826156Y-4159000D01*
X4848734Y-4154509D01*
X4867875Y-4141719D01*
X4875000Y-4131056D01*
X4882125Y-4141719D01*
X4901266Y-4154509D01*
X4923844Y-4159000D01*
X4926156Y-4159000D01*
X4948734Y-4154509D01*
X4967875Y-4141719D01*
X4975000Y-4131056D01*
X4982125Y-4141719D01*
X5001266Y-4154509D01*
X5023844Y-4159000D01*
X5026156Y-4159000D01*
X5048734Y-4154509D01*
X5067875Y-4141719D01*
X5075000Y-4131056D01*
X5082125Y-4141719D01*
X5101266Y-4154509D01*
X5123844Y-4159000D01*
X5126156Y-4159000D01*
X5148734Y-4154509D01*
X5167875Y-4141719D01*
X5175000Y-4131056D01*
X5182125Y-4141719D01*
X5201266Y-4154509D01*
X5207373Y-4155724D01*
X5206000Y-4159038D01*
X5206000Y-4172962D01*
X5206000Y-4190250D01*
X5214750Y-4199000D01*
X5274000Y-4199000D01*
X5274000Y-4198213D01*
X5276000Y-4198213D01*
X5276000Y-4199000D01*
X5276787Y-4199000D01*
X5276787Y-4201000D01*
X5276787Y-4201000D01*
G37*
X5276787Y-4201000D02*
X5276000Y-4201000D01*
X5276000Y-4201787D01*
X5274000Y-4201787D01*
X5274000Y-4201000D01*
X5214750Y-4201000D01*
X5206000Y-4209750D01*
X5206000Y-4227038D01*
X5206000Y-4240962D01*
X5208087Y-4246000D01*
X5000000Y-4246000D01*
X4988902Y-4248207D01*
X4979494Y-4254494D01*
X4840294Y-4393694D01*
X4840294Y-4238646D01*
X4830978Y-4214524D01*
X4829198Y-4211859D01*
X4816376Y-4210038D01*
X4814962Y-4211452D01*
X4814962Y-4208624D01*
X4813141Y-4195802D01*
X4789497Y-4185332D01*
X4763646Y-4184706D01*
X4739524Y-4194022D01*
X4736859Y-4195802D01*
X4735038Y-4208624D01*
X4775000Y-4248586D01*
X4814962Y-4208624D01*
X4814962Y-4211452D01*
X4776414Y-4250000D01*
X4816376Y-4289962D01*
X4829198Y-4288141D01*
X4839668Y-4264497D01*
X4840294Y-4238646D01*
X4840294Y-4393694D01*
X4830010Y-4403978D01*
X4830010Y-4339108D01*
X4821654Y-4318886D01*
X4809244Y-4306454D01*
X4810476Y-4305978D01*
X4813141Y-4304198D01*
X4814962Y-4291376D01*
X4775000Y-4251414D01*
X4773586Y-4252828D01*
X4773586Y-4250000D01*
X4733624Y-4210038D01*
X4720802Y-4211859D01*
X4710332Y-4235503D01*
X4709706Y-4261354D01*
X4719022Y-4285476D01*
X4720802Y-4288141D01*
X4733624Y-4289962D01*
X4773586Y-4250000D01*
X4773586Y-4252828D01*
X4735038Y-4291376D01*
X4736859Y-4304198D01*
X4741135Y-4306092D01*
X4728400Y-4318804D01*
X4727489Y-4321000D01*
X4576374Y-4321000D01*
X4567875Y-4308281D01*
X4555482Y-4300000D01*
X4567875Y-4291719D01*
X4580665Y-4272578D01*
X4585156Y-4250000D01*
X4580665Y-4227422D01*
X4567875Y-4208281D01*
X4548734Y-4195491D01*
X4526156Y-4191000D01*
X4523844Y-4191000D01*
X4501266Y-4195491D01*
X4482125Y-4208281D01*
X4475000Y-4218944D01*
X4467875Y-4208281D01*
X4448734Y-4195491D01*
X4426156Y-4191000D01*
X4423844Y-4191000D01*
X4401266Y-4195491D01*
X4382125Y-4208281D01*
X4369335Y-4227422D01*
X4364844Y-4250000D01*
X4369335Y-4272578D01*
X4382125Y-4291719D01*
X4382954Y-4292273D01*
X4376839Y-4294806D01*
X4369806Y-4301839D01*
X4366000Y-4311027D01*
X4366000Y-4320973D01*
X4366000Y-4388973D01*
X4369806Y-4398161D01*
X4376839Y-4405194D01*
X4386027Y-4409000D01*
X4395973Y-4409000D01*
X4463973Y-4409000D01*
X4473161Y-4405194D01*
X4480194Y-4398161D01*
X4482702Y-4392105D01*
X4501266Y-4404509D01*
X4523844Y-4409000D01*
X4526156Y-4409000D01*
X4548734Y-4404509D01*
X4567875Y-4391719D01*
X4576374Y-4379000D01*
X4727472Y-4379000D01*
X4728346Y-4381114D01*
X4743804Y-4396600D01*
X4764012Y-4404990D01*
X4785892Y-4405010D01*
X4806114Y-4396654D01*
X4821600Y-4381196D01*
X4829990Y-4360988D01*
X4830010Y-4339108D01*
X4830010Y-4403978D01*
X4729494Y-4504494D01*
X4723207Y-4513902D01*
X4721000Y-4525000D01*
X4721000Y-4751874D01*
X4710489Y-4747509D01*
X4689603Y-4747491D01*
X4670300Y-4755467D01*
X4655519Y-4770222D01*
X4649996Y-4783521D01*
X4644533Y-4770300D01*
X4629778Y-4755519D01*
X4610489Y-4747509D01*
X4589603Y-4747491D01*
X4570300Y-4755467D01*
X4555519Y-4770222D01*
X4549996Y-4783521D01*
X4544533Y-4770300D01*
X4529778Y-4755519D01*
X4514361Y-4749117D01*
X4514361Y-4662256D01*
X4504585Y-4638596D01*
X4486499Y-4620479D01*
X4467266Y-4612492D01*
X4486404Y-4604585D01*
X4504521Y-4586499D01*
X4514339Y-4562856D01*
X4514361Y-4537256D01*
X4504585Y-4513596D01*
X4486499Y-4495479D01*
X4462856Y-4485661D01*
X4437256Y-4485639D01*
X4413596Y-4495415D01*
X4395479Y-4513501D01*
X4385661Y-4537144D01*
X4385639Y-4562744D01*
X4395415Y-4586404D01*
X4413501Y-4604521D01*
X4432734Y-4612507D01*
X4413596Y-4620415D01*
X4395479Y-4638501D01*
X4385661Y-4662144D01*
X4385639Y-4687744D01*
X4395415Y-4711404D01*
X4413501Y-4729521D01*
X4437144Y-4739339D01*
X4462744Y-4739361D01*
X4486404Y-4729585D01*
X4504521Y-4711499D01*
X4514339Y-4687856D01*
X4514361Y-4662256D01*
X4514361Y-4749117D01*
X4510489Y-4747509D01*
X4489603Y-4747491D01*
X4470300Y-4755467D01*
X4455519Y-4770222D01*
X4449996Y-4783521D01*
X4444533Y-4770300D01*
X4429778Y-4755519D01*
X4410489Y-4747509D01*
X4389603Y-4747491D01*
X4370300Y-4755467D01*
X4355519Y-4770222D01*
X4349996Y-4783521D01*
X4344533Y-4770300D01*
X4329778Y-4755519D01*
X4310489Y-4747509D01*
X4289603Y-4747491D01*
X4276993Y-4752701D01*
X4276993Y-4499218D01*
X4255252Y-4446600D01*
X4215030Y-4406307D01*
X4162450Y-4384474D01*
X4105517Y-4384424D01*
X4052899Y-4406165D01*
X4012606Y-4446388D01*
X3990773Y-4498968D01*
X3990723Y-4555901D01*
X4012465Y-4608519D01*
X4052687Y-4648811D01*
X4105267Y-4670644D01*
X4162200Y-4670694D01*
X4214818Y-4648953D01*
X4255110Y-4608730D01*
X4276944Y-4556150D01*
X4276993Y-4499218D01*
X4276993Y-4752701D01*
X4270300Y-4755467D01*
X4255519Y-4770222D01*
X4249996Y-4783521D01*
X4244533Y-4770300D01*
X4229778Y-4755519D01*
X4210489Y-4747509D01*
X4189603Y-4747491D01*
X4170300Y-4755467D01*
X4155519Y-4770222D01*
X4149996Y-4783521D01*
X4144533Y-4770300D01*
X4129778Y-4755519D01*
X4110489Y-4747509D01*
X4089603Y-4747491D01*
X4070300Y-4755467D01*
X4055519Y-4770222D01*
X4047509Y-4789511D01*
X4047491Y-4810397D01*
X4055467Y-4829700D01*
X4070222Y-4844481D01*
X4089511Y-4852491D01*
X4110397Y-4852509D01*
X4129700Y-4844533D01*
X4144481Y-4829778D01*
X4150004Y-4816478D01*
X4155467Y-4829700D01*
X4170222Y-4844481D01*
X4189511Y-4852491D01*
X4210397Y-4852509D01*
X4229700Y-4844533D01*
X4244481Y-4829778D01*
X4250004Y-4816478D01*
X4255467Y-4829700D01*
X4270222Y-4844481D01*
X4289511Y-4852491D01*
X4310397Y-4852509D01*
X4329700Y-4844533D01*
X4344481Y-4829778D01*
X4350004Y-4816478D01*
X4355467Y-4829700D01*
X4370222Y-4844481D01*
X4389511Y-4852491D01*
X4410397Y-4852509D01*
X4429700Y-4844533D01*
X4444481Y-4829778D01*
X4450004Y-4816478D01*
X4455467Y-4829700D01*
X4470222Y-4844481D01*
X4489511Y-4852491D01*
X4510397Y-4852509D01*
X4529700Y-4844533D01*
X4544481Y-4829778D01*
X4550004Y-4816478D01*
X4555467Y-4829700D01*
X4570222Y-4844481D01*
X4589511Y-4852491D01*
X4610397Y-4852509D01*
X4629700Y-4844533D01*
X4644481Y-4829778D01*
X4650004Y-4816478D01*
X4655467Y-4829700D01*
X4670222Y-4844481D01*
X4689511Y-4852491D01*
X4710397Y-4852509D01*
X4721000Y-4848128D01*
X4721000Y-5351874D01*
X4710489Y-5347509D01*
X4689603Y-5347491D01*
X4670300Y-5355467D01*
X4655519Y-5370222D01*
X4649996Y-5383521D01*
X4644533Y-5370300D01*
X4629778Y-5355519D01*
X4610489Y-5347509D01*
X4589603Y-5347491D01*
X4570300Y-5355467D01*
X4555519Y-5370222D01*
X4549996Y-5383521D01*
X4544533Y-5370300D01*
X4529778Y-5355519D01*
X4510489Y-5347509D01*
X4489603Y-5347491D01*
X4470300Y-5355467D01*
X4455519Y-5370222D01*
X4449996Y-5383521D01*
X4444533Y-5370300D01*
X4429778Y-5355519D01*
X4410489Y-5347509D01*
X4389603Y-5347491D01*
X4370300Y-5355467D01*
X4355519Y-5370222D01*
X4349996Y-5383521D01*
X4344533Y-5370300D01*
X4329778Y-5355519D01*
X4310489Y-5347509D01*
X4289603Y-5347491D01*
X4270300Y-5355467D01*
X4255519Y-5370222D01*
X4249996Y-5383521D01*
X4244533Y-5370300D01*
X4229778Y-5355519D01*
X4210489Y-5347509D01*
X4189603Y-5347491D01*
X4170300Y-5355467D01*
X4155519Y-5370222D01*
X4152500Y-5377492D01*
X4152500Y-5367527D01*
X4148694Y-5358339D01*
X4141661Y-5351306D01*
X4132473Y-5347500D01*
X4122527Y-5347500D01*
X4067527Y-5347500D01*
X4058339Y-5351306D01*
X4051306Y-5358339D01*
X4047500Y-5367527D01*
X4047500Y-5377473D01*
X4047500Y-5432473D01*
X4051306Y-5441661D01*
X4058339Y-5448694D01*
X4067527Y-5452500D01*
X4077473Y-5452500D01*
X4132473Y-5452500D01*
X4141661Y-5448694D01*
X4148694Y-5441661D01*
X4152500Y-5432473D01*
X4152500Y-5422527D01*
X4152500Y-5422520D01*
X4155467Y-5429700D01*
X4170222Y-5444481D01*
X4189511Y-5452491D01*
X4210397Y-5452509D01*
X4229700Y-5444533D01*
X4244481Y-5429778D01*
X4250004Y-5416478D01*
X4255467Y-5429700D01*
X4270222Y-5444481D01*
X4289511Y-5452491D01*
X4310397Y-5452509D01*
X4329700Y-5444533D01*
X4344481Y-5429778D01*
X4350004Y-5416478D01*
X4355467Y-5429700D01*
X4370222Y-5444481D01*
X4389511Y-5452491D01*
X4410397Y-5452509D01*
X4429700Y-5444533D01*
X4444481Y-5429778D01*
X4450004Y-5416478D01*
X4455467Y-5429700D01*
X4470222Y-5444481D01*
X4489511Y-5452491D01*
X4510397Y-5452509D01*
X4529700Y-5444533D01*
X4544481Y-5429778D01*
X4550004Y-5416478D01*
X4555467Y-5429700D01*
X4570222Y-5444481D01*
X4589511Y-5452491D01*
X4610397Y-5452509D01*
X4629700Y-5444533D01*
X4644481Y-5429778D01*
X4650004Y-5416478D01*
X4655467Y-5429700D01*
X4670222Y-5444481D01*
X4689511Y-5452491D01*
X4710397Y-5452509D01*
X4729029Y-5444810D01*
X4729494Y-5445506D01*
X4754494Y-5470506D01*
X4763902Y-5476793D01*
X4763902Y-5476793D01*
X4775000Y-5479000D01*
X4850000Y-5479000D01*
X4861098Y-5476793D01*
X4870506Y-5470506D01*
X4888812Y-5452200D01*
X4889511Y-5452491D01*
X4910397Y-5452509D01*
X4929700Y-5444533D01*
X4944481Y-5429778D01*
X4950004Y-5416478D01*
X4955467Y-5429700D01*
X4970222Y-5444481D01*
X4980844Y-5448892D01*
X4969140Y-5453728D01*
X4953782Y-5469060D01*
X4945459Y-5489102D01*
X4945458Y-5490902D01*
X4868860Y-5567500D01*
X4812500Y-5567500D01*
X4795279Y-5570925D01*
X4780680Y-5580680D01*
X4694495Y-5666865D01*
X4676266Y-5670491D01*
X4657125Y-5683281D01*
X4644335Y-5702422D01*
X4639844Y-5725000D01*
X4644335Y-5747578D01*
X4657125Y-5766719D01*
X4657954Y-5767273D01*
X4651839Y-5769806D01*
X4644806Y-5776839D01*
X4641000Y-5786027D01*
X4641000Y-5795973D01*
X4641000Y-5863973D01*
X4644806Y-5873161D01*
X4651172Y-5879528D01*
X4276993Y-5879528D01*
X4276993Y-5680320D01*
X4255252Y-5627702D01*
X4215030Y-5587409D01*
X4162450Y-5565576D01*
X4105517Y-5565526D01*
X4052899Y-5587268D01*
X4012606Y-5627490D01*
X3990773Y-5680070D01*
X3990723Y-5737003D01*
X4012465Y-5789621D01*
X4052687Y-5829914D01*
X4105267Y-5851747D01*
X4162200Y-5851796D01*
X4214818Y-5830055D01*
X4255110Y-5789833D01*
X4276944Y-5737253D01*
X4276993Y-5680320D01*
X4276993Y-5879528D01*
X3962992Y-5879528D01*
X3962992Y-4217490D01*
X3965174Y-4219672D01*
X3978038Y-4225000D01*
X3991962Y-4225000D01*
X4015250Y-4225000D01*
X4024000Y-4216250D01*
X4024000Y-4151000D01*
X4023213Y-4151000D01*
X4023213Y-4149000D01*
X4024000Y-4149000D01*
X4024000Y-4116242D01*
X4024000Y-4083750D01*
X4024000Y-4051000D01*
X4023213Y-4051000D01*
X4023213Y-4049000D01*
X4024000Y-4049000D01*
X4024000Y-3983758D01*
X4012281Y-3976086D01*
X4008466Y-3976845D01*
X3981729Y-3988741D01*
X3962992Y-4008476D01*
X3962992Y-3962992D01*
X4067382Y-3962992D01*
X4057990Y-3984167D01*
X4041534Y-3976845D01*
X4037719Y-3976086D01*
X4026000Y-3983758D01*
X4026000Y-4049000D01*
X4026787Y-4049000D01*
X4026787Y-4051000D01*
X4026000Y-4051000D01*
X4026000Y-4083750D01*
X4026000Y-4116242D01*
X4026000Y-4149000D01*
X4026787Y-4149000D01*
X4026787Y-4151000D01*
X4026000Y-4151000D01*
X4026000Y-4216250D01*
X4034750Y-4225000D01*
X4058038Y-4225000D01*
X4071962Y-4225000D01*
X4084826Y-4219672D01*
X4094672Y-4209826D01*
X4100000Y-4196962D01*
X4100000Y-4169000D01*
X4115250Y-4169000D01*
X4124000Y-4160250D01*
X4124000Y-4101000D01*
X4123213Y-4101000D01*
X4123213Y-4099000D01*
X4124000Y-4099000D01*
X4124000Y-4060243D01*
X4124000Y-4039750D01*
X4124000Y-4001000D01*
X4123213Y-4001000D01*
X4123213Y-3999000D01*
X4124000Y-3999000D01*
X4124000Y-3998213D01*
X4126000Y-3998213D01*
X4126000Y-3999000D01*
X4126787Y-3999000D01*
X4126787Y-4001000D01*
X4126000Y-4001000D01*
X4126000Y-4039750D01*
X4126000Y-4060243D01*
X4126000Y-4099000D01*
X4126787Y-4099000D01*
X4126787Y-4101000D01*
X4126000Y-4101000D01*
X4126000Y-4160250D01*
X4134750Y-4169000D01*
X4165962Y-4169000D01*
X4178826Y-4163672D01*
X4188672Y-4153826D01*
X4191180Y-4147770D01*
X4201266Y-4154509D01*
X4223844Y-4159000D01*
X4226156Y-4159000D01*
X4248734Y-4154509D01*
X4267875Y-4141719D01*
X4275000Y-4131056D01*
X4282125Y-4141719D01*
X4301266Y-4154509D01*
X4323844Y-4159000D01*
X4326156Y-4159000D01*
X4348734Y-4154509D01*
X4367875Y-4141719D01*
X4375000Y-4131056D01*
X4382125Y-4141719D01*
X4401266Y-4154509D01*
X4423844Y-4159000D01*
X4426156Y-4159000D01*
X4448734Y-4154509D01*
X4467875Y-4141719D01*
X4475000Y-4131056D01*
X4482125Y-4141719D01*
X4501266Y-4154509D01*
X4523844Y-4159000D01*
X4526156Y-4159000D01*
X4548734Y-4154509D01*
X4567875Y-4141719D01*
X4575000Y-4131056D01*
X4582125Y-4141719D01*
X4601266Y-4154509D01*
X4623844Y-4159000D01*
X4626156Y-4159000D01*
X4648734Y-4154509D01*
X4667875Y-4141719D01*
X4675000Y-4131056D01*
X4682125Y-4141719D01*
X4701266Y-4154509D01*
X4723844Y-4159000D01*
X4726156Y-4159000D01*
X4748734Y-4154509D01*
X4767875Y-4141719D01*
X4775000Y-4131056D01*
X4782125Y-4141719D01*
X4801266Y-4154509D01*
X4823844Y-4159000D01*
X4826156Y-4159000D01*
X4848734Y-4154509D01*
X4867875Y-4141719D01*
X4875000Y-4131056D01*
X4882125Y-4141719D01*
X4901266Y-4154509D01*
X4923844Y-4159000D01*
X4926156Y-4159000D01*
X4948734Y-4154509D01*
X4967875Y-4141719D01*
X4975000Y-4131056D01*
X4982125Y-4141719D01*
X5001266Y-4154509D01*
X5023844Y-4159000D01*
X5026156Y-4159000D01*
X5048734Y-4154509D01*
X5067875Y-4141719D01*
X5075000Y-4131056D01*
X5082125Y-4141719D01*
X5101266Y-4154509D01*
X5123844Y-4159000D01*
X5126156Y-4159000D01*
X5148734Y-4154509D01*
X5167875Y-4141719D01*
X5175000Y-4131056D01*
X5182125Y-4141719D01*
X5201266Y-4154509D01*
X5207373Y-4155724D01*
X5206000Y-4159038D01*
X5206000Y-4172962D01*
X5206000Y-4190250D01*
X5214750Y-4199000D01*
X5274000Y-4199000D01*
X5274000Y-4198213D01*
X5276000Y-4198213D01*
X5276000Y-4199000D01*
X5276787Y-4199000D01*
X5276787Y-4201000D01*
G36*
X5376971Y-4200557D02*
X5375557Y-4201971D01*
X5375000Y-4201414D01*
X5374443Y-4201971D01*
X5373029Y-4200557D01*
X5373586Y-4200000D01*
X5373029Y-4199443D01*
X5374443Y-4198029D01*
X5375000Y-4198586D01*
X5375557Y-4198029D01*
X5376971Y-4199443D01*
X5376414Y-4200000D01*
X5376971Y-4200557D01*
X5376971Y-4200557D01*
G37*
X5376971Y-4200557D02*
X5375557Y-4201971D01*
X5375000Y-4201414D01*
X5374443Y-4201971D01*
X5373029Y-4200557D01*
X5373586Y-4200000D01*
X5373029Y-4199443D01*
X5374443Y-4198029D01*
X5375000Y-4198586D01*
X5375557Y-4198029D01*
X5376971Y-4199443D01*
X5376414Y-4200000D01*
X5376971Y-4200557D01*
G36*
X5707360Y-5504000D02*
X5643180Y-5568180D01*
X5633425Y-5582779D01*
X5630000Y-5600000D01*
X5630000Y-5681360D01*
X5514648Y-5796712D01*
X5514840Y-5788718D01*
X5505587Y-5764763D01*
X5503827Y-5762129D01*
X5500659Y-5761691D01*
X5500659Y-5614197D01*
X5492372Y-5594140D01*
X5477040Y-5578782D01*
X5456998Y-5570459D01*
X5435297Y-5570441D01*
X5415240Y-5578728D01*
X5399882Y-5594060D01*
X5391559Y-5614102D01*
X5391541Y-5635803D01*
X5399828Y-5655860D01*
X5415160Y-5671218D01*
X5435202Y-5679541D01*
X5456903Y-5679559D01*
X5476960Y-5671272D01*
X5492318Y-5655940D01*
X5500641Y-5635898D01*
X5500659Y-5614197D01*
X5500659Y-5761691D01*
X5491052Y-5760363D01*
X5489637Y-5761777D01*
X5489637Y-5758948D01*
X5487871Y-5746173D01*
X5464390Y-5735778D01*
X5438718Y-5735160D01*
X5414763Y-5744413D01*
X5412129Y-5746173D01*
X5410363Y-5758948D01*
X5450000Y-5798586D01*
X5489637Y-5758948D01*
X5489637Y-5761777D01*
X5451414Y-5800000D01*
X5451971Y-5800557D01*
X5450557Y-5801971D01*
X5450000Y-5801414D01*
X5449443Y-5801971D01*
X5448029Y-5800557D01*
X5448586Y-5800000D01*
X5408948Y-5760363D01*
X5396173Y-5762129D01*
X5394053Y-5766917D01*
X5380940Y-5753782D01*
X5360898Y-5745459D01*
X5339197Y-5745441D01*
X5319140Y-5753728D01*
X5308459Y-5764390D01*
X5308459Y-5614197D01*
X5300172Y-5594140D01*
X5284840Y-5578782D01*
X5264798Y-5570459D01*
X5243097Y-5570441D01*
X5223040Y-5578728D01*
X5207682Y-5594060D01*
X5199359Y-5614102D01*
X5199341Y-5635803D01*
X5207628Y-5655860D01*
X5222960Y-5671218D01*
X5243002Y-5679541D01*
X5264703Y-5679559D01*
X5284760Y-5671272D01*
X5300118Y-5655940D01*
X5308441Y-5635898D01*
X5308459Y-5614197D01*
X5308459Y-5764390D01*
X5303782Y-5769060D01*
X5295459Y-5789102D01*
X5295441Y-5810803D01*
X5303373Y-5830000D01*
X5246609Y-5830000D01*
X5254541Y-5810898D01*
X5254559Y-5789197D01*
X5246272Y-5769140D01*
X5230940Y-5753782D01*
X5210898Y-5745459D01*
X5189197Y-5745441D01*
X5169140Y-5753728D01*
X5164840Y-5758020D01*
X5164840Y-5488718D01*
X5155587Y-5464763D01*
X5153827Y-5462129D01*
X5141052Y-5460363D01*
X5139637Y-5461777D01*
X5139637Y-5458948D01*
X5137871Y-5446173D01*
X5137388Y-5445959D01*
X5138159Y-5439573D01*
X5100000Y-5401414D01*
X5061841Y-5439573D01*
X5062599Y-5445859D01*
X5062129Y-5446173D01*
X5060363Y-5458948D01*
X5100000Y-5498586D01*
X5139637Y-5458948D01*
X5139637Y-5461777D01*
X5101414Y-5500000D01*
X5141052Y-5539637D01*
X5153827Y-5537871D01*
X5164222Y-5514390D01*
X5164840Y-5488718D01*
X5164840Y-5758020D01*
X5156282Y-5766563D01*
X5155587Y-5764763D01*
X5153827Y-5762129D01*
X5141052Y-5760363D01*
X5139637Y-5761777D01*
X5139637Y-5758948D01*
X5139637Y-5541052D01*
X5100000Y-5501414D01*
X5060363Y-5541052D01*
X5062129Y-5553827D01*
X5085610Y-5564222D01*
X5111282Y-5564840D01*
X5135237Y-5555587D01*
X5137871Y-5553827D01*
X5139637Y-5541052D01*
X5139637Y-5758948D01*
X5137871Y-5746173D01*
X5114390Y-5735778D01*
X5088718Y-5735160D01*
X5064763Y-5744413D01*
X5062129Y-5746173D01*
X5060363Y-5758948D01*
X5100000Y-5798586D01*
X5139637Y-5758948D01*
X5139637Y-5761777D01*
X5101414Y-5800000D01*
X5101971Y-5800557D01*
X5100557Y-5801971D01*
X5100000Y-5801414D01*
X5099443Y-5801971D01*
X5098029Y-5800557D01*
X5098586Y-5800000D01*
X5058948Y-5760363D01*
X5046173Y-5762129D01*
X5045000Y-5764779D01*
X5045000Y-5536116D01*
X5046173Y-5537871D01*
X5058948Y-5539637D01*
X5098586Y-5500000D01*
X5058948Y-5460363D01*
X5046173Y-5462129D01*
X5044053Y-5466917D01*
X5030940Y-5453782D01*
X5019158Y-5448889D01*
X5029700Y-5444533D01*
X5044481Y-5429778D01*
X5044494Y-5429747D01*
X5046195Y-5434145D01*
X5047864Y-5436643D01*
X5060427Y-5438159D01*
X5098586Y-5400000D01*
X5098029Y-5399443D01*
X5099443Y-5398029D01*
X5100000Y-5398586D01*
X5100557Y-5398029D01*
X5101971Y-5399443D01*
X5101414Y-5400000D01*
X5139573Y-5438159D01*
X5152136Y-5436643D01*
X5155340Y-5429394D01*
X5155467Y-5429700D01*
X5170222Y-5444481D01*
X5189511Y-5452491D01*
X5210397Y-5452509D01*
X5229700Y-5444533D01*
X5244481Y-5429778D01*
X5250004Y-5416478D01*
X5255467Y-5429700D01*
X5270222Y-5444481D01*
X5289511Y-5452491D01*
X5310397Y-5452509D01*
X5329029Y-5444810D01*
X5329494Y-5445506D01*
X5379494Y-5495506D01*
X5388902Y-5501793D01*
X5400000Y-5504000D01*
X5707360Y-5504000D01*
X5707360Y-5504000D01*
G37*
X5707360Y-5504000D02*
X5643180Y-5568180D01*
X5633425Y-5582779D01*
X5630000Y-5600000D01*
X5630000Y-5681360D01*
X5514648Y-5796712D01*
X5514840Y-5788718D01*
X5505587Y-5764763D01*
X5503827Y-5762129D01*
X5500659Y-5761691D01*
X5500659Y-5614197D01*
X5492372Y-5594140D01*
X5477040Y-5578782D01*
X5456998Y-5570459D01*
X5435297Y-5570441D01*
X5415240Y-5578728D01*
X5399882Y-5594060D01*
X5391559Y-5614102D01*
X5391541Y-5635803D01*
X5399828Y-5655860D01*
X5415160Y-5671218D01*
X5435202Y-5679541D01*
X5456903Y-5679559D01*
X5476960Y-5671272D01*
X5492318Y-5655940D01*
X5500641Y-5635898D01*
X5500659Y-5614197D01*
X5500659Y-5761691D01*
X5491052Y-5760363D01*
X5489637Y-5761777D01*
X5489637Y-5758948D01*
X5487871Y-5746173D01*
X5464390Y-5735778D01*
X5438718Y-5735160D01*
X5414763Y-5744413D01*
X5412129Y-5746173D01*
X5410363Y-5758948D01*
X5450000Y-5798586D01*
X5489637Y-5758948D01*
X5489637Y-5761777D01*
X5451414Y-5800000D01*
X5451971Y-5800557D01*
X5450557Y-5801971D01*
X5450000Y-5801414D01*
X5449443Y-5801971D01*
X5448029Y-5800557D01*
X5448586Y-5800000D01*
X5408948Y-5760363D01*
X5396173Y-5762129D01*
X5394053Y-5766917D01*
X5380940Y-5753782D01*
X5360898Y-5745459D01*
X5339197Y-5745441D01*
X5319140Y-5753728D01*
X5308459Y-5764390D01*
X5308459Y-5614197D01*
X5300172Y-5594140D01*
X5284840Y-5578782D01*
X5264798Y-5570459D01*
X5243097Y-5570441D01*
X5223040Y-5578728D01*
X5207682Y-5594060D01*
X5199359Y-5614102D01*
X5199341Y-5635803D01*
X5207628Y-5655860D01*
X5222960Y-5671218D01*
X5243002Y-5679541D01*
X5264703Y-5679559D01*
X5284760Y-5671272D01*
X5300118Y-5655940D01*
X5308441Y-5635898D01*
X5308459Y-5614197D01*
X5308459Y-5764390D01*
X5303782Y-5769060D01*
X5295459Y-5789102D01*
X5295441Y-5810803D01*
X5303373Y-5830000D01*
X5246609Y-5830000D01*
X5254541Y-5810898D01*
X5254559Y-5789197D01*
X5246272Y-5769140D01*
X5230940Y-5753782D01*
X5210898Y-5745459D01*
X5189197Y-5745441D01*
X5169140Y-5753728D01*
X5164840Y-5758020D01*
X5164840Y-5488718D01*
X5155587Y-5464763D01*
X5153827Y-5462129D01*
X5141052Y-5460363D01*
X5139637Y-5461777D01*
X5139637Y-5458948D01*
X5137871Y-5446173D01*
X5137388Y-5445959D01*
X5138159Y-5439573D01*
X5100000Y-5401414D01*
X5061841Y-5439573D01*
X5062599Y-5445859D01*
X5062129Y-5446173D01*
X5060363Y-5458948D01*
X5100000Y-5498586D01*
X5139637Y-5458948D01*
X5139637Y-5461777D01*
X5101414Y-5500000D01*
X5141052Y-5539637D01*
X5153827Y-5537871D01*
X5164222Y-5514390D01*
X5164840Y-5488718D01*
X5164840Y-5758020D01*
X5156282Y-5766563D01*
X5155587Y-5764763D01*
X5153827Y-5762129D01*
X5141052Y-5760363D01*
X5139637Y-5761777D01*
X5139637Y-5758948D01*
X5139637Y-5541052D01*
X5100000Y-5501414D01*
X5060363Y-5541052D01*
X5062129Y-5553827D01*
X5085610Y-5564222D01*
X5111282Y-5564840D01*
X5135237Y-5555587D01*
X5137871Y-5553827D01*
X5139637Y-5541052D01*
X5139637Y-5758948D01*
X5137871Y-5746173D01*
X5114390Y-5735778D01*
X5088718Y-5735160D01*
X5064763Y-5744413D01*
X5062129Y-5746173D01*
X5060363Y-5758948D01*
X5100000Y-5798586D01*
X5139637Y-5758948D01*
X5139637Y-5761777D01*
X5101414Y-5800000D01*
X5101971Y-5800557D01*
X5100557Y-5801971D01*
X5100000Y-5801414D01*
X5099443Y-5801971D01*
X5098029Y-5800557D01*
X5098586Y-5800000D01*
X5058948Y-5760363D01*
X5046173Y-5762129D01*
X5045000Y-5764779D01*
X5045000Y-5536116D01*
X5046173Y-5537871D01*
X5058948Y-5539637D01*
X5098586Y-5500000D01*
X5058948Y-5460363D01*
X5046173Y-5462129D01*
X5044053Y-5466917D01*
X5030940Y-5453782D01*
X5019158Y-5448889D01*
X5029700Y-5444533D01*
X5044481Y-5429778D01*
X5044494Y-5429747D01*
X5046195Y-5434145D01*
X5047864Y-5436643D01*
X5060427Y-5438159D01*
X5098586Y-5400000D01*
X5098029Y-5399443D01*
X5099443Y-5398029D01*
X5100000Y-5398586D01*
X5100557Y-5398029D01*
X5101971Y-5399443D01*
X5101414Y-5400000D01*
X5139573Y-5438159D01*
X5152136Y-5436643D01*
X5155340Y-5429394D01*
X5155467Y-5429700D01*
X5170222Y-5444481D01*
X5189511Y-5452491D01*
X5210397Y-5452509D01*
X5229700Y-5444533D01*
X5244481Y-5429778D01*
X5250004Y-5416478D01*
X5255467Y-5429700D01*
X5270222Y-5444481D01*
X5289511Y-5452491D01*
X5310397Y-5452509D01*
X5329029Y-5444810D01*
X5329494Y-5445506D01*
X5379494Y-5495506D01*
X5388902Y-5501793D01*
X5400000Y-5504000D01*
X5707360Y-5504000D01*
G36*
X6358087Y-4196000D02*
X6287012Y-4196000D01*
X6252817Y-4161805D01*
X6261901Y-4158304D01*
X6275000Y-4145838D01*
X6288099Y-4158304D01*
X6313219Y-4167987D01*
X6324000Y-4160243D01*
X6324000Y-4101000D01*
X6324000Y-4099000D01*
X6324000Y-4060243D01*
X6324000Y-4039757D01*
X6324000Y-4001000D01*
X6285242Y-4001000D01*
X6264758Y-4001000D01*
X6226000Y-4001000D01*
X6226000Y-4039757D01*
X6226000Y-4060243D01*
X6226000Y-4099000D01*
X6264758Y-4099000D01*
X6285242Y-4099000D01*
X6324000Y-4099000D01*
X6324000Y-4101000D01*
X6285242Y-4101000D01*
X6264758Y-4101000D01*
X6226000Y-4101000D01*
X6226000Y-4101787D01*
X6224000Y-4101787D01*
X6224000Y-4101000D01*
X6223213Y-4101000D01*
X6223213Y-4099000D01*
X6224000Y-4099000D01*
X6224000Y-4060243D01*
X6224000Y-4039757D01*
X6224000Y-4001000D01*
X6223213Y-4001000D01*
X6223213Y-3999000D01*
X6224000Y-3999000D01*
X6224000Y-3998213D01*
X6226000Y-3998213D01*
X6226000Y-3999000D01*
X6264758Y-3999000D01*
X6285242Y-3999000D01*
X6324000Y-3999000D01*
X6324000Y-3998213D01*
X6326000Y-3998213D01*
X6326000Y-3999000D01*
X6326787Y-3999000D01*
X6326787Y-4001000D01*
X6326000Y-4001000D01*
X6326000Y-4039757D01*
X6326000Y-4060243D01*
X6326000Y-4099000D01*
X6326787Y-4099000D01*
X6326787Y-4101000D01*
X6326000Y-4101000D01*
X6326000Y-4160243D01*
X6336781Y-4167987D01*
X6356000Y-4160578D01*
X6356000Y-4190962D01*
X6358087Y-4196000D01*
X6358087Y-4196000D01*
G37*
X6358087Y-4196000D02*
X6287012Y-4196000D01*
X6252817Y-4161805D01*
X6261901Y-4158304D01*
X6275000Y-4145838D01*
X6288099Y-4158304D01*
X6313219Y-4167987D01*
X6324000Y-4160243D01*
X6324000Y-4101000D01*
X6324000Y-4099000D01*
X6324000Y-4060243D01*
X6324000Y-4039757D01*
X6324000Y-4001000D01*
X6285242Y-4001000D01*
X6264758Y-4001000D01*
X6226000Y-4001000D01*
X6226000Y-4039757D01*
X6226000Y-4060243D01*
X6226000Y-4099000D01*
X6264758Y-4099000D01*
X6285242Y-4099000D01*
X6324000Y-4099000D01*
X6324000Y-4101000D01*
X6285242Y-4101000D01*
X6264758Y-4101000D01*
X6226000Y-4101000D01*
X6226000Y-4101787D01*
X6224000Y-4101787D01*
X6224000Y-4101000D01*
X6223213Y-4101000D01*
X6223213Y-4099000D01*
X6224000Y-4099000D01*
X6224000Y-4060243D01*
X6224000Y-4039757D01*
X6224000Y-4001000D01*
X6223213Y-4001000D01*
X6223213Y-3999000D01*
X6224000Y-3999000D01*
X6224000Y-3998213D01*
X6226000Y-3998213D01*
X6226000Y-3999000D01*
X6264758Y-3999000D01*
X6285242Y-3999000D01*
X6324000Y-3999000D01*
X6324000Y-3998213D01*
X6326000Y-3998213D01*
X6326000Y-3999000D01*
X6326787Y-3999000D01*
X6326787Y-4001000D01*
X6326000Y-4001000D01*
X6326000Y-4039757D01*
X6326000Y-4060243D01*
X6326000Y-4099000D01*
X6326787Y-4099000D01*
X6326787Y-4101000D01*
X6326000Y-4101000D01*
X6326000Y-4160243D01*
X6336781Y-4167987D01*
X6356000Y-4160578D01*
X6356000Y-4190962D01*
X6358087Y-4196000D01*
G36*
X6426787Y-4151000D02*
X6426000Y-4151000D01*
X6426000Y-4151787D01*
X6424000Y-4151787D01*
X6424000Y-4151000D01*
X6423213Y-4151000D01*
X6423213Y-4149000D01*
X6424000Y-4149000D01*
X6424000Y-4148213D01*
X6426000Y-4148213D01*
X6426000Y-4149000D01*
X6426787Y-4149000D01*
X6426787Y-4151000D01*
X6426787Y-4151000D01*
G37*
X6426787Y-4151000D02*
X6426000Y-4151000D01*
X6426000Y-4151787D01*
X6424000Y-4151787D01*
X6424000Y-4151000D01*
X6423213Y-4151000D01*
X6423213Y-4149000D01*
X6424000Y-4149000D01*
X6424000Y-4148213D01*
X6426000Y-4148213D01*
X6426000Y-4149000D01*
X6426787Y-4149000D01*
X6426787Y-4151000D01*
G36*
X6458577Y-5057985D02*
X6450011Y-5066536D01*
X6441010Y-5088213D01*
X6440990Y-5111684D01*
X6449953Y-5133377D01*
X6450282Y-5133706D01*
X6262988Y-5321000D01*
X5987012Y-5321000D01*
X5970506Y-5304494D01*
X5961098Y-5298207D01*
X5950000Y-5296000D01*
X5575000Y-5296000D01*
X5563902Y-5298207D01*
X5554494Y-5304494D01*
X5511188Y-5347800D01*
X5510489Y-5347509D01*
X5489603Y-5347491D01*
X5470300Y-5355467D01*
X5455519Y-5370222D01*
X5449996Y-5383521D01*
X5444533Y-5370300D01*
X5429778Y-5355519D01*
X5410489Y-5347509D01*
X5389603Y-5347491D01*
X5370971Y-5355189D01*
X5370506Y-5354494D01*
X5345506Y-5329494D01*
X5336098Y-5323207D01*
X5325000Y-5321000D01*
X5038159Y-5321000D01*
X5038159Y-4839573D01*
X5000000Y-4801414D01*
X4961841Y-4839573D01*
X4963357Y-4852136D01*
X4986098Y-4862190D01*
X5010955Y-4862776D01*
X5034145Y-4853805D01*
X5036643Y-4852136D01*
X5038159Y-4839573D01*
X5038159Y-5321000D01*
X4850000Y-5321000D01*
X4838902Y-5323207D01*
X4829494Y-5329494D01*
X4829000Y-5329988D01*
X4829000Y-4887012D01*
X4870506Y-4845506D01*
X4870980Y-4844796D01*
X4889511Y-4852491D01*
X4910397Y-4852509D01*
X4929700Y-4844533D01*
X4944481Y-4829778D01*
X4944494Y-4829747D01*
X4946195Y-4834145D01*
X4947864Y-4836643D01*
X4960427Y-4838159D01*
X4998586Y-4800000D01*
X4960427Y-4761841D01*
X4947864Y-4763357D01*
X4944660Y-4770606D01*
X4944533Y-4770300D01*
X4929778Y-4755519D01*
X4910489Y-4747509D01*
X4889603Y-4747491D01*
X4879000Y-4751872D01*
X4879000Y-4732644D01*
X4886404Y-4729585D01*
X4904521Y-4711499D01*
X4914339Y-4687856D01*
X4914361Y-4662256D01*
X4904585Y-4638596D01*
X4886499Y-4620479D01*
X4867266Y-4612492D01*
X4886404Y-4604585D01*
X4896006Y-4595000D01*
X4956360Y-4595000D01*
X4976312Y-4614952D01*
X4964763Y-4619413D01*
X4962129Y-4621173D01*
X4960363Y-4633948D01*
X5000000Y-4673586D01*
X5000557Y-4673029D01*
X5001971Y-4674443D01*
X5001414Y-4675000D01*
X5041052Y-4714637D01*
X5053827Y-4712871D01*
X5055947Y-4708083D01*
X5069060Y-4721218D01*
X5089102Y-4729541D01*
X5110803Y-4729559D01*
X5130860Y-4721272D01*
X5146218Y-4705940D01*
X5154541Y-4685898D01*
X5154559Y-4664197D01*
X5146272Y-4644140D01*
X5130940Y-4628782D01*
X5110898Y-4620459D01*
X5109098Y-4620458D01*
X5049000Y-4560360D01*
X5049000Y-4435250D01*
X5049000Y-4376000D01*
X4989750Y-4376000D01*
X4981000Y-4384750D01*
X4981000Y-4402038D01*
X4981000Y-4415962D01*
X4986328Y-4428826D01*
X4996174Y-4438672D01*
X5009038Y-4444000D01*
X5040250Y-4444000D01*
X5049000Y-4435250D01*
X5049000Y-4560360D01*
X5006820Y-4518180D01*
X4992221Y-4508425D01*
X4975000Y-4505000D01*
X4896004Y-4505000D01*
X4886499Y-4495479D01*
X4862856Y-4485661D01*
X4837256Y-4485639D01*
X4825527Y-4490485D01*
X4981000Y-4335012D01*
X4981000Y-4347962D01*
X4981000Y-4365250D01*
X4989750Y-4374000D01*
X5049000Y-4374000D01*
X5049000Y-4314750D01*
X5040250Y-4306000D01*
X5010012Y-4306000D01*
X5012012Y-4304000D01*
X5279988Y-4304000D01*
X5266161Y-4317826D01*
X5261787Y-4316010D01*
X5238316Y-4315990D01*
X5216623Y-4324953D01*
X5200011Y-4341536D01*
X5199996Y-4341572D01*
X5183464Y-4325011D01*
X5161787Y-4316010D01*
X5138316Y-4315990D01*
X5116623Y-4324953D01*
X5115642Y-4325932D01*
X5113672Y-4321174D01*
X5103826Y-4311328D01*
X5090962Y-4306000D01*
X5059750Y-4306000D01*
X5051000Y-4314750D01*
X5051000Y-4374000D01*
X5051787Y-4374000D01*
X5051787Y-4376000D01*
X5051000Y-4376000D01*
X5051000Y-4435250D01*
X5059750Y-4444000D01*
X5090962Y-4444000D01*
X5103826Y-4438672D01*
X5113672Y-4428826D01*
X5115635Y-4424086D01*
X5116536Y-4424989D01*
X5138213Y-4433990D01*
X5161684Y-4434010D01*
X5166152Y-4432164D01*
X5479494Y-4745506D01*
X5485192Y-4749313D01*
X5470300Y-4755467D01*
X5455519Y-4770222D01*
X5449996Y-4783521D01*
X5444533Y-4770300D01*
X5429778Y-4755519D01*
X5410489Y-4747509D01*
X5389603Y-4747491D01*
X5370300Y-4755467D01*
X5355519Y-4770222D01*
X5349996Y-4783521D01*
X5344533Y-4770300D01*
X5329778Y-4755519D01*
X5310489Y-4747509D01*
X5289603Y-4747491D01*
X5270300Y-4755467D01*
X5255519Y-4770222D01*
X5249996Y-4783521D01*
X5244533Y-4770300D01*
X5229778Y-4755519D01*
X5210489Y-4747509D01*
X5189603Y-4747491D01*
X5170300Y-4755467D01*
X5155519Y-4770222D01*
X5149996Y-4783521D01*
X5144533Y-4770300D01*
X5129778Y-4755519D01*
X5110489Y-4747509D01*
X5089603Y-4747491D01*
X5070300Y-4755467D01*
X5055519Y-4770222D01*
X5055506Y-4770253D01*
X5053805Y-4765855D01*
X5052136Y-4763357D01*
X5039637Y-4761848D01*
X5039637Y-4716052D01*
X5000000Y-4676414D01*
X4998586Y-4677828D01*
X4998586Y-4675000D01*
X4958948Y-4635363D01*
X4946173Y-4637129D01*
X4935778Y-4660610D01*
X4935160Y-4686282D01*
X4944413Y-4710237D01*
X4946173Y-4712871D01*
X4958948Y-4714637D01*
X4998586Y-4675000D01*
X4998586Y-4677828D01*
X4960363Y-4716052D01*
X4962129Y-4728827D01*
X4984803Y-4738865D01*
X4965855Y-4746195D01*
X4963357Y-4747864D01*
X4961841Y-4760427D01*
X5000000Y-4798586D01*
X5038159Y-4760427D01*
X5036643Y-4747864D01*
X5015131Y-4738354D01*
X5035237Y-4730587D01*
X5037871Y-4728827D01*
X5039637Y-4716052D01*
X5039637Y-4761848D01*
X5039573Y-4761841D01*
X5001414Y-4800000D01*
X5039573Y-4838159D01*
X5052136Y-4836643D01*
X5055340Y-4829394D01*
X5055467Y-4829700D01*
X5070222Y-4844481D01*
X5088383Y-4852022D01*
X5268180Y-5031820D01*
X5282779Y-5041575D01*
X5300000Y-5045000D01*
X6443497Y-5045000D01*
X6444806Y-5048161D01*
X6451839Y-5055194D01*
X6458577Y-5057985D01*
X6458577Y-5057985D01*
G37*
X6458577Y-5057985D02*
X6450011Y-5066536D01*
X6441010Y-5088213D01*
X6440990Y-5111684D01*
X6449953Y-5133377D01*
X6450282Y-5133706D01*
X6262988Y-5321000D01*
X5987012Y-5321000D01*
X5970506Y-5304494D01*
X5961098Y-5298207D01*
X5950000Y-5296000D01*
X5575000Y-5296000D01*
X5563902Y-5298207D01*
X5554494Y-5304494D01*
X5511188Y-5347800D01*
X5510489Y-5347509D01*
X5489603Y-5347491D01*
X5470300Y-5355467D01*
X5455519Y-5370222D01*
X5449996Y-5383521D01*
X5444533Y-5370300D01*
X5429778Y-5355519D01*
X5410489Y-5347509D01*
X5389603Y-5347491D01*
X5370971Y-5355189D01*
X5370506Y-5354494D01*
X5345506Y-5329494D01*
X5336098Y-5323207D01*
X5325000Y-5321000D01*
X5038159Y-5321000D01*
X5038159Y-4839573D01*
X5000000Y-4801414D01*
X4961841Y-4839573D01*
X4963357Y-4852136D01*
X4986098Y-4862190D01*
X5010955Y-4862776D01*
X5034145Y-4853805D01*
X5036643Y-4852136D01*
X5038159Y-4839573D01*
X5038159Y-5321000D01*
X4850000Y-5321000D01*
X4838902Y-5323207D01*
X4829494Y-5329494D01*
X4829000Y-5329988D01*
X4829000Y-4887012D01*
X4870506Y-4845506D01*
X4870980Y-4844796D01*
X4889511Y-4852491D01*
X4910397Y-4852509D01*
X4929700Y-4844533D01*
X4944481Y-4829778D01*
X4944494Y-4829747D01*
X4946195Y-4834145D01*
X4947864Y-4836643D01*
X4960427Y-4838159D01*
X4998586Y-4800000D01*
X4960427Y-4761841D01*
X4947864Y-4763357D01*
X4944660Y-4770606D01*
X4944533Y-4770300D01*
X4929778Y-4755519D01*
X4910489Y-4747509D01*
X4889603Y-4747491D01*
X4879000Y-4751872D01*
X4879000Y-4732644D01*
X4886404Y-4729585D01*
X4904521Y-4711499D01*
X4914339Y-4687856D01*
X4914361Y-4662256D01*
X4904585Y-4638596D01*
X4886499Y-4620479D01*
X4867266Y-4612492D01*
X4886404Y-4604585D01*
X4896006Y-4595000D01*
X4956360Y-4595000D01*
X4976312Y-4614952D01*
X4964763Y-4619413D01*
X4962129Y-4621173D01*
X4960363Y-4633948D01*
X5000000Y-4673586D01*
X5000557Y-4673029D01*
X5001971Y-4674443D01*
X5001414Y-4675000D01*
X5041052Y-4714637D01*
X5053827Y-4712871D01*
X5055947Y-4708083D01*
X5069060Y-4721218D01*
X5089102Y-4729541D01*
X5110803Y-4729559D01*
X5130860Y-4721272D01*
X5146218Y-4705940D01*
X5154541Y-4685898D01*
X5154559Y-4664197D01*
X5146272Y-4644140D01*
X5130940Y-4628782D01*
X5110898Y-4620459D01*
X5109098Y-4620458D01*
X5049000Y-4560360D01*
X5049000Y-4435250D01*
X5049000Y-4376000D01*
X4989750Y-4376000D01*
X4981000Y-4384750D01*
X4981000Y-4402038D01*
X4981000Y-4415962D01*
X4986328Y-4428826D01*
X4996174Y-4438672D01*
X5009038Y-4444000D01*
X5040250Y-4444000D01*
X5049000Y-4435250D01*
X5049000Y-4560360D01*
X5006820Y-4518180D01*
X4992221Y-4508425D01*
X4975000Y-4505000D01*
X4896004Y-4505000D01*
X4886499Y-4495479D01*
X4862856Y-4485661D01*
X4837256Y-4485639D01*
X4825527Y-4490485D01*
X4981000Y-4335012D01*
X4981000Y-4347962D01*
X4981000Y-4365250D01*
X4989750Y-4374000D01*
X5049000Y-4374000D01*
X5049000Y-4314750D01*
X5040250Y-4306000D01*
X5010012Y-4306000D01*
X5012012Y-4304000D01*
X5279988Y-4304000D01*
X5266161Y-4317826D01*
X5261787Y-4316010D01*
X5238316Y-4315990D01*
X5216623Y-4324953D01*
X5200011Y-4341536D01*
X5199996Y-4341572D01*
X5183464Y-4325011D01*
X5161787Y-4316010D01*
X5138316Y-4315990D01*
X5116623Y-4324953D01*
X5115642Y-4325932D01*
X5113672Y-4321174D01*
X5103826Y-4311328D01*
X5090962Y-4306000D01*
X5059750Y-4306000D01*
X5051000Y-4314750D01*
X5051000Y-4374000D01*
X5051787Y-4374000D01*
X5051787Y-4376000D01*
X5051000Y-4376000D01*
X5051000Y-4435250D01*
X5059750Y-4444000D01*
X5090962Y-4444000D01*
X5103826Y-4438672D01*
X5113672Y-4428826D01*
X5115635Y-4424086D01*
X5116536Y-4424989D01*
X5138213Y-4433990D01*
X5161684Y-4434010D01*
X5166152Y-4432164D01*
X5479494Y-4745506D01*
X5485192Y-4749313D01*
X5470300Y-4755467D01*
X5455519Y-4770222D01*
X5449996Y-4783521D01*
X5444533Y-4770300D01*
X5429778Y-4755519D01*
X5410489Y-4747509D01*
X5389603Y-4747491D01*
X5370300Y-4755467D01*
X5355519Y-4770222D01*
X5349996Y-4783521D01*
X5344533Y-4770300D01*
X5329778Y-4755519D01*
X5310489Y-4747509D01*
X5289603Y-4747491D01*
X5270300Y-4755467D01*
X5255519Y-4770222D01*
X5249996Y-4783521D01*
X5244533Y-4770300D01*
X5229778Y-4755519D01*
X5210489Y-4747509D01*
X5189603Y-4747491D01*
X5170300Y-4755467D01*
X5155519Y-4770222D01*
X5149996Y-4783521D01*
X5144533Y-4770300D01*
X5129778Y-4755519D01*
X5110489Y-4747509D01*
X5089603Y-4747491D01*
X5070300Y-4755467D01*
X5055519Y-4770222D01*
X5055506Y-4770253D01*
X5053805Y-4765855D01*
X5052136Y-4763357D01*
X5039637Y-4761848D01*
X5039637Y-4716052D01*
X5000000Y-4676414D01*
X4998586Y-4677828D01*
X4998586Y-4675000D01*
X4958948Y-4635363D01*
X4946173Y-4637129D01*
X4935778Y-4660610D01*
X4935160Y-4686282D01*
X4944413Y-4710237D01*
X4946173Y-4712871D01*
X4958948Y-4714637D01*
X4998586Y-4675000D01*
X4998586Y-4677828D01*
X4960363Y-4716052D01*
X4962129Y-4728827D01*
X4984803Y-4738865D01*
X4965855Y-4746195D01*
X4963357Y-4747864D01*
X4961841Y-4760427D01*
X5000000Y-4798586D01*
X5038159Y-4760427D01*
X5036643Y-4747864D01*
X5015131Y-4738354D01*
X5035237Y-4730587D01*
X5037871Y-4728827D01*
X5039637Y-4716052D01*
X5039637Y-4761848D01*
X5039573Y-4761841D01*
X5001414Y-4800000D01*
X5039573Y-4838159D01*
X5052136Y-4836643D01*
X5055340Y-4829394D01*
X5055467Y-4829700D01*
X5070222Y-4844481D01*
X5088383Y-4852022D01*
X5268180Y-5031820D01*
X5282779Y-5041575D01*
X5300000Y-5045000D01*
X6443497Y-5045000D01*
X6444806Y-5048161D01*
X6451839Y-5055194D01*
X6458577Y-5057985D01*
G36*
X6693842Y-4846000D02*
X6475000Y-4846000D01*
X6463902Y-4848207D01*
X6454494Y-4854494D01*
X6412988Y-4896000D01*
X6137298Y-4896000D01*
X6142493Y-4883491D01*
X6142497Y-4879000D01*
X6143898Y-4879000D01*
X6150894Y-4886009D01*
X6166509Y-4892493D01*
X6183417Y-4892507D01*
X6199043Y-4886051D01*
X6211009Y-4874106D01*
X6217493Y-4858491D01*
X6217504Y-4845197D01*
X6335318Y-4845197D01*
X6341510Y-4851400D01*
X6363714Y-4860619D01*
X6387756Y-4860640D01*
X6409975Y-4851459D01*
X6426990Y-4834474D01*
X6436210Y-4812270D01*
X6436231Y-4788229D01*
X6427050Y-4766009D01*
X6410065Y-4748994D01*
X6387861Y-4739774D01*
X6363819Y-4739753D01*
X6341600Y-4748934D01*
X6335326Y-4755197D01*
X6168836Y-4755197D01*
X6162776Y-4749136D01*
X6162776Y-4639045D01*
X6153805Y-4615855D01*
X6152136Y-4613357D01*
X6139573Y-4611841D01*
X6138159Y-4613255D01*
X6138159Y-4610427D01*
X6136643Y-4597864D01*
X6113902Y-4587810D01*
X6089045Y-4587224D01*
X6065855Y-4596195D01*
X6063357Y-4597864D01*
X6061841Y-4610427D01*
X6100000Y-4648586D01*
X6138159Y-4610427D01*
X6138159Y-4613255D01*
X6101414Y-4650000D01*
X6139573Y-4688159D01*
X6152136Y-4686643D01*
X6162190Y-4663902D01*
X6162776Y-4639045D01*
X6162776Y-4749136D01*
X6122103Y-4708463D01*
X6134145Y-4703805D01*
X6136643Y-4702136D01*
X6138159Y-4689573D01*
X6100000Y-4651414D01*
X6099443Y-4651971D01*
X6098029Y-4650557D01*
X6098586Y-4650000D01*
X6060427Y-4611841D01*
X6047864Y-4613357D01*
X6044660Y-4620606D01*
X6044533Y-4620300D01*
X6029778Y-4605519D01*
X6010489Y-4597509D01*
X5989603Y-4597491D01*
X5970300Y-4605467D01*
X5955519Y-4620222D01*
X5949996Y-4633521D01*
X5944533Y-4620300D01*
X5929778Y-4605519D01*
X5910489Y-4597509D01*
X5889603Y-4597491D01*
X5870300Y-4605467D01*
X5855519Y-4620222D01*
X5852500Y-4627492D01*
X5852500Y-4617527D01*
X5848694Y-4608339D01*
X5841661Y-4601306D01*
X5832473Y-4597500D01*
X5822527Y-4597500D01*
X5767527Y-4597500D01*
X5758339Y-4601306D01*
X5751306Y-4608339D01*
X5749731Y-4612142D01*
X5749731Y-4437151D01*
X5739125Y-4409531D01*
X5736928Y-4406243D01*
X5723133Y-4403282D01*
X5721718Y-4404696D01*
X5721718Y-4401867D01*
X5718757Y-4388072D01*
X5691728Y-4376041D01*
X5662151Y-4375269D01*
X5634531Y-4385875D01*
X5631243Y-4388072D01*
X5628282Y-4401867D01*
X5675000Y-4448586D01*
X5721718Y-4401867D01*
X5721718Y-4404696D01*
X5676414Y-4450000D01*
X5723133Y-4496718D01*
X5736928Y-4493757D01*
X5748959Y-4466728D01*
X5749731Y-4437151D01*
X5749731Y-4612142D01*
X5747500Y-4617527D01*
X5747500Y-4617850D01*
X5721718Y-4617850D01*
X5721718Y-4498133D01*
X5675000Y-4451414D01*
X5673586Y-4452828D01*
X5673586Y-4450000D01*
X5626867Y-4403282D01*
X5613072Y-4406243D01*
X5601041Y-4433272D01*
X5600269Y-4462849D01*
X5610875Y-4490469D01*
X5613072Y-4493757D01*
X5626867Y-4496718D01*
X5673586Y-4450000D01*
X5673586Y-4452828D01*
X5628282Y-4498133D01*
X5631243Y-4511928D01*
X5658272Y-4523959D01*
X5687849Y-4524731D01*
X5715469Y-4514125D01*
X5718757Y-4511928D01*
X5721718Y-4498133D01*
X5721718Y-4617850D01*
X5682666Y-4617850D01*
X5679602Y-4610435D01*
X5661510Y-4592312D01*
X5637860Y-4582491D01*
X5612252Y-4582469D01*
X5588585Y-4592248D01*
X5574992Y-4605817D01*
X5561510Y-4592312D01*
X5549731Y-4587421D01*
X5549731Y-4437151D01*
X5539125Y-4409531D01*
X5536928Y-4406243D01*
X5523133Y-4403282D01*
X5476414Y-4450000D01*
X5523133Y-4496718D01*
X5536928Y-4493757D01*
X5548959Y-4466728D01*
X5549731Y-4437151D01*
X5549731Y-4587421D01*
X5537860Y-4582491D01*
X5521718Y-4582477D01*
X5521718Y-4498133D01*
X5475000Y-4451414D01*
X5428282Y-4498133D01*
X5431243Y-4511928D01*
X5458272Y-4523959D01*
X5487849Y-4524731D01*
X5515469Y-4514125D01*
X5518757Y-4511928D01*
X5521718Y-4498133D01*
X5521718Y-4582477D01*
X5512252Y-4582469D01*
X5488585Y-4592248D01*
X5470461Y-4610340D01*
X5460641Y-4633990D01*
X5460632Y-4644620D01*
X5250012Y-4434000D01*
X5261684Y-4434010D01*
X5283377Y-4425047D01*
X5299989Y-4408464D01*
X5300004Y-4408428D01*
X5316536Y-4424989D01*
X5338213Y-4433990D01*
X5361684Y-4434010D01*
X5383377Y-4425047D01*
X5399989Y-4408464D01*
X5401842Y-4404000D01*
X5423521Y-4404000D01*
X5413072Y-4406243D01*
X5401041Y-4433272D01*
X5400269Y-4462849D01*
X5410875Y-4490469D01*
X5413072Y-4493757D01*
X5426867Y-4496718D01*
X5473586Y-4450000D01*
X5473029Y-4449443D01*
X5474443Y-4448029D01*
X5475000Y-4448586D01*
X5521718Y-4401867D01*
X5518757Y-4388072D01*
X5491728Y-4376041D01*
X5465651Y-4375361D01*
X5512012Y-4329000D01*
X5751874Y-4329000D01*
X5747509Y-4339511D01*
X5747491Y-4360397D01*
X5755467Y-4379700D01*
X5770222Y-4394481D01*
X5788383Y-4402022D01*
X5893180Y-4506820D01*
X5907779Y-4516575D01*
X5925000Y-4520000D01*
X6056360Y-4520000D01*
X6118180Y-4581820D01*
X6132779Y-4591575D01*
X6150000Y-4595000D01*
X6356360Y-4595000D01*
X6435651Y-4674290D01*
X6435639Y-4687744D01*
X6445415Y-4711404D01*
X6463501Y-4729521D01*
X6487144Y-4739339D01*
X6500711Y-4739351D01*
X6593180Y-4831820D01*
X6607779Y-4841575D01*
X6625000Y-4845000D01*
X6692843Y-4845000D01*
X6693842Y-4846000D01*
X6693842Y-4846000D01*
G37*
X6693842Y-4846000D02*
X6475000Y-4846000D01*
X6463902Y-4848207D01*
X6454494Y-4854494D01*
X6412988Y-4896000D01*
X6137298Y-4896000D01*
X6142493Y-4883491D01*
X6142497Y-4879000D01*
X6143898Y-4879000D01*
X6150894Y-4886009D01*
X6166509Y-4892493D01*
X6183417Y-4892507D01*
X6199043Y-4886051D01*
X6211009Y-4874106D01*
X6217493Y-4858491D01*
X6217504Y-4845197D01*
X6335318Y-4845197D01*
X6341510Y-4851400D01*
X6363714Y-4860619D01*
X6387756Y-4860640D01*
X6409975Y-4851459D01*
X6426990Y-4834474D01*
X6436210Y-4812270D01*
X6436231Y-4788229D01*
X6427050Y-4766009D01*
X6410065Y-4748994D01*
X6387861Y-4739774D01*
X6363819Y-4739753D01*
X6341600Y-4748934D01*
X6335326Y-4755197D01*
X6168836Y-4755197D01*
X6162776Y-4749136D01*
X6162776Y-4639045D01*
X6153805Y-4615855D01*
X6152136Y-4613357D01*
X6139573Y-4611841D01*
X6138159Y-4613255D01*
X6138159Y-4610427D01*
X6136643Y-4597864D01*
X6113902Y-4587810D01*
X6089045Y-4587224D01*
X6065855Y-4596195D01*
X6063357Y-4597864D01*
X6061841Y-4610427D01*
X6100000Y-4648586D01*
X6138159Y-4610427D01*
X6138159Y-4613255D01*
X6101414Y-4650000D01*
X6139573Y-4688159D01*
X6152136Y-4686643D01*
X6162190Y-4663902D01*
X6162776Y-4639045D01*
X6162776Y-4749136D01*
X6122103Y-4708463D01*
X6134145Y-4703805D01*
X6136643Y-4702136D01*
X6138159Y-4689573D01*
X6100000Y-4651414D01*
X6099443Y-4651971D01*
X6098029Y-4650557D01*
X6098586Y-4650000D01*
X6060427Y-4611841D01*
X6047864Y-4613357D01*
X6044660Y-4620606D01*
X6044533Y-4620300D01*
X6029778Y-4605519D01*
X6010489Y-4597509D01*
X5989603Y-4597491D01*
X5970300Y-4605467D01*
X5955519Y-4620222D01*
X5949996Y-4633521D01*
X5944533Y-4620300D01*
X5929778Y-4605519D01*
X5910489Y-4597509D01*
X5889603Y-4597491D01*
X5870300Y-4605467D01*
X5855519Y-4620222D01*
X5852500Y-4627492D01*
X5852500Y-4617527D01*
X5848694Y-4608339D01*
X5841661Y-4601306D01*
X5832473Y-4597500D01*
X5822527Y-4597500D01*
X5767527Y-4597500D01*
X5758339Y-4601306D01*
X5751306Y-4608339D01*
X5749731Y-4612142D01*
X5749731Y-4437151D01*
X5739125Y-4409531D01*
X5736928Y-4406243D01*
X5723133Y-4403282D01*
X5721718Y-4404696D01*
X5721718Y-4401867D01*
X5718757Y-4388072D01*
X5691728Y-4376041D01*
X5662151Y-4375269D01*
X5634531Y-4385875D01*
X5631243Y-4388072D01*
X5628282Y-4401867D01*
X5675000Y-4448586D01*
X5721718Y-4401867D01*
X5721718Y-4404696D01*
X5676414Y-4450000D01*
X5723133Y-4496718D01*
X5736928Y-4493757D01*
X5748959Y-4466728D01*
X5749731Y-4437151D01*
X5749731Y-4612142D01*
X5747500Y-4617527D01*
X5747500Y-4617850D01*
X5721718Y-4617850D01*
X5721718Y-4498133D01*
X5675000Y-4451414D01*
X5673586Y-4452828D01*
X5673586Y-4450000D01*
X5626867Y-4403282D01*
X5613072Y-4406243D01*
X5601041Y-4433272D01*
X5600269Y-4462849D01*
X5610875Y-4490469D01*
X5613072Y-4493757D01*
X5626867Y-4496718D01*
X5673586Y-4450000D01*
X5673586Y-4452828D01*
X5628282Y-4498133D01*
X5631243Y-4511928D01*
X5658272Y-4523959D01*
X5687849Y-4524731D01*
X5715469Y-4514125D01*
X5718757Y-4511928D01*
X5721718Y-4498133D01*
X5721718Y-4617850D01*
X5682666Y-4617850D01*
X5679602Y-4610435D01*
X5661510Y-4592312D01*
X5637860Y-4582491D01*
X5612252Y-4582469D01*
X5588585Y-4592248D01*
X5574992Y-4605817D01*
X5561510Y-4592312D01*
X5549731Y-4587421D01*
X5549731Y-4437151D01*
X5539125Y-4409531D01*
X5536928Y-4406243D01*
X5523133Y-4403282D01*
X5476414Y-4450000D01*
X5523133Y-4496718D01*
X5536928Y-4493757D01*
X5548959Y-4466728D01*
X5549731Y-4437151D01*
X5549731Y-4587421D01*
X5537860Y-4582491D01*
X5521718Y-4582477D01*
X5521718Y-4498133D01*
X5475000Y-4451414D01*
X5428282Y-4498133D01*
X5431243Y-4511928D01*
X5458272Y-4523959D01*
X5487849Y-4524731D01*
X5515469Y-4514125D01*
X5518757Y-4511928D01*
X5521718Y-4498133D01*
X5521718Y-4582477D01*
X5512252Y-4582469D01*
X5488585Y-4592248D01*
X5470461Y-4610340D01*
X5460641Y-4633990D01*
X5460632Y-4644620D01*
X5250012Y-4434000D01*
X5261684Y-4434010D01*
X5283377Y-4425047D01*
X5299989Y-4408464D01*
X5300004Y-4408428D01*
X5316536Y-4424989D01*
X5338213Y-4433990D01*
X5361684Y-4434010D01*
X5383377Y-4425047D01*
X5399989Y-4408464D01*
X5401842Y-4404000D01*
X5423521Y-4404000D01*
X5413072Y-4406243D01*
X5401041Y-4433272D01*
X5400269Y-4462849D01*
X5410875Y-4490469D01*
X5413072Y-4493757D01*
X5426867Y-4496718D01*
X5473586Y-4450000D01*
X5473029Y-4449443D01*
X5474443Y-4448029D01*
X5475000Y-4448586D01*
X5521718Y-4401867D01*
X5518757Y-4388072D01*
X5491728Y-4376041D01*
X5465651Y-4375361D01*
X5512012Y-4329000D01*
X5751874Y-4329000D01*
X5747509Y-4339511D01*
X5747491Y-4360397D01*
X5755467Y-4379700D01*
X5770222Y-4394481D01*
X5788383Y-4402022D01*
X5893180Y-4506820D01*
X5907779Y-4516575D01*
X5925000Y-4520000D01*
X6056360Y-4520000D01*
X6118180Y-4581820D01*
X6132779Y-4591575D01*
X6150000Y-4595000D01*
X6356360Y-4595000D01*
X6435651Y-4674290D01*
X6435639Y-4687744D01*
X6445415Y-4711404D01*
X6463501Y-4729521D01*
X6487144Y-4739339D01*
X6500711Y-4739351D01*
X6593180Y-4831820D01*
X6607779Y-4841575D01*
X6625000Y-4845000D01*
X6692843Y-4845000D01*
X6693842Y-4846000D01*
G36*
X6826971Y-4800557D02*
X6825557Y-4801971D01*
X6825000Y-4801414D01*
X6824443Y-4801971D01*
X6823029Y-4800557D01*
X6823586Y-4800000D01*
X6823029Y-4799443D01*
X6824443Y-4798029D01*
X6825000Y-4798586D01*
X6825557Y-4798029D01*
X6826971Y-4799443D01*
X6826414Y-4800000D01*
X6826971Y-4800557D01*
X6826971Y-4800557D01*
G37*
X6826971Y-4800557D02*
X6825557Y-4801971D01*
X6825000Y-4801414D01*
X6824443Y-4801971D01*
X6823029Y-4800557D01*
X6823586Y-4800000D01*
X6823029Y-4799443D01*
X6824443Y-4798029D01*
X6825000Y-4798586D01*
X6825557Y-4798029D01*
X6826971Y-4799443D01*
X6826414Y-4800000D01*
X6826971Y-4800557D01*
G36*
X6876872Y-5221000D02*
X6673126Y-5221000D01*
X6677491Y-5210489D01*
X6677509Y-5189603D01*
X6673128Y-5179000D01*
X6837988Y-5179000D01*
X6874678Y-5215690D01*
X6876872Y-5221000D01*
X6876872Y-5221000D01*
G37*
X6876872Y-5221000D02*
X6673126Y-5221000D01*
X6677491Y-5210489D01*
X6677509Y-5189603D01*
X6673128Y-5179000D01*
X6837988Y-5179000D01*
X6874678Y-5215690D01*
X6876872Y-5221000D01*
G36*
X6876874Y-5279000D02*
X6872509Y-5289511D01*
X6872491Y-5310397D01*
X6876872Y-5321000D01*
X6673126Y-5321000D01*
X6677491Y-5310489D01*
X6677509Y-5289603D01*
X6673128Y-5279000D01*
X6876874Y-5279000D01*
X6876874Y-5279000D01*
G37*
X6876874Y-5279000D02*
X6872509Y-5289511D01*
X6872491Y-5310397D01*
X6876872Y-5321000D01*
X6673126Y-5321000D01*
X6677491Y-5310489D01*
X6677509Y-5289603D01*
X6673128Y-5279000D01*
X6876874Y-5279000D01*
G36*
X6876874Y-5379000D02*
X6872509Y-5389511D01*
X6872491Y-5410397D01*
X6876872Y-5421000D01*
X6787012Y-5421000D01*
X6745506Y-5379494D01*
X6744767Y-5379000D01*
X6876874Y-5379000D01*
X6876874Y-5379000D01*
G37*
X6876874Y-5379000D02*
X6872509Y-5389511D01*
X6872491Y-5410397D01*
X6876872Y-5421000D01*
X6787012Y-5421000D01*
X6745506Y-5379494D01*
X6744767Y-5379000D01*
X6876874Y-5379000D01*
G36*
X6876874Y-5479000D02*
X6872509Y-5489511D01*
X6872491Y-5510397D01*
X6876872Y-5521000D01*
X6787012Y-5521000D01*
X6695506Y-5429494D01*
X6694767Y-5429000D01*
X6712988Y-5429000D01*
X6754494Y-5470506D01*
X6763902Y-5476793D01*
X6775000Y-5479000D01*
X6876874Y-5479000D01*
X6876874Y-5479000D01*
G37*
X6876874Y-5479000D02*
X6872509Y-5489511D01*
X6872491Y-5510397D01*
X6876872Y-5521000D01*
X6787012Y-5521000D01*
X6695506Y-5429494D01*
X6694767Y-5429000D01*
X6712988Y-5429000D01*
X6754494Y-5470506D01*
X6763902Y-5476793D01*
X6775000Y-5479000D01*
X6876874Y-5479000D01*
G36*
X6908521Y-5150004D02*
X6896134Y-5155122D01*
X6870506Y-5129494D01*
X6861098Y-5123207D01*
X6850000Y-5121000D01*
X6673126Y-5121000D01*
X6677491Y-5110489D01*
X6677509Y-5089603D01*
X6669533Y-5070300D01*
X6654778Y-5055519D01*
X6647508Y-5052500D01*
X6657473Y-5052500D01*
X6666661Y-5048694D01*
X6670355Y-5045000D01*
X6896471Y-5045000D01*
X6908521Y-5050004D01*
X6895300Y-5055467D01*
X6880519Y-5070222D01*
X6872509Y-5089511D01*
X6872491Y-5110397D01*
X6880467Y-5129700D01*
X6895222Y-5144481D01*
X6908521Y-5150004D01*
X6908521Y-5150004D01*
G37*
X6908521Y-5150004D02*
X6896134Y-5155122D01*
X6870506Y-5129494D01*
X6861098Y-5123207D01*
X6850000Y-5121000D01*
X6673126Y-5121000D01*
X6677491Y-5110489D01*
X6677509Y-5089603D01*
X6669533Y-5070300D01*
X6654778Y-5055519D01*
X6647508Y-5052500D01*
X6657473Y-5052500D01*
X6666661Y-5048694D01*
X6670355Y-5045000D01*
X6896471Y-5045000D01*
X6908521Y-5050004D01*
X6895300Y-5055467D01*
X6880519Y-5070222D01*
X6872509Y-5089511D01*
X6872491Y-5110397D01*
X6880467Y-5129700D01*
X6895222Y-5144481D01*
X6908521Y-5150004D01*
G36*
X7051971Y-4850557D02*
X7050557Y-4851971D01*
X7050000Y-4851414D01*
X7011841Y-4889573D01*
X7013357Y-4902136D01*
X7020606Y-4905340D01*
X7020300Y-4905467D01*
X7005519Y-4920222D01*
X6997509Y-4939511D01*
X6997491Y-4960397D01*
X7005189Y-4979029D01*
X7004494Y-4979494D01*
X6979494Y-5004494D01*
X6977493Y-5007488D01*
X6977509Y-4989603D01*
X6969533Y-4970300D01*
X6954778Y-4955519D01*
X6935489Y-4947509D01*
X6914603Y-4947491D01*
X6896429Y-4955000D01*
X6670355Y-4955000D01*
X6666661Y-4951306D01*
X6657473Y-4947500D01*
X6647527Y-4947500D01*
X6592527Y-4947500D01*
X6583339Y-4951306D01*
X6579645Y-4955000D01*
X6556503Y-4955000D01*
X6555194Y-4951839D01*
X6548161Y-4944806D01*
X6538973Y-4941000D01*
X6529027Y-4941000D01*
X6461027Y-4941000D01*
X6451839Y-4944806D01*
X6444806Y-4951839D01*
X6443497Y-4955000D01*
X5318640Y-4955000D01*
X5214467Y-4850827D01*
X5229700Y-4844533D01*
X5244481Y-4829778D01*
X5250004Y-4816478D01*
X5255467Y-4829700D01*
X5270222Y-4844481D01*
X5289511Y-4852491D01*
X5310397Y-4852509D01*
X5329700Y-4844533D01*
X5344481Y-4829778D01*
X5350004Y-4816478D01*
X5355467Y-4829700D01*
X5370222Y-4844481D01*
X5389511Y-4852491D01*
X5410397Y-4852509D01*
X5411175Y-4852188D01*
X5429494Y-4870506D01*
X5438902Y-4876793D01*
X5450000Y-4879000D01*
X5612702Y-4879000D01*
X5607507Y-4891509D01*
X5607493Y-4908417D01*
X5613949Y-4924043D01*
X5625894Y-4936009D01*
X5641509Y-4942493D01*
X5658417Y-4942507D01*
X5674043Y-4936051D01*
X5686009Y-4924106D01*
X5692493Y-4908491D01*
X5692497Y-4904000D01*
X6037988Y-4904000D01*
X6079494Y-4945506D01*
X6088902Y-4951793D01*
X6100000Y-4954000D01*
X6425000Y-4954000D01*
X6436098Y-4951793D01*
X6445506Y-4945506D01*
X6487012Y-4904000D01*
X6925000Y-4904000D01*
X6936098Y-4901793D01*
X6945506Y-4895506D01*
X6987397Y-4853615D01*
X6987224Y-4860955D01*
X6996195Y-4884145D01*
X6997864Y-4886643D01*
X7010427Y-4888159D01*
X7048586Y-4850000D01*
X7048029Y-4849443D01*
X7049443Y-4848029D01*
X7050000Y-4848586D01*
X7050557Y-4848029D01*
X7051971Y-4849443D01*
X7051414Y-4850000D01*
X7051971Y-4850557D01*
X7051971Y-4850557D01*
G37*
X7051971Y-4850557D02*
X7050557Y-4851971D01*
X7050000Y-4851414D01*
X7011841Y-4889573D01*
X7013357Y-4902136D01*
X7020606Y-4905340D01*
X7020300Y-4905467D01*
X7005519Y-4920222D01*
X6997509Y-4939511D01*
X6997491Y-4960397D01*
X7005189Y-4979029D01*
X7004494Y-4979494D01*
X6979494Y-5004494D01*
X6977493Y-5007488D01*
X6977509Y-4989603D01*
X6969533Y-4970300D01*
X6954778Y-4955519D01*
X6935489Y-4947509D01*
X6914603Y-4947491D01*
X6896429Y-4955000D01*
X6670355Y-4955000D01*
X6666661Y-4951306D01*
X6657473Y-4947500D01*
X6647527Y-4947500D01*
X6592527Y-4947500D01*
X6583339Y-4951306D01*
X6579645Y-4955000D01*
X6556503Y-4955000D01*
X6555194Y-4951839D01*
X6548161Y-4944806D01*
X6538973Y-4941000D01*
X6529027Y-4941000D01*
X6461027Y-4941000D01*
X6451839Y-4944806D01*
X6444806Y-4951839D01*
X6443497Y-4955000D01*
X5318640Y-4955000D01*
X5214467Y-4850827D01*
X5229700Y-4844533D01*
X5244481Y-4829778D01*
X5250004Y-4816478D01*
X5255467Y-4829700D01*
X5270222Y-4844481D01*
X5289511Y-4852491D01*
X5310397Y-4852509D01*
X5329700Y-4844533D01*
X5344481Y-4829778D01*
X5350004Y-4816478D01*
X5355467Y-4829700D01*
X5370222Y-4844481D01*
X5389511Y-4852491D01*
X5410397Y-4852509D01*
X5411175Y-4852188D01*
X5429494Y-4870506D01*
X5438902Y-4876793D01*
X5450000Y-4879000D01*
X5612702Y-4879000D01*
X5607507Y-4891509D01*
X5607493Y-4908417D01*
X5613949Y-4924043D01*
X5625894Y-4936009D01*
X5641509Y-4942493D01*
X5658417Y-4942507D01*
X5674043Y-4936051D01*
X5686009Y-4924106D01*
X5692493Y-4908491D01*
X5692497Y-4904000D01*
X6037988Y-4904000D01*
X6079494Y-4945506D01*
X6088902Y-4951793D01*
X6100000Y-4954000D01*
X6425000Y-4954000D01*
X6436098Y-4951793D01*
X6445506Y-4945506D01*
X6487012Y-4904000D01*
X6925000Y-4904000D01*
X6936098Y-4901793D01*
X6945506Y-4895506D01*
X6987397Y-4853615D01*
X6987224Y-4860955D01*
X6996195Y-4884145D01*
X6997864Y-4886643D01*
X7010427Y-4888159D01*
X7048586Y-4850000D01*
X7048029Y-4849443D01*
X7049443Y-4848029D01*
X7050000Y-4848586D01*
X7050557Y-4848029D01*
X7051971Y-4849443D01*
X7051414Y-4850000D01*
X7051971Y-4850557D01*
G36*
X7078561Y-3962992D02*
X7060596Y-3970415D01*
X7042479Y-3988501D01*
X7032661Y-4012144D01*
X7032639Y-4037744D01*
X7035740Y-4045248D01*
X6978302Y-4102686D01*
X6960898Y-4095459D01*
X6939197Y-4095441D01*
X6919140Y-4103728D01*
X6906929Y-4115917D01*
X6861267Y-4070255D01*
X6864339Y-4062856D01*
X6864361Y-4037256D01*
X6854585Y-4013596D01*
X6836499Y-3995479D01*
X6812856Y-3985661D01*
X6787256Y-3985639D01*
X6763596Y-3995415D01*
X6745479Y-4013501D01*
X6742365Y-4021000D01*
X6682644Y-4021000D01*
X6679585Y-4013596D01*
X6661499Y-3995479D01*
X6637856Y-3985661D01*
X6612256Y-3985639D01*
X6588596Y-3995415D01*
X6570479Y-4013501D01*
X6560661Y-4037144D01*
X6560639Y-4062744D01*
X6563740Y-4070248D01*
X6494000Y-4139988D01*
X6494000Y-4109038D01*
X6488672Y-4096174D01*
X6482663Y-4090166D01*
X6493634Y-4065449D01*
X6494322Y-4038008D01*
X6484456Y-4012392D01*
X6482498Y-4009461D01*
X6469260Y-4007154D01*
X6426414Y-4050000D01*
X6426971Y-4050557D01*
X6425557Y-4051971D01*
X6425000Y-4051414D01*
X6424443Y-4051971D01*
X6423029Y-4050557D01*
X6423586Y-4050000D01*
X6391214Y-4017628D01*
X6392083Y-4015669D01*
X6425000Y-4048586D01*
X6467846Y-4005740D01*
X6465539Y-3992502D01*
X6440449Y-3981366D01*
X6413008Y-3980678D01*
X6392818Y-3988454D01*
X6392987Y-3988219D01*
X6392320Y-3984866D01*
X6382618Y-3962992D01*
X7078561Y-3962992D01*
X7078561Y-3962992D01*
G37*
X7078561Y-3962992D02*
X7060596Y-3970415D01*
X7042479Y-3988501D01*
X7032661Y-4012144D01*
X7032639Y-4037744D01*
X7035740Y-4045248D01*
X6978302Y-4102686D01*
X6960898Y-4095459D01*
X6939197Y-4095441D01*
X6919140Y-4103728D01*
X6906929Y-4115917D01*
X6861267Y-4070255D01*
X6864339Y-4062856D01*
X6864361Y-4037256D01*
X6854585Y-4013596D01*
X6836499Y-3995479D01*
X6812856Y-3985661D01*
X6787256Y-3985639D01*
X6763596Y-3995415D01*
X6745479Y-4013501D01*
X6742365Y-4021000D01*
X6682644Y-4021000D01*
X6679585Y-4013596D01*
X6661499Y-3995479D01*
X6637856Y-3985661D01*
X6612256Y-3985639D01*
X6588596Y-3995415D01*
X6570479Y-4013501D01*
X6560661Y-4037144D01*
X6560639Y-4062744D01*
X6563740Y-4070248D01*
X6494000Y-4139988D01*
X6494000Y-4109038D01*
X6488672Y-4096174D01*
X6482663Y-4090166D01*
X6493634Y-4065449D01*
X6494322Y-4038008D01*
X6484456Y-4012392D01*
X6482498Y-4009461D01*
X6469260Y-4007154D01*
X6426414Y-4050000D01*
X6426971Y-4050557D01*
X6425557Y-4051971D01*
X6425000Y-4051414D01*
X6424443Y-4051971D01*
X6423029Y-4050557D01*
X6423586Y-4050000D01*
X6391214Y-4017628D01*
X6392083Y-4015669D01*
X6425000Y-4048586D01*
X6467846Y-4005740D01*
X6465539Y-3992502D01*
X6440449Y-3981366D01*
X6413008Y-3980678D01*
X6392818Y-3988454D01*
X6392987Y-3988219D01*
X6392320Y-3984866D01*
X6382618Y-3962992D01*
X7078561Y-3962992D01*
G36*
X7848031Y-5879528D02*
X7820300Y-5879528D01*
X7820300Y-5680320D01*
X7820300Y-4105517D01*
X7798559Y-4052899D01*
X7758337Y-4012606D01*
X7705757Y-3990773D01*
X7648824Y-3990723D01*
X7596206Y-4012465D01*
X7555913Y-4052687D01*
X7534080Y-4105267D01*
X7534030Y-4162200D01*
X7555772Y-4214818D01*
X7595994Y-4255110D01*
X7648574Y-4276944D01*
X7705507Y-4276993D01*
X7758125Y-4255252D01*
X7798418Y-4215030D01*
X7820251Y-4162450D01*
X7820300Y-4105517D01*
X7820300Y-5680320D01*
X7809010Y-5652996D01*
X7809010Y-5363316D01*
X7800047Y-5341623D01*
X7783464Y-5325011D01*
X7765294Y-5317466D01*
X7765294Y-4788646D01*
X7755978Y-4764524D01*
X7754198Y-4761859D01*
X7741376Y-4760038D01*
X7701414Y-4800000D01*
X7741376Y-4839962D01*
X7754198Y-4838141D01*
X7764668Y-4814497D01*
X7765294Y-4788646D01*
X7765294Y-5317466D01*
X7761787Y-5316010D01*
X7738316Y-5315990D01*
X7716623Y-5324953D01*
X7700011Y-5341536D01*
X7699996Y-5341572D01*
X7683464Y-5325011D01*
X7661787Y-5316010D01*
X7638316Y-5315990D01*
X7616623Y-5324953D01*
X7607985Y-5333576D01*
X7605194Y-5326839D01*
X7598161Y-5319806D01*
X7588973Y-5316000D01*
X7579027Y-5316000D01*
X7511027Y-5316000D01*
X7501839Y-5319806D01*
X7494806Y-5326839D01*
X7491000Y-5336027D01*
X7491000Y-5345973D01*
X7491000Y-5413973D01*
X7494806Y-5423161D01*
X7501839Y-5430194D01*
X7511027Y-5434000D01*
X7520973Y-5434000D01*
X7588973Y-5434000D01*
X7598161Y-5430194D01*
X7605194Y-5423161D01*
X7607985Y-5416423D01*
X7616536Y-5424989D01*
X7638213Y-5433990D01*
X7661684Y-5434010D01*
X7683377Y-5425047D01*
X7699989Y-5408464D01*
X7700004Y-5408428D01*
X7716536Y-5424989D01*
X7738213Y-5433990D01*
X7761684Y-5434010D01*
X7783377Y-5425047D01*
X7799989Y-5408464D01*
X7808990Y-5386787D01*
X7809010Y-5363316D01*
X7809010Y-5652996D01*
X7798559Y-5627702D01*
X7758337Y-5587409D01*
X7705757Y-5565576D01*
X7648824Y-5565526D01*
X7596206Y-5587268D01*
X7555913Y-5627490D01*
X7534080Y-5680070D01*
X7534030Y-5737003D01*
X7555772Y-5789621D01*
X7595994Y-5829914D01*
X7648574Y-5851747D01*
X7705507Y-5851796D01*
X7758125Y-5830055D01*
X7798418Y-5789833D01*
X7820251Y-5737253D01*
X7820300Y-5680320D01*
X7820300Y-5879528D01*
X7439361Y-5879528D01*
X7439361Y-5587256D01*
X7439361Y-5187256D01*
X7429585Y-5163596D01*
X7411499Y-5145479D01*
X7387856Y-5135661D01*
X7362256Y-5135639D01*
X7338596Y-5145415D01*
X7320479Y-5163501D01*
X7310661Y-5187144D01*
X7310639Y-5212744D01*
X7320415Y-5236404D01*
X7338501Y-5254521D01*
X7362144Y-5264339D01*
X7387744Y-5264361D01*
X7411404Y-5254585D01*
X7429521Y-5236499D01*
X7439339Y-5212856D01*
X7439361Y-5187256D01*
X7439361Y-5587256D01*
X7429585Y-5563596D01*
X7411499Y-5545479D01*
X7387856Y-5535661D01*
X7362256Y-5535639D01*
X7338596Y-5545415D01*
X7320479Y-5563501D01*
X7310661Y-5587144D01*
X7310639Y-5612744D01*
X7320415Y-5636404D01*
X7338501Y-5654521D01*
X7362144Y-5664339D01*
X7387744Y-5664361D01*
X7411404Y-5654585D01*
X7429521Y-5636499D01*
X7439339Y-5612856D01*
X7439361Y-5587256D01*
X7439361Y-5879528D01*
X7304559Y-5879528D01*
X7304559Y-5164197D01*
X7296272Y-5144140D01*
X7280940Y-5128782D01*
X7260898Y-5120459D01*
X7239197Y-5120441D01*
X7219140Y-5128728D01*
X7206282Y-5141563D01*
X7205587Y-5139763D01*
X7203827Y-5137129D01*
X7191052Y-5135363D01*
X7189637Y-5136777D01*
X7189637Y-5133948D01*
X7187871Y-5121173D01*
X7164390Y-5110778D01*
X7138718Y-5110160D01*
X7114763Y-5119413D01*
X7112129Y-5121173D01*
X7110363Y-5133948D01*
X7150000Y-5173586D01*
X7189637Y-5133948D01*
X7189637Y-5136777D01*
X7151414Y-5175000D01*
X7191052Y-5214637D01*
X7203827Y-5212871D01*
X7205947Y-5208083D01*
X7219060Y-5221218D01*
X7239102Y-5229541D01*
X7260803Y-5229559D01*
X7280860Y-5221272D01*
X7296218Y-5205940D01*
X7304541Y-5185898D01*
X7304559Y-5164197D01*
X7304559Y-5879528D01*
X7194000Y-5879528D01*
X7194000Y-5840962D01*
X7194000Y-5809750D01*
X7185250Y-5801000D01*
X7126000Y-5801000D01*
X7126000Y-5860250D01*
X7134750Y-5869000D01*
X7152038Y-5869000D01*
X7165962Y-5869000D01*
X7178826Y-5863672D01*
X7188672Y-5853826D01*
X7194000Y-5840962D01*
X7194000Y-5879528D01*
X7124000Y-5879528D01*
X7124000Y-5860250D01*
X7124000Y-5801000D01*
X7064750Y-5801000D01*
X7056000Y-5809750D01*
X7056000Y-5840962D01*
X7061328Y-5853826D01*
X7071174Y-5863672D01*
X7084038Y-5869000D01*
X7097962Y-5869000D01*
X7115250Y-5869000D01*
X7124000Y-5860250D01*
X7124000Y-5879528D01*
X6997533Y-5879528D01*
X7008377Y-5875047D01*
X7024989Y-5858464D01*
X7033990Y-5836787D01*
X7034010Y-5813316D01*
X7025047Y-5791623D01*
X7008464Y-5775011D01*
X6986787Y-5766010D01*
X6963316Y-5765990D01*
X6941623Y-5774953D01*
X6925011Y-5791536D01*
X6924996Y-5791572D01*
X6908464Y-5775011D01*
X6886787Y-5766010D01*
X6863316Y-5765990D01*
X6841623Y-5774953D01*
X6825011Y-5791536D01*
X6824996Y-5791572D01*
X6808464Y-5775011D01*
X6786787Y-5766010D01*
X6763316Y-5765990D01*
X6741623Y-5774953D01*
X6725011Y-5791536D01*
X6724996Y-5791572D01*
X6708464Y-5775011D01*
X6686787Y-5766010D01*
X6663316Y-5765990D01*
X6663159Y-5766054D01*
X6663159Y-5639573D01*
X6625000Y-5601414D01*
X6586841Y-5639573D01*
X6588357Y-5652136D01*
X6611098Y-5662190D01*
X6635955Y-5662776D01*
X6659145Y-5653805D01*
X6661643Y-5652136D01*
X6663159Y-5639573D01*
X6663159Y-5766054D01*
X6641623Y-5774953D01*
X6625011Y-5791536D01*
X6624996Y-5791572D01*
X6608464Y-5775011D01*
X6586787Y-5766010D01*
X6563316Y-5765990D01*
X6541623Y-5774953D01*
X6540642Y-5775932D01*
X6538672Y-5771174D01*
X6528826Y-5761328D01*
X6515962Y-5756000D01*
X6484750Y-5756000D01*
X6476000Y-5764750D01*
X6476000Y-5824000D01*
X6476787Y-5824000D01*
X6476787Y-5826000D01*
X6476000Y-5826000D01*
X6476000Y-5826787D01*
X6474000Y-5826787D01*
X6474000Y-5826000D01*
X6474000Y-5824000D01*
X6474000Y-5764750D01*
X6465250Y-5756000D01*
X6434038Y-5756000D01*
X6421174Y-5761328D01*
X6411328Y-5771174D01*
X6406000Y-5784038D01*
X6406000Y-5797962D01*
X6406000Y-5815250D01*
X6414750Y-5824000D01*
X6474000Y-5824000D01*
X6474000Y-5826000D01*
X6414750Y-5826000D01*
X6406000Y-5834750D01*
X6406000Y-5852038D01*
X6406000Y-5865962D01*
X6411328Y-5878826D01*
X6412030Y-5879528D01*
X6265294Y-5879528D01*
X6265294Y-5588646D01*
X6255978Y-5564524D01*
X6254198Y-5561859D01*
X6241376Y-5560038D01*
X6239962Y-5561452D01*
X6239962Y-5558624D01*
X6238141Y-5545802D01*
X6214497Y-5535332D01*
X6188646Y-5534706D01*
X6164524Y-5544022D01*
X6161859Y-5545802D01*
X6160038Y-5558624D01*
X6200000Y-5598586D01*
X6239962Y-5558624D01*
X6239962Y-5561452D01*
X6201414Y-5600000D01*
X6241376Y-5639962D01*
X6254198Y-5638141D01*
X6264668Y-5614497D01*
X6265294Y-5588646D01*
X6265294Y-5879528D01*
X5559112Y-5879528D01*
X5706820Y-5731820D01*
X5716575Y-5717221D01*
X5720000Y-5700000D01*
X5720000Y-5618640D01*
X5734890Y-5603749D01*
X5734706Y-5611354D01*
X5744022Y-5635476D01*
X5745802Y-5638141D01*
X5758624Y-5639962D01*
X5798586Y-5600000D01*
X5798029Y-5599443D01*
X5799443Y-5598029D01*
X5800000Y-5598586D01*
X5800557Y-5598029D01*
X5801971Y-5599443D01*
X5801414Y-5600000D01*
X5841376Y-5639962D01*
X5854198Y-5638141D01*
X5856092Y-5633865D01*
X5868804Y-5646600D01*
X5876989Y-5649998D01*
X5868886Y-5653346D01*
X5855000Y-5667208D01*
X5855000Y-5665027D01*
X5851194Y-5655839D01*
X5844161Y-5648806D01*
X5839199Y-5646750D01*
X5839962Y-5641376D01*
X5800000Y-5601414D01*
X5760038Y-5641376D01*
X5760801Y-5646750D01*
X5755839Y-5648806D01*
X5748806Y-5655839D01*
X5745000Y-5665027D01*
X5745000Y-5674973D01*
X5745000Y-5734973D01*
X5748806Y-5744161D01*
X5755839Y-5751194D01*
X5765027Y-5755000D01*
X5774973Y-5755000D01*
X5834973Y-5755000D01*
X5844161Y-5751194D01*
X5851194Y-5744161D01*
X5855000Y-5734973D01*
X5855000Y-5732771D01*
X5868804Y-5746600D01*
X5889012Y-5754990D01*
X5910892Y-5755010D01*
X5931114Y-5746654D01*
X5946600Y-5731196D01*
X5949998Y-5723011D01*
X5953346Y-5731114D01*
X5968804Y-5746600D01*
X5989012Y-5754990D01*
X6010892Y-5755010D01*
X6031114Y-5746654D01*
X6046600Y-5731196D01*
X6049998Y-5723011D01*
X6053346Y-5731114D01*
X6068804Y-5746600D01*
X6089012Y-5754990D01*
X6110892Y-5755010D01*
X6131114Y-5746654D01*
X6146600Y-5731196D01*
X6149998Y-5723011D01*
X6153346Y-5731114D01*
X6168804Y-5746600D01*
X6189012Y-5754990D01*
X6210892Y-5755010D01*
X6231114Y-5746654D01*
X6246600Y-5731196D01*
X6254990Y-5710988D01*
X6255010Y-5689108D01*
X6246654Y-5668886D01*
X6234244Y-5656454D01*
X6235476Y-5655978D01*
X6238141Y-5654198D01*
X6239962Y-5641376D01*
X6200000Y-5601414D01*
X6160038Y-5641376D01*
X6161859Y-5654198D01*
X6166135Y-5656092D01*
X6153400Y-5668804D01*
X6150002Y-5676989D01*
X6146654Y-5668886D01*
X6131196Y-5653400D01*
X6123011Y-5650002D01*
X6131114Y-5646654D01*
X6143546Y-5634244D01*
X6144022Y-5635476D01*
X6145802Y-5638141D01*
X6158624Y-5639962D01*
X6198586Y-5600000D01*
X6158624Y-5560038D01*
X6145802Y-5561859D01*
X6143908Y-5566135D01*
X6131196Y-5553400D01*
X6110988Y-5545010D01*
X6089108Y-5544990D01*
X6068886Y-5553346D01*
X6053400Y-5568804D01*
X6050002Y-5576989D01*
X6046654Y-5568886D01*
X6031196Y-5553400D01*
X6010988Y-5545010D01*
X5989108Y-5544990D01*
X5986911Y-5545898D01*
X5968774Y-5527761D01*
X5975000Y-5529000D01*
X6425000Y-5529000D01*
X6436098Y-5526793D01*
X6444823Y-5520962D01*
X6449953Y-5533377D01*
X6466536Y-5549989D01*
X6488213Y-5558990D01*
X6511684Y-5559010D01*
X6516152Y-5557164D01*
X6529494Y-5570506D01*
X6538902Y-5576793D01*
X6550000Y-5579000D01*
X6565949Y-5579000D01*
X6562810Y-5586098D01*
X6562224Y-5610955D01*
X6571195Y-5634145D01*
X6572864Y-5636643D01*
X6585427Y-5638159D01*
X6623586Y-5600000D01*
X6623029Y-5599443D01*
X6624443Y-5598029D01*
X6625000Y-5598586D01*
X6625557Y-5598029D01*
X6626971Y-5599443D01*
X6626414Y-5600000D01*
X6664573Y-5638159D01*
X6677136Y-5636643D01*
X6687190Y-5613902D01*
X6687776Y-5589045D01*
X6683890Y-5579000D01*
X6712988Y-5579000D01*
X6754494Y-5620506D01*
X6763902Y-5626793D01*
X6775000Y-5629000D01*
X6793898Y-5629000D01*
X6800894Y-5636009D01*
X6816509Y-5642493D01*
X6833417Y-5642507D01*
X6849043Y-5636051D01*
X6861009Y-5624106D01*
X6867493Y-5608491D01*
X6867507Y-5591583D01*
X6862308Y-5579000D01*
X6876874Y-5579000D01*
X6872509Y-5589511D01*
X6872491Y-5610397D01*
X6880467Y-5629700D01*
X6895222Y-5644481D01*
X6914511Y-5652491D01*
X6935397Y-5652509D01*
X6954700Y-5644533D01*
X6969481Y-5629778D01*
X6977491Y-5610489D01*
X6977509Y-5589603D01*
X6973128Y-5579000D01*
X7000000Y-5579000D01*
X7011098Y-5576793D01*
X7020506Y-5570506D01*
X7062012Y-5529000D01*
X7073144Y-5529000D01*
X7074953Y-5533377D01*
X7091536Y-5549989D01*
X7091572Y-5550004D01*
X7075011Y-5566536D01*
X7066010Y-5588213D01*
X7065990Y-5611684D01*
X7074953Y-5633377D01*
X7091536Y-5649989D01*
X7091572Y-5650004D01*
X7075011Y-5666536D01*
X7066010Y-5688213D01*
X7065990Y-5711684D01*
X7074953Y-5733377D01*
X7075932Y-5734358D01*
X7071174Y-5736328D01*
X7061328Y-5746174D01*
X7056000Y-5759038D01*
X7056000Y-5790250D01*
X7064750Y-5799000D01*
X7124000Y-5799000D01*
X7124000Y-5798213D01*
X7126000Y-5798213D01*
X7126000Y-5799000D01*
X7185250Y-5799000D01*
X7194000Y-5790250D01*
X7194000Y-5759038D01*
X7189637Y-5748506D01*
X7189637Y-5216052D01*
X7150000Y-5176414D01*
X7148586Y-5177828D01*
X7148586Y-5175000D01*
X7108948Y-5135363D01*
X7096173Y-5137129D01*
X7085778Y-5160610D01*
X7085160Y-5186282D01*
X7094413Y-5210237D01*
X7096173Y-5212871D01*
X7108948Y-5214637D01*
X7148586Y-5175000D01*
X7148586Y-5177828D01*
X7110363Y-5216052D01*
X7112129Y-5228827D01*
X7135610Y-5239222D01*
X7161282Y-5239840D01*
X7185237Y-5230587D01*
X7187871Y-5228827D01*
X7189637Y-5216052D01*
X7189637Y-5748506D01*
X7188672Y-5746174D01*
X7178826Y-5736328D01*
X7174086Y-5734365D01*
X7174989Y-5733464D01*
X7183990Y-5711787D01*
X7184010Y-5688316D01*
X7175047Y-5666623D01*
X7158464Y-5650011D01*
X7158428Y-5649996D01*
X7174989Y-5633464D01*
X7183990Y-5611787D01*
X7184010Y-5588316D01*
X7175047Y-5566623D01*
X7158464Y-5550011D01*
X7158428Y-5549996D01*
X7174989Y-5533464D01*
X7183990Y-5511787D01*
X7184010Y-5488316D01*
X7175047Y-5466623D01*
X7158464Y-5450011D01*
X7158428Y-5449996D01*
X7174989Y-5433464D01*
X7183990Y-5411787D01*
X7184010Y-5388316D01*
X7175047Y-5366623D01*
X7158464Y-5350011D01*
X7158428Y-5349996D01*
X7174989Y-5333464D01*
X7183990Y-5311787D01*
X7184010Y-5288316D01*
X7175047Y-5266623D01*
X7158464Y-5250011D01*
X7136787Y-5241010D01*
X7113316Y-5240990D01*
X7091623Y-5249953D01*
X7075011Y-5266536D01*
X7066010Y-5288213D01*
X7065990Y-5311684D01*
X7074953Y-5333377D01*
X7091536Y-5349989D01*
X7091572Y-5350004D01*
X7075011Y-5366536D01*
X7073158Y-5371000D01*
X7025000Y-5371000D01*
X7013902Y-5373207D01*
X7004494Y-5379494D01*
X6977494Y-5406493D01*
X6977509Y-5389603D01*
X6969810Y-5370971D01*
X6970506Y-5370506D01*
X7070506Y-5270506D01*
X7076793Y-5261098D01*
X7079000Y-5250000D01*
X7079000Y-5094823D01*
X7079700Y-5094533D01*
X7094481Y-5079778D01*
X7102491Y-5060489D01*
X7102509Y-5039603D01*
X7098128Y-5029000D01*
X7100000Y-5029000D01*
X7111098Y-5026793D01*
X7120506Y-5020506D01*
X7297506Y-4843507D01*
X7297491Y-4860397D01*
X7305467Y-4879700D01*
X7320222Y-4894481D01*
X7333521Y-4900004D01*
X7320300Y-4905467D01*
X7305519Y-4920222D01*
X7297509Y-4939511D01*
X7297491Y-4960397D01*
X7305467Y-4979700D01*
X7320222Y-4994481D01*
X7333521Y-5000004D01*
X7320300Y-5005467D01*
X7305519Y-5020222D01*
X7297509Y-5039511D01*
X7297491Y-5060397D01*
X7305467Y-5079700D01*
X7320222Y-5094481D01*
X7339511Y-5102491D01*
X7360397Y-5102509D01*
X7379700Y-5094533D01*
X7394481Y-5079778D01*
X7402491Y-5060489D01*
X7402509Y-5039603D01*
X7394533Y-5020300D01*
X7379778Y-5005519D01*
X7366478Y-4999996D01*
X7379700Y-4994533D01*
X7394481Y-4979778D01*
X7394804Y-4979000D01*
X7549167Y-4979000D01*
X7545010Y-4989012D01*
X7544990Y-5010892D01*
X7553346Y-5031114D01*
X7568804Y-5046600D01*
X7576989Y-5049998D01*
X7568886Y-5053346D01*
X7553400Y-5068804D01*
X7545010Y-5089012D01*
X7544990Y-5110892D01*
X7553346Y-5131114D01*
X7568804Y-5146600D01*
X7589012Y-5154990D01*
X7610892Y-5155010D01*
X7631114Y-5146654D01*
X7646600Y-5131196D01*
X7649998Y-5123011D01*
X7653346Y-5131114D01*
X7668804Y-5146600D01*
X7689012Y-5154990D01*
X7710892Y-5155010D01*
X7731114Y-5146654D01*
X7746600Y-5131196D01*
X7754990Y-5110988D01*
X7755010Y-5089108D01*
X7746654Y-5068886D01*
X7731196Y-5053400D01*
X7723011Y-5050002D01*
X7731114Y-5046654D01*
X7746600Y-5031196D01*
X7754990Y-5010988D01*
X7755010Y-4989108D01*
X7746654Y-4968886D01*
X7731196Y-4953400D01*
X7723011Y-4950002D01*
X7731114Y-4946654D01*
X7746600Y-4931196D01*
X7754990Y-4910988D01*
X7755010Y-4889108D01*
X7746654Y-4868886D01*
X7734244Y-4856454D01*
X7735476Y-4855978D01*
X7738141Y-4854198D01*
X7739962Y-4841376D01*
X7700000Y-4801414D01*
X7698586Y-4802828D01*
X7698586Y-4800000D01*
X7658624Y-4760038D01*
X7650000Y-4761263D01*
X7641376Y-4760038D01*
X7601414Y-4800000D01*
X7641376Y-4839962D01*
X7650000Y-4838737D01*
X7658624Y-4839962D01*
X7698586Y-4800000D01*
X7698586Y-4802828D01*
X7660038Y-4841376D01*
X7661859Y-4854198D01*
X7666135Y-4856092D01*
X7653400Y-4868804D01*
X7650002Y-4876989D01*
X7646654Y-4868886D01*
X7634244Y-4856454D01*
X7635476Y-4855978D01*
X7638141Y-4854198D01*
X7639962Y-4841376D01*
X7600000Y-4801414D01*
X7598586Y-4802828D01*
X7598586Y-4800000D01*
X7558624Y-4760038D01*
X7545802Y-4761859D01*
X7535332Y-4785503D01*
X7534706Y-4811354D01*
X7544022Y-4835476D01*
X7545802Y-4838141D01*
X7558624Y-4839962D01*
X7598586Y-4800000D01*
X7598586Y-4802828D01*
X7560038Y-4841376D01*
X7561859Y-4854198D01*
X7566135Y-4856092D01*
X7553400Y-4868804D01*
X7552489Y-4871000D01*
X7412012Y-4871000D01*
X7402200Y-4861188D01*
X7402491Y-4860489D01*
X7402509Y-4839603D01*
X7394533Y-4820300D01*
X7379778Y-4805519D01*
X7366478Y-4799996D01*
X7379700Y-4794533D01*
X7394481Y-4779778D01*
X7402491Y-4760489D01*
X7402509Y-4739603D01*
X7394533Y-4720300D01*
X7379778Y-4705519D01*
X7360489Y-4697509D01*
X7339603Y-4697491D01*
X7320300Y-4705467D01*
X7305519Y-4720222D01*
X7297509Y-4739511D01*
X7297491Y-4760397D01*
X7297812Y-4761175D01*
X7166187Y-4892801D01*
X7166575Y-4892221D01*
X7170000Y-4875000D01*
X7170000Y-4645000D01*
X7242208Y-4645000D01*
X7243804Y-4646600D01*
X7264012Y-4654990D01*
X7285892Y-4655010D01*
X7306114Y-4646654D01*
X7321600Y-4631196D01*
X7324998Y-4623011D01*
X7328346Y-4631114D01*
X7343804Y-4646600D01*
X7364012Y-4654990D01*
X7366353Y-4654992D01*
X7443180Y-4731820D01*
X7457779Y-4741575D01*
X7475000Y-4745000D01*
X7549645Y-4745000D01*
X7555839Y-4751194D01*
X7560801Y-4753250D01*
X7560038Y-4758624D01*
X7600000Y-4798586D01*
X7639962Y-4758624D01*
X7639199Y-4753250D01*
X7644161Y-4751194D01*
X7650355Y-4745000D01*
X7663059Y-4745000D01*
X7661859Y-4745802D01*
X7660038Y-4758624D01*
X7700000Y-4798586D01*
X7739962Y-4758624D01*
X7738141Y-4745802D01*
X7733865Y-4743908D01*
X7746600Y-4731196D01*
X7754990Y-4710988D01*
X7755010Y-4689108D01*
X7746654Y-4668886D01*
X7731196Y-4653400D01*
X7710988Y-4645010D01*
X7689108Y-4644990D01*
X7668886Y-4653346D01*
X7667229Y-4655000D01*
X7650355Y-4655000D01*
X7644161Y-4648806D01*
X7634973Y-4645000D01*
X7625027Y-4645000D01*
X7565027Y-4645000D01*
X7555839Y-4648806D01*
X7549645Y-4655000D01*
X7493640Y-4655000D01*
X7430008Y-4591368D01*
X7430010Y-4589108D01*
X7429559Y-4588019D01*
X7429559Y-4364197D01*
X7427350Y-4358850D01*
X7427350Y-4071312D01*
X7427350Y-4057388D01*
X7427350Y-4034750D01*
X7418600Y-4026000D01*
X7354000Y-4026000D01*
X7354000Y-4090600D01*
X7362750Y-4099350D01*
X7399312Y-4099350D01*
X7412176Y-4094022D01*
X7422022Y-4084176D01*
X7427350Y-4071312D01*
X7427350Y-4358850D01*
X7421272Y-4344140D01*
X7405940Y-4328782D01*
X7385898Y-4320459D01*
X7364197Y-4320441D01*
X7352000Y-4325480D01*
X7352000Y-4090600D01*
X7352000Y-4026000D01*
X7287400Y-4026000D01*
X7278650Y-4034750D01*
X7278650Y-4057388D01*
X7278650Y-4071312D01*
X7283978Y-4084176D01*
X7293824Y-4094022D01*
X7306688Y-4099350D01*
X7343250Y-4099350D01*
X7352000Y-4090600D01*
X7352000Y-4325480D01*
X7344140Y-4328728D01*
X7331282Y-4341563D01*
X7330587Y-4339763D01*
X7329559Y-4338225D01*
X7329559Y-4239197D01*
X7321272Y-4219140D01*
X7305940Y-4203782D01*
X7285898Y-4195459D01*
X7264197Y-4195441D01*
X7244140Y-4203728D01*
X7228782Y-4219060D01*
X7225001Y-4228165D01*
X7221272Y-4219140D01*
X7205940Y-4203782D01*
X7185898Y-4195459D01*
X7164197Y-4195441D01*
X7144140Y-4203728D01*
X7128782Y-4219060D01*
X7120459Y-4239102D01*
X7120441Y-4260803D01*
X7128728Y-4280860D01*
X7144060Y-4296218D01*
X7164102Y-4304541D01*
X7185803Y-4304559D01*
X7205860Y-4296272D01*
X7221218Y-4280940D01*
X7224999Y-4271835D01*
X7228728Y-4280860D01*
X7244060Y-4296218D01*
X7264102Y-4304541D01*
X7285803Y-4304559D01*
X7305860Y-4296272D01*
X7321218Y-4280940D01*
X7329541Y-4260898D01*
X7329559Y-4239197D01*
X7329559Y-4338225D01*
X7328827Y-4337129D01*
X7316052Y-4335363D01*
X7314637Y-4336777D01*
X7314637Y-4333948D01*
X7312871Y-4321173D01*
X7289390Y-4310778D01*
X7263718Y-4310160D01*
X7239763Y-4319413D01*
X7237129Y-4321173D01*
X7235363Y-4333948D01*
X7275000Y-4373586D01*
X7314637Y-4333948D01*
X7314637Y-4336777D01*
X7276414Y-4375000D01*
X7316052Y-4414637D01*
X7328827Y-4412871D01*
X7330947Y-4408083D01*
X7344060Y-4421218D01*
X7364102Y-4429541D01*
X7385803Y-4429559D01*
X7405860Y-4421272D01*
X7421218Y-4405940D01*
X7429541Y-4385898D01*
X7429559Y-4364197D01*
X7429559Y-4588019D01*
X7421654Y-4568886D01*
X7406196Y-4553400D01*
X7387035Y-4545444D01*
X7389668Y-4539497D01*
X7390294Y-4513646D01*
X7380978Y-4489524D01*
X7379198Y-4486859D01*
X7366376Y-4485038D01*
X7364962Y-4486452D01*
X7364962Y-4483624D01*
X7363141Y-4470802D01*
X7339497Y-4460332D01*
X7314637Y-4459730D01*
X7314637Y-4416052D01*
X7275000Y-4376414D01*
X7273586Y-4377828D01*
X7273586Y-4375000D01*
X7233948Y-4335363D01*
X7221173Y-4337129D01*
X7210778Y-4360610D01*
X7210160Y-4386282D01*
X7219413Y-4410237D01*
X7221173Y-4412871D01*
X7233948Y-4414637D01*
X7273586Y-4375000D01*
X7273586Y-4377828D01*
X7235363Y-4416052D01*
X7237129Y-4428827D01*
X7260610Y-4439222D01*
X7286282Y-4439840D01*
X7310237Y-4430587D01*
X7312871Y-4428827D01*
X7314637Y-4416052D01*
X7314637Y-4459730D01*
X7313646Y-4459706D01*
X7289524Y-4469022D01*
X7286859Y-4470802D01*
X7285038Y-4483624D01*
X7325000Y-4523586D01*
X7364962Y-4483624D01*
X7364962Y-4486452D01*
X7326414Y-4525000D01*
X7326971Y-4525557D01*
X7325557Y-4526971D01*
X7325000Y-4526414D01*
X7324443Y-4526971D01*
X7323029Y-4525557D01*
X7323586Y-4525000D01*
X7283624Y-4485038D01*
X7270802Y-4486859D01*
X7260332Y-4510503D01*
X7259706Y-4536354D01*
X7263188Y-4545370D01*
X7243886Y-4553346D01*
X7242229Y-4555000D01*
X7179559Y-4555000D01*
X7179559Y-4364197D01*
X7171272Y-4344140D01*
X7155940Y-4328782D01*
X7135898Y-4320459D01*
X7114197Y-4320441D01*
X7094140Y-4328728D01*
X7081282Y-4341563D01*
X7080587Y-4339763D01*
X7078827Y-4337129D01*
X7066052Y-4335363D01*
X7064637Y-4336777D01*
X7064637Y-4333948D01*
X7062871Y-4321173D01*
X7039390Y-4310778D01*
X7013718Y-4310160D01*
X6989763Y-4319413D01*
X6987129Y-4321173D01*
X6985363Y-4333948D01*
X7025000Y-4373586D01*
X7064637Y-4333948D01*
X7064637Y-4336777D01*
X7026414Y-4375000D01*
X7066052Y-4414637D01*
X7078827Y-4412871D01*
X7080947Y-4408083D01*
X7094060Y-4421218D01*
X7114102Y-4429541D01*
X7135803Y-4429559D01*
X7155860Y-4421272D01*
X7171218Y-4405940D01*
X7179541Y-4385898D01*
X7179559Y-4364197D01*
X7179559Y-4555000D01*
X7157792Y-4555000D01*
X7156196Y-4553400D01*
X7137035Y-4545444D01*
X7139668Y-4539497D01*
X7140294Y-4513646D01*
X7130978Y-4489524D01*
X7129198Y-4486859D01*
X7116376Y-4485038D01*
X7114962Y-4486452D01*
X7114962Y-4483624D01*
X7113141Y-4470802D01*
X7089497Y-4460332D01*
X7064637Y-4459730D01*
X7064637Y-4416052D01*
X7025000Y-4376414D01*
X7023586Y-4377828D01*
X7023586Y-4375000D01*
X6983948Y-4335363D01*
X6971173Y-4337129D01*
X6960778Y-4360610D01*
X6960160Y-4386282D01*
X6969413Y-4410237D01*
X6971173Y-4412871D01*
X6983948Y-4414637D01*
X7023586Y-4375000D01*
X7023586Y-4377828D01*
X6985363Y-4416052D01*
X6987129Y-4428827D01*
X7010610Y-4439222D01*
X7036282Y-4439840D01*
X7060237Y-4430587D01*
X7062871Y-4428827D01*
X7064637Y-4416052D01*
X7064637Y-4459730D01*
X7063646Y-4459706D01*
X7039524Y-4469022D01*
X7036859Y-4470802D01*
X7035038Y-4483624D01*
X7075000Y-4523586D01*
X7114962Y-4483624D01*
X7114962Y-4486452D01*
X7076414Y-4525000D01*
X7076971Y-4525557D01*
X7075557Y-4526971D01*
X7075000Y-4526414D01*
X7074443Y-4526971D01*
X7073029Y-4525557D01*
X7073586Y-4525000D01*
X7033624Y-4485038D01*
X7020802Y-4486859D01*
X7010332Y-4510503D01*
X7009706Y-4536354D01*
X7013188Y-4545370D01*
X6993886Y-4553346D01*
X6992229Y-4555000D01*
X6932157Y-4555000D01*
X6930940Y-4553782D01*
X6910898Y-4545459D01*
X6889197Y-4545441D01*
X6869140Y-4553728D01*
X6864361Y-4558499D01*
X6864361Y-4437256D01*
X6854585Y-4413596D01*
X6836499Y-4395479D01*
X6812856Y-4385661D01*
X6787256Y-4385639D01*
X6763596Y-4395415D01*
X6753994Y-4405000D01*
X6689069Y-4405000D01*
X6685544Y-4396489D01*
X6678511Y-4389456D01*
X6669323Y-4385650D01*
X6659377Y-4385650D01*
X6580677Y-4385650D01*
X6571489Y-4389456D01*
X6564456Y-4396489D01*
X6560650Y-4405677D01*
X6560650Y-4415623D01*
X6560650Y-4494323D01*
X6564456Y-4503511D01*
X6571489Y-4510544D01*
X6580677Y-4514350D01*
X6590623Y-4514350D01*
X6669323Y-4514350D01*
X6678511Y-4510544D01*
X6685544Y-4503511D01*
X6689069Y-4495000D01*
X6753996Y-4495000D01*
X6763501Y-4504521D01*
X6787144Y-4514339D01*
X6812744Y-4514361D01*
X6836404Y-4504585D01*
X6854521Y-4486499D01*
X6864339Y-4462856D01*
X6864361Y-4437256D01*
X6864361Y-4558499D01*
X6856282Y-4566563D01*
X6855587Y-4564763D01*
X6853827Y-4562129D01*
X6841052Y-4560363D01*
X6839637Y-4561777D01*
X6839637Y-4558948D01*
X6837871Y-4546173D01*
X6814390Y-4535778D01*
X6788718Y-4535160D01*
X6764763Y-4544413D01*
X6762129Y-4546173D01*
X6760363Y-4558948D01*
X6800000Y-4598586D01*
X6839637Y-4558948D01*
X6839637Y-4561777D01*
X6801414Y-4600000D01*
X6841052Y-4639637D01*
X6853827Y-4637871D01*
X6855947Y-4633083D01*
X6869060Y-4646218D01*
X6889102Y-4654541D01*
X6910803Y-4654559D01*
X6930860Y-4646272D01*
X6932134Y-4645000D01*
X6992208Y-4645000D01*
X6993804Y-4646600D01*
X7014012Y-4654990D01*
X7035892Y-4655010D01*
X7056114Y-4646654D01*
X7071600Y-4631196D01*
X7074998Y-4623011D01*
X7078346Y-4631114D01*
X7080000Y-4632771D01*
X7080000Y-4697500D01*
X7072527Y-4697500D01*
X7017527Y-4697500D01*
X7008339Y-4701306D01*
X7001306Y-4708339D01*
X6998985Y-4713941D01*
X6983491Y-4707507D01*
X6966583Y-4707493D01*
X6950957Y-4713949D01*
X6943894Y-4721000D01*
X6839637Y-4721000D01*
X6839637Y-4641052D01*
X6800000Y-4601414D01*
X6798586Y-4602828D01*
X6798586Y-4600000D01*
X6758948Y-4560363D01*
X6746173Y-4562129D01*
X6735778Y-4585610D01*
X6735160Y-4611282D01*
X6744413Y-4635237D01*
X6746173Y-4637871D01*
X6758948Y-4639637D01*
X6798586Y-4600000D01*
X6798586Y-4602828D01*
X6760363Y-4641052D01*
X6762129Y-4653827D01*
X6785610Y-4664222D01*
X6811282Y-4664840D01*
X6835237Y-4655587D01*
X6837871Y-4653827D01*
X6839637Y-4641052D01*
X6839637Y-4721000D01*
X6712012Y-4721000D01*
X6445506Y-4454494D01*
X6436098Y-4448207D01*
X6425000Y-4446000D01*
X6294978Y-4446000D01*
X6271824Y-4446000D01*
X6269506Y-4443683D01*
X6282893Y-4441201D01*
X6294268Y-4415594D01*
X6294978Y-4387583D01*
X6284915Y-4361432D01*
X6282893Y-4358406D01*
X6269506Y-4355924D01*
X6268092Y-4357338D01*
X6268092Y-4354509D01*
X6265610Y-4341123D01*
X6240003Y-4329748D01*
X6211992Y-4329038D01*
X6185841Y-4339101D01*
X6182815Y-4341123D01*
X6180333Y-4354509D01*
X6224213Y-4398389D01*
X6268092Y-4354509D01*
X6268092Y-4357338D01*
X6225627Y-4399803D01*
X6226184Y-4400360D01*
X6224769Y-4401774D01*
X6224213Y-4401217D01*
X6223656Y-4401774D01*
X6222242Y-4400360D01*
X6222798Y-4399803D01*
X6178919Y-4355924D01*
X6165533Y-4358406D01*
X6154157Y-4384013D01*
X6154055Y-4388043D01*
X6145506Y-4379494D01*
X6144796Y-4379020D01*
X6152491Y-4360489D01*
X6152509Y-4339603D01*
X6152188Y-4338825D01*
X6187012Y-4304000D01*
X6442356Y-4304000D01*
X6445415Y-4311404D01*
X6463501Y-4329521D01*
X6487144Y-4339339D01*
X6512744Y-4339361D01*
X6536404Y-4329585D01*
X6554521Y-4311499D01*
X6564339Y-4287856D01*
X6564361Y-4262256D01*
X6554585Y-4238596D01*
X6536499Y-4220479D01*
X6512856Y-4210661D01*
X6505358Y-4210655D01*
X6604745Y-4111267D01*
X6612144Y-4114339D01*
X6637744Y-4114361D01*
X6661404Y-4104585D01*
X6679521Y-4086499D01*
X6682635Y-4079000D01*
X6742356Y-4079000D01*
X6745415Y-4086404D01*
X6763501Y-4104521D01*
X6787144Y-4114339D01*
X6812744Y-4114361D01*
X6820248Y-4111260D01*
X6879494Y-4170506D01*
X6888902Y-4176793D01*
X6900000Y-4179000D01*
X6902959Y-4179000D01*
X6903728Y-4180860D01*
X6919060Y-4196218D01*
X6928165Y-4199999D01*
X6919140Y-4203728D01*
X6903782Y-4219060D01*
X6895459Y-4239102D01*
X6895441Y-4260803D01*
X6903728Y-4280860D01*
X6919060Y-4296218D01*
X6939102Y-4304541D01*
X6960803Y-4304559D01*
X6980860Y-4296272D01*
X6996218Y-4280940D01*
X7004541Y-4260898D01*
X7004559Y-4239197D01*
X6996272Y-4219140D01*
X6980940Y-4203782D01*
X6971835Y-4200001D01*
X6980860Y-4196272D01*
X6996218Y-4180940D01*
X7004541Y-4160898D01*
X7004543Y-4158470D01*
X7076745Y-4086267D01*
X7084144Y-4089339D01*
X7109744Y-4089361D01*
X7133404Y-4079585D01*
X7151521Y-4061499D01*
X7161339Y-4037856D01*
X7161361Y-4012256D01*
X7151585Y-3988596D01*
X7133499Y-3970479D01*
X7115470Y-3962992D01*
X7286810Y-3962992D01*
X7283978Y-3965824D01*
X7278650Y-3978688D01*
X7278650Y-3992612D01*
X7278650Y-4015250D01*
X7287400Y-4024000D01*
X7352000Y-4024000D01*
X7352000Y-4023213D01*
X7354000Y-4023213D01*
X7354000Y-4024000D01*
X7418600Y-4024000D01*
X7427350Y-4015250D01*
X7427350Y-3992612D01*
X7427350Y-3978688D01*
X7422022Y-3965824D01*
X7419190Y-3962992D01*
X7848031Y-3962992D01*
X7848031Y-5879528D01*
X7848031Y-5879528D01*
G37*
X7848031Y-5879528D02*
X7820300Y-5879528D01*
X7820300Y-5680320D01*
X7820300Y-4105517D01*
X7798559Y-4052899D01*
X7758337Y-4012606D01*
X7705757Y-3990773D01*
X7648824Y-3990723D01*
X7596206Y-4012465D01*
X7555913Y-4052687D01*
X7534080Y-4105267D01*
X7534030Y-4162200D01*
X7555772Y-4214818D01*
X7595994Y-4255110D01*
X7648574Y-4276944D01*
X7705507Y-4276993D01*
X7758125Y-4255252D01*
X7798418Y-4215030D01*
X7820251Y-4162450D01*
X7820300Y-4105517D01*
X7820300Y-5680320D01*
X7809010Y-5652996D01*
X7809010Y-5363316D01*
X7800047Y-5341623D01*
X7783464Y-5325011D01*
X7765294Y-5317466D01*
X7765294Y-4788646D01*
X7755978Y-4764524D01*
X7754198Y-4761859D01*
X7741376Y-4760038D01*
X7701414Y-4800000D01*
X7741376Y-4839962D01*
X7754198Y-4838141D01*
X7764668Y-4814497D01*
X7765294Y-4788646D01*
X7765294Y-5317466D01*
X7761787Y-5316010D01*
X7738316Y-5315990D01*
X7716623Y-5324953D01*
X7700011Y-5341536D01*
X7699996Y-5341572D01*
X7683464Y-5325011D01*
X7661787Y-5316010D01*
X7638316Y-5315990D01*
X7616623Y-5324953D01*
X7607985Y-5333576D01*
X7605194Y-5326839D01*
X7598161Y-5319806D01*
X7588973Y-5316000D01*
X7579027Y-5316000D01*
X7511027Y-5316000D01*
X7501839Y-5319806D01*
X7494806Y-5326839D01*
X7491000Y-5336027D01*
X7491000Y-5345973D01*
X7491000Y-5413973D01*
X7494806Y-5423161D01*
X7501839Y-5430194D01*
X7511027Y-5434000D01*
X7520973Y-5434000D01*
X7588973Y-5434000D01*
X7598161Y-5430194D01*
X7605194Y-5423161D01*
X7607985Y-5416423D01*
X7616536Y-5424989D01*
X7638213Y-5433990D01*
X7661684Y-5434010D01*
X7683377Y-5425047D01*
X7699989Y-5408464D01*
X7700004Y-5408428D01*
X7716536Y-5424989D01*
X7738213Y-5433990D01*
X7761684Y-5434010D01*
X7783377Y-5425047D01*
X7799989Y-5408464D01*
X7808990Y-5386787D01*
X7809010Y-5363316D01*
X7809010Y-5652996D01*
X7798559Y-5627702D01*
X7758337Y-5587409D01*
X7705757Y-5565576D01*
X7648824Y-5565526D01*
X7596206Y-5587268D01*
X7555913Y-5627490D01*
X7534080Y-5680070D01*
X7534030Y-5737003D01*
X7555772Y-5789621D01*
X7595994Y-5829914D01*
X7648574Y-5851747D01*
X7705507Y-5851796D01*
X7758125Y-5830055D01*
X7798418Y-5789833D01*
X7820251Y-5737253D01*
X7820300Y-5680320D01*
X7820300Y-5879528D01*
X7439361Y-5879528D01*
X7439361Y-5587256D01*
X7439361Y-5187256D01*
X7429585Y-5163596D01*
X7411499Y-5145479D01*
X7387856Y-5135661D01*
X7362256Y-5135639D01*
X7338596Y-5145415D01*
X7320479Y-5163501D01*
X7310661Y-5187144D01*
X7310639Y-5212744D01*
X7320415Y-5236404D01*
X7338501Y-5254521D01*
X7362144Y-5264339D01*
X7387744Y-5264361D01*
X7411404Y-5254585D01*
X7429521Y-5236499D01*
X7439339Y-5212856D01*
X7439361Y-5187256D01*
X7439361Y-5587256D01*
X7429585Y-5563596D01*
X7411499Y-5545479D01*
X7387856Y-5535661D01*
X7362256Y-5535639D01*
X7338596Y-5545415D01*
X7320479Y-5563501D01*
X7310661Y-5587144D01*
X7310639Y-5612744D01*
X7320415Y-5636404D01*
X7338501Y-5654521D01*
X7362144Y-5664339D01*
X7387744Y-5664361D01*
X7411404Y-5654585D01*
X7429521Y-5636499D01*
X7439339Y-5612856D01*
X7439361Y-5587256D01*
X7439361Y-5879528D01*
X7304559Y-5879528D01*
X7304559Y-5164197D01*
X7296272Y-5144140D01*
X7280940Y-5128782D01*
X7260898Y-5120459D01*
X7239197Y-5120441D01*
X7219140Y-5128728D01*
X7206282Y-5141563D01*
X7205587Y-5139763D01*
X7203827Y-5137129D01*
X7191052Y-5135363D01*
X7189637Y-5136777D01*
X7189637Y-5133948D01*
X7187871Y-5121173D01*
X7164390Y-5110778D01*
X7138718Y-5110160D01*
X7114763Y-5119413D01*
X7112129Y-5121173D01*
X7110363Y-5133948D01*
X7150000Y-5173586D01*
X7189637Y-5133948D01*
X7189637Y-5136777D01*
X7151414Y-5175000D01*
X7191052Y-5214637D01*
X7203827Y-5212871D01*
X7205947Y-5208083D01*
X7219060Y-5221218D01*
X7239102Y-5229541D01*
X7260803Y-5229559D01*
X7280860Y-5221272D01*
X7296218Y-5205940D01*
X7304541Y-5185898D01*
X7304559Y-5164197D01*
X7304559Y-5879528D01*
X7194000Y-5879528D01*
X7194000Y-5840962D01*
X7194000Y-5809750D01*
X7185250Y-5801000D01*
X7126000Y-5801000D01*
X7126000Y-5860250D01*
X7134750Y-5869000D01*
X7152038Y-5869000D01*
X7165962Y-5869000D01*
X7178826Y-5863672D01*
X7188672Y-5853826D01*
X7194000Y-5840962D01*
X7194000Y-5879528D01*
X7124000Y-5879528D01*
X7124000Y-5860250D01*
X7124000Y-5801000D01*
X7064750Y-5801000D01*
X7056000Y-5809750D01*
X7056000Y-5840962D01*
X7061328Y-5853826D01*
X7071174Y-5863672D01*
X7084038Y-5869000D01*
X7097962Y-5869000D01*
X7115250Y-5869000D01*
X7124000Y-5860250D01*
X7124000Y-5879528D01*
X6997533Y-5879528D01*
X7008377Y-5875047D01*
X7024989Y-5858464D01*
X7033990Y-5836787D01*
X7034010Y-5813316D01*
X7025047Y-5791623D01*
X7008464Y-5775011D01*
X6986787Y-5766010D01*
X6963316Y-5765990D01*
X6941623Y-5774953D01*
X6925011Y-5791536D01*
X6924996Y-5791572D01*
X6908464Y-5775011D01*
X6886787Y-5766010D01*
X6863316Y-5765990D01*
X6841623Y-5774953D01*
X6825011Y-5791536D01*
X6824996Y-5791572D01*
X6808464Y-5775011D01*
X6786787Y-5766010D01*
X6763316Y-5765990D01*
X6741623Y-5774953D01*
X6725011Y-5791536D01*
X6724996Y-5791572D01*
X6708464Y-5775011D01*
X6686787Y-5766010D01*
X6663316Y-5765990D01*
X6663159Y-5766054D01*
X6663159Y-5639573D01*
X6625000Y-5601414D01*
X6586841Y-5639573D01*
X6588357Y-5652136D01*
X6611098Y-5662190D01*
X6635955Y-5662776D01*
X6659145Y-5653805D01*
X6661643Y-5652136D01*
X6663159Y-5639573D01*
X6663159Y-5766054D01*
X6641623Y-5774953D01*
X6625011Y-5791536D01*
X6624996Y-5791572D01*
X6608464Y-5775011D01*
X6586787Y-5766010D01*
X6563316Y-5765990D01*
X6541623Y-5774953D01*
X6540642Y-5775932D01*
X6538672Y-5771174D01*
X6528826Y-5761328D01*
X6515962Y-5756000D01*
X6484750Y-5756000D01*
X6476000Y-5764750D01*
X6476000Y-5824000D01*
X6476787Y-5824000D01*
X6476787Y-5826000D01*
X6476000Y-5826000D01*
X6476000Y-5826787D01*
X6474000Y-5826787D01*
X6474000Y-5826000D01*
X6474000Y-5824000D01*
X6474000Y-5764750D01*
X6465250Y-5756000D01*
X6434038Y-5756000D01*
X6421174Y-5761328D01*
X6411328Y-5771174D01*
X6406000Y-5784038D01*
X6406000Y-5797962D01*
X6406000Y-5815250D01*
X6414750Y-5824000D01*
X6474000Y-5824000D01*
X6474000Y-5826000D01*
X6414750Y-5826000D01*
X6406000Y-5834750D01*
X6406000Y-5852038D01*
X6406000Y-5865962D01*
X6411328Y-5878826D01*
X6412030Y-5879528D01*
X6265294Y-5879528D01*
X6265294Y-5588646D01*
X6255978Y-5564524D01*
X6254198Y-5561859D01*
X6241376Y-5560038D01*
X6239962Y-5561452D01*
X6239962Y-5558624D01*
X6238141Y-5545802D01*
X6214497Y-5535332D01*
X6188646Y-5534706D01*
X6164524Y-5544022D01*
X6161859Y-5545802D01*
X6160038Y-5558624D01*
X6200000Y-5598586D01*
X6239962Y-5558624D01*
X6239962Y-5561452D01*
X6201414Y-5600000D01*
X6241376Y-5639962D01*
X6254198Y-5638141D01*
X6264668Y-5614497D01*
X6265294Y-5588646D01*
X6265294Y-5879528D01*
X5559112Y-5879528D01*
X5706820Y-5731820D01*
X5716575Y-5717221D01*
X5720000Y-5700000D01*
X5720000Y-5618640D01*
X5734890Y-5603749D01*
X5734706Y-5611354D01*
X5744022Y-5635476D01*
X5745802Y-5638141D01*
X5758624Y-5639962D01*
X5798586Y-5600000D01*
X5798029Y-5599443D01*
X5799443Y-5598029D01*
X5800000Y-5598586D01*
X5800557Y-5598029D01*
X5801971Y-5599443D01*
X5801414Y-5600000D01*
X5841376Y-5639962D01*
X5854198Y-5638141D01*
X5856092Y-5633865D01*
X5868804Y-5646600D01*
X5876989Y-5649998D01*
X5868886Y-5653346D01*
X5855000Y-5667208D01*
X5855000Y-5665027D01*
X5851194Y-5655839D01*
X5844161Y-5648806D01*
X5839199Y-5646750D01*
X5839962Y-5641376D01*
X5800000Y-5601414D01*
X5760038Y-5641376D01*
X5760801Y-5646750D01*
X5755839Y-5648806D01*
X5748806Y-5655839D01*
X5745000Y-5665027D01*
X5745000Y-5674973D01*
X5745000Y-5734973D01*
X5748806Y-5744161D01*
X5755839Y-5751194D01*
X5765027Y-5755000D01*
X5774973Y-5755000D01*
X5834973Y-5755000D01*
X5844161Y-5751194D01*
X5851194Y-5744161D01*
X5855000Y-5734973D01*
X5855000Y-5732771D01*
X5868804Y-5746600D01*
X5889012Y-5754990D01*
X5910892Y-5755010D01*
X5931114Y-5746654D01*
X5946600Y-5731196D01*
X5949998Y-5723011D01*
X5953346Y-5731114D01*
X5968804Y-5746600D01*
X5989012Y-5754990D01*
X6010892Y-5755010D01*
X6031114Y-5746654D01*
X6046600Y-5731196D01*
X6049998Y-5723011D01*
X6053346Y-5731114D01*
X6068804Y-5746600D01*
X6089012Y-5754990D01*
X6110892Y-5755010D01*
X6131114Y-5746654D01*
X6146600Y-5731196D01*
X6149998Y-5723011D01*
X6153346Y-5731114D01*
X6168804Y-5746600D01*
X6189012Y-5754990D01*
X6210892Y-5755010D01*
X6231114Y-5746654D01*
X6246600Y-5731196D01*
X6254990Y-5710988D01*
X6255010Y-5689108D01*
X6246654Y-5668886D01*
X6234244Y-5656454D01*
X6235476Y-5655978D01*
X6238141Y-5654198D01*
X6239962Y-5641376D01*
X6200000Y-5601414D01*
X6160038Y-5641376D01*
X6161859Y-5654198D01*
X6166135Y-5656092D01*
X6153400Y-5668804D01*
X6150002Y-5676989D01*
X6146654Y-5668886D01*
X6131196Y-5653400D01*
X6123011Y-5650002D01*
X6131114Y-5646654D01*
X6143546Y-5634244D01*
X6144022Y-5635476D01*
X6145802Y-5638141D01*
X6158624Y-5639962D01*
X6198586Y-5600000D01*
X6158624Y-5560038D01*
X6145802Y-5561859D01*
X6143908Y-5566135D01*
X6131196Y-5553400D01*
X6110988Y-5545010D01*
X6089108Y-5544990D01*
X6068886Y-5553346D01*
X6053400Y-5568804D01*
X6050002Y-5576989D01*
X6046654Y-5568886D01*
X6031196Y-5553400D01*
X6010988Y-5545010D01*
X5989108Y-5544990D01*
X5986911Y-5545898D01*
X5968774Y-5527761D01*
X5975000Y-5529000D01*
X6425000Y-5529000D01*
X6436098Y-5526793D01*
X6444823Y-5520962D01*
X6449953Y-5533377D01*
X6466536Y-5549989D01*
X6488213Y-5558990D01*
X6511684Y-5559010D01*
X6516152Y-5557164D01*
X6529494Y-5570506D01*
X6538902Y-5576793D01*
X6550000Y-5579000D01*
X6565949Y-5579000D01*
X6562810Y-5586098D01*
X6562224Y-5610955D01*
X6571195Y-5634145D01*
X6572864Y-5636643D01*
X6585427Y-5638159D01*
X6623586Y-5600000D01*
X6623029Y-5599443D01*
X6624443Y-5598029D01*
X6625000Y-5598586D01*
X6625557Y-5598029D01*
X6626971Y-5599443D01*
X6626414Y-5600000D01*
X6664573Y-5638159D01*
X6677136Y-5636643D01*
X6687190Y-5613902D01*
X6687776Y-5589045D01*
X6683890Y-5579000D01*
X6712988Y-5579000D01*
X6754494Y-5620506D01*
X6763902Y-5626793D01*
X6775000Y-5629000D01*
X6793898Y-5629000D01*
X6800894Y-5636009D01*
X6816509Y-5642493D01*
X6833417Y-5642507D01*
X6849043Y-5636051D01*
X6861009Y-5624106D01*
X6867493Y-5608491D01*
X6867507Y-5591583D01*
X6862308Y-5579000D01*
X6876874Y-5579000D01*
X6872509Y-5589511D01*
X6872491Y-5610397D01*
X6880467Y-5629700D01*
X6895222Y-5644481D01*
X6914511Y-5652491D01*
X6935397Y-5652509D01*
X6954700Y-5644533D01*
X6969481Y-5629778D01*
X6977491Y-5610489D01*
X6977509Y-5589603D01*
X6973128Y-5579000D01*
X7000000Y-5579000D01*
X7011098Y-5576793D01*
X7020506Y-5570506D01*
X7062012Y-5529000D01*
X7073144Y-5529000D01*
X7074953Y-5533377D01*
X7091536Y-5549989D01*
X7091572Y-5550004D01*
X7075011Y-5566536D01*
X7066010Y-5588213D01*
X7065990Y-5611684D01*
X7074953Y-5633377D01*
X7091536Y-5649989D01*
X7091572Y-5650004D01*
X7075011Y-5666536D01*
X7066010Y-5688213D01*
X7065990Y-5711684D01*
X7074953Y-5733377D01*
X7075932Y-5734358D01*
X7071174Y-5736328D01*
X7061328Y-5746174D01*
X7056000Y-5759038D01*
X7056000Y-5790250D01*
X7064750Y-5799000D01*
X7124000Y-5799000D01*
X7124000Y-5798213D01*
X7126000Y-5798213D01*
X7126000Y-5799000D01*
X7185250Y-5799000D01*
X7194000Y-5790250D01*
X7194000Y-5759038D01*
X7189637Y-5748506D01*
X7189637Y-5216052D01*
X7150000Y-5176414D01*
X7148586Y-5177828D01*
X7148586Y-5175000D01*
X7108948Y-5135363D01*
X7096173Y-5137129D01*
X7085778Y-5160610D01*
X7085160Y-5186282D01*
X7094413Y-5210237D01*
X7096173Y-5212871D01*
X7108948Y-5214637D01*
X7148586Y-5175000D01*
X7148586Y-5177828D01*
X7110363Y-5216052D01*
X7112129Y-5228827D01*
X7135610Y-5239222D01*
X7161282Y-5239840D01*
X7185237Y-5230587D01*
X7187871Y-5228827D01*
X7189637Y-5216052D01*
X7189637Y-5748506D01*
X7188672Y-5746174D01*
X7178826Y-5736328D01*
X7174086Y-5734365D01*
X7174989Y-5733464D01*
X7183990Y-5711787D01*
X7184010Y-5688316D01*
X7175047Y-5666623D01*
X7158464Y-5650011D01*
X7158428Y-5649996D01*
X7174989Y-5633464D01*
X7183990Y-5611787D01*
X7184010Y-5588316D01*
X7175047Y-5566623D01*
X7158464Y-5550011D01*
X7158428Y-5549996D01*
X7174989Y-5533464D01*
X7183990Y-5511787D01*
X7184010Y-5488316D01*
X7175047Y-5466623D01*
X7158464Y-5450011D01*
X7158428Y-5449996D01*
X7174989Y-5433464D01*
X7183990Y-5411787D01*
X7184010Y-5388316D01*
X7175047Y-5366623D01*
X7158464Y-5350011D01*
X7158428Y-5349996D01*
X7174989Y-5333464D01*
X7183990Y-5311787D01*
X7184010Y-5288316D01*
X7175047Y-5266623D01*
X7158464Y-5250011D01*
X7136787Y-5241010D01*
X7113316Y-5240990D01*
X7091623Y-5249953D01*
X7075011Y-5266536D01*
X7066010Y-5288213D01*
X7065990Y-5311684D01*
X7074953Y-5333377D01*
X7091536Y-5349989D01*
X7091572Y-5350004D01*
X7075011Y-5366536D01*
X7073158Y-5371000D01*
X7025000Y-5371000D01*
X7013902Y-5373207D01*
X7004494Y-5379494D01*
X6977494Y-5406493D01*
X6977509Y-5389603D01*
X6969810Y-5370971D01*
X6970506Y-5370506D01*
X7070506Y-5270506D01*
X7076793Y-5261098D01*
X7079000Y-5250000D01*
X7079000Y-5094823D01*
X7079700Y-5094533D01*
X7094481Y-5079778D01*
X7102491Y-5060489D01*
X7102509Y-5039603D01*
X7098128Y-5029000D01*
X7100000Y-5029000D01*
X7111098Y-5026793D01*
X7120506Y-5020506D01*
X7297506Y-4843507D01*
X7297491Y-4860397D01*
X7305467Y-4879700D01*
X7320222Y-4894481D01*
X7333521Y-4900004D01*
X7320300Y-4905467D01*
X7305519Y-4920222D01*
X7297509Y-4939511D01*
X7297491Y-4960397D01*
X7305467Y-4979700D01*
X7320222Y-4994481D01*
X7333521Y-5000004D01*
X7320300Y-5005467D01*
X7305519Y-5020222D01*
X7297509Y-5039511D01*
X7297491Y-5060397D01*
X7305467Y-5079700D01*
X7320222Y-5094481D01*
X7339511Y-5102491D01*
X7360397Y-5102509D01*
X7379700Y-5094533D01*
X7394481Y-5079778D01*
X7402491Y-5060489D01*
X7402509Y-5039603D01*
X7394533Y-5020300D01*
X7379778Y-5005519D01*
X7366478Y-4999996D01*
X7379700Y-4994533D01*
X7394481Y-4979778D01*
X7394804Y-4979000D01*
X7549167Y-4979000D01*
X7545010Y-4989012D01*
X7544990Y-5010892D01*
X7553346Y-5031114D01*
X7568804Y-5046600D01*
X7576989Y-5049998D01*
X7568886Y-5053346D01*
X7553400Y-5068804D01*
X7545010Y-5089012D01*
X7544990Y-5110892D01*
X7553346Y-5131114D01*
X7568804Y-5146600D01*
X7589012Y-5154990D01*
X7610892Y-5155010D01*
X7631114Y-5146654D01*
X7646600Y-5131196D01*
X7649998Y-5123011D01*
X7653346Y-5131114D01*
X7668804Y-5146600D01*
X7689012Y-5154990D01*
X7710892Y-5155010D01*
X7731114Y-5146654D01*
X7746600Y-5131196D01*
X7754990Y-5110988D01*
X7755010Y-5089108D01*
X7746654Y-5068886D01*
X7731196Y-5053400D01*
X7723011Y-5050002D01*
X7731114Y-5046654D01*
X7746600Y-5031196D01*
X7754990Y-5010988D01*
X7755010Y-4989108D01*
X7746654Y-4968886D01*
X7731196Y-4953400D01*
X7723011Y-4950002D01*
X7731114Y-4946654D01*
X7746600Y-4931196D01*
X7754990Y-4910988D01*
X7755010Y-4889108D01*
X7746654Y-4868886D01*
X7734244Y-4856454D01*
X7735476Y-4855978D01*
X7738141Y-4854198D01*
X7739962Y-4841376D01*
X7700000Y-4801414D01*
X7698586Y-4802828D01*
X7698586Y-4800000D01*
X7658624Y-4760038D01*
X7650000Y-4761263D01*
X7641376Y-4760038D01*
X7601414Y-4800000D01*
X7641376Y-4839962D01*
X7650000Y-4838737D01*
X7658624Y-4839962D01*
X7698586Y-4800000D01*
X7698586Y-4802828D01*
X7660038Y-4841376D01*
X7661859Y-4854198D01*
X7666135Y-4856092D01*
X7653400Y-4868804D01*
X7650002Y-4876989D01*
X7646654Y-4868886D01*
X7634244Y-4856454D01*
X7635476Y-4855978D01*
X7638141Y-4854198D01*
X7639962Y-4841376D01*
X7600000Y-4801414D01*
X7598586Y-4802828D01*
X7598586Y-4800000D01*
X7558624Y-4760038D01*
X7545802Y-4761859D01*
X7535332Y-4785503D01*
X7534706Y-4811354D01*
X7544022Y-4835476D01*
X7545802Y-4838141D01*
X7558624Y-4839962D01*
X7598586Y-4800000D01*
X7598586Y-4802828D01*
X7560038Y-4841376D01*
X7561859Y-4854198D01*
X7566135Y-4856092D01*
X7553400Y-4868804D01*
X7552489Y-4871000D01*
X7412012Y-4871000D01*
X7402200Y-4861188D01*
X7402491Y-4860489D01*
X7402509Y-4839603D01*
X7394533Y-4820300D01*
X7379778Y-4805519D01*
X7366478Y-4799996D01*
X7379700Y-4794533D01*
X7394481Y-4779778D01*
X7402491Y-4760489D01*
X7402509Y-4739603D01*
X7394533Y-4720300D01*
X7379778Y-4705519D01*
X7360489Y-4697509D01*
X7339603Y-4697491D01*
X7320300Y-4705467D01*
X7305519Y-4720222D01*
X7297509Y-4739511D01*
X7297491Y-4760397D01*
X7297812Y-4761175D01*
X7166187Y-4892801D01*
X7166575Y-4892221D01*
X7170000Y-4875000D01*
X7170000Y-4645000D01*
X7242208Y-4645000D01*
X7243804Y-4646600D01*
X7264012Y-4654990D01*
X7285892Y-4655010D01*
X7306114Y-4646654D01*
X7321600Y-4631196D01*
X7324998Y-4623011D01*
X7328346Y-4631114D01*
X7343804Y-4646600D01*
X7364012Y-4654990D01*
X7366353Y-4654992D01*
X7443180Y-4731820D01*
X7457779Y-4741575D01*
X7475000Y-4745000D01*
X7549645Y-4745000D01*
X7555839Y-4751194D01*
X7560801Y-4753250D01*
X7560038Y-4758624D01*
X7600000Y-4798586D01*
X7639962Y-4758624D01*
X7639199Y-4753250D01*
X7644161Y-4751194D01*
X7650355Y-4745000D01*
X7663059Y-4745000D01*
X7661859Y-4745802D01*
X7660038Y-4758624D01*
X7700000Y-4798586D01*
X7739962Y-4758624D01*
X7738141Y-4745802D01*
X7733865Y-4743908D01*
X7746600Y-4731196D01*
X7754990Y-4710988D01*
X7755010Y-4689108D01*
X7746654Y-4668886D01*
X7731196Y-4653400D01*
X7710988Y-4645010D01*
X7689108Y-4644990D01*
X7668886Y-4653346D01*
X7667229Y-4655000D01*
X7650355Y-4655000D01*
X7644161Y-4648806D01*
X7634973Y-4645000D01*
X7625027Y-4645000D01*
X7565027Y-4645000D01*
X7555839Y-4648806D01*
X7549645Y-4655000D01*
X7493640Y-4655000D01*
X7430008Y-4591368D01*
X7430010Y-4589108D01*
X7429559Y-4588019D01*
X7429559Y-4364197D01*
X7427350Y-4358850D01*
X7427350Y-4071312D01*
X7427350Y-4057388D01*
X7427350Y-4034750D01*
X7418600Y-4026000D01*
X7354000Y-4026000D01*
X7354000Y-4090600D01*
X7362750Y-4099350D01*
X7399312Y-4099350D01*
X7412176Y-4094022D01*
X7422022Y-4084176D01*
X7427350Y-4071312D01*
X7427350Y-4358850D01*
X7421272Y-4344140D01*
X7405940Y-4328782D01*
X7385898Y-4320459D01*
X7364197Y-4320441D01*
X7352000Y-4325480D01*
X7352000Y-4090600D01*
X7352000Y-4026000D01*
X7287400Y-4026000D01*
X7278650Y-4034750D01*
X7278650Y-4057388D01*
X7278650Y-4071312D01*
X7283978Y-4084176D01*
X7293824Y-4094022D01*
X7306688Y-4099350D01*
X7343250Y-4099350D01*
X7352000Y-4090600D01*
X7352000Y-4325480D01*
X7344140Y-4328728D01*
X7331282Y-4341563D01*
X7330587Y-4339763D01*
X7329559Y-4338225D01*
X7329559Y-4239197D01*
X7321272Y-4219140D01*
X7305940Y-4203782D01*
X7285898Y-4195459D01*
X7264197Y-4195441D01*
X7244140Y-4203728D01*
X7228782Y-4219060D01*
X7225001Y-4228165D01*
X7221272Y-4219140D01*
X7205940Y-4203782D01*
X7185898Y-4195459D01*
X7164197Y-4195441D01*
X7144140Y-4203728D01*
X7128782Y-4219060D01*
X7120459Y-4239102D01*
X7120441Y-4260803D01*
X7128728Y-4280860D01*
X7144060Y-4296218D01*
X7164102Y-4304541D01*
X7185803Y-4304559D01*
X7205860Y-4296272D01*
X7221218Y-4280940D01*
X7224999Y-4271835D01*
X7228728Y-4280860D01*
X7244060Y-4296218D01*
X7264102Y-4304541D01*
X7285803Y-4304559D01*
X7305860Y-4296272D01*
X7321218Y-4280940D01*
X7329541Y-4260898D01*
X7329559Y-4239197D01*
X7329559Y-4338225D01*
X7328827Y-4337129D01*
X7316052Y-4335363D01*
X7314637Y-4336777D01*
X7314637Y-4333948D01*
X7312871Y-4321173D01*
X7289390Y-4310778D01*
X7263718Y-4310160D01*
X7239763Y-4319413D01*
X7237129Y-4321173D01*
X7235363Y-4333948D01*
X7275000Y-4373586D01*
X7314637Y-4333948D01*
X7314637Y-4336777D01*
X7276414Y-4375000D01*
X7316052Y-4414637D01*
X7328827Y-4412871D01*
X7330947Y-4408083D01*
X7344060Y-4421218D01*
X7364102Y-4429541D01*
X7385803Y-4429559D01*
X7405860Y-4421272D01*
X7421218Y-4405940D01*
X7429541Y-4385898D01*
X7429559Y-4364197D01*
X7429559Y-4588019D01*
X7421654Y-4568886D01*
X7406196Y-4553400D01*
X7387035Y-4545444D01*
X7389668Y-4539497D01*
X7390294Y-4513646D01*
X7380978Y-4489524D01*
X7379198Y-4486859D01*
X7366376Y-4485038D01*
X7364962Y-4486452D01*
X7364962Y-4483624D01*
X7363141Y-4470802D01*
X7339497Y-4460332D01*
X7314637Y-4459730D01*
X7314637Y-4416052D01*
X7275000Y-4376414D01*
X7273586Y-4377828D01*
X7273586Y-4375000D01*
X7233948Y-4335363D01*
X7221173Y-4337129D01*
X7210778Y-4360610D01*
X7210160Y-4386282D01*
X7219413Y-4410237D01*
X7221173Y-4412871D01*
X7233948Y-4414637D01*
X7273586Y-4375000D01*
X7273586Y-4377828D01*
X7235363Y-4416052D01*
X7237129Y-4428827D01*
X7260610Y-4439222D01*
X7286282Y-4439840D01*
X7310237Y-4430587D01*
X7312871Y-4428827D01*
X7314637Y-4416052D01*
X7314637Y-4459730D01*
X7313646Y-4459706D01*
X7289524Y-4469022D01*
X7286859Y-4470802D01*
X7285038Y-4483624D01*
X7325000Y-4523586D01*
X7364962Y-4483624D01*
X7364962Y-4486452D01*
X7326414Y-4525000D01*
X7326971Y-4525557D01*
X7325557Y-4526971D01*
X7325000Y-4526414D01*
X7324443Y-4526971D01*
X7323029Y-4525557D01*
X7323586Y-4525000D01*
X7283624Y-4485038D01*
X7270802Y-4486859D01*
X7260332Y-4510503D01*
X7259706Y-4536354D01*
X7263188Y-4545370D01*
X7243886Y-4553346D01*
X7242229Y-4555000D01*
X7179559Y-4555000D01*
X7179559Y-4364197D01*
X7171272Y-4344140D01*
X7155940Y-4328782D01*
X7135898Y-4320459D01*
X7114197Y-4320441D01*
X7094140Y-4328728D01*
X7081282Y-4341563D01*
X7080587Y-4339763D01*
X7078827Y-4337129D01*
X7066052Y-4335363D01*
X7064637Y-4336777D01*
X7064637Y-4333948D01*
X7062871Y-4321173D01*
X7039390Y-4310778D01*
X7013718Y-4310160D01*
X6989763Y-4319413D01*
X6987129Y-4321173D01*
X6985363Y-4333948D01*
X7025000Y-4373586D01*
X7064637Y-4333948D01*
X7064637Y-4336777D01*
X7026414Y-4375000D01*
X7066052Y-4414637D01*
X7078827Y-4412871D01*
X7080947Y-4408083D01*
X7094060Y-4421218D01*
X7114102Y-4429541D01*
X7135803Y-4429559D01*
X7155860Y-4421272D01*
X7171218Y-4405940D01*
X7179541Y-4385898D01*
X7179559Y-4364197D01*
X7179559Y-4555000D01*
X7157792Y-4555000D01*
X7156196Y-4553400D01*
X7137035Y-4545444D01*
X7139668Y-4539497D01*
X7140294Y-4513646D01*
X7130978Y-4489524D01*
X7129198Y-4486859D01*
X7116376Y-4485038D01*
X7114962Y-4486452D01*
X7114962Y-4483624D01*
X7113141Y-4470802D01*
X7089497Y-4460332D01*
X7064637Y-4459730D01*
X7064637Y-4416052D01*
X7025000Y-4376414D01*
X7023586Y-4377828D01*
X7023586Y-4375000D01*
X6983948Y-4335363D01*
X6971173Y-4337129D01*
X6960778Y-4360610D01*
X6960160Y-4386282D01*
X6969413Y-4410237D01*
X6971173Y-4412871D01*
X6983948Y-4414637D01*
X7023586Y-4375000D01*
X7023586Y-4377828D01*
X6985363Y-4416052D01*
X6987129Y-4428827D01*
X7010610Y-4439222D01*
X7036282Y-4439840D01*
X7060237Y-4430587D01*
X7062871Y-4428827D01*
X7064637Y-4416052D01*
X7064637Y-4459730D01*
X7063646Y-4459706D01*
X7039524Y-4469022D01*
X7036859Y-4470802D01*
X7035038Y-4483624D01*
X7075000Y-4523586D01*
X7114962Y-4483624D01*
X7114962Y-4486452D01*
X7076414Y-4525000D01*
X7076971Y-4525557D01*
X7075557Y-4526971D01*
X7075000Y-4526414D01*
X7074443Y-4526971D01*
X7073029Y-4525557D01*
X7073586Y-4525000D01*
X7033624Y-4485038D01*
X7020802Y-4486859D01*
X7010332Y-4510503D01*
X7009706Y-4536354D01*
X7013188Y-4545370D01*
X6993886Y-4553346D01*
X6992229Y-4555000D01*
X6932157Y-4555000D01*
X6930940Y-4553782D01*
X6910898Y-4545459D01*
X6889197Y-4545441D01*
X6869140Y-4553728D01*
X6864361Y-4558499D01*
X6864361Y-4437256D01*
X6854585Y-4413596D01*
X6836499Y-4395479D01*
X6812856Y-4385661D01*
X6787256Y-4385639D01*
X6763596Y-4395415D01*
X6753994Y-4405000D01*
X6689069Y-4405000D01*
X6685544Y-4396489D01*
X6678511Y-4389456D01*
X6669323Y-4385650D01*
X6659377Y-4385650D01*
X6580677Y-4385650D01*
X6571489Y-4389456D01*
X6564456Y-4396489D01*
X6560650Y-4405677D01*
X6560650Y-4415623D01*
X6560650Y-4494323D01*
X6564456Y-4503511D01*
X6571489Y-4510544D01*
X6580677Y-4514350D01*
X6590623Y-4514350D01*
X6669323Y-4514350D01*
X6678511Y-4510544D01*
X6685544Y-4503511D01*
X6689069Y-4495000D01*
X6753996Y-4495000D01*
X6763501Y-4504521D01*
X6787144Y-4514339D01*
X6812744Y-4514361D01*
X6836404Y-4504585D01*
X6854521Y-4486499D01*
X6864339Y-4462856D01*
X6864361Y-4437256D01*
X6864361Y-4558499D01*
X6856282Y-4566563D01*
X6855587Y-4564763D01*
X6853827Y-4562129D01*
X6841052Y-4560363D01*
X6839637Y-4561777D01*
X6839637Y-4558948D01*
X6837871Y-4546173D01*
X6814390Y-4535778D01*
X6788718Y-4535160D01*
X6764763Y-4544413D01*
X6762129Y-4546173D01*
X6760363Y-4558948D01*
X6800000Y-4598586D01*
X6839637Y-4558948D01*
X6839637Y-4561777D01*
X6801414Y-4600000D01*
X6841052Y-4639637D01*
X6853827Y-4637871D01*
X6855947Y-4633083D01*
X6869060Y-4646218D01*
X6889102Y-4654541D01*
X6910803Y-4654559D01*
X6930860Y-4646272D01*
X6932134Y-4645000D01*
X6992208Y-4645000D01*
X6993804Y-4646600D01*
X7014012Y-4654990D01*
X7035892Y-4655010D01*
X7056114Y-4646654D01*
X7071600Y-4631196D01*
X7074998Y-4623011D01*
X7078346Y-4631114D01*
X7080000Y-4632771D01*
X7080000Y-4697500D01*
X7072527Y-4697500D01*
X7017527Y-4697500D01*
X7008339Y-4701306D01*
X7001306Y-4708339D01*
X6998985Y-4713941D01*
X6983491Y-4707507D01*
X6966583Y-4707493D01*
X6950957Y-4713949D01*
X6943894Y-4721000D01*
X6839637Y-4721000D01*
X6839637Y-4641052D01*
X6800000Y-4601414D01*
X6798586Y-4602828D01*
X6798586Y-4600000D01*
X6758948Y-4560363D01*
X6746173Y-4562129D01*
X6735778Y-4585610D01*
X6735160Y-4611282D01*
X6744413Y-4635237D01*
X6746173Y-4637871D01*
X6758948Y-4639637D01*
X6798586Y-4600000D01*
X6798586Y-4602828D01*
X6760363Y-4641052D01*
X6762129Y-4653827D01*
X6785610Y-4664222D01*
X6811282Y-4664840D01*
X6835237Y-4655587D01*
X6837871Y-4653827D01*
X6839637Y-4641052D01*
X6839637Y-4721000D01*
X6712012Y-4721000D01*
X6445506Y-4454494D01*
X6436098Y-4448207D01*
X6425000Y-4446000D01*
X6294978Y-4446000D01*
X6271824Y-4446000D01*
X6269506Y-4443683D01*
X6282893Y-4441201D01*
X6294268Y-4415594D01*
X6294978Y-4387583D01*
X6284915Y-4361432D01*
X6282893Y-4358406D01*
X6269506Y-4355924D01*
X6268092Y-4357338D01*
X6268092Y-4354509D01*
X6265610Y-4341123D01*
X6240003Y-4329748D01*
X6211992Y-4329038D01*
X6185841Y-4339101D01*
X6182815Y-4341123D01*
X6180333Y-4354509D01*
X6224213Y-4398389D01*
X6268092Y-4354509D01*
X6268092Y-4357338D01*
X6225627Y-4399803D01*
X6226184Y-4400360D01*
X6224769Y-4401774D01*
X6224213Y-4401217D01*
X6223656Y-4401774D01*
X6222242Y-4400360D01*
X6222798Y-4399803D01*
X6178919Y-4355924D01*
X6165533Y-4358406D01*
X6154157Y-4384013D01*
X6154055Y-4388043D01*
X6145506Y-4379494D01*
X6144796Y-4379020D01*
X6152491Y-4360489D01*
X6152509Y-4339603D01*
X6152188Y-4338825D01*
X6187012Y-4304000D01*
X6442356Y-4304000D01*
X6445415Y-4311404D01*
X6463501Y-4329521D01*
X6487144Y-4339339D01*
X6512744Y-4339361D01*
X6536404Y-4329585D01*
X6554521Y-4311499D01*
X6564339Y-4287856D01*
X6564361Y-4262256D01*
X6554585Y-4238596D01*
X6536499Y-4220479D01*
X6512856Y-4210661D01*
X6505358Y-4210655D01*
X6604745Y-4111267D01*
X6612144Y-4114339D01*
X6637744Y-4114361D01*
X6661404Y-4104585D01*
X6679521Y-4086499D01*
X6682635Y-4079000D01*
X6742356Y-4079000D01*
X6745415Y-4086404D01*
X6763501Y-4104521D01*
X6787144Y-4114339D01*
X6812744Y-4114361D01*
X6820248Y-4111260D01*
X6879494Y-4170506D01*
X6888902Y-4176793D01*
X6900000Y-4179000D01*
X6902959Y-4179000D01*
X6903728Y-4180860D01*
X6919060Y-4196218D01*
X6928165Y-4199999D01*
X6919140Y-4203728D01*
X6903782Y-4219060D01*
X6895459Y-4239102D01*
X6895441Y-4260803D01*
X6903728Y-4280860D01*
X6919060Y-4296218D01*
X6939102Y-4304541D01*
X6960803Y-4304559D01*
X6980860Y-4296272D01*
X6996218Y-4280940D01*
X7004541Y-4260898D01*
X7004559Y-4239197D01*
X6996272Y-4219140D01*
X6980940Y-4203782D01*
X6971835Y-4200001D01*
X6980860Y-4196272D01*
X6996218Y-4180940D01*
X7004541Y-4160898D01*
X7004543Y-4158470D01*
X7076745Y-4086267D01*
X7084144Y-4089339D01*
X7109744Y-4089361D01*
X7133404Y-4079585D01*
X7151521Y-4061499D01*
X7161339Y-4037856D01*
X7161361Y-4012256D01*
X7151585Y-3988596D01*
X7133499Y-3970479D01*
X7115470Y-3962992D01*
X7286810Y-3962992D01*
X7283978Y-3965824D01*
X7278650Y-3978688D01*
X7278650Y-3992612D01*
X7278650Y-4015250D01*
X7287400Y-4024000D01*
X7352000Y-4024000D01*
X7352000Y-4023213D01*
X7354000Y-4023213D01*
X7354000Y-4024000D01*
X7418600Y-4024000D01*
X7427350Y-4015250D01*
X7427350Y-3992612D01*
X7427350Y-3978688D01*
X7422022Y-3965824D01*
X7419190Y-3962992D01*
X7848031Y-3962992D01*
X7848031Y-5879528D01*
M02*
