%FSLAX36Y36*%
G04 Gerber Fmt 3.6, Leading zero omitted, Abs format (unit inch)*
G04 Created by KiCad (PCBNEW (2014-jul-16 BZR unknown)-product) date Tue 13 Jan 2015 02:58:16 PM PST*
%MOIN*%
G01*
G04 APERTURE LIST*
%ADD10C,0.003937*%
%ADD11C,0.008000*%
%ADD12C,0.007874*%
%ADD13C,0.012000*%
%ADD14C,0.015000*%
%ADD15C,0.010000*%
%ADD16C,0.005906*%
G04 APERTURE END LIST*
D10*
D11*
X6199524Y-4462857D02*
X6230000Y-4462857D01*
X6382524Y-4729857D02*
X6413000Y-4729857D01*
X6397762Y-4745095D02*
X6397762Y-4714619D01*
X7503810Y-5503095D02*
X7526667Y-5503095D01*
X7515238Y-5543095D02*
X7515238Y-5503095D01*
X7540000Y-5522143D02*
X7553333Y-5522143D01*
X7559048Y-5543095D02*
X7540000Y-5543095D01*
X7540000Y-5503095D01*
X7559048Y-5503095D01*
X7599048Y-5543095D02*
X7585714Y-5524048D01*
X7576190Y-5543095D02*
X7576190Y-5503095D01*
X7591429Y-5503095D01*
X7595238Y-5505000D01*
X7597143Y-5506905D01*
X7599048Y-5510714D01*
X7599048Y-5516429D01*
X7597143Y-5520238D01*
X7595238Y-5522143D01*
X7591429Y-5524048D01*
X7576190Y-5524048D01*
X7616190Y-5543095D02*
X7616190Y-5503095D01*
X7629524Y-5531667D01*
X7642857Y-5503095D01*
X7642857Y-5543095D01*
X7661905Y-5543095D02*
X7661905Y-5503095D01*
X7680952Y-5543095D02*
X7680952Y-5503095D01*
X7703810Y-5543095D01*
X7703810Y-5503095D01*
X7720952Y-5531667D02*
X7740000Y-5531667D01*
X7717143Y-5543095D02*
X7730476Y-5503095D01*
X7743810Y-5543095D01*
X7751429Y-5503095D02*
X7774286Y-5503095D01*
X7762857Y-5543095D02*
X7762857Y-5503095D01*
X7787619Y-5522143D02*
X7800952Y-5522143D01*
X7806667Y-5543095D02*
X7787619Y-5543095D01*
X7787619Y-5503095D01*
X7806667Y-5503095D01*
X5045476Y-4488095D02*
X5022619Y-4488095D01*
X5034048Y-4488095D02*
X5034048Y-4448095D01*
X5030238Y-4453810D01*
X5026429Y-4457619D01*
X5022619Y-4459524D01*
X5147619Y-4481667D02*
X5166667Y-4481667D01*
X5143810Y-4493095D02*
X5157143Y-4453095D01*
X5170476Y-4493095D01*
X5202857Y-4493095D02*
X5183810Y-4493095D01*
X5183810Y-4453095D01*
X5210476Y-4453095D02*
X5233333Y-4453095D01*
X5221905Y-4493095D02*
X5221905Y-4453095D01*
X4593095Y-4342857D02*
X4593095Y-4335238D01*
X4595000Y-4331429D01*
X4598810Y-4327619D01*
X4606429Y-4325714D01*
X4619762Y-4325714D01*
X4627381Y-4327619D01*
X4631190Y-4331429D01*
X4633095Y-4335238D01*
X4633095Y-4342857D01*
X4631190Y-4346667D01*
X4627381Y-4350476D01*
X4619762Y-4352381D01*
X4606429Y-4352381D01*
X4598810Y-4350476D01*
X4595000Y-4346667D01*
X4593095Y-4342857D01*
X4612143Y-4295238D02*
X4612143Y-4308571D01*
X4633095Y-4308571D02*
X4593095Y-4308571D01*
X4593095Y-4289524D01*
X4612143Y-4260952D02*
X4612143Y-4274286D01*
X4633095Y-4274286D02*
X4593095Y-4274286D01*
X4593095Y-4255238D01*
X4249524Y-4268095D02*
X4249524Y-4228095D01*
X4259048Y-4228095D01*
X4264762Y-4230000D01*
X4268571Y-4233810D01*
X4270476Y-4237619D01*
X4272381Y-4245238D01*
X4272381Y-4250952D01*
X4270476Y-4258571D01*
X4268571Y-4262381D01*
X4264762Y-4266190D01*
X4259048Y-4268095D01*
X4249524Y-4268095D01*
X4310476Y-4268095D02*
X4287619Y-4268095D01*
X4299048Y-4268095D02*
X4299048Y-4228095D01*
X4295238Y-4233810D01*
X4291429Y-4237619D01*
X4287619Y-4239524D01*
X4323810Y-4228095D02*
X4348571Y-4228095D01*
X4335238Y-4243333D01*
X4340952Y-4243333D01*
X4344762Y-4245238D01*
X4346667Y-4247143D01*
X4348571Y-4250952D01*
X4348571Y-4260476D01*
X4346667Y-4264286D01*
X4344762Y-4266190D01*
X4340952Y-4268095D01*
X4329524Y-4268095D01*
X4325714Y-4266190D01*
X4323810Y-4264286D01*
X7005476Y-4718095D02*
X6982619Y-4718095D01*
X6994048Y-4718095D02*
X6994048Y-4678095D01*
X6990238Y-4683810D01*
X6986429Y-4687619D01*
X6982619Y-4689524D01*
X6430476Y-4968095D02*
X6407619Y-4968095D01*
X6419048Y-4968095D02*
X6419048Y-4928095D01*
X6415238Y-4933810D01*
X6411429Y-4937619D01*
X6407619Y-4939524D01*
X5586476Y-5873095D02*
X5563619Y-5873095D01*
X5575048Y-5873095D02*
X5575048Y-5833095D01*
X5571238Y-5838810D01*
X5567429Y-5842619D01*
X5563619Y-5844524D01*
X7605476Y-4468095D02*
X7582619Y-4468095D01*
X7594048Y-4468095D02*
X7594048Y-4428095D01*
X7590238Y-4433810D01*
X7586429Y-4437619D01*
X7582619Y-4439524D01*
X4615476Y-5853095D02*
X4592619Y-5853095D01*
X4604048Y-5853095D02*
X4604048Y-5813095D01*
X4600238Y-5818810D01*
X4596429Y-5822619D01*
X4592619Y-5824524D01*
X6475476Y-5758095D02*
X6452619Y-5758095D01*
X6464048Y-5758095D02*
X6464048Y-5718095D01*
X6460238Y-5723810D01*
X6456429Y-5727619D01*
X6452619Y-5729524D01*
X7567143Y-5443095D02*
X7574762Y-5443095D01*
X7578571Y-5445000D01*
X7582381Y-5448810D01*
X7584286Y-5456429D01*
X7584286Y-5469762D01*
X7582381Y-5477381D01*
X7578571Y-5481190D01*
X7574762Y-5483095D01*
X7567143Y-5483095D01*
X7563333Y-5481190D01*
X7559524Y-5477381D01*
X7557619Y-5469762D01*
X7557619Y-5456429D01*
X7559524Y-5448810D01*
X7563333Y-5445000D01*
X7567143Y-5443095D01*
X7601429Y-5483095D02*
X7601429Y-5443095D01*
X7624286Y-5483095D01*
X7624286Y-5443095D01*
X7687143Y-5443095D02*
X7694762Y-5443095D01*
X7698571Y-5445000D01*
X7702381Y-5448810D01*
X7704286Y-5456429D01*
X7704286Y-5469762D01*
X7702381Y-5477381D01*
X7698571Y-5481190D01*
X7694762Y-5483095D01*
X7687143Y-5483095D01*
X7683333Y-5481190D01*
X7679524Y-5477381D01*
X7677619Y-5469762D01*
X7677619Y-5456429D01*
X7679524Y-5448810D01*
X7683333Y-5445000D01*
X7687143Y-5443095D01*
X7734762Y-5462143D02*
X7721429Y-5462143D01*
X7721429Y-5483095D02*
X7721429Y-5443095D01*
X7740476Y-5443095D01*
X7769048Y-5462143D02*
X7755714Y-5462143D01*
X7755714Y-5483095D02*
X7755714Y-5443095D01*
X7774762Y-5443095D01*
X4130476Y-4193095D02*
X4107619Y-4193095D01*
X4119048Y-4193095D02*
X4119048Y-4153095D01*
X4115238Y-4158810D01*
X4111429Y-4162619D01*
X4107619Y-4164524D01*
X7230476Y-5843095D02*
X7207619Y-5843095D01*
X7219048Y-5843095D02*
X7219048Y-5803095D01*
X7215238Y-5808810D01*
X7211429Y-5812619D01*
X7207619Y-5814524D01*
X7182381Y-4168095D02*
X7169048Y-4149048D01*
X7159524Y-4168095D02*
X7159524Y-4128095D01*
X7174762Y-4128095D01*
X7178571Y-4130000D01*
X7180476Y-4131905D01*
X7182381Y-4135714D01*
X7182381Y-4141429D01*
X7180476Y-4145238D01*
X7178571Y-4147143D01*
X7174762Y-4149048D01*
X7159524Y-4149048D01*
X7199524Y-4147143D02*
X7212857Y-4147143D01*
X7218571Y-4168095D02*
X7199524Y-4168095D01*
X7199524Y-4128095D01*
X7218571Y-4128095D01*
X7233810Y-4166190D02*
X7239524Y-4168095D01*
X7249048Y-4168095D01*
X7252857Y-4166190D01*
X7254762Y-4164286D01*
X7256667Y-4160476D01*
X7256667Y-4156667D01*
X7254762Y-4152857D01*
X7252857Y-4150952D01*
X7249048Y-4149048D01*
X7241429Y-4147143D01*
X7237619Y-4145238D01*
X7235714Y-4143333D01*
X7233810Y-4139524D01*
X7233810Y-4135714D01*
X7235714Y-4131905D01*
X7237619Y-4130000D01*
X7241429Y-4128095D01*
X7250952Y-4128095D01*
X7256667Y-4130000D01*
X7273810Y-4147143D02*
X7287143Y-4147143D01*
X7292857Y-4168095D02*
X7273810Y-4168095D01*
X7273810Y-4128095D01*
X7292857Y-4128095D01*
X7304286Y-4128095D02*
X7327143Y-4128095D01*
X7315714Y-4168095D02*
X7315714Y-4128095D01*
D12*
X3937008Y-5905512D02*
X3937008Y-3937008D01*
X7874016Y-5905512D02*
X3937008Y-5905512D01*
X7874016Y-3937008D02*
X7874016Y-5905512D01*
X3937008Y-3937008D02*
X7874016Y-3937008D01*
D11*
X4244524Y-4378095D02*
X4244524Y-4338095D01*
X4259762Y-4338095D01*
X4263571Y-4340000D01*
X4265476Y-4341905D01*
X4267381Y-4345714D01*
X4267381Y-4351429D01*
X4265476Y-4355238D01*
X4263571Y-4357143D01*
X4259762Y-4359048D01*
X4244524Y-4359048D01*
X4280714Y-4338095D02*
X4290238Y-4378095D01*
X4297857Y-4349524D01*
X4305476Y-4378095D01*
X4315000Y-4338095D01*
X4353095Y-4378095D02*
X4339762Y-4359048D01*
X4330238Y-4378095D02*
X4330238Y-4338095D01*
X4345476Y-4338095D01*
X4349286Y-4340000D01*
X4351190Y-4341905D01*
X4353095Y-4345714D01*
X4353095Y-4351429D01*
X4351190Y-4355238D01*
X4349286Y-4357143D01*
X4345476Y-4359048D01*
X4330238Y-4359048D01*
X7222381Y-5709286D02*
X7220476Y-5711190D01*
X7214762Y-5713095D01*
X7210952Y-5713095D01*
X7205238Y-5711190D01*
X7201429Y-5707381D01*
X7199524Y-5703571D01*
X7197619Y-5695952D01*
X7197619Y-5690238D01*
X7199524Y-5682619D01*
X7201429Y-5678810D01*
X7205238Y-5675000D01*
X7210952Y-5673095D01*
X7214762Y-5673095D01*
X7220476Y-5675000D01*
X7222381Y-5676905D01*
X7247143Y-5673095D02*
X7254762Y-5673095D01*
X7258571Y-5675000D01*
X7262381Y-5678810D01*
X7264286Y-5686429D01*
X7264286Y-5699762D01*
X7262381Y-5707381D01*
X7258571Y-5711190D01*
X7254762Y-5713095D01*
X7247143Y-5713095D01*
X7243333Y-5711190D01*
X7239524Y-5707381D01*
X7237619Y-5699762D01*
X7237619Y-5686429D01*
X7239524Y-5678810D01*
X7243333Y-5675000D01*
X7247143Y-5673095D01*
X7281429Y-5713095D02*
X7281429Y-5673095D01*
X7304286Y-5713095D01*
X7304286Y-5673095D01*
X7321429Y-5711190D02*
X7327143Y-5713095D01*
X7336667Y-5713095D01*
X7340476Y-5711190D01*
X7342381Y-5709286D01*
X7344286Y-5705476D01*
X7344286Y-5701667D01*
X7342381Y-5697857D01*
X7340476Y-5695952D01*
X7336667Y-5694048D01*
X7329048Y-5692143D01*
X7325238Y-5690238D01*
X7323333Y-5688333D01*
X7321429Y-5684524D01*
X7321429Y-5680714D01*
X7323333Y-5676905D01*
X7325238Y-5675000D01*
X7329048Y-5673095D01*
X7338571Y-5673095D01*
X7344286Y-5675000D01*
X7369048Y-5673095D02*
X7376667Y-5673095D01*
X7380476Y-5675000D01*
X7384286Y-5678810D01*
X7386190Y-5686429D01*
X7386190Y-5699762D01*
X7384286Y-5707381D01*
X7380476Y-5711190D01*
X7376667Y-5713095D01*
X7369048Y-5713095D01*
X7365238Y-5711190D01*
X7361429Y-5707381D01*
X7359524Y-5699762D01*
X7359524Y-5686429D01*
X7361429Y-5678810D01*
X7365238Y-5675000D01*
X7369048Y-5673095D01*
X7422381Y-5713095D02*
X7403333Y-5713095D01*
X7403333Y-5673095D01*
X7435714Y-5692143D02*
X7449048Y-5692143D01*
X7454762Y-5713095D02*
X7435714Y-5713095D01*
X7435714Y-5673095D01*
X7454762Y-5673095D01*
X4549524Y-5723095D02*
X4549524Y-5683095D01*
X4566667Y-5721190D02*
X4572381Y-5723095D01*
X4581905Y-5723095D01*
X4585714Y-5721190D01*
X4587619Y-5719286D01*
X4589524Y-5715476D01*
X4589524Y-5711667D01*
X4587619Y-5707857D01*
X4585714Y-5705952D01*
X4581905Y-5704048D01*
X4574286Y-5702143D01*
X4570476Y-5700238D01*
X4568571Y-5698333D01*
X4566667Y-5694524D01*
X4566667Y-5690714D01*
X4568571Y-5686905D01*
X4570476Y-5685000D01*
X4574286Y-5683095D01*
X4583810Y-5683095D01*
X4589524Y-5685000D01*
X4606667Y-5723095D02*
X4606667Y-5683095D01*
X4621905Y-5683095D01*
X4625714Y-5685000D01*
X4627619Y-5686905D01*
X4629524Y-5690714D01*
X4629524Y-5696429D01*
X4627619Y-5700238D01*
X4625714Y-5702143D01*
X4621905Y-5704048D01*
X4606667Y-5704048D01*
X6232452Y-5399095D02*
X6232452Y-5427667D01*
X6230548Y-5433381D01*
X6226738Y-5437190D01*
X6221024Y-5439095D01*
X6217214Y-5439095D01*
X6245786Y-5399095D02*
X6268643Y-5399095D01*
X6257214Y-5439095D02*
X6257214Y-5399095D01*
X6280071Y-5427667D02*
X6299119Y-5427667D01*
X6276262Y-5439095D02*
X6289595Y-5399095D01*
X6302929Y-5439095D01*
X6337214Y-5401000D02*
X6333405Y-5399095D01*
X6327690Y-5399095D01*
X6321976Y-5401000D01*
X6318167Y-5404810D01*
X6316262Y-5408619D01*
X6314357Y-5416238D01*
X6314357Y-5421952D01*
X6316262Y-5429571D01*
X6318167Y-5433381D01*
X6321976Y-5437190D01*
X6327690Y-5439095D01*
X6331500Y-5439095D01*
X6337214Y-5437190D01*
X6339119Y-5435286D01*
X6339119Y-5421952D01*
X6331500Y-5421952D01*
X5755476Y-4743095D02*
X5732619Y-4743095D01*
X5744048Y-4743095D02*
X5744048Y-4703095D01*
X5740238Y-4708810D01*
X5736429Y-4712619D01*
X5732619Y-4714524D01*
X4350476Y-4448095D02*
X4327619Y-4448095D01*
X4339048Y-4448095D02*
X4339048Y-4408095D01*
X4335238Y-4413810D01*
X4331429Y-4417619D01*
X4327619Y-4419524D01*
X6605476Y-4943095D02*
X6582619Y-4943095D01*
X6594048Y-4943095D02*
X6594048Y-4903095D01*
X6590238Y-4908810D01*
X6586429Y-4912619D01*
X6582619Y-4914524D01*
X4105476Y-5518095D02*
X4082619Y-5518095D01*
X4094048Y-5518095D02*
X4094048Y-5478095D01*
X4090238Y-5483810D01*
X4086429Y-5487619D01*
X4082619Y-5489524D01*
X6544524Y-5759095D02*
X6544524Y-5719095D01*
X6559762Y-5719095D01*
X6563571Y-5721000D01*
X6565476Y-5722905D01*
X6567381Y-5726714D01*
X6567381Y-5732429D01*
X6565476Y-5736238D01*
X6563571Y-5738143D01*
X6559762Y-5740048D01*
X6544524Y-5740048D01*
X6607381Y-5759095D02*
X6594048Y-5740048D01*
X6584524Y-5759095D02*
X6584524Y-5719095D01*
X6599762Y-5719095D01*
X6603571Y-5721000D01*
X6605476Y-5722905D01*
X6607381Y-5726714D01*
X6607381Y-5732429D01*
X6605476Y-5736238D01*
X6603571Y-5738143D01*
X6599762Y-5740048D01*
X6584524Y-5740048D01*
X6632143Y-5719095D02*
X6639762Y-5719095D01*
X6643571Y-5721000D01*
X6647381Y-5724810D01*
X6649286Y-5732429D01*
X6649286Y-5745762D01*
X6647381Y-5753381D01*
X6643571Y-5757190D01*
X6639762Y-5759095D01*
X6632143Y-5759095D01*
X6628333Y-5757190D01*
X6624524Y-5753381D01*
X6622619Y-5745762D01*
X6622619Y-5732429D01*
X6624524Y-5724810D01*
X6628333Y-5721000D01*
X6632143Y-5719095D01*
X6687381Y-5721000D02*
X6683571Y-5719095D01*
X6677857Y-5719095D01*
X6672143Y-5721000D01*
X6668333Y-5724810D01*
X6666429Y-5728619D01*
X6664524Y-5736238D01*
X6664524Y-5741952D01*
X6666429Y-5749571D01*
X6668333Y-5753381D01*
X6672143Y-5757190D01*
X6677857Y-5759095D01*
X6681667Y-5759095D01*
X6687381Y-5757190D01*
X6689286Y-5755286D01*
X6689286Y-5741952D01*
X6681667Y-5741952D01*
X6729286Y-5759095D02*
X6715952Y-5740048D01*
X6706429Y-5759095D02*
X6706429Y-5719095D01*
X6721667Y-5719095D01*
X6725476Y-5721000D01*
X6727381Y-5722905D01*
X6729286Y-5726714D01*
X6729286Y-5732429D01*
X6727381Y-5736238D01*
X6725476Y-5738143D01*
X6721667Y-5740048D01*
X6706429Y-5740048D01*
X6744524Y-5747667D02*
X6763571Y-5747667D01*
X6740714Y-5759095D02*
X6754048Y-5719095D01*
X6767381Y-5759095D01*
X6780714Y-5759095D02*
X6780714Y-5719095D01*
X6794048Y-5747667D01*
X6807381Y-5719095D01*
X6807381Y-5759095D01*
X4272857Y-5483143D02*
X4278571Y-5485048D01*
X4280476Y-5486952D01*
X4282381Y-5490762D01*
X4282381Y-5496476D01*
X4280476Y-5500286D01*
X4278571Y-5502190D01*
X4274762Y-5504095D01*
X4259524Y-5504095D01*
X4259524Y-5464095D01*
X4272857Y-5464095D01*
X4276667Y-5466000D01*
X4278571Y-5467905D01*
X4280476Y-5471714D01*
X4280476Y-5475524D01*
X4278571Y-5479333D01*
X4276667Y-5481238D01*
X4272857Y-5483143D01*
X4259524Y-5483143D01*
X4299524Y-5464095D02*
X4299524Y-5496476D01*
X4301429Y-5500286D01*
X4303333Y-5502190D01*
X4307143Y-5504095D01*
X4314762Y-5504095D01*
X4318571Y-5502190D01*
X4320476Y-5500286D01*
X4322381Y-5496476D01*
X4322381Y-5464095D01*
X4339524Y-5502190D02*
X4345238Y-5504095D01*
X4354762Y-5504095D01*
X4358571Y-5502190D01*
X4360476Y-5500286D01*
X4362381Y-5496476D01*
X4362381Y-5492667D01*
X4360476Y-5488857D01*
X4358571Y-5486952D01*
X4354762Y-5485048D01*
X4347143Y-5483143D01*
X4343333Y-5481238D01*
X4341429Y-5479333D01*
X4339524Y-5475524D01*
X4339524Y-5471714D01*
X4341429Y-5467905D01*
X4343333Y-5466000D01*
X4347143Y-5464095D01*
X4356667Y-5464095D01*
X4362381Y-5466000D01*
X4423333Y-5483143D02*
X4429048Y-5485048D01*
X4430952Y-5486952D01*
X4432857Y-5490762D01*
X4432857Y-5496476D01*
X4430952Y-5500286D01*
X4429048Y-5502190D01*
X4425238Y-5504095D01*
X4410000Y-5504095D01*
X4410000Y-5464095D01*
X4423333Y-5464095D01*
X4427143Y-5466000D01*
X4429048Y-5467905D01*
X4430952Y-5471714D01*
X4430952Y-5475524D01*
X4429048Y-5479333D01*
X4427143Y-5481238D01*
X4423333Y-5483143D01*
X4410000Y-5483143D01*
X4450000Y-5483143D02*
X4463333Y-5483143D01*
X4469048Y-5504095D02*
X4450000Y-5504095D01*
X4450000Y-5464095D01*
X4469048Y-5464095D01*
X4484286Y-5492667D02*
X4503333Y-5492667D01*
X4480476Y-5504095D02*
X4493810Y-5464095D01*
X4507143Y-5504095D01*
X4541429Y-5466000D02*
X4537619Y-5464095D01*
X4531905Y-5464095D01*
X4526190Y-5466000D01*
X4522381Y-5469810D01*
X4520476Y-5473619D01*
X4518571Y-5481238D01*
X4518571Y-5486952D01*
X4520476Y-5494571D01*
X4522381Y-5498381D01*
X4526190Y-5502190D01*
X4531905Y-5504095D01*
X4535714Y-5504095D01*
X4541429Y-5502190D01*
X4543333Y-5500286D01*
X4543333Y-5486952D01*
X4535714Y-5486952D01*
X4579524Y-5504095D02*
X4560476Y-5504095D01*
X4560476Y-5464095D01*
X4592857Y-5483143D02*
X4606190Y-5483143D01*
X4611905Y-5504095D02*
X4592857Y-5504095D01*
X4592857Y-5464095D01*
X4611905Y-5464095D01*
X4642381Y-5483143D02*
X4648095Y-5485048D01*
X4650000Y-5486952D01*
X4651905Y-5490762D01*
X4651905Y-5496476D01*
X4650000Y-5500286D01*
X4648095Y-5502190D01*
X4644286Y-5504095D01*
X4629048Y-5504095D01*
X4629048Y-5464095D01*
X4642381Y-5464095D01*
X4646190Y-5466000D01*
X4648095Y-5467905D01*
X4650000Y-5471714D01*
X4650000Y-5475524D01*
X4648095Y-5479333D01*
X4646190Y-5481238D01*
X4642381Y-5483143D01*
X4629048Y-5483143D01*
X4676667Y-5464095D02*
X4684286Y-5464095D01*
X4688095Y-5466000D01*
X4691905Y-5469810D01*
X4693809Y-5477429D01*
X4693809Y-5490762D01*
X4691905Y-5498381D01*
X4688095Y-5502190D01*
X4684286Y-5504095D01*
X4676667Y-5504095D01*
X4672857Y-5502190D01*
X4669048Y-5498381D01*
X4667143Y-5490762D01*
X4667143Y-5477429D01*
X4669048Y-5469810D01*
X4672857Y-5466000D01*
X4676667Y-5464095D01*
X4710952Y-5504095D02*
X4710952Y-5464095D01*
X4733809Y-5504095D01*
X4733809Y-5464095D01*
X4752857Y-5483143D02*
X4766190Y-5483143D01*
X4771905Y-5504095D02*
X4752857Y-5504095D01*
X4752857Y-5464095D01*
X4771905Y-5464095D01*
X4282381Y-5568095D02*
X4269048Y-5549048D01*
X4259524Y-5568095D02*
X4259524Y-5528095D01*
X4274762Y-5528095D01*
X4278571Y-5530000D01*
X4280476Y-5531905D01*
X4282381Y-5535714D01*
X4282381Y-5541429D01*
X4280476Y-5545238D01*
X4278571Y-5547143D01*
X4274762Y-5549048D01*
X4259524Y-5549048D01*
X4299524Y-5547143D02*
X4312857Y-5547143D01*
X4318571Y-5568095D02*
X4299524Y-5568095D01*
X4299524Y-5528095D01*
X4318571Y-5528095D01*
X4330000Y-5528095D02*
X4343333Y-5568095D01*
X4356667Y-5528095D01*
X4370000Y-5564286D02*
X4371905Y-5566190D01*
X4370000Y-5568095D01*
X4368095Y-5566190D01*
X4370000Y-5564286D01*
X4370000Y-5568095D01*
X4419524Y-5568095D02*
X4419524Y-5528095D01*
X4429048Y-5528095D01*
X4434762Y-5530000D01*
X4438571Y-5533810D01*
X4440476Y-5537619D01*
X4442381Y-5545238D01*
X4442381Y-5550952D01*
X4440476Y-5558571D01*
X4438571Y-5562381D01*
X4434762Y-5566190D01*
X4429048Y-5568095D01*
X4419524Y-5568095D01*
X4541429Y-5568095D02*
X4518571Y-5568095D01*
X4530000Y-5568095D02*
X4530000Y-5528095D01*
X4526190Y-5533810D01*
X4522381Y-5537619D01*
X4518571Y-5539524D01*
X4554762Y-5528095D02*
X4579524Y-5528095D01*
X4566190Y-5543333D01*
X4571905Y-5543333D01*
X4575714Y-5545238D01*
X4577619Y-5547143D01*
X4579524Y-5550952D01*
X4579524Y-5560476D01*
X4577619Y-5564286D01*
X4575714Y-5566190D01*
X4571905Y-5568095D01*
X4560476Y-5568095D01*
X4556667Y-5566190D01*
X4554762Y-5564286D01*
X4608095Y-5528095D02*
X4608095Y-5556667D01*
X4606190Y-5562381D01*
X4602381Y-5566190D01*
X4596667Y-5568095D01*
X4592857Y-5568095D01*
X4625238Y-5556667D02*
X4644286Y-5556667D01*
X4621429Y-5568095D02*
X4634762Y-5528095D01*
X4648095Y-5568095D01*
X4661429Y-5568095D02*
X4661429Y-5528095D01*
X4684286Y-5568095D01*
X4684286Y-5528095D01*
X4701429Y-5531905D02*
X4703333Y-5530000D01*
X4707143Y-5528095D01*
X4716667Y-5528095D01*
X4720476Y-5530000D01*
X4722381Y-5531905D01*
X4724286Y-5535714D01*
X4724286Y-5539524D01*
X4722381Y-5545238D01*
X4699524Y-5568095D01*
X4724286Y-5568095D01*
X4749048Y-5528095D02*
X4752857Y-5528095D01*
X4756667Y-5530000D01*
X4758571Y-5531905D01*
X4760476Y-5535714D01*
X4762381Y-5543333D01*
X4762381Y-5552857D01*
X4760476Y-5560476D01*
X4758571Y-5564286D01*
X4756667Y-5566190D01*
X4752857Y-5568095D01*
X4749048Y-5568095D01*
X4745238Y-5566190D01*
X4743333Y-5564286D01*
X4741429Y-5560476D01*
X4739524Y-5552857D01*
X4739524Y-5543333D01*
X4741429Y-5535714D01*
X4743333Y-5531905D01*
X4745238Y-5530000D01*
X4749048Y-5528095D01*
X4800476Y-5568095D02*
X4777619Y-5568095D01*
X4789048Y-5568095D02*
X4789048Y-5528095D01*
X4785238Y-5533810D01*
X4781429Y-5537619D01*
X4777619Y-5539524D01*
X4836667Y-5528095D02*
X4817619Y-5528095D01*
X4815714Y-5547143D01*
X4817619Y-5545238D01*
X4821429Y-5543333D01*
X4830952Y-5543333D01*
X4834762Y-5545238D01*
X4836667Y-5547143D01*
X4838571Y-5550952D01*
X4838571Y-5560476D01*
X4836667Y-5564286D01*
X4834762Y-5566190D01*
X4830952Y-5568095D01*
X4821429Y-5568095D01*
X4817619Y-5566190D01*
X4815714Y-5564286D01*
X4270952Y-5647333D02*
X4269048Y-5645429D01*
X4265238Y-5639714D01*
X4263333Y-5635905D01*
X4261429Y-5630190D01*
X4259524Y-5620667D01*
X4259524Y-5613048D01*
X4261429Y-5603524D01*
X4263333Y-5597810D01*
X4265238Y-5594000D01*
X4269048Y-5588286D01*
X4270952Y-5586381D01*
X4309048Y-5628286D02*
X4307143Y-5630190D01*
X4301429Y-5632095D01*
X4297619Y-5632095D01*
X4291905Y-5630190D01*
X4288095Y-5626381D01*
X4286190Y-5622571D01*
X4284286Y-5614952D01*
X4284286Y-5609238D01*
X4286190Y-5601619D01*
X4288095Y-5597810D01*
X4291905Y-5594000D01*
X4297619Y-5592095D01*
X4301429Y-5592095D01*
X4307143Y-5594000D01*
X4309048Y-5595905D01*
X4322381Y-5647333D02*
X4324286Y-5645429D01*
X4328095Y-5639714D01*
X4330000Y-5635905D01*
X4331905Y-5630190D01*
X4333810Y-5620667D01*
X4333810Y-5613048D01*
X4331905Y-5603524D01*
X4330000Y-5597810D01*
X4328095Y-5594000D01*
X4324286Y-5588286D01*
X4322381Y-5586381D01*
X4381429Y-5595905D02*
X4383333Y-5594000D01*
X4387143Y-5592095D01*
X4396667Y-5592095D01*
X4400476Y-5594000D01*
X4402381Y-5595905D01*
X4404286Y-5599714D01*
X4404286Y-5603524D01*
X4402381Y-5609238D01*
X4379524Y-5632095D01*
X4404286Y-5632095D01*
X4429048Y-5592095D02*
X4432857Y-5592095D01*
X4436667Y-5594000D01*
X4438571Y-5595905D01*
X4440476Y-5599714D01*
X4442381Y-5607333D01*
X4442381Y-5616857D01*
X4440476Y-5624476D01*
X4438571Y-5628286D01*
X4436667Y-5630190D01*
X4432857Y-5632095D01*
X4429048Y-5632095D01*
X4425238Y-5630190D01*
X4423333Y-5628286D01*
X4421429Y-5624476D01*
X4419524Y-5616857D01*
X4419524Y-5607333D01*
X4421429Y-5599714D01*
X4423333Y-5595905D01*
X4425238Y-5594000D01*
X4429048Y-5592095D01*
X4480476Y-5632095D02*
X4457619Y-5632095D01*
X4469048Y-5632095D02*
X4469048Y-5592095D01*
X4465238Y-5597810D01*
X4461429Y-5601619D01*
X4457619Y-5603524D01*
X4516667Y-5592095D02*
X4497619Y-5592095D01*
X4495714Y-5611143D01*
X4497619Y-5609238D01*
X4501429Y-5607333D01*
X4510952Y-5607333D01*
X4514762Y-5609238D01*
X4516667Y-5611143D01*
X4518571Y-5614952D01*
X4518571Y-5624476D01*
X4516667Y-5628286D01*
X4514762Y-5630190D01*
X4510952Y-5632095D01*
X4501429Y-5632095D01*
X4497619Y-5630190D01*
X4495714Y-5628286D01*
X4587143Y-5594000D02*
X4583333Y-5592095D01*
X4577619Y-5592095D01*
X4571905Y-5594000D01*
X4568095Y-5597810D01*
X4566190Y-5601619D01*
X4564286Y-5609238D01*
X4564286Y-5614952D01*
X4566190Y-5622571D01*
X4568095Y-5626381D01*
X4571905Y-5630190D01*
X4577619Y-5632095D01*
X4581429Y-5632095D01*
X4587143Y-5630190D01*
X4589048Y-5628286D01*
X4589048Y-5614952D01*
X4581429Y-5614952D01*
X4629048Y-5632095D02*
X4615714Y-5613048D01*
X4606190Y-5632095D02*
X4606190Y-5592095D01*
X4621429Y-5592095D01*
X4625238Y-5594000D01*
X4627143Y-5595905D01*
X4629048Y-5599714D01*
X4629048Y-5605429D01*
X4627143Y-5609238D01*
X4625238Y-5611143D01*
X4621429Y-5613048D01*
X4606190Y-5613048D01*
X4644286Y-5620667D02*
X4663333Y-5620667D01*
X4640476Y-5632095D02*
X4653809Y-5592095D01*
X4667143Y-5632095D01*
X4680476Y-5632095D02*
X4680476Y-5592095D01*
X4693809Y-5620667D01*
X4707143Y-5592095D01*
X4707143Y-5632095D01*
X4745238Y-5632095D02*
X4726190Y-5632095D01*
X4726190Y-5592095D01*
X4758571Y-5632095D02*
X4758571Y-5592095D01*
X4800476Y-5628286D02*
X4798571Y-5630190D01*
X4792857Y-5632095D01*
X4789048Y-5632095D01*
X4783333Y-5630190D01*
X4779524Y-5626381D01*
X4777619Y-5622571D01*
X4775714Y-5614952D01*
X4775714Y-5609238D01*
X4777619Y-5601619D01*
X4779524Y-5597810D01*
X4783333Y-5594000D01*
X4789048Y-5592095D01*
X4792857Y-5592095D01*
X4798571Y-5594000D01*
X4800476Y-5595905D01*
X4817619Y-5632095D02*
X4817619Y-5592095D01*
X4817619Y-5611143D02*
X4840476Y-5611143D01*
X4840476Y-5632095D02*
X4840476Y-5592095D01*
D13*
X5248000Y-5850000D02*
X5050000Y-5850000D01*
X5050000Y-5850000D02*
X5050000Y-5750000D01*
X5050000Y-5750000D02*
X5250000Y-5750000D01*
X5250000Y-5750000D02*
X5250000Y-5850000D01*
X5250000Y-5825000D02*
X5225000Y-5850000D01*
X5302000Y-5750000D02*
X5500000Y-5750000D01*
X5500000Y-5750000D02*
X5500000Y-5850000D01*
X5500000Y-5850000D02*
X5300000Y-5850000D01*
X5300000Y-5850000D02*
X5300000Y-5750000D01*
X5300000Y-5775000D02*
X5325000Y-5750000D01*
X4952000Y-5450000D02*
X5150000Y-5450000D01*
X5150000Y-5450000D02*
X5150000Y-5550000D01*
X5150000Y-5550000D02*
X4950000Y-5550000D01*
X4950000Y-5550000D02*
X4950000Y-5450000D01*
X4950000Y-5475000D02*
X4975000Y-5450000D01*
X5148000Y-4725000D02*
X4950000Y-4725000D01*
X4950000Y-4725000D02*
X4950000Y-4625000D01*
X4950000Y-4625000D02*
X5150000Y-4625000D01*
X5150000Y-4625000D02*
X5150000Y-4725000D01*
X5150000Y-4700000D02*
X5125000Y-4725000D01*
X7298000Y-5225000D02*
X7100000Y-5225000D01*
X7100000Y-5225000D02*
X7100000Y-5125000D01*
X7100000Y-5125000D02*
X7300000Y-5125000D01*
X7300000Y-5125000D02*
X7300000Y-5225000D01*
X7300000Y-5200000D02*
X7275000Y-5225000D01*
X6900000Y-4298000D02*
X6900000Y-4100000D01*
X6900000Y-4100000D02*
X7000000Y-4100000D01*
X7000000Y-4100000D02*
X7000000Y-4300000D01*
X7000000Y-4300000D02*
X6900000Y-4300000D01*
X6925000Y-4300000D02*
X6900000Y-4275000D01*
X6677000Y-4750000D02*
X6875000Y-4750000D01*
X6875000Y-4750000D02*
X6875000Y-4850000D01*
X6875000Y-4850000D02*
X6675000Y-4850000D01*
X6675000Y-4850000D02*
X6675000Y-4750000D01*
X6675000Y-4775000D02*
X6700000Y-4750000D01*
X7173000Y-4425000D02*
X6975000Y-4425000D01*
X6975000Y-4425000D02*
X6975000Y-4325000D01*
X6975000Y-4325000D02*
X7175000Y-4325000D01*
X7175000Y-4325000D02*
X7175000Y-4425000D01*
X7175000Y-4400000D02*
X7150000Y-4425000D01*
D14*
X6625000Y-4150000D02*
X6625000Y-4110000D01*
X6625000Y-4340000D02*
X6625000Y-4390000D01*
D15*
X6675000Y-4330000D02*
X6575000Y-4330000D01*
X6675000Y-4320000D02*
X6575000Y-4320000D01*
X6675000Y-4310000D02*
X6575000Y-4310000D01*
X6675000Y-4340000D02*
X6575000Y-4340000D01*
X6675000Y-4300000D02*
X6575000Y-4350000D01*
X6675000Y-4350000D02*
X6575000Y-4300000D01*
X6675000Y-4300000D02*
X6575000Y-4300000D01*
X6675000Y-4325000D02*
X6575000Y-4325000D01*
X6575000Y-4350000D02*
X6675000Y-4350000D01*
X6675000Y-4350000D02*
X6675000Y-4150000D01*
X6675000Y-4150000D02*
X6575000Y-4150000D01*
X6575000Y-4150000D02*
X6575000Y-4350000D01*
D16*
X4870000Y-4365000D02*
G75*
G03X4840000Y-4205000I-95000J65000D01*
G74*
G01*
X4840000Y-4205000D02*
X4710000Y-4205000D01*
X4710000Y-4205000D02*
G75*
G03X4870000Y-4235000I65000J-95000D01*
G74*
G01*
D15*
X7600000Y-5425000D02*
X7800000Y-5425000D01*
X7800000Y-5425000D02*
X7800000Y-5325000D01*
X7800000Y-5325000D02*
X7600000Y-5325000D01*
X7500000Y-5325000D02*
X7600000Y-5325000D01*
X7600000Y-5325000D02*
X7600000Y-5425000D01*
X7500000Y-5325000D02*
X7500000Y-5425000D01*
X7500000Y-5425000D02*
X7600000Y-5425000D01*
X4375000Y-4300000D02*
X4375000Y-4400000D01*
X4375000Y-4400000D02*
X4475000Y-4400000D01*
X4475000Y-4400000D02*
X4475000Y-4300000D01*
X4475000Y-4300000D02*
X4375000Y-4300000D01*
X4375000Y-4300000D02*
X4375000Y-4200000D01*
X4375000Y-4200000D02*
X4575000Y-4200000D01*
X4575000Y-4200000D02*
X4575000Y-4400000D01*
X4575000Y-4400000D02*
X4475000Y-4400000D01*
D16*
X7430000Y-4700000D02*
X7460000Y-4680000D01*
X7430000Y-4700000D02*
X7460000Y-4720000D01*
D15*
X7460000Y-4990000D02*
X7480000Y-4990000D01*
X7480000Y-4990000D02*
X7480000Y-4810000D01*
X7480000Y-4810000D02*
X7460000Y-4810000D01*
X7840000Y-4500000D02*
X7840000Y-5300000D01*
X7840000Y-5300000D02*
X7460000Y-5300000D01*
X7460000Y-5300000D02*
X7460000Y-4500000D01*
X7460000Y-4500000D02*
X7840000Y-4500000D01*
X6525000Y-5775000D02*
X7025000Y-5775000D01*
X7025000Y-5775000D02*
X7025000Y-5875000D01*
X7025000Y-5875000D02*
X6525000Y-5875000D01*
X6425000Y-5775000D02*
X6525000Y-5775000D01*
X6525000Y-5775000D02*
X6525000Y-5875000D01*
X6425000Y-5775000D02*
X6425000Y-5875000D01*
X6425000Y-5875000D02*
X6525000Y-5875000D01*
X7075000Y-5750000D02*
X7075000Y-5250000D01*
X7075000Y-5250000D02*
X7175000Y-5250000D01*
X7175000Y-5250000D02*
X7175000Y-5750000D01*
X7075000Y-5850000D02*
X7075000Y-5750000D01*
X7075000Y-5750000D02*
X7175000Y-5750000D01*
X7075000Y-5850000D02*
X7175000Y-5850000D01*
X7175000Y-5850000D02*
X7175000Y-5750000D01*
X4650000Y-5775000D02*
X4750000Y-5775000D01*
X4750000Y-5775000D02*
X4750000Y-5875000D01*
X4650000Y-5875000D02*
X4950000Y-5875000D01*
X4950000Y-5875000D02*
X4950000Y-5675000D01*
X4950000Y-5675000D02*
X4750000Y-5675000D01*
X4650000Y-5875000D02*
X4650000Y-5775000D01*
X4650000Y-5675000D02*
X4650000Y-5775000D01*
X4750000Y-5675000D02*
X4650000Y-5675000D01*
X5100000Y-4425000D02*
X5400000Y-4425000D01*
X5100000Y-4325000D02*
X5400000Y-4325000D01*
X5000000Y-4325000D02*
X5100000Y-4325000D01*
X5400000Y-4425000D02*
X5400000Y-4325000D01*
X5100000Y-4325000D02*
X5100000Y-4425000D01*
X5000000Y-4325000D02*
X5000000Y-4425000D01*
X5000000Y-4425000D02*
X5100000Y-4425000D01*
D16*
X5800000Y-5870000D02*
X5780000Y-5840000D01*
X5800000Y-5870000D02*
X5820000Y-5840000D01*
D15*
X6090000Y-5840000D02*
X6090000Y-5820000D01*
X6090000Y-5820000D02*
X5910000Y-5820000D01*
X5910000Y-5820000D02*
X5910000Y-5840000D01*
X5600000Y-5460000D02*
X6400000Y-5460000D01*
X6400000Y-5460000D02*
X6400000Y-5840000D01*
X6400000Y-5840000D02*
X5600000Y-5840000D01*
X5600000Y-5840000D02*
X5600000Y-5460000D01*
D16*
X6375000Y-3950000D02*
X4075000Y-3950000D01*
X6375000Y-4150000D02*
X4175000Y-4150000D01*
X6375000Y-3950000D02*
X6375000Y-4150000D01*
X4075000Y-3950000D02*
X4075000Y-4050000D01*
X4075000Y-4150000D02*
X4175000Y-4150000D01*
X4075000Y-4050000D02*
X4175000Y-4050000D01*
X4175000Y-4050000D02*
X4175000Y-4150000D01*
X4075000Y-4150000D02*
X4075000Y-4050000D01*
D14*
X6800000Y-4153100D02*
X6800000Y-4113100D01*
X6800000Y-4353100D02*
X6800000Y-4393100D01*
X6850000Y-4153100D02*
X6850000Y-4353100D01*
X6850000Y-4353100D02*
X6750000Y-4353100D01*
X6750000Y-4353100D02*
X6750000Y-4153100D01*
X6750000Y-4153100D02*
X6850000Y-4153100D01*
X4553100Y-4675000D02*
X4513100Y-4675000D01*
X4753100Y-4675000D02*
X4793100Y-4675000D01*
X4553100Y-4625000D02*
X4753100Y-4625000D01*
X4753100Y-4625000D02*
X4753100Y-4725000D01*
X4753100Y-4725000D02*
X4553100Y-4725000D01*
X4553100Y-4725000D02*
X4553100Y-4625000D01*
X4553100Y-4550000D02*
X4513100Y-4550000D01*
X4753100Y-4550000D02*
X4793100Y-4550000D01*
X4553100Y-4500000D02*
X4753100Y-4500000D01*
X4753100Y-4500000D02*
X4753100Y-4600000D01*
X4753100Y-4600000D02*
X4553100Y-4600000D01*
X4553100Y-4600000D02*
X4553100Y-4500000D01*
X6500000Y-4378100D02*
X6500000Y-4338100D01*
X6500000Y-4578100D02*
X6500000Y-4618100D01*
X6550000Y-4378100D02*
X6550000Y-4578100D01*
X6550000Y-4578100D02*
X6450000Y-4578100D01*
X6450000Y-4578100D02*
X6450000Y-4378100D01*
X6450000Y-4378100D02*
X6550000Y-4378100D01*
X7106900Y-3956100D02*
X7106900Y-3965900D01*
X7343100Y-3956100D02*
X7343100Y-3965900D01*
X7106900Y-4093900D02*
X7106900Y-4084100D01*
X7343100Y-4093900D02*
X7343100Y-4084100D01*
X7343100Y-3956100D02*
X7106900Y-3956100D01*
X7343100Y-4093900D02*
X7106900Y-4093900D01*
X5535000Y-5585600D02*
X5542900Y-5601400D01*
X5542900Y-5601400D02*
X5546900Y-5625000D01*
X5546900Y-5625000D02*
X5542900Y-5644700D01*
X5542900Y-5644700D02*
X5527200Y-5672200D01*
X5527200Y-5672200D02*
X5503500Y-5688000D01*
X5503500Y-5688000D02*
X5479900Y-5695900D01*
X5479900Y-5695900D02*
X5220100Y-5695900D01*
X5220100Y-5695900D02*
X5192500Y-5688000D01*
X5192500Y-5688000D02*
X5176800Y-5676200D01*
X5176800Y-5676200D02*
X5161000Y-5656500D01*
X5161000Y-5656500D02*
X5153100Y-5632900D01*
X5153100Y-5632900D02*
X5153100Y-5613200D01*
X5153100Y-5613200D02*
X5161000Y-5593500D01*
X5161000Y-5593500D02*
X5180700Y-5569900D01*
X5180700Y-5569900D02*
X5200400Y-5558100D01*
X5200400Y-5558100D02*
X5220100Y-5554100D01*
X5224000Y-5554100D02*
X5483900Y-5554100D01*
X5483900Y-5554100D02*
X5499600Y-5558100D01*
X5499600Y-5558100D02*
X5519300Y-5569900D01*
X5519300Y-5569900D02*
X5539000Y-5589600D01*
X5224400Y-5533300D02*
X5206300Y-5535200D01*
X5206300Y-5535200D02*
X5190600Y-5539600D01*
X5190600Y-5539600D02*
X5173600Y-5548200D01*
X5173600Y-5548200D02*
X5162200Y-5557300D01*
X5162200Y-5557300D02*
X5149200Y-5571100D01*
X5149200Y-5571100D02*
X5137800Y-5592300D01*
X5137800Y-5592300D02*
X5132700Y-5615900D01*
X5132700Y-5615900D02*
X5132700Y-5636000D01*
X5132700Y-5636000D02*
X5139400Y-5663600D01*
X5139400Y-5663600D02*
X5155100Y-5686800D01*
X5155100Y-5686800D02*
X5173200Y-5701400D01*
X5173200Y-5701400D02*
X5189800Y-5709600D01*
X5189800Y-5709600D02*
X5207500Y-5715900D01*
X5207500Y-5715900D02*
X5224800Y-5717100D01*
X5513800Y-5708500D02*
X5528700Y-5699800D01*
X5528700Y-5699800D02*
X5541300Y-5688800D01*
X5541300Y-5688800D02*
X5551200Y-5675800D01*
X5551200Y-5675800D02*
X5563000Y-5654100D01*
X5563000Y-5654100D02*
X5567300Y-5635600D01*
X5567300Y-5635600D02*
X5568100Y-5617500D01*
X5568100Y-5617500D02*
X5564600Y-5599400D01*
X5564600Y-5599400D02*
X5557100Y-5581700D01*
X5557100Y-5581700D02*
X5542900Y-5563200D01*
X5542900Y-5563200D02*
X5529100Y-5550600D01*
X5529100Y-5550600D02*
X5513800Y-5541500D01*
X5513800Y-5541500D02*
X5496900Y-5536000D01*
X5496900Y-5536000D02*
X5479500Y-5533300D01*
X5224000Y-5716700D02*
X5478000Y-5716700D01*
X5478000Y-5716700D02*
X5494500Y-5715200D01*
X5494500Y-5715200D02*
X5513800Y-5708500D01*
X5224000Y-5533300D02*
X5478000Y-5533300D01*
X6046900Y-4225000D02*
X6086900Y-4225000D01*
X5846900Y-4225000D02*
X5806900Y-4225000D01*
X6046900Y-4275000D02*
X5846900Y-4275000D01*
X5846900Y-4275000D02*
X5846900Y-4175000D01*
X5846900Y-4175000D02*
X6046900Y-4175000D01*
X6046900Y-4175000D02*
X6046900Y-4275000D01*
D16*
X5677362Y-4450000D02*
X5476575Y-4450000D01*
X5551378Y-4568110D02*
X5523819Y-4646850D01*
X5598622Y-4568110D02*
X5626181Y-4646850D01*
X5614370Y-4331890D02*
X5614370Y-4568110D01*
X5614370Y-4568110D02*
X5535630Y-4568110D01*
X5535630Y-4568110D02*
X5535630Y-4331890D01*
X5535630Y-4331890D02*
X5614370Y-4331890D01*
D13*
X7423000Y-4425000D02*
X7225000Y-4425000D01*
X7225000Y-4425000D02*
X7225000Y-4325000D01*
X7225000Y-4325000D02*
X7425000Y-4325000D01*
X7425000Y-4325000D02*
X7425000Y-4425000D01*
X7425000Y-4400000D02*
X7400000Y-4425000D01*
X7127000Y-4200000D02*
X7325000Y-4200000D01*
X7325000Y-4200000D02*
X7325000Y-4300000D01*
X7325000Y-4300000D02*
X7125000Y-4300000D01*
X7125000Y-4300000D02*
X7125000Y-4200000D01*
X7125000Y-4225000D02*
X7150000Y-4200000D01*
D15*
X5750000Y-4450000D02*
X5800000Y-4450000D01*
X5800000Y-4450000D02*
X5800000Y-4550000D01*
X5800000Y-4550000D02*
X5750000Y-4550000D01*
X5750000Y-4400000D02*
X6150000Y-4400000D01*
X6150000Y-4400000D02*
X6150000Y-4600000D01*
X6150000Y-4600000D02*
X5750000Y-4600000D01*
X5750000Y-4600000D02*
X5750000Y-4400000D01*
D14*
X6875000Y-4900000D02*
X6875000Y-5700000D01*
X6675000Y-5700000D02*
X6675000Y-4900000D01*
X6675000Y-4900000D02*
X6875000Y-4900000D01*
X6825000Y-4900000D02*
X6825000Y-4950000D01*
X6825000Y-4950000D02*
X6725000Y-4950000D01*
X6725000Y-4950000D02*
X6725000Y-4900000D01*
X6875000Y-5700000D02*
X6675000Y-5700000D01*
D15*
X7250000Y-4700000D02*
X7250000Y-4750000D01*
X7250000Y-4750000D02*
X7150000Y-4750000D01*
X7150000Y-4750000D02*
X7150000Y-4700000D01*
X7300000Y-4700000D02*
X7300000Y-5100000D01*
X7300000Y-5100000D02*
X7100000Y-5100000D01*
X7100000Y-5100000D02*
X7100000Y-4700000D01*
X7100000Y-4700000D02*
X7300000Y-4700000D01*
D16*
X7411301Y-4624478D02*
G75*
G03X7239000Y-4625000I-86301J49478D01*
G74*
G01*
X7239000Y-4625000D02*
X7412000Y-4625000D01*
D14*
X4000000Y-5050000D02*
X4050000Y-5050000D01*
X4050000Y-5050000D02*
X4050000Y-5150000D01*
X4050000Y-5150000D02*
X4000000Y-5150000D01*
X4000000Y-4850000D02*
X6100000Y-4850000D01*
X6100000Y-4850000D02*
X6100000Y-5350000D01*
X6100000Y-5350000D02*
X4000000Y-5350000D01*
X4000000Y-5350000D02*
X4000000Y-4850000D01*
X7375000Y-5303100D02*
X7375000Y-5263100D01*
X7375000Y-5503100D02*
X7375000Y-5543100D01*
X7425000Y-5303100D02*
X7425000Y-5503100D01*
X7425000Y-5503100D02*
X7325000Y-5503100D01*
X7325000Y-5503100D02*
X7325000Y-5303100D01*
X7325000Y-5303100D02*
X7425000Y-5303100D01*
D13*
X6948000Y-4650000D02*
X6750000Y-4650000D01*
X6750000Y-4650000D02*
X6750000Y-4550000D01*
X6750000Y-4550000D02*
X6950000Y-4550000D01*
X6950000Y-4550000D02*
X6950000Y-4650000D01*
X6950000Y-4625000D02*
X6925000Y-4650000D01*
D16*
X7161301Y-4624478D02*
G75*
G03X6989000Y-4625000I-86301J49478D01*
G74*
G01*
X6989000Y-4625000D02*
X7162000Y-4625000D01*
D15*
X6550000Y-5050000D02*
X6550000Y-5550000D01*
X6550000Y-5550000D02*
X6450000Y-5550000D01*
X6450000Y-5550000D02*
X6450000Y-5050000D01*
X6550000Y-4950000D02*
X6550000Y-5050000D01*
X6550000Y-5050000D02*
X6450000Y-5050000D01*
X6550000Y-4950000D02*
X6450000Y-4950000D01*
X6450000Y-4950000D02*
X6450000Y-5050000D01*
D16*
X6240945Y-4993701D02*
X6240945Y-4206299D01*
X6240945Y-4206299D02*
X6359055Y-4206299D01*
X6359055Y-4206299D02*
X6359055Y-4993701D01*
X6359055Y-4993701D02*
X6240945Y-4993701D01*
D11*
X5068333Y-5714286D02*
X5066429Y-5716190D01*
X5060714Y-5718095D01*
X5056905Y-5718095D01*
X5051191Y-5716190D01*
X5047381Y-5712381D01*
X5045476Y-5708571D01*
X5043571Y-5700952D01*
X5043571Y-5695238D01*
X5045476Y-5687619D01*
X5047381Y-5683810D01*
X5051191Y-5680000D01*
X5056905Y-5678095D01*
X5060714Y-5678095D01*
X5066429Y-5680000D01*
X5068333Y-5681905D01*
X5106429Y-5718095D02*
X5083571Y-5718095D01*
X5095000Y-5718095D02*
X5095000Y-5678095D01*
X5091191Y-5683810D01*
X5087381Y-5687619D01*
X5083571Y-5689524D01*
X5542333Y-5785286D02*
X5540429Y-5787190D01*
X5534714Y-5789095D01*
X5530905Y-5789095D01*
X5525191Y-5787190D01*
X5521381Y-5783381D01*
X5519476Y-5779571D01*
X5517571Y-5771952D01*
X5517571Y-5766238D01*
X5519476Y-5758619D01*
X5521381Y-5754810D01*
X5525191Y-5751000D01*
X5530905Y-5749095D01*
X5534714Y-5749095D01*
X5540429Y-5751000D01*
X5542333Y-5752905D01*
X5557571Y-5752905D02*
X5559476Y-5751000D01*
X5563286Y-5749095D01*
X5572810Y-5749095D01*
X5576619Y-5751000D01*
X5578524Y-5752905D01*
X5580429Y-5756714D01*
X5580429Y-5760524D01*
X5578524Y-5766238D01*
X5555667Y-5789095D01*
X5580429Y-5789095D01*
X4898333Y-5519286D02*
X4896429Y-5521190D01*
X4890714Y-5523095D01*
X4886905Y-5523095D01*
X4881191Y-5521190D01*
X4877381Y-5517381D01*
X4875476Y-5513571D01*
X4873571Y-5505952D01*
X4873571Y-5500238D01*
X4875476Y-5492619D01*
X4877381Y-5488810D01*
X4881191Y-5485000D01*
X4886905Y-5483095D01*
X4890714Y-5483095D01*
X4896429Y-5485000D01*
X4898333Y-5486905D01*
X4911667Y-5483095D02*
X4936429Y-5483095D01*
X4923095Y-5498333D01*
X4928810Y-5498333D01*
X4932619Y-5500238D01*
X4934524Y-5502143D01*
X4936429Y-5505952D01*
X4936429Y-5515476D01*
X4934524Y-5519286D01*
X4932619Y-5521190D01*
X4928810Y-5523095D01*
X4917381Y-5523095D01*
X4913571Y-5521190D01*
X4911667Y-5519286D01*
X5193333Y-4689286D02*
X5191429Y-4691190D01*
X5185714Y-4693095D01*
X5181905Y-4693095D01*
X5176191Y-4691190D01*
X5172381Y-4687381D01*
X5170476Y-4683571D01*
X5168571Y-4675952D01*
X5168571Y-4670238D01*
X5170476Y-4662619D01*
X5172381Y-4658810D01*
X5176191Y-4655000D01*
X5181905Y-4653095D01*
X5185714Y-4653095D01*
X5191429Y-4655000D01*
X5193333Y-4656905D01*
X5227619Y-4666429D02*
X5227619Y-4693095D01*
X5218095Y-4651190D02*
X5208571Y-4679762D01*
X5233333Y-4679762D01*
X7043333Y-5189286D02*
X7041429Y-5191190D01*
X7035714Y-5193095D01*
X7031905Y-5193095D01*
X7026191Y-5191190D01*
X7022381Y-5187381D01*
X7020476Y-5183571D01*
X7018571Y-5175952D01*
X7018571Y-5170238D01*
X7020476Y-5162619D01*
X7022381Y-5158810D01*
X7026191Y-5155000D01*
X7031905Y-5153095D01*
X7035714Y-5153095D01*
X7041429Y-5155000D01*
X7043333Y-5156905D01*
X7079524Y-5153095D02*
X7060476Y-5153095D01*
X7058571Y-5172143D01*
X7060476Y-5170238D01*
X7064286Y-5168333D01*
X7073810Y-5168333D01*
X7077619Y-5170238D01*
X7079524Y-5172143D01*
X7081429Y-5175952D01*
X7081429Y-5185476D01*
X7079524Y-5189286D01*
X7077619Y-5191190D01*
X7073810Y-5193095D01*
X7064286Y-5193095D01*
X7060476Y-5191190D01*
X7058571Y-5189286D01*
X6943333Y-4064286D02*
X6941429Y-4066190D01*
X6935714Y-4068095D01*
X6931905Y-4068095D01*
X6926191Y-4066190D01*
X6922381Y-4062381D01*
X6920476Y-4058571D01*
X6918571Y-4050952D01*
X6918571Y-4045238D01*
X6920476Y-4037619D01*
X6922381Y-4033810D01*
X6926191Y-4030000D01*
X6931905Y-4028095D01*
X6935714Y-4028095D01*
X6941429Y-4030000D01*
X6943333Y-4031905D01*
X6977619Y-4028095D02*
X6970000Y-4028095D01*
X6966191Y-4030000D01*
X6964286Y-4031905D01*
X6960476Y-4037619D01*
X6958571Y-4045238D01*
X6958571Y-4060476D01*
X6960476Y-4064286D01*
X6962381Y-4066190D01*
X6966191Y-4068095D01*
X6973810Y-4068095D01*
X6977619Y-4066190D01*
X6979524Y-4064286D01*
X6981429Y-4060476D01*
X6981429Y-4050952D01*
X6979524Y-4047143D01*
X6977619Y-4045238D01*
X6973810Y-4043333D01*
X6966191Y-4043333D01*
X6962381Y-4045238D01*
X6960476Y-4047143D01*
X6958571Y-4050952D01*
X6618333Y-4814286D02*
X6616429Y-4816190D01*
X6610714Y-4818095D01*
X6606905Y-4818095D01*
X6601191Y-4816190D01*
X6597381Y-4812381D01*
X6595476Y-4808571D01*
X6593571Y-4800952D01*
X6593571Y-4795238D01*
X6595476Y-4787619D01*
X6597381Y-4783810D01*
X6601191Y-4780000D01*
X6606905Y-4778095D01*
X6610714Y-4778095D01*
X6616429Y-4780000D01*
X6618333Y-4781905D01*
X6631667Y-4778095D02*
X6658333Y-4778095D01*
X6641191Y-4818095D01*
X6918333Y-4389286D02*
X6916429Y-4391190D01*
X6910714Y-4393095D01*
X6906905Y-4393095D01*
X6901191Y-4391190D01*
X6897381Y-4387381D01*
X6895476Y-4383571D01*
X6893571Y-4375952D01*
X6893571Y-4370238D01*
X6895476Y-4362619D01*
X6897381Y-4358810D01*
X6901191Y-4355000D01*
X6906905Y-4353095D01*
X6910714Y-4353095D01*
X6916429Y-4355000D01*
X6918333Y-4356905D01*
X6941191Y-4370238D02*
X6937381Y-4368333D01*
X6935476Y-4366429D01*
X6933571Y-4362619D01*
X6933571Y-4360714D01*
X6935476Y-4356905D01*
X6937381Y-4355000D01*
X6941191Y-4353095D01*
X6948810Y-4353095D01*
X6952619Y-4355000D01*
X6954524Y-4356905D01*
X6956429Y-4360714D01*
X6956429Y-4362619D01*
X6954524Y-4366429D01*
X6952619Y-4368333D01*
X6948810Y-4370238D01*
X6941191Y-4370238D01*
X6937381Y-4372143D01*
X6935476Y-4374048D01*
X6933571Y-4377857D01*
X6933571Y-4385476D01*
X6935476Y-4389286D01*
X6937381Y-4391190D01*
X6941191Y-4393095D01*
X6948810Y-4393095D01*
X6952619Y-4391190D01*
X6954524Y-4389286D01*
X6956429Y-4385476D01*
X6956429Y-4377857D01*
X6954524Y-4374048D01*
X6952619Y-4372143D01*
X6948810Y-4370238D01*
X6520476Y-4018095D02*
X6520476Y-3978095D01*
X6530000Y-3978095D01*
X6535714Y-3980000D01*
X6539524Y-3983810D01*
X6541429Y-3987619D01*
X6543333Y-3995238D01*
X6543333Y-4000952D01*
X6541429Y-4008571D01*
X6539524Y-4012381D01*
X6535714Y-4016190D01*
X6530000Y-4018095D01*
X6520476Y-4018095D01*
X6581429Y-4018095D02*
X6558571Y-4018095D01*
X6570000Y-4018095D02*
X6570000Y-3978095D01*
X6566191Y-3983810D01*
X6562381Y-3987619D01*
X6558571Y-3989524D01*
X6662857Y-4395238D02*
X6662857Y-4364762D01*
X6667857Y-4125238D02*
X6667857Y-4094762D01*
X6683095Y-4110000D02*
X6652619Y-4110000D01*
X4870476Y-4443095D02*
X4870476Y-4403095D01*
X4880000Y-4403095D01*
X4885714Y-4405000D01*
X4889524Y-4408810D01*
X4891429Y-4412619D01*
X4893333Y-4420238D01*
X4893333Y-4425952D01*
X4891429Y-4433571D01*
X4889524Y-4437381D01*
X4885714Y-4441190D01*
X4880000Y-4443095D01*
X4870476Y-4443095D01*
X4908571Y-4406905D02*
X4910476Y-4405000D01*
X4914286Y-4403095D01*
X4923810Y-4403095D01*
X4927619Y-4405000D01*
X4929524Y-4406905D01*
X4931429Y-4410714D01*
X4931429Y-4414524D01*
X4929524Y-4420238D01*
X4906667Y-4443095D01*
X4931429Y-4443095D01*
X4859762Y-4202857D02*
X4890238Y-4202857D01*
X4709762Y-4442857D02*
X4740238Y-4442857D01*
X4725000Y-4458095D02*
X4725000Y-4427619D01*
X7451667Y-5348095D02*
X7451667Y-5376667D01*
X7449762Y-5382381D01*
X7445952Y-5386190D01*
X7440238Y-5388095D01*
X7436429Y-5388095D01*
X7491667Y-5388095D02*
X7468810Y-5388095D01*
X7480238Y-5388095D02*
X7480238Y-5348095D01*
X7476429Y-5353810D01*
X7472619Y-5357619D01*
X7468810Y-5359524D01*
X4601667Y-4163095D02*
X4601667Y-4191667D01*
X4599762Y-4197381D01*
X4595952Y-4201190D01*
X4590238Y-4203095D01*
X4586429Y-4203095D01*
X4618810Y-4166905D02*
X4620714Y-4165000D01*
X4624524Y-4163095D01*
X4634048Y-4163095D01*
X4637857Y-4165000D01*
X4639762Y-4166905D01*
X4641667Y-4170714D01*
X4641667Y-4174524D01*
X4639762Y-4180238D01*
X4616905Y-4203095D01*
X4641667Y-4203095D01*
X7696024Y-4474595D02*
X7696024Y-4434595D01*
X7718881Y-4474595D01*
X7718881Y-4434595D01*
X7734119Y-4434595D02*
X7758881Y-4434595D01*
X7745548Y-4449833D01*
X7751262Y-4449833D01*
X7755071Y-4451738D01*
X7756976Y-4453643D01*
X7758881Y-4457452D01*
X7758881Y-4466976D01*
X7756976Y-4470786D01*
X7755071Y-4472690D01*
X7751262Y-4474595D01*
X7739833Y-4474595D01*
X7736024Y-4472690D01*
X7734119Y-4470786D01*
X6969524Y-5743095D02*
X6969524Y-5703095D01*
X6992381Y-5743095D01*
X6992381Y-5703095D01*
X7028571Y-5716429D02*
X7028571Y-5743095D01*
X7019048Y-5701190D02*
X7009524Y-5729762D01*
X7034286Y-5729762D01*
X7194524Y-5318095D02*
X7194524Y-5278095D01*
X7217381Y-5318095D01*
X7217381Y-5278095D01*
X7255476Y-5278095D02*
X7236429Y-5278095D01*
X7234524Y-5297143D01*
X7236429Y-5295238D01*
X7240238Y-5293333D01*
X7249762Y-5293333D01*
X7253571Y-5295238D01*
X7255476Y-5297143D01*
X7257381Y-5300952D01*
X7257381Y-5310476D01*
X7255476Y-5314286D01*
X7253571Y-5316190D01*
X7249762Y-5318095D01*
X7240238Y-5318095D01*
X7236429Y-5316190D01*
X7234524Y-5314286D01*
X4569524Y-5793095D02*
X4569524Y-5753095D01*
X4592381Y-5793095D01*
X4592381Y-5753095D01*
X4607619Y-5753095D02*
X4634286Y-5753095D01*
X4617143Y-5793095D01*
X4994524Y-4293095D02*
X4994524Y-4253095D01*
X5017381Y-4293095D01*
X5017381Y-4253095D01*
X5042143Y-4270238D02*
X5038333Y-4268333D01*
X5036429Y-4266429D01*
X5034524Y-4262619D01*
X5034524Y-4260714D01*
X5036429Y-4256905D01*
X5038333Y-4255000D01*
X5042143Y-4253095D01*
X5049762Y-4253095D01*
X5053571Y-4255000D01*
X5055476Y-4256905D01*
X5057381Y-4260714D01*
X5057381Y-4262619D01*
X5055476Y-4266429D01*
X5053571Y-4268333D01*
X5049762Y-4270238D01*
X5042143Y-4270238D01*
X5038333Y-4272143D01*
X5036429Y-4274048D01*
X5034524Y-4277857D01*
X5034524Y-4285476D01*
X5036429Y-4289286D01*
X5038333Y-4291190D01*
X5042143Y-4293095D01*
X5049762Y-4293095D01*
X5053571Y-4291190D01*
X5055476Y-4289286D01*
X5057381Y-4285476D01*
X5057381Y-4277857D01*
X5055476Y-4274048D01*
X5053571Y-4272143D01*
X5049762Y-4270238D01*
X5512024Y-5499095D02*
X5512024Y-5459095D01*
X5534881Y-5499095D01*
X5534881Y-5459095D01*
X5555833Y-5499095D02*
X5563452Y-5499095D01*
X5567262Y-5497190D01*
X5569167Y-5495286D01*
X5572976Y-5489571D01*
X5574881Y-5481952D01*
X5574881Y-5466714D01*
X5572976Y-5462905D01*
X5571071Y-5461000D01*
X5567262Y-5459095D01*
X5559643Y-5459095D01*
X5555833Y-5461000D01*
X5553929Y-5462905D01*
X5552024Y-5466714D01*
X5552024Y-5476238D01*
X5553929Y-5480048D01*
X5555833Y-5481952D01*
X5559643Y-5483857D01*
X5567262Y-5483857D01*
X5571071Y-5481952D01*
X5572976Y-5480048D01*
X5574881Y-5476238D01*
X4984476Y-4204595D02*
X4984476Y-4164595D01*
X5007333Y-4204595D01*
X5007333Y-4164595D01*
X5047333Y-4204595D02*
X5024476Y-4204595D01*
X5035905Y-4204595D02*
X5035905Y-4164595D01*
X5032095Y-4170310D01*
X5028286Y-4174119D01*
X5024476Y-4176024D01*
X5072095Y-4164595D02*
X5075905Y-4164595D01*
X5079714Y-4166500D01*
X5081619Y-4168405D01*
X5083524Y-4172214D01*
X5085429Y-4179833D01*
X5085429Y-4189357D01*
X5083524Y-4196976D01*
X5081619Y-4200786D01*
X5079714Y-4202690D01*
X5075905Y-4204595D01*
X5072095Y-4204595D01*
X5068286Y-4202690D01*
X5066381Y-4200786D01*
X5064476Y-4196976D01*
X5062571Y-4189357D01*
X5062571Y-4179833D01*
X5064476Y-4172214D01*
X5066381Y-4168405D01*
X5068286Y-4166500D01*
X5072095Y-4164595D01*
X6868333Y-4018095D02*
X6855000Y-3999048D01*
X6845476Y-4018095D02*
X6845476Y-3978095D01*
X6860714Y-3978095D01*
X6864524Y-3980000D01*
X6866429Y-3981905D01*
X6868333Y-3985714D01*
X6868333Y-3991429D01*
X6866429Y-3995238D01*
X6864524Y-3997143D01*
X6860714Y-3999048D01*
X6845476Y-3999048D01*
X6881667Y-3978095D02*
X6906429Y-3978095D01*
X6893095Y-3993333D01*
X6898810Y-3993333D01*
X6902619Y-3995238D01*
X6904524Y-3997143D01*
X6906429Y-4000952D01*
X6906429Y-4010476D01*
X6904524Y-4014286D01*
X6902619Y-4016190D01*
X6898810Y-4018095D01*
X6887381Y-4018095D01*
X6883571Y-4016190D01*
X6881667Y-4014286D01*
X4343333Y-4693095D02*
X4330000Y-4674048D01*
X4320476Y-4693095D02*
X4320476Y-4653095D01*
X4335714Y-4653095D01*
X4339524Y-4655000D01*
X4341429Y-4656905D01*
X4343333Y-4660714D01*
X4343333Y-4666429D01*
X4341429Y-4670238D01*
X4339524Y-4672143D01*
X4335714Y-4674048D01*
X4320476Y-4674048D01*
X4377619Y-4666429D02*
X4377619Y-4693095D01*
X4368095Y-4651190D02*
X4358571Y-4679762D01*
X4383333Y-4679762D01*
X4343333Y-4568095D02*
X4330000Y-4549048D01*
X4320476Y-4568095D02*
X4320476Y-4528095D01*
X4335714Y-4528095D01*
X4339524Y-4530000D01*
X4341429Y-4531905D01*
X4343333Y-4535714D01*
X4343333Y-4541429D01*
X4341429Y-4545238D01*
X4339524Y-4547143D01*
X4335714Y-4549048D01*
X4320476Y-4549048D01*
X4379524Y-4528095D02*
X4360476Y-4528095D01*
X4358571Y-4547143D01*
X4360476Y-4545238D01*
X4364286Y-4543333D01*
X4373810Y-4543333D01*
X4377619Y-4545238D01*
X4379524Y-4547143D01*
X4381429Y-4550952D01*
X4381429Y-4560476D01*
X4379524Y-4564286D01*
X4377619Y-4566190D01*
X4373810Y-4568095D01*
X4364286Y-4568095D01*
X4360476Y-4566190D01*
X4358571Y-4564286D01*
X6418333Y-4343095D02*
X6405000Y-4324048D01*
X6395476Y-4343095D02*
X6395476Y-4303095D01*
X6410714Y-4303095D01*
X6414524Y-4305000D01*
X6416429Y-4306905D01*
X6418333Y-4310714D01*
X6418333Y-4316429D01*
X6416429Y-4320238D01*
X6414524Y-4322143D01*
X6410714Y-4324048D01*
X6395476Y-4324048D01*
X6452619Y-4303095D02*
X6445000Y-4303095D01*
X6441191Y-4305000D01*
X6439286Y-4306905D01*
X6435476Y-4312619D01*
X6433571Y-4320238D01*
X6433571Y-4335476D01*
X6435476Y-4339286D01*
X6437381Y-4341190D01*
X6441191Y-4343095D01*
X6448810Y-4343095D01*
X6452619Y-4341190D01*
X6454524Y-4339286D01*
X6456429Y-4335476D01*
X6456429Y-4325952D01*
X6454524Y-4322143D01*
X6452619Y-4320238D01*
X6448810Y-4318333D01*
X6441191Y-4318333D01*
X6437381Y-4320238D01*
X6435476Y-4322143D01*
X6433571Y-4325952D01*
X7421667Y-4041190D02*
X7427381Y-4043095D01*
X7436905Y-4043095D01*
X7440714Y-4041190D01*
X7442619Y-4039286D01*
X7444524Y-4035476D01*
X7444524Y-4031667D01*
X7442619Y-4027857D01*
X7440714Y-4025952D01*
X7436905Y-4024048D01*
X7429286Y-4022143D01*
X7425476Y-4020238D01*
X7423571Y-4018333D01*
X7421667Y-4014524D01*
X7421667Y-4010714D01*
X7423571Y-4006905D01*
X7425476Y-4005000D01*
X7429286Y-4003095D01*
X7438810Y-4003095D01*
X7444524Y-4005000D01*
X7457857Y-4003095D02*
X7467381Y-4043095D01*
X7475000Y-4014524D01*
X7482619Y-4043095D01*
X7492143Y-4003095D01*
X7528333Y-4043095D02*
X7505476Y-4043095D01*
X7516905Y-4043095D02*
X7516905Y-4003095D01*
X7513095Y-4008810D01*
X7509286Y-4012619D01*
X7505476Y-4014524D01*
X5317619Y-5478095D02*
X5344286Y-5518095D01*
X5344286Y-5478095D02*
X5317619Y-5518095D01*
X5380476Y-5518095D02*
X5357619Y-5518095D01*
X5369048Y-5518095D02*
X5369048Y-5478095D01*
X5365238Y-5483810D01*
X5361429Y-5487619D01*
X5357619Y-5489524D01*
X5643333Y-4243095D02*
X5630000Y-4224048D01*
X5620476Y-4243095D02*
X5620476Y-4203095D01*
X5635714Y-4203095D01*
X5639524Y-4205000D01*
X5641429Y-4206905D01*
X5643333Y-4210714D01*
X5643333Y-4216429D01*
X5641429Y-4220238D01*
X5639524Y-4222143D01*
X5635714Y-4224048D01*
X5620476Y-4224048D01*
X5656667Y-4203095D02*
X5683333Y-4203095D01*
X5666191Y-4243095D01*
X5546819Y-4274695D02*
X5573486Y-4314695D01*
X5573486Y-4274695D02*
X5546819Y-4314695D01*
X5586819Y-4278505D02*
X5588724Y-4276600D01*
X5592533Y-4274695D01*
X5602057Y-4274695D01*
X5605867Y-4276600D01*
X5607771Y-4278505D01*
X5609676Y-4282314D01*
X5609676Y-4286124D01*
X5607771Y-4291838D01*
X5584914Y-4314695D01*
X5609676Y-4314695D01*
X7468333Y-4389286D02*
X7466429Y-4391190D01*
X7460714Y-4393095D01*
X7456905Y-4393095D01*
X7451191Y-4391190D01*
X7447381Y-4387381D01*
X7445476Y-4383571D01*
X7443571Y-4375952D01*
X7443571Y-4370238D01*
X7445476Y-4362619D01*
X7447381Y-4358810D01*
X7451191Y-4355000D01*
X7456905Y-4353095D01*
X7460714Y-4353095D01*
X7466429Y-4355000D01*
X7468333Y-4356905D01*
X7487381Y-4393095D02*
X7495000Y-4393095D01*
X7498810Y-4391190D01*
X7500714Y-4389286D01*
X7504524Y-4383571D01*
X7506429Y-4375952D01*
X7506429Y-4360714D01*
X7504524Y-4356905D01*
X7502619Y-4355000D01*
X7498810Y-4353095D01*
X7491191Y-4353095D01*
X7487381Y-4355000D01*
X7485476Y-4356905D01*
X7483571Y-4360714D01*
X7483571Y-4370238D01*
X7485476Y-4374048D01*
X7487381Y-4375952D01*
X7491191Y-4377857D01*
X7498810Y-4377857D01*
X7502619Y-4375952D01*
X7504524Y-4374048D01*
X7506429Y-4370238D01*
X7374286Y-4264286D02*
X7372381Y-4266190D01*
X7366667Y-4268095D01*
X7362857Y-4268095D01*
X7357143Y-4266190D01*
X7353333Y-4262381D01*
X7351429Y-4258571D01*
X7349524Y-4250952D01*
X7349524Y-4245238D01*
X7351429Y-4237619D01*
X7353333Y-4233810D01*
X7357143Y-4230000D01*
X7362857Y-4228095D01*
X7366667Y-4228095D01*
X7372381Y-4230000D01*
X7374286Y-4231905D01*
X7412381Y-4268095D02*
X7389524Y-4268095D01*
X7400952Y-4268095D02*
X7400952Y-4228095D01*
X7397143Y-4233810D01*
X7393333Y-4237619D01*
X7389524Y-4239524D01*
X7437143Y-4228095D02*
X7440952Y-4228095D01*
X7444762Y-4230000D01*
X7446667Y-4231905D01*
X7448571Y-4235714D01*
X7450476Y-4243333D01*
X7450476Y-4252857D01*
X7448571Y-4260476D01*
X7446667Y-4264286D01*
X7444762Y-4266190D01*
X7440952Y-4268095D01*
X7437143Y-4268095D01*
X7433333Y-4266190D01*
X7431429Y-4264286D01*
X7429524Y-4260476D01*
X7427619Y-4252857D01*
X7427619Y-4243333D01*
X7429524Y-4235714D01*
X7431429Y-4231905D01*
X7433333Y-4230000D01*
X7437143Y-4228095D01*
X5669524Y-4328095D02*
X5669524Y-4360476D01*
X5671429Y-4364286D01*
X5673333Y-4366190D01*
X5677143Y-4368095D01*
X5684762Y-4368095D01*
X5688571Y-4366190D01*
X5690476Y-4364286D01*
X5692381Y-4360476D01*
X5692381Y-4328095D01*
X5732381Y-4368095D02*
X5709524Y-4368095D01*
X5720952Y-4368095D02*
X5720952Y-4328095D01*
X5717143Y-4333810D01*
X5713333Y-4337619D01*
X5709524Y-4339524D01*
X6894524Y-4878095D02*
X6894524Y-4910476D01*
X6896429Y-4914286D01*
X6898333Y-4916190D01*
X6902143Y-4918095D01*
X6909762Y-4918095D01*
X6913571Y-4916190D01*
X6915476Y-4914286D01*
X6917381Y-4910476D01*
X6917381Y-4878095D01*
X6934524Y-4881905D02*
X6936429Y-4880000D01*
X6940238Y-4878095D01*
X6949762Y-4878095D01*
X6953571Y-4880000D01*
X6955476Y-4881905D01*
X6957381Y-4885714D01*
X6957381Y-4889524D01*
X6955476Y-4895238D01*
X6932619Y-4918095D01*
X6957381Y-4918095D01*
X7319524Y-5103095D02*
X7319524Y-5135476D01*
X7321429Y-5139286D01*
X7323333Y-5141190D01*
X7327143Y-5143095D01*
X7334762Y-5143095D01*
X7338571Y-5141190D01*
X7340476Y-5139286D01*
X7342381Y-5135476D01*
X7342381Y-5103095D01*
X7357619Y-5103095D02*
X7382381Y-5103095D01*
X7369048Y-5118333D01*
X7374762Y-5118333D01*
X7378571Y-5120238D01*
X7380476Y-5122143D01*
X7382381Y-5125952D01*
X7382381Y-5135476D01*
X7380476Y-5139286D01*
X7378571Y-5141190D01*
X7374762Y-5143095D01*
X7363333Y-5143095D01*
X7359524Y-5141190D01*
X7357619Y-5139286D01*
X7394524Y-4453095D02*
X7394524Y-4485476D01*
X7396429Y-4489286D01*
X7398333Y-4491190D01*
X7402143Y-4493095D01*
X7409762Y-4493095D01*
X7413571Y-4491190D01*
X7415476Y-4489286D01*
X7417381Y-4485476D01*
X7417381Y-4453095D01*
X7453571Y-4466429D02*
X7453571Y-4493095D01*
X7444048Y-4451190D02*
X7434524Y-4479762D01*
X7459286Y-4479762D01*
X3994524Y-4703095D02*
X3994524Y-4735476D01*
X3996429Y-4739286D01*
X3998333Y-4741190D01*
X4002143Y-4743095D01*
X4009762Y-4743095D01*
X4013571Y-4741190D01*
X4015476Y-4739286D01*
X4017381Y-4735476D01*
X4017381Y-4703095D01*
X4055476Y-4703095D02*
X4036429Y-4703095D01*
X4034524Y-4722143D01*
X4036429Y-4720238D01*
X4040238Y-4718333D01*
X4049762Y-4718333D01*
X4053571Y-4720238D01*
X4055476Y-4722143D01*
X4057381Y-4725952D01*
X4057381Y-4735476D01*
X4055476Y-4739286D01*
X4053571Y-4741190D01*
X4049762Y-4743095D01*
X4040238Y-4743095D01*
X4036429Y-4741190D01*
X4034524Y-4739286D01*
X7268333Y-5418095D02*
X7255000Y-5399048D01*
X7245476Y-5418095D02*
X7245476Y-5378095D01*
X7260714Y-5378095D01*
X7264524Y-5380000D01*
X7266429Y-5381905D01*
X7268333Y-5385714D01*
X7268333Y-5391429D01*
X7266429Y-5395238D01*
X7264524Y-5397143D01*
X7260714Y-5399048D01*
X7245476Y-5399048D01*
X7306429Y-5418095D02*
X7283571Y-5418095D01*
X7295000Y-5418095D02*
X7295000Y-5378095D01*
X7291191Y-5383810D01*
X7287381Y-5387619D01*
X7283571Y-5389524D01*
X6824286Y-4705624D02*
X6822381Y-4707529D01*
X6816667Y-4709434D01*
X6812857Y-4709434D01*
X6807143Y-4707529D01*
X6803333Y-4703720D01*
X6801429Y-4699910D01*
X6799524Y-4692291D01*
X6799524Y-4686577D01*
X6801429Y-4678958D01*
X6803333Y-4675148D01*
X6807143Y-4671339D01*
X6812857Y-4669434D01*
X6816667Y-4669434D01*
X6822381Y-4671339D01*
X6824286Y-4673243D01*
X6862381Y-4709434D02*
X6839524Y-4709434D01*
X6850952Y-4709434D02*
X6850952Y-4669434D01*
X6847143Y-4675148D01*
X6843333Y-4678958D01*
X6839524Y-4680862D01*
X6900476Y-4709434D02*
X6877619Y-4709434D01*
X6889048Y-4709434D02*
X6889048Y-4669434D01*
X6885238Y-4675148D01*
X6881429Y-4678958D01*
X6877619Y-4680862D01*
X6919524Y-4478095D02*
X6919524Y-4510476D01*
X6921429Y-4514286D01*
X6923333Y-4516190D01*
X6927143Y-4518095D01*
X6934762Y-4518095D01*
X6938571Y-4516190D01*
X6940476Y-4514286D01*
X6942381Y-4510476D01*
X6942381Y-4478095D01*
X6978571Y-4478095D02*
X6970952Y-4478095D01*
X6967143Y-4480000D01*
X6965238Y-4481905D01*
X6961429Y-4487619D01*
X6959524Y-4495238D01*
X6959524Y-4510476D01*
X6961429Y-4514286D01*
X6963333Y-4516190D01*
X6967143Y-4518095D01*
X6974762Y-4518095D01*
X6978571Y-4516190D01*
X6980476Y-4514286D01*
X6982381Y-4510476D01*
X6982381Y-4500952D01*
X6980476Y-4497143D01*
X6978571Y-4495238D01*
X6974762Y-4493333D01*
X6967143Y-4493333D01*
X6963333Y-4495238D01*
X6961429Y-4497143D01*
X6959524Y-4500952D01*
X6493333Y-5618095D02*
X6480000Y-5599048D01*
X6470476Y-5618095D02*
X6470476Y-5578095D01*
X6485714Y-5578095D01*
X6489524Y-5580000D01*
X6491429Y-5581905D01*
X6493333Y-5585714D01*
X6493333Y-5591429D01*
X6491429Y-5595238D01*
X6489524Y-5597143D01*
X6485714Y-5599048D01*
X6470476Y-5599048D01*
X6508571Y-5581905D02*
X6510476Y-5580000D01*
X6514286Y-5578095D01*
X6523810Y-5578095D01*
X6527619Y-5580000D01*
X6529524Y-5581905D01*
X6531429Y-5585714D01*
X6531429Y-5589524D01*
X6529524Y-5595238D01*
X6506667Y-5618095D01*
X6531429Y-5618095D01*
X7655941Y-5712781D02*
X7655941Y-5672781D01*
X7655941Y-5691828D02*
X7678798Y-5691828D01*
X7678798Y-5712781D02*
X7678798Y-5672781D01*
X7714989Y-5686114D02*
X7714989Y-5712781D01*
X7705465Y-5670876D02*
X7695941Y-5699447D01*
X7720703Y-5699447D01*
X4112634Y-5712781D02*
X4112634Y-5672781D01*
X4112634Y-5691828D02*
X4135491Y-5691828D01*
X4135491Y-5712781D02*
X4135491Y-5672781D01*
X4150729Y-5672781D02*
X4175491Y-5672781D01*
X4162158Y-5688019D01*
X4167872Y-5688019D01*
X4171682Y-5689924D01*
X4173586Y-5691828D01*
X4175491Y-5695638D01*
X4175491Y-5705162D01*
X4173586Y-5708971D01*
X4171682Y-5710876D01*
X4167872Y-5712781D01*
X4156444Y-5712781D01*
X4152634Y-5710876D01*
X4150729Y-5708971D01*
X7655941Y-4137978D02*
X7655941Y-4097978D01*
X7655941Y-4117025D02*
X7678798Y-4117025D01*
X7678798Y-4137978D02*
X7678798Y-4097978D01*
X7695941Y-4101787D02*
X7697846Y-4099882D01*
X7701655Y-4097978D01*
X7711179Y-4097978D01*
X7714989Y-4099882D01*
X7716894Y-4101787D01*
X7718798Y-4105597D01*
X7718798Y-4109406D01*
X7716894Y-4115120D01*
X7694036Y-4137978D01*
X7718798Y-4137978D01*
X4112634Y-4531678D02*
X4112634Y-4491678D01*
X4112634Y-4510726D02*
X4135491Y-4510726D01*
X4135491Y-4531678D02*
X4135491Y-4491678D01*
X4175491Y-4531678D02*
X4152634Y-4531678D01*
X4164063Y-4531678D02*
X4164063Y-4491678D01*
X4160253Y-4497393D01*
X4156444Y-4501202D01*
X4152634Y-4503107D01*
X6251429Y-5047143D02*
X6257143Y-5049048D01*
X6259048Y-5050952D01*
X6260952Y-5054762D01*
X6260952Y-5060476D01*
X6259048Y-5064286D01*
X6257143Y-5066190D01*
X6253333Y-5068095D01*
X6238095Y-5068095D01*
X6238095Y-5028095D01*
X6251429Y-5028095D01*
X6255238Y-5030000D01*
X6257143Y-5031905D01*
X6259048Y-5035714D01*
X6259048Y-5039524D01*
X6257143Y-5043333D01*
X6255238Y-5045238D01*
X6251429Y-5047143D01*
X6238095Y-5047143D01*
X6276191Y-5056667D02*
X6295238Y-5056667D01*
X6272381Y-5068095D02*
X6285714Y-5028095D01*
X6299048Y-5068095D01*
X6306667Y-5028095D02*
X6329524Y-5028095D01*
X6318095Y-5068095D02*
X6318095Y-5028095D01*
X6363810Y-5068095D02*
X6340952Y-5068095D01*
X6352381Y-5068095D02*
X6352381Y-5028095D01*
X6348571Y-5033810D01*
X6344762Y-5037619D01*
X6340952Y-5039524D01*
M02*
