%FSLAX46Y46*%
G04 Gerber Fmt 4.6, Leading zero omitted, Abs format (unit mm)*
G04 Created by KiCad (PCBNEW (2014-jul-16 BZR unknown)-product) date Sat 04 Oct 2014 10:12:47 PM PDT*
%MOMM*%
G01*
G04 APERTURE LIST*
%ADD10C,0.100000*%
%ADD11C,1.501140*%
%ADD12C,1.998980*%
%ADD13R,1.998980X1.998980*%
%ADD14C,1.524000*%
%ADD15C,6.000000*%
%ADD16R,1.727200X1.727200*%
%ADD17C,1.727200*%
%ADD18O,1.727200X1.727200*%
%ADD19C,2.032000*%
%ADD20R,1.524000X1.524000*%
%ADD21O,1.699260X3.500120*%
%ADD22R,9.652000X15.748000*%
%ADD23R,1.397000X1.397000*%
%ADD24C,1.397000*%
%ADD25C,0.889000*%
%ADD26C,0.203200*%
%ADD27C,1.016000*%
%ADD28C,0.254000*%
G04 APERTURE END LIST*
D10*
D11*
X149860000Y-144780000D03*
X149860000Y-142240000D03*
X160020000Y-139700000D03*
X160020000Y-142240000D03*
X151130000Y-115570000D03*
X148590000Y-115570000D03*
X147320000Y-138430000D03*
X149860000Y-138430000D03*
X184150000Y-132080000D03*
X181610000Y-132080000D03*
X152400000Y-109855000D03*
X149860000Y-109855000D03*
X165735000Y-104140000D03*
X165735000Y-106680000D03*
X162560000Y-106680000D03*
X162560000Y-104140000D03*
D12*
X128905000Y-114935000D03*
D13*
X118745000Y-114935000D03*
D14*
X109855000Y-111760000D03*
X109855000Y-109220000D03*
D15*
X105000000Y-115000000D03*
X195000000Y-105000000D03*
X105000000Y-145000000D03*
X195000000Y-145000000D03*
D16*
X191770000Y-139065000D03*
D17*
X194310000Y-139065000D03*
X196850000Y-139065000D03*
D16*
X114935000Y-114935000D03*
D18*
X114935000Y-117475000D03*
X112395000Y-114935000D03*
X112395000Y-117475000D03*
D19*
X106680000Y-126960000D03*
X106680000Y-121960000D03*
X106680000Y-138390000D03*
X106680000Y-133390000D03*
D20*
X193040000Y-119380000D03*
D14*
X195580000Y-119380000D03*
X193040000Y-121920000D03*
X195580000Y-121920000D03*
X193040000Y-124460000D03*
X195580000Y-124460000D03*
X193040000Y-127000000D03*
X195580000Y-127000000D03*
X193040000Y-129540000D03*
X195580000Y-129540000D03*
D16*
X132080000Y-109855000D03*
D17*
X134620000Y-109855000D03*
X137160000Y-109855000D03*
X139700000Y-109855000D03*
X142240000Y-109855000D03*
X144780000Y-109855000D03*
D16*
X124460000Y-147320000D03*
D17*
X127000000Y-147320000D03*
X129540000Y-147320000D03*
X132080000Y-147320000D03*
X134620000Y-147320000D03*
X137160000Y-147320000D03*
D16*
X142240000Y-142240000D03*
D18*
X144780000Y-142240000D03*
X142240000Y-144780000D03*
X144780000Y-144780000D03*
X142240000Y-147320000D03*
X144780000Y-147320000D03*
D16*
X132080000Y-113665000D03*
D17*
X134620000Y-113665000D03*
X137160000Y-113665000D03*
X139700000Y-113665000D03*
D20*
X168275000Y-145415000D03*
D14*
X168275000Y-142875000D03*
X170815000Y-145415000D03*
X170815000Y-142875000D03*
X173355000Y-145415000D03*
X173355000Y-142875000D03*
X175895000Y-145415000D03*
X175895000Y-142875000D03*
X178435000Y-145415000D03*
X178435000Y-142875000D03*
D16*
X102870000Y-105410000D03*
D18*
X102870000Y-102870000D03*
X105410000Y-105410000D03*
X105410000Y-102870000D03*
X107950000Y-105410000D03*
X107950000Y-102870000D03*
X110490000Y-105410000D03*
X110490000Y-102870000D03*
X113030000Y-105410000D03*
X113030000Y-102870000D03*
X115570000Y-105410000D03*
X115570000Y-102870000D03*
X118110000Y-105410000D03*
X118110000Y-102870000D03*
X120650000Y-105410000D03*
X120650000Y-102870000D03*
X123190000Y-105410000D03*
X123190000Y-102870000D03*
X125730000Y-105410000D03*
X125730000Y-102870000D03*
X128270000Y-105410000D03*
X128270000Y-102870000D03*
X130810000Y-105410000D03*
X130810000Y-102870000D03*
X133350000Y-105410000D03*
X133350000Y-102870000D03*
X135890000Y-105410000D03*
X135890000Y-102870000D03*
X138430000Y-105410000D03*
X138430000Y-102870000D03*
X140970000Y-105410000D03*
X140970000Y-102870000D03*
X143510000Y-105410000D03*
X143510000Y-102870000D03*
X146050000Y-105410000D03*
X146050000Y-102870000D03*
X148590000Y-105410000D03*
X148590000Y-102870000D03*
X151130000Y-105410000D03*
X151130000Y-102870000D03*
X153670000Y-105410000D03*
X153670000Y-102870000D03*
X156210000Y-105410000D03*
X156210000Y-102870000D03*
X158750000Y-105410000D03*
X158750000Y-102870000D03*
D21*
X116205000Y-128270000D03*
X118745000Y-128270000D03*
X113665000Y-128270000D03*
D22*
X116205000Y-140208000D03*
D12*
X177800000Y-136525000D03*
X187960000Y-136525000D03*
X121285000Y-118110000D03*
X121285000Y-128270000D03*
X114300000Y-108585000D03*
X124460000Y-108585000D03*
X114300000Y-111760000D03*
X124460000Y-111760000D03*
D13*
X187960000Y-148031200D03*
D12*
X187960000Y-141528800D03*
D23*
X170815000Y-109220000D03*
D24*
X173355000Y-109220000D03*
X175895000Y-109220000D03*
X178435000Y-109220000D03*
X180975000Y-109220000D03*
X183515000Y-109220000D03*
X186055000Y-109220000D03*
X186055000Y-101600000D03*
X183515000Y-101600000D03*
X180975000Y-101600000D03*
X178435000Y-101600000D03*
X175895000Y-101600000D03*
X173355000Y-101600000D03*
X170815000Y-101600000D03*
D23*
X179070000Y-120650000D03*
D24*
X179070000Y-123190000D03*
X179070000Y-125730000D03*
X179070000Y-128270000D03*
X186690000Y-128270000D03*
X186690000Y-125730000D03*
X186690000Y-123190000D03*
X186690000Y-120650000D03*
D23*
X125730000Y-134620000D03*
D24*
X128270000Y-134620000D03*
X130810000Y-134620000D03*
X133350000Y-134620000D03*
X135890000Y-134620000D03*
X138430000Y-134620000D03*
X140970000Y-134620000D03*
X143510000Y-134620000D03*
X146050000Y-134620000D03*
X148590000Y-134620000D03*
X151130000Y-134620000D03*
X153670000Y-134620000D03*
X156210000Y-134620000D03*
X158750000Y-134620000D03*
X161290000Y-134620000D03*
X163830000Y-134620000D03*
X166370000Y-134620000D03*
X168910000Y-134620000D03*
X171450000Y-134620000D03*
X173990000Y-134620000D03*
X173990000Y-119380000D03*
X171450000Y-119380000D03*
X168910000Y-119380000D03*
X166370000Y-119380000D03*
X163830000Y-119380000D03*
X161290000Y-119380000D03*
X158750000Y-119380000D03*
X156210000Y-119380000D03*
X153670000Y-119380000D03*
X151130000Y-119380000D03*
X148590000Y-119380000D03*
X146050000Y-119380000D03*
X143510000Y-119380000D03*
X140970000Y-119380000D03*
X138430000Y-119380000D03*
X135890000Y-119380000D03*
X133350000Y-119380000D03*
X130810000Y-119380000D03*
X128270000Y-119380000D03*
X125730000Y-119380000D03*
D11*
X154940000Y-144680940D03*
X154940000Y-139799060D03*
D16*
X170815000Y-112395000D03*
D17*
X173355000Y-112395000D03*
X175895000Y-112395000D03*
X178435000Y-112395000D03*
X180975000Y-112395000D03*
D12*
X141605000Y-116840000D03*
X131445000Y-116840000D03*
X156210000Y-109855000D03*
X166370000Y-109855000D03*
D16*
X170815000Y-116205000D03*
D17*
X173355000Y-116205000D03*
X175895000Y-116205000D03*
X178435000Y-116205000D03*
X180975000Y-116205000D03*
D16*
X113030000Y-122555000D03*
D17*
X115570000Y-122555000D03*
X118110000Y-122555000D03*
D25*
X139700000Y-106680000D03*
X142240000Y-106680000D03*
X172872400Y-106680000D03*
X172720000Y-104140000D03*
X177126900Y-106680000D03*
X124460000Y-118110000D03*
X121920000Y-120650000D03*
X136525000Y-116840000D03*
X160020000Y-109855000D03*
X186055000Y-118110000D03*
X171450000Y-127000000D03*
X163830000Y-127000000D03*
X160655000Y-127000000D03*
X167640000Y-127000000D03*
X133350000Y-127000000D03*
X129540000Y-127000000D03*
X148590000Y-127000000D03*
X154305000Y-127000000D03*
X181610000Y-140335000D03*
X129540000Y-133350000D03*
X140335000Y-143510000D03*
X167640000Y-130810000D03*
X165100000Y-130810000D03*
X161290000Y-130810000D03*
X177165000Y-104775000D03*
X173355000Y-129540000D03*
X132080000Y-132080000D03*
X172720000Y-133350000D03*
X172720000Y-132080000D03*
X176530000Y-119380000D03*
X157480000Y-121285000D03*
X162560000Y-116205000D03*
X130810000Y-131445000D03*
X187960000Y-130810000D03*
D26*
X149860000Y-144780000D02*
X154840940Y-144780000D01*
X154840940Y-144780000D02*
X154940000Y-144680940D01*
X142240000Y-106680000D02*
X139700000Y-106680000D01*
D27*
X118745000Y-126365000D02*
X115570000Y-123190000D01*
X115570000Y-123190000D02*
X115570000Y-122555000D01*
X115570000Y-121285000D02*
X114935000Y-120650000D01*
X107990000Y-120650000D02*
X106680000Y-121960000D01*
X114935000Y-120650000D02*
X107990000Y-120650000D01*
X121920000Y-120650000D02*
X116205000Y-120650000D01*
X124460000Y-118110000D02*
X121920000Y-120650000D01*
X115570000Y-121285000D02*
X115570000Y-122555000D01*
X116205000Y-120650000D02*
X115570000Y-121285000D01*
X132080000Y-113665000D02*
X132715000Y-114300000D01*
X132715000Y-114300000D02*
X132715000Y-114935000D01*
X134620000Y-116840000D02*
X136525000Y-116840000D01*
X132715000Y-114935000D02*
X134620000Y-116840000D01*
X132080000Y-109855000D02*
X132080000Y-113665000D01*
X148590000Y-115570000D02*
X148590000Y-114935000D01*
X148590000Y-114935000D02*
X149860000Y-113665000D01*
X156210000Y-113665000D02*
X160020000Y-109855000D01*
X149860000Y-113665000D02*
X156210000Y-113665000D01*
X179070000Y-123190000D02*
X180975000Y-123190000D01*
X180975000Y-123190000D02*
X186055000Y-118110000D01*
X191135000Y-121920000D02*
X193040000Y-121920000D01*
X186055000Y-118110000D02*
X187325000Y-118110000D01*
X187325000Y-118110000D02*
X191135000Y-121920000D01*
X181610000Y-132080000D02*
X179705000Y-132080000D01*
X167640000Y-127000000D02*
X163830000Y-127000000D01*
X160655000Y-127000000D02*
X154305000Y-127000000D01*
X163830000Y-127000000D02*
X160655000Y-127000000D01*
X171450000Y-127000000D02*
X167640000Y-127000000D01*
X174625000Y-127000000D02*
X171450000Y-127000000D01*
X179705000Y-132080000D02*
X174625000Y-127000000D01*
X129540000Y-127000000D02*
X126365000Y-127000000D01*
X126365000Y-127000000D02*
X125095000Y-125730000D01*
X125095000Y-125730000D02*
X119380000Y-125730000D01*
X119380000Y-125730000D02*
X118745000Y-126365000D01*
X118745000Y-126365000D02*
X118745000Y-128270000D01*
X129540000Y-127000000D02*
X133350000Y-127000000D01*
X133350000Y-127000000D02*
X148590000Y-127000000D01*
X154305000Y-127000000D02*
X148590000Y-127000000D01*
X160020000Y-142240000D02*
X160655000Y-142240000D01*
X149860000Y-142240000D02*
X160020000Y-142240000D01*
X195580000Y-121920000D02*
X193040000Y-121920000D01*
X180340000Y-144145000D02*
X179070000Y-142875000D01*
X180340000Y-146685000D02*
X180340000Y-144145000D01*
X179705000Y-147320000D02*
X180340000Y-146685000D01*
X179070000Y-142875000D02*
X178435000Y-142875000D01*
X183515000Y-106680000D02*
X177126900Y-106680000D01*
X177126900Y-106680000D02*
X172872400Y-106680000D01*
X172872400Y-106680000D02*
X165735000Y-106680000D01*
X186055000Y-109220000D02*
X183515000Y-106680000D01*
X165735000Y-142240000D02*
X160020000Y-142240000D01*
X167640000Y-142240000D02*
X165735000Y-142240000D01*
X168275000Y-142875000D02*
X167640000Y-142240000D01*
X167005000Y-147320000D02*
X165735000Y-146050000D01*
X165735000Y-146050000D02*
X165735000Y-142240000D01*
X179705000Y-147320000D02*
X167005000Y-147320000D01*
D26*
X160020000Y-139700000D02*
X155039060Y-139700000D01*
X155039060Y-139700000D02*
X154940000Y-139799060D01*
X128905000Y-114935000D02*
X124460000Y-114935000D01*
X124460000Y-114935000D02*
X121285000Y-118110000D01*
X128905000Y-114935000D02*
X128905000Y-109855000D01*
X128905000Y-109855000D02*
X130810000Y-107950000D01*
X146050000Y-134620000D02*
X147320000Y-135890000D01*
X185496200Y-139065000D02*
X187960000Y-141528800D01*
X167005000Y-139065000D02*
X185496200Y-139065000D01*
X163830000Y-135890000D02*
X167005000Y-139065000D01*
X147320000Y-135890000D02*
X163830000Y-135890000D01*
X153035000Y-106680000D02*
X149860000Y-109855000D01*
X162560000Y-106680000D02*
X153035000Y-106680000D01*
X147955000Y-107950000D02*
X130810000Y-107950000D01*
X149860000Y-109855000D02*
X147955000Y-107950000D01*
D27*
X175895000Y-122555000D02*
X152400000Y-122555000D01*
X179070000Y-125730000D02*
X175895000Y-122555000D01*
X144780000Y-142240000D02*
X146050000Y-140970000D01*
X146050000Y-139700000D02*
X147320000Y-138430000D01*
X146050000Y-140335000D02*
X146050000Y-139700000D01*
X146050000Y-140970000D02*
X146050000Y-140335000D01*
X151130000Y-121285000D02*
X152400000Y-122555000D01*
X118110000Y-122555000D02*
X149860000Y-122555000D01*
X151130000Y-121285000D02*
X151130000Y-119380000D01*
X149860000Y-122555000D02*
X151130000Y-121285000D01*
X170815000Y-142875000D02*
X170815000Y-141605000D01*
X172085000Y-140335000D02*
X181610000Y-140335000D01*
X170815000Y-141605000D02*
X172085000Y-140335000D01*
X186690000Y-128270000D02*
X181610000Y-128270000D01*
X181610000Y-128270000D02*
X179070000Y-125730000D01*
X170815000Y-101600000D02*
X173355000Y-101600000D01*
X158750000Y-115570000D02*
X161290000Y-113030000D01*
X161290000Y-113030000D02*
X167640000Y-113030000D01*
X167640000Y-113030000D02*
X168275000Y-112395000D01*
X168275000Y-112395000D02*
X170815000Y-112395000D01*
X151130000Y-115570000D02*
X158750000Y-115570000D01*
X121285000Y-114935000D02*
X124460000Y-111760000D01*
X118745000Y-114935000D02*
X121285000Y-114935000D01*
D26*
X191770000Y-139065000D02*
X190500000Y-139065000D01*
X190500000Y-139065000D02*
X187960000Y-136525000D01*
X168275000Y-140970000D02*
X167640000Y-140970000D01*
X167640000Y-140970000D02*
X163195000Y-136525000D01*
X143510000Y-134620000D02*
X142240000Y-133350000D01*
X142240000Y-133350000D02*
X129540000Y-133350000D01*
X173355000Y-142875000D02*
X172085000Y-144145000D01*
X145415000Y-136525000D02*
X143510000Y-134620000D01*
X172085000Y-144145000D02*
X170180000Y-144145000D01*
X169545000Y-143510000D02*
X169545000Y-142240000D01*
X169545000Y-142240000D02*
X168275000Y-140970000D01*
X163195000Y-136525000D02*
X145415000Y-136525000D01*
X170180000Y-144145000D02*
X169545000Y-143510000D01*
X144780000Y-144780000D02*
X143510000Y-143510000D01*
X143510000Y-143510000D02*
X140335000Y-143510000D01*
X167640000Y-130810000D02*
X165100000Y-130810000D01*
X162560000Y-129540000D02*
X161290000Y-130810000D01*
X173355000Y-129540000D02*
X162560000Y-129540000D01*
X180340000Y-104775000D02*
X177165000Y-104775000D01*
X180340000Y-104775000D02*
X183515000Y-101600000D01*
X158750000Y-132080000D02*
X132080000Y-132080000D01*
X161290000Y-134620000D02*
X158750000Y-132080000D01*
X172720000Y-135255000D02*
X172085000Y-135890000D01*
X165100000Y-135890000D02*
X172085000Y-135890000D01*
X163830000Y-134620000D02*
X165100000Y-135890000D01*
X172720000Y-135255000D02*
X172720000Y-133350000D01*
X172720000Y-132080000D02*
X170815000Y-132080000D01*
X170815000Y-132080000D02*
X169545000Y-133350000D01*
X167640000Y-133350000D02*
X169545000Y-133350000D01*
X166370000Y-134620000D02*
X167640000Y-133350000D01*
X176530000Y-119380000D02*
X174625000Y-121285000D01*
X174625000Y-121285000D02*
X157480000Y-121285000D01*
X179070000Y-114300000D02*
X169545000Y-114300000D01*
X162560000Y-114935000D02*
X160020000Y-117475000D01*
X160020000Y-117475000D02*
X144780000Y-117475000D01*
X144780000Y-117475000D02*
X142240000Y-114935000D01*
X142240000Y-114935000D02*
X141605000Y-114935000D01*
X141605000Y-114935000D02*
X140970000Y-115570000D01*
X180975000Y-112395000D02*
X179070000Y-114300000D01*
X168910000Y-114935000D02*
X162560000Y-114935000D01*
X169545000Y-114300000D02*
X168910000Y-114935000D01*
X134620000Y-114935000D02*
X135255000Y-115570000D01*
X135255000Y-115570000D02*
X140970000Y-115570000D01*
X134620000Y-113665000D02*
X134620000Y-114935000D01*
X156210000Y-109855000D02*
X154305000Y-111760000D01*
X139065000Y-111760000D02*
X137160000Y-113665000D01*
X154305000Y-111760000D02*
X139065000Y-111760000D01*
X175895000Y-116205000D02*
X174625000Y-114935000D01*
X169545000Y-114935000D02*
X168275000Y-116205000D01*
X168275000Y-116205000D02*
X162560000Y-116205000D01*
X174625000Y-114935000D02*
X169545000Y-114935000D01*
X174625000Y-102870000D02*
X175895000Y-101600000D01*
X161290000Y-102870000D02*
X174625000Y-102870000D01*
X160020000Y-104140000D02*
X161290000Y-102870000D01*
X142240000Y-104140000D02*
X160020000Y-104140000D01*
X140970000Y-105410000D02*
X142240000Y-104140000D01*
X195580000Y-124460000D02*
X194310000Y-125730000D01*
X194310000Y-125730000D02*
X186690000Y-125730000D01*
X193040000Y-124460000D02*
X191770000Y-124460000D01*
X190500000Y-123190000D02*
X186690000Y-123190000D01*
X191770000Y-124460000D02*
X190500000Y-123190000D01*
D27*
X116205000Y-128270000D02*
X116205000Y-126365000D01*
X108545000Y-125095000D02*
X106680000Y-126960000D01*
X114935000Y-125095000D02*
X108545000Y-125095000D01*
X116205000Y-126365000D02*
X114935000Y-125095000D01*
D26*
X161290000Y-107950000D02*
X174625000Y-107950000D01*
X174625000Y-107950000D02*
X175895000Y-109220000D01*
X160426402Y-107086402D02*
X155168598Y-107086402D01*
X155168598Y-107086402D02*
X152400000Y-109855000D01*
X161290000Y-107950000D02*
X160426402Y-107086402D01*
X163830000Y-105410000D02*
X174625000Y-105410000D01*
X174625000Y-105410000D02*
X178435000Y-101600000D01*
X162560000Y-104140000D02*
X163830000Y-105410000D01*
X187960000Y-130810000D02*
X184785000Y-133985000D01*
X176530000Y-133985000D02*
X173355000Y-130810000D01*
X184785000Y-133985000D02*
X176530000Y-133985000D01*
X169545000Y-130810000D02*
X173355000Y-130810000D01*
X168275000Y-132080000D02*
X169545000Y-130810000D01*
X160655000Y-132080000D02*
X168275000Y-132080000D01*
X159385000Y-130810000D02*
X160655000Y-132080000D01*
X131445000Y-130810000D02*
X159385000Y-130810000D01*
X130810000Y-131445000D02*
X131445000Y-130810000D01*
X154305000Y-109220000D02*
X154305000Y-109855000D01*
X147955000Y-109855000D02*
X144780000Y-109855000D01*
X149225000Y-111125000D02*
X147955000Y-109855000D01*
X153035000Y-111125000D02*
X149225000Y-111125000D01*
X154305000Y-109855000D02*
X153035000Y-111125000D01*
X172085000Y-111125000D02*
X168275000Y-111125000D01*
X168275000Y-111125000D02*
X167640000Y-111760000D01*
X173355000Y-112395000D02*
X172085000Y-111125000D01*
X163195000Y-111760000D02*
X159385000Y-107950000D01*
X159385000Y-107950000D02*
X155575000Y-107950000D01*
X155575000Y-107950000D02*
X154305000Y-109220000D01*
X167640000Y-111760000D02*
X163195000Y-111760000D01*
X174625000Y-113665000D02*
X168910000Y-113665000D01*
X168910000Y-113665000D02*
X168275000Y-114300000D01*
X168275000Y-114300000D02*
X161925000Y-114300000D01*
X161925000Y-114300000D02*
X159385000Y-116840000D01*
X159385000Y-116840000D02*
X145415000Y-116840000D01*
X175895000Y-112395000D02*
X174625000Y-113665000D01*
X137795000Y-111760000D02*
X136525000Y-111760000D01*
X136525000Y-111760000D02*
X135890000Y-112395000D01*
X142875000Y-114300000D02*
X145415000Y-116840000D01*
X135890000Y-114300000D02*
X135890000Y-112395000D01*
X136555130Y-114965130D02*
X135890000Y-114300000D01*
X140939870Y-114965130D02*
X136555130Y-114965130D01*
X141605000Y-114300000D02*
X140939870Y-114965130D01*
X142875000Y-114300000D02*
X141605000Y-114300000D01*
X139700000Y-109855000D02*
X137795000Y-111760000D01*
X171450000Y-118110000D02*
X142875000Y-118110000D01*
X142875000Y-118110000D02*
X141605000Y-116840000D01*
X173355000Y-116205000D02*
X171450000Y-118110000D01*
X186690000Y-110490000D02*
X187325000Y-109855000D01*
X187325000Y-109855000D02*
X187325000Y-106680000D01*
X187325000Y-106680000D02*
X186055000Y-105410000D01*
X186055000Y-105410000D02*
X186055000Y-101600000D01*
X168910000Y-110490000D02*
X186690000Y-110490000D01*
X166370000Y-109855000D02*
X167005000Y-110490000D01*
X168275000Y-109855000D02*
X168910000Y-110490000D01*
X166370000Y-109855000D02*
X168275000Y-109855000D01*
X186690000Y-134620000D02*
X189230000Y-132080000D01*
X189230000Y-132080000D02*
X189230000Y-128270000D01*
X189230000Y-128270000D02*
X187960000Y-127000000D01*
X187960000Y-127000000D02*
X186055000Y-127000000D01*
X186055000Y-127000000D02*
X184785000Y-125730000D01*
X184785000Y-125730000D02*
X184785000Y-122555000D01*
X184785000Y-122555000D02*
X186690000Y-120650000D01*
X173990000Y-134620000D02*
X186690000Y-134620000D01*
D28*
G36*
X136261242Y-111075864D02*
X136243115Y-111079470D01*
X136004145Y-111239145D01*
X135369145Y-111874145D01*
X135209470Y-112113115D01*
X135177501Y-112273834D01*
X134919398Y-112166661D01*
X134323218Y-112166141D01*
X133772220Y-112393808D01*
X133747314Y-112418669D01*
X133697258Y-112297822D01*
X133447178Y-112047742D01*
X133120433Y-111912400D01*
X132327650Y-111912400D01*
X132105400Y-112134650D01*
X132105400Y-113639600D01*
X132125400Y-113639600D01*
X132125400Y-113690400D01*
X132105400Y-113690400D01*
X132105400Y-113710400D01*
X132054600Y-113710400D01*
X132054600Y-113690400D01*
X132054600Y-113639600D01*
X132054600Y-112134650D01*
X132054600Y-111385350D01*
X132054600Y-109880400D01*
X130549650Y-109880400D01*
X130327400Y-110102650D01*
X130327400Y-110541767D01*
X130327400Y-110895433D01*
X130462742Y-111222178D01*
X130712822Y-111472258D01*
X131039567Y-111607600D01*
X131832350Y-111607600D01*
X132054600Y-111385350D01*
X132054600Y-112134650D01*
X131832350Y-111912400D01*
X131039567Y-111912400D01*
X130712822Y-112047742D01*
X130462742Y-112297822D01*
X130327400Y-112624567D01*
X130327400Y-112978233D01*
X130327400Y-113417350D01*
X130549650Y-113639600D01*
X132054600Y-113639600D01*
X132054600Y-113690400D01*
X130549650Y-113690400D01*
X130327400Y-113912650D01*
X130327400Y-114097321D01*
X130291462Y-114010345D01*
X129832073Y-113550154D01*
X129641600Y-113471062D01*
X129641600Y-110160110D01*
X130327400Y-109474310D01*
X130327400Y-109607350D01*
X130549650Y-109829600D01*
X132054600Y-109829600D01*
X132054600Y-109809600D01*
X132105400Y-109809600D01*
X132105400Y-109829600D01*
X132125400Y-109829600D01*
X132125400Y-109880400D01*
X132105400Y-109880400D01*
X132105400Y-111385350D01*
X132327650Y-111607600D01*
X133120433Y-111607600D01*
X133447178Y-111472258D01*
X133697258Y-111222178D01*
X133747123Y-111101790D01*
X133770003Y-111124710D01*
X134320602Y-111353339D01*
X134916782Y-111353859D01*
X135467780Y-111126192D01*
X135889710Y-110704997D01*
X135890095Y-110704069D01*
X136261242Y-111075864D01*
X136261242Y-111075864D01*
G37*
X136261242Y-111075864D02*
X136243115Y-111079470D01*
X136004145Y-111239145D01*
X135369145Y-111874145D01*
X135209470Y-112113115D01*
X135177501Y-112273834D01*
X134919398Y-112166661D01*
X134323218Y-112166141D01*
X133772220Y-112393808D01*
X133747314Y-112418669D01*
X133697258Y-112297822D01*
X133447178Y-112047742D01*
X133120433Y-111912400D01*
X132327650Y-111912400D01*
X132105400Y-112134650D01*
X132105400Y-113639600D01*
X132125400Y-113639600D01*
X132125400Y-113690400D01*
X132105400Y-113690400D01*
X132105400Y-113710400D01*
X132054600Y-113710400D01*
X132054600Y-113690400D01*
X132054600Y-113639600D01*
X132054600Y-112134650D01*
X132054600Y-111385350D01*
X132054600Y-109880400D01*
X130549650Y-109880400D01*
X130327400Y-110102650D01*
X130327400Y-110541767D01*
X130327400Y-110895433D01*
X130462742Y-111222178D01*
X130712822Y-111472258D01*
X131039567Y-111607600D01*
X131832350Y-111607600D01*
X132054600Y-111385350D01*
X132054600Y-112134650D01*
X131832350Y-111912400D01*
X131039567Y-111912400D01*
X130712822Y-112047742D01*
X130462742Y-112297822D01*
X130327400Y-112624567D01*
X130327400Y-112978233D01*
X130327400Y-113417350D01*
X130549650Y-113639600D01*
X132054600Y-113639600D01*
X132054600Y-113690400D01*
X130549650Y-113690400D01*
X130327400Y-113912650D01*
X130327400Y-114097321D01*
X130291462Y-114010345D01*
X129832073Y-113550154D01*
X129641600Y-113471062D01*
X129641600Y-110160110D01*
X130327400Y-109474310D01*
X130327400Y-109607350D01*
X130549650Y-109829600D01*
X132054600Y-109829600D01*
X132054600Y-109809600D01*
X132105400Y-109809600D01*
X132105400Y-109829600D01*
X132125400Y-109829600D01*
X132125400Y-109880400D01*
X132105400Y-109880400D01*
X132105400Y-111385350D01*
X132327650Y-111607600D01*
X133120433Y-111607600D01*
X133447178Y-111472258D01*
X133697258Y-111222178D01*
X133747123Y-111101790D01*
X133770003Y-111124710D01*
X134320602Y-111353339D01*
X134916782Y-111353859D01*
X135467780Y-111126192D01*
X135889710Y-110704997D01*
X135890095Y-110704069D01*
X136261242Y-111075864D01*
G36*
X140559891Y-118106604D02*
X140215620Y-118248854D01*
X139840173Y-118623647D01*
X139699906Y-118961446D01*
X139561146Y-118625620D01*
X139186353Y-118250173D01*
X138696413Y-118046732D01*
X138165914Y-118046269D01*
X137675620Y-118248854D01*
X137300173Y-118623647D01*
X137159906Y-118961446D01*
X137021146Y-118625620D01*
X136646353Y-118250173D01*
X136156413Y-118046732D01*
X135625914Y-118046269D01*
X135135620Y-118248854D01*
X134760173Y-118623647D01*
X134619906Y-118961446D01*
X134481146Y-118625620D01*
X134106353Y-118250173D01*
X133616413Y-118046732D01*
X133085914Y-118046269D01*
X132595620Y-118248854D01*
X132220173Y-118623647D01*
X132079906Y-118961446D01*
X131941146Y-118625620D01*
X131784176Y-118468376D01*
X132369655Y-118226462D01*
X132829846Y-117767073D01*
X133079206Y-117166547D01*
X133079774Y-116516306D01*
X132831462Y-115915345D01*
X132372073Y-115455154D01*
X132105402Y-115344422D01*
X132105402Y-115195352D01*
X132327650Y-115417600D01*
X133120433Y-115417600D01*
X133447178Y-115282258D01*
X133697258Y-115032178D01*
X133747123Y-114911790D01*
X133770003Y-114934710D01*
X133893546Y-114986009D01*
X133939470Y-115216885D01*
X134099145Y-115455855D01*
X134734145Y-116090855D01*
X134973115Y-116250530D01*
X134973116Y-116250530D01*
X135255000Y-116306600D01*
X140056686Y-116306600D01*
X139970794Y-116513453D01*
X139970226Y-117163694D01*
X140218538Y-117764655D01*
X140559891Y-118106604D01*
X140559891Y-118106604D01*
G37*
X140559891Y-118106604D02*
X140215620Y-118248854D01*
X139840173Y-118623647D01*
X139699906Y-118961446D01*
X139561146Y-118625620D01*
X139186353Y-118250173D01*
X138696413Y-118046732D01*
X138165914Y-118046269D01*
X137675620Y-118248854D01*
X137300173Y-118623647D01*
X137159906Y-118961446D01*
X137021146Y-118625620D01*
X136646353Y-118250173D01*
X136156413Y-118046732D01*
X135625914Y-118046269D01*
X135135620Y-118248854D01*
X134760173Y-118623647D01*
X134619906Y-118961446D01*
X134481146Y-118625620D01*
X134106353Y-118250173D01*
X133616413Y-118046732D01*
X133085914Y-118046269D01*
X132595620Y-118248854D01*
X132220173Y-118623647D01*
X132079906Y-118961446D01*
X131941146Y-118625620D01*
X131784176Y-118468376D01*
X132369655Y-118226462D01*
X132829846Y-117767073D01*
X133079206Y-117166547D01*
X133079774Y-116516306D01*
X132831462Y-115915345D01*
X132372073Y-115455154D01*
X132105402Y-115344422D01*
X132105402Y-115195352D01*
X132327650Y-115417600D01*
X133120433Y-115417600D01*
X133447178Y-115282258D01*
X133697258Y-115032178D01*
X133747123Y-114911790D01*
X133770003Y-114934710D01*
X133893546Y-114986009D01*
X133939470Y-115216885D01*
X134099145Y-115455855D01*
X134734145Y-116090855D01*
X134973115Y-116250530D01*
X134973116Y-116250530D01*
X135255000Y-116306600D01*
X140056686Y-116306600D01*
X139970794Y-116513453D01*
X139970226Y-117163694D01*
X140218538Y-117764655D01*
X140559891Y-118106604D01*
G36*
X158914933Y-133286643D02*
X158485914Y-133286269D01*
X157995620Y-133488854D01*
X157620173Y-133863647D01*
X157479906Y-134201446D01*
X157341146Y-133865620D01*
X156966353Y-133490173D01*
X156476413Y-133286732D01*
X155945914Y-133286269D01*
X155455620Y-133488854D01*
X155080173Y-133863647D01*
X154939906Y-134201446D01*
X154801146Y-133865620D01*
X154426353Y-133490173D01*
X153936413Y-133286732D01*
X153405914Y-133286269D01*
X152915620Y-133488854D01*
X152540173Y-133863647D01*
X152539851Y-133864420D01*
X152496644Y-133752729D01*
X152454244Y-133689276D01*
X152135166Y-133650755D01*
X152099245Y-133686676D01*
X152099245Y-133614834D01*
X152060724Y-133295756D01*
X151483110Y-133040385D01*
X150851739Y-133025496D01*
X150262729Y-133253356D01*
X150199276Y-133295756D01*
X150160755Y-133614834D01*
X151130000Y-134584079D01*
X152099245Y-133614834D01*
X152099245Y-133686676D01*
X151165921Y-134620000D01*
X151180063Y-134634142D01*
X151144142Y-134670063D01*
X151130000Y-134655921D01*
X151115857Y-134670063D01*
X151079936Y-134634142D01*
X151094079Y-134620000D01*
X150124834Y-133650755D01*
X149805756Y-133689276D01*
X149724356Y-133873390D01*
X149721146Y-133865620D01*
X149346353Y-133490173D01*
X148856413Y-133286732D01*
X148325914Y-133286269D01*
X147835620Y-133488854D01*
X147460173Y-133863647D01*
X147319906Y-134201446D01*
X147181146Y-133865620D01*
X146806353Y-133490173D01*
X146316413Y-133286732D01*
X145785914Y-133286269D01*
X145295620Y-133488854D01*
X144920173Y-133863647D01*
X144779906Y-134201446D01*
X144641146Y-133865620D01*
X144266353Y-133490173D01*
X143776413Y-133286732D01*
X143245914Y-133286269D01*
X143226146Y-133294436D01*
X142760855Y-132829145D01*
X142742080Y-132816600D01*
X158444889Y-132816600D01*
X158914933Y-133286643D01*
X158914933Y-133286643D01*
G37*
X158914933Y-133286643D02*
X158485914Y-133286269D01*
X157995620Y-133488854D01*
X157620173Y-133863647D01*
X157479906Y-134201446D01*
X157341146Y-133865620D01*
X156966353Y-133490173D01*
X156476413Y-133286732D01*
X155945914Y-133286269D01*
X155455620Y-133488854D01*
X155080173Y-133863647D01*
X154939906Y-134201446D01*
X154801146Y-133865620D01*
X154426353Y-133490173D01*
X153936413Y-133286732D01*
X153405914Y-133286269D01*
X152915620Y-133488854D01*
X152540173Y-133863647D01*
X152539851Y-133864420D01*
X152496644Y-133752729D01*
X152454244Y-133689276D01*
X152135166Y-133650755D01*
X152099245Y-133686676D01*
X152099245Y-133614834D01*
X152060724Y-133295756D01*
X151483110Y-133040385D01*
X150851739Y-133025496D01*
X150262729Y-133253356D01*
X150199276Y-133295756D01*
X150160755Y-133614834D01*
X151130000Y-134584079D01*
X152099245Y-133614834D01*
X152099245Y-133686676D01*
X151165921Y-134620000D01*
X151180063Y-134634142D01*
X151144142Y-134670063D01*
X151130000Y-134655921D01*
X151115857Y-134670063D01*
X151079936Y-134634142D01*
X151094079Y-134620000D01*
X150124834Y-133650755D01*
X149805756Y-133689276D01*
X149724356Y-133873390D01*
X149721146Y-133865620D01*
X149346353Y-133490173D01*
X148856413Y-133286732D01*
X148325914Y-133286269D01*
X147835620Y-133488854D01*
X147460173Y-133863647D01*
X147319906Y-134201446D01*
X147181146Y-133865620D01*
X146806353Y-133490173D01*
X146316413Y-133286732D01*
X145785914Y-133286269D01*
X145295620Y-133488854D01*
X144920173Y-133863647D01*
X144779906Y-134201446D01*
X144641146Y-133865620D01*
X144266353Y-133490173D01*
X143776413Y-133286732D01*
X143245914Y-133286269D01*
X143226146Y-133294436D01*
X142760855Y-132829145D01*
X142742080Y-132816600D01*
X158444889Y-132816600D01*
X158914933Y-133286643D01*
G36*
X162005381Y-105409974D02*
X161776163Y-105504686D01*
X161386056Y-105894113D01*
X161365590Y-105943400D01*
X160393837Y-105943400D01*
X160459928Y-105794395D01*
X160476867Y-105709226D01*
X160280139Y-105435400D01*
X158775400Y-105435400D01*
X158775400Y-105455400D01*
X158724600Y-105455400D01*
X158724600Y-105435400D01*
X157740139Y-105435400D01*
X157219861Y-105435400D01*
X156235400Y-105435400D01*
X156235400Y-105455400D01*
X156184600Y-105455400D01*
X156184600Y-105435400D01*
X156164600Y-105435400D01*
X156164600Y-105384600D01*
X156184600Y-105384600D01*
X156184600Y-105364600D01*
X156235400Y-105364600D01*
X156235400Y-105384600D01*
X157219861Y-105384600D01*
X157740139Y-105384600D01*
X158724600Y-105384600D01*
X158724600Y-105364600D01*
X158775400Y-105364600D01*
X158775400Y-105384600D01*
X160280139Y-105384600D01*
X160476867Y-105110774D01*
X160459928Y-105025605D01*
X160353631Y-104785954D01*
X160540855Y-104660855D01*
X161174527Y-104027182D01*
X161174190Y-104414398D01*
X161384686Y-104923837D01*
X161774113Y-105313944D01*
X162005381Y-105409974D01*
X162005381Y-105409974D01*
G37*
X162005381Y-105409974D02*
X161776163Y-105504686D01*
X161386056Y-105894113D01*
X161365590Y-105943400D01*
X160393837Y-105943400D01*
X160459928Y-105794395D01*
X160476867Y-105709226D01*
X160280139Y-105435400D01*
X158775400Y-105435400D01*
X158775400Y-105455400D01*
X158724600Y-105455400D01*
X158724600Y-105435400D01*
X157740139Y-105435400D01*
X157219861Y-105435400D01*
X156235400Y-105435400D01*
X156235400Y-105455400D01*
X156184600Y-105455400D01*
X156184600Y-105435400D01*
X156164600Y-105435400D01*
X156164600Y-105384600D01*
X156184600Y-105384600D01*
X156184600Y-105364600D01*
X156235400Y-105364600D01*
X156235400Y-105384600D01*
X157219861Y-105384600D01*
X157740139Y-105384600D01*
X158724600Y-105384600D01*
X158724600Y-105364600D01*
X158775400Y-105364600D01*
X158775400Y-105384600D01*
X160280139Y-105384600D01*
X160476867Y-105110774D01*
X160459928Y-105025605D01*
X160353631Y-104785954D01*
X160540855Y-104660855D01*
X161174527Y-104027182D01*
X161174190Y-104414398D01*
X161384686Y-104923837D01*
X161774113Y-105313944D01*
X162005381Y-105409974D01*
G36*
X162280290Y-111887000D02*
X161290000Y-111887000D01*
X160852593Y-111974006D01*
X160481777Y-112221777D01*
X158276554Y-114427000D01*
X151946777Y-114427000D01*
X151915887Y-114396056D01*
X151406816Y-114184671D01*
X150855602Y-114184190D01*
X150346163Y-114394686D01*
X150019574Y-114720704D01*
X150001915Y-114674987D01*
X149957200Y-114608067D01*
X149632712Y-114563209D01*
X149596791Y-114599130D01*
X149596791Y-114527288D01*
X149551933Y-114202800D01*
X148955506Y-113938756D01*
X148303433Y-113923054D01*
X147694987Y-114158085D01*
X147628067Y-114202800D01*
X147583209Y-114527288D01*
X148590000Y-115534079D01*
X149596791Y-114527288D01*
X149596791Y-114599130D01*
X148625921Y-115570000D01*
X148640063Y-115584142D01*
X148604142Y-115620063D01*
X148590000Y-115605921D01*
X148575857Y-115620063D01*
X148539936Y-115584142D01*
X148554079Y-115570000D01*
X147547288Y-114563209D01*
X147222800Y-114608067D01*
X146958756Y-115204494D01*
X146943054Y-115856567D01*
X147038400Y-116103400D01*
X145720110Y-116103400D01*
X143395855Y-113779145D01*
X143156885Y-113619470D01*
X142875000Y-113563400D01*
X141605000Y-113563400D01*
X141323115Y-113619470D01*
X141198567Y-113702690D01*
X141198859Y-113368218D01*
X140971192Y-112817220D01*
X140651130Y-112496600D01*
X154305000Y-112496600D01*
X154586885Y-112440530D01*
X154825855Y-112280855D01*
X155695534Y-111411175D01*
X155883453Y-111489206D01*
X156533694Y-111489774D01*
X157134655Y-111241462D01*
X157594846Y-110782073D01*
X157844206Y-110181547D01*
X157844774Y-109531306D01*
X157596462Y-108930345D01*
X157353141Y-108686600D01*
X159079890Y-108686600D01*
X162280290Y-111887000D01*
X162280290Y-111887000D01*
G37*
X162280290Y-111887000D02*
X161290000Y-111887000D01*
X160852593Y-111974006D01*
X160481777Y-112221777D01*
X158276554Y-114427000D01*
X151946777Y-114427000D01*
X151915887Y-114396056D01*
X151406816Y-114184671D01*
X150855602Y-114184190D01*
X150346163Y-114394686D01*
X150019574Y-114720704D01*
X150001915Y-114674987D01*
X149957200Y-114608067D01*
X149632712Y-114563209D01*
X149596791Y-114599130D01*
X149596791Y-114527288D01*
X149551933Y-114202800D01*
X148955506Y-113938756D01*
X148303433Y-113923054D01*
X147694987Y-114158085D01*
X147628067Y-114202800D01*
X147583209Y-114527288D01*
X148590000Y-115534079D01*
X149596791Y-114527288D01*
X149596791Y-114599130D01*
X148625921Y-115570000D01*
X148640063Y-115584142D01*
X148604142Y-115620063D01*
X148590000Y-115605921D01*
X148575857Y-115620063D01*
X148539936Y-115584142D01*
X148554079Y-115570000D01*
X147547288Y-114563209D01*
X147222800Y-114608067D01*
X146958756Y-115204494D01*
X146943054Y-115856567D01*
X147038400Y-116103400D01*
X145720110Y-116103400D01*
X143395855Y-113779145D01*
X143156885Y-113619470D01*
X142875000Y-113563400D01*
X141605000Y-113563400D01*
X141323115Y-113619470D01*
X141198567Y-113702690D01*
X141198859Y-113368218D01*
X140971192Y-112817220D01*
X140651130Y-112496600D01*
X154305000Y-112496600D01*
X154586885Y-112440530D01*
X154825855Y-112280855D01*
X155695534Y-111411175D01*
X155883453Y-111489206D01*
X156533694Y-111489774D01*
X157134655Y-111241462D01*
X157594846Y-110782073D01*
X157844206Y-110181547D01*
X157844774Y-109531306D01*
X157596462Y-108930345D01*
X157353141Y-108686600D01*
X159079890Y-108686600D01*
X162280290Y-111887000D01*
G36*
X165785063Y-106694142D02*
X165749142Y-106730063D01*
X165735000Y-106715921D01*
X165720857Y-106730063D01*
X165684936Y-106694142D01*
X165699079Y-106680000D01*
X165684936Y-106665857D01*
X165720857Y-106629936D01*
X165735000Y-106644079D01*
X165749142Y-106629936D01*
X165785063Y-106665857D01*
X165770921Y-106680000D01*
X165785063Y-106694142D01*
X165785063Y-106694142D01*
G37*
X165785063Y-106694142D02*
X165749142Y-106730063D01*
X165735000Y-106715921D01*
X165720857Y-106730063D01*
X165684936Y-106694142D01*
X165699079Y-106680000D01*
X165684936Y-106665857D01*
X165720857Y-106629936D01*
X165735000Y-106644079D01*
X165749142Y-106629936D01*
X165785063Y-106665857D01*
X165770921Y-106680000D01*
X165785063Y-106694142D01*
G36*
X170860400Y-116230400D02*
X170840400Y-116230400D01*
X170840400Y-116250400D01*
X170789600Y-116250400D01*
X170789600Y-116230400D01*
X170769600Y-116230400D01*
X170769600Y-116179600D01*
X170789600Y-116179600D01*
X170789600Y-116159600D01*
X170840400Y-116159600D01*
X170840400Y-116179600D01*
X170860400Y-116179600D01*
X170860400Y-116230400D01*
X170860400Y-116230400D01*
G37*
X170860400Y-116230400D02*
X170840400Y-116230400D01*
X170840400Y-116250400D01*
X170789600Y-116250400D01*
X170789600Y-116230400D01*
X170769600Y-116230400D01*
X170769600Y-116179600D01*
X170789600Y-116179600D01*
X170789600Y-116159600D01*
X170840400Y-116159600D01*
X170840400Y-116179600D01*
X170860400Y-116179600D01*
X170860400Y-116230400D01*
G36*
X176059645Y-102933644D02*
X174319890Y-104673400D01*
X167013785Y-104673400D01*
X167120329Y-104416816D01*
X167120810Y-103865602D01*
X167013792Y-103606600D01*
X174625000Y-103606600D01*
X174906885Y-103550530D01*
X175145855Y-103390855D01*
X175610819Y-102925890D01*
X175628587Y-102933268D01*
X176059645Y-102933644D01*
X176059645Y-102933644D01*
G37*
X176059645Y-102933644D02*
X174319890Y-104673400D01*
X167013785Y-104673400D01*
X167120329Y-104416816D01*
X167120810Y-103865602D01*
X167013792Y-103606600D01*
X174625000Y-103606600D01*
X174906885Y-103550530D01*
X175145855Y-103390855D01*
X175610819Y-102925890D01*
X175628587Y-102933268D01*
X176059645Y-102933644D01*
G36*
X186588400Y-107720093D02*
X186408110Y-107640385D01*
X185776739Y-107625496D01*
X185187729Y-107853356D01*
X185124276Y-107895756D01*
X185085755Y-108214834D01*
X186055000Y-109184079D01*
X186069142Y-109169936D01*
X186105063Y-109205857D01*
X186090921Y-109220000D01*
X186105063Y-109234142D01*
X186069142Y-109270063D01*
X186055000Y-109255921D01*
X186040857Y-109270063D01*
X186004936Y-109234142D01*
X186019079Y-109220000D01*
X185049834Y-108250755D01*
X184730756Y-108289276D01*
X184649356Y-108473390D01*
X184646146Y-108465620D01*
X184271353Y-108090173D01*
X183781413Y-107886732D01*
X183250914Y-107886269D01*
X182760620Y-108088854D01*
X182385173Y-108463647D01*
X182244906Y-108801446D01*
X182106146Y-108465620D01*
X181731353Y-108090173D01*
X181241413Y-107886732D01*
X180710914Y-107886269D01*
X180220620Y-108088854D01*
X179845173Y-108463647D01*
X179704906Y-108801446D01*
X179566146Y-108465620D01*
X179191353Y-108090173D01*
X178701413Y-107886732D01*
X178170914Y-107886269D01*
X177680620Y-108088854D01*
X177305173Y-108463647D01*
X177164906Y-108801446D01*
X177026146Y-108465620D01*
X176651353Y-108090173D01*
X176161413Y-107886732D01*
X175630914Y-107886269D01*
X175611146Y-107894436D01*
X175145855Y-107429145D01*
X174906885Y-107269470D01*
X174625000Y-107213400D01*
X167291915Y-107213400D01*
X167366244Y-107045506D01*
X167381946Y-106393433D01*
X167286599Y-106146600D01*
X174625000Y-106146600D01*
X174906885Y-106090530D01*
X175145855Y-105930855D01*
X176086076Y-104990633D01*
X176249311Y-105385689D01*
X176552714Y-105689622D01*
X176949332Y-105854313D01*
X177378784Y-105854687D01*
X177775689Y-105690689D01*
X177955090Y-105511600D01*
X180340000Y-105511600D01*
X180621885Y-105455530D01*
X180860855Y-105295855D01*
X183230819Y-102925890D01*
X183248587Y-102933268D01*
X183779086Y-102933731D01*
X184269380Y-102731146D01*
X184644827Y-102356353D01*
X184785093Y-102018553D01*
X184923854Y-102354380D01*
X185298647Y-102729827D01*
X185318400Y-102738029D01*
X185318400Y-105410000D01*
X185374470Y-105691885D01*
X185534145Y-105930855D01*
X186588400Y-106985110D01*
X186588400Y-107720093D01*
X186588400Y-107720093D01*
G37*
X186588400Y-107720093D02*
X186408110Y-107640385D01*
X185776739Y-107625496D01*
X185187729Y-107853356D01*
X185124276Y-107895756D01*
X185085755Y-108214834D01*
X186055000Y-109184079D01*
X186069142Y-109169936D01*
X186105063Y-109205857D01*
X186090921Y-109220000D01*
X186105063Y-109234142D01*
X186069142Y-109270063D01*
X186055000Y-109255921D01*
X186040857Y-109270063D01*
X186004936Y-109234142D01*
X186019079Y-109220000D01*
X185049834Y-108250755D01*
X184730756Y-108289276D01*
X184649356Y-108473390D01*
X184646146Y-108465620D01*
X184271353Y-108090173D01*
X183781413Y-107886732D01*
X183250914Y-107886269D01*
X182760620Y-108088854D01*
X182385173Y-108463647D01*
X182244906Y-108801446D01*
X182106146Y-108465620D01*
X181731353Y-108090173D01*
X181241413Y-107886732D01*
X180710914Y-107886269D01*
X180220620Y-108088854D01*
X179845173Y-108463647D01*
X179704906Y-108801446D01*
X179566146Y-108465620D01*
X179191353Y-108090173D01*
X178701413Y-107886732D01*
X178170914Y-107886269D01*
X177680620Y-108088854D01*
X177305173Y-108463647D01*
X177164906Y-108801446D01*
X177026146Y-108465620D01*
X176651353Y-108090173D01*
X176161413Y-107886732D01*
X175630914Y-107886269D01*
X175611146Y-107894436D01*
X175145855Y-107429145D01*
X174906885Y-107269470D01*
X174625000Y-107213400D01*
X167291915Y-107213400D01*
X167366244Y-107045506D01*
X167381946Y-106393433D01*
X167286599Y-106146600D01*
X174625000Y-106146600D01*
X174906885Y-106090530D01*
X175145855Y-105930855D01*
X176086076Y-104990633D01*
X176249311Y-105385689D01*
X176552714Y-105689622D01*
X176949332Y-105854313D01*
X177378784Y-105854687D01*
X177775689Y-105690689D01*
X177955090Y-105511600D01*
X180340000Y-105511600D01*
X180621885Y-105455530D01*
X180860855Y-105295855D01*
X183230819Y-102925890D01*
X183248587Y-102933268D01*
X183779086Y-102933731D01*
X184269380Y-102731146D01*
X184644827Y-102356353D01*
X184785093Y-102018553D01*
X184923854Y-102354380D01*
X185298647Y-102729827D01*
X185318400Y-102738029D01*
X185318400Y-105410000D01*
X185374470Y-105691885D01*
X185534145Y-105930855D01*
X186588400Y-106985110D01*
X186588400Y-107720093D01*
G36*
X199340000Y-149340000D02*
X198912318Y-149340000D01*
X198912318Y-144354633D01*
X198912318Y-104354633D01*
X198367539Y-102906579D01*
X198222770Y-102689917D01*
X197664558Y-102371363D01*
X197628637Y-102407284D01*
X197628637Y-102335442D01*
X197310083Y-101777230D01*
X195900937Y-101138518D01*
X194354633Y-101087682D01*
X192906579Y-101632461D01*
X192689917Y-101777230D01*
X192371363Y-102335442D01*
X195000000Y-104964079D01*
X197628637Y-102335442D01*
X197628637Y-102407284D01*
X195035921Y-105000000D01*
X197664558Y-107628637D01*
X198222770Y-107310083D01*
X198861482Y-105900937D01*
X198912318Y-104354633D01*
X198912318Y-144354633D01*
X198367539Y-142906579D01*
X198222770Y-142689917D01*
X197664558Y-142371363D01*
X197628637Y-142407284D01*
X197628637Y-142335442D01*
X197310083Y-141777230D01*
X195900937Y-141138518D01*
X194354633Y-141087682D01*
X192906579Y-141632461D01*
X192689917Y-141777230D01*
X192371363Y-142335442D01*
X195000000Y-144964079D01*
X197628637Y-142335442D01*
X197628637Y-142407284D01*
X195035921Y-145000000D01*
X197664558Y-147628637D01*
X198222770Y-147310083D01*
X198861482Y-145900937D01*
X198912318Y-144354633D01*
X198912318Y-149340000D01*
X197628637Y-149340000D01*
X197628637Y-147664558D01*
X195000000Y-145035921D01*
X194964079Y-145071842D01*
X194964079Y-145000000D01*
X192335442Y-142371363D01*
X191777230Y-142689917D01*
X191138518Y-144099063D01*
X191087682Y-145645367D01*
X191632461Y-147093421D01*
X191777230Y-147310083D01*
X192335442Y-147628637D01*
X194964079Y-145000000D01*
X194964079Y-145071842D01*
X192371363Y-147664558D01*
X192689917Y-148222770D01*
X194099063Y-148861482D01*
X195645367Y-148912318D01*
X197093421Y-148367539D01*
X197310083Y-148222770D01*
X197628637Y-147664558D01*
X197628637Y-149340000D01*
X189793616Y-149340000D01*
X189848490Y-149207523D01*
X189848490Y-148278850D01*
X189848490Y-147783550D01*
X189848490Y-146854877D01*
X189713148Y-146528132D01*
X189463068Y-146278052D01*
X189136323Y-146142710D01*
X188782657Y-146142710D01*
X188207650Y-146142710D01*
X187985400Y-146364960D01*
X187985400Y-148005800D01*
X189626240Y-148005800D01*
X189848490Y-147783550D01*
X189848490Y-148278850D01*
X189626240Y-148056600D01*
X187985400Y-148056600D01*
X187985400Y-148076600D01*
X187934600Y-148076600D01*
X187934600Y-148056600D01*
X187934600Y-148005800D01*
X187934600Y-146364960D01*
X187712350Y-146142710D01*
X187137343Y-146142710D01*
X186783677Y-146142710D01*
X186456932Y-146278052D01*
X186206852Y-146528132D01*
X186071510Y-146854877D01*
X186071510Y-147783550D01*
X186293760Y-148005800D01*
X187934600Y-148005800D01*
X187934600Y-148056600D01*
X186293760Y-148056600D01*
X186071510Y-148278850D01*
X186071510Y-149207523D01*
X186126383Y-149340000D01*
X180093457Y-149340000D01*
X180093457Y-142586609D01*
X179856852Y-141973898D01*
X179811629Y-141906216D01*
X179485954Y-141859967D01*
X178470921Y-142875000D01*
X179485954Y-143890033D01*
X179811629Y-143843784D01*
X180077577Y-143243226D01*
X180093457Y-142586609D01*
X180093457Y-149340000D01*
X161666946Y-149340000D01*
X161666946Y-141953433D01*
X161431915Y-141344987D01*
X161405810Y-141305918D01*
X161405810Y-139425602D01*
X161195314Y-138916163D01*
X160805887Y-138526056D01*
X160296816Y-138314671D01*
X159745602Y-138314190D01*
X159236163Y-138524686D01*
X158846056Y-138914113D01*
X158825590Y-138963400D01*
X156063581Y-138963400D01*
X155725887Y-138625116D01*
X155216816Y-138413731D01*
X154665602Y-138413250D01*
X154156163Y-138623746D01*
X153766056Y-139013173D01*
X153554671Y-139522244D01*
X153554190Y-140073458D01*
X153764686Y-140582897D01*
X154154113Y-140973004D01*
X154663184Y-141184389D01*
X155214398Y-141184870D01*
X155723837Y-140974374D01*
X156113944Y-140584947D01*
X156175543Y-140436600D01*
X158825168Y-140436600D01*
X158844686Y-140483837D01*
X159170704Y-140810425D01*
X159124987Y-140828085D01*
X159058067Y-140872800D01*
X159013209Y-141197288D01*
X160020000Y-142204079D01*
X161026791Y-141197288D01*
X160981933Y-140872800D01*
X160860298Y-140818951D01*
X161193944Y-140485887D01*
X161405329Y-139976816D01*
X161405810Y-139425602D01*
X161405810Y-141305918D01*
X161387200Y-141278067D01*
X161062712Y-141233209D01*
X160055921Y-142240000D01*
X161062712Y-143246791D01*
X161387200Y-143201933D01*
X161651244Y-142605506D01*
X161666946Y-141953433D01*
X161666946Y-149340000D01*
X161026791Y-149340000D01*
X161026791Y-143282712D01*
X160020000Y-142275921D01*
X159984079Y-142311842D01*
X159984079Y-142240000D01*
X158977288Y-141233209D01*
X158652800Y-141278067D01*
X158388756Y-141874494D01*
X158373054Y-142526567D01*
X158608085Y-143135013D01*
X158652800Y-143201933D01*
X158977288Y-143246791D01*
X159984079Y-142240000D01*
X159984079Y-142311842D01*
X159013209Y-143282712D01*
X159058067Y-143607200D01*
X159654494Y-143871244D01*
X160306567Y-143886946D01*
X160915013Y-143651915D01*
X160981933Y-143607200D01*
X161026791Y-143282712D01*
X161026791Y-149340000D01*
X156325810Y-149340000D01*
X156325810Y-144406542D01*
X156115314Y-143897103D01*
X155725887Y-143506996D01*
X155216816Y-143295611D01*
X154665602Y-143295130D01*
X154156163Y-143505626D01*
X153766056Y-143895053D01*
X153704456Y-144043400D01*
X151506946Y-144043400D01*
X151506946Y-141953433D01*
X151271915Y-141344987D01*
X151227200Y-141278067D01*
X150902712Y-141233209D01*
X150866791Y-141269130D01*
X150866791Y-141197288D01*
X150866791Y-139472712D01*
X149860000Y-138465921D01*
X148853209Y-139472712D01*
X148898067Y-139797200D01*
X149494494Y-140061244D01*
X150146567Y-140076946D01*
X150755013Y-139841915D01*
X150821933Y-139797200D01*
X150866791Y-139472712D01*
X150866791Y-141197288D01*
X150821933Y-140872800D01*
X150225506Y-140608756D01*
X149573433Y-140593054D01*
X148964987Y-140828085D01*
X148898067Y-140872800D01*
X148853209Y-141197288D01*
X149860000Y-142204079D01*
X150866791Y-141197288D01*
X150866791Y-141269130D01*
X149895921Y-142240000D01*
X150902712Y-143246791D01*
X151227200Y-143201933D01*
X151491244Y-142605506D01*
X151506946Y-141953433D01*
X151506946Y-144043400D01*
X151054831Y-144043400D01*
X151035314Y-143996163D01*
X150709295Y-143669574D01*
X150755013Y-143651915D01*
X150821933Y-143607200D01*
X150866791Y-143282712D01*
X149860000Y-142275921D01*
X149824079Y-142311842D01*
X149824079Y-142240000D01*
X148817288Y-141233209D01*
X148492800Y-141278067D01*
X148228756Y-141874494D01*
X148213054Y-142526567D01*
X148448085Y-143135013D01*
X148492800Y-143201933D01*
X148817288Y-143246791D01*
X149824079Y-142240000D01*
X149824079Y-142311842D01*
X148853209Y-143282712D01*
X148898067Y-143607200D01*
X149019701Y-143661048D01*
X148686056Y-143994113D01*
X148474671Y-144503184D01*
X148474190Y-145054398D01*
X148684686Y-145563837D01*
X149074113Y-145953944D01*
X149583184Y-146165329D01*
X150134398Y-146165810D01*
X150643837Y-145955314D01*
X151033944Y-145565887D01*
X151054409Y-145516600D01*
X153816418Y-145516600D01*
X154154113Y-145854884D01*
X154663184Y-146066269D01*
X155214398Y-146066750D01*
X155723837Y-145856254D01*
X156113944Y-145466827D01*
X156325329Y-144957756D01*
X156325810Y-144406542D01*
X156325810Y-149340000D01*
X146506869Y-149340000D01*
X146506869Y-147619226D01*
X146310168Y-147345400D01*
X144805400Y-147345400D01*
X144805400Y-148850139D01*
X145079226Y-149046867D01*
X145164395Y-149029928D01*
X145789496Y-148752666D01*
X146260910Y-148257293D01*
X146506869Y-147619226D01*
X146506869Y-149340000D01*
X138658859Y-149340000D01*
X138658859Y-147023218D01*
X138431192Y-146472220D01*
X138009997Y-146050290D01*
X137459398Y-145821661D01*
X136863218Y-145821141D01*
X136312220Y-146048808D01*
X135890290Y-146470003D01*
X135889904Y-146470930D01*
X135469997Y-146050290D01*
X134919398Y-145821661D01*
X134323218Y-145821141D01*
X133772220Y-146048808D01*
X133350290Y-146470003D01*
X133349904Y-146470930D01*
X132929997Y-146050290D01*
X132379398Y-145821661D01*
X131783218Y-145821141D01*
X131232220Y-146048808D01*
X130810290Y-146470003D01*
X130809904Y-146470930D01*
X130389997Y-146050290D01*
X129839398Y-145821661D01*
X129243218Y-145821141D01*
X128692220Y-146048808D01*
X128270290Y-146470003D01*
X128269904Y-146470930D01*
X127849997Y-146050290D01*
X127299398Y-145821661D01*
X126703218Y-145821141D01*
X126152220Y-146048808D01*
X126127314Y-146073669D01*
X126077258Y-145952822D01*
X125827178Y-145702742D01*
X125500433Y-145567400D01*
X124707650Y-145567400D01*
X124485400Y-145789650D01*
X124485400Y-147294600D01*
X124505400Y-147294600D01*
X124505400Y-147345400D01*
X124485400Y-147345400D01*
X124485400Y-148850350D01*
X124707650Y-149072600D01*
X125500433Y-149072600D01*
X125827178Y-148937258D01*
X126077258Y-148687178D01*
X126127123Y-148566790D01*
X126150003Y-148589710D01*
X126700602Y-148818339D01*
X127296782Y-148818859D01*
X127847780Y-148591192D01*
X128269710Y-148169997D01*
X128270095Y-148169069D01*
X128690003Y-148589710D01*
X129240602Y-148818339D01*
X129836782Y-148818859D01*
X130387780Y-148591192D01*
X130809710Y-148169997D01*
X130810095Y-148169069D01*
X131230003Y-148589710D01*
X131780602Y-148818339D01*
X132376782Y-148818859D01*
X132927780Y-148591192D01*
X133349710Y-148169997D01*
X133350095Y-148169069D01*
X133770003Y-148589710D01*
X134320602Y-148818339D01*
X134916782Y-148818859D01*
X135467780Y-148591192D01*
X135889710Y-148169997D01*
X135890095Y-148169069D01*
X136310003Y-148589710D01*
X136860602Y-148818339D01*
X137456782Y-148818859D01*
X138007780Y-148591192D01*
X138429710Y-148169997D01*
X138658339Y-147619398D01*
X138658859Y-147023218D01*
X138658859Y-149340000D01*
X124434600Y-149340000D01*
X124434600Y-148850350D01*
X124434600Y-147345400D01*
X124434600Y-147294600D01*
X124434600Y-145789650D01*
X124212350Y-145567400D01*
X123419567Y-145567400D01*
X123092822Y-145702742D01*
X122919774Y-145875790D01*
X122919774Y-127946306D01*
X122671462Y-127345345D01*
X122212073Y-126885154D01*
X121611547Y-126635794D01*
X120961306Y-126635226D01*
X120382985Y-126874183D01*
X120341565Y-126680759D01*
X119956437Y-126122213D01*
X119386879Y-125753566D01*
X119042040Y-125656503D01*
X118770400Y-125853403D01*
X118770400Y-128244600D01*
X118790400Y-128244600D01*
X118790400Y-128295400D01*
X118770400Y-128295400D01*
X118770400Y-130686597D01*
X119042040Y-130883497D01*
X119386879Y-130786434D01*
X119956437Y-130417787D01*
X120341565Y-129859241D01*
X120383096Y-129665297D01*
X120958453Y-129904206D01*
X121608694Y-129904774D01*
X122209655Y-129656462D01*
X122669846Y-129197073D01*
X122919206Y-128596547D01*
X122919774Y-127946306D01*
X122919774Y-145875790D01*
X122842742Y-145952822D01*
X122707400Y-146279567D01*
X122707400Y-146633233D01*
X122707400Y-147072350D01*
X122929650Y-147294600D01*
X124434600Y-147294600D01*
X124434600Y-147345400D01*
X122929650Y-147345400D01*
X122707400Y-147567650D01*
X122707400Y-148006767D01*
X122707400Y-148360433D01*
X122842742Y-148687178D01*
X123092822Y-148937258D01*
X123419567Y-149072600D01*
X124212350Y-149072600D01*
X124434600Y-148850350D01*
X124434600Y-149340000D01*
X121666000Y-149340000D01*
X121666000Y-148208310D01*
X121666000Y-147955691D01*
X121666000Y-132207691D01*
X121569327Y-131974302D01*
X121390699Y-131795673D01*
X121157310Y-131699000D01*
X120904691Y-131699000D01*
X118719600Y-131699000D01*
X118719600Y-130686597D01*
X118719600Y-128295400D01*
X118699600Y-128295400D01*
X118699600Y-128244600D01*
X118719600Y-128244600D01*
X118719600Y-125853403D01*
X118447960Y-125656503D01*
X118103121Y-125753566D01*
X117533563Y-126122213D01*
X117348000Y-126391332D01*
X117348000Y-126365000D01*
X117260994Y-125927593D01*
X117013223Y-125556777D01*
X115769597Y-124313151D01*
X115874597Y-124315783D01*
X116525233Y-124065187D01*
X116599679Y-124015444D01*
X116658293Y-123679214D01*
X115570000Y-122590921D01*
X115555857Y-122605063D01*
X115519936Y-122569142D01*
X115534079Y-122555000D01*
X115519936Y-122540857D01*
X115555857Y-122504936D01*
X115570000Y-122519079D01*
X116658293Y-121430786D01*
X116599679Y-121094556D01*
X116462959Y-121033868D01*
X116462959Y-117475000D01*
X116348885Y-116901511D01*
X116024029Y-116415330D01*
X116002976Y-116401263D01*
X116158298Y-116336927D01*
X116336927Y-116158299D01*
X116433600Y-115924910D01*
X116433600Y-115672291D01*
X116433600Y-113945091D01*
X116336927Y-113711702D01*
X116158299Y-113533073D01*
X115934774Y-113440485D01*
X115934774Y-111436306D01*
X115686462Y-110835345D01*
X115227073Y-110375154D01*
X114738567Y-110172309D01*
X115224655Y-109971462D01*
X115684846Y-109512073D01*
X115934206Y-108911547D01*
X115934774Y-108261306D01*
X115686462Y-107660345D01*
X115227073Y-107200154D01*
X114626547Y-106950794D01*
X113976306Y-106950226D01*
X113375345Y-107198538D01*
X112915154Y-107657927D01*
X112665794Y-108258453D01*
X112665226Y-108908694D01*
X112913538Y-109509655D01*
X113372927Y-109969846D01*
X113861432Y-110172690D01*
X113375345Y-110373538D01*
X112915154Y-110832927D01*
X112665794Y-111433453D01*
X112665226Y-112083694D01*
X112913538Y-112684655D01*
X113372927Y-113144846D01*
X113973453Y-113394206D01*
X114623694Y-113394774D01*
X115224655Y-113146462D01*
X115684846Y-112687073D01*
X115934206Y-112086547D01*
X115934774Y-111436306D01*
X115934774Y-113440485D01*
X115924910Y-113436400D01*
X115672291Y-113436400D01*
X113945091Y-113436400D01*
X113711702Y-113533073D01*
X113533073Y-113711701D01*
X113469356Y-113865526D01*
X112997848Y-113550474D01*
X112424359Y-113436400D01*
X112365641Y-113436400D01*
X111792152Y-113550474D01*
X111513457Y-113736692D01*
X111513457Y-108931609D01*
X111276852Y-108318898D01*
X111231629Y-108251216D01*
X110905954Y-108204967D01*
X110870033Y-108240888D01*
X110870033Y-108169046D01*
X110823784Y-107843371D01*
X110223226Y-107577423D01*
X109566609Y-107561543D01*
X108953898Y-107798148D01*
X108886216Y-107843371D01*
X108839967Y-108169046D01*
X109855000Y-109184079D01*
X110870033Y-108169046D01*
X110870033Y-108240888D01*
X109890921Y-109220000D01*
X110905954Y-110235033D01*
X111231629Y-110188784D01*
X111497577Y-109588226D01*
X111513457Y-108931609D01*
X111513457Y-113736692D01*
X111305971Y-113875330D01*
X111252242Y-113955741D01*
X111252242Y-111483339D01*
X111040010Y-110969697D01*
X110724802Y-110653938D01*
X110756102Y-110641852D01*
X110823784Y-110596629D01*
X110870033Y-110270954D01*
X109855000Y-109255921D01*
X109819079Y-109291842D01*
X109819079Y-109220000D01*
X108804046Y-108204967D01*
X108478371Y-108251216D01*
X108212423Y-108851774D01*
X108196543Y-109508391D01*
X108433148Y-110121102D01*
X108478371Y-110188784D01*
X108804046Y-110235033D01*
X109819079Y-109220000D01*
X109819079Y-109291842D01*
X108839967Y-110270954D01*
X108886216Y-110596629D01*
X108994835Y-110644729D01*
X108671371Y-110967630D01*
X108458243Y-111480900D01*
X108457758Y-112036661D01*
X108669990Y-112550303D01*
X109062630Y-112943629D01*
X109575900Y-113156757D01*
X110131661Y-113157242D01*
X110645303Y-112945010D01*
X111038629Y-112552370D01*
X111251757Y-112039100D01*
X111252242Y-111483339D01*
X111252242Y-113955741D01*
X110981115Y-114361511D01*
X110867041Y-114935000D01*
X110981115Y-115508489D01*
X111305971Y-115994670D01*
X111620751Y-116205000D01*
X111305971Y-116415330D01*
X110981115Y-116901511D01*
X110867041Y-117475000D01*
X110981115Y-118048489D01*
X111305971Y-118534670D01*
X111792152Y-118859526D01*
X112365641Y-118973600D01*
X112424359Y-118973600D01*
X112997848Y-118859526D01*
X113484029Y-118534670D01*
X113665000Y-118263827D01*
X113845971Y-118534670D01*
X114332152Y-118859526D01*
X114905641Y-118973600D01*
X114964359Y-118973600D01*
X115537848Y-118859526D01*
X116024029Y-118534670D01*
X116348885Y-118048489D01*
X116462959Y-117475000D01*
X116462959Y-121033868D01*
X115962412Y-120811685D01*
X115265403Y-120794217D01*
X114614767Y-121044813D01*
X114540321Y-121094556D01*
X114481707Y-121430783D01*
X114466788Y-121415864D01*
X114431927Y-121331702D01*
X114253299Y-121153073D01*
X114019910Y-121056400D01*
X113767291Y-121056400D01*
X112040091Y-121056400D01*
X111806702Y-121153073D01*
X111628073Y-121331701D01*
X111531400Y-121565090D01*
X111531400Y-121817709D01*
X111531400Y-123544909D01*
X111628073Y-123778298D01*
X111801774Y-123952000D01*
X108912318Y-123952000D01*
X108912318Y-114354633D01*
X108367539Y-112906579D01*
X108222770Y-112689917D01*
X107664558Y-112371363D01*
X107628637Y-112407284D01*
X107628637Y-112335442D01*
X107310083Y-111777230D01*
X105900937Y-111138518D01*
X104354633Y-111087682D01*
X102906579Y-111632461D01*
X102844600Y-111673874D01*
X102844600Y-106940350D01*
X102844600Y-105435400D01*
X102844600Y-105384600D01*
X102844600Y-104400168D01*
X102844600Y-103879650D01*
X102844600Y-102895400D01*
X102844600Y-102844600D01*
X102844600Y-101339832D01*
X102570774Y-101143131D01*
X101932707Y-101389090D01*
X101437334Y-101860504D01*
X101160072Y-102485605D01*
X101143133Y-102570774D01*
X101339861Y-102844600D01*
X102844600Y-102844600D01*
X102844600Y-102895400D01*
X101339861Y-102895400D01*
X101143133Y-103169226D01*
X101160072Y-103254395D01*
X101430799Y-103864764D01*
X101252742Y-104042822D01*
X101117400Y-104369567D01*
X101117400Y-104723233D01*
X101117400Y-105162350D01*
X101339650Y-105384600D01*
X102844600Y-105384600D01*
X102844600Y-105435400D01*
X101339650Y-105435400D01*
X101117400Y-105657650D01*
X101117400Y-106096767D01*
X101117400Y-106450433D01*
X101252742Y-106777178D01*
X101502822Y-107027258D01*
X101829567Y-107162600D01*
X102622350Y-107162600D01*
X102844600Y-106940350D01*
X102844600Y-111673874D01*
X102689917Y-111777230D01*
X102371363Y-112335442D01*
X105000000Y-114964079D01*
X107628637Y-112335442D01*
X107628637Y-112407284D01*
X105035921Y-115000000D01*
X107664558Y-117628637D01*
X108222770Y-117310083D01*
X108861482Y-115900937D01*
X108912318Y-114354633D01*
X108912318Y-123952000D01*
X108594270Y-123952000D01*
X108594270Y-121631093D01*
X108322688Y-120923570D01*
X108266166Y-120838979D01*
X107914101Y-120761820D01*
X107878180Y-120797741D01*
X107878180Y-120725899D01*
X107801021Y-120373834D01*
X107628637Y-120297080D01*
X107628637Y-117664558D01*
X105000000Y-115035921D01*
X104964079Y-115071842D01*
X104964079Y-115000000D01*
X102335442Y-112371363D01*
X101777230Y-112689917D01*
X101138518Y-114099063D01*
X101087682Y-115645367D01*
X101632461Y-117093421D01*
X101777230Y-117310083D01*
X102335442Y-117628637D01*
X104964079Y-115000000D01*
X104964079Y-115071842D01*
X102371363Y-117664558D01*
X102689917Y-118222770D01*
X104099063Y-118861482D01*
X105645367Y-118912318D01*
X107093421Y-118367539D01*
X107310083Y-118222770D01*
X107628637Y-117664558D01*
X107628637Y-120297080D01*
X107108689Y-120065577D01*
X106351093Y-120045730D01*
X105643570Y-120317312D01*
X105558979Y-120373834D01*
X105481820Y-120725899D01*
X106680000Y-121924079D01*
X107878180Y-120725899D01*
X107878180Y-120797741D01*
X106715921Y-121960000D01*
X107914101Y-123158180D01*
X108266166Y-123081021D01*
X108574423Y-122388689D01*
X108594270Y-121631093D01*
X108594270Y-123952000D01*
X108545000Y-123952000D01*
X108107593Y-124039006D01*
X107878180Y-124192294D01*
X107878180Y-123194101D01*
X106680000Y-121995921D01*
X106644079Y-122031842D01*
X106644079Y-121960000D01*
X105445899Y-120761820D01*
X105093834Y-120838979D01*
X104785577Y-121531311D01*
X104765730Y-122288907D01*
X105037312Y-122996430D01*
X105093834Y-123081021D01*
X105445899Y-123158180D01*
X106644079Y-121960000D01*
X106644079Y-122031842D01*
X105481820Y-123194101D01*
X105558979Y-123546166D01*
X106251311Y-123854423D01*
X107008907Y-123874270D01*
X107716430Y-123602688D01*
X107801021Y-123546166D01*
X107878180Y-123194101D01*
X107878180Y-124192294D01*
X107736777Y-124286777D01*
X106714524Y-125309029D01*
X106353037Y-125308714D01*
X105746005Y-125559534D01*
X105281166Y-126023563D01*
X105029287Y-126630155D01*
X105028714Y-127286963D01*
X105279534Y-127893995D01*
X105743563Y-128358834D01*
X106350155Y-128610713D01*
X107006963Y-128611286D01*
X107613995Y-128360466D01*
X108078834Y-127896437D01*
X108330713Y-127289845D01*
X108331030Y-126925415D01*
X109018446Y-126238000D01*
X112667667Y-126238000D01*
X112615208Y-126273052D01*
X112293381Y-126754701D01*
X112180370Y-127322844D01*
X112180370Y-129217156D01*
X112293381Y-129785299D01*
X112615208Y-130266948D01*
X113096857Y-130588775D01*
X113665000Y-130701786D01*
X114233143Y-130588775D01*
X114714792Y-130266948D01*
X114935000Y-129937382D01*
X115155208Y-130266948D01*
X115636857Y-130588775D01*
X116205000Y-130701786D01*
X116773143Y-130588775D01*
X117254792Y-130266948D01*
X117340800Y-130138226D01*
X117533563Y-130417787D01*
X118103121Y-130786434D01*
X118447960Y-130883497D01*
X118719600Y-130686597D01*
X118719600Y-131699000D01*
X111252691Y-131699000D01*
X111019302Y-131795673D01*
X110840673Y-131974301D01*
X110744000Y-132207690D01*
X110744000Y-132460309D01*
X110744000Y-148208309D01*
X110840673Y-148441698D01*
X111019301Y-148620327D01*
X111252690Y-148717000D01*
X111505309Y-148717000D01*
X121157309Y-148717000D01*
X121390698Y-148620327D01*
X121569327Y-148441699D01*
X121666000Y-148208310D01*
X121666000Y-149340000D01*
X108912318Y-149340000D01*
X108912318Y-144354633D01*
X108594270Y-143509243D01*
X108594270Y-133061093D01*
X108322688Y-132353570D01*
X108266166Y-132268979D01*
X107914101Y-132191820D01*
X107878180Y-132227741D01*
X107878180Y-132155899D01*
X107801021Y-131803834D01*
X107108689Y-131495577D01*
X106351093Y-131475730D01*
X105643570Y-131747312D01*
X105558979Y-131803834D01*
X105481820Y-132155899D01*
X106680000Y-133354079D01*
X107878180Y-132155899D01*
X107878180Y-132227741D01*
X106715921Y-133390000D01*
X107914101Y-134588180D01*
X108266166Y-134511021D01*
X108574423Y-133818689D01*
X108594270Y-133061093D01*
X108594270Y-143509243D01*
X108367539Y-142906579D01*
X108331286Y-142852322D01*
X108331286Y-138063037D01*
X108080466Y-137456005D01*
X107878180Y-137253365D01*
X107878180Y-134624101D01*
X106680000Y-133425921D01*
X106644079Y-133461842D01*
X106644079Y-133390000D01*
X105445899Y-132191820D01*
X105093834Y-132268979D01*
X104785577Y-132961311D01*
X104765730Y-133718907D01*
X105037312Y-134426430D01*
X105093834Y-134511021D01*
X105445899Y-134588180D01*
X106644079Y-133390000D01*
X106644079Y-133461842D01*
X105481820Y-134624101D01*
X105558979Y-134976166D01*
X106251311Y-135284423D01*
X107008907Y-135304270D01*
X107716430Y-135032688D01*
X107801021Y-134976166D01*
X107878180Y-134624101D01*
X107878180Y-137253365D01*
X107616437Y-136991166D01*
X107009845Y-136739287D01*
X106353037Y-136738714D01*
X105746005Y-136989534D01*
X105281166Y-137453563D01*
X105029287Y-138060155D01*
X105028714Y-138716963D01*
X105279534Y-139323995D01*
X105743563Y-139788834D01*
X106350155Y-140040713D01*
X107006963Y-140041286D01*
X107613995Y-139790466D01*
X108078834Y-139326437D01*
X108330713Y-138719845D01*
X108331286Y-138063037D01*
X108331286Y-142852322D01*
X108222770Y-142689917D01*
X107664558Y-142371363D01*
X107628637Y-142407284D01*
X107628637Y-142335442D01*
X107310083Y-141777230D01*
X105900937Y-141138518D01*
X104354633Y-141087682D01*
X102906579Y-141632461D01*
X102689917Y-141777230D01*
X102371363Y-142335442D01*
X105000000Y-144964079D01*
X107628637Y-142335442D01*
X107628637Y-142407284D01*
X105035921Y-145000000D01*
X107664558Y-147628637D01*
X108222770Y-147310083D01*
X108861482Y-145900937D01*
X108912318Y-144354633D01*
X108912318Y-149340000D01*
X107628637Y-149340000D01*
X107628637Y-147664558D01*
X105000000Y-145035921D01*
X104964079Y-145071842D01*
X104964079Y-145000000D01*
X102335442Y-142371363D01*
X101777230Y-142689917D01*
X101138518Y-144099063D01*
X101087682Y-145645367D01*
X101632461Y-147093421D01*
X101777230Y-147310083D01*
X102335442Y-147628637D01*
X104964079Y-145000000D01*
X104964079Y-145071842D01*
X102371363Y-147664558D01*
X102689917Y-148222770D01*
X104099063Y-148861482D01*
X105645367Y-148912318D01*
X107093421Y-148367539D01*
X107310083Y-148222770D01*
X107628637Y-147664558D01*
X107628637Y-149340000D01*
X100660000Y-149340000D01*
X100660000Y-100660000D01*
X169869140Y-100660000D01*
X169685173Y-100843647D01*
X169481732Y-101333587D01*
X169481269Y-101864086D01*
X169592547Y-102133400D01*
X161290000Y-102133400D01*
X161008115Y-102189470D01*
X160769145Y-102349145D01*
X160296594Y-102821695D01*
X160476867Y-102570774D01*
X160459928Y-102485605D01*
X160182666Y-101860504D01*
X159687293Y-101389090D01*
X159049226Y-101143131D01*
X158775400Y-101339832D01*
X158775400Y-102844600D01*
X158795400Y-102844600D01*
X158795400Y-102895400D01*
X158775400Y-102895400D01*
X158775400Y-102915400D01*
X158724600Y-102915400D01*
X158724600Y-102895400D01*
X158724600Y-102844600D01*
X158724600Y-101339832D01*
X158450774Y-101143131D01*
X157812707Y-101389090D01*
X157480000Y-101705705D01*
X157147293Y-101389090D01*
X156509226Y-101143131D01*
X156235400Y-101339832D01*
X156235400Y-102844600D01*
X157219861Y-102844600D01*
X157740139Y-102844600D01*
X158724600Y-102844600D01*
X158724600Y-102895400D01*
X157740139Y-102895400D01*
X157219861Y-102895400D01*
X156235400Y-102895400D01*
X156235400Y-102915400D01*
X156184600Y-102915400D01*
X156184600Y-102895400D01*
X156164600Y-102895400D01*
X156164600Y-102844600D01*
X156184600Y-102844600D01*
X156184600Y-101339832D01*
X155910774Y-101143131D01*
X155272707Y-101389090D01*
X154786638Y-101851649D01*
X154759029Y-101810330D01*
X154272848Y-101485474D01*
X153699359Y-101371400D01*
X153640641Y-101371400D01*
X153067152Y-101485474D01*
X152580971Y-101810330D01*
X152400000Y-102081172D01*
X152219029Y-101810330D01*
X151732848Y-101485474D01*
X151159359Y-101371400D01*
X151100641Y-101371400D01*
X150527152Y-101485474D01*
X150040971Y-101810330D01*
X149860000Y-102081172D01*
X149679029Y-101810330D01*
X149192848Y-101485474D01*
X148619359Y-101371400D01*
X148560641Y-101371400D01*
X147987152Y-101485474D01*
X147500971Y-101810330D01*
X147320000Y-102081172D01*
X147139029Y-101810330D01*
X146652848Y-101485474D01*
X146079359Y-101371400D01*
X146020641Y-101371400D01*
X145447152Y-101485474D01*
X144960971Y-101810330D01*
X144780000Y-102081172D01*
X144599029Y-101810330D01*
X144112848Y-101485474D01*
X143539359Y-101371400D01*
X143480641Y-101371400D01*
X142907152Y-101485474D01*
X142420971Y-101810330D01*
X142240000Y-102081172D01*
X142059029Y-101810330D01*
X141572848Y-101485474D01*
X140999359Y-101371400D01*
X140940641Y-101371400D01*
X140367152Y-101485474D01*
X139880971Y-101810330D01*
X139700000Y-102081172D01*
X139519029Y-101810330D01*
X139032848Y-101485474D01*
X138459359Y-101371400D01*
X138400641Y-101371400D01*
X137827152Y-101485474D01*
X137340971Y-101810330D01*
X137160000Y-102081172D01*
X136979029Y-101810330D01*
X136492848Y-101485474D01*
X135919359Y-101371400D01*
X135860641Y-101371400D01*
X135287152Y-101485474D01*
X134800971Y-101810330D01*
X134620000Y-102081172D01*
X134439029Y-101810330D01*
X133952848Y-101485474D01*
X133379359Y-101371400D01*
X133320641Y-101371400D01*
X132747152Y-101485474D01*
X132260971Y-101810330D01*
X132080000Y-102081172D01*
X131899029Y-101810330D01*
X131412848Y-101485474D01*
X130839359Y-101371400D01*
X130780641Y-101371400D01*
X130207152Y-101485474D01*
X129720971Y-101810330D01*
X129540000Y-102081172D01*
X129359029Y-101810330D01*
X128872848Y-101485474D01*
X128299359Y-101371400D01*
X128240641Y-101371400D01*
X127667152Y-101485474D01*
X127180971Y-101810330D01*
X127000000Y-102081172D01*
X126819029Y-101810330D01*
X126332848Y-101485474D01*
X125759359Y-101371400D01*
X125700641Y-101371400D01*
X125127152Y-101485474D01*
X124640971Y-101810330D01*
X124460000Y-102081172D01*
X124279029Y-101810330D01*
X123792848Y-101485474D01*
X123219359Y-101371400D01*
X123160641Y-101371400D01*
X122587152Y-101485474D01*
X122100971Y-101810330D01*
X121920000Y-102081172D01*
X121739029Y-101810330D01*
X121252848Y-101485474D01*
X120679359Y-101371400D01*
X120620641Y-101371400D01*
X120047152Y-101485474D01*
X119560971Y-101810330D01*
X119380000Y-102081172D01*
X119199029Y-101810330D01*
X118712848Y-101485474D01*
X118139359Y-101371400D01*
X118080641Y-101371400D01*
X117507152Y-101485474D01*
X117020971Y-101810330D01*
X116840000Y-102081172D01*
X116659029Y-101810330D01*
X116172848Y-101485474D01*
X115599359Y-101371400D01*
X115540641Y-101371400D01*
X114967152Y-101485474D01*
X114480971Y-101810330D01*
X114300000Y-102081172D01*
X114119029Y-101810330D01*
X113632848Y-101485474D01*
X113059359Y-101371400D01*
X113000641Y-101371400D01*
X112427152Y-101485474D01*
X111940971Y-101810330D01*
X111760000Y-102081172D01*
X111579029Y-101810330D01*
X111092848Y-101485474D01*
X110519359Y-101371400D01*
X110460641Y-101371400D01*
X109887152Y-101485474D01*
X109400971Y-101810330D01*
X109220000Y-102081172D01*
X109039029Y-101810330D01*
X108552848Y-101485474D01*
X107979359Y-101371400D01*
X107920641Y-101371400D01*
X107347152Y-101485474D01*
X106860971Y-101810330D01*
X106680000Y-102081172D01*
X106499029Y-101810330D01*
X106012848Y-101485474D01*
X105439359Y-101371400D01*
X105380641Y-101371400D01*
X104807152Y-101485474D01*
X104320971Y-101810330D01*
X104293361Y-101851649D01*
X103807293Y-101389090D01*
X103169226Y-101143131D01*
X102895400Y-101339832D01*
X102895400Y-102844600D01*
X102915400Y-102844600D01*
X102915400Y-102895400D01*
X102895400Y-102895400D01*
X102895400Y-103879650D01*
X102895400Y-104400168D01*
X102895400Y-105384600D01*
X102915400Y-105384600D01*
X102915400Y-105435400D01*
X102895400Y-105435400D01*
X102895400Y-106940350D01*
X103117650Y-107162600D01*
X103910433Y-107162600D01*
X104237178Y-107027258D01*
X104487258Y-106777178D01*
X104550974Y-106623353D01*
X104807152Y-106794526D01*
X105380641Y-106908600D01*
X105439359Y-106908600D01*
X106012848Y-106794526D01*
X106499029Y-106469670D01*
X106680000Y-106198827D01*
X106860971Y-106469670D01*
X107347152Y-106794526D01*
X107920641Y-106908600D01*
X107979359Y-106908600D01*
X108552848Y-106794526D01*
X109039029Y-106469670D01*
X109220000Y-106198827D01*
X109400971Y-106469670D01*
X109887152Y-106794526D01*
X110460641Y-106908600D01*
X110519359Y-106908600D01*
X111092848Y-106794526D01*
X111579029Y-106469670D01*
X111760000Y-106198827D01*
X111940971Y-106469670D01*
X112427152Y-106794526D01*
X113000641Y-106908600D01*
X113059359Y-106908600D01*
X113632848Y-106794526D01*
X114119029Y-106469670D01*
X114300000Y-106198827D01*
X114480971Y-106469670D01*
X114967152Y-106794526D01*
X115540641Y-106908600D01*
X115599359Y-106908600D01*
X116172848Y-106794526D01*
X116659029Y-106469670D01*
X116840000Y-106198827D01*
X117020971Y-106469670D01*
X117507152Y-106794526D01*
X118080641Y-106908600D01*
X118139359Y-106908600D01*
X118712848Y-106794526D01*
X119199029Y-106469670D01*
X119380000Y-106198827D01*
X119560971Y-106469670D01*
X120047152Y-106794526D01*
X120620641Y-106908600D01*
X120679359Y-106908600D01*
X121252848Y-106794526D01*
X121739029Y-106469670D01*
X121920000Y-106198827D01*
X122100971Y-106469670D01*
X122587152Y-106794526D01*
X123160641Y-106908600D01*
X123219359Y-106908600D01*
X123792848Y-106794526D01*
X124279029Y-106469670D01*
X124460000Y-106198827D01*
X124640971Y-106469670D01*
X125127152Y-106794526D01*
X125700641Y-106908600D01*
X125759359Y-106908600D01*
X126332848Y-106794526D01*
X126819029Y-106469670D01*
X127000000Y-106198827D01*
X127180971Y-106469670D01*
X127667152Y-106794526D01*
X128240641Y-106908600D01*
X128299359Y-106908600D01*
X128872848Y-106794526D01*
X129359029Y-106469670D01*
X129540000Y-106198827D01*
X129720971Y-106469670D01*
X130207152Y-106794526D01*
X130780641Y-106908600D01*
X130839359Y-106908600D01*
X131412848Y-106794526D01*
X131899029Y-106469670D01*
X132080000Y-106198827D01*
X132260971Y-106469670D01*
X132747152Y-106794526D01*
X133320641Y-106908600D01*
X133379359Y-106908600D01*
X133952848Y-106794526D01*
X134439029Y-106469670D01*
X134620000Y-106198827D01*
X134800971Y-106469670D01*
X135287152Y-106794526D01*
X135860641Y-106908600D01*
X135919359Y-106908600D01*
X136492848Y-106794526D01*
X136979029Y-106469670D01*
X137160000Y-106198827D01*
X137340971Y-106469670D01*
X137827152Y-106794526D01*
X138400641Y-106908600D01*
X138459359Y-106908600D01*
X139032848Y-106794526D01*
X139519029Y-106469670D01*
X139700000Y-106198827D01*
X139880971Y-106469670D01*
X140367152Y-106794526D01*
X140940641Y-106908600D01*
X140999359Y-106908600D01*
X141572848Y-106794526D01*
X142059029Y-106469670D01*
X142240000Y-106198827D01*
X142420971Y-106469670D01*
X142907152Y-106794526D01*
X143480641Y-106908600D01*
X143539359Y-106908600D01*
X144112848Y-106794526D01*
X144599029Y-106469670D01*
X144780000Y-106198827D01*
X144960971Y-106469670D01*
X145447152Y-106794526D01*
X146020641Y-106908600D01*
X146079359Y-106908600D01*
X146652848Y-106794526D01*
X147139029Y-106469670D01*
X147320000Y-106198827D01*
X147500971Y-106469670D01*
X147987152Y-106794526D01*
X148560641Y-106908600D01*
X148619359Y-106908600D01*
X149192848Y-106794526D01*
X149679029Y-106469670D01*
X149860000Y-106198827D01*
X150040971Y-106469670D01*
X150527152Y-106794526D01*
X151100641Y-106908600D01*
X151159359Y-106908600D01*
X151732848Y-106794526D01*
X152172591Y-106500698D01*
X150184018Y-108489271D01*
X150136816Y-108469671D01*
X149585602Y-108469190D01*
X149536279Y-108489569D01*
X148475855Y-107429145D01*
X148236885Y-107269470D01*
X147955000Y-107213400D01*
X130810000Y-107213400D01*
X130528115Y-107269470D01*
X130289145Y-107429145D01*
X128384145Y-109334145D01*
X128224470Y-109573115D01*
X128168400Y-109855000D01*
X128168400Y-113470835D01*
X127980345Y-113548538D01*
X127520154Y-114007927D01*
X127441062Y-114198400D01*
X126094774Y-114198400D01*
X126094774Y-111436306D01*
X125846462Y-110835345D01*
X125387073Y-110375154D01*
X124898567Y-110172309D01*
X125384655Y-109971462D01*
X125844846Y-109512073D01*
X126094206Y-108911547D01*
X126094774Y-108261306D01*
X125846462Y-107660345D01*
X125387073Y-107200154D01*
X124786547Y-106950794D01*
X124136306Y-106950226D01*
X123535345Y-107198538D01*
X123075154Y-107657927D01*
X122825794Y-108258453D01*
X122825226Y-108908694D01*
X123073538Y-109509655D01*
X123532927Y-109969846D01*
X124021432Y-110172690D01*
X123535345Y-110373538D01*
X123075154Y-110832927D01*
X122825794Y-111433453D01*
X122825492Y-111778061D01*
X120811554Y-113792000D01*
X120372365Y-113792000D01*
X120282817Y-113575812D01*
X120104189Y-113397183D01*
X119870800Y-113300510D01*
X119618181Y-113300510D01*
X117619201Y-113300510D01*
X117385812Y-113397183D01*
X117207183Y-113575811D01*
X117110510Y-113809200D01*
X117110510Y-114061819D01*
X117110510Y-116060799D01*
X117207183Y-116294188D01*
X117385811Y-116472817D01*
X117619200Y-116569490D01*
X117871819Y-116569490D01*
X119870799Y-116569490D01*
X120104188Y-116472817D01*
X120282817Y-116294189D01*
X120372365Y-116078000D01*
X121285000Y-116078000D01*
X121722407Y-115990994D01*
X122093223Y-115743223D01*
X124441970Y-113394475D01*
X124783694Y-113394774D01*
X125384655Y-113146462D01*
X125844846Y-112687073D01*
X126094206Y-112086547D01*
X126094774Y-111436306D01*
X126094774Y-114198400D01*
X124460000Y-114198400D01*
X124178115Y-114254470D01*
X123939145Y-114414145D01*
X121799465Y-116553824D01*
X121611547Y-116475794D01*
X120961306Y-116475226D01*
X120360345Y-116723538D01*
X119900154Y-117182927D01*
X119650794Y-117783453D01*
X119650226Y-118433694D01*
X119898538Y-119034655D01*
X120357927Y-119494846D01*
X120958453Y-119744206D01*
X121608694Y-119744774D01*
X122209655Y-119496462D01*
X122669846Y-119037073D01*
X122919206Y-118436547D01*
X122919774Y-117786306D01*
X122841015Y-117595694D01*
X124765109Y-115671600D01*
X127440835Y-115671600D01*
X127518538Y-115859655D01*
X127977927Y-116319846D01*
X128578453Y-116569206D01*
X129228694Y-116569774D01*
X129829655Y-116321462D01*
X129933603Y-116217694D01*
X129810794Y-116513453D01*
X129810226Y-117163694D01*
X130058538Y-117764655D01*
X130399891Y-118106604D01*
X130055620Y-118248854D01*
X129680173Y-118623647D01*
X129539906Y-118961446D01*
X129401146Y-118625620D01*
X129026353Y-118250173D01*
X128536413Y-118046732D01*
X128005914Y-118046269D01*
X127515620Y-118248854D01*
X127140173Y-118623647D01*
X126999906Y-118961446D01*
X126861146Y-118625620D01*
X126486353Y-118250173D01*
X125996413Y-118046732D01*
X125465914Y-118046269D01*
X124975620Y-118248854D01*
X124600173Y-118623647D01*
X124396732Y-119113587D01*
X124396269Y-119644086D01*
X124598854Y-120134380D01*
X124973647Y-120509827D01*
X125463587Y-120713268D01*
X125994086Y-120713731D01*
X126484380Y-120511146D01*
X126859827Y-120136353D01*
X127000093Y-119798553D01*
X127138854Y-120134380D01*
X127513647Y-120509827D01*
X128003587Y-120713268D01*
X128534086Y-120713731D01*
X129024380Y-120511146D01*
X129399827Y-120136353D01*
X129540093Y-119798553D01*
X129678854Y-120134380D01*
X130053647Y-120509827D01*
X130543587Y-120713268D01*
X131074086Y-120713731D01*
X131564380Y-120511146D01*
X131939827Y-120136353D01*
X132080093Y-119798553D01*
X132218854Y-120134380D01*
X132593647Y-120509827D01*
X133083587Y-120713268D01*
X133614086Y-120713731D01*
X134104380Y-120511146D01*
X134479827Y-120136353D01*
X134620093Y-119798553D01*
X134758854Y-120134380D01*
X135133647Y-120509827D01*
X135623587Y-120713268D01*
X136154086Y-120713731D01*
X136644380Y-120511146D01*
X137019827Y-120136353D01*
X137160093Y-119798553D01*
X137298854Y-120134380D01*
X137673647Y-120509827D01*
X138163587Y-120713268D01*
X138694086Y-120713731D01*
X139184380Y-120511146D01*
X139559827Y-120136353D01*
X139700093Y-119798553D01*
X139838854Y-120134380D01*
X140213647Y-120509827D01*
X140703587Y-120713268D01*
X141234086Y-120713731D01*
X141724380Y-120511146D01*
X142099827Y-120136353D01*
X142240093Y-119798553D01*
X142378854Y-120134380D01*
X142753647Y-120509827D01*
X143243587Y-120713268D01*
X143774086Y-120713731D01*
X144264380Y-120511146D01*
X144639827Y-120136353D01*
X144780093Y-119798553D01*
X144918854Y-120134380D01*
X145293647Y-120509827D01*
X145783587Y-120713268D01*
X146314086Y-120713731D01*
X146804380Y-120511146D01*
X147179827Y-120136353D01*
X147180148Y-120135579D01*
X147223356Y-120247271D01*
X147265756Y-120310724D01*
X147584834Y-120349245D01*
X148554079Y-119380000D01*
X148539936Y-119365857D01*
X148575857Y-119329936D01*
X148590000Y-119344079D01*
X148604142Y-119329936D01*
X148640063Y-119365857D01*
X148625921Y-119380000D01*
X149595166Y-120349245D01*
X149914244Y-120310724D01*
X149987000Y-120146159D01*
X149987000Y-120811554D01*
X149559245Y-121239308D01*
X149559245Y-120385166D01*
X148590000Y-119415921D01*
X147620755Y-120385166D01*
X147659276Y-120704244D01*
X148236890Y-120959615D01*
X148868261Y-120974504D01*
X149457271Y-120746644D01*
X149520724Y-120704244D01*
X149559245Y-120385166D01*
X149559245Y-121239308D01*
X149386553Y-121412000D01*
X119086486Y-121412000D01*
X118959997Y-121285290D01*
X118409398Y-121056661D01*
X117813218Y-121056141D01*
X117262220Y-121283808D01*
X117021795Y-121523813D01*
X116694214Y-121466707D01*
X116658293Y-121502628D01*
X115605921Y-122555000D01*
X116694214Y-123643293D01*
X117021880Y-123586171D01*
X117260003Y-123824710D01*
X117810602Y-124053339D01*
X118406782Y-124053859D01*
X118957780Y-123826192D01*
X119086195Y-123698000D01*
X149860000Y-123698000D01*
X150297407Y-123610994D01*
X150668223Y-123363223D01*
X151130000Y-122901446D01*
X151591777Y-123363223D01*
X151962593Y-123610994D01*
X152400000Y-123698000D01*
X175421554Y-123698000D01*
X177749386Y-126025832D01*
X177938854Y-126484380D01*
X178313647Y-126859827D01*
X178651446Y-127000093D01*
X178315620Y-127138854D01*
X177940173Y-127513647D01*
X177736732Y-128003587D01*
X177736269Y-128534086D01*
X177938854Y-129024380D01*
X178313647Y-129399827D01*
X178803587Y-129603268D01*
X179334086Y-129603731D01*
X179824380Y-129401146D01*
X180199827Y-129026353D01*
X180361222Y-128637668D01*
X180801777Y-129078223D01*
X181172593Y-129325994D01*
X181610000Y-129413000D01*
X185965371Y-129413000D01*
X186423587Y-129603268D01*
X186954086Y-129603731D01*
X187444380Y-129401146D01*
X187819827Y-129026353D01*
X188023268Y-128536413D01*
X188023644Y-128105354D01*
X188493400Y-128575110D01*
X188493400Y-129862621D01*
X188175668Y-129730687D01*
X187746216Y-129730313D01*
X187349311Y-129894311D01*
X187045378Y-130197714D01*
X186880687Y-130594332D01*
X186880466Y-130847823D01*
X185535472Y-132192817D01*
X185535810Y-131805602D01*
X185325314Y-131296163D01*
X184935887Y-130906056D01*
X184426816Y-130694671D01*
X183875602Y-130694190D01*
X183366163Y-130904686D01*
X183039574Y-131230704D01*
X183021915Y-131184987D01*
X182977200Y-131118067D01*
X182652712Y-131073209D01*
X182616791Y-131109130D01*
X182616791Y-131037288D01*
X182571933Y-130712800D01*
X181975506Y-130448756D01*
X181323433Y-130433054D01*
X180714987Y-130668085D01*
X180648067Y-130712800D01*
X180603209Y-131037288D01*
X181610000Y-132044079D01*
X182616791Y-131037288D01*
X182616791Y-131109130D01*
X181645921Y-132080000D01*
X181660063Y-132094142D01*
X181624142Y-132130063D01*
X181610000Y-132115921D01*
X181595857Y-132130063D01*
X181574079Y-132108285D01*
X181559936Y-132094142D01*
X181574079Y-132080000D01*
X180567288Y-131073209D01*
X180242800Y-131118067D01*
X179978756Y-131714494D01*
X179963054Y-132366567D01*
X180198085Y-132975013D01*
X180242800Y-133041933D01*
X180567285Y-133086790D01*
X180411733Y-133242343D01*
X180417790Y-133248400D01*
X176835110Y-133248400D01*
X174004077Y-130417367D01*
X174269622Y-130152286D01*
X174434313Y-129755668D01*
X174434687Y-129326216D01*
X174270689Y-128929311D01*
X173967286Y-128625378D01*
X173570668Y-128460687D01*
X173141216Y-128460313D01*
X172744311Y-128624311D01*
X172564909Y-128803400D01*
X162560000Y-128803400D01*
X162278115Y-128859470D01*
X162039145Y-129019145D01*
X161327757Y-129730532D01*
X161076216Y-129730313D01*
X160679311Y-129894311D01*
X160375378Y-130197714D01*
X160210791Y-130594081D01*
X159905855Y-130289145D01*
X159666885Y-130129470D01*
X159385000Y-130073400D01*
X131445000Y-130073400D01*
X131163115Y-130129470D01*
X130924145Y-130289145D01*
X130847757Y-130365532D01*
X130596216Y-130365313D01*
X130199311Y-130529311D01*
X129895378Y-130832714D01*
X129730687Y-131229332D01*
X129730313Y-131658784D01*
X129894311Y-132055689D01*
X130197714Y-132359622D01*
X130594332Y-132524313D01*
X131023784Y-132524687D01*
X131085229Y-132499298D01*
X131132375Y-132613400D01*
X130329997Y-132613400D01*
X130152286Y-132435378D01*
X129755668Y-132270687D01*
X129326216Y-132270313D01*
X128929311Y-132434311D01*
X128625378Y-132737714D01*
X128460687Y-133134332D01*
X128460554Y-133286665D01*
X128005914Y-133286269D01*
X127515620Y-133488854D01*
X127140173Y-133863647D01*
X127063500Y-134048295D01*
X127063500Y-133795191D01*
X126966827Y-133561802D01*
X126788199Y-133383173D01*
X126554810Y-133286500D01*
X126302191Y-133286500D01*
X124905191Y-133286500D01*
X124671802Y-133383173D01*
X124493173Y-133561801D01*
X124396500Y-133795190D01*
X124396500Y-134047809D01*
X124396500Y-135444809D01*
X124493173Y-135678198D01*
X124671801Y-135856827D01*
X124905190Y-135953500D01*
X125157809Y-135953500D01*
X126554809Y-135953500D01*
X126788198Y-135856827D01*
X126966827Y-135678199D01*
X127063500Y-135444810D01*
X127063500Y-135192191D01*
X127063500Y-135192009D01*
X127138854Y-135374380D01*
X127513647Y-135749827D01*
X128003587Y-135953268D01*
X128534086Y-135953731D01*
X129024380Y-135751146D01*
X129399827Y-135376353D01*
X129540093Y-135038553D01*
X129678854Y-135374380D01*
X130053647Y-135749827D01*
X130543587Y-135953268D01*
X131074086Y-135953731D01*
X131564380Y-135751146D01*
X131939827Y-135376353D01*
X132080093Y-135038553D01*
X132218854Y-135374380D01*
X132593647Y-135749827D01*
X133083587Y-135953268D01*
X133614086Y-135953731D01*
X134104380Y-135751146D01*
X134479827Y-135376353D01*
X134620093Y-135038553D01*
X134758854Y-135374380D01*
X135133647Y-135749827D01*
X135623587Y-135953268D01*
X136154086Y-135953731D01*
X136644380Y-135751146D01*
X137019827Y-135376353D01*
X137160093Y-135038553D01*
X137298854Y-135374380D01*
X137673647Y-135749827D01*
X138163587Y-135953268D01*
X138694086Y-135953731D01*
X139184380Y-135751146D01*
X139559827Y-135376353D01*
X139700093Y-135038553D01*
X139838854Y-135374380D01*
X140213647Y-135749827D01*
X140703587Y-135953268D01*
X141234086Y-135953731D01*
X141724380Y-135751146D01*
X142099827Y-135376353D01*
X142240093Y-135038553D01*
X142378854Y-135374380D01*
X142753647Y-135749827D01*
X143243587Y-135953268D01*
X143774086Y-135953731D01*
X143793853Y-135945563D01*
X144894145Y-137045855D01*
X145133115Y-137205530D01*
X145133116Y-137205530D01*
X145415000Y-137261600D01*
X146529236Y-137261600D01*
X146146056Y-137644113D01*
X145934671Y-138153184D01*
X145934631Y-138198922D01*
X145241777Y-138891777D01*
X144994006Y-139262593D01*
X144907000Y-139700000D01*
X144907000Y-140335000D01*
X144907000Y-140496554D01*
X144669541Y-140734012D01*
X144206511Y-140826115D01*
X143720330Y-141150971D01*
X143706263Y-141172023D01*
X143641927Y-141016702D01*
X143463299Y-140838073D01*
X143229910Y-140741400D01*
X142977291Y-140741400D01*
X141250091Y-140741400D01*
X141016702Y-140838073D01*
X140838073Y-141016701D01*
X140741400Y-141250090D01*
X140741400Y-141502709D01*
X140741400Y-142509886D01*
X140550668Y-142430687D01*
X140121216Y-142430313D01*
X139724311Y-142594311D01*
X139420378Y-142897714D01*
X139255687Y-143294332D01*
X139255313Y-143723784D01*
X139419311Y-144120689D01*
X139722714Y-144424622D01*
X140119332Y-144589313D01*
X140548784Y-144589687D01*
X140793531Y-144488559D01*
X140741400Y-144750641D01*
X140741400Y-144809359D01*
X140855474Y-145382848D01*
X141180330Y-145869029D01*
X141451172Y-146050000D01*
X141180330Y-146230971D01*
X140855474Y-146717152D01*
X140741400Y-147290641D01*
X140741400Y-147349359D01*
X140855474Y-147922848D01*
X141180330Y-148409029D01*
X141666511Y-148733885D01*
X142240000Y-148847959D01*
X142813489Y-148733885D01*
X143299670Y-148409029D01*
X143358995Y-148320242D01*
X143770504Y-148752666D01*
X144395605Y-149029928D01*
X144480774Y-149046867D01*
X144754600Y-148850139D01*
X144754600Y-147345400D01*
X144734600Y-147345400D01*
X144734600Y-147294600D01*
X144754600Y-147294600D01*
X144754600Y-147274600D01*
X144805400Y-147274600D01*
X144805400Y-147294600D01*
X146310168Y-147294600D01*
X146506869Y-147020774D01*
X146260910Y-146382707D01*
X145798350Y-145896638D01*
X145839670Y-145869029D01*
X146164526Y-145382848D01*
X146278600Y-144809359D01*
X146278600Y-144750641D01*
X146164526Y-144177152D01*
X145839670Y-143690971D01*
X145568827Y-143510000D01*
X145839670Y-143329029D01*
X146164526Y-142842848D01*
X146256628Y-142379817D01*
X146858223Y-141778223D01*
X147105994Y-141407407D01*
X147193000Y-140970000D01*
X147193000Y-140335000D01*
X147193000Y-140173446D01*
X147550674Y-139815771D01*
X147594398Y-139815810D01*
X148103837Y-139605314D01*
X148430425Y-139279295D01*
X148448085Y-139325013D01*
X148492800Y-139391933D01*
X148817288Y-139436791D01*
X149824079Y-138430000D01*
X149809936Y-138415857D01*
X149845857Y-138379936D01*
X149860000Y-138394079D01*
X149874142Y-138379936D01*
X149910063Y-138415857D01*
X149895921Y-138430000D01*
X150902712Y-139436791D01*
X151227200Y-139391933D01*
X151491244Y-138795506D01*
X151506946Y-138143433D01*
X151271915Y-137534987D01*
X151227200Y-137468067D01*
X150902714Y-137423209D01*
X151058267Y-137267657D01*
X151052210Y-137261600D01*
X162889890Y-137261600D01*
X167119145Y-141490855D01*
X167290978Y-141605670D01*
X167259967Y-141824046D01*
X168275000Y-142839079D01*
X168289142Y-142824936D01*
X168325063Y-142860857D01*
X168310921Y-142875000D01*
X168325063Y-142889142D01*
X168289142Y-142925063D01*
X168275000Y-142910921D01*
X168239079Y-142946842D01*
X168239079Y-142875000D01*
X167224046Y-141859967D01*
X166898371Y-141906216D01*
X166632423Y-142506774D01*
X166616543Y-143163391D01*
X166853148Y-143776102D01*
X166898371Y-143843784D01*
X167224046Y-143890033D01*
X168239079Y-142875000D01*
X168239079Y-142946842D01*
X167259967Y-143925954D01*
X167279352Y-144062461D01*
X167153302Y-144114673D01*
X166974673Y-144293301D01*
X166878000Y-144526690D01*
X166878000Y-144779309D01*
X166878000Y-146303309D01*
X166974673Y-146536698D01*
X167153301Y-146715327D01*
X167386690Y-146812000D01*
X167639309Y-146812000D01*
X169163309Y-146812000D01*
X169396698Y-146715327D01*
X169575327Y-146536699D01*
X169672000Y-146303310D01*
X169672000Y-146247386D01*
X170022630Y-146598629D01*
X170535900Y-146811757D01*
X171091661Y-146812242D01*
X171605303Y-146600010D01*
X171998629Y-146207370D01*
X172084949Y-145999487D01*
X172169990Y-146205303D01*
X172562630Y-146598629D01*
X173075900Y-146811757D01*
X173631661Y-146812242D01*
X174145303Y-146600010D01*
X174538629Y-146207370D01*
X174624949Y-145999487D01*
X174709990Y-146205303D01*
X175102630Y-146598629D01*
X175615900Y-146811757D01*
X176171661Y-146812242D01*
X176685303Y-146600010D01*
X177078629Y-146207370D01*
X177164949Y-145999487D01*
X177249990Y-146205303D01*
X177642630Y-146598629D01*
X178155900Y-146811757D01*
X178711661Y-146812242D01*
X179225303Y-146600010D01*
X179618629Y-146207370D01*
X179831757Y-145694100D01*
X179832242Y-145138339D01*
X179620010Y-144624697D01*
X179304802Y-144308938D01*
X179336102Y-144296852D01*
X179403784Y-144251629D01*
X179450033Y-143925954D01*
X178435000Y-142910921D01*
X177419967Y-143925954D01*
X177466216Y-144251629D01*
X177574835Y-144299729D01*
X177251371Y-144622630D01*
X177165050Y-144830512D01*
X177080010Y-144624697D01*
X176687370Y-144231371D01*
X176479487Y-144145050D01*
X176685303Y-144060010D01*
X177001061Y-143744802D01*
X177013148Y-143776102D01*
X177058371Y-143843784D01*
X177384046Y-143890033D01*
X178399079Y-142875000D01*
X177384046Y-141859967D01*
X177058371Y-141906216D01*
X177010270Y-142014835D01*
X176687370Y-141691371D01*
X176174100Y-141478243D01*
X175895646Y-141478000D01*
X177496703Y-141478000D01*
X177466216Y-141498371D01*
X177419967Y-141824046D01*
X178435000Y-142839079D01*
X179450033Y-141824046D01*
X179403784Y-141498371D01*
X179357782Y-141478000D01*
X181610000Y-141478000D01*
X182047407Y-141390994D01*
X182418223Y-141143223D01*
X182665994Y-140772407D01*
X182753000Y-140335000D01*
X182665994Y-139897593D01*
X182601853Y-139801600D01*
X185191090Y-139801600D01*
X186403824Y-141014334D01*
X186325794Y-141202253D01*
X186325226Y-141852494D01*
X186573538Y-142453455D01*
X187032927Y-142913646D01*
X187633453Y-143163006D01*
X188283694Y-143163574D01*
X188884655Y-142915262D01*
X189344846Y-142455873D01*
X189594206Y-141855347D01*
X189594774Y-141205106D01*
X189346462Y-140604145D01*
X188887073Y-140143954D01*
X188286547Y-139894594D01*
X187636306Y-139894026D01*
X187445694Y-139972784D01*
X186017055Y-138544145D01*
X185778085Y-138384470D01*
X185496200Y-138328400D01*
X167310109Y-138328400D01*
X165608310Y-136626600D01*
X172085000Y-136626600D01*
X172366885Y-136570530D01*
X172605855Y-136410855D01*
X173240855Y-135775855D01*
X173252903Y-135757823D01*
X173723587Y-135953268D01*
X174254086Y-135953731D01*
X174744380Y-135751146D01*
X175119827Y-135376353D01*
X175128029Y-135356600D01*
X176656902Y-135356600D01*
X176415154Y-135597927D01*
X176165794Y-136198453D01*
X176165226Y-136848694D01*
X176413538Y-137449655D01*
X176872927Y-137909846D01*
X177473453Y-138159206D01*
X178123694Y-138159774D01*
X178724655Y-137911462D01*
X179184846Y-137452073D01*
X179434206Y-136851547D01*
X179434774Y-136201306D01*
X179186462Y-135600345D01*
X178943141Y-135356600D01*
X186690000Y-135356600D01*
X186848480Y-135325076D01*
X186575154Y-135597927D01*
X186325794Y-136198453D01*
X186325226Y-136848694D01*
X186573538Y-137449655D01*
X187032927Y-137909846D01*
X187633453Y-138159206D01*
X188283694Y-138159774D01*
X188474305Y-138081015D01*
X189979145Y-139585855D01*
X190218115Y-139745530D01*
X190271400Y-139756128D01*
X190271400Y-140054909D01*
X190368073Y-140288298D01*
X190546701Y-140466927D01*
X190780090Y-140563600D01*
X191032709Y-140563600D01*
X192759909Y-140563600D01*
X192993298Y-140466927D01*
X193171927Y-140288299D01*
X193242820Y-140117148D01*
X193460003Y-140334710D01*
X194010602Y-140563339D01*
X194606782Y-140563859D01*
X195157780Y-140336192D01*
X195579710Y-139914997D01*
X195580095Y-139914069D01*
X196000003Y-140334710D01*
X196550602Y-140563339D01*
X197146782Y-140563859D01*
X197697780Y-140336192D01*
X198119710Y-139914997D01*
X198348339Y-139364398D01*
X198348859Y-138768218D01*
X198121192Y-138217220D01*
X197699997Y-137795290D01*
X197628637Y-137765658D01*
X197628637Y-107664558D01*
X195000000Y-105035921D01*
X194964079Y-105071842D01*
X194964079Y-105000000D01*
X192335442Y-102371363D01*
X191777230Y-102689917D01*
X191138518Y-104099063D01*
X191087682Y-105645367D01*
X191632461Y-107093421D01*
X191777230Y-107310083D01*
X192335442Y-107628637D01*
X194964079Y-105000000D01*
X194964079Y-105071842D01*
X192371363Y-107664558D01*
X192689917Y-108222770D01*
X194099063Y-108861482D01*
X195645367Y-108912318D01*
X197093421Y-108367539D01*
X197310083Y-108222770D01*
X197628637Y-107664558D01*
X197628637Y-137765658D01*
X197238457Y-137603641D01*
X197238457Y-121631609D01*
X197001852Y-121018898D01*
X196977242Y-120982065D01*
X196977242Y-119103339D01*
X196765010Y-118589697D01*
X196372370Y-118196371D01*
X195859100Y-117983243D01*
X195303339Y-117982758D01*
X194789697Y-118194990D01*
X194437000Y-118547071D01*
X194437000Y-118491691D01*
X194340327Y-118258302D01*
X194161699Y-118079673D01*
X193928310Y-117983000D01*
X193675691Y-117983000D01*
X192151691Y-117983000D01*
X191918302Y-118079673D01*
X191739673Y-118258301D01*
X191643000Y-118491690D01*
X191643000Y-118744309D01*
X191643000Y-120268309D01*
X191739673Y-120501698D01*
X191918301Y-120680327D01*
X192044352Y-120732539D01*
X192024967Y-120869046D01*
X193040000Y-121884079D01*
X194055033Y-120869046D01*
X194035647Y-120732538D01*
X194161698Y-120680327D01*
X194340327Y-120501699D01*
X194437000Y-120268310D01*
X194437000Y-120212386D01*
X194710197Y-120486061D01*
X194678898Y-120498148D01*
X194611216Y-120543371D01*
X194564967Y-120869046D01*
X195580000Y-121884079D01*
X196595033Y-120869046D01*
X196548784Y-120543371D01*
X196440164Y-120495270D01*
X196763629Y-120172370D01*
X196976757Y-119659100D01*
X196977242Y-119103339D01*
X196977242Y-120982065D01*
X196956629Y-120951216D01*
X196630954Y-120904967D01*
X195615921Y-121920000D01*
X196630954Y-122935033D01*
X196956629Y-122888784D01*
X197222577Y-122288226D01*
X197238457Y-121631609D01*
X197238457Y-137603641D01*
X197149398Y-137566661D01*
X196553218Y-137566141D01*
X196002220Y-137793808D01*
X195580290Y-138215003D01*
X195579904Y-138215930D01*
X195159997Y-137795290D01*
X194609398Y-137566661D01*
X194013218Y-137566141D01*
X193462220Y-137793808D01*
X193242812Y-138012833D01*
X193171927Y-137841702D01*
X192993299Y-137663073D01*
X192759910Y-137566400D01*
X192507291Y-137566400D01*
X190780091Y-137566400D01*
X190546702Y-137663073D01*
X190368073Y-137841701D01*
X190353527Y-137876817D01*
X189516175Y-137039465D01*
X189594206Y-136851547D01*
X189594774Y-136201306D01*
X189346462Y-135600345D01*
X188887073Y-135140154D01*
X188286547Y-134890794D01*
X187636306Y-134890226D01*
X187338385Y-135013324D01*
X189750855Y-132600855D01*
X189910530Y-132361885D01*
X189966600Y-132080000D01*
X189966600Y-128270000D01*
X189910530Y-127988115D01*
X189750855Y-127749145D01*
X188480855Y-126479145D01*
X188462080Y-126466600D01*
X191748837Y-126466600D01*
X191643243Y-126720900D01*
X191642758Y-127276661D01*
X191854990Y-127790303D01*
X192247630Y-128183629D01*
X192455512Y-128269949D01*
X192249697Y-128354990D01*
X191856371Y-128747630D01*
X191643243Y-129260900D01*
X191642758Y-129816661D01*
X191854990Y-130330303D01*
X192247630Y-130723629D01*
X192760900Y-130936757D01*
X193316661Y-130937242D01*
X193830303Y-130725010D01*
X194223629Y-130332370D01*
X194309949Y-130124487D01*
X194394990Y-130330303D01*
X194787630Y-130723629D01*
X195300900Y-130936757D01*
X195856661Y-130937242D01*
X196370303Y-130725010D01*
X196763629Y-130332370D01*
X196976757Y-129819100D01*
X196977242Y-129263339D01*
X196765010Y-128749697D01*
X196372370Y-128356371D01*
X196164487Y-128270050D01*
X196370303Y-128185010D01*
X196763629Y-127792370D01*
X196976757Y-127279100D01*
X196977242Y-126723339D01*
X196765010Y-126209697D01*
X196372370Y-125816371D01*
X196164487Y-125730050D01*
X196370303Y-125645010D01*
X196763629Y-125252370D01*
X196976757Y-124739100D01*
X196977242Y-124183339D01*
X196765010Y-123669697D01*
X196449802Y-123353938D01*
X196481102Y-123341852D01*
X196548784Y-123296629D01*
X196595033Y-122970954D01*
X195580000Y-121955921D01*
X195544079Y-121991842D01*
X195544079Y-121920000D01*
X194529046Y-120904967D01*
X194310000Y-120936073D01*
X194090954Y-120904967D01*
X193075921Y-121920000D01*
X194090954Y-122935033D01*
X194310000Y-122903926D01*
X194529046Y-122935033D01*
X195544079Y-121920000D01*
X195544079Y-121991842D01*
X194564967Y-122970954D01*
X194611216Y-123296629D01*
X194719835Y-123344729D01*
X194396371Y-123667630D01*
X194310050Y-123875512D01*
X194225010Y-123669697D01*
X193909802Y-123353938D01*
X193941102Y-123341852D01*
X194008784Y-123296629D01*
X194055033Y-122970954D01*
X193040000Y-121955921D01*
X193004079Y-121991842D01*
X193004079Y-121920000D01*
X191989046Y-120904967D01*
X191663371Y-120951216D01*
X191397423Y-121551774D01*
X191381543Y-122208391D01*
X191618148Y-122821102D01*
X191663371Y-122888784D01*
X191989046Y-122935033D01*
X193004079Y-121920000D01*
X193004079Y-121991842D01*
X192024967Y-122970954D01*
X192071216Y-123296629D01*
X192179835Y-123344729D01*
X191937926Y-123586216D01*
X191020855Y-122669145D01*
X190781885Y-122509470D01*
X190500000Y-122453400D01*
X187828492Y-122453400D01*
X187821146Y-122435620D01*
X187446353Y-122060173D01*
X187108553Y-121919906D01*
X187444380Y-121781146D01*
X187819827Y-121406353D01*
X188023268Y-120916413D01*
X188023731Y-120385914D01*
X187821146Y-119895620D01*
X187446353Y-119520173D01*
X186956413Y-119316732D01*
X186425914Y-119316269D01*
X185935620Y-119518854D01*
X185560173Y-119893647D01*
X185356732Y-120383587D01*
X185356269Y-120914086D01*
X185364436Y-120933853D01*
X184264145Y-122034145D01*
X184104470Y-122273115D01*
X184048400Y-122555000D01*
X184048400Y-125730000D01*
X184104470Y-126011885D01*
X184264145Y-126250855D01*
X185140290Y-127127000D01*
X182083446Y-127127000D01*
X180664504Y-125708058D01*
X180664504Y-122911739D01*
X180436644Y-122322729D01*
X180403500Y-122273127D01*
X180403500Y-121474810D01*
X180403500Y-121222191D01*
X180403500Y-119825191D01*
X180306827Y-119591802D01*
X180128199Y-119413173D01*
X179894810Y-119316500D01*
X179642191Y-119316500D01*
X178245191Y-119316500D01*
X178011802Y-119413173D01*
X177833173Y-119591801D01*
X177736500Y-119825190D01*
X177736500Y-120077809D01*
X177736500Y-121474809D01*
X177833173Y-121708198D01*
X178011801Y-121886827D01*
X178130782Y-121936110D01*
X178100755Y-122184834D01*
X179070000Y-123154079D01*
X180039245Y-122184834D01*
X180009217Y-121936110D01*
X180128198Y-121886827D01*
X180306827Y-121708199D01*
X180403500Y-121474810D01*
X180403500Y-122273127D01*
X180394244Y-122259276D01*
X180075166Y-122220755D01*
X179105921Y-123190000D01*
X180075166Y-124159245D01*
X180394244Y-124120724D01*
X180649615Y-123543110D01*
X180664504Y-122911739D01*
X180664504Y-125708058D01*
X180390613Y-125434167D01*
X180201146Y-124975620D01*
X179826353Y-124600173D01*
X179825579Y-124599851D01*
X179937271Y-124556644D01*
X180000724Y-124514244D01*
X180039245Y-124195166D01*
X179070000Y-123225921D01*
X179055857Y-123240063D01*
X179019936Y-123204142D01*
X179034079Y-123190000D01*
X178064834Y-122220755D01*
X177745756Y-122259276D01*
X177583261Y-122626815D01*
X176703223Y-121746777D01*
X176332407Y-121499006D01*
X175895000Y-121412000D01*
X175539710Y-121412000D01*
X176492242Y-120459467D01*
X176743784Y-120459687D01*
X177140689Y-120295689D01*
X177444622Y-119992286D01*
X177609313Y-119595668D01*
X177609687Y-119166216D01*
X177445689Y-118769311D01*
X177142286Y-118465378D01*
X176745668Y-118300687D01*
X176316216Y-118300313D01*
X175919311Y-118464311D01*
X175615378Y-118767714D01*
X175450687Y-119164332D01*
X175450466Y-119417823D01*
X175323356Y-119544933D01*
X175323731Y-119115914D01*
X175121146Y-118625620D01*
X174746353Y-118250173D01*
X174256413Y-118046732D01*
X173725914Y-118046269D01*
X173235620Y-118248854D01*
X172860173Y-118623647D01*
X172719906Y-118961446D01*
X172581146Y-118625620D01*
X172278881Y-118322828D01*
X172944503Y-117657206D01*
X173055602Y-117703339D01*
X173651782Y-117703859D01*
X174202780Y-117476192D01*
X174624710Y-117054997D01*
X174625095Y-117054069D01*
X175045003Y-117474710D01*
X175595602Y-117703339D01*
X176191782Y-117703859D01*
X176742780Y-117476192D01*
X177164710Y-117054997D01*
X177165095Y-117054069D01*
X177585003Y-117474710D01*
X178135602Y-117703339D01*
X178731782Y-117703859D01*
X179282780Y-117476192D01*
X179704710Y-117054997D01*
X179705095Y-117054069D01*
X180125003Y-117474710D01*
X180675602Y-117703339D01*
X181271782Y-117703859D01*
X181822780Y-117476192D01*
X182244710Y-117054997D01*
X182473339Y-116504398D01*
X182473859Y-115908218D01*
X182246192Y-115357220D01*
X181824997Y-114935290D01*
X181274398Y-114706661D01*
X180678218Y-114706141D01*
X180127220Y-114933808D01*
X179705290Y-115355003D01*
X179704904Y-115355930D01*
X179333757Y-114984135D01*
X179351885Y-114980530D01*
X179590855Y-114820855D01*
X180564503Y-113847206D01*
X180675602Y-113893339D01*
X181271782Y-113893859D01*
X181822780Y-113666192D01*
X182244710Y-113244997D01*
X182473339Y-112694398D01*
X182473859Y-112098218D01*
X182246192Y-111547220D01*
X181926130Y-111226600D01*
X186690000Y-111226600D01*
X186971885Y-111170530D01*
X187210855Y-111010855D01*
X187845855Y-110375855D01*
X188005530Y-110136885D01*
X188005530Y-110136884D01*
X188061600Y-109855000D01*
X188061600Y-106680000D01*
X188005530Y-106398115D01*
X187845855Y-106159145D01*
X186791600Y-105104890D01*
X186791600Y-102738492D01*
X186809380Y-102731146D01*
X187184827Y-102356353D01*
X187388268Y-101866413D01*
X187388731Y-101335914D01*
X187186146Y-100845620D01*
X187000849Y-100660000D01*
X199340000Y-100660000D01*
X199340000Y-149340000D01*
X199340000Y-149340000D01*
G37*
X199340000Y-149340000D02*
X198912318Y-149340000D01*
X198912318Y-144354633D01*
X198912318Y-104354633D01*
X198367539Y-102906579D01*
X198222770Y-102689917D01*
X197664558Y-102371363D01*
X197628637Y-102407284D01*
X197628637Y-102335442D01*
X197310083Y-101777230D01*
X195900937Y-101138518D01*
X194354633Y-101087682D01*
X192906579Y-101632461D01*
X192689917Y-101777230D01*
X192371363Y-102335442D01*
X195000000Y-104964079D01*
X197628637Y-102335442D01*
X197628637Y-102407284D01*
X195035921Y-105000000D01*
X197664558Y-107628637D01*
X198222770Y-107310083D01*
X198861482Y-105900937D01*
X198912318Y-104354633D01*
X198912318Y-144354633D01*
X198367539Y-142906579D01*
X198222770Y-142689917D01*
X197664558Y-142371363D01*
X197628637Y-142407284D01*
X197628637Y-142335442D01*
X197310083Y-141777230D01*
X195900937Y-141138518D01*
X194354633Y-141087682D01*
X192906579Y-141632461D01*
X192689917Y-141777230D01*
X192371363Y-142335442D01*
X195000000Y-144964079D01*
X197628637Y-142335442D01*
X197628637Y-142407284D01*
X195035921Y-145000000D01*
X197664558Y-147628637D01*
X198222770Y-147310083D01*
X198861482Y-145900937D01*
X198912318Y-144354633D01*
X198912318Y-149340000D01*
X197628637Y-149340000D01*
X197628637Y-147664558D01*
X195000000Y-145035921D01*
X194964079Y-145071842D01*
X194964079Y-145000000D01*
X192335442Y-142371363D01*
X191777230Y-142689917D01*
X191138518Y-144099063D01*
X191087682Y-145645367D01*
X191632461Y-147093421D01*
X191777230Y-147310083D01*
X192335442Y-147628637D01*
X194964079Y-145000000D01*
X194964079Y-145071842D01*
X192371363Y-147664558D01*
X192689917Y-148222770D01*
X194099063Y-148861482D01*
X195645367Y-148912318D01*
X197093421Y-148367539D01*
X197310083Y-148222770D01*
X197628637Y-147664558D01*
X197628637Y-149340000D01*
X189793616Y-149340000D01*
X189848490Y-149207523D01*
X189848490Y-148278850D01*
X189848490Y-147783550D01*
X189848490Y-146854877D01*
X189713148Y-146528132D01*
X189463068Y-146278052D01*
X189136323Y-146142710D01*
X188782657Y-146142710D01*
X188207650Y-146142710D01*
X187985400Y-146364960D01*
X187985400Y-148005800D01*
X189626240Y-148005800D01*
X189848490Y-147783550D01*
X189848490Y-148278850D01*
X189626240Y-148056600D01*
X187985400Y-148056600D01*
X187985400Y-148076600D01*
X187934600Y-148076600D01*
X187934600Y-148056600D01*
X187934600Y-148005800D01*
X187934600Y-146364960D01*
X187712350Y-146142710D01*
X187137343Y-146142710D01*
X186783677Y-146142710D01*
X186456932Y-146278052D01*
X186206852Y-146528132D01*
X186071510Y-146854877D01*
X186071510Y-147783550D01*
X186293760Y-148005800D01*
X187934600Y-148005800D01*
X187934600Y-148056600D01*
X186293760Y-148056600D01*
X186071510Y-148278850D01*
X186071510Y-149207523D01*
X186126383Y-149340000D01*
X180093457Y-149340000D01*
X180093457Y-142586609D01*
X179856852Y-141973898D01*
X179811629Y-141906216D01*
X179485954Y-141859967D01*
X178470921Y-142875000D01*
X179485954Y-143890033D01*
X179811629Y-143843784D01*
X180077577Y-143243226D01*
X180093457Y-142586609D01*
X180093457Y-149340000D01*
X161666946Y-149340000D01*
X161666946Y-141953433D01*
X161431915Y-141344987D01*
X161405810Y-141305918D01*
X161405810Y-139425602D01*
X161195314Y-138916163D01*
X160805887Y-138526056D01*
X160296816Y-138314671D01*
X159745602Y-138314190D01*
X159236163Y-138524686D01*
X158846056Y-138914113D01*
X158825590Y-138963400D01*
X156063581Y-138963400D01*
X155725887Y-138625116D01*
X155216816Y-138413731D01*
X154665602Y-138413250D01*
X154156163Y-138623746D01*
X153766056Y-139013173D01*
X153554671Y-139522244D01*
X153554190Y-140073458D01*
X153764686Y-140582897D01*
X154154113Y-140973004D01*
X154663184Y-141184389D01*
X155214398Y-141184870D01*
X155723837Y-140974374D01*
X156113944Y-140584947D01*
X156175543Y-140436600D01*
X158825168Y-140436600D01*
X158844686Y-140483837D01*
X159170704Y-140810425D01*
X159124987Y-140828085D01*
X159058067Y-140872800D01*
X159013209Y-141197288D01*
X160020000Y-142204079D01*
X161026791Y-141197288D01*
X160981933Y-140872800D01*
X160860298Y-140818951D01*
X161193944Y-140485887D01*
X161405329Y-139976816D01*
X161405810Y-139425602D01*
X161405810Y-141305918D01*
X161387200Y-141278067D01*
X161062712Y-141233209D01*
X160055921Y-142240000D01*
X161062712Y-143246791D01*
X161387200Y-143201933D01*
X161651244Y-142605506D01*
X161666946Y-141953433D01*
X161666946Y-149340000D01*
X161026791Y-149340000D01*
X161026791Y-143282712D01*
X160020000Y-142275921D01*
X159984079Y-142311842D01*
X159984079Y-142240000D01*
X158977288Y-141233209D01*
X158652800Y-141278067D01*
X158388756Y-141874494D01*
X158373054Y-142526567D01*
X158608085Y-143135013D01*
X158652800Y-143201933D01*
X158977288Y-143246791D01*
X159984079Y-142240000D01*
X159984079Y-142311842D01*
X159013209Y-143282712D01*
X159058067Y-143607200D01*
X159654494Y-143871244D01*
X160306567Y-143886946D01*
X160915013Y-143651915D01*
X160981933Y-143607200D01*
X161026791Y-143282712D01*
X161026791Y-149340000D01*
X156325810Y-149340000D01*
X156325810Y-144406542D01*
X156115314Y-143897103D01*
X155725887Y-143506996D01*
X155216816Y-143295611D01*
X154665602Y-143295130D01*
X154156163Y-143505626D01*
X153766056Y-143895053D01*
X153704456Y-144043400D01*
X151506946Y-144043400D01*
X151506946Y-141953433D01*
X151271915Y-141344987D01*
X151227200Y-141278067D01*
X150902712Y-141233209D01*
X150866791Y-141269130D01*
X150866791Y-141197288D01*
X150866791Y-139472712D01*
X149860000Y-138465921D01*
X148853209Y-139472712D01*
X148898067Y-139797200D01*
X149494494Y-140061244D01*
X150146567Y-140076946D01*
X150755013Y-139841915D01*
X150821933Y-139797200D01*
X150866791Y-139472712D01*
X150866791Y-141197288D01*
X150821933Y-140872800D01*
X150225506Y-140608756D01*
X149573433Y-140593054D01*
X148964987Y-140828085D01*
X148898067Y-140872800D01*
X148853209Y-141197288D01*
X149860000Y-142204079D01*
X150866791Y-141197288D01*
X150866791Y-141269130D01*
X149895921Y-142240000D01*
X150902712Y-143246791D01*
X151227200Y-143201933D01*
X151491244Y-142605506D01*
X151506946Y-141953433D01*
X151506946Y-144043400D01*
X151054831Y-144043400D01*
X151035314Y-143996163D01*
X150709295Y-143669574D01*
X150755013Y-143651915D01*
X150821933Y-143607200D01*
X150866791Y-143282712D01*
X149860000Y-142275921D01*
X149824079Y-142311842D01*
X149824079Y-142240000D01*
X148817288Y-141233209D01*
X148492800Y-141278067D01*
X148228756Y-141874494D01*
X148213054Y-142526567D01*
X148448085Y-143135013D01*
X148492800Y-143201933D01*
X148817288Y-143246791D01*
X149824079Y-142240000D01*
X149824079Y-142311842D01*
X148853209Y-143282712D01*
X148898067Y-143607200D01*
X149019701Y-143661048D01*
X148686056Y-143994113D01*
X148474671Y-144503184D01*
X148474190Y-145054398D01*
X148684686Y-145563837D01*
X149074113Y-145953944D01*
X149583184Y-146165329D01*
X150134398Y-146165810D01*
X150643837Y-145955314D01*
X151033944Y-145565887D01*
X151054409Y-145516600D01*
X153816418Y-145516600D01*
X154154113Y-145854884D01*
X154663184Y-146066269D01*
X155214398Y-146066750D01*
X155723837Y-145856254D01*
X156113944Y-145466827D01*
X156325329Y-144957756D01*
X156325810Y-144406542D01*
X156325810Y-149340000D01*
X146506869Y-149340000D01*
X146506869Y-147619226D01*
X146310168Y-147345400D01*
X144805400Y-147345400D01*
X144805400Y-148850139D01*
X145079226Y-149046867D01*
X145164395Y-149029928D01*
X145789496Y-148752666D01*
X146260910Y-148257293D01*
X146506869Y-147619226D01*
X146506869Y-149340000D01*
X138658859Y-149340000D01*
X138658859Y-147023218D01*
X138431192Y-146472220D01*
X138009997Y-146050290D01*
X137459398Y-145821661D01*
X136863218Y-145821141D01*
X136312220Y-146048808D01*
X135890290Y-146470003D01*
X135889904Y-146470930D01*
X135469997Y-146050290D01*
X134919398Y-145821661D01*
X134323218Y-145821141D01*
X133772220Y-146048808D01*
X133350290Y-146470003D01*
X133349904Y-146470930D01*
X132929997Y-146050290D01*
X132379398Y-145821661D01*
X131783218Y-145821141D01*
X131232220Y-146048808D01*
X130810290Y-146470003D01*
X130809904Y-146470930D01*
X130389997Y-146050290D01*
X129839398Y-145821661D01*
X129243218Y-145821141D01*
X128692220Y-146048808D01*
X128270290Y-146470003D01*
X128269904Y-146470930D01*
X127849997Y-146050290D01*
X127299398Y-145821661D01*
X126703218Y-145821141D01*
X126152220Y-146048808D01*
X126127314Y-146073669D01*
X126077258Y-145952822D01*
X125827178Y-145702742D01*
X125500433Y-145567400D01*
X124707650Y-145567400D01*
X124485400Y-145789650D01*
X124485400Y-147294600D01*
X124505400Y-147294600D01*
X124505400Y-147345400D01*
X124485400Y-147345400D01*
X124485400Y-148850350D01*
X124707650Y-149072600D01*
X125500433Y-149072600D01*
X125827178Y-148937258D01*
X126077258Y-148687178D01*
X126127123Y-148566790D01*
X126150003Y-148589710D01*
X126700602Y-148818339D01*
X127296782Y-148818859D01*
X127847780Y-148591192D01*
X128269710Y-148169997D01*
X128270095Y-148169069D01*
X128690003Y-148589710D01*
X129240602Y-148818339D01*
X129836782Y-148818859D01*
X130387780Y-148591192D01*
X130809710Y-148169997D01*
X130810095Y-148169069D01*
X131230003Y-148589710D01*
X131780602Y-148818339D01*
X132376782Y-148818859D01*
X132927780Y-148591192D01*
X133349710Y-148169997D01*
X133350095Y-148169069D01*
X133770003Y-148589710D01*
X134320602Y-148818339D01*
X134916782Y-148818859D01*
X135467780Y-148591192D01*
X135889710Y-148169997D01*
X135890095Y-148169069D01*
X136310003Y-148589710D01*
X136860602Y-148818339D01*
X137456782Y-148818859D01*
X138007780Y-148591192D01*
X138429710Y-148169997D01*
X138658339Y-147619398D01*
X138658859Y-147023218D01*
X138658859Y-149340000D01*
X124434600Y-149340000D01*
X124434600Y-148850350D01*
X124434600Y-147345400D01*
X124434600Y-147294600D01*
X124434600Y-145789650D01*
X124212350Y-145567400D01*
X123419567Y-145567400D01*
X123092822Y-145702742D01*
X122919774Y-145875790D01*
X122919774Y-127946306D01*
X122671462Y-127345345D01*
X122212073Y-126885154D01*
X121611547Y-126635794D01*
X120961306Y-126635226D01*
X120382985Y-126874183D01*
X120341565Y-126680759D01*
X119956437Y-126122213D01*
X119386879Y-125753566D01*
X119042040Y-125656503D01*
X118770400Y-125853403D01*
X118770400Y-128244600D01*
X118790400Y-128244600D01*
X118790400Y-128295400D01*
X118770400Y-128295400D01*
X118770400Y-130686597D01*
X119042040Y-130883497D01*
X119386879Y-130786434D01*
X119956437Y-130417787D01*
X120341565Y-129859241D01*
X120383096Y-129665297D01*
X120958453Y-129904206D01*
X121608694Y-129904774D01*
X122209655Y-129656462D01*
X122669846Y-129197073D01*
X122919206Y-128596547D01*
X122919774Y-127946306D01*
X122919774Y-145875790D01*
X122842742Y-145952822D01*
X122707400Y-146279567D01*
X122707400Y-146633233D01*
X122707400Y-147072350D01*
X122929650Y-147294600D01*
X124434600Y-147294600D01*
X124434600Y-147345400D01*
X122929650Y-147345400D01*
X122707400Y-147567650D01*
X122707400Y-148006767D01*
X122707400Y-148360433D01*
X122842742Y-148687178D01*
X123092822Y-148937258D01*
X123419567Y-149072600D01*
X124212350Y-149072600D01*
X124434600Y-148850350D01*
X124434600Y-149340000D01*
X121666000Y-149340000D01*
X121666000Y-148208310D01*
X121666000Y-147955691D01*
X121666000Y-132207691D01*
X121569327Y-131974302D01*
X121390699Y-131795673D01*
X121157310Y-131699000D01*
X120904691Y-131699000D01*
X118719600Y-131699000D01*
X118719600Y-130686597D01*
X118719600Y-128295400D01*
X118699600Y-128295400D01*
X118699600Y-128244600D01*
X118719600Y-128244600D01*
X118719600Y-125853403D01*
X118447960Y-125656503D01*
X118103121Y-125753566D01*
X117533563Y-126122213D01*
X117348000Y-126391332D01*
X117348000Y-126365000D01*
X117260994Y-125927593D01*
X117013223Y-125556777D01*
X115769597Y-124313151D01*
X115874597Y-124315783D01*
X116525233Y-124065187D01*
X116599679Y-124015444D01*
X116658293Y-123679214D01*
X115570000Y-122590921D01*
X115555857Y-122605063D01*
X115519936Y-122569142D01*
X115534079Y-122555000D01*
X115519936Y-122540857D01*
X115555857Y-122504936D01*
X115570000Y-122519079D01*
X116658293Y-121430786D01*
X116599679Y-121094556D01*
X116462959Y-121033868D01*
X116462959Y-117475000D01*
X116348885Y-116901511D01*
X116024029Y-116415330D01*
X116002976Y-116401263D01*
X116158298Y-116336927D01*
X116336927Y-116158299D01*
X116433600Y-115924910D01*
X116433600Y-115672291D01*
X116433600Y-113945091D01*
X116336927Y-113711702D01*
X116158299Y-113533073D01*
X115934774Y-113440485D01*
X115934774Y-111436306D01*
X115686462Y-110835345D01*
X115227073Y-110375154D01*
X114738567Y-110172309D01*
X115224655Y-109971462D01*
X115684846Y-109512073D01*
X115934206Y-108911547D01*
X115934774Y-108261306D01*
X115686462Y-107660345D01*
X115227073Y-107200154D01*
X114626547Y-106950794D01*
X113976306Y-106950226D01*
X113375345Y-107198538D01*
X112915154Y-107657927D01*
X112665794Y-108258453D01*
X112665226Y-108908694D01*
X112913538Y-109509655D01*
X113372927Y-109969846D01*
X113861432Y-110172690D01*
X113375345Y-110373538D01*
X112915154Y-110832927D01*
X112665794Y-111433453D01*
X112665226Y-112083694D01*
X112913538Y-112684655D01*
X113372927Y-113144846D01*
X113973453Y-113394206D01*
X114623694Y-113394774D01*
X115224655Y-113146462D01*
X115684846Y-112687073D01*
X115934206Y-112086547D01*
X115934774Y-111436306D01*
X115934774Y-113440485D01*
X115924910Y-113436400D01*
X115672291Y-113436400D01*
X113945091Y-113436400D01*
X113711702Y-113533073D01*
X113533073Y-113711701D01*
X113469356Y-113865526D01*
X112997848Y-113550474D01*
X112424359Y-113436400D01*
X112365641Y-113436400D01*
X111792152Y-113550474D01*
X111513457Y-113736692D01*
X111513457Y-108931609D01*
X111276852Y-108318898D01*
X111231629Y-108251216D01*
X110905954Y-108204967D01*
X110870033Y-108240888D01*
X110870033Y-108169046D01*
X110823784Y-107843371D01*
X110223226Y-107577423D01*
X109566609Y-107561543D01*
X108953898Y-107798148D01*
X108886216Y-107843371D01*
X108839967Y-108169046D01*
X109855000Y-109184079D01*
X110870033Y-108169046D01*
X110870033Y-108240888D01*
X109890921Y-109220000D01*
X110905954Y-110235033D01*
X111231629Y-110188784D01*
X111497577Y-109588226D01*
X111513457Y-108931609D01*
X111513457Y-113736692D01*
X111305971Y-113875330D01*
X111252242Y-113955741D01*
X111252242Y-111483339D01*
X111040010Y-110969697D01*
X110724802Y-110653938D01*
X110756102Y-110641852D01*
X110823784Y-110596629D01*
X110870033Y-110270954D01*
X109855000Y-109255921D01*
X109819079Y-109291842D01*
X109819079Y-109220000D01*
X108804046Y-108204967D01*
X108478371Y-108251216D01*
X108212423Y-108851774D01*
X108196543Y-109508391D01*
X108433148Y-110121102D01*
X108478371Y-110188784D01*
X108804046Y-110235033D01*
X109819079Y-109220000D01*
X109819079Y-109291842D01*
X108839967Y-110270954D01*
X108886216Y-110596629D01*
X108994835Y-110644729D01*
X108671371Y-110967630D01*
X108458243Y-111480900D01*
X108457758Y-112036661D01*
X108669990Y-112550303D01*
X109062630Y-112943629D01*
X109575900Y-113156757D01*
X110131661Y-113157242D01*
X110645303Y-112945010D01*
X111038629Y-112552370D01*
X111251757Y-112039100D01*
X111252242Y-111483339D01*
X111252242Y-113955741D01*
X110981115Y-114361511D01*
X110867041Y-114935000D01*
X110981115Y-115508489D01*
X111305971Y-115994670D01*
X111620751Y-116205000D01*
X111305971Y-116415330D01*
X110981115Y-116901511D01*
X110867041Y-117475000D01*
X110981115Y-118048489D01*
X111305971Y-118534670D01*
X111792152Y-118859526D01*
X112365641Y-118973600D01*
X112424359Y-118973600D01*
X112997848Y-118859526D01*
X113484029Y-118534670D01*
X113665000Y-118263827D01*
X113845971Y-118534670D01*
X114332152Y-118859526D01*
X114905641Y-118973600D01*
X114964359Y-118973600D01*
X115537848Y-118859526D01*
X116024029Y-118534670D01*
X116348885Y-118048489D01*
X116462959Y-117475000D01*
X116462959Y-121033868D01*
X115962412Y-120811685D01*
X115265403Y-120794217D01*
X114614767Y-121044813D01*
X114540321Y-121094556D01*
X114481707Y-121430783D01*
X114466788Y-121415864D01*
X114431927Y-121331702D01*
X114253299Y-121153073D01*
X114019910Y-121056400D01*
X113767291Y-121056400D01*
X112040091Y-121056400D01*
X111806702Y-121153073D01*
X111628073Y-121331701D01*
X111531400Y-121565090D01*
X111531400Y-121817709D01*
X111531400Y-123544909D01*
X111628073Y-123778298D01*
X111801774Y-123952000D01*
X108912318Y-123952000D01*
X108912318Y-114354633D01*
X108367539Y-112906579D01*
X108222770Y-112689917D01*
X107664558Y-112371363D01*
X107628637Y-112407284D01*
X107628637Y-112335442D01*
X107310083Y-111777230D01*
X105900937Y-111138518D01*
X104354633Y-111087682D01*
X102906579Y-111632461D01*
X102844600Y-111673874D01*
X102844600Y-106940350D01*
X102844600Y-105435400D01*
X102844600Y-105384600D01*
X102844600Y-104400168D01*
X102844600Y-103879650D01*
X102844600Y-102895400D01*
X102844600Y-102844600D01*
X102844600Y-101339832D01*
X102570774Y-101143131D01*
X101932707Y-101389090D01*
X101437334Y-101860504D01*
X101160072Y-102485605D01*
X101143133Y-102570774D01*
X101339861Y-102844600D01*
X102844600Y-102844600D01*
X102844600Y-102895400D01*
X101339861Y-102895400D01*
X101143133Y-103169226D01*
X101160072Y-103254395D01*
X101430799Y-103864764D01*
X101252742Y-104042822D01*
X101117400Y-104369567D01*
X101117400Y-104723233D01*
X101117400Y-105162350D01*
X101339650Y-105384600D01*
X102844600Y-105384600D01*
X102844600Y-105435400D01*
X101339650Y-105435400D01*
X101117400Y-105657650D01*
X101117400Y-106096767D01*
X101117400Y-106450433D01*
X101252742Y-106777178D01*
X101502822Y-107027258D01*
X101829567Y-107162600D01*
X102622350Y-107162600D01*
X102844600Y-106940350D01*
X102844600Y-111673874D01*
X102689917Y-111777230D01*
X102371363Y-112335442D01*
X105000000Y-114964079D01*
X107628637Y-112335442D01*
X107628637Y-112407284D01*
X105035921Y-115000000D01*
X107664558Y-117628637D01*
X108222770Y-117310083D01*
X108861482Y-115900937D01*
X108912318Y-114354633D01*
X108912318Y-123952000D01*
X108594270Y-123952000D01*
X108594270Y-121631093D01*
X108322688Y-120923570D01*
X108266166Y-120838979D01*
X107914101Y-120761820D01*
X107878180Y-120797741D01*
X107878180Y-120725899D01*
X107801021Y-120373834D01*
X107628637Y-120297080D01*
X107628637Y-117664558D01*
X105000000Y-115035921D01*
X104964079Y-115071842D01*
X104964079Y-115000000D01*
X102335442Y-112371363D01*
X101777230Y-112689917D01*
X101138518Y-114099063D01*
X101087682Y-115645367D01*
X101632461Y-117093421D01*
X101777230Y-117310083D01*
X102335442Y-117628637D01*
X104964079Y-115000000D01*
X104964079Y-115071842D01*
X102371363Y-117664558D01*
X102689917Y-118222770D01*
X104099063Y-118861482D01*
X105645367Y-118912318D01*
X107093421Y-118367539D01*
X107310083Y-118222770D01*
X107628637Y-117664558D01*
X107628637Y-120297080D01*
X107108689Y-120065577D01*
X106351093Y-120045730D01*
X105643570Y-120317312D01*
X105558979Y-120373834D01*
X105481820Y-120725899D01*
X106680000Y-121924079D01*
X107878180Y-120725899D01*
X107878180Y-120797741D01*
X106715921Y-121960000D01*
X107914101Y-123158180D01*
X108266166Y-123081021D01*
X108574423Y-122388689D01*
X108594270Y-121631093D01*
X108594270Y-123952000D01*
X108545000Y-123952000D01*
X108107593Y-124039006D01*
X107878180Y-124192294D01*
X107878180Y-123194101D01*
X106680000Y-121995921D01*
X106644079Y-122031842D01*
X106644079Y-121960000D01*
X105445899Y-120761820D01*
X105093834Y-120838979D01*
X104785577Y-121531311D01*
X104765730Y-122288907D01*
X105037312Y-122996430D01*
X105093834Y-123081021D01*
X105445899Y-123158180D01*
X106644079Y-121960000D01*
X106644079Y-122031842D01*
X105481820Y-123194101D01*
X105558979Y-123546166D01*
X106251311Y-123854423D01*
X107008907Y-123874270D01*
X107716430Y-123602688D01*
X107801021Y-123546166D01*
X107878180Y-123194101D01*
X107878180Y-124192294D01*
X107736777Y-124286777D01*
X106714524Y-125309029D01*
X106353037Y-125308714D01*
X105746005Y-125559534D01*
X105281166Y-126023563D01*
X105029287Y-126630155D01*
X105028714Y-127286963D01*
X105279534Y-127893995D01*
X105743563Y-128358834D01*
X106350155Y-128610713D01*
X107006963Y-128611286D01*
X107613995Y-128360466D01*
X108078834Y-127896437D01*
X108330713Y-127289845D01*
X108331030Y-126925415D01*
X109018446Y-126238000D01*
X112667667Y-126238000D01*
X112615208Y-126273052D01*
X112293381Y-126754701D01*
X112180370Y-127322844D01*
X112180370Y-129217156D01*
X112293381Y-129785299D01*
X112615208Y-130266948D01*
X113096857Y-130588775D01*
X113665000Y-130701786D01*
X114233143Y-130588775D01*
X114714792Y-130266948D01*
X114935000Y-129937382D01*
X115155208Y-130266948D01*
X115636857Y-130588775D01*
X116205000Y-130701786D01*
X116773143Y-130588775D01*
X117254792Y-130266948D01*
X117340800Y-130138226D01*
X117533563Y-130417787D01*
X118103121Y-130786434D01*
X118447960Y-130883497D01*
X118719600Y-130686597D01*
X118719600Y-131699000D01*
X111252691Y-131699000D01*
X111019302Y-131795673D01*
X110840673Y-131974301D01*
X110744000Y-132207690D01*
X110744000Y-132460309D01*
X110744000Y-148208309D01*
X110840673Y-148441698D01*
X111019301Y-148620327D01*
X111252690Y-148717000D01*
X111505309Y-148717000D01*
X121157309Y-148717000D01*
X121390698Y-148620327D01*
X121569327Y-148441699D01*
X121666000Y-148208310D01*
X121666000Y-149340000D01*
X108912318Y-149340000D01*
X108912318Y-144354633D01*
X108594270Y-143509243D01*
X108594270Y-133061093D01*
X108322688Y-132353570D01*
X108266166Y-132268979D01*
X107914101Y-132191820D01*
X107878180Y-132227741D01*
X107878180Y-132155899D01*
X107801021Y-131803834D01*
X107108689Y-131495577D01*
X106351093Y-131475730D01*
X105643570Y-131747312D01*
X105558979Y-131803834D01*
X105481820Y-132155899D01*
X106680000Y-133354079D01*
X107878180Y-132155899D01*
X107878180Y-132227741D01*
X106715921Y-133390000D01*
X107914101Y-134588180D01*
X108266166Y-134511021D01*
X108574423Y-133818689D01*
X108594270Y-133061093D01*
X108594270Y-143509243D01*
X108367539Y-142906579D01*
X108331286Y-142852322D01*
X108331286Y-138063037D01*
X108080466Y-137456005D01*
X107878180Y-137253365D01*
X107878180Y-134624101D01*
X106680000Y-133425921D01*
X106644079Y-133461842D01*
X106644079Y-133390000D01*
X105445899Y-132191820D01*
X105093834Y-132268979D01*
X104785577Y-132961311D01*
X104765730Y-133718907D01*
X105037312Y-134426430D01*
X105093834Y-134511021D01*
X105445899Y-134588180D01*
X106644079Y-133390000D01*
X106644079Y-133461842D01*
X105481820Y-134624101D01*
X105558979Y-134976166D01*
X106251311Y-135284423D01*
X107008907Y-135304270D01*
X107716430Y-135032688D01*
X107801021Y-134976166D01*
X107878180Y-134624101D01*
X107878180Y-137253365D01*
X107616437Y-136991166D01*
X107009845Y-136739287D01*
X106353037Y-136738714D01*
X105746005Y-136989534D01*
X105281166Y-137453563D01*
X105029287Y-138060155D01*
X105028714Y-138716963D01*
X105279534Y-139323995D01*
X105743563Y-139788834D01*
X106350155Y-140040713D01*
X107006963Y-140041286D01*
X107613995Y-139790466D01*
X108078834Y-139326437D01*
X108330713Y-138719845D01*
X108331286Y-138063037D01*
X108331286Y-142852322D01*
X108222770Y-142689917D01*
X107664558Y-142371363D01*
X107628637Y-142407284D01*
X107628637Y-142335442D01*
X107310083Y-141777230D01*
X105900937Y-141138518D01*
X104354633Y-141087682D01*
X102906579Y-141632461D01*
X102689917Y-141777230D01*
X102371363Y-142335442D01*
X105000000Y-144964079D01*
X107628637Y-142335442D01*
X107628637Y-142407284D01*
X105035921Y-145000000D01*
X107664558Y-147628637D01*
X108222770Y-147310083D01*
X108861482Y-145900937D01*
X108912318Y-144354633D01*
X108912318Y-149340000D01*
X107628637Y-149340000D01*
X107628637Y-147664558D01*
X105000000Y-145035921D01*
X104964079Y-145071842D01*
X104964079Y-145000000D01*
X102335442Y-142371363D01*
X101777230Y-142689917D01*
X101138518Y-144099063D01*
X101087682Y-145645367D01*
X101632461Y-147093421D01*
X101777230Y-147310083D01*
X102335442Y-147628637D01*
X104964079Y-145000000D01*
X104964079Y-145071842D01*
X102371363Y-147664558D01*
X102689917Y-148222770D01*
X104099063Y-148861482D01*
X105645367Y-148912318D01*
X107093421Y-148367539D01*
X107310083Y-148222770D01*
X107628637Y-147664558D01*
X107628637Y-149340000D01*
X100660000Y-149340000D01*
X100660000Y-100660000D01*
X169869140Y-100660000D01*
X169685173Y-100843647D01*
X169481732Y-101333587D01*
X169481269Y-101864086D01*
X169592547Y-102133400D01*
X161290000Y-102133400D01*
X161008115Y-102189470D01*
X160769145Y-102349145D01*
X160296594Y-102821695D01*
X160476867Y-102570774D01*
X160459928Y-102485605D01*
X160182666Y-101860504D01*
X159687293Y-101389090D01*
X159049226Y-101143131D01*
X158775400Y-101339832D01*
X158775400Y-102844600D01*
X158795400Y-102844600D01*
X158795400Y-102895400D01*
X158775400Y-102895400D01*
X158775400Y-102915400D01*
X158724600Y-102915400D01*
X158724600Y-102895400D01*
X158724600Y-102844600D01*
X158724600Y-101339832D01*
X158450774Y-101143131D01*
X157812707Y-101389090D01*
X157480000Y-101705705D01*
X157147293Y-101389090D01*
X156509226Y-101143131D01*
X156235400Y-101339832D01*
X156235400Y-102844600D01*
X157219861Y-102844600D01*
X157740139Y-102844600D01*
X158724600Y-102844600D01*
X158724600Y-102895400D01*
X157740139Y-102895400D01*
X157219861Y-102895400D01*
X156235400Y-102895400D01*
X156235400Y-102915400D01*
X156184600Y-102915400D01*
X156184600Y-102895400D01*
X156164600Y-102895400D01*
X156164600Y-102844600D01*
X156184600Y-102844600D01*
X156184600Y-101339832D01*
X155910774Y-101143131D01*
X155272707Y-101389090D01*
X154786638Y-101851649D01*
X154759029Y-101810330D01*
X154272848Y-101485474D01*
X153699359Y-101371400D01*
X153640641Y-101371400D01*
X153067152Y-101485474D01*
X152580971Y-101810330D01*
X152400000Y-102081172D01*
X152219029Y-101810330D01*
X151732848Y-101485474D01*
X151159359Y-101371400D01*
X151100641Y-101371400D01*
X150527152Y-101485474D01*
X150040971Y-101810330D01*
X149860000Y-102081172D01*
X149679029Y-101810330D01*
X149192848Y-101485474D01*
X148619359Y-101371400D01*
X148560641Y-101371400D01*
X147987152Y-101485474D01*
X147500971Y-101810330D01*
X147320000Y-102081172D01*
X147139029Y-101810330D01*
X146652848Y-101485474D01*
X146079359Y-101371400D01*
X146020641Y-101371400D01*
X145447152Y-101485474D01*
X144960971Y-101810330D01*
X144780000Y-102081172D01*
X144599029Y-101810330D01*
X144112848Y-101485474D01*
X143539359Y-101371400D01*
X143480641Y-101371400D01*
X142907152Y-101485474D01*
X142420971Y-101810330D01*
X142240000Y-102081172D01*
X142059029Y-101810330D01*
X141572848Y-101485474D01*
X140999359Y-101371400D01*
X140940641Y-101371400D01*
X140367152Y-101485474D01*
X139880971Y-101810330D01*
X139700000Y-102081172D01*
X139519029Y-101810330D01*
X139032848Y-101485474D01*
X138459359Y-101371400D01*
X138400641Y-101371400D01*
X137827152Y-101485474D01*
X137340971Y-101810330D01*
X137160000Y-102081172D01*
X136979029Y-101810330D01*
X136492848Y-101485474D01*
X135919359Y-101371400D01*
X135860641Y-101371400D01*
X135287152Y-101485474D01*
X134800971Y-101810330D01*
X134620000Y-102081172D01*
X134439029Y-101810330D01*
X133952848Y-101485474D01*
X133379359Y-101371400D01*
X133320641Y-101371400D01*
X132747152Y-101485474D01*
X132260971Y-101810330D01*
X132080000Y-102081172D01*
X131899029Y-101810330D01*
X131412848Y-101485474D01*
X130839359Y-101371400D01*
X130780641Y-101371400D01*
X130207152Y-101485474D01*
X129720971Y-101810330D01*
X129540000Y-102081172D01*
X129359029Y-101810330D01*
X128872848Y-101485474D01*
X128299359Y-101371400D01*
X128240641Y-101371400D01*
X127667152Y-101485474D01*
X127180971Y-101810330D01*
X127000000Y-102081172D01*
X126819029Y-101810330D01*
X126332848Y-101485474D01*
X125759359Y-101371400D01*
X125700641Y-101371400D01*
X125127152Y-101485474D01*
X124640971Y-101810330D01*
X124460000Y-102081172D01*
X124279029Y-101810330D01*
X123792848Y-101485474D01*
X123219359Y-101371400D01*
X123160641Y-101371400D01*
X122587152Y-101485474D01*
X122100971Y-101810330D01*
X121920000Y-102081172D01*
X121739029Y-101810330D01*
X121252848Y-101485474D01*
X120679359Y-101371400D01*
X120620641Y-101371400D01*
X120047152Y-101485474D01*
X119560971Y-101810330D01*
X119380000Y-102081172D01*
X119199029Y-101810330D01*
X118712848Y-101485474D01*
X118139359Y-101371400D01*
X118080641Y-101371400D01*
X117507152Y-101485474D01*
X117020971Y-101810330D01*
X116840000Y-102081172D01*
X116659029Y-101810330D01*
X116172848Y-101485474D01*
X115599359Y-101371400D01*
X115540641Y-101371400D01*
X114967152Y-101485474D01*
X114480971Y-101810330D01*
X114300000Y-102081172D01*
X114119029Y-101810330D01*
X113632848Y-101485474D01*
X113059359Y-101371400D01*
X113000641Y-101371400D01*
X112427152Y-101485474D01*
X111940971Y-101810330D01*
X111760000Y-102081172D01*
X111579029Y-101810330D01*
X111092848Y-101485474D01*
X110519359Y-101371400D01*
X110460641Y-101371400D01*
X109887152Y-101485474D01*
X109400971Y-101810330D01*
X109220000Y-102081172D01*
X109039029Y-101810330D01*
X108552848Y-101485474D01*
X107979359Y-101371400D01*
X107920641Y-101371400D01*
X107347152Y-101485474D01*
X106860971Y-101810330D01*
X106680000Y-102081172D01*
X106499029Y-101810330D01*
X106012848Y-101485474D01*
X105439359Y-101371400D01*
X105380641Y-101371400D01*
X104807152Y-101485474D01*
X104320971Y-101810330D01*
X104293361Y-101851649D01*
X103807293Y-101389090D01*
X103169226Y-101143131D01*
X102895400Y-101339832D01*
X102895400Y-102844600D01*
X102915400Y-102844600D01*
X102915400Y-102895400D01*
X102895400Y-102895400D01*
X102895400Y-103879650D01*
X102895400Y-104400168D01*
X102895400Y-105384600D01*
X102915400Y-105384600D01*
X102915400Y-105435400D01*
X102895400Y-105435400D01*
X102895400Y-106940350D01*
X103117650Y-107162600D01*
X103910433Y-107162600D01*
X104237178Y-107027258D01*
X104487258Y-106777178D01*
X104550974Y-106623353D01*
X104807152Y-106794526D01*
X105380641Y-106908600D01*
X105439359Y-106908600D01*
X106012848Y-106794526D01*
X106499029Y-106469670D01*
X106680000Y-106198827D01*
X106860971Y-106469670D01*
X107347152Y-106794526D01*
X107920641Y-106908600D01*
X107979359Y-106908600D01*
X108552848Y-106794526D01*
X109039029Y-106469670D01*
X109220000Y-106198827D01*
X109400971Y-106469670D01*
X109887152Y-106794526D01*
X110460641Y-106908600D01*
X110519359Y-106908600D01*
X111092848Y-106794526D01*
X111579029Y-106469670D01*
X111760000Y-106198827D01*
X111940971Y-106469670D01*
X112427152Y-106794526D01*
X113000641Y-106908600D01*
X113059359Y-106908600D01*
X113632848Y-106794526D01*
X114119029Y-106469670D01*
X114300000Y-106198827D01*
X114480971Y-106469670D01*
X114967152Y-106794526D01*
X115540641Y-106908600D01*
X115599359Y-106908600D01*
X116172848Y-106794526D01*
X116659029Y-106469670D01*
X116840000Y-106198827D01*
X117020971Y-106469670D01*
X117507152Y-106794526D01*
X118080641Y-106908600D01*
X118139359Y-106908600D01*
X118712848Y-106794526D01*
X119199029Y-106469670D01*
X119380000Y-106198827D01*
X119560971Y-106469670D01*
X120047152Y-106794526D01*
X120620641Y-106908600D01*
X120679359Y-106908600D01*
X121252848Y-106794526D01*
X121739029Y-106469670D01*
X121920000Y-106198827D01*
X122100971Y-106469670D01*
X122587152Y-106794526D01*
X123160641Y-106908600D01*
X123219359Y-106908600D01*
X123792848Y-106794526D01*
X124279029Y-106469670D01*
X124460000Y-106198827D01*
X124640971Y-106469670D01*
X125127152Y-106794526D01*
X125700641Y-106908600D01*
X125759359Y-106908600D01*
X126332848Y-106794526D01*
X126819029Y-106469670D01*
X127000000Y-106198827D01*
X127180971Y-106469670D01*
X127667152Y-106794526D01*
X128240641Y-106908600D01*
X128299359Y-106908600D01*
X128872848Y-106794526D01*
X129359029Y-106469670D01*
X129540000Y-106198827D01*
X129720971Y-106469670D01*
X130207152Y-106794526D01*
X130780641Y-106908600D01*
X130839359Y-106908600D01*
X131412848Y-106794526D01*
X131899029Y-106469670D01*
X132080000Y-106198827D01*
X132260971Y-106469670D01*
X132747152Y-106794526D01*
X133320641Y-106908600D01*
X133379359Y-106908600D01*
X133952848Y-106794526D01*
X134439029Y-106469670D01*
X134620000Y-106198827D01*
X134800971Y-106469670D01*
X135287152Y-106794526D01*
X135860641Y-106908600D01*
X135919359Y-106908600D01*
X136492848Y-106794526D01*
X136979029Y-106469670D01*
X137160000Y-106198827D01*
X137340971Y-106469670D01*
X137827152Y-106794526D01*
X138400641Y-106908600D01*
X138459359Y-106908600D01*
X139032848Y-106794526D01*
X139519029Y-106469670D01*
X139700000Y-106198827D01*
X139880971Y-106469670D01*
X140367152Y-106794526D01*
X140940641Y-106908600D01*
X140999359Y-106908600D01*
X141572848Y-106794526D01*
X142059029Y-106469670D01*
X142240000Y-106198827D01*
X142420971Y-106469670D01*
X142907152Y-106794526D01*
X143480641Y-106908600D01*
X143539359Y-106908600D01*
X144112848Y-106794526D01*
X144599029Y-106469670D01*
X144780000Y-106198827D01*
X144960971Y-106469670D01*
X145447152Y-106794526D01*
X146020641Y-106908600D01*
X146079359Y-106908600D01*
X146652848Y-106794526D01*
X147139029Y-106469670D01*
X147320000Y-106198827D01*
X147500971Y-106469670D01*
X147987152Y-106794526D01*
X148560641Y-106908600D01*
X148619359Y-106908600D01*
X149192848Y-106794526D01*
X149679029Y-106469670D01*
X149860000Y-106198827D01*
X150040971Y-106469670D01*
X150527152Y-106794526D01*
X151100641Y-106908600D01*
X151159359Y-106908600D01*
X151732848Y-106794526D01*
X152172591Y-106500698D01*
X150184018Y-108489271D01*
X150136816Y-108469671D01*
X149585602Y-108469190D01*
X149536279Y-108489569D01*
X148475855Y-107429145D01*
X148236885Y-107269470D01*
X147955000Y-107213400D01*
X130810000Y-107213400D01*
X130528115Y-107269470D01*
X130289145Y-107429145D01*
X128384145Y-109334145D01*
X128224470Y-109573115D01*
X128168400Y-109855000D01*
X128168400Y-113470835D01*
X127980345Y-113548538D01*
X127520154Y-114007927D01*
X127441062Y-114198400D01*
X126094774Y-114198400D01*
X126094774Y-111436306D01*
X125846462Y-110835345D01*
X125387073Y-110375154D01*
X124898567Y-110172309D01*
X125384655Y-109971462D01*
X125844846Y-109512073D01*
X126094206Y-108911547D01*
X126094774Y-108261306D01*
X125846462Y-107660345D01*
X125387073Y-107200154D01*
X124786547Y-106950794D01*
X124136306Y-106950226D01*
X123535345Y-107198538D01*
X123075154Y-107657927D01*
X122825794Y-108258453D01*
X122825226Y-108908694D01*
X123073538Y-109509655D01*
X123532927Y-109969846D01*
X124021432Y-110172690D01*
X123535345Y-110373538D01*
X123075154Y-110832927D01*
X122825794Y-111433453D01*
X122825492Y-111778061D01*
X120811554Y-113792000D01*
X120372365Y-113792000D01*
X120282817Y-113575812D01*
X120104189Y-113397183D01*
X119870800Y-113300510D01*
X119618181Y-113300510D01*
X117619201Y-113300510D01*
X117385812Y-113397183D01*
X117207183Y-113575811D01*
X117110510Y-113809200D01*
X117110510Y-114061819D01*
X117110510Y-116060799D01*
X117207183Y-116294188D01*
X117385811Y-116472817D01*
X117619200Y-116569490D01*
X117871819Y-116569490D01*
X119870799Y-116569490D01*
X120104188Y-116472817D01*
X120282817Y-116294189D01*
X120372365Y-116078000D01*
X121285000Y-116078000D01*
X121722407Y-115990994D01*
X122093223Y-115743223D01*
X124441970Y-113394475D01*
X124783694Y-113394774D01*
X125384655Y-113146462D01*
X125844846Y-112687073D01*
X126094206Y-112086547D01*
X126094774Y-111436306D01*
X126094774Y-114198400D01*
X124460000Y-114198400D01*
X124178115Y-114254470D01*
X123939145Y-114414145D01*
X121799465Y-116553824D01*
X121611547Y-116475794D01*
X120961306Y-116475226D01*
X120360345Y-116723538D01*
X119900154Y-117182927D01*
X119650794Y-117783453D01*
X119650226Y-118433694D01*
X119898538Y-119034655D01*
X120357927Y-119494846D01*
X120958453Y-119744206D01*
X121608694Y-119744774D01*
X122209655Y-119496462D01*
X122669846Y-119037073D01*
X122919206Y-118436547D01*
X122919774Y-117786306D01*
X122841015Y-117595694D01*
X124765109Y-115671600D01*
X127440835Y-115671600D01*
X127518538Y-115859655D01*
X127977927Y-116319846D01*
X128578453Y-116569206D01*
X129228694Y-116569774D01*
X129829655Y-116321462D01*
X129933603Y-116217694D01*
X129810794Y-116513453D01*
X129810226Y-117163694D01*
X130058538Y-117764655D01*
X130399891Y-118106604D01*
X130055620Y-118248854D01*
X129680173Y-118623647D01*
X129539906Y-118961446D01*
X129401146Y-118625620D01*
X129026353Y-118250173D01*
X128536413Y-118046732D01*
X128005914Y-118046269D01*
X127515620Y-118248854D01*
X127140173Y-118623647D01*
X126999906Y-118961446D01*
X126861146Y-118625620D01*
X126486353Y-118250173D01*
X125996413Y-118046732D01*
X125465914Y-118046269D01*
X124975620Y-118248854D01*
X124600173Y-118623647D01*
X124396732Y-119113587D01*
X124396269Y-119644086D01*
X124598854Y-120134380D01*
X124973647Y-120509827D01*
X125463587Y-120713268D01*
X125994086Y-120713731D01*
X126484380Y-120511146D01*
X126859827Y-120136353D01*
X127000093Y-119798553D01*
X127138854Y-120134380D01*
X127513647Y-120509827D01*
X128003587Y-120713268D01*
X128534086Y-120713731D01*
X129024380Y-120511146D01*
X129399827Y-120136353D01*
X129540093Y-119798553D01*
X129678854Y-120134380D01*
X130053647Y-120509827D01*
X130543587Y-120713268D01*
X131074086Y-120713731D01*
X131564380Y-120511146D01*
X131939827Y-120136353D01*
X132080093Y-119798553D01*
X132218854Y-120134380D01*
X132593647Y-120509827D01*
X133083587Y-120713268D01*
X133614086Y-120713731D01*
X134104380Y-120511146D01*
X134479827Y-120136353D01*
X134620093Y-119798553D01*
X134758854Y-120134380D01*
X135133647Y-120509827D01*
X135623587Y-120713268D01*
X136154086Y-120713731D01*
X136644380Y-120511146D01*
X137019827Y-120136353D01*
X137160093Y-119798553D01*
X137298854Y-120134380D01*
X137673647Y-120509827D01*
X138163587Y-120713268D01*
X138694086Y-120713731D01*
X139184380Y-120511146D01*
X139559827Y-120136353D01*
X139700093Y-119798553D01*
X139838854Y-120134380D01*
X140213647Y-120509827D01*
X140703587Y-120713268D01*
X141234086Y-120713731D01*
X141724380Y-120511146D01*
X142099827Y-120136353D01*
X142240093Y-119798553D01*
X142378854Y-120134380D01*
X142753647Y-120509827D01*
X143243587Y-120713268D01*
X143774086Y-120713731D01*
X144264380Y-120511146D01*
X144639827Y-120136353D01*
X144780093Y-119798553D01*
X144918854Y-120134380D01*
X145293647Y-120509827D01*
X145783587Y-120713268D01*
X146314086Y-120713731D01*
X146804380Y-120511146D01*
X147179827Y-120136353D01*
X147180148Y-120135579D01*
X147223356Y-120247271D01*
X147265756Y-120310724D01*
X147584834Y-120349245D01*
X148554079Y-119380000D01*
X148539936Y-119365857D01*
X148575857Y-119329936D01*
X148590000Y-119344079D01*
X148604142Y-119329936D01*
X148640063Y-119365857D01*
X148625921Y-119380000D01*
X149595166Y-120349245D01*
X149914244Y-120310724D01*
X149987000Y-120146159D01*
X149987000Y-120811554D01*
X149559245Y-121239308D01*
X149559245Y-120385166D01*
X148590000Y-119415921D01*
X147620755Y-120385166D01*
X147659276Y-120704244D01*
X148236890Y-120959615D01*
X148868261Y-120974504D01*
X149457271Y-120746644D01*
X149520724Y-120704244D01*
X149559245Y-120385166D01*
X149559245Y-121239308D01*
X149386553Y-121412000D01*
X119086486Y-121412000D01*
X118959997Y-121285290D01*
X118409398Y-121056661D01*
X117813218Y-121056141D01*
X117262220Y-121283808D01*
X117021795Y-121523813D01*
X116694214Y-121466707D01*
X116658293Y-121502628D01*
X115605921Y-122555000D01*
X116694214Y-123643293D01*
X117021880Y-123586171D01*
X117260003Y-123824710D01*
X117810602Y-124053339D01*
X118406782Y-124053859D01*
X118957780Y-123826192D01*
X119086195Y-123698000D01*
X149860000Y-123698000D01*
X150297407Y-123610994D01*
X150668223Y-123363223D01*
X151130000Y-122901446D01*
X151591777Y-123363223D01*
X151962593Y-123610994D01*
X152400000Y-123698000D01*
X175421554Y-123698000D01*
X177749386Y-126025832D01*
X177938854Y-126484380D01*
X178313647Y-126859827D01*
X178651446Y-127000093D01*
X178315620Y-127138854D01*
X177940173Y-127513647D01*
X177736732Y-128003587D01*
X177736269Y-128534086D01*
X177938854Y-129024380D01*
X178313647Y-129399827D01*
X178803587Y-129603268D01*
X179334086Y-129603731D01*
X179824380Y-129401146D01*
X180199827Y-129026353D01*
X180361222Y-128637668D01*
X180801777Y-129078223D01*
X181172593Y-129325994D01*
X181610000Y-129413000D01*
X185965371Y-129413000D01*
X186423587Y-129603268D01*
X186954086Y-129603731D01*
X187444380Y-129401146D01*
X187819827Y-129026353D01*
X188023268Y-128536413D01*
X188023644Y-128105354D01*
X188493400Y-128575110D01*
X188493400Y-129862621D01*
X188175668Y-129730687D01*
X187746216Y-129730313D01*
X187349311Y-129894311D01*
X187045378Y-130197714D01*
X186880687Y-130594332D01*
X186880466Y-130847823D01*
X185535472Y-132192817D01*
X185535810Y-131805602D01*
X185325314Y-131296163D01*
X184935887Y-130906056D01*
X184426816Y-130694671D01*
X183875602Y-130694190D01*
X183366163Y-130904686D01*
X183039574Y-131230704D01*
X183021915Y-131184987D01*
X182977200Y-131118067D01*
X182652712Y-131073209D01*
X182616791Y-131109130D01*
X182616791Y-131037288D01*
X182571933Y-130712800D01*
X181975506Y-130448756D01*
X181323433Y-130433054D01*
X180714987Y-130668085D01*
X180648067Y-130712800D01*
X180603209Y-131037288D01*
X181610000Y-132044079D01*
X182616791Y-131037288D01*
X182616791Y-131109130D01*
X181645921Y-132080000D01*
X181660063Y-132094142D01*
X181624142Y-132130063D01*
X181610000Y-132115921D01*
X181595857Y-132130063D01*
X181574079Y-132108285D01*
X181559936Y-132094142D01*
X181574079Y-132080000D01*
X180567288Y-131073209D01*
X180242800Y-131118067D01*
X179978756Y-131714494D01*
X179963054Y-132366567D01*
X180198085Y-132975013D01*
X180242800Y-133041933D01*
X180567285Y-133086790D01*
X180411733Y-133242343D01*
X180417790Y-133248400D01*
X176835110Y-133248400D01*
X174004077Y-130417367D01*
X174269622Y-130152286D01*
X174434313Y-129755668D01*
X174434687Y-129326216D01*
X174270689Y-128929311D01*
X173967286Y-128625378D01*
X173570668Y-128460687D01*
X173141216Y-128460313D01*
X172744311Y-128624311D01*
X172564909Y-128803400D01*
X162560000Y-128803400D01*
X162278115Y-128859470D01*
X162039145Y-129019145D01*
X161327757Y-129730532D01*
X161076216Y-129730313D01*
X160679311Y-129894311D01*
X160375378Y-130197714D01*
X160210791Y-130594081D01*
X159905855Y-130289145D01*
X159666885Y-130129470D01*
X159385000Y-130073400D01*
X131445000Y-130073400D01*
X131163115Y-130129470D01*
X130924145Y-130289145D01*
X130847757Y-130365532D01*
X130596216Y-130365313D01*
X130199311Y-130529311D01*
X129895378Y-130832714D01*
X129730687Y-131229332D01*
X129730313Y-131658784D01*
X129894311Y-132055689D01*
X130197714Y-132359622D01*
X130594332Y-132524313D01*
X131023784Y-132524687D01*
X131085229Y-132499298D01*
X131132375Y-132613400D01*
X130329997Y-132613400D01*
X130152286Y-132435378D01*
X129755668Y-132270687D01*
X129326216Y-132270313D01*
X128929311Y-132434311D01*
X128625378Y-132737714D01*
X128460687Y-133134332D01*
X128460554Y-133286665D01*
X128005914Y-133286269D01*
X127515620Y-133488854D01*
X127140173Y-133863647D01*
X127063500Y-134048295D01*
X127063500Y-133795191D01*
X126966827Y-133561802D01*
X126788199Y-133383173D01*
X126554810Y-133286500D01*
X126302191Y-133286500D01*
X124905191Y-133286500D01*
X124671802Y-133383173D01*
X124493173Y-133561801D01*
X124396500Y-133795190D01*
X124396500Y-134047809D01*
X124396500Y-135444809D01*
X124493173Y-135678198D01*
X124671801Y-135856827D01*
X124905190Y-135953500D01*
X125157809Y-135953500D01*
X126554809Y-135953500D01*
X126788198Y-135856827D01*
X126966827Y-135678199D01*
X127063500Y-135444810D01*
X127063500Y-135192191D01*
X127063500Y-135192009D01*
X127138854Y-135374380D01*
X127513647Y-135749827D01*
X128003587Y-135953268D01*
X128534086Y-135953731D01*
X129024380Y-135751146D01*
X129399827Y-135376353D01*
X129540093Y-135038553D01*
X129678854Y-135374380D01*
X130053647Y-135749827D01*
X130543587Y-135953268D01*
X131074086Y-135953731D01*
X131564380Y-135751146D01*
X131939827Y-135376353D01*
X132080093Y-135038553D01*
X132218854Y-135374380D01*
X132593647Y-135749827D01*
X133083587Y-135953268D01*
X133614086Y-135953731D01*
X134104380Y-135751146D01*
X134479827Y-135376353D01*
X134620093Y-135038553D01*
X134758854Y-135374380D01*
X135133647Y-135749827D01*
X135623587Y-135953268D01*
X136154086Y-135953731D01*
X136644380Y-135751146D01*
X137019827Y-135376353D01*
X137160093Y-135038553D01*
X137298854Y-135374380D01*
X137673647Y-135749827D01*
X138163587Y-135953268D01*
X138694086Y-135953731D01*
X139184380Y-135751146D01*
X139559827Y-135376353D01*
X139700093Y-135038553D01*
X139838854Y-135374380D01*
X140213647Y-135749827D01*
X140703587Y-135953268D01*
X141234086Y-135953731D01*
X141724380Y-135751146D01*
X142099827Y-135376353D01*
X142240093Y-135038553D01*
X142378854Y-135374380D01*
X142753647Y-135749827D01*
X143243587Y-135953268D01*
X143774086Y-135953731D01*
X143793853Y-135945563D01*
X144894145Y-137045855D01*
X145133115Y-137205530D01*
X145133116Y-137205530D01*
X145415000Y-137261600D01*
X146529236Y-137261600D01*
X146146056Y-137644113D01*
X145934671Y-138153184D01*
X145934631Y-138198922D01*
X145241777Y-138891777D01*
X144994006Y-139262593D01*
X144907000Y-139700000D01*
X144907000Y-140335000D01*
X144907000Y-140496554D01*
X144669541Y-140734012D01*
X144206511Y-140826115D01*
X143720330Y-141150971D01*
X143706263Y-141172023D01*
X143641927Y-141016702D01*
X143463299Y-140838073D01*
X143229910Y-140741400D01*
X142977291Y-140741400D01*
X141250091Y-140741400D01*
X141016702Y-140838073D01*
X140838073Y-141016701D01*
X140741400Y-141250090D01*
X140741400Y-141502709D01*
X140741400Y-142509886D01*
X140550668Y-142430687D01*
X140121216Y-142430313D01*
X139724311Y-142594311D01*
X139420378Y-142897714D01*
X139255687Y-143294332D01*
X139255313Y-143723784D01*
X139419311Y-144120689D01*
X139722714Y-144424622D01*
X140119332Y-144589313D01*
X140548784Y-144589687D01*
X140793531Y-144488559D01*
X140741400Y-144750641D01*
X140741400Y-144809359D01*
X140855474Y-145382848D01*
X141180330Y-145869029D01*
X141451172Y-146050000D01*
X141180330Y-146230971D01*
X140855474Y-146717152D01*
X140741400Y-147290641D01*
X140741400Y-147349359D01*
X140855474Y-147922848D01*
X141180330Y-148409029D01*
X141666511Y-148733885D01*
X142240000Y-148847959D01*
X142813489Y-148733885D01*
X143299670Y-148409029D01*
X143358995Y-148320242D01*
X143770504Y-148752666D01*
X144395605Y-149029928D01*
X144480774Y-149046867D01*
X144754600Y-148850139D01*
X144754600Y-147345400D01*
X144734600Y-147345400D01*
X144734600Y-147294600D01*
X144754600Y-147294600D01*
X144754600Y-147274600D01*
X144805400Y-147274600D01*
X144805400Y-147294600D01*
X146310168Y-147294600D01*
X146506869Y-147020774D01*
X146260910Y-146382707D01*
X145798350Y-145896638D01*
X145839670Y-145869029D01*
X146164526Y-145382848D01*
X146278600Y-144809359D01*
X146278600Y-144750641D01*
X146164526Y-144177152D01*
X145839670Y-143690971D01*
X145568827Y-143510000D01*
X145839670Y-143329029D01*
X146164526Y-142842848D01*
X146256628Y-142379817D01*
X146858223Y-141778223D01*
X147105994Y-141407407D01*
X147193000Y-140970000D01*
X147193000Y-140335000D01*
X147193000Y-140173446D01*
X147550674Y-139815771D01*
X147594398Y-139815810D01*
X148103837Y-139605314D01*
X148430425Y-139279295D01*
X148448085Y-139325013D01*
X148492800Y-139391933D01*
X148817288Y-139436791D01*
X149824079Y-138430000D01*
X149809936Y-138415857D01*
X149845857Y-138379936D01*
X149860000Y-138394079D01*
X149874142Y-138379936D01*
X149910063Y-138415857D01*
X149895921Y-138430000D01*
X150902712Y-139436791D01*
X151227200Y-139391933D01*
X151491244Y-138795506D01*
X151506946Y-138143433D01*
X151271915Y-137534987D01*
X151227200Y-137468067D01*
X150902714Y-137423209D01*
X151058267Y-137267657D01*
X151052210Y-137261600D01*
X162889890Y-137261600D01*
X167119145Y-141490855D01*
X167290978Y-141605670D01*
X167259967Y-141824046D01*
X168275000Y-142839079D01*
X168289142Y-142824936D01*
X168325063Y-142860857D01*
X168310921Y-142875000D01*
X168325063Y-142889142D01*
X168289142Y-142925063D01*
X168275000Y-142910921D01*
X168239079Y-142946842D01*
X168239079Y-142875000D01*
X167224046Y-141859967D01*
X166898371Y-141906216D01*
X166632423Y-142506774D01*
X166616543Y-143163391D01*
X166853148Y-143776102D01*
X166898371Y-143843784D01*
X167224046Y-143890033D01*
X168239079Y-142875000D01*
X168239079Y-142946842D01*
X167259967Y-143925954D01*
X167279352Y-144062461D01*
X167153302Y-144114673D01*
X166974673Y-144293301D01*
X166878000Y-144526690D01*
X166878000Y-144779309D01*
X166878000Y-146303309D01*
X166974673Y-146536698D01*
X167153301Y-146715327D01*
X167386690Y-146812000D01*
X167639309Y-146812000D01*
X169163309Y-146812000D01*
X169396698Y-146715327D01*
X169575327Y-146536699D01*
X169672000Y-146303310D01*
X169672000Y-146247386D01*
X170022630Y-146598629D01*
X170535900Y-146811757D01*
X171091661Y-146812242D01*
X171605303Y-146600010D01*
X171998629Y-146207370D01*
X172084949Y-145999487D01*
X172169990Y-146205303D01*
X172562630Y-146598629D01*
X173075900Y-146811757D01*
X173631661Y-146812242D01*
X174145303Y-146600010D01*
X174538629Y-146207370D01*
X174624949Y-145999487D01*
X174709990Y-146205303D01*
X175102630Y-146598629D01*
X175615900Y-146811757D01*
X176171661Y-146812242D01*
X176685303Y-146600010D01*
X177078629Y-146207370D01*
X177164949Y-145999487D01*
X177249990Y-146205303D01*
X177642630Y-146598629D01*
X178155900Y-146811757D01*
X178711661Y-146812242D01*
X179225303Y-146600010D01*
X179618629Y-146207370D01*
X179831757Y-145694100D01*
X179832242Y-145138339D01*
X179620010Y-144624697D01*
X179304802Y-144308938D01*
X179336102Y-144296852D01*
X179403784Y-144251629D01*
X179450033Y-143925954D01*
X178435000Y-142910921D01*
X177419967Y-143925954D01*
X177466216Y-144251629D01*
X177574835Y-144299729D01*
X177251371Y-144622630D01*
X177165050Y-144830512D01*
X177080010Y-144624697D01*
X176687370Y-144231371D01*
X176479487Y-144145050D01*
X176685303Y-144060010D01*
X177001061Y-143744802D01*
X177013148Y-143776102D01*
X177058371Y-143843784D01*
X177384046Y-143890033D01*
X178399079Y-142875000D01*
X177384046Y-141859967D01*
X177058371Y-141906216D01*
X177010270Y-142014835D01*
X176687370Y-141691371D01*
X176174100Y-141478243D01*
X175895646Y-141478000D01*
X177496703Y-141478000D01*
X177466216Y-141498371D01*
X177419967Y-141824046D01*
X178435000Y-142839079D01*
X179450033Y-141824046D01*
X179403784Y-141498371D01*
X179357782Y-141478000D01*
X181610000Y-141478000D01*
X182047407Y-141390994D01*
X182418223Y-141143223D01*
X182665994Y-140772407D01*
X182753000Y-140335000D01*
X182665994Y-139897593D01*
X182601853Y-139801600D01*
X185191090Y-139801600D01*
X186403824Y-141014334D01*
X186325794Y-141202253D01*
X186325226Y-141852494D01*
X186573538Y-142453455D01*
X187032927Y-142913646D01*
X187633453Y-143163006D01*
X188283694Y-143163574D01*
X188884655Y-142915262D01*
X189344846Y-142455873D01*
X189594206Y-141855347D01*
X189594774Y-141205106D01*
X189346462Y-140604145D01*
X188887073Y-140143954D01*
X188286547Y-139894594D01*
X187636306Y-139894026D01*
X187445694Y-139972784D01*
X186017055Y-138544145D01*
X185778085Y-138384470D01*
X185496200Y-138328400D01*
X167310109Y-138328400D01*
X165608310Y-136626600D01*
X172085000Y-136626600D01*
X172366885Y-136570530D01*
X172605855Y-136410855D01*
X173240855Y-135775855D01*
X173252903Y-135757823D01*
X173723587Y-135953268D01*
X174254086Y-135953731D01*
X174744380Y-135751146D01*
X175119827Y-135376353D01*
X175128029Y-135356600D01*
X176656902Y-135356600D01*
X176415154Y-135597927D01*
X176165794Y-136198453D01*
X176165226Y-136848694D01*
X176413538Y-137449655D01*
X176872927Y-137909846D01*
X177473453Y-138159206D01*
X178123694Y-138159774D01*
X178724655Y-137911462D01*
X179184846Y-137452073D01*
X179434206Y-136851547D01*
X179434774Y-136201306D01*
X179186462Y-135600345D01*
X178943141Y-135356600D01*
X186690000Y-135356600D01*
X186848480Y-135325076D01*
X186575154Y-135597927D01*
X186325794Y-136198453D01*
X186325226Y-136848694D01*
X186573538Y-137449655D01*
X187032927Y-137909846D01*
X187633453Y-138159206D01*
X188283694Y-138159774D01*
X188474305Y-138081015D01*
X189979145Y-139585855D01*
X190218115Y-139745530D01*
X190271400Y-139756128D01*
X190271400Y-140054909D01*
X190368073Y-140288298D01*
X190546701Y-140466927D01*
X190780090Y-140563600D01*
X191032709Y-140563600D01*
X192759909Y-140563600D01*
X192993298Y-140466927D01*
X193171927Y-140288299D01*
X193242820Y-140117148D01*
X193460003Y-140334710D01*
X194010602Y-140563339D01*
X194606782Y-140563859D01*
X195157780Y-140336192D01*
X195579710Y-139914997D01*
X195580095Y-139914069D01*
X196000003Y-140334710D01*
X196550602Y-140563339D01*
X197146782Y-140563859D01*
X197697780Y-140336192D01*
X198119710Y-139914997D01*
X198348339Y-139364398D01*
X198348859Y-138768218D01*
X198121192Y-138217220D01*
X197699997Y-137795290D01*
X197628637Y-137765658D01*
X197628637Y-107664558D01*
X195000000Y-105035921D01*
X194964079Y-105071842D01*
X194964079Y-105000000D01*
X192335442Y-102371363D01*
X191777230Y-102689917D01*
X191138518Y-104099063D01*
X191087682Y-105645367D01*
X191632461Y-107093421D01*
X191777230Y-107310083D01*
X192335442Y-107628637D01*
X194964079Y-105000000D01*
X194964079Y-105071842D01*
X192371363Y-107664558D01*
X192689917Y-108222770D01*
X194099063Y-108861482D01*
X195645367Y-108912318D01*
X197093421Y-108367539D01*
X197310083Y-108222770D01*
X197628637Y-107664558D01*
X197628637Y-137765658D01*
X197238457Y-137603641D01*
X197238457Y-121631609D01*
X197001852Y-121018898D01*
X196977242Y-120982065D01*
X196977242Y-119103339D01*
X196765010Y-118589697D01*
X196372370Y-118196371D01*
X195859100Y-117983243D01*
X195303339Y-117982758D01*
X194789697Y-118194990D01*
X194437000Y-118547071D01*
X194437000Y-118491691D01*
X194340327Y-118258302D01*
X194161699Y-118079673D01*
X193928310Y-117983000D01*
X193675691Y-117983000D01*
X192151691Y-117983000D01*
X191918302Y-118079673D01*
X191739673Y-118258301D01*
X191643000Y-118491690D01*
X191643000Y-118744309D01*
X191643000Y-120268309D01*
X191739673Y-120501698D01*
X191918301Y-120680327D01*
X192044352Y-120732539D01*
X192024967Y-120869046D01*
X193040000Y-121884079D01*
X194055033Y-120869046D01*
X194035647Y-120732538D01*
X194161698Y-120680327D01*
X194340327Y-120501699D01*
X194437000Y-120268310D01*
X194437000Y-120212386D01*
X194710197Y-120486061D01*
X194678898Y-120498148D01*
X194611216Y-120543371D01*
X194564967Y-120869046D01*
X195580000Y-121884079D01*
X196595033Y-120869046D01*
X196548784Y-120543371D01*
X196440164Y-120495270D01*
X196763629Y-120172370D01*
X196976757Y-119659100D01*
X196977242Y-119103339D01*
X196977242Y-120982065D01*
X196956629Y-120951216D01*
X196630954Y-120904967D01*
X195615921Y-121920000D01*
X196630954Y-122935033D01*
X196956629Y-122888784D01*
X197222577Y-122288226D01*
X197238457Y-121631609D01*
X197238457Y-137603641D01*
X197149398Y-137566661D01*
X196553218Y-137566141D01*
X196002220Y-137793808D01*
X195580290Y-138215003D01*
X195579904Y-138215930D01*
X195159997Y-137795290D01*
X194609398Y-137566661D01*
X194013218Y-137566141D01*
X193462220Y-137793808D01*
X193242812Y-138012833D01*
X193171927Y-137841702D01*
X192993299Y-137663073D01*
X192759910Y-137566400D01*
X192507291Y-137566400D01*
X190780091Y-137566400D01*
X190546702Y-137663073D01*
X190368073Y-137841701D01*
X190353527Y-137876817D01*
X189516175Y-137039465D01*
X189594206Y-136851547D01*
X189594774Y-136201306D01*
X189346462Y-135600345D01*
X188887073Y-135140154D01*
X188286547Y-134890794D01*
X187636306Y-134890226D01*
X187338385Y-135013324D01*
X189750855Y-132600855D01*
X189910530Y-132361885D01*
X189966600Y-132080000D01*
X189966600Y-128270000D01*
X189910530Y-127988115D01*
X189750855Y-127749145D01*
X188480855Y-126479145D01*
X188462080Y-126466600D01*
X191748837Y-126466600D01*
X191643243Y-126720900D01*
X191642758Y-127276661D01*
X191854990Y-127790303D01*
X192247630Y-128183629D01*
X192455512Y-128269949D01*
X192249697Y-128354990D01*
X191856371Y-128747630D01*
X191643243Y-129260900D01*
X191642758Y-129816661D01*
X191854990Y-130330303D01*
X192247630Y-130723629D01*
X192760900Y-130936757D01*
X193316661Y-130937242D01*
X193830303Y-130725010D01*
X194223629Y-130332370D01*
X194309949Y-130124487D01*
X194394990Y-130330303D01*
X194787630Y-130723629D01*
X195300900Y-130936757D01*
X195856661Y-130937242D01*
X196370303Y-130725010D01*
X196763629Y-130332370D01*
X196976757Y-129819100D01*
X196977242Y-129263339D01*
X196765010Y-128749697D01*
X196372370Y-128356371D01*
X196164487Y-128270050D01*
X196370303Y-128185010D01*
X196763629Y-127792370D01*
X196976757Y-127279100D01*
X196977242Y-126723339D01*
X196765010Y-126209697D01*
X196372370Y-125816371D01*
X196164487Y-125730050D01*
X196370303Y-125645010D01*
X196763629Y-125252370D01*
X196976757Y-124739100D01*
X196977242Y-124183339D01*
X196765010Y-123669697D01*
X196449802Y-123353938D01*
X196481102Y-123341852D01*
X196548784Y-123296629D01*
X196595033Y-122970954D01*
X195580000Y-121955921D01*
X195544079Y-121991842D01*
X195544079Y-121920000D01*
X194529046Y-120904967D01*
X194310000Y-120936073D01*
X194090954Y-120904967D01*
X193075921Y-121920000D01*
X194090954Y-122935033D01*
X194310000Y-122903926D01*
X194529046Y-122935033D01*
X195544079Y-121920000D01*
X195544079Y-121991842D01*
X194564967Y-122970954D01*
X194611216Y-123296629D01*
X194719835Y-123344729D01*
X194396371Y-123667630D01*
X194310050Y-123875512D01*
X194225010Y-123669697D01*
X193909802Y-123353938D01*
X193941102Y-123341852D01*
X194008784Y-123296629D01*
X194055033Y-122970954D01*
X193040000Y-121955921D01*
X193004079Y-121991842D01*
X193004079Y-121920000D01*
X191989046Y-120904967D01*
X191663371Y-120951216D01*
X191397423Y-121551774D01*
X191381543Y-122208391D01*
X191618148Y-122821102D01*
X191663371Y-122888784D01*
X191989046Y-122935033D01*
X193004079Y-121920000D01*
X193004079Y-121991842D01*
X192024967Y-122970954D01*
X192071216Y-123296629D01*
X192179835Y-123344729D01*
X191937926Y-123586216D01*
X191020855Y-122669145D01*
X190781885Y-122509470D01*
X190500000Y-122453400D01*
X187828492Y-122453400D01*
X187821146Y-122435620D01*
X187446353Y-122060173D01*
X187108553Y-121919906D01*
X187444380Y-121781146D01*
X187819827Y-121406353D01*
X188023268Y-120916413D01*
X188023731Y-120385914D01*
X187821146Y-119895620D01*
X187446353Y-119520173D01*
X186956413Y-119316732D01*
X186425914Y-119316269D01*
X185935620Y-119518854D01*
X185560173Y-119893647D01*
X185356732Y-120383587D01*
X185356269Y-120914086D01*
X185364436Y-120933853D01*
X184264145Y-122034145D01*
X184104470Y-122273115D01*
X184048400Y-122555000D01*
X184048400Y-125730000D01*
X184104470Y-126011885D01*
X184264145Y-126250855D01*
X185140290Y-127127000D01*
X182083446Y-127127000D01*
X180664504Y-125708058D01*
X180664504Y-122911739D01*
X180436644Y-122322729D01*
X180403500Y-122273127D01*
X180403500Y-121474810D01*
X180403500Y-121222191D01*
X180403500Y-119825191D01*
X180306827Y-119591802D01*
X180128199Y-119413173D01*
X179894810Y-119316500D01*
X179642191Y-119316500D01*
X178245191Y-119316500D01*
X178011802Y-119413173D01*
X177833173Y-119591801D01*
X177736500Y-119825190D01*
X177736500Y-120077809D01*
X177736500Y-121474809D01*
X177833173Y-121708198D01*
X178011801Y-121886827D01*
X178130782Y-121936110D01*
X178100755Y-122184834D01*
X179070000Y-123154079D01*
X180039245Y-122184834D01*
X180009217Y-121936110D01*
X180128198Y-121886827D01*
X180306827Y-121708199D01*
X180403500Y-121474810D01*
X180403500Y-122273127D01*
X180394244Y-122259276D01*
X180075166Y-122220755D01*
X179105921Y-123190000D01*
X180075166Y-124159245D01*
X180394244Y-124120724D01*
X180649615Y-123543110D01*
X180664504Y-122911739D01*
X180664504Y-125708058D01*
X180390613Y-125434167D01*
X180201146Y-124975620D01*
X179826353Y-124600173D01*
X179825579Y-124599851D01*
X179937271Y-124556644D01*
X180000724Y-124514244D01*
X180039245Y-124195166D01*
X179070000Y-123225921D01*
X179055857Y-123240063D01*
X179019936Y-123204142D01*
X179034079Y-123190000D01*
X178064834Y-122220755D01*
X177745756Y-122259276D01*
X177583261Y-122626815D01*
X176703223Y-121746777D01*
X176332407Y-121499006D01*
X175895000Y-121412000D01*
X175539710Y-121412000D01*
X176492242Y-120459467D01*
X176743784Y-120459687D01*
X177140689Y-120295689D01*
X177444622Y-119992286D01*
X177609313Y-119595668D01*
X177609687Y-119166216D01*
X177445689Y-118769311D01*
X177142286Y-118465378D01*
X176745668Y-118300687D01*
X176316216Y-118300313D01*
X175919311Y-118464311D01*
X175615378Y-118767714D01*
X175450687Y-119164332D01*
X175450466Y-119417823D01*
X175323356Y-119544933D01*
X175323731Y-119115914D01*
X175121146Y-118625620D01*
X174746353Y-118250173D01*
X174256413Y-118046732D01*
X173725914Y-118046269D01*
X173235620Y-118248854D01*
X172860173Y-118623647D01*
X172719906Y-118961446D01*
X172581146Y-118625620D01*
X172278881Y-118322828D01*
X172944503Y-117657206D01*
X173055602Y-117703339D01*
X173651782Y-117703859D01*
X174202780Y-117476192D01*
X174624710Y-117054997D01*
X174625095Y-117054069D01*
X175045003Y-117474710D01*
X175595602Y-117703339D01*
X176191782Y-117703859D01*
X176742780Y-117476192D01*
X177164710Y-117054997D01*
X177165095Y-117054069D01*
X177585003Y-117474710D01*
X178135602Y-117703339D01*
X178731782Y-117703859D01*
X179282780Y-117476192D01*
X179704710Y-117054997D01*
X179705095Y-117054069D01*
X180125003Y-117474710D01*
X180675602Y-117703339D01*
X181271782Y-117703859D01*
X181822780Y-117476192D01*
X182244710Y-117054997D01*
X182473339Y-116504398D01*
X182473859Y-115908218D01*
X182246192Y-115357220D01*
X181824997Y-114935290D01*
X181274398Y-114706661D01*
X180678218Y-114706141D01*
X180127220Y-114933808D01*
X179705290Y-115355003D01*
X179704904Y-115355930D01*
X179333757Y-114984135D01*
X179351885Y-114980530D01*
X179590855Y-114820855D01*
X180564503Y-113847206D01*
X180675602Y-113893339D01*
X181271782Y-113893859D01*
X181822780Y-113666192D01*
X182244710Y-113244997D01*
X182473339Y-112694398D01*
X182473859Y-112098218D01*
X182246192Y-111547220D01*
X181926130Y-111226600D01*
X186690000Y-111226600D01*
X186971885Y-111170530D01*
X187210855Y-111010855D01*
X187845855Y-110375855D01*
X188005530Y-110136885D01*
X188005530Y-110136884D01*
X188061600Y-109855000D01*
X188061600Y-106680000D01*
X188005530Y-106398115D01*
X187845855Y-106159145D01*
X186791600Y-105104890D01*
X186791600Y-102738492D01*
X186809380Y-102731146D01*
X187184827Y-102356353D01*
X187388268Y-101866413D01*
X187388731Y-101335914D01*
X187186146Y-100845620D01*
X187000849Y-100660000D01*
X199340000Y-100660000D01*
X199340000Y-149340000D01*
M02*
