M48
;DRILL file {kicad (2014-jul-16 BZR unknown)-product} date Sat 04 Oct 2014 10:12:43 PM PDT
;FORMAT={-:-/ absolute / inch / decimal}
FMAT,2
INCH,TZ
T1C0.025
T2C0.030
T3C0.032
T4C0.032
T5C0.039
T6C0.040
T7C0.047
T8C0.050
T9C0.125
T10C0.150
%
G90
G05
M72
T1
X4.8Y-4.75
X4.9Y-4.65
X5.1Y-5.
X5.1Y-5.25
X5.15Y-5.175
X5.2Y-5.2
X5.25Y-5.
X5.375Y-4.6
X5.5Y-4.2
X5.525Y-5.65
X5.6Y-4.2
X5.85Y-5.
X6.075Y-5.
X6.2Y-4.775
X6.3Y-4.325
X6.325Y-5.
X6.35Y-5.15
X6.4Y-4.575
X6.45Y-5.
X6.5Y-5.15
X6.6Y-5.
X6.6Y-5.15
X6.75Y-5.
X6.8Y-4.1
X6.8Y-5.2
X6.8Y-5.25
X6.806Y-4.2
X6.825Y-5.1
X6.95Y-4.7
X6.9735Y-4.2
X6.975Y-4.125
X7.15Y-5.525
X7.325Y-4.65
X7.4Y-5.15
T2
X4.325Y-4.3
X4.325Y-4.4
T3
X5.8Y-5.45
X5.85Y-4.55
X5.9Y-4.325
X5.9Y-5.45
X5.9Y-5.6
X5.9Y-5.7
X5.95Y-4.55
X6.Y-4.325
X6.1Y-5.5039
X6.1Y-5.6961
X6.3Y-5.5
X6.3Y-5.6
X6.4Y-4.1
X6.4Y-4.2
X6.525Y-4.1
X6.525Y-4.2
X7.15Y-5.2
X7.25Y-5.2
T4
X4.95Y-4.7
X4.95Y-5.3
X5.05Y-4.7
X5.05Y-5.3
X5.15Y-4.7
X5.15Y-5.3
X5.25Y-4.7
X5.25Y-5.3
X5.35Y-4.7
X5.35Y-5.3
X5.45Y-4.7
X5.45Y-5.3
X5.55Y-4.7
X5.55Y-5.3
X5.65Y-4.7
X5.65Y-5.3
X5.75Y-4.7
X5.75Y-5.3
X5.85Y-4.7
X5.85Y-5.3
X5.95Y-4.7
X5.95Y-5.3
X6.05Y-4.7
X6.05Y-5.3
X6.15Y-4.7
X6.15Y-5.3
X6.25Y-4.7
X6.25Y-5.3
X6.35Y-4.7
X6.35Y-5.3
X6.45Y-4.7
X6.45Y-5.3
X6.55Y-4.7
X6.55Y-5.3
X6.65Y-4.7
X6.65Y-5.3
X6.725Y-4.
X6.725Y-4.3
X6.75Y-4.7
X6.75Y-5.3
X6.825Y-4.
X6.825Y-4.3
X6.85Y-4.7
X6.85Y-5.3
X6.925Y-4.
X6.925Y-4.3
X7.025Y-4.
X7.025Y-4.3
X7.05Y-4.75
X7.05Y-4.85
X7.05Y-4.95
X7.05Y-5.05
X7.125Y-4.
X7.125Y-4.3
X7.225Y-4.
X7.225Y-4.3
X7.325Y-4.
X7.325Y-4.3
X7.35Y-4.75
X7.35Y-4.85
X7.35Y-4.95
X7.35Y-5.05
T5
X4.475Y-5.05
X4.5Y-4.275
X4.5Y-4.4
X4.575Y-5.05
X4.675Y-4.525
X4.675Y-5.05
X4.775Y-4.65
X4.775Y-5.05
X4.9Y-4.275
X4.9Y-4.4
X5.175Y-4.6
X5.575Y-4.6
X6.15Y-4.325
X6.55Y-4.325
X7.Y-5.375
X7.4Y-5.375
T6
X4.05Y-4.05
X4.05Y-4.15
X4.15Y-4.05
X4.15Y-4.15
X4.2Y-4.8016
X4.2Y-4.9984
X4.2Y-5.2516
X4.2Y-5.4484
X4.25Y-4.05
X4.25Y-4.15
X4.35Y-4.05
X4.35Y-4.15
X4.425Y-4.525
X4.425Y-4.625
X4.45Y-4.05
X4.45Y-4.15
X4.45Y-4.825
X4.525Y-4.525
X4.525Y-4.625
X4.55Y-4.05
X4.55Y-4.15
X4.55Y-4.825
X4.65Y-4.05
X4.65Y-4.15
X4.65Y-4.825
X4.75Y-4.05
X4.75Y-4.15
X4.85Y-4.05
X4.85Y-4.15
X4.9Y-5.8
X4.95Y-4.05
X4.95Y-4.15
X5.Y-5.8
X5.05Y-4.05
X5.05Y-4.15
X5.1Y-5.8
X5.15Y-4.05
X5.15Y-4.15
X5.2Y-4.325
X5.2Y-4.475
X5.2Y-5.8
X5.25Y-4.05
X5.25Y-4.15
X5.3Y-4.325
X5.3Y-4.475
X5.3Y-5.8
X5.35Y-4.05
X5.35Y-4.15
X5.4Y-4.325
X5.4Y-4.475
X5.4Y-5.8
X5.45Y-4.05
X5.45Y-4.15
X5.5Y-4.325
X5.5Y-4.475
X5.55Y-4.05
X5.55Y-4.15
X5.6Y-4.325
X5.6Y-5.6
X5.6Y-5.7
X5.6Y-5.8
X5.65Y-4.05
X5.65Y-4.15
X5.7Y-4.325
X5.7Y-5.6
X5.7Y-5.7
X5.7Y-5.8
X5.75Y-4.05
X5.75Y-4.15
X5.85Y-4.05
X5.85Y-4.15
X5.95Y-4.05
X5.95Y-4.15
X6.05Y-4.05
X6.05Y-4.15
X6.15Y-4.05
X6.15Y-4.15
X6.25Y-4.05
X6.25Y-4.15
X6.625Y-5.625
X6.625Y-5.725
X6.725Y-4.425
X6.725Y-4.575
X6.725Y-5.625
X6.725Y-5.725
X6.825Y-4.425
X6.825Y-4.575
X6.825Y-5.625
X6.825Y-5.725
X6.925Y-4.425
X6.925Y-4.575
X6.925Y-5.625
X6.925Y-5.725
X7.025Y-4.425
X7.025Y-4.575
X7.025Y-5.625
X7.025Y-5.725
X7.125Y-4.425
X7.125Y-4.575
X7.55Y-5.475
X7.6Y-4.7
X7.6Y-4.8
X7.6Y-4.9
X7.6Y-5.
X7.6Y-5.1
X7.65Y-5.475
X7.7Y-4.7
X7.7Y-4.8
X7.7Y-4.9
X7.7Y-5.
X7.7Y-5.1
X7.75Y-5.475
T7
X7.4Y-5.572
X7.4Y-5.828
T8
X5.075Y-4.525
T9
X4.1339Y-4.5276
X4.1339Y-5.7087
X7.6772Y-4.1339
X7.6772Y-5.7087
T10
X4.575Y-5.71
T0
M30
