M48
;DRILL file {kicad (2014-jul-16 BZR unknown)-product} date Sun 05 Oct 2014 02:20:21 PM PDT
;FORMAT={2:4/ absolute / inch / suppress leading zeros}
FMAT,2
INCH,TZ
T1C0.025
T2C0.030
T3C0.032
T4C0.032
T5C0.039
T6C0.040
T7C0.047
T8C0.050
T9C0.125
T10C0.150
%
G90
G05
M72
T1
X48000Y-47500
X49000Y-46500
X51000Y-50000
X51000Y-52500
X51500Y-51750
X52000Y-52000
X52500Y-50000
X53750Y-46000
X55000Y-42000
X55250Y-56500
X56000Y-42000
X58500Y-50000
X60750Y-50000
X62000Y-47750
X63000Y-43250
X63250Y-50000
X63500Y-51500
X64000Y-45750
X64500Y-50000
X65000Y-51500
X66000Y-50000
X66000Y-51500
X67500Y-50000
X68000Y-41000
X68000Y-52000
X68000Y-52500
X68060Y-42000
X68250Y-51000
X69500Y-47000
X69735Y-42000
X69750Y-41250
X71500Y-55250
X73250Y-46500
X74000Y-51500
T2
X43250Y-43000
X43250Y-44000
T3
X58000Y-54500
X58500Y-45500
X59000Y-43250
X59000Y-54500
X59000Y-56000
X59000Y-57000
X59500Y-45500
X60000Y-43250
X61000Y-55039
X61000Y-56961
X63000Y-55000
X63000Y-56000
X64000Y-41000
X64000Y-42000
X65250Y-41000
X65250Y-42000
X71500Y-52000
X72500Y-52000
T4
X49500Y-47000
X49500Y-53000
X50500Y-47000
X50500Y-53000
X51500Y-47000
X51500Y-53000
X52500Y-47000
X52500Y-53000
X53500Y-47000
X53500Y-53000
X54500Y-47000
X54500Y-53000
X55500Y-47000
X55500Y-53000
X56500Y-47000
X56500Y-53000
X57500Y-47000
X57500Y-53000
X58500Y-47000
X58500Y-53000
X59500Y-47000
X59500Y-53000
X60500Y-47000
X60500Y-53000
X61500Y-47000
X61500Y-53000
X62500Y-47000
X62500Y-53000
X63500Y-47000
X63500Y-53000
X64500Y-47000
X64500Y-53000
X65500Y-47000
X65500Y-53000
X66500Y-47000
X66500Y-53000
X67250Y-40000
X67250Y-43000
X67500Y-47000
X67500Y-53000
X68250Y-40000
X68250Y-43000
X68500Y-47000
X68500Y-53000
X69250Y-40000
X69250Y-43000
X70250Y-40000
X70250Y-43000
X70500Y-47500
X70500Y-48500
X70500Y-49500
X70500Y-50500
X71250Y-40000
X71250Y-43000
X72250Y-40000
X72250Y-43000
X73250Y-40000
X73250Y-43000
X73500Y-47500
X73500Y-48500
X73500Y-49500
X73500Y-50500
T5
X44750Y-50500
X45000Y-42750
X45000Y-44000
X45750Y-50500
X46750Y-45250
X46750Y-50500
X47750Y-46500
X47750Y-50500
X49000Y-42750
X49000Y-44000
X51750Y-46000
X55750Y-46000
X61500Y-43250
X65500Y-43250
X70000Y-53750
X74000Y-53750
T6
X40500Y-40500
X40500Y-41500
X41500Y-40500
X41500Y-41500
X42000Y-48016
X42000Y-49984
X42000Y-52516
X42000Y-54484
X42500Y-40500
X42500Y-41500
X43500Y-40500
X43500Y-41500
X44250Y-45250
X44250Y-46250
X44500Y-40500
X44500Y-41500
X44500Y-48250
X45250Y-45250
X45250Y-46250
X45500Y-40500
X45500Y-41500
X45500Y-48250
X46500Y-40500
X46500Y-41500
X46500Y-48250
X47500Y-40500
X47500Y-41500
X48500Y-40500
X48500Y-41500
X49000Y-58000
X49500Y-40500
X49500Y-41500
X50000Y-58000
X50500Y-40500
X50500Y-41500
X51000Y-58000
X51500Y-40500
X51500Y-41500
X52000Y-43250
X52000Y-44750
X52000Y-58000
X52500Y-40500
X52500Y-41500
X53000Y-43250
X53000Y-44750
X53000Y-58000
X53500Y-40500
X53500Y-41500
X54000Y-43250
X54000Y-44750
X54000Y-58000
X54500Y-40500
X54500Y-41500
X55000Y-43250
X55000Y-44750
X55500Y-40500
X55500Y-41500
X56000Y-43250
X56000Y-56000
X56000Y-57000
X56000Y-58000
X56500Y-40500
X56500Y-41500
X57000Y-43250
X57000Y-56000
X57000Y-57000
X57000Y-58000
X57500Y-40500
X57500Y-41500
X58500Y-40500
X58500Y-41500
X59500Y-40500
X59500Y-41500
X60500Y-40500
X60500Y-41500
X61500Y-40500
X61500Y-41500
X62500Y-40500
X62500Y-41500
X66250Y-56250
X66250Y-57250
X67250Y-44250
X67250Y-45750
X67250Y-56250
X67250Y-57250
X68250Y-44250
X68250Y-45750
X68250Y-56250
X68250Y-57250
X69250Y-44250
X69250Y-45750
X69250Y-56250
X69250Y-57250
X70250Y-44250
X70250Y-45750
X70250Y-56250
X70250Y-57250
X71250Y-44250
X71250Y-45750
X75500Y-54750
X76000Y-47000
X76000Y-48000
X76000Y-49000
X76000Y-50000
X76000Y-51000
X76500Y-54750
X77000Y-47000
X77000Y-48000
X77000Y-49000
X77000Y-50000
X77000Y-51000
X77500Y-54750
T7
X74000Y-55720
X74000Y-58280
T8
X50750Y-45250
T9
X41339Y-45276
X41339Y-57087
X76772Y-41339
X76772Y-57087
T10
X45750Y-57100
T0
M30
