%FSLAX36Y36*%
G04 Gerber Fmt 3.6, Leading zero omitted, Abs format (unit inch)*
G04 Created by KiCad (PCBNEW (2014-jul-16 BZR unknown)-product) date Sun 05 Oct 2014 02:20:23 PM PDT*
%MOIN*%
G01*
G04 APERTURE LIST*
%ADD10C,0.003937*%
%ADD11C,0.008000*%
%ADD12C,0.007874*%
%ADD13C,0.011811*%
%ADD14C,0.012000*%
%ADD15C,0.015000*%
%ADD16C,0.010000*%
%ADD17C,0.005906*%
%ADD18C,0.009850*%
%ADD19C,0.009900*%
G04 APERTURE END LIST*
D10*
D11*
X4055476Y-4253095D02*
X4032619Y-4253095D01*
X4044048Y-4253095D02*
X4044048Y-4213095D01*
X4040238Y-4218810D01*
X4036429Y-4222619D01*
X4032619Y-4224524D01*
X4915476Y-5718095D02*
X4892619Y-5718095D01*
X4904048Y-5718095D02*
X4904048Y-5678095D01*
X4900238Y-5683810D01*
X4896429Y-5687619D01*
X4892619Y-5689524D01*
X7332381Y-5493095D02*
X7319048Y-5474048D01*
X7309524Y-5493095D02*
X7309524Y-5453095D01*
X7324762Y-5453095D01*
X7328571Y-5455000D01*
X7330476Y-5456905D01*
X7332381Y-5460714D01*
X7332381Y-5466429D01*
X7330476Y-5470238D01*
X7328571Y-5472143D01*
X7324762Y-5474048D01*
X7309524Y-5474048D01*
X7349524Y-5472143D02*
X7362857Y-5472143D01*
X7368571Y-5493095D02*
X7349524Y-5493095D01*
X7349524Y-5453095D01*
X7368571Y-5453095D01*
X7383810Y-5491190D02*
X7389524Y-5493095D01*
X7399048Y-5493095D01*
X7402857Y-5491190D01*
X7404762Y-5489286D01*
X7406667Y-5485476D01*
X7406667Y-5481667D01*
X7404762Y-5477857D01*
X7402857Y-5475952D01*
X7399048Y-5474048D01*
X7391429Y-5472143D01*
X7387619Y-5470238D01*
X7385714Y-5468333D01*
X7383810Y-5464524D01*
X7383810Y-5460714D01*
X7385714Y-5456905D01*
X7387619Y-5455000D01*
X7391429Y-5453095D01*
X7400952Y-5453095D01*
X7406667Y-5455000D01*
X7423810Y-5472143D02*
X7437143Y-5472143D01*
X7442857Y-5493095D02*
X7423810Y-5493095D01*
X7423810Y-5453095D01*
X7442857Y-5453095D01*
X7454286Y-5453095D02*
X7477143Y-5453095D01*
X7465714Y-5493095D02*
X7465714Y-5453095D01*
D12*
X3937008Y-5905512D02*
X3937008Y-3937008D01*
X7874016Y-5905512D02*
X3937008Y-5905512D01*
X7874016Y-3937008D02*
X7874016Y-5905512D01*
X3937008Y-3937008D02*
X7874016Y-3937008D01*
D11*
X4634524Y-4702857D02*
X4665000Y-4702857D01*
X4649762Y-4718095D02*
X4649762Y-4687619D01*
X4703095Y-4678095D02*
X4684048Y-4678095D01*
X4682143Y-4697143D01*
X4684048Y-4695238D01*
X4687857Y-4693333D01*
X4697381Y-4693333D01*
X4701190Y-4695238D01*
X4703095Y-4697143D01*
X4705000Y-4700952D01*
X4705000Y-4710476D01*
X4703095Y-4714286D01*
X4701190Y-4716190D01*
X4697381Y-4718095D01*
X4687857Y-4718095D01*
X4684048Y-4716190D01*
X4682143Y-4714286D01*
X4716429Y-4678095D02*
X4729762Y-4718095D01*
X4743095Y-4678095D01*
X5582619Y-4456667D02*
X5601667Y-4456667D01*
X5578810Y-4468095D02*
X5592143Y-4428095D01*
X5605476Y-4468095D01*
X5637857Y-4468095D02*
X5618810Y-4468095D01*
X5618810Y-4428095D01*
X5645476Y-4428095D02*
X5668333Y-4428095D01*
X5656905Y-4468095D02*
X5656905Y-4428095D01*
X5207381Y-5714286D02*
X5205476Y-5716190D01*
X5199762Y-5718095D01*
X5195952Y-5718095D01*
X5190238Y-5716190D01*
X5186429Y-5712381D01*
X5184524Y-5708571D01*
X5182619Y-5700952D01*
X5182619Y-5695238D01*
X5184524Y-5687619D01*
X5186429Y-5683810D01*
X5190238Y-5680000D01*
X5195952Y-5678095D01*
X5199762Y-5678095D01*
X5205476Y-5680000D01*
X5207381Y-5681905D01*
X5232143Y-5678095D02*
X5239762Y-5678095D01*
X5243571Y-5680000D01*
X5247381Y-5683810D01*
X5249286Y-5691429D01*
X5249286Y-5704762D01*
X5247381Y-5712381D01*
X5243571Y-5716190D01*
X5239762Y-5718095D01*
X5232143Y-5718095D01*
X5228333Y-5716190D01*
X5224524Y-5712381D01*
X5222619Y-5704762D01*
X5222619Y-5691429D01*
X5224524Y-5683810D01*
X5228333Y-5680000D01*
X5232143Y-5678095D01*
X5266429Y-5718095D02*
X5266429Y-5678095D01*
X5289286Y-5718095D01*
X5289286Y-5678095D01*
X5306429Y-5716190D02*
X5312143Y-5718095D01*
X5321667Y-5718095D01*
X5325476Y-5716190D01*
X5327381Y-5714286D01*
X5329286Y-5710476D01*
X5329286Y-5706667D01*
X5327381Y-5702857D01*
X5325476Y-5700952D01*
X5321667Y-5699048D01*
X5314048Y-5697143D01*
X5310238Y-5695238D01*
X5308333Y-5693333D01*
X5306429Y-5689524D01*
X5306429Y-5685714D01*
X5308333Y-5681905D01*
X5310238Y-5680000D01*
X5314048Y-5678095D01*
X5323571Y-5678095D01*
X5329286Y-5680000D01*
X5354048Y-5678095D02*
X5361667Y-5678095D01*
X5365476Y-5680000D01*
X5369286Y-5683810D01*
X5371190Y-5691429D01*
X5371190Y-5704762D01*
X5369286Y-5712381D01*
X5365476Y-5716190D01*
X5361667Y-5718095D01*
X5354048Y-5718095D01*
X5350238Y-5716190D01*
X5346429Y-5712381D01*
X5344524Y-5704762D01*
X5344524Y-5691429D01*
X5346429Y-5683810D01*
X5350238Y-5680000D01*
X5354048Y-5678095D01*
X5407381Y-5718095D02*
X5388333Y-5718095D01*
X5388333Y-5678095D01*
X5420714Y-5697143D02*
X5434048Y-5697143D01*
X5439762Y-5718095D02*
X5420714Y-5718095D01*
X5420714Y-5678095D01*
X5439762Y-5678095D01*
X5624524Y-5533095D02*
X5624524Y-5493095D01*
X5641667Y-5531190D02*
X5647381Y-5533095D01*
X5656905Y-5533095D01*
X5660714Y-5531190D01*
X5662619Y-5529286D01*
X5664524Y-5525476D01*
X5664524Y-5521667D01*
X5662619Y-5517857D01*
X5660714Y-5515952D01*
X5656905Y-5514048D01*
X5649286Y-5512143D01*
X5645476Y-5510238D01*
X5643571Y-5508333D01*
X5641667Y-5504524D01*
X5641667Y-5500714D01*
X5643571Y-5496905D01*
X5645476Y-5495000D01*
X5649286Y-5493095D01*
X5658810Y-5493095D01*
X5664524Y-5495000D01*
X5681667Y-5533095D02*
X5681667Y-5493095D01*
X5696905Y-5493095D01*
X5700714Y-5495000D01*
X5702619Y-5496905D01*
X5704524Y-5500714D01*
X5704524Y-5506429D01*
X5702619Y-5510238D01*
X5700714Y-5512143D01*
X5696905Y-5514048D01*
X5681667Y-5514048D01*
X7563206Y-5357229D02*
X7570825Y-5357229D01*
X7574634Y-5359134D01*
X7578444Y-5362943D01*
X7580349Y-5370562D01*
X7580349Y-5383896D01*
X7578444Y-5391515D01*
X7574634Y-5395324D01*
X7570825Y-5397229D01*
X7563206Y-5397229D01*
X7559396Y-5395324D01*
X7555587Y-5391515D01*
X7553682Y-5383896D01*
X7553682Y-5370562D01*
X7555587Y-5362943D01*
X7559396Y-5359134D01*
X7563206Y-5357229D01*
X7597492Y-5397229D02*
X7597492Y-5357229D01*
X7620349Y-5397229D01*
X7620349Y-5357229D01*
X7667968Y-5355324D02*
X7633682Y-5406753D01*
X7688920Y-5357229D02*
X7696539Y-5357229D01*
X7700349Y-5359134D01*
X7704158Y-5362943D01*
X7706063Y-5370562D01*
X7706063Y-5383896D01*
X7704158Y-5391515D01*
X7700349Y-5395324D01*
X7696539Y-5397229D01*
X7688920Y-5397229D01*
X7685111Y-5395324D01*
X7681301Y-5391515D01*
X7679396Y-5383896D01*
X7679396Y-5370562D01*
X7681301Y-5362943D01*
X7685111Y-5359134D01*
X7688920Y-5357229D01*
X7736539Y-5376277D02*
X7723206Y-5376277D01*
X7723206Y-5397229D02*
X7723206Y-5357229D01*
X7742253Y-5357229D01*
X7770825Y-5376277D02*
X7757492Y-5376277D01*
X7757492Y-5397229D02*
X7757492Y-5357229D01*
X7776539Y-5357229D01*
X6552842Y-5409985D02*
X6552842Y-5438556D01*
X6550937Y-5444271D01*
X6547128Y-5448080D01*
X6541414Y-5449985D01*
X6537604Y-5449985D01*
X6566175Y-5409985D02*
X6589033Y-5409985D01*
X6577604Y-5449985D02*
X6577604Y-5409985D01*
X6600461Y-5438556D02*
X6619509Y-5438556D01*
X6596652Y-5449985D02*
X6609985Y-5409985D01*
X6623318Y-5449985D01*
X6657604Y-5411890D02*
X6653794Y-5409985D01*
X6648080Y-5409985D01*
X6642366Y-5411890D01*
X6638556Y-5415699D01*
X6636652Y-5419509D01*
X6634747Y-5427128D01*
X6634747Y-5432842D01*
X6636652Y-5440461D01*
X6638556Y-5444271D01*
X6642366Y-5448080D01*
X6648080Y-5449985D01*
X6651890Y-5449985D01*
X6657604Y-5448080D01*
X6659509Y-5446175D01*
X6659509Y-5432842D01*
X6651890Y-5432842D01*
X4342143Y-4553095D02*
X4349762Y-4553095D01*
X4353571Y-4555000D01*
X4357381Y-4558810D01*
X4359286Y-4566429D01*
X4359286Y-4579762D01*
X4357381Y-4587381D01*
X4353571Y-4591190D01*
X4349762Y-4593095D01*
X4342143Y-4593095D01*
X4338333Y-4591190D01*
X4334524Y-4587381D01*
X4332619Y-4579762D01*
X4332619Y-4566429D01*
X4334524Y-4558810D01*
X4338333Y-4555000D01*
X4342143Y-4553095D01*
X4594524Y-4643095D02*
X4594524Y-4603095D01*
X4604048Y-4603095D01*
X4609762Y-4605000D01*
X4613571Y-4608810D01*
X4615476Y-4612619D01*
X4617381Y-4620238D01*
X4617381Y-4625952D01*
X4615476Y-4633571D01*
X4613571Y-4637381D01*
X4609762Y-4641190D01*
X4604048Y-4643095D01*
X4594524Y-4643095D01*
X4594524Y-4548095D02*
X4594524Y-4508095D01*
X4609762Y-4508095D01*
X4613571Y-4510000D01*
X4615476Y-4511905D01*
X4617381Y-4515714D01*
X4617381Y-4521429D01*
X4615476Y-4525238D01*
X4613571Y-4527143D01*
X4609762Y-4529048D01*
X4594524Y-4529048D01*
X5130476Y-4468095D02*
X5107619Y-4468095D01*
X5119048Y-4468095D02*
X5119048Y-4428095D01*
X5115238Y-4433810D01*
X5111429Y-4437619D01*
X5107619Y-4439524D01*
X7440476Y-4503095D02*
X7417619Y-4503095D01*
X7429048Y-4503095D02*
X7429048Y-4463095D01*
X7425238Y-4468810D01*
X7421429Y-4472619D01*
X7417619Y-4474524D01*
X6380476Y-5843095D02*
X6357619Y-5843095D01*
X6369048Y-5843095D02*
X6369048Y-5803095D01*
X6365238Y-5808810D01*
X6361429Y-5812619D01*
X6357619Y-5814524D01*
X5530476Y-5568095D02*
X5507619Y-5568095D01*
X5519048Y-5568095D02*
X5519048Y-5528095D01*
X5515238Y-5533810D01*
X5511429Y-5537619D01*
X5507619Y-5539524D01*
X5125476Y-4253095D02*
X5102619Y-4253095D01*
X5114048Y-4253095D02*
X5114048Y-4213095D01*
X5110238Y-4218810D01*
X5106429Y-4222619D01*
X5102619Y-4224524D01*
X5173095Y-4253095D02*
X5173095Y-4213095D01*
X5188333Y-4213095D01*
X5192143Y-4215000D01*
X5194048Y-4216905D01*
X5195952Y-4220714D01*
X5195952Y-4226429D01*
X5194048Y-4230238D01*
X5192143Y-4232143D01*
X5188333Y-4234048D01*
X5173095Y-4234048D01*
X5235952Y-4253095D02*
X5222619Y-4234048D01*
X5213095Y-4253095D02*
X5213095Y-4213095D01*
X5228333Y-4213095D01*
X5232143Y-4215000D01*
X5234048Y-4216905D01*
X5235952Y-4220714D01*
X5235952Y-4226429D01*
X5234048Y-4230238D01*
X5232143Y-4232143D01*
X5228333Y-4234048D01*
X5213095Y-4234048D01*
X5260714Y-4213095D02*
X5268333Y-4213095D01*
X5272143Y-4215000D01*
X5275952Y-4218810D01*
X5277857Y-4226429D01*
X5277857Y-4239762D01*
X5275952Y-4247381D01*
X5272143Y-4251190D01*
X5268333Y-4253095D01*
X5260714Y-4253095D01*
X5256905Y-4251190D01*
X5253095Y-4247381D01*
X5251190Y-4239762D01*
X5251190Y-4226429D01*
X5253095Y-4218810D01*
X5256905Y-4215000D01*
X5260714Y-4213095D01*
X5315952Y-4215000D02*
X5312143Y-4213095D01*
X5306429Y-4213095D01*
X5300714Y-4215000D01*
X5296905Y-4218810D01*
X5295000Y-4222619D01*
X5293095Y-4230238D01*
X5293095Y-4235952D01*
X5295000Y-4243571D01*
X5296905Y-4247381D01*
X5300714Y-4251190D01*
X5306429Y-4253095D01*
X5310238Y-4253095D01*
X5315952Y-4251190D01*
X5317857Y-4249286D01*
X5317857Y-4235952D01*
X5310238Y-4235952D01*
X5357857Y-4253095D02*
X5344524Y-4234048D01*
X5335000Y-4253095D02*
X5335000Y-4213095D01*
X5350238Y-4213095D01*
X5354048Y-4215000D01*
X5355952Y-4216905D01*
X5357857Y-4220714D01*
X5357857Y-4226429D01*
X5355952Y-4230238D01*
X5354048Y-4232143D01*
X5350238Y-4234048D01*
X5335000Y-4234048D01*
X5373095Y-4241667D02*
X5392143Y-4241667D01*
X5369286Y-4253095D02*
X5382619Y-4213095D01*
X5395952Y-4253095D01*
X5409286Y-4253095D02*
X5409286Y-4213095D01*
X5422619Y-4241667D01*
X5435952Y-4213095D01*
X5435952Y-4253095D01*
X4847857Y-5483143D02*
X4853571Y-5485048D01*
X4855476Y-5486952D01*
X4857381Y-5490762D01*
X4857381Y-5496476D01*
X4855476Y-5500286D01*
X4853571Y-5502190D01*
X4849762Y-5504095D01*
X4834524Y-5504095D01*
X4834524Y-5464095D01*
X4847857Y-5464095D01*
X4851667Y-5466000D01*
X4853571Y-5467905D01*
X4855476Y-5471714D01*
X4855476Y-5475524D01*
X4853571Y-5479333D01*
X4851667Y-5481238D01*
X4847857Y-5483143D01*
X4834524Y-5483143D01*
X4874524Y-5464095D02*
X4874524Y-5496476D01*
X4876429Y-5500286D01*
X4878333Y-5502190D01*
X4882143Y-5504095D01*
X4889762Y-5504095D01*
X4893571Y-5502190D01*
X4895476Y-5500286D01*
X4897381Y-5496476D01*
X4897381Y-5464095D01*
X4914524Y-5502190D02*
X4920238Y-5504095D01*
X4929762Y-5504095D01*
X4933571Y-5502190D01*
X4935476Y-5500286D01*
X4937381Y-5496476D01*
X4937381Y-5492667D01*
X4935476Y-5488857D01*
X4933571Y-5486952D01*
X4929762Y-5485048D01*
X4922143Y-5483143D01*
X4918333Y-5481238D01*
X4916429Y-5479333D01*
X4914524Y-5475524D01*
X4914524Y-5471714D01*
X4916429Y-5467905D01*
X4918333Y-5466000D01*
X4922143Y-5464095D01*
X4931667Y-5464095D01*
X4937381Y-5466000D01*
X4998333Y-5483143D02*
X5004048Y-5485048D01*
X5005952Y-5486952D01*
X5007857Y-5490762D01*
X5007857Y-5496476D01*
X5005952Y-5500286D01*
X5004048Y-5502190D01*
X5000238Y-5504095D01*
X4985000Y-5504095D01*
X4985000Y-5464095D01*
X4998333Y-5464095D01*
X5002143Y-5466000D01*
X5004048Y-5467905D01*
X5005952Y-5471714D01*
X5005952Y-5475524D01*
X5004048Y-5479333D01*
X5002143Y-5481238D01*
X4998333Y-5483143D01*
X4985000Y-5483143D01*
X5025000Y-5483143D02*
X5038333Y-5483143D01*
X5044048Y-5504095D02*
X5025000Y-5504095D01*
X5025000Y-5464095D01*
X5044048Y-5464095D01*
X5059286Y-5492667D02*
X5078333Y-5492667D01*
X5055476Y-5504095D02*
X5068810Y-5464095D01*
X5082143Y-5504095D01*
X5116429Y-5466000D02*
X5112619Y-5464095D01*
X5106905Y-5464095D01*
X5101190Y-5466000D01*
X5097381Y-5469810D01*
X5095476Y-5473619D01*
X5093571Y-5481238D01*
X5093571Y-5486952D01*
X5095476Y-5494571D01*
X5097381Y-5498381D01*
X5101190Y-5502190D01*
X5106905Y-5504095D01*
X5110714Y-5504095D01*
X5116429Y-5502190D01*
X5118333Y-5500286D01*
X5118333Y-5486952D01*
X5110714Y-5486952D01*
X5154524Y-5504095D02*
X5135476Y-5504095D01*
X5135476Y-5464095D01*
X5167857Y-5483143D02*
X5181190Y-5483143D01*
X5186905Y-5504095D02*
X5167857Y-5504095D01*
X5167857Y-5464095D01*
X5186905Y-5464095D01*
X5217381Y-5483143D02*
X5223095Y-5485048D01*
X5225000Y-5486952D01*
X5226905Y-5490762D01*
X5226905Y-5496476D01*
X5225000Y-5500286D01*
X5223095Y-5502190D01*
X5219286Y-5504095D01*
X5204048Y-5504095D01*
X5204048Y-5464095D01*
X5217381Y-5464095D01*
X5221190Y-5466000D01*
X5223095Y-5467905D01*
X5225000Y-5471714D01*
X5225000Y-5475524D01*
X5223095Y-5479333D01*
X5221190Y-5481238D01*
X5217381Y-5483143D01*
X5204048Y-5483143D01*
X5251667Y-5464095D02*
X5259286Y-5464095D01*
X5263095Y-5466000D01*
X5266905Y-5469810D01*
X5268809Y-5477429D01*
X5268809Y-5490762D01*
X5266905Y-5498381D01*
X5263095Y-5502190D01*
X5259286Y-5504095D01*
X5251667Y-5504095D01*
X5247857Y-5502190D01*
X5244048Y-5498381D01*
X5242143Y-5490762D01*
X5242143Y-5477429D01*
X5244048Y-5469810D01*
X5247857Y-5466000D01*
X5251667Y-5464095D01*
X5285952Y-5504095D02*
X5285952Y-5464095D01*
X5308809Y-5504095D01*
X5308809Y-5464095D01*
X5327857Y-5483143D02*
X5341190Y-5483143D01*
X5346905Y-5504095D02*
X5327857Y-5504095D01*
X5327857Y-5464095D01*
X5346905Y-5464095D01*
X4857381Y-5568095D02*
X4844048Y-5549048D01*
X4834524Y-5568095D02*
X4834524Y-5528095D01*
X4849762Y-5528095D01*
X4853571Y-5530000D01*
X4855476Y-5531905D01*
X4857381Y-5535714D01*
X4857381Y-5541429D01*
X4855476Y-5545238D01*
X4853571Y-5547143D01*
X4849762Y-5549048D01*
X4834524Y-5549048D01*
X4874524Y-5547143D02*
X4887857Y-5547143D01*
X4893571Y-5568095D02*
X4874524Y-5568095D01*
X4874524Y-5528095D01*
X4893571Y-5528095D01*
X4905000Y-5528095D02*
X4918333Y-5568095D01*
X4931667Y-5528095D01*
X4945000Y-5564286D02*
X4946905Y-5566190D01*
X4945000Y-5568095D01*
X4943095Y-5566190D01*
X4945000Y-5564286D01*
X4945000Y-5568095D01*
X5007857Y-5547143D02*
X5013571Y-5549048D01*
X5015476Y-5550952D01*
X5017381Y-5554762D01*
X5017381Y-5560476D01*
X5015476Y-5564286D01*
X5013571Y-5566190D01*
X5009762Y-5568095D01*
X4994524Y-5568095D01*
X4994524Y-5528095D01*
X5007857Y-5528095D01*
X5011667Y-5530000D01*
X5013571Y-5531905D01*
X5015476Y-5535714D01*
X5015476Y-5539524D01*
X5013571Y-5543333D01*
X5011667Y-5545238D01*
X5007857Y-5547143D01*
X4994524Y-5547143D01*
X5112619Y-5541429D02*
X5112619Y-5568095D01*
X5103095Y-5526190D02*
X5093571Y-5554762D01*
X5118333Y-5554762D01*
X5141190Y-5528095D02*
X5148809Y-5528095D01*
X5152619Y-5530000D01*
X5156429Y-5533810D01*
X5158333Y-5541429D01*
X5158333Y-5554762D01*
X5156429Y-5562381D01*
X5152619Y-5566190D01*
X5148809Y-5568095D01*
X5141190Y-5568095D01*
X5137381Y-5566190D01*
X5133571Y-5562381D01*
X5131667Y-5554762D01*
X5131667Y-5541429D01*
X5133571Y-5533810D01*
X5137381Y-5530000D01*
X5141190Y-5528095D01*
X5198333Y-5564286D02*
X5196429Y-5566190D01*
X5190714Y-5568095D01*
X5186905Y-5568095D01*
X5181190Y-5566190D01*
X5177381Y-5562381D01*
X5175476Y-5558571D01*
X5173571Y-5550952D01*
X5173571Y-5545238D01*
X5175476Y-5537619D01*
X5177381Y-5533810D01*
X5181190Y-5530000D01*
X5186905Y-5528095D01*
X5190714Y-5528095D01*
X5196429Y-5530000D01*
X5198333Y-5531905D01*
X5209762Y-5528095D02*
X5232619Y-5528095D01*
X5221190Y-5568095D02*
X5221190Y-5528095D01*
X5244048Y-5531905D02*
X5245952Y-5530000D01*
X5249762Y-5528095D01*
X5259286Y-5528095D01*
X5263095Y-5530000D01*
X5265000Y-5531905D01*
X5266905Y-5535714D01*
X5266905Y-5539524D01*
X5265000Y-5545238D01*
X5242143Y-5568095D01*
X5266905Y-5568095D01*
X5291667Y-5528095D02*
X5295476Y-5528095D01*
X5299286Y-5530000D01*
X5301190Y-5531905D01*
X5303095Y-5535714D01*
X5305000Y-5543333D01*
X5305000Y-5552857D01*
X5303095Y-5560476D01*
X5301190Y-5564286D01*
X5299286Y-5566190D01*
X5295476Y-5568095D01*
X5291667Y-5568095D01*
X5287857Y-5566190D01*
X5285952Y-5564286D01*
X5284048Y-5560476D01*
X5282143Y-5552857D01*
X5282143Y-5543333D01*
X5284048Y-5535714D01*
X5285952Y-5531905D01*
X5287857Y-5530000D01*
X5291667Y-5528095D01*
X5343095Y-5568095D02*
X5320238Y-5568095D01*
X5331667Y-5568095D02*
X5331667Y-5528095D01*
X5327857Y-5533810D01*
X5324048Y-5537619D01*
X5320238Y-5539524D01*
X5377381Y-5541429D02*
X5377381Y-5568095D01*
X5367857Y-5526190D02*
X5358333Y-5554762D01*
X5383095Y-5554762D01*
X4845952Y-5647333D02*
X4844048Y-5645429D01*
X4840238Y-5639714D01*
X4838333Y-5635905D01*
X4836429Y-5630190D01*
X4834524Y-5620667D01*
X4834524Y-5613048D01*
X4836429Y-5603524D01*
X4838333Y-5597810D01*
X4840238Y-5594000D01*
X4844048Y-5588286D01*
X4845952Y-5586381D01*
X4878333Y-5630190D02*
X4874524Y-5632095D01*
X4866905Y-5632095D01*
X4863095Y-5630190D01*
X4861190Y-5628286D01*
X4859286Y-5624476D01*
X4859286Y-5613048D01*
X4861190Y-5609238D01*
X4863095Y-5607333D01*
X4866905Y-5605429D01*
X4874524Y-5605429D01*
X4878333Y-5607333D01*
X4891667Y-5647333D02*
X4893571Y-5645429D01*
X4897381Y-5639714D01*
X4899286Y-5635905D01*
X4901190Y-5630190D01*
X4903095Y-5620667D01*
X4903095Y-5613048D01*
X4901190Y-5603524D01*
X4899286Y-5597810D01*
X4897381Y-5594000D01*
X4893571Y-5588286D01*
X4891667Y-5586381D01*
X4950714Y-5595905D02*
X4952619Y-5594000D01*
X4956429Y-5592095D01*
X4965952Y-5592095D01*
X4969762Y-5594000D01*
X4971667Y-5595905D01*
X4973571Y-5599714D01*
X4973571Y-5603524D01*
X4971667Y-5609238D01*
X4948809Y-5632095D01*
X4973571Y-5632095D01*
X4998333Y-5592095D02*
X5002143Y-5592095D01*
X5005952Y-5594000D01*
X5007857Y-5595905D01*
X5009762Y-5599714D01*
X5011667Y-5607333D01*
X5011667Y-5616857D01*
X5009762Y-5624476D01*
X5007857Y-5628286D01*
X5005952Y-5630190D01*
X5002143Y-5632095D01*
X4998333Y-5632095D01*
X4994524Y-5630190D01*
X4992619Y-5628286D01*
X4990714Y-5624476D01*
X4988809Y-5616857D01*
X4988809Y-5607333D01*
X4990714Y-5599714D01*
X4992619Y-5595905D01*
X4994524Y-5594000D01*
X4998333Y-5592095D01*
X5049762Y-5632095D02*
X5026905Y-5632095D01*
X5038333Y-5632095D02*
X5038333Y-5592095D01*
X5034524Y-5597810D01*
X5030714Y-5601619D01*
X5026905Y-5603524D01*
X5084048Y-5605429D02*
X5084048Y-5632095D01*
X5074524Y-5590190D02*
X5065000Y-5618762D01*
X5089762Y-5618762D01*
X5156429Y-5594000D02*
X5152619Y-5592095D01*
X5146905Y-5592095D01*
X5141190Y-5594000D01*
X5137381Y-5597810D01*
X5135476Y-5601619D01*
X5133571Y-5609238D01*
X5133571Y-5614952D01*
X5135476Y-5622571D01*
X5137381Y-5626381D01*
X5141190Y-5630190D01*
X5146905Y-5632095D01*
X5150714Y-5632095D01*
X5156429Y-5630190D01*
X5158333Y-5628286D01*
X5158333Y-5614952D01*
X5150714Y-5614952D01*
X5198333Y-5632095D02*
X5185000Y-5613048D01*
X5175476Y-5632095D02*
X5175476Y-5592095D01*
X5190714Y-5592095D01*
X5194524Y-5594000D01*
X5196429Y-5595905D01*
X5198333Y-5599714D01*
X5198333Y-5605429D01*
X5196429Y-5609238D01*
X5194524Y-5611143D01*
X5190714Y-5613048D01*
X5175476Y-5613048D01*
X5213571Y-5620667D02*
X5232619Y-5620667D01*
X5209762Y-5632095D02*
X5223095Y-5592095D01*
X5236429Y-5632095D01*
X5249762Y-5632095D02*
X5249762Y-5592095D01*
X5263095Y-5620667D01*
X5276429Y-5592095D01*
X5276429Y-5632095D01*
X5314524Y-5632095D02*
X5295476Y-5632095D01*
X5295476Y-5592095D01*
X5327857Y-5632095D02*
X5327857Y-5592095D01*
X5369762Y-5628286D02*
X5367857Y-5630190D01*
X5362143Y-5632095D01*
X5358333Y-5632095D01*
X5352619Y-5630190D01*
X5348809Y-5626381D01*
X5346905Y-5622571D01*
X5345000Y-5614952D01*
X5345000Y-5609238D01*
X5346905Y-5601619D01*
X5348809Y-5597810D01*
X5352619Y-5594000D01*
X5358333Y-5592095D01*
X5362143Y-5592095D01*
X5367857Y-5594000D01*
X5369762Y-5595905D01*
X5386905Y-5632095D02*
X5386905Y-5592095D01*
X5386905Y-5611143D02*
X5409762Y-5611143D01*
X5409762Y-5632095D02*
X5409762Y-5592095D01*
D13*
X4030476Y-5254218D02*
X3969524Y-5254218D01*
X4030476Y-4779218D02*
X3969524Y-4779218D01*
X4030476Y-5479218D02*
X3969524Y-5479218D01*
X4000000Y-5501715D02*
X4000000Y-5456721D01*
X4030476Y-5029218D02*
X3969524Y-5029218D01*
X4000000Y-5051715D02*
X4000000Y-5006721D01*
D14*
X5850000Y-5748000D02*
X5850000Y-5550000D01*
X5850000Y-5550000D02*
X5950000Y-5550000D01*
X5950000Y-5550000D02*
X5950000Y-5750000D01*
X5950000Y-5750000D02*
X5850000Y-5750000D01*
X5875000Y-5750000D02*
X5850000Y-5725000D01*
X6350000Y-5452000D02*
X6350000Y-5650000D01*
X6350000Y-5650000D02*
X6250000Y-5650000D01*
X6250000Y-5650000D02*
X6250000Y-5450000D01*
X6250000Y-5450000D02*
X6350000Y-5450000D01*
X6325000Y-5450000D02*
X6350000Y-5475000D01*
X5998000Y-4600000D02*
X5800000Y-4600000D01*
X5800000Y-4600000D02*
X5800000Y-4500000D01*
X5800000Y-4500000D02*
X6000000Y-4500000D01*
X6000000Y-4500000D02*
X6000000Y-4600000D01*
X6000000Y-4575000D02*
X5975000Y-4600000D01*
X5752000Y-5400000D02*
X5950000Y-5400000D01*
X5950000Y-5400000D02*
X5950000Y-5500000D01*
X5950000Y-5500000D02*
X5750000Y-5500000D01*
X5750000Y-5500000D02*
X5750000Y-5400000D01*
X5750000Y-5425000D02*
X5775000Y-5400000D01*
X7298000Y-5250000D02*
X7100000Y-5250000D01*
X7100000Y-5250000D02*
X7100000Y-5150000D01*
X7100000Y-5150000D02*
X7300000Y-5150000D01*
X7300000Y-5150000D02*
X7300000Y-5250000D01*
X7300000Y-5225000D02*
X7275000Y-5250000D01*
X6048000Y-4375000D02*
X5850000Y-4375000D01*
X5850000Y-4375000D02*
X5850000Y-4275000D01*
X5850000Y-4275000D02*
X6050000Y-4275000D01*
X6050000Y-4275000D02*
X6050000Y-4375000D01*
X6050000Y-4350000D02*
X6025000Y-4375000D01*
X6575000Y-4052000D02*
X6575000Y-4250000D01*
X6575000Y-4250000D02*
X6475000Y-4250000D01*
X6475000Y-4250000D02*
X6475000Y-4050000D01*
X6475000Y-4050000D02*
X6575000Y-4050000D01*
X6550000Y-4050000D02*
X6575000Y-4075000D01*
X6350000Y-4248000D02*
X6350000Y-4050000D01*
X6350000Y-4050000D02*
X6450000Y-4050000D01*
X6450000Y-4050000D02*
X6450000Y-4250000D01*
X6450000Y-4250000D02*
X6350000Y-4250000D01*
X6375000Y-4250000D02*
X6350000Y-4225000D01*
D15*
X4975000Y-4525000D02*
X5015000Y-4525000D01*
X4785000Y-4525000D02*
X4735000Y-4525000D01*
D16*
X4795000Y-4575000D02*
X4795000Y-4475000D01*
X4805000Y-4575000D02*
X4805000Y-4475000D01*
X4815000Y-4575000D02*
X4815000Y-4475000D01*
X4785000Y-4575000D02*
X4785000Y-4475000D01*
X4825000Y-4575000D02*
X4775000Y-4475000D01*
X4775000Y-4575000D02*
X4825000Y-4475000D01*
X4825000Y-4575000D02*
X4825000Y-4475000D01*
X4800000Y-4575000D02*
X4800000Y-4475000D01*
X4775000Y-4475000D02*
X4775000Y-4575000D01*
X4775000Y-4575000D02*
X4975000Y-4575000D01*
X4975000Y-4575000D02*
X4975000Y-4475000D01*
X4975000Y-4475000D02*
X4775000Y-4475000D01*
D17*
X4420000Y-4415000D02*
G75*
G03X4390000Y-4255000I-95000J65000D01*
G74*
G01*
X4390000Y-4255000D02*
X4260000Y-4255000D01*
X4260000Y-4255000D02*
G75*
G03X4420000Y-4285000I65000J-95000D01*
G74*
G01*
D16*
X7600000Y-5525000D02*
X7800000Y-5525000D01*
X7800000Y-5525000D02*
X7800000Y-5425000D01*
X7800000Y-5425000D02*
X7600000Y-5425000D01*
X7500000Y-5425000D02*
X7600000Y-5425000D01*
X7600000Y-5425000D02*
X7600000Y-5525000D01*
X7500000Y-5425000D02*
X7500000Y-5525000D01*
X7500000Y-5525000D02*
X7600000Y-5525000D01*
X4575000Y-4575000D02*
X4575000Y-4475000D01*
X4575000Y-4475000D02*
X4475000Y-4475000D01*
X4475000Y-4475000D02*
X4475000Y-4575000D01*
X4475000Y-4575000D02*
X4575000Y-4575000D01*
X4575000Y-4575000D02*
X4575000Y-4675000D01*
X4575000Y-4675000D02*
X4375000Y-4675000D01*
X4375000Y-4675000D02*
X4375000Y-4475000D01*
X4375000Y-4475000D02*
X4475000Y-4475000D01*
D11*
X4034646Y-5096850D02*
X4329921Y-5096850D01*
X4329921Y-5096850D02*
X4329921Y-4703150D01*
X4329921Y-4703150D02*
X4034646Y-4703150D01*
X4034646Y-4703150D02*
X4034646Y-5096850D01*
X4034646Y-5546850D02*
X4329921Y-5546850D01*
X4329921Y-5546850D02*
X4329921Y-5153150D01*
X4329921Y-5153150D02*
X4034646Y-5153150D01*
X4034646Y-5153150D02*
X4034646Y-5546850D01*
D17*
X7430000Y-4700000D02*
X7460000Y-4680000D01*
X7430000Y-4700000D02*
X7460000Y-4720000D01*
D16*
X7460000Y-4990000D02*
X7480000Y-4990000D01*
X7480000Y-4990000D02*
X7480000Y-4810000D01*
X7480000Y-4810000D02*
X7460000Y-4810000D01*
X7840000Y-4500000D02*
X7840000Y-5300000D01*
X7840000Y-5300000D02*
X7460000Y-5300000D01*
X7460000Y-5300000D02*
X7460000Y-4500000D01*
X7460000Y-4500000D02*
X7840000Y-4500000D01*
X5250000Y-4275000D02*
X5750000Y-4275000D01*
X5750000Y-4275000D02*
X5750000Y-4375000D01*
X5750000Y-4375000D02*
X5250000Y-4375000D01*
X5150000Y-4275000D02*
X5250000Y-4275000D01*
X5250000Y-4275000D02*
X5250000Y-4375000D01*
X5150000Y-4275000D02*
X5150000Y-4375000D01*
X5150000Y-4375000D02*
X5250000Y-4375000D01*
X4950000Y-5750000D02*
X5450000Y-5750000D01*
X5450000Y-5750000D02*
X5450000Y-5850000D01*
X5450000Y-5850000D02*
X4950000Y-5850000D01*
X4850000Y-5750000D02*
X4950000Y-5750000D01*
X4950000Y-5750000D02*
X4950000Y-5850000D01*
X4850000Y-5750000D02*
X4850000Y-5850000D01*
X4850000Y-5850000D02*
X4950000Y-5850000D01*
X5650000Y-5550000D02*
X5650000Y-5650000D01*
X5650000Y-5650000D02*
X5550000Y-5650000D01*
X5550000Y-5550000D02*
X5550000Y-5850000D01*
X5550000Y-5850000D02*
X5750000Y-5850000D01*
X5750000Y-5850000D02*
X5750000Y-5650000D01*
X5550000Y-5550000D02*
X5650000Y-5550000D01*
X5750000Y-5550000D02*
X5650000Y-5550000D01*
X5750000Y-5650000D02*
X5750000Y-5550000D01*
X5250000Y-4525000D02*
X5550000Y-4525000D01*
X5250000Y-4425000D02*
X5550000Y-4425000D01*
X5150000Y-4425000D02*
X5250000Y-4425000D01*
X5550000Y-4525000D02*
X5550000Y-4425000D01*
X5250000Y-4425000D02*
X5250000Y-4525000D01*
X5150000Y-4425000D02*
X5150000Y-4525000D01*
X5150000Y-4525000D02*
X5250000Y-4525000D01*
D17*
X6625000Y-5895000D02*
X6605000Y-5865000D01*
X6625000Y-5895000D02*
X6645000Y-5865000D01*
D16*
X6915000Y-5865000D02*
X6915000Y-5845000D01*
X6915000Y-5845000D02*
X6735000Y-5845000D01*
X6735000Y-5845000D02*
X6735000Y-5865000D01*
X6425000Y-5485000D02*
X7225000Y-5485000D01*
X7225000Y-5485000D02*
X7225000Y-5865000D01*
X7225000Y-5865000D02*
X6425000Y-5865000D01*
X6425000Y-5865000D02*
X6425000Y-5485000D01*
D17*
X6300000Y-4000000D02*
X4000000Y-4000000D01*
X6300000Y-4200000D02*
X4100000Y-4200000D01*
X6300000Y-4000000D02*
X6300000Y-4200000D01*
X4000000Y-4000000D02*
X4000000Y-4100000D01*
X4000000Y-4200000D02*
X4100000Y-4200000D01*
X4000000Y-4100000D02*
X4100000Y-4100000D01*
X4100000Y-4100000D02*
X4100000Y-4200000D01*
X4000000Y-4200000D02*
X4000000Y-4100000D01*
D15*
X4675000Y-5195000D02*
X4675000Y-5140000D01*
X4575000Y-5195000D02*
X4575000Y-5140000D01*
X4475000Y-5195000D02*
X4475000Y-5140000D01*
X4673995Y-5710000D02*
G75*
G03X4673995Y-5710000I-98995J0D01*
G74*
G01*
X4365000Y-5530000D02*
X4365000Y-5845000D01*
X4365000Y-5845000D02*
X4785000Y-5845000D01*
X4785000Y-5845000D02*
X4785000Y-5530000D01*
X4365000Y-5195000D02*
X4365000Y-5530000D01*
X4365000Y-5530000D02*
X4785000Y-5530000D01*
X4785000Y-5530000D02*
X4785000Y-5195000D01*
X4575000Y-5195000D02*
X4785000Y-5195000D01*
X4575000Y-5195000D02*
X4365000Y-5195000D01*
X7103100Y-5375000D02*
X7063100Y-5375000D01*
X7303100Y-5375000D02*
X7343100Y-5375000D01*
X7103100Y-5325000D02*
X7303100Y-5325000D01*
X7303100Y-5325000D02*
X7303100Y-5425000D01*
X7303100Y-5425000D02*
X7103100Y-5425000D01*
X7103100Y-5425000D02*
X7103100Y-5325000D01*
X4775000Y-4753100D02*
X4775000Y-4713100D01*
X4775000Y-4953100D02*
X4775000Y-4993100D01*
X4825000Y-4753100D02*
X4825000Y-4953100D01*
X4825000Y-4953100D02*
X4725000Y-4953100D01*
X4725000Y-4953100D02*
X4725000Y-4753100D01*
X4725000Y-4753100D02*
X4825000Y-4753100D01*
X4603100Y-4275000D02*
X4563100Y-4275000D01*
X4803100Y-4275000D02*
X4843100Y-4275000D01*
X4603100Y-4225000D02*
X4803100Y-4225000D01*
X4803100Y-4225000D02*
X4803100Y-4325000D01*
X4803100Y-4325000D02*
X4603100Y-4325000D01*
X4603100Y-4325000D02*
X4603100Y-4225000D01*
X4603100Y-4400000D02*
X4563100Y-4400000D01*
X4803100Y-4400000D02*
X4843100Y-4400000D01*
X4603100Y-4350000D02*
X4803100Y-4350000D01*
X4803100Y-4350000D02*
X4803100Y-4450000D01*
X4803100Y-4450000D02*
X4603100Y-4450000D01*
X4603100Y-4450000D02*
X4603100Y-4350000D01*
X7468900Y-5581900D02*
X7459100Y-5581900D01*
X7468900Y-5818100D02*
X7459100Y-5818100D01*
X7331100Y-5581900D02*
X7340900Y-5581900D01*
X7331100Y-5818100D02*
X7340900Y-5818100D01*
X7468900Y-5818100D02*
X7468900Y-5581900D01*
X7331100Y-5818100D02*
X7331100Y-5581900D01*
X6625000Y-4050000D02*
X7425000Y-4050000D01*
X7425000Y-4250000D02*
X6625000Y-4250000D01*
X6625000Y-4250000D02*
X6625000Y-4050000D01*
X6625000Y-4100000D02*
X6675000Y-4100000D01*
X6675000Y-4100000D02*
X6675000Y-4200000D01*
X6675000Y-4200000D02*
X6625000Y-4200000D01*
X7425000Y-4050000D02*
X7425000Y-4250000D01*
D16*
X7250000Y-4700000D02*
X7250000Y-4750000D01*
X7250000Y-4750000D02*
X7150000Y-4750000D01*
X7150000Y-4750000D02*
X7150000Y-4700000D01*
X7300000Y-4700000D02*
X7300000Y-5100000D01*
X7300000Y-5100000D02*
X7100000Y-5100000D01*
X7100000Y-5100000D02*
X7100000Y-4700000D01*
X7100000Y-4700000D02*
X7300000Y-4700000D01*
D15*
X4850000Y-4950000D02*
X4900000Y-4950000D01*
X4900000Y-4950000D02*
X4900000Y-5050000D01*
X4900000Y-5050000D02*
X4850000Y-5050000D01*
X4850000Y-4750000D02*
X6950000Y-4750000D01*
X6950000Y-4750000D02*
X6950000Y-5250000D01*
X6950000Y-5250000D02*
X4850000Y-5250000D01*
X4850000Y-5250000D02*
X4850000Y-4750000D01*
X6060600Y-5415000D02*
X6076400Y-5407100D01*
X6076400Y-5407100D02*
X6100000Y-5403100D01*
X6100000Y-5403100D02*
X6119700Y-5407100D01*
X6119700Y-5407100D02*
X6147200Y-5422800D01*
X6147200Y-5422800D02*
X6163000Y-5446500D01*
X6163000Y-5446500D02*
X6170900Y-5470100D01*
X6170900Y-5470100D02*
X6170900Y-5729900D01*
X6170900Y-5729900D02*
X6163000Y-5757500D01*
X6163000Y-5757500D02*
X6151200Y-5773200D01*
X6151200Y-5773200D02*
X6131500Y-5789000D01*
X6131500Y-5789000D02*
X6107900Y-5796900D01*
X6107900Y-5796900D02*
X6088200Y-5796900D01*
X6088200Y-5796900D02*
X6068500Y-5789000D01*
X6068500Y-5789000D02*
X6044900Y-5769300D01*
X6044900Y-5769300D02*
X6033100Y-5749600D01*
X6033100Y-5749600D02*
X6029100Y-5729900D01*
X6029100Y-5726000D02*
X6029100Y-5466100D01*
X6029100Y-5466100D02*
X6033100Y-5450400D01*
X6033100Y-5450400D02*
X6044900Y-5430700D01*
X6044900Y-5430700D02*
X6064600Y-5411000D01*
X6008300Y-5725600D02*
X6010200Y-5743700D01*
X6010200Y-5743700D02*
X6014600Y-5759400D01*
X6014600Y-5759400D02*
X6023200Y-5776400D01*
X6023200Y-5776400D02*
X6032300Y-5787800D01*
X6032300Y-5787800D02*
X6046100Y-5800800D01*
X6046100Y-5800800D02*
X6067300Y-5812200D01*
X6067300Y-5812200D02*
X6090900Y-5817300D01*
X6090900Y-5817300D02*
X6111000Y-5817300D01*
X6111000Y-5817300D02*
X6138600Y-5810600D01*
X6138600Y-5810600D02*
X6161800Y-5794900D01*
X6161800Y-5794900D02*
X6176400Y-5776800D01*
X6176400Y-5776800D02*
X6184600Y-5760200D01*
X6184600Y-5760200D02*
X6190900Y-5742500D01*
X6190900Y-5742500D02*
X6192100Y-5725200D01*
X6183500Y-5436200D02*
X6174800Y-5421300D01*
X6174800Y-5421300D02*
X6163800Y-5408700D01*
X6163800Y-5408700D02*
X6150800Y-5398800D01*
X6150800Y-5398800D02*
X6129100Y-5387000D01*
X6129100Y-5387000D02*
X6110600Y-5382700D01*
X6110600Y-5382700D02*
X6092500Y-5381900D01*
X6092500Y-5381900D02*
X6074400Y-5385400D01*
X6074400Y-5385400D02*
X6056700Y-5392900D01*
X6056700Y-5392900D02*
X6038200Y-5407100D01*
X6038200Y-5407100D02*
X6025600Y-5420900D01*
X6025600Y-5420900D02*
X6016500Y-5436200D01*
X6016500Y-5436200D02*
X6011000Y-5453100D01*
X6011000Y-5453100D02*
X6008300Y-5470500D01*
X6191700Y-5726000D02*
X6191700Y-5472000D01*
X6191700Y-5472000D02*
X6190200Y-5455500D01*
X6190200Y-5455500D02*
X6183500Y-5436200D01*
X6008300Y-5726000D02*
X6008300Y-5472000D01*
D17*
X6775000Y-4375000D02*
X7175000Y-4375000D01*
X7175000Y-4375000D02*
X7175000Y-4475000D01*
X7175000Y-4475000D02*
X6775000Y-4475000D01*
X6675000Y-4375000D02*
X6775000Y-4375000D01*
X6775000Y-4375000D02*
X6775000Y-4475000D01*
X6675000Y-4375000D02*
X6675000Y-4475000D01*
X6675000Y-4475000D02*
X6775000Y-4475000D01*
D15*
X5471900Y-4600000D02*
X5511900Y-4600000D01*
X5271900Y-4600000D02*
X5231900Y-4600000D01*
X5471900Y-4650000D02*
X5271900Y-4650000D01*
X5271900Y-4650000D02*
X5271900Y-4550000D01*
X5271900Y-4550000D02*
X5471900Y-4550000D01*
X5471900Y-4550000D02*
X5471900Y-4650000D01*
X6253100Y-4325000D02*
X6213100Y-4325000D01*
X6453100Y-4325000D02*
X6493100Y-4325000D01*
X6253100Y-4275000D02*
X6453100Y-4275000D01*
X6453100Y-4275000D02*
X6453100Y-4375000D01*
X6453100Y-4375000D02*
X6253100Y-4375000D01*
X6253100Y-4375000D02*
X6253100Y-4275000D01*
D17*
X6775000Y-4525000D02*
X7175000Y-4525000D01*
X7175000Y-4525000D02*
X7175000Y-4625000D01*
X7175000Y-4625000D02*
X6775000Y-4625000D01*
X6675000Y-4525000D02*
X6775000Y-4525000D01*
X6775000Y-4525000D02*
X6775000Y-4625000D01*
X6675000Y-4525000D02*
X6675000Y-4625000D01*
X6675000Y-4625000D02*
X6775000Y-4625000D01*
X4400000Y-4875000D02*
X4400000Y-4925000D01*
X4400000Y-4925000D02*
X4700000Y-4925000D01*
X4700000Y-4925000D02*
X4700000Y-4875000D01*
X4525000Y-4775000D02*
X4525000Y-4750000D01*
X4525000Y-4750000D02*
X4675000Y-4750000D01*
X4675000Y-4750000D02*
X4675000Y-4775000D01*
X4425000Y-4775000D02*
X4425000Y-4750000D01*
X4425000Y-4750000D02*
X4475000Y-4750000D01*
X4475000Y-4750000D02*
X4475000Y-4775000D01*
D16*
X4500000Y-4875000D02*
X4700000Y-4875000D01*
X4700000Y-4875000D02*
X4700000Y-4775000D01*
X4700000Y-4775000D02*
X4500000Y-4775000D01*
X4400000Y-4775000D02*
X4500000Y-4775000D01*
X4500000Y-4775000D02*
X4500000Y-4875000D01*
X4400000Y-4775000D02*
X4400000Y-4875000D01*
X4400000Y-4875000D02*
X4500000Y-4875000D01*
D11*
X5893333Y-5814286D02*
X5891429Y-5816190D01*
X5885714Y-5818095D01*
X5881905Y-5818095D01*
X5876191Y-5816190D01*
X5872381Y-5812381D01*
X5870476Y-5808571D01*
X5868571Y-5800952D01*
X5868571Y-5795238D01*
X5870476Y-5787619D01*
X5872381Y-5783810D01*
X5876191Y-5780000D01*
X5881905Y-5778095D01*
X5885714Y-5778095D01*
X5891429Y-5780000D01*
X5893333Y-5781905D01*
X5931429Y-5818095D02*
X5908571Y-5818095D01*
X5920000Y-5818095D02*
X5920000Y-5778095D01*
X5916191Y-5783810D01*
X5912381Y-5787619D01*
X5908571Y-5789524D01*
X6293333Y-5714286D02*
X6291429Y-5716190D01*
X6285714Y-5718095D01*
X6281905Y-5718095D01*
X6276191Y-5716190D01*
X6272381Y-5712381D01*
X6270476Y-5708571D01*
X6268571Y-5700952D01*
X6268571Y-5695238D01*
X6270476Y-5687619D01*
X6272381Y-5683810D01*
X6276191Y-5680000D01*
X6281905Y-5678095D01*
X6285714Y-5678095D01*
X6291429Y-5680000D01*
X6293333Y-5681905D01*
X6308571Y-5681905D02*
X6310476Y-5680000D01*
X6314286Y-5678095D01*
X6323810Y-5678095D01*
X6327619Y-5680000D01*
X6329524Y-5681905D01*
X6331429Y-5685714D01*
X6331429Y-5689524D01*
X6329524Y-5695238D01*
X6306667Y-5718095D01*
X6331429Y-5718095D01*
X6038333Y-4559286D02*
X6036429Y-4561190D01*
X6030714Y-4563095D01*
X6026905Y-4563095D01*
X6021191Y-4561190D01*
X6017381Y-4557381D01*
X6015476Y-4553571D01*
X6013571Y-4545952D01*
X6013571Y-4540238D01*
X6015476Y-4532619D01*
X6017381Y-4528810D01*
X6021191Y-4525000D01*
X6026905Y-4523095D01*
X6030714Y-4523095D01*
X6036429Y-4525000D01*
X6038333Y-4526905D01*
X6051667Y-4523095D02*
X6076429Y-4523095D01*
X6063095Y-4538333D01*
X6068810Y-4538333D01*
X6072619Y-4540238D01*
X6074524Y-4542143D01*
X6076429Y-4545952D01*
X6076429Y-4555476D01*
X6074524Y-4559286D01*
X6072619Y-4561190D01*
X6068810Y-4563095D01*
X6057381Y-4563095D01*
X6053571Y-4561190D01*
X6051667Y-4559286D01*
X5693333Y-5459286D02*
X5691429Y-5461190D01*
X5685714Y-5463095D01*
X5681905Y-5463095D01*
X5676191Y-5461190D01*
X5672381Y-5457381D01*
X5670476Y-5453571D01*
X5668571Y-5445952D01*
X5668571Y-5440238D01*
X5670476Y-5432619D01*
X5672381Y-5428810D01*
X5676191Y-5425000D01*
X5681905Y-5423095D01*
X5685714Y-5423095D01*
X5691429Y-5425000D01*
X5693333Y-5426905D01*
X5727619Y-5436429D02*
X5727619Y-5463095D01*
X5718095Y-5421190D02*
X5708571Y-5449762D01*
X5733333Y-5449762D01*
X7043333Y-5214286D02*
X7041429Y-5216190D01*
X7035714Y-5218095D01*
X7031905Y-5218095D01*
X7026191Y-5216190D01*
X7022381Y-5212381D01*
X7020476Y-5208571D01*
X7018571Y-5200952D01*
X7018571Y-5195238D01*
X7020476Y-5187619D01*
X7022381Y-5183810D01*
X7026191Y-5180000D01*
X7031905Y-5178095D01*
X7035714Y-5178095D01*
X7041429Y-5180000D01*
X7043333Y-5181905D01*
X7079524Y-5178095D02*
X7060476Y-5178095D01*
X7058571Y-5197143D01*
X7060476Y-5195238D01*
X7064286Y-5193333D01*
X7073810Y-5193333D01*
X7077619Y-5195238D01*
X7079524Y-5197143D01*
X7081429Y-5200952D01*
X7081429Y-5210476D01*
X7079524Y-5214286D01*
X7077619Y-5216190D01*
X7073810Y-5218095D01*
X7064286Y-5218095D01*
X7060476Y-5216190D01*
X7058571Y-5214286D01*
X5943333Y-4430624D02*
X5941429Y-4432529D01*
X5935714Y-4434434D01*
X5931905Y-4434434D01*
X5926191Y-4432529D01*
X5922381Y-4428720D01*
X5920476Y-4424910D01*
X5918571Y-4417291D01*
X5918571Y-4411577D01*
X5920476Y-4403958D01*
X5922381Y-4400148D01*
X5926191Y-4396339D01*
X5931905Y-4394434D01*
X5935714Y-4394434D01*
X5941429Y-4396339D01*
X5943333Y-4398243D01*
X5977619Y-4394434D02*
X5970000Y-4394434D01*
X5966191Y-4396339D01*
X5964286Y-4398243D01*
X5960476Y-4403958D01*
X5958571Y-4411577D01*
X5958571Y-4426815D01*
X5960476Y-4430624D01*
X5962381Y-4432529D01*
X5966191Y-4434434D01*
X5973810Y-4434434D01*
X5977619Y-4432529D01*
X5979524Y-4430624D01*
X5981429Y-4426815D01*
X5981429Y-4417291D01*
X5979524Y-4413481D01*
X5977619Y-4411577D01*
X5973810Y-4409672D01*
X5966191Y-4409672D01*
X5962381Y-4411577D01*
X5960476Y-4413481D01*
X5958571Y-4417291D01*
X6518333Y-4014286D02*
X6516429Y-4016190D01*
X6510714Y-4018095D01*
X6506905Y-4018095D01*
X6501191Y-4016190D01*
X6497381Y-4012381D01*
X6495476Y-4008571D01*
X6493571Y-4000952D01*
X6493571Y-3995238D01*
X6495476Y-3987619D01*
X6497381Y-3983810D01*
X6501191Y-3980000D01*
X6506905Y-3978095D01*
X6510714Y-3978095D01*
X6516429Y-3980000D01*
X6518333Y-3981905D01*
X6531667Y-3978095D02*
X6558333Y-3978095D01*
X6541191Y-4018095D01*
X6393333Y-4014286D02*
X6391429Y-4016190D01*
X6385714Y-4018095D01*
X6381905Y-4018095D01*
X6376191Y-4016190D01*
X6372381Y-4012381D01*
X6370476Y-4008571D01*
X6368571Y-4000952D01*
X6368571Y-3995238D01*
X6370476Y-3987619D01*
X6372381Y-3983810D01*
X6376191Y-3980000D01*
X6381905Y-3978095D01*
X6385714Y-3978095D01*
X6391429Y-3980000D01*
X6393333Y-3981905D01*
X6416191Y-3995238D02*
X6412381Y-3993333D01*
X6410476Y-3991429D01*
X6408571Y-3987619D01*
X6408571Y-3985714D01*
X6410476Y-3981905D01*
X6412381Y-3980000D01*
X6416191Y-3978095D01*
X6423810Y-3978095D01*
X6427619Y-3980000D01*
X6429524Y-3981905D01*
X6431429Y-3985714D01*
X6431429Y-3987619D01*
X6429524Y-3991429D01*
X6427619Y-3993333D01*
X6423810Y-3995238D01*
X6416191Y-3995238D01*
X6412381Y-3997143D01*
X6410476Y-3999048D01*
X6408571Y-4002857D01*
X6408571Y-4010476D01*
X6410476Y-4014286D01*
X6412381Y-4016190D01*
X6416191Y-4018095D01*
X6423810Y-4018095D01*
X6427619Y-4016190D01*
X6429524Y-4014286D01*
X6431429Y-4010476D01*
X6431429Y-4002857D01*
X6429524Y-3999048D01*
X6427619Y-3997143D01*
X6423810Y-3995238D01*
X4910476Y-4633095D02*
X4910476Y-4593095D01*
X4920000Y-4593095D01*
X4925714Y-4595000D01*
X4929524Y-4598810D01*
X4931429Y-4602619D01*
X4933333Y-4610238D01*
X4933333Y-4615952D01*
X4931429Y-4623571D01*
X4929524Y-4627381D01*
X4925714Y-4631190D01*
X4920000Y-4633095D01*
X4910476Y-4633095D01*
X4971429Y-4633095D02*
X4948571Y-4633095D01*
X4960000Y-4633095D02*
X4960000Y-4593095D01*
X4956191Y-4598810D01*
X4952381Y-4602619D01*
X4948571Y-4604524D01*
X4724762Y-4582857D02*
X4755238Y-4582857D01*
X4999762Y-4567857D02*
X5030238Y-4567857D01*
X5015000Y-4583095D02*
X5015000Y-4552619D01*
X4130476Y-4363095D02*
X4130476Y-4323095D01*
X4140000Y-4323095D01*
X4145714Y-4325000D01*
X4149524Y-4328810D01*
X4151429Y-4332619D01*
X4153333Y-4340238D01*
X4153333Y-4345952D01*
X4151429Y-4353571D01*
X4149524Y-4357381D01*
X4145714Y-4361190D01*
X4140000Y-4363095D01*
X4130476Y-4363095D01*
X4168571Y-4326905D02*
X4170476Y-4325000D01*
X4174286Y-4323095D01*
X4183810Y-4323095D01*
X4187619Y-4325000D01*
X4189524Y-4326905D01*
X4191429Y-4330714D01*
X4191429Y-4334524D01*
X4189524Y-4340238D01*
X4166667Y-4363095D01*
X4191429Y-4363095D01*
X4309762Y-4227857D02*
X4340238Y-4227857D01*
X4309762Y-4502857D02*
X4340238Y-4502857D01*
X4325000Y-4518095D02*
X4325000Y-4487619D01*
X4112634Y-4531678D02*
X4112634Y-4491678D01*
X4112634Y-4510726D02*
X4135491Y-4510726D01*
X4135491Y-4531678D02*
X4135491Y-4491678D01*
X4175491Y-4531678D02*
X4152634Y-4531678D01*
X4164063Y-4531678D02*
X4164063Y-4491678D01*
X4160253Y-4497393D01*
X4156444Y-4501202D01*
X4152634Y-4503107D01*
X7655941Y-4137978D02*
X7655941Y-4097978D01*
X7655941Y-4117025D02*
X7678798Y-4117025D01*
X7678798Y-4137978D02*
X7678798Y-4097978D01*
X7695941Y-4101787D02*
X7697846Y-4099882D01*
X7701655Y-4097978D01*
X7711179Y-4097978D01*
X7714989Y-4099882D01*
X7716894Y-4101787D01*
X7718798Y-4105597D01*
X7718798Y-4109406D01*
X7716894Y-4115120D01*
X7694036Y-4137978D01*
X7718798Y-4137978D01*
X4112634Y-5712781D02*
X4112634Y-5672781D01*
X4112634Y-5691828D02*
X4135491Y-5691828D01*
X4135491Y-5712781D02*
X4135491Y-5672781D01*
X4150729Y-5672781D02*
X4175491Y-5672781D01*
X4162158Y-5688019D01*
X4167872Y-5688019D01*
X4171682Y-5689924D01*
X4173586Y-5691828D01*
X4175491Y-5695638D01*
X4175491Y-5705162D01*
X4173586Y-5708971D01*
X4171682Y-5710876D01*
X4167872Y-5712781D01*
X4156444Y-5712781D01*
X4152634Y-5710876D01*
X4150729Y-5708971D01*
X7655941Y-5712781D02*
X7655941Y-5672781D01*
X7655941Y-5691828D02*
X7678798Y-5691828D01*
X7678798Y-5712781D02*
X7678798Y-5672781D01*
X7714989Y-5686114D02*
X7714989Y-5712781D01*
X7705465Y-5670876D02*
X7695941Y-5699447D01*
X7720703Y-5699447D01*
X7536667Y-5553095D02*
X7536667Y-5581667D01*
X7534762Y-5587381D01*
X7530952Y-5591190D01*
X7525238Y-5593095D01*
X7521429Y-5593095D01*
X7576667Y-5593095D02*
X7553810Y-5593095D01*
X7565238Y-5593095D02*
X7565238Y-5553095D01*
X7561429Y-5558810D01*
X7557619Y-5562619D01*
X7553810Y-5564524D01*
X4311667Y-4628095D02*
X4311667Y-4656667D01*
X4309762Y-4662381D01*
X4305952Y-4666190D01*
X4300238Y-4668095D01*
X4296429Y-4668095D01*
X4328810Y-4631905D02*
X4330714Y-4630000D01*
X4334524Y-4628095D01*
X4344048Y-4628095D01*
X4347857Y-4630000D01*
X4349762Y-4631905D01*
X4351667Y-4635714D01*
X4351667Y-4639524D01*
X4349762Y-4645238D01*
X4326905Y-4668095D01*
X4351667Y-4668095D01*
X4344524Y-5068095D02*
X4344524Y-5028095D01*
X4367381Y-5068095D01*
X4367381Y-5028095D01*
X4407381Y-5068095D02*
X4384524Y-5068095D01*
X4395952Y-5068095D02*
X4395952Y-5028095D01*
X4392143Y-5033810D01*
X4388333Y-5037619D01*
X4384524Y-5039524D01*
X4269524Y-5618095D02*
X4269524Y-5578095D01*
X4292381Y-5618095D01*
X4292381Y-5578095D01*
X4309524Y-5581905D02*
X4311429Y-5580000D01*
X4315238Y-5578095D01*
X4324762Y-5578095D01*
X4328571Y-5580000D01*
X4330476Y-5581905D01*
X4332381Y-5585714D01*
X4332381Y-5589524D01*
X4330476Y-5595238D01*
X4307619Y-5618095D01*
X4332381Y-5618095D01*
X7614524Y-4463095D02*
X7614524Y-4423095D01*
X7637381Y-4463095D01*
X7637381Y-4423095D01*
X7652619Y-4423095D02*
X7677381Y-4423095D01*
X7664048Y-4438333D01*
X7669762Y-4438333D01*
X7673571Y-4440238D01*
X7675476Y-4442143D01*
X7677381Y-4445952D01*
X7677381Y-4455476D01*
X7675476Y-4459286D01*
X7673571Y-4461190D01*
X7669762Y-4463095D01*
X7658333Y-4463095D01*
X7654524Y-4461190D01*
X7652619Y-4459286D01*
X5069524Y-4348095D02*
X5069524Y-4308095D01*
X5092381Y-4348095D01*
X5092381Y-4308095D01*
X5128571Y-4321429D02*
X5128571Y-4348095D01*
X5119048Y-4306190D02*
X5109524Y-4334762D01*
X5134286Y-4334762D01*
X5034524Y-5718095D02*
X5034524Y-5678095D01*
X5057381Y-5718095D01*
X5057381Y-5678095D01*
X5095476Y-5678095D02*
X5076429Y-5678095D01*
X5074524Y-5697143D01*
X5076429Y-5695238D01*
X5080238Y-5693333D01*
X5089762Y-5693333D01*
X5093571Y-5695238D01*
X5095476Y-5697143D01*
X5097381Y-5700952D01*
X5097381Y-5710476D01*
X5095476Y-5714286D01*
X5093571Y-5716190D01*
X5089762Y-5718095D01*
X5080238Y-5718095D01*
X5076429Y-5716190D01*
X5074524Y-5714286D01*
X5769524Y-5843095D02*
X5769524Y-5803095D01*
X5792381Y-5843095D01*
X5792381Y-5803095D01*
X5807619Y-5803095D02*
X5834286Y-5803095D01*
X5817143Y-5843095D01*
X5579524Y-4528095D02*
X5579524Y-4488095D01*
X5602381Y-4528095D01*
X5602381Y-4488095D01*
X5627143Y-4505238D02*
X5623333Y-4503333D01*
X5621429Y-4501429D01*
X5619524Y-4497619D01*
X5619524Y-4495714D01*
X5621429Y-4491905D01*
X5623333Y-4490000D01*
X5627143Y-4488095D01*
X5634762Y-4488095D01*
X5638571Y-4490000D01*
X5640476Y-4491905D01*
X5642381Y-4495714D01*
X5642381Y-4497619D01*
X5640476Y-4501429D01*
X5638571Y-4503333D01*
X5634762Y-4505238D01*
X5627143Y-4505238D01*
X5623333Y-4507143D01*
X5621429Y-4509048D01*
X5619524Y-4512857D01*
X5619524Y-4520476D01*
X5621429Y-4524286D01*
X5623333Y-4526190D01*
X5627143Y-4528095D01*
X5634762Y-4528095D01*
X5638571Y-4526190D01*
X5640476Y-4524286D01*
X5642381Y-4520476D01*
X5642381Y-4512857D01*
X5640476Y-4509048D01*
X5638571Y-4507143D01*
X5634762Y-4505238D01*
X6419524Y-5453095D02*
X6419524Y-5413095D01*
X6442381Y-5453095D01*
X6442381Y-5413095D01*
X6463333Y-5453095D02*
X6470952Y-5453095D01*
X6474762Y-5451190D01*
X6476667Y-5449286D01*
X6480476Y-5443571D01*
X6482381Y-5435952D01*
X6482381Y-5420714D01*
X6480476Y-5416905D01*
X6478571Y-5415000D01*
X6474762Y-5413095D01*
X6467143Y-5413095D01*
X6463333Y-5415000D01*
X6461429Y-5416905D01*
X6459524Y-5420714D01*
X6459524Y-5430238D01*
X6461429Y-5434048D01*
X6463333Y-5435952D01*
X6467143Y-5437857D01*
X6474762Y-5437857D01*
X6478571Y-5435952D01*
X6480476Y-5434048D01*
X6482381Y-5430238D01*
X4090476Y-4258095D02*
X4090476Y-4218095D01*
X4113333Y-4258095D01*
X4113333Y-4218095D01*
X4153333Y-4258095D02*
X4130476Y-4258095D01*
X4141905Y-4258095D02*
X4141905Y-4218095D01*
X4138095Y-4223810D01*
X4134286Y-4227619D01*
X4130476Y-4229524D01*
X4178095Y-4218095D02*
X4181905Y-4218095D01*
X4185714Y-4220000D01*
X4187619Y-4221905D01*
X4189524Y-4225714D01*
X4191429Y-4233333D01*
X4191429Y-4242857D01*
X4189524Y-4250476D01*
X4187619Y-4254286D01*
X4185714Y-4256190D01*
X4181905Y-4258095D01*
X4178095Y-4258095D01*
X4174286Y-4256190D01*
X4172381Y-4254286D01*
X4170476Y-4250476D01*
X4168571Y-4242857D01*
X4168571Y-4233333D01*
X4170476Y-4225714D01*
X4172381Y-4221905D01*
X4174286Y-4220000D01*
X4178095Y-4218095D01*
X4296190Y-5846905D02*
X4292381Y-5845000D01*
X4288571Y-5841190D01*
X4282857Y-5835476D01*
X4279048Y-5833571D01*
X4275238Y-5833571D01*
X4277143Y-5843095D02*
X4273333Y-5841190D01*
X4269524Y-5837381D01*
X4267619Y-5829762D01*
X4267619Y-5816429D01*
X4269524Y-5808810D01*
X4273333Y-5805000D01*
X4277143Y-5803095D01*
X4284762Y-5803095D01*
X4288571Y-5805000D01*
X4292381Y-5808810D01*
X4294286Y-5816429D01*
X4294286Y-5829762D01*
X4292381Y-5837381D01*
X4288571Y-5841190D01*
X4284762Y-5843095D01*
X4277143Y-5843095D01*
X4332381Y-5843095D02*
X4309524Y-5843095D01*
X4320952Y-5843095D02*
X4320952Y-5803095D01*
X4317143Y-5808810D01*
X4313333Y-5812619D01*
X4309524Y-5814524D01*
D18*
X4685319Y-5230300D02*
X4681567Y-5228424D01*
X4675938Y-5228424D01*
X4670310Y-5230300D01*
X4666557Y-5234052D01*
X4664681Y-5237805D01*
X4662805Y-5245310D01*
X4662805Y-5250938D01*
X4664681Y-5258443D01*
X4666557Y-5262195D01*
X4670310Y-5265948D01*
X4675938Y-5267824D01*
X4679690Y-5267824D01*
X4685319Y-5265948D01*
X4687195Y-5264071D01*
X4687195Y-5250938D01*
X4679690Y-5250938D01*
D19*
D18*
X4463743Y-5265948D02*
X4469371Y-5267824D01*
X4478752Y-5267824D01*
X4482505Y-5265948D01*
X4484381Y-5264071D01*
X4486257Y-5260319D01*
X4486257Y-5256567D01*
X4484381Y-5252814D01*
X4482505Y-5250938D01*
X4478752Y-5249062D01*
X4471248Y-5247186D01*
X4467495Y-5245310D01*
X4465619Y-5243433D01*
X4463743Y-5239681D01*
X4463743Y-5235929D01*
X4465619Y-5232176D01*
X4467495Y-5230300D01*
X4471248Y-5228424D01*
X4480629Y-5228424D01*
X4486257Y-5230300D01*
D19*
D18*
X4564681Y-5267824D02*
X4564681Y-5228424D01*
X4574062Y-5228424D01*
X4579690Y-5230300D01*
X4583443Y-5234052D01*
X4585319Y-5237805D01*
X4587195Y-5245310D01*
X4587195Y-5250938D01*
X4585319Y-5258443D01*
X4583443Y-5262195D01*
X4579690Y-5265948D01*
X4574062Y-5267824D01*
X4564681Y-5267824D01*
D19*
D11*
X6898333Y-5403095D02*
X6885000Y-5384048D01*
X6875476Y-5403095D02*
X6875476Y-5363095D01*
X6890714Y-5363095D01*
X6894524Y-5365000D01*
X6896429Y-5366905D01*
X6898333Y-5370714D01*
X6898333Y-5376429D01*
X6896429Y-5380238D01*
X6894524Y-5382143D01*
X6890714Y-5384048D01*
X6875476Y-5384048D01*
X6911667Y-5363095D02*
X6936429Y-5363095D01*
X6923095Y-5378333D01*
X6928810Y-5378333D01*
X6932619Y-5380238D01*
X6934524Y-5382143D01*
X6936429Y-5385952D01*
X6936429Y-5395476D01*
X6934524Y-5399286D01*
X6932619Y-5401190D01*
X6928810Y-5403095D01*
X6917381Y-5403095D01*
X6913571Y-5401190D01*
X6911667Y-5399286D01*
X4768333Y-5143095D02*
X4755000Y-5124048D01*
X4745476Y-5143095D02*
X4745476Y-5103095D01*
X4760714Y-5103095D01*
X4764524Y-5105000D01*
X4766429Y-5106905D01*
X4768333Y-5110714D01*
X4768333Y-5116429D01*
X4766429Y-5120238D01*
X4764524Y-5122143D01*
X4760714Y-5124048D01*
X4745476Y-5124048D01*
X4802619Y-5116429D02*
X4802619Y-5143095D01*
X4793095Y-5101190D02*
X4783571Y-5129762D01*
X4808333Y-5129762D01*
X4988333Y-4298095D02*
X4975000Y-4279048D01*
X4965476Y-4298095D02*
X4965476Y-4258095D01*
X4980714Y-4258095D01*
X4984524Y-4260000D01*
X4986429Y-4261905D01*
X4988333Y-4265714D01*
X4988333Y-4271429D01*
X4986429Y-4275238D01*
X4984524Y-4277143D01*
X4980714Y-4279048D01*
X4965476Y-4279048D01*
X5024524Y-4258095D02*
X5005476Y-4258095D01*
X5003571Y-4277143D01*
X5005476Y-4275238D01*
X5009286Y-4273333D01*
X5018810Y-4273333D01*
X5022619Y-4275238D01*
X5024524Y-4277143D01*
X5026429Y-4280952D01*
X5026429Y-4290476D01*
X5024524Y-4294286D01*
X5022619Y-4296190D01*
X5018810Y-4298095D01*
X5009286Y-4298095D01*
X5005476Y-4296190D01*
X5003571Y-4294286D01*
X4988333Y-4423095D02*
X4975000Y-4404048D01*
X4965476Y-4423095D02*
X4965476Y-4383095D01*
X4980714Y-4383095D01*
X4984524Y-4385000D01*
X4986429Y-4386905D01*
X4988333Y-4390714D01*
X4988333Y-4396429D01*
X4986429Y-4400238D01*
X4984524Y-4402143D01*
X4980714Y-4404048D01*
X4965476Y-4404048D01*
X5022619Y-4383095D02*
X5015000Y-4383095D01*
X5011191Y-4385000D01*
X5009286Y-4386905D01*
X5005476Y-4392619D01*
X5003571Y-4400238D01*
X5003571Y-4415476D01*
X5005476Y-4419286D01*
X5007381Y-4421190D01*
X5011191Y-4423095D01*
X5018810Y-4423095D01*
X5022619Y-4421190D01*
X5024524Y-4419286D01*
X5026429Y-4415476D01*
X5026429Y-4405952D01*
X5024524Y-4402143D01*
X5022619Y-4400238D01*
X5018810Y-4398333D01*
X5011191Y-4398333D01*
X5007381Y-4400238D01*
X5005476Y-4402143D01*
X5003571Y-4405952D01*
X7481667Y-5866190D02*
X7487381Y-5868095D01*
X7496905Y-5868095D01*
X7500714Y-5866190D01*
X7502619Y-5864286D01*
X7504524Y-5860476D01*
X7504524Y-5856667D01*
X7502619Y-5852857D01*
X7500714Y-5850952D01*
X7496905Y-5849048D01*
X7489286Y-5847143D01*
X7485476Y-5845238D01*
X7483571Y-5843333D01*
X7481667Y-5839524D01*
X7481667Y-5835714D01*
X7483571Y-5831905D01*
X7485476Y-5830000D01*
X7489286Y-5828095D01*
X7498810Y-5828095D01*
X7504524Y-5830000D01*
X7517857Y-5828095D02*
X7527381Y-5868095D01*
X7535000Y-5839524D01*
X7542619Y-5868095D01*
X7552143Y-5828095D01*
X7588333Y-5868095D02*
X7565476Y-5868095D01*
X7576905Y-5868095D02*
X7576905Y-5828095D01*
X7573095Y-5833810D01*
X7569286Y-5837619D01*
X7565476Y-5839524D01*
X7444524Y-4128095D02*
X7444524Y-4160476D01*
X7446429Y-4164286D01*
X7448333Y-4166190D01*
X7452143Y-4168095D01*
X7459762Y-4168095D01*
X7463571Y-4166190D01*
X7465476Y-4164286D01*
X7467381Y-4160476D01*
X7467381Y-4128095D01*
X7507381Y-4168095D02*
X7484524Y-4168095D01*
X7495952Y-4168095D02*
X7495952Y-4128095D01*
X7492143Y-4133810D01*
X7488333Y-4137619D01*
X7484524Y-4139524D01*
X7259524Y-4628095D02*
X7259524Y-4660476D01*
X7261429Y-4664286D01*
X7263333Y-4666190D01*
X7267143Y-4668095D01*
X7274762Y-4668095D01*
X7278571Y-4666190D01*
X7280476Y-4664286D01*
X7282381Y-4660476D01*
X7282381Y-4628095D01*
X7299524Y-4631905D02*
X7301429Y-4630000D01*
X7305238Y-4628095D01*
X7314762Y-4628095D01*
X7318571Y-4630000D01*
X7320476Y-4631905D01*
X7322381Y-4635714D01*
X7322381Y-4639524D01*
X7320476Y-4645238D01*
X7297619Y-4668095D01*
X7322381Y-4668095D01*
X6334524Y-4593095D02*
X6334524Y-4625476D01*
X6336429Y-4629286D01*
X6338333Y-4631190D01*
X6342143Y-4633095D01*
X6349762Y-4633095D01*
X6353571Y-4631190D01*
X6355476Y-4629286D01*
X6357381Y-4625476D01*
X6357381Y-4593095D01*
X6372619Y-4593095D02*
X6397381Y-4593095D01*
X6384048Y-4608333D01*
X6389762Y-4608333D01*
X6393571Y-4610238D01*
X6395476Y-4612143D01*
X6397381Y-4615952D01*
X6397381Y-4625476D01*
X6395476Y-4629286D01*
X6393571Y-4631190D01*
X6389762Y-4633095D01*
X6378333Y-4633095D01*
X6374524Y-4631190D01*
X6372619Y-4629286D01*
X6192619Y-5803095D02*
X6219286Y-5843095D01*
X6219286Y-5803095D02*
X6192619Y-5843095D01*
X6255476Y-5843095D02*
X6232619Y-5843095D01*
X6244048Y-5843095D02*
X6244048Y-5803095D01*
X6240238Y-5808810D01*
X6236429Y-5812619D01*
X6232619Y-5814524D01*
X7218333Y-4443095D02*
X7205000Y-4424048D01*
X7195476Y-4443095D02*
X7195476Y-4403095D01*
X7210714Y-4403095D01*
X7214524Y-4405000D01*
X7216429Y-4406905D01*
X7218333Y-4410714D01*
X7218333Y-4416429D01*
X7216429Y-4420238D01*
X7214524Y-4422143D01*
X7210714Y-4424048D01*
X7195476Y-4424048D01*
X7256429Y-4443095D02*
X7233571Y-4443095D01*
X7245000Y-4443095D02*
X7245000Y-4403095D01*
X7241191Y-4408810D01*
X7237381Y-4412619D01*
X7233571Y-4414524D01*
X5068333Y-4643095D02*
X5055000Y-4624048D01*
X5045476Y-4643095D02*
X5045476Y-4603095D01*
X5060714Y-4603095D01*
X5064524Y-4605000D01*
X5066429Y-4606905D01*
X5068333Y-4610714D01*
X5068333Y-4616429D01*
X5066429Y-4620238D01*
X5064524Y-4622143D01*
X5060714Y-4624048D01*
X5045476Y-4624048D01*
X5083571Y-4606905D02*
X5085476Y-4605000D01*
X5089286Y-4603095D01*
X5098810Y-4603095D01*
X5102619Y-4605000D01*
X5104524Y-4606905D01*
X5106429Y-4610714D01*
X5106429Y-4614524D01*
X5104524Y-4620238D01*
X5081667Y-4643095D01*
X5106429Y-4643095D01*
X6343333Y-4443095D02*
X6330000Y-4424048D01*
X6320476Y-4443095D02*
X6320476Y-4403095D01*
X6335714Y-4403095D01*
X6339524Y-4405000D01*
X6341429Y-4406905D01*
X6343333Y-4410714D01*
X6343333Y-4416429D01*
X6341429Y-4420238D01*
X6339524Y-4422143D01*
X6335714Y-4424048D01*
X6320476Y-4424048D01*
X6356667Y-4403095D02*
X6383333Y-4403095D01*
X6366191Y-4443095D01*
X7218333Y-4593095D02*
X7205000Y-4574048D01*
X7195476Y-4593095D02*
X7195476Y-4553095D01*
X7210714Y-4553095D01*
X7214524Y-4555000D01*
X7216429Y-4556905D01*
X7218333Y-4560714D01*
X7218333Y-4566429D01*
X7216429Y-4570238D01*
X7214524Y-4572143D01*
X7210714Y-4574048D01*
X7195476Y-4574048D01*
X7241191Y-4570238D02*
X7237381Y-4568333D01*
X7235476Y-4566429D01*
X7233571Y-4562619D01*
X7233571Y-4560714D01*
X7235476Y-4556905D01*
X7237381Y-4555000D01*
X7241191Y-4553095D01*
X7248810Y-4553095D01*
X7252619Y-4555000D01*
X7254524Y-4556905D01*
X7256429Y-4560714D01*
X7256429Y-4562619D01*
X7254524Y-4566429D01*
X7252619Y-4568333D01*
X7248810Y-4570238D01*
X7241191Y-4570238D01*
X7237381Y-4572143D01*
X7235476Y-4574048D01*
X7233571Y-4577857D01*
X7233571Y-4585476D01*
X7235476Y-4589286D01*
X7237381Y-4591190D01*
X7241191Y-4593095D01*
X7248810Y-4593095D01*
X7252619Y-4591190D01*
X7254524Y-4589286D01*
X7256429Y-4585476D01*
X7256429Y-4577857D01*
X7254524Y-4574048D01*
X7252619Y-4572143D01*
X7248810Y-4570238D01*
X4524524Y-4733095D02*
X4524524Y-4693095D01*
X4547381Y-4733095D01*
X4547381Y-4693095D01*
X4583571Y-4693095D02*
X4575952Y-4693095D01*
X4572143Y-4695000D01*
X4570238Y-4696905D01*
X4566429Y-4702619D01*
X4564524Y-4710238D01*
X4564524Y-4725476D01*
X4566429Y-4729286D01*
X4568333Y-4731190D01*
X4572143Y-4733095D01*
X4579762Y-4733095D01*
X4583571Y-4731190D01*
X4585476Y-4729286D01*
X4587381Y-4725476D01*
X4587381Y-4715952D01*
X4585476Y-4712143D01*
X4583571Y-4710238D01*
X4579762Y-4708333D01*
X4572143Y-4708333D01*
X4568333Y-4710238D01*
X4566429Y-4712143D01*
X4564524Y-4715952D01*
M02*
