%FSLAX36Y36*%
G04 Gerber Fmt 3.6, Leading zero omitted, Abs format (unit inch)*
G04 Created by KiCad (PCBNEW (2014-jul-16 BZR unknown)-product) date Sun 05 Oct 2014 02:20:23 PM PDT*
%MOIN*%
G01*
G04 APERTURE LIST*
%ADD10C,0.003937*%
%ADD11C,0.059100*%
%ADD12C,0.078700*%
%ADD13R,0.078700X0.078700*%
%ADD14C,0.060000*%
%ADD15C,0.236220*%
%ADD16R,0.068000X0.068000*%
%ADD17C,0.068000*%
%ADD18O,0.068000X0.068000*%
%ADD19C,0.080000*%
%ADD20R,0.060000X0.060000*%
%ADD21O,0.066900X0.137800*%
%ADD22R,0.380000X0.620000*%
%ADD23R,0.055000X0.055000*%
%ADD24C,0.055000*%
%ADD25C,0.035000*%
%ADD26C,0.008000*%
%ADD27C,0.040000*%
%ADD28C,0.010000*%
G04 APERTURE END LIST*
D10*
D11*
X5900000Y-5700000D03*
X5900000Y-5600000D03*
X6300000Y-5500000D03*
X6300000Y-5600000D03*
X5950000Y-4550000D03*
X5850000Y-4550000D03*
X5800000Y-5450000D03*
X5900000Y-5450000D03*
X7250000Y-5200000D03*
X7150000Y-5200000D03*
X6000000Y-4325000D03*
X5900000Y-4325000D03*
X6525000Y-4100000D03*
X6525000Y-4200000D03*
X6400000Y-4200000D03*
X6400000Y-4100000D03*
D12*
X5075000Y-4525000D03*
D13*
X4675000Y-4525000D03*
D14*
X4325000Y-4400000D03*
X4325000Y-4300000D03*
D15*
X4133858Y-4527559D03*
X7677165Y-4133858D03*
X4133858Y-5708661D03*
X7677165Y-5708661D03*
D16*
X7550000Y-5475000D03*
D17*
X7650000Y-5475000D03*
X7750000Y-5475000D03*
D16*
X4525000Y-4525000D03*
D18*
X4525000Y-4625000D03*
X4425000Y-4525000D03*
X4425000Y-4625000D03*
D19*
X4200000Y-4998425D03*
X4200000Y-4801575D03*
X4200000Y-5448425D03*
X4200000Y-5251575D03*
D20*
X7600000Y-4700000D03*
D14*
X7700000Y-4700000D03*
X7600000Y-4800000D03*
X7700000Y-4800000D03*
X7600000Y-4900000D03*
X7700000Y-4900000D03*
X7600000Y-5000000D03*
X7700000Y-5000000D03*
X7600000Y-5100000D03*
X7700000Y-5100000D03*
D16*
X5200000Y-4325000D03*
D17*
X5300000Y-4325000D03*
X5400000Y-4325000D03*
X5500000Y-4325000D03*
X5600000Y-4325000D03*
X5700000Y-4325000D03*
D16*
X4900000Y-5800000D03*
D17*
X5000000Y-5800000D03*
X5100000Y-5800000D03*
X5200000Y-5800000D03*
X5300000Y-5800000D03*
X5400000Y-5800000D03*
D16*
X5600000Y-5600000D03*
D18*
X5700000Y-5600000D03*
X5600000Y-5700000D03*
X5700000Y-5700000D03*
X5600000Y-5800000D03*
X5700000Y-5800000D03*
D16*
X5200000Y-4475000D03*
D17*
X5300000Y-4475000D03*
X5400000Y-4475000D03*
X5500000Y-4475000D03*
D20*
X6625000Y-5725000D03*
D14*
X6625000Y-5625000D03*
X6725000Y-5725000D03*
X6725000Y-5625000D03*
X6825000Y-5725000D03*
X6825000Y-5625000D03*
X6925000Y-5725000D03*
X6925000Y-5625000D03*
X7025000Y-5725000D03*
X7025000Y-5625000D03*
D16*
X4050000Y-4150000D03*
D18*
X4050000Y-4050000D03*
X4150000Y-4150000D03*
X4150000Y-4050000D03*
X4250000Y-4150000D03*
X4250000Y-4050000D03*
X4350000Y-4150000D03*
X4350000Y-4050000D03*
X4450000Y-4150000D03*
X4450000Y-4050000D03*
X4550000Y-4150000D03*
X4550000Y-4050000D03*
X4650000Y-4150000D03*
X4650000Y-4050000D03*
X4750000Y-4150000D03*
X4750000Y-4050000D03*
X4850000Y-4150000D03*
X4850000Y-4050000D03*
X4950000Y-4150000D03*
X4950000Y-4050000D03*
X5050000Y-4150000D03*
X5050000Y-4050000D03*
X5150000Y-4150000D03*
X5150000Y-4050000D03*
X5250000Y-4150000D03*
X5250000Y-4050000D03*
X5350000Y-4150000D03*
X5350000Y-4050000D03*
X5450000Y-4150000D03*
X5450000Y-4050000D03*
X5550000Y-4150000D03*
X5550000Y-4050000D03*
X5650000Y-4150000D03*
X5650000Y-4050000D03*
X5750000Y-4150000D03*
X5750000Y-4050000D03*
X5850000Y-4150000D03*
X5850000Y-4050000D03*
X5950000Y-4150000D03*
X5950000Y-4050000D03*
X6050000Y-4150000D03*
X6050000Y-4050000D03*
X6150000Y-4150000D03*
X6150000Y-4050000D03*
X6250000Y-4150000D03*
X6250000Y-4050000D03*
D21*
X4575000Y-5050000D03*
X4675000Y-5050000D03*
X4475000Y-5050000D03*
D22*
X4575000Y-5520000D03*
D12*
X7000000Y-5375000D03*
X7400000Y-5375000D03*
X4775000Y-4650000D03*
X4775000Y-5050000D03*
X4500000Y-4275000D03*
X4900000Y-4275000D03*
X4500000Y-4400000D03*
X4900000Y-4400000D03*
D13*
X7400000Y-5828000D03*
D12*
X7400000Y-5572000D03*
D23*
X6725000Y-4300000D03*
D24*
X6825000Y-4300000D03*
X6925000Y-4300000D03*
X7025000Y-4300000D03*
X7125000Y-4300000D03*
X7225000Y-4300000D03*
X7325000Y-4300000D03*
X7325000Y-4000000D03*
X7225000Y-4000000D03*
X7125000Y-4000000D03*
X7025000Y-4000000D03*
X6925000Y-4000000D03*
X6825000Y-4000000D03*
X6725000Y-4000000D03*
D23*
X7050000Y-4750000D03*
D24*
X7050000Y-4850000D03*
X7050000Y-4950000D03*
X7050000Y-5050000D03*
X7350000Y-5050000D03*
X7350000Y-4950000D03*
X7350000Y-4850000D03*
X7350000Y-4750000D03*
D23*
X4950000Y-5300000D03*
D24*
X5050000Y-5300000D03*
X5150000Y-5300000D03*
X5250000Y-5300000D03*
X5350000Y-5300000D03*
X5450000Y-5300000D03*
X5550000Y-5300000D03*
X5650000Y-5300000D03*
X5750000Y-5300000D03*
X5850000Y-5300000D03*
X5950000Y-5300000D03*
X6050000Y-5300000D03*
X6150000Y-5300000D03*
X6250000Y-5300000D03*
X6350000Y-5300000D03*
X6450000Y-5300000D03*
X6550000Y-5300000D03*
X6650000Y-5300000D03*
X6750000Y-5300000D03*
X6850000Y-5300000D03*
X6850000Y-4700000D03*
X6750000Y-4700000D03*
X6650000Y-4700000D03*
X6550000Y-4700000D03*
X6450000Y-4700000D03*
X6350000Y-4700000D03*
X6250000Y-4700000D03*
X6150000Y-4700000D03*
X6050000Y-4700000D03*
X5950000Y-4700000D03*
X5850000Y-4700000D03*
X5750000Y-4700000D03*
X5650000Y-4700000D03*
X5550000Y-4700000D03*
X5450000Y-4700000D03*
X5350000Y-4700000D03*
X5250000Y-4700000D03*
X5150000Y-4700000D03*
X5050000Y-4700000D03*
X4950000Y-4700000D03*
D11*
X6100000Y-5696100D03*
X6100000Y-5503900D03*
D16*
X6725000Y-4425000D03*
D17*
X6825000Y-4425000D03*
X6925000Y-4425000D03*
X7025000Y-4425000D03*
X7125000Y-4425000D03*
D12*
X5575000Y-4600000D03*
X5175000Y-4600000D03*
X6150000Y-4325000D03*
X6550000Y-4325000D03*
D16*
X6725000Y-4575000D03*
D17*
X6825000Y-4575000D03*
X6925000Y-4575000D03*
X7025000Y-4575000D03*
X7125000Y-4575000D03*
D16*
X4450000Y-4825000D03*
D17*
X4550000Y-4825000D03*
X4650000Y-4825000D03*
D25*
X6075000Y-5000000D03*
X5850000Y-5000000D03*
X5100000Y-5000000D03*
X5250000Y-5000000D03*
X6600000Y-5000000D03*
X6325000Y-5000000D03*
X6450000Y-5000000D03*
X6750000Y-5000000D03*
X7325000Y-4650000D03*
X6300000Y-4325000D03*
X5375000Y-4600000D03*
X4800000Y-4750000D03*
X4900000Y-4650000D03*
X6973500Y-4200000D03*
X6800000Y-4100000D03*
X6806000Y-4200000D03*
X5600000Y-4200000D03*
X5500000Y-4200000D03*
X7150000Y-5525000D03*
X5100000Y-5250000D03*
X5525000Y-5650000D03*
X6500000Y-5150000D03*
X6600000Y-5150000D03*
X5200000Y-5200000D03*
X6825000Y-5100000D03*
X6975000Y-4125000D03*
X6350000Y-5150000D03*
X6800000Y-5250000D03*
X6800000Y-5200000D03*
X6200000Y-4775000D03*
X6950000Y-4700000D03*
X6400000Y-4575000D03*
X7400000Y-5150000D03*
X5150000Y-5175000D03*
D26*
X6096100Y-5700000D02*
X6100000Y-5696100D01*
X5900000Y-5700000D02*
X6096100Y-5700000D01*
D27*
X7075000Y-5800000D02*
X6575000Y-5800000D01*
X6525000Y-5750000D02*
X6525000Y-5600000D01*
X6575000Y-5800000D02*
X6525000Y-5750000D01*
X6625000Y-5625000D02*
X6600000Y-5600000D01*
X6600000Y-5600000D02*
X6525000Y-5600000D01*
X6525000Y-5600000D02*
X6300000Y-5600000D01*
X7325000Y-4300000D02*
X7225000Y-4200000D01*
X6806000Y-4200000D02*
X6525000Y-4200000D01*
X6973500Y-4200000D02*
X6806000Y-4200000D01*
X7225000Y-4200000D02*
X6973500Y-4200000D01*
X7050000Y-5625000D02*
X7025000Y-5625000D01*
X7075000Y-5800000D02*
X7100000Y-5775000D01*
X7100000Y-5775000D02*
X7100000Y-5675000D01*
X7100000Y-5675000D02*
X7050000Y-5625000D01*
X7700000Y-4800000D02*
X7600000Y-4800000D01*
X5900000Y-5600000D02*
X6300000Y-5600000D01*
X6300000Y-5600000D02*
X6325000Y-5600000D01*
X6075000Y-5000000D02*
X5850000Y-5000000D01*
X5250000Y-5000000D02*
X5850000Y-5000000D01*
X5100000Y-5000000D02*
X5250000Y-5000000D01*
X4675000Y-4975000D02*
X4675000Y-5050000D01*
X4700000Y-4950000D02*
X4675000Y-4975000D01*
X4925000Y-4950000D02*
X4700000Y-4950000D01*
X4975000Y-5000000D02*
X4925000Y-4950000D01*
X5100000Y-5000000D02*
X4975000Y-5000000D01*
X7075000Y-5200000D02*
X6875000Y-5000000D01*
X6875000Y-5000000D02*
X6750000Y-5000000D01*
X6750000Y-5000000D02*
X6600000Y-5000000D01*
X6450000Y-5000000D02*
X6325000Y-5000000D01*
X6325000Y-5000000D02*
X6075000Y-5000000D01*
X6600000Y-5000000D02*
X6450000Y-5000000D01*
X7150000Y-5200000D02*
X7075000Y-5200000D01*
X7375000Y-4650000D02*
X7525000Y-4800000D01*
X7325000Y-4650000D02*
X7375000Y-4650000D01*
X7525000Y-4800000D02*
X7600000Y-4800000D01*
X7125000Y-4850000D02*
X7325000Y-4650000D01*
X7050000Y-4850000D02*
X7125000Y-4850000D01*
X5900000Y-4475000D02*
X6150000Y-4475000D01*
X6150000Y-4475000D02*
X6300000Y-4325000D01*
X5850000Y-4525000D02*
X5900000Y-4475000D01*
X5850000Y-4550000D02*
X5850000Y-4525000D01*
X5200000Y-4325000D02*
X5200000Y-4475000D01*
X5225000Y-4525000D02*
X5300000Y-4600000D01*
X5300000Y-4600000D02*
X5375000Y-4600000D01*
X5225000Y-4500000D02*
X5225000Y-4525000D01*
X5200000Y-4475000D02*
X5225000Y-4500000D01*
X4575000Y-4750000D02*
X4550000Y-4775000D01*
X4550000Y-4775000D02*
X4550000Y-4825000D01*
X4900000Y-4650000D02*
X4800000Y-4750000D01*
X4800000Y-4750000D02*
X4575000Y-4750000D01*
X4525000Y-4750000D02*
X4251575Y-4750000D01*
X4251575Y-4750000D02*
X4200000Y-4801575D01*
X4550000Y-4775000D02*
X4525000Y-4750000D01*
X4550000Y-4850000D02*
X4550000Y-4825000D01*
X4675000Y-4975000D02*
X4550000Y-4850000D01*
D26*
X5600000Y-4200000D02*
X5500000Y-4200000D01*
X6103900Y-5500000D02*
X6100000Y-5503900D01*
X6300000Y-5500000D02*
X6103900Y-5500000D01*
X5900000Y-4325000D02*
X5825000Y-4250000D01*
X5825000Y-4250000D02*
X5150000Y-4250000D01*
X6400000Y-4200000D02*
X6025000Y-4200000D01*
X6025000Y-4200000D02*
X5900000Y-4325000D01*
X5800000Y-5350000D02*
X6450000Y-5350000D01*
X6450000Y-5350000D02*
X6575000Y-5475000D01*
X6575000Y-5475000D02*
X7303000Y-5475000D01*
X7303000Y-5475000D02*
X7400000Y-5572000D01*
X5750000Y-5300000D02*
X5800000Y-5350000D01*
X5075000Y-4325000D02*
X5150000Y-4250000D01*
X5075000Y-4525000D02*
X5075000Y-4325000D01*
X4900000Y-4525000D02*
X4775000Y-4650000D01*
X5075000Y-4525000D02*
X4900000Y-4525000D01*
D27*
X4675000Y-4525000D02*
X4775000Y-4525000D01*
X4775000Y-4525000D02*
X4900000Y-4400000D01*
X5950000Y-4550000D02*
X6250000Y-4550000D01*
X6625000Y-4425000D02*
X6725000Y-4425000D01*
X6600000Y-4450000D02*
X6625000Y-4425000D01*
X6350000Y-4450000D02*
X6600000Y-4450000D01*
X6250000Y-4550000D02*
X6350000Y-4450000D01*
X6725000Y-4000000D02*
X6825000Y-4000000D01*
X7150000Y-5050000D02*
X7050000Y-4950000D01*
X7350000Y-5050000D02*
X7150000Y-5050000D01*
X6725000Y-5575000D02*
X6775000Y-5525000D01*
X6775000Y-5525000D02*
X7150000Y-5525000D01*
X6725000Y-5625000D02*
X6725000Y-5575000D01*
X5900000Y-4825000D02*
X5950000Y-4775000D01*
X5950000Y-4775000D02*
X5950000Y-4700000D01*
X4650000Y-4825000D02*
X5900000Y-4825000D01*
X5950000Y-4775000D02*
X6000000Y-4825000D01*
X5750000Y-5550000D02*
X5750000Y-5525000D01*
X5750000Y-5525000D02*
X5750000Y-5500000D01*
X5750000Y-5500000D02*
X5800000Y-5450000D01*
X5700000Y-5600000D02*
X5750000Y-5550000D01*
X7050000Y-4950000D02*
X6925000Y-4825000D01*
X6925000Y-4825000D02*
X6000000Y-4825000D01*
D26*
X7500000Y-5475000D02*
X7400000Y-5375000D01*
X7550000Y-5475000D02*
X7500000Y-5475000D01*
X6700000Y-5675000D02*
X6675000Y-5650000D01*
X6425000Y-5375000D02*
X5725000Y-5375000D01*
X6675000Y-5600000D02*
X6625000Y-5550000D01*
X6675000Y-5650000D02*
X6675000Y-5600000D01*
X6775000Y-5675000D02*
X6700000Y-5675000D01*
X5725000Y-5375000D02*
X5650000Y-5300000D01*
X6825000Y-5625000D02*
X6775000Y-5675000D01*
X5600000Y-5250000D02*
X5100000Y-5250000D01*
X5650000Y-5300000D02*
X5600000Y-5250000D01*
X6600000Y-5550000D02*
X6425000Y-5375000D01*
X6625000Y-5550000D02*
X6600000Y-5550000D01*
X5650000Y-5650000D02*
X5525000Y-5650000D01*
X5700000Y-5700000D02*
X5650000Y-5650000D01*
X6600000Y-5150000D02*
X6500000Y-5150000D01*
X6350000Y-5300000D02*
X6250000Y-5200000D01*
X6250000Y-5200000D02*
X5200000Y-5200000D01*
X7100000Y-4125000D02*
X7225000Y-4000000D01*
X7100000Y-4125000D02*
X6975000Y-4125000D01*
X6825000Y-5100000D02*
X6400000Y-5100000D01*
X6400000Y-5100000D02*
X6350000Y-5150000D01*
X6800000Y-5325000D02*
X6800000Y-5250000D01*
X6450000Y-5300000D02*
X6500000Y-5350000D01*
X6500000Y-5350000D02*
X6775000Y-5350000D01*
X6800000Y-5325000D02*
X6775000Y-5350000D01*
X6550000Y-5300000D02*
X6600000Y-5250000D01*
X6600000Y-5250000D02*
X6675000Y-5250000D01*
X6725000Y-5200000D02*
X6675000Y-5250000D01*
X6800000Y-5200000D02*
X6725000Y-5200000D01*
X6875000Y-4775000D02*
X6200000Y-4775000D01*
X6950000Y-4700000D02*
X6875000Y-4775000D01*
X5300000Y-4475000D02*
X5300000Y-4525000D01*
X5325000Y-4550000D02*
X5550000Y-4550000D01*
X5300000Y-4525000D02*
X5325000Y-4550000D01*
X6675000Y-4500000D02*
X6650000Y-4525000D01*
X6650000Y-4525000D02*
X6400000Y-4525000D01*
X7125000Y-4425000D02*
X7050000Y-4500000D01*
X5575000Y-4525000D02*
X5550000Y-4550000D01*
X5600000Y-4525000D02*
X5575000Y-4525000D01*
X5700000Y-4625000D02*
X5600000Y-4525000D01*
X6300000Y-4625000D02*
X5700000Y-4625000D01*
X6400000Y-4525000D02*
X6300000Y-4625000D01*
X7050000Y-4500000D02*
X6675000Y-4500000D01*
X6875000Y-4525000D02*
X6675000Y-4525000D01*
X6625000Y-4575000D02*
X6400000Y-4575000D01*
X6675000Y-4525000D02*
X6625000Y-4575000D01*
X6925000Y-4575000D02*
X6875000Y-4525000D01*
X6075000Y-4400000D02*
X5475000Y-4400000D01*
X5475000Y-4400000D02*
X5400000Y-4475000D01*
X6150000Y-4325000D02*
X6075000Y-4400000D01*
X5550000Y-4150000D02*
X5600000Y-4100000D01*
X5600000Y-4100000D02*
X6300000Y-4100000D01*
X6300000Y-4100000D02*
X6350000Y-4050000D01*
X6350000Y-4050000D02*
X6875000Y-4050000D01*
X6875000Y-4050000D02*
X6925000Y-4000000D01*
X7650000Y-4950000D02*
X7350000Y-4950000D01*
X7700000Y-4900000D02*
X7650000Y-4950000D01*
X7550000Y-4900000D02*
X7500000Y-4850000D01*
X7500000Y-4850000D02*
X7350000Y-4850000D01*
X7600000Y-4900000D02*
X7550000Y-4900000D01*
D27*
X4575000Y-4975000D02*
X4525000Y-4925000D01*
X4525000Y-4925000D02*
X4273425Y-4925000D01*
X4273425Y-4925000D02*
X4200000Y-4998425D01*
X4575000Y-5050000D02*
X4575000Y-4975000D01*
D26*
X6350000Y-4250000D02*
X6316000Y-4216000D01*
X6109000Y-4216000D02*
X6000000Y-4325000D01*
X6316000Y-4216000D02*
X6109000Y-4216000D01*
X6875000Y-4250000D02*
X6925000Y-4300000D01*
X6350000Y-4250000D02*
X6875000Y-4250000D01*
X6400000Y-4100000D02*
X6450000Y-4150000D01*
X6875000Y-4150000D02*
X7025000Y-4000000D01*
X6450000Y-4150000D02*
X6875000Y-4150000D01*
X5150000Y-5175000D02*
X5175000Y-5150000D01*
X5175000Y-5150000D02*
X6275000Y-5150000D01*
X6275000Y-5150000D02*
X6325000Y-5200000D01*
X6325000Y-5200000D02*
X6625000Y-5200000D01*
X6625000Y-5200000D02*
X6675000Y-5150000D01*
X6675000Y-5150000D02*
X6825000Y-5150000D01*
X7275000Y-5275000D02*
X6950000Y-5275000D01*
X6950000Y-5275000D02*
X6825000Y-5150000D01*
X7400000Y-5150000D02*
X7275000Y-5275000D01*
X6600000Y-4400000D02*
X6425000Y-4400000D01*
X6125000Y-4250000D02*
X6075000Y-4300000D01*
X6275000Y-4250000D02*
X6125000Y-4250000D01*
X6425000Y-4400000D02*
X6275000Y-4250000D01*
X6825000Y-4425000D02*
X6775000Y-4375000D01*
X6625000Y-4375000D02*
X6600000Y-4400000D01*
X6775000Y-4375000D02*
X6625000Y-4375000D01*
X6075000Y-4325000D02*
X6025000Y-4375000D01*
X6025000Y-4375000D02*
X5875000Y-4375000D01*
X5875000Y-4375000D02*
X5825000Y-4325000D01*
X5825000Y-4325000D02*
X5700000Y-4325000D01*
X6075000Y-4300000D02*
X6075000Y-4325000D01*
X5500000Y-4325000D02*
X5425000Y-4400000D01*
X5625000Y-4500000D02*
X5575000Y-4500000D01*
X5575000Y-4500000D02*
X5548814Y-4526186D01*
X5548814Y-4526186D02*
X5376186Y-4526186D01*
X5376186Y-4526186D02*
X5350000Y-4500000D01*
X5350000Y-4500000D02*
X5350000Y-4425000D01*
X5625000Y-4500000D02*
X5725000Y-4600000D01*
X5375000Y-4400000D02*
X5350000Y-4425000D01*
X5425000Y-4400000D02*
X5375000Y-4400000D01*
X6925000Y-4425000D02*
X6875000Y-4475000D01*
X6275000Y-4600000D02*
X5725000Y-4600000D01*
X6375000Y-4500000D02*
X6275000Y-4600000D01*
X6625000Y-4500000D02*
X6375000Y-4500000D01*
X6650000Y-4475000D02*
X6625000Y-4500000D01*
X6875000Y-4475000D02*
X6650000Y-4475000D01*
X6825000Y-4575000D02*
X6750000Y-4650000D01*
X5625000Y-4650000D02*
X5575000Y-4600000D01*
X6750000Y-4650000D02*
X5625000Y-4650000D01*
X6550000Y-4325000D02*
X6625000Y-4325000D01*
X6625000Y-4325000D02*
X6650000Y-4350000D01*
X6550000Y-4325000D02*
X6575000Y-4350000D01*
X6650000Y-4350000D02*
X7350000Y-4350000D01*
X7325000Y-4150000D02*
X7325000Y-4000000D01*
X7375000Y-4200000D02*
X7325000Y-4150000D01*
X7375000Y-4325000D02*
X7375000Y-4200000D01*
X7350000Y-4350000D02*
X7375000Y-4325000D01*
X6850000Y-5300000D02*
X7350000Y-5300000D01*
X7275000Y-4825000D02*
X7350000Y-4750000D01*
X7275000Y-4950000D02*
X7275000Y-4825000D01*
X7325000Y-5000000D02*
X7275000Y-4950000D01*
X7400000Y-5000000D02*
X7325000Y-5000000D01*
X7450000Y-5050000D02*
X7400000Y-5000000D01*
X7450000Y-5200000D02*
X7450000Y-5050000D01*
X7350000Y-5300000D02*
X7450000Y-5200000D01*
D28*
G36*
X5364616Y-4373066D02*
X5363902Y-4373207D01*
X5354494Y-4379494D01*
X5329494Y-4404494D01*
X5323207Y-4413902D01*
X5321949Y-4420230D01*
X5311787Y-4416010D01*
X5288316Y-4415990D01*
X5266623Y-4424953D01*
X5265642Y-4425932D01*
X5263672Y-4421174D01*
X5253826Y-4411328D01*
X5240962Y-4406000D01*
X5209750Y-4406000D01*
X5201000Y-4414750D01*
X5201000Y-4474000D01*
X5201787Y-4474000D01*
X5201787Y-4476000D01*
X5201000Y-4476000D01*
X5201000Y-4476787D01*
X5199000Y-4476787D01*
X5199000Y-4476000D01*
X5199000Y-4474000D01*
X5199000Y-4414750D01*
X5199000Y-4385250D01*
X5199000Y-4326000D01*
X5139750Y-4326000D01*
X5131000Y-4334750D01*
X5131000Y-4352038D01*
X5131000Y-4365962D01*
X5136328Y-4378826D01*
X5146174Y-4388672D01*
X5159038Y-4394000D01*
X5190250Y-4394000D01*
X5199000Y-4385250D01*
X5199000Y-4414750D01*
X5190250Y-4406000D01*
X5159038Y-4406000D01*
X5146174Y-4411328D01*
X5136328Y-4421174D01*
X5131000Y-4434038D01*
X5131000Y-4447962D01*
X5131000Y-4465250D01*
X5139750Y-4474000D01*
X5199000Y-4474000D01*
X5199000Y-4476000D01*
X5139750Y-4476000D01*
X5131000Y-4484750D01*
X5131000Y-4492021D01*
X5129585Y-4488596D01*
X5111499Y-4470479D01*
X5104000Y-4467365D01*
X5104000Y-4337012D01*
X5131000Y-4310012D01*
X5131000Y-4315250D01*
X5139750Y-4324000D01*
X5199000Y-4324000D01*
X5199000Y-4323213D01*
X5201000Y-4323213D01*
X5201000Y-4324000D01*
X5201787Y-4324000D01*
X5201787Y-4326000D01*
X5201000Y-4326000D01*
X5201000Y-4385250D01*
X5209750Y-4394000D01*
X5240962Y-4394000D01*
X5253826Y-4388672D01*
X5263672Y-4378826D01*
X5265635Y-4374086D01*
X5266536Y-4374989D01*
X5288213Y-4383990D01*
X5311684Y-4384010D01*
X5333377Y-4375047D01*
X5349989Y-4358464D01*
X5350004Y-4358428D01*
X5364616Y-4373066D01*
X5364616Y-4373066D01*
G37*
X5364616Y-4373066D02*
X5363902Y-4373207D01*
X5354494Y-4379494D01*
X5329494Y-4404494D01*
X5323207Y-4413902D01*
X5321949Y-4420230D01*
X5311787Y-4416010D01*
X5288316Y-4415990D01*
X5266623Y-4424953D01*
X5265642Y-4425932D01*
X5263672Y-4421174D01*
X5253826Y-4411328D01*
X5240962Y-4406000D01*
X5209750Y-4406000D01*
X5201000Y-4414750D01*
X5201000Y-4474000D01*
X5201787Y-4474000D01*
X5201787Y-4476000D01*
X5201000Y-4476000D01*
X5201000Y-4476787D01*
X5199000Y-4476787D01*
X5199000Y-4476000D01*
X5199000Y-4474000D01*
X5199000Y-4414750D01*
X5199000Y-4385250D01*
X5199000Y-4326000D01*
X5139750Y-4326000D01*
X5131000Y-4334750D01*
X5131000Y-4352038D01*
X5131000Y-4365962D01*
X5136328Y-4378826D01*
X5146174Y-4388672D01*
X5159038Y-4394000D01*
X5190250Y-4394000D01*
X5199000Y-4385250D01*
X5199000Y-4414750D01*
X5190250Y-4406000D01*
X5159038Y-4406000D01*
X5146174Y-4411328D01*
X5136328Y-4421174D01*
X5131000Y-4434038D01*
X5131000Y-4447962D01*
X5131000Y-4465250D01*
X5139750Y-4474000D01*
X5199000Y-4474000D01*
X5199000Y-4476000D01*
X5139750Y-4476000D01*
X5131000Y-4484750D01*
X5131000Y-4492021D01*
X5129585Y-4488596D01*
X5111499Y-4470479D01*
X5104000Y-4467365D01*
X5104000Y-4337012D01*
X5131000Y-4310012D01*
X5131000Y-4315250D01*
X5139750Y-4324000D01*
X5199000Y-4324000D01*
X5199000Y-4323213D01*
X5201000Y-4323213D01*
X5201000Y-4324000D01*
X5201787Y-4324000D01*
X5201787Y-4326000D01*
X5201000Y-4326000D01*
X5201000Y-4385250D01*
X5209750Y-4394000D01*
X5240962Y-4394000D01*
X5253826Y-4388672D01*
X5263672Y-4378826D01*
X5265635Y-4374086D01*
X5266536Y-4374989D01*
X5288213Y-4383990D01*
X5311684Y-4384010D01*
X5333377Y-4375047D01*
X5349989Y-4358464D01*
X5350004Y-4358428D01*
X5364616Y-4373066D01*
G36*
X5533854Y-4649866D02*
X5520300Y-4655467D01*
X5505519Y-4670222D01*
X5499996Y-4683521D01*
X5494533Y-4670300D01*
X5479778Y-4655519D01*
X5460489Y-4647509D01*
X5439603Y-4647491D01*
X5420300Y-4655467D01*
X5405519Y-4670222D01*
X5399996Y-4683521D01*
X5394533Y-4670300D01*
X5379778Y-4655519D01*
X5360489Y-4647509D01*
X5339603Y-4647491D01*
X5320300Y-4655467D01*
X5305519Y-4670222D01*
X5299996Y-4683521D01*
X5294533Y-4670300D01*
X5279778Y-4655519D01*
X5260489Y-4647509D01*
X5239603Y-4647491D01*
X5220300Y-4655467D01*
X5205519Y-4670222D01*
X5199996Y-4683521D01*
X5194533Y-4670300D01*
X5188353Y-4664109D01*
X5211404Y-4654585D01*
X5229521Y-4636499D01*
X5239339Y-4612856D01*
X5239361Y-4587256D01*
X5229585Y-4563596D01*
X5211499Y-4545479D01*
X5201000Y-4541119D01*
X5201000Y-4535250D01*
X5209750Y-4544000D01*
X5240962Y-4544000D01*
X5253826Y-4538672D01*
X5263672Y-4528826D01*
X5265635Y-4524086D01*
X5266536Y-4524989D01*
X5271399Y-4527008D01*
X5273207Y-4536098D01*
X5279494Y-4545506D01*
X5304494Y-4570506D01*
X5313902Y-4576793D01*
X5313902Y-4576793D01*
X5325000Y-4579000D01*
X5514043Y-4579000D01*
X5510661Y-4587144D01*
X5510639Y-4612744D01*
X5520415Y-4636404D01*
X5533854Y-4649866D01*
X5533854Y-4649866D01*
G37*
X5533854Y-4649866D02*
X5520300Y-4655467D01*
X5505519Y-4670222D01*
X5499996Y-4683521D01*
X5494533Y-4670300D01*
X5479778Y-4655519D01*
X5460489Y-4647509D01*
X5439603Y-4647491D01*
X5420300Y-4655467D01*
X5405519Y-4670222D01*
X5399996Y-4683521D01*
X5394533Y-4670300D01*
X5379778Y-4655519D01*
X5360489Y-4647509D01*
X5339603Y-4647491D01*
X5320300Y-4655467D01*
X5305519Y-4670222D01*
X5299996Y-4683521D01*
X5294533Y-4670300D01*
X5279778Y-4655519D01*
X5260489Y-4647509D01*
X5239603Y-4647491D01*
X5220300Y-4655467D01*
X5205519Y-4670222D01*
X5199996Y-4683521D01*
X5194533Y-4670300D01*
X5188353Y-4664109D01*
X5211404Y-4654585D01*
X5229521Y-4636499D01*
X5239339Y-4612856D01*
X5239361Y-4587256D01*
X5229585Y-4563596D01*
X5211499Y-4545479D01*
X5201000Y-4541119D01*
X5201000Y-4535250D01*
X5209750Y-4544000D01*
X5240962Y-4544000D01*
X5253826Y-4538672D01*
X5263672Y-4528826D01*
X5265635Y-4524086D01*
X5266536Y-4524989D01*
X5271399Y-4527008D01*
X5273207Y-4536098D01*
X5279494Y-4545506D01*
X5304494Y-4570506D01*
X5313902Y-4576793D01*
X5313902Y-4576793D01*
X5325000Y-4579000D01*
X5514043Y-4579000D01*
X5510661Y-4587144D01*
X5510639Y-4612744D01*
X5520415Y-4636404D01*
X5533854Y-4649866D01*
G36*
X6256493Y-5247506D02*
X6239603Y-5247491D01*
X6220300Y-5255467D01*
X6205519Y-5270222D01*
X6199996Y-5283521D01*
X6194533Y-5270300D01*
X6179778Y-5255519D01*
X6160489Y-5247509D01*
X6139603Y-5247491D01*
X6120300Y-5255467D01*
X6105519Y-5270222D01*
X6099996Y-5283521D01*
X6094533Y-5270300D01*
X6079778Y-5255519D01*
X6060489Y-5247509D01*
X6039603Y-5247491D01*
X6020300Y-5255467D01*
X6005519Y-5270222D01*
X6005506Y-5270253D01*
X6003805Y-5265855D01*
X6002136Y-5263357D01*
X5989573Y-5261841D01*
X5988159Y-5263255D01*
X5988159Y-5260427D01*
X5986643Y-5247864D01*
X5963902Y-5237810D01*
X5939045Y-5237224D01*
X5915855Y-5246195D01*
X5913357Y-5247864D01*
X5911841Y-5260427D01*
X5950000Y-5298586D01*
X5988159Y-5260427D01*
X5988159Y-5263255D01*
X5951414Y-5300000D01*
X5951971Y-5300557D01*
X5950557Y-5301971D01*
X5950000Y-5301414D01*
X5949443Y-5301971D01*
X5948029Y-5300557D01*
X5948586Y-5300000D01*
X5910427Y-5261841D01*
X5897864Y-5263357D01*
X5894660Y-5270606D01*
X5894533Y-5270300D01*
X5879778Y-5255519D01*
X5860489Y-5247509D01*
X5839603Y-5247491D01*
X5820300Y-5255467D01*
X5805519Y-5270222D01*
X5799996Y-5283521D01*
X5794533Y-5270300D01*
X5779778Y-5255519D01*
X5760489Y-5247509D01*
X5739603Y-5247491D01*
X5720300Y-5255467D01*
X5705519Y-5270222D01*
X5699996Y-5283521D01*
X5694533Y-5270300D01*
X5679778Y-5255519D01*
X5660489Y-5247509D01*
X5639603Y-5247491D01*
X5638825Y-5247812D01*
X5620506Y-5229494D01*
X5619767Y-5229000D01*
X6237988Y-5229000D01*
X6256493Y-5247506D01*
X6256493Y-5247506D01*
G37*
X6256493Y-5247506D02*
X6239603Y-5247491D01*
X6220300Y-5255467D01*
X6205519Y-5270222D01*
X6199996Y-5283521D01*
X6194533Y-5270300D01*
X6179778Y-5255519D01*
X6160489Y-5247509D01*
X6139603Y-5247491D01*
X6120300Y-5255467D01*
X6105519Y-5270222D01*
X6099996Y-5283521D01*
X6094533Y-5270300D01*
X6079778Y-5255519D01*
X6060489Y-5247509D01*
X6039603Y-5247491D01*
X6020300Y-5255467D01*
X6005519Y-5270222D01*
X6005506Y-5270253D01*
X6003805Y-5265855D01*
X6002136Y-5263357D01*
X5989573Y-5261841D01*
X5988159Y-5263255D01*
X5988159Y-5260427D01*
X5986643Y-5247864D01*
X5963902Y-5237810D01*
X5939045Y-5237224D01*
X5915855Y-5246195D01*
X5913357Y-5247864D01*
X5911841Y-5260427D01*
X5950000Y-5298586D01*
X5988159Y-5260427D01*
X5988159Y-5263255D01*
X5951414Y-5300000D01*
X5951971Y-5300557D01*
X5950557Y-5301971D01*
X5950000Y-5301414D01*
X5949443Y-5301971D01*
X5948029Y-5300557D01*
X5948586Y-5300000D01*
X5910427Y-5261841D01*
X5897864Y-5263357D01*
X5894660Y-5270606D01*
X5894533Y-5270300D01*
X5879778Y-5255519D01*
X5860489Y-5247509D01*
X5839603Y-5247491D01*
X5820300Y-5255467D01*
X5805519Y-5270222D01*
X5799996Y-5283521D01*
X5794533Y-5270300D01*
X5779778Y-5255519D01*
X5760489Y-5247509D01*
X5739603Y-5247491D01*
X5720300Y-5255467D01*
X5705519Y-5270222D01*
X5699996Y-5283521D01*
X5694533Y-5270300D01*
X5679778Y-5255519D01*
X5660489Y-5247509D01*
X5639603Y-5247491D01*
X5638825Y-5247812D01*
X5620506Y-5229494D01*
X5619767Y-5229000D01*
X6237988Y-5229000D01*
X6256493Y-5247506D01*
G36*
X6378165Y-4149999D02*
X6369140Y-4153728D01*
X6353782Y-4169060D01*
X6352976Y-4171000D01*
X6314718Y-4171000D01*
X6317320Y-4165134D01*
X6317987Y-4161781D01*
X6310242Y-4151000D01*
X6251000Y-4151000D01*
X6251000Y-4151787D01*
X6249000Y-4151787D01*
X6249000Y-4151000D01*
X6210242Y-4151000D01*
X6189758Y-4151000D01*
X6151000Y-4151000D01*
X6151000Y-4151787D01*
X6149000Y-4151787D01*
X6149000Y-4151000D01*
X6148213Y-4151000D01*
X6148213Y-4149000D01*
X6149000Y-4149000D01*
X6149000Y-4148213D01*
X6151000Y-4148213D01*
X6151000Y-4149000D01*
X6189758Y-4149000D01*
X6210242Y-4149000D01*
X6249000Y-4149000D01*
X6249000Y-4148213D01*
X6251000Y-4148213D01*
X6251000Y-4149000D01*
X6310242Y-4149000D01*
X6317987Y-4138219D01*
X6317320Y-4134866D01*
X6313135Y-4125431D01*
X6320506Y-4120506D01*
X6345454Y-4095558D01*
X6345441Y-4110803D01*
X6353728Y-4130860D01*
X6369060Y-4146218D01*
X6378165Y-4149999D01*
X6378165Y-4149999D01*
G37*
X6378165Y-4149999D02*
X6369140Y-4153728D01*
X6353782Y-4169060D01*
X6352976Y-4171000D01*
X6314718Y-4171000D01*
X6317320Y-4165134D01*
X6317987Y-4161781D01*
X6310242Y-4151000D01*
X6251000Y-4151000D01*
X6251000Y-4151787D01*
X6249000Y-4151787D01*
X6249000Y-4151000D01*
X6210242Y-4151000D01*
X6189758Y-4151000D01*
X6151000Y-4151000D01*
X6151000Y-4151787D01*
X6149000Y-4151787D01*
X6149000Y-4151000D01*
X6148213Y-4151000D01*
X6148213Y-4149000D01*
X6149000Y-4149000D01*
X6149000Y-4148213D01*
X6151000Y-4148213D01*
X6151000Y-4149000D01*
X6189758Y-4149000D01*
X6210242Y-4149000D01*
X6249000Y-4149000D01*
X6249000Y-4148213D01*
X6251000Y-4148213D01*
X6251000Y-4149000D01*
X6310242Y-4149000D01*
X6317987Y-4138219D01*
X6317320Y-4134866D01*
X6313135Y-4125431D01*
X6320506Y-4120506D01*
X6345454Y-4095558D01*
X6345441Y-4110803D01*
X6353728Y-4130860D01*
X6369060Y-4146218D01*
X6378165Y-4149999D01*
G36*
X6388988Y-4405000D02*
X6350000Y-4405000D01*
X6332779Y-4408425D01*
X6318180Y-4418180D01*
X6231360Y-4505000D01*
X5982157Y-4505000D01*
X5980940Y-4503782D01*
X5960898Y-4495459D01*
X5939197Y-4495441D01*
X5919140Y-4503728D01*
X5906282Y-4516563D01*
X5905587Y-4514763D01*
X5903827Y-4512129D01*
X5891052Y-4510363D01*
X5889637Y-4511777D01*
X5889637Y-4508948D01*
X5887871Y-4496173D01*
X5864390Y-4485778D01*
X5838718Y-4485160D01*
X5814763Y-4494413D01*
X5812129Y-4496173D01*
X5810363Y-4508948D01*
X5850000Y-4548586D01*
X5889637Y-4508948D01*
X5889637Y-4511777D01*
X5851414Y-4550000D01*
X5851971Y-4550557D01*
X5850557Y-4551971D01*
X5850000Y-4551414D01*
X5849443Y-4551971D01*
X5848029Y-4550557D01*
X5848586Y-4550000D01*
X5808948Y-4510363D01*
X5796173Y-4512129D01*
X5785778Y-4535610D01*
X5785160Y-4561282D01*
X5788913Y-4571000D01*
X5737012Y-4571000D01*
X5645506Y-4479494D01*
X5636098Y-4473207D01*
X5625000Y-4471000D01*
X5575000Y-4471000D01*
X5563902Y-4473207D01*
X5558999Y-4476484D01*
X5559010Y-4463316D01*
X5550047Y-4441623D01*
X5537446Y-4429000D01*
X6075000Y-4429000D01*
X6086098Y-4426793D01*
X6095506Y-4420506D01*
X6129745Y-4386267D01*
X6137144Y-4389339D01*
X6162744Y-4389361D01*
X6186404Y-4379585D01*
X6204521Y-4361499D01*
X6214339Y-4337856D01*
X6214361Y-4312256D01*
X6204585Y-4288596D01*
X6195006Y-4279000D01*
X6262988Y-4279000D01*
X6388988Y-4405000D01*
X6388988Y-4405000D01*
G37*
X6388988Y-4405000D02*
X6350000Y-4405000D01*
X6332779Y-4408425D01*
X6318180Y-4418180D01*
X6231360Y-4505000D01*
X5982157Y-4505000D01*
X5980940Y-4503782D01*
X5960898Y-4495459D01*
X5939197Y-4495441D01*
X5919140Y-4503728D01*
X5906282Y-4516563D01*
X5905587Y-4514763D01*
X5903827Y-4512129D01*
X5891052Y-4510363D01*
X5889637Y-4511777D01*
X5889637Y-4508948D01*
X5887871Y-4496173D01*
X5864390Y-4485778D01*
X5838718Y-4485160D01*
X5814763Y-4494413D01*
X5812129Y-4496173D01*
X5810363Y-4508948D01*
X5850000Y-4548586D01*
X5889637Y-4508948D01*
X5889637Y-4511777D01*
X5851414Y-4550000D01*
X5851971Y-4550557D01*
X5850557Y-4551971D01*
X5850000Y-4551414D01*
X5849443Y-4551971D01*
X5848029Y-4550557D01*
X5848586Y-4550000D01*
X5808948Y-4510363D01*
X5796173Y-4512129D01*
X5785778Y-4535610D01*
X5785160Y-4561282D01*
X5788913Y-4571000D01*
X5737012Y-4571000D01*
X5645506Y-4479494D01*
X5636098Y-4473207D01*
X5625000Y-4471000D01*
X5575000Y-4471000D01*
X5563902Y-4473207D01*
X5558999Y-4476484D01*
X5559010Y-4463316D01*
X5550047Y-4441623D01*
X5537446Y-4429000D01*
X6075000Y-4429000D01*
X6086098Y-4426793D01*
X6095506Y-4420506D01*
X6129745Y-4386267D01*
X6137144Y-4389339D01*
X6162744Y-4389361D01*
X6186404Y-4379585D01*
X6204521Y-4361499D01*
X6214339Y-4337856D01*
X6214361Y-4312256D01*
X6204585Y-4288596D01*
X6195006Y-4279000D01*
X6262988Y-4279000D01*
X6388988Y-4405000D01*
G36*
X6526971Y-4200557D02*
X6525557Y-4201971D01*
X6525000Y-4201414D01*
X6524443Y-4201971D01*
X6523029Y-4200557D01*
X6523586Y-4200000D01*
X6523029Y-4199443D01*
X6524443Y-4198029D01*
X6525000Y-4198586D01*
X6525557Y-4198029D01*
X6526971Y-4199443D01*
X6526414Y-4200000D01*
X6526971Y-4200557D01*
X6526971Y-4200557D01*
G37*
X6526971Y-4200557D02*
X6525557Y-4201971D01*
X6525000Y-4201414D01*
X6524443Y-4201971D01*
X6523029Y-4200557D01*
X6523586Y-4200000D01*
X6523029Y-4199443D01*
X6524443Y-4198029D01*
X6525000Y-4198586D01*
X6525557Y-4198029D01*
X6526971Y-4199443D01*
X6526414Y-4200000D01*
X6526971Y-4200557D01*
G36*
X6726787Y-4576000D02*
X6726000Y-4576000D01*
X6726000Y-4576787D01*
X6724000Y-4576787D01*
X6724000Y-4576000D01*
X6723213Y-4576000D01*
X6723213Y-4574000D01*
X6724000Y-4574000D01*
X6724000Y-4573213D01*
X6726000Y-4573213D01*
X6726000Y-4574000D01*
X6726787Y-4574000D01*
X6726787Y-4576000D01*
X6726787Y-4576000D01*
G37*
X6726787Y-4576000D02*
X6726000Y-4576000D01*
X6726000Y-4576787D01*
X6724000Y-4576787D01*
X6724000Y-4576000D01*
X6723213Y-4576000D01*
X6723213Y-4574000D01*
X6724000Y-4574000D01*
X6724000Y-4573213D01*
X6726000Y-4573213D01*
X6726000Y-4574000D01*
X6726787Y-4574000D01*
X6726787Y-4576000D01*
G36*
X6931482Y-4052506D02*
X6862988Y-4121000D01*
X6575346Y-4121000D01*
X6579541Y-4110898D01*
X6579559Y-4089197D01*
X6575346Y-4079000D01*
X6875000Y-4079000D01*
X6886098Y-4076793D01*
X6895506Y-4070506D01*
X6913812Y-4052200D01*
X6914511Y-4052491D01*
X6931482Y-4052506D01*
X6931482Y-4052506D01*
G37*
X6931482Y-4052506D02*
X6862988Y-4121000D01*
X6575346Y-4121000D01*
X6579541Y-4110898D01*
X6579559Y-4089197D01*
X6575346Y-4079000D01*
X6875000Y-4079000D01*
X6886098Y-4076793D01*
X6895506Y-4070506D01*
X6913812Y-4052200D01*
X6914511Y-4052491D01*
X6931482Y-4052506D01*
G36*
X7346000Y-4240949D02*
X7338902Y-4237810D01*
X7314045Y-4237224D01*
X7290855Y-4246195D01*
X7288357Y-4247864D01*
X7286841Y-4260427D01*
X7325000Y-4298586D01*
X7325557Y-4298029D01*
X7326971Y-4299443D01*
X7326414Y-4300000D01*
X7326971Y-4300557D01*
X7325557Y-4301971D01*
X7325000Y-4301414D01*
X7324443Y-4301971D01*
X7323029Y-4300557D01*
X7323586Y-4300000D01*
X7285427Y-4261841D01*
X7272864Y-4263357D01*
X7269660Y-4270606D01*
X7269533Y-4270300D01*
X7254778Y-4255519D01*
X7235489Y-4247509D01*
X7214603Y-4247491D01*
X7195300Y-4255467D01*
X7180519Y-4270222D01*
X7174996Y-4283521D01*
X7169533Y-4270300D01*
X7154778Y-4255519D01*
X7135489Y-4247509D01*
X7114603Y-4247491D01*
X7095300Y-4255467D01*
X7080519Y-4270222D01*
X7074996Y-4283521D01*
X7069533Y-4270300D01*
X7054778Y-4255519D01*
X7035489Y-4247509D01*
X7014603Y-4247491D01*
X6995300Y-4255467D01*
X6980519Y-4270222D01*
X6974996Y-4283521D01*
X6969533Y-4270300D01*
X6954778Y-4255519D01*
X6935489Y-4247509D01*
X6914603Y-4247491D01*
X6913825Y-4247812D01*
X6895506Y-4229494D01*
X6886098Y-4223207D01*
X6875000Y-4221000D01*
X6586296Y-4221000D01*
X6589222Y-4214390D01*
X6589840Y-4188718D01*
X6586087Y-4179000D01*
X6875000Y-4179000D01*
X6886098Y-4176793D01*
X6895506Y-4170506D01*
X6932523Y-4133489D01*
X6938949Y-4149043D01*
X6950894Y-4161009D01*
X6966509Y-4167493D01*
X6983417Y-4167507D01*
X6999043Y-4161051D01*
X7006106Y-4154000D01*
X7100000Y-4154000D01*
X7111098Y-4151793D01*
X7120506Y-4145506D01*
X7213812Y-4052200D01*
X7214511Y-4052491D01*
X7235397Y-4052509D01*
X7254700Y-4044533D01*
X7269481Y-4029778D01*
X7275004Y-4016478D01*
X7280467Y-4029700D01*
X7295222Y-4044481D01*
X7296000Y-4044804D01*
X7296000Y-4150000D01*
X7298207Y-4161098D01*
X7304494Y-4170506D01*
X7346000Y-4212012D01*
X7346000Y-4240949D01*
X7346000Y-4240949D01*
G37*
X7346000Y-4240949D02*
X7338902Y-4237810D01*
X7314045Y-4237224D01*
X7290855Y-4246195D01*
X7288357Y-4247864D01*
X7286841Y-4260427D01*
X7325000Y-4298586D01*
X7325557Y-4298029D01*
X7326971Y-4299443D01*
X7326414Y-4300000D01*
X7326971Y-4300557D01*
X7325557Y-4301971D01*
X7325000Y-4301414D01*
X7324443Y-4301971D01*
X7323029Y-4300557D01*
X7323586Y-4300000D01*
X7285427Y-4261841D01*
X7272864Y-4263357D01*
X7269660Y-4270606D01*
X7269533Y-4270300D01*
X7254778Y-4255519D01*
X7235489Y-4247509D01*
X7214603Y-4247491D01*
X7195300Y-4255467D01*
X7180519Y-4270222D01*
X7174996Y-4283521D01*
X7169533Y-4270300D01*
X7154778Y-4255519D01*
X7135489Y-4247509D01*
X7114603Y-4247491D01*
X7095300Y-4255467D01*
X7080519Y-4270222D01*
X7074996Y-4283521D01*
X7069533Y-4270300D01*
X7054778Y-4255519D01*
X7035489Y-4247509D01*
X7014603Y-4247491D01*
X6995300Y-4255467D01*
X6980519Y-4270222D01*
X6974996Y-4283521D01*
X6969533Y-4270300D01*
X6954778Y-4255519D01*
X6935489Y-4247509D01*
X6914603Y-4247491D01*
X6913825Y-4247812D01*
X6895506Y-4229494D01*
X6886098Y-4223207D01*
X6875000Y-4221000D01*
X6586296Y-4221000D01*
X6589222Y-4214390D01*
X6589840Y-4188718D01*
X6586087Y-4179000D01*
X6875000Y-4179000D01*
X6886098Y-4176793D01*
X6895506Y-4170506D01*
X6932523Y-4133489D01*
X6938949Y-4149043D01*
X6950894Y-4161009D01*
X6966509Y-4167493D01*
X6983417Y-4167507D01*
X6999043Y-4161051D01*
X7006106Y-4154000D01*
X7100000Y-4154000D01*
X7111098Y-4151793D01*
X7120506Y-4145506D01*
X7213812Y-4052200D01*
X7214511Y-4052491D01*
X7235397Y-4052509D01*
X7254700Y-4044533D01*
X7269481Y-4029778D01*
X7275004Y-4016478D01*
X7280467Y-4029700D01*
X7295222Y-4044481D01*
X7296000Y-4044804D01*
X7296000Y-4150000D01*
X7298207Y-4161098D01*
X7304494Y-4170506D01*
X7346000Y-4212012D01*
X7346000Y-4240949D01*
G36*
X7848031Y-5879528D02*
X7831194Y-5879528D01*
X7831194Y-5683253D01*
X7831194Y-4108450D01*
X7809746Y-4051440D01*
X7804046Y-4042910D01*
X7782069Y-4030369D01*
X7780655Y-4031783D01*
X7780655Y-4028954D01*
X7768114Y-4006978D01*
X7712635Y-3981831D01*
X7651757Y-3979830D01*
X7594747Y-4001278D01*
X7586217Y-4006978D01*
X7573676Y-4028954D01*
X7677165Y-4132444D01*
X7780655Y-4028954D01*
X7780655Y-4031783D01*
X7678580Y-4133858D01*
X7782069Y-4237348D01*
X7804046Y-4224806D01*
X7829192Y-4169328D01*
X7831194Y-4108450D01*
X7831194Y-5683253D01*
X7809746Y-5626243D01*
X7804046Y-5617713D01*
X7782069Y-5605172D01*
X7780655Y-5606586D01*
X7780655Y-5603758D01*
X7768114Y-5581781D01*
X7712635Y-5556635D01*
X7651757Y-5554633D01*
X7594747Y-5576081D01*
X7586217Y-5581781D01*
X7573676Y-5603758D01*
X7677165Y-5707247D01*
X7780655Y-5603758D01*
X7780655Y-5606586D01*
X7678580Y-5708661D01*
X7782069Y-5812151D01*
X7804046Y-5799610D01*
X7829192Y-5744131D01*
X7831194Y-5683253D01*
X7831194Y-5879528D01*
X7780655Y-5879528D01*
X7780655Y-5813565D01*
X7677165Y-5710076D01*
X7675751Y-5711490D01*
X7675751Y-5708661D01*
X7572261Y-5605172D01*
X7550285Y-5617713D01*
X7525139Y-5673191D01*
X7523137Y-5734070D01*
X7544585Y-5791080D01*
X7550285Y-5799610D01*
X7572261Y-5812151D01*
X7675751Y-5708661D01*
X7675751Y-5711490D01*
X7573676Y-5813565D01*
X7586217Y-5835542D01*
X7641695Y-5860688D01*
X7702574Y-5862690D01*
X7759584Y-5841242D01*
X7768114Y-5835542D01*
X7780655Y-5813565D01*
X7780655Y-5879528D01*
X7472190Y-5879528D01*
X7474350Y-5874312D01*
X7474350Y-5837750D01*
X7474350Y-5818250D01*
X7474350Y-5781688D01*
X7469022Y-5768824D01*
X7459176Y-5758978D01*
X7446312Y-5753650D01*
X7432388Y-5753650D01*
X7409750Y-5753650D01*
X7401000Y-5762400D01*
X7401000Y-5827000D01*
X7465600Y-5827000D01*
X7474350Y-5818250D01*
X7474350Y-5837750D01*
X7465600Y-5829000D01*
X7401000Y-5829000D01*
X7401000Y-5829787D01*
X7399000Y-5829787D01*
X7399000Y-5829000D01*
X7399000Y-5827000D01*
X7399000Y-5762400D01*
X7390250Y-5753650D01*
X7367612Y-5753650D01*
X7353688Y-5753650D01*
X7340824Y-5758978D01*
X7330978Y-5768824D01*
X7325650Y-5781688D01*
X7325650Y-5818250D01*
X7334400Y-5827000D01*
X7399000Y-5827000D01*
X7399000Y-5829000D01*
X7334400Y-5829000D01*
X7325650Y-5837750D01*
X7325650Y-5874312D01*
X7327810Y-5879528D01*
X7090294Y-5879528D01*
X7090294Y-5613646D01*
X7080978Y-5589524D01*
X7079198Y-5586859D01*
X7066376Y-5585038D01*
X7026414Y-5625000D01*
X7066376Y-5664962D01*
X7079198Y-5663141D01*
X7089668Y-5639497D01*
X7090294Y-5613646D01*
X7090294Y-5879528D01*
X6364840Y-5879528D01*
X6364840Y-5588718D01*
X6355587Y-5564763D01*
X6354559Y-5563225D01*
X6354559Y-5489197D01*
X6346272Y-5469140D01*
X6330940Y-5453782D01*
X6310898Y-5445459D01*
X6289197Y-5445441D01*
X6269140Y-5453728D01*
X6253782Y-5469060D01*
X6252976Y-5471000D01*
X6144235Y-5471000D01*
X6130940Y-5457682D01*
X6110898Y-5449359D01*
X6089197Y-5449341D01*
X6069140Y-5457628D01*
X6053782Y-5472960D01*
X6045459Y-5493002D01*
X6045441Y-5514703D01*
X6053728Y-5534760D01*
X6069060Y-5550118D01*
X6089102Y-5558441D01*
X6110803Y-5558459D01*
X6130860Y-5550172D01*
X6146218Y-5534840D01*
X6148643Y-5529000D01*
X6252959Y-5529000D01*
X6253728Y-5530860D01*
X6266563Y-5543718D01*
X6264763Y-5544413D01*
X6262129Y-5546173D01*
X6260363Y-5558948D01*
X6300000Y-5598586D01*
X6339637Y-5558948D01*
X6337871Y-5546173D01*
X6333083Y-5544053D01*
X6346218Y-5530940D01*
X6354541Y-5510898D01*
X6354559Y-5489197D01*
X6354559Y-5563225D01*
X6353827Y-5562129D01*
X6341052Y-5560363D01*
X6301414Y-5600000D01*
X6341052Y-5639637D01*
X6353827Y-5637871D01*
X6364222Y-5614390D01*
X6364840Y-5588718D01*
X6364840Y-5879528D01*
X6339637Y-5879528D01*
X6339637Y-5641052D01*
X6300000Y-5601414D01*
X6298586Y-5602828D01*
X6298586Y-5600000D01*
X6258948Y-5560363D01*
X6246173Y-5562129D01*
X6235778Y-5585610D01*
X6235160Y-5611282D01*
X6244413Y-5635237D01*
X6246173Y-5637871D01*
X6258948Y-5639637D01*
X6298586Y-5600000D01*
X6298586Y-5602828D01*
X6260363Y-5641052D01*
X6262129Y-5653827D01*
X6285610Y-5664222D01*
X6311282Y-5664840D01*
X6335237Y-5655587D01*
X6337871Y-5653827D01*
X6339637Y-5641052D01*
X6339637Y-5879528D01*
X6154559Y-5879528D01*
X6154559Y-5685297D01*
X6146272Y-5665240D01*
X6130940Y-5649882D01*
X6110898Y-5641559D01*
X6089197Y-5641541D01*
X6069140Y-5649828D01*
X6053782Y-5665160D01*
X6051357Y-5671000D01*
X5964840Y-5671000D01*
X5964840Y-5588718D01*
X5955587Y-5564763D01*
X5953827Y-5562129D01*
X5941052Y-5560363D01*
X5939637Y-5561777D01*
X5939637Y-5558948D01*
X5939637Y-5491052D01*
X5900000Y-5451414D01*
X5860363Y-5491052D01*
X5862129Y-5503827D01*
X5885610Y-5514222D01*
X5911282Y-5514840D01*
X5935237Y-5505587D01*
X5937871Y-5503827D01*
X5939637Y-5491052D01*
X5939637Y-5558948D01*
X5937871Y-5546173D01*
X5914390Y-5535778D01*
X5888718Y-5535160D01*
X5864763Y-5544413D01*
X5862129Y-5546173D01*
X5860363Y-5558948D01*
X5900000Y-5598586D01*
X5939637Y-5558948D01*
X5939637Y-5561777D01*
X5901414Y-5600000D01*
X5941052Y-5639637D01*
X5953827Y-5637871D01*
X5964222Y-5614390D01*
X5964840Y-5588718D01*
X5964840Y-5671000D01*
X5947041Y-5671000D01*
X5946272Y-5669140D01*
X5933437Y-5656282D01*
X5935237Y-5655587D01*
X5937871Y-5653827D01*
X5939637Y-5641052D01*
X5900000Y-5601414D01*
X5898586Y-5602828D01*
X5898586Y-5600000D01*
X5858948Y-5560363D01*
X5846173Y-5562129D01*
X5835778Y-5585610D01*
X5835160Y-5611282D01*
X5844413Y-5635237D01*
X5846173Y-5637871D01*
X5858948Y-5639637D01*
X5898586Y-5600000D01*
X5898586Y-5602828D01*
X5860363Y-5641052D01*
X5862129Y-5653827D01*
X5866917Y-5655947D01*
X5853782Y-5669060D01*
X5845459Y-5689102D01*
X5845441Y-5710803D01*
X5853728Y-5730860D01*
X5869060Y-5746218D01*
X5889102Y-5754541D01*
X5910803Y-5754559D01*
X5930860Y-5746272D01*
X5946218Y-5730940D01*
X5947024Y-5729000D01*
X6055764Y-5729000D01*
X6069060Y-5742318D01*
X6089102Y-5750641D01*
X6110803Y-5750659D01*
X6130860Y-5742372D01*
X6146218Y-5727040D01*
X6154541Y-5706998D01*
X6154559Y-5685297D01*
X6154559Y-5879528D01*
X5767987Y-5879528D01*
X5767987Y-5811781D01*
X5760243Y-5801000D01*
X5701000Y-5801000D01*
X5701000Y-5860242D01*
X5711781Y-5867987D01*
X5715134Y-5867320D01*
X5739744Y-5856404D01*
X5758304Y-5836901D01*
X5767987Y-5811781D01*
X5767987Y-5879528D01*
X5459010Y-5879528D01*
X5459010Y-5788316D01*
X5450047Y-5766623D01*
X5433464Y-5750011D01*
X5411787Y-5741010D01*
X5388316Y-5740990D01*
X5366623Y-5749953D01*
X5350011Y-5766536D01*
X5349996Y-5766572D01*
X5333464Y-5750011D01*
X5311787Y-5741010D01*
X5288316Y-5740990D01*
X5266623Y-5749953D01*
X5250011Y-5766536D01*
X5249996Y-5766572D01*
X5233464Y-5750011D01*
X5211787Y-5741010D01*
X5188316Y-5740990D01*
X5166623Y-5749953D01*
X5150011Y-5766536D01*
X5149996Y-5766572D01*
X5133464Y-5750011D01*
X5111787Y-5741010D01*
X5088316Y-5740990D01*
X5066623Y-5749953D01*
X5050011Y-5766536D01*
X5049996Y-5766572D01*
X5033464Y-5750011D01*
X5011787Y-5741010D01*
X4988316Y-5740990D01*
X4966623Y-5749953D01*
X4965642Y-5750932D01*
X4963672Y-5746174D01*
X4953826Y-5736328D01*
X4940962Y-5731000D01*
X4909750Y-5731000D01*
X4901000Y-5739750D01*
X4901000Y-5799000D01*
X4901787Y-5799000D01*
X4901787Y-5801000D01*
X4901000Y-5801000D01*
X4901000Y-5860250D01*
X4909750Y-5869000D01*
X4940962Y-5869000D01*
X4953826Y-5863672D01*
X4963672Y-5853826D01*
X4965635Y-5849086D01*
X4966536Y-5849989D01*
X4988213Y-5858990D01*
X5011684Y-5859010D01*
X5033377Y-5850047D01*
X5049989Y-5833464D01*
X5050004Y-5833428D01*
X5066536Y-5849989D01*
X5088213Y-5858990D01*
X5111684Y-5859010D01*
X5133377Y-5850047D01*
X5149989Y-5833464D01*
X5150004Y-5833428D01*
X5166536Y-5849989D01*
X5188213Y-5858990D01*
X5211684Y-5859010D01*
X5233377Y-5850047D01*
X5249989Y-5833464D01*
X5250004Y-5833428D01*
X5266536Y-5849989D01*
X5288213Y-5858990D01*
X5311684Y-5859010D01*
X5333377Y-5850047D01*
X5349989Y-5833464D01*
X5350004Y-5833428D01*
X5366536Y-5849989D01*
X5388213Y-5858990D01*
X5411684Y-5859010D01*
X5433377Y-5850047D01*
X5449989Y-5833464D01*
X5458990Y-5811787D01*
X5459010Y-5788316D01*
X5459010Y-5879528D01*
X4899000Y-5879528D01*
X4899000Y-5860250D01*
X4899000Y-5801000D01*
X4899000Y-5799000D01*
X4899000Y-5739750D01*
X4890250Y-5731000D01*
X4859038Y-5731000D01*
X4846174Y-5736328D01*
X4839361Y-5743141D01*
X4839361Y-5037256D01*
X4829585Y-5013596D01*
X4811499Y-4995479D01*
X4787856Y-4985661D01*
X4762256Y-4985639D01*
X4739488Y-4995047D01*
X4737857Y-4987431D01*
X4722694Y-4965441D01*
X4700271Y-4950928D01*
X4686694Y-4947106D01*
X4676000Y-4954858D01*
X4676000Y-5049000D01*
X4676787Y-5049000D01*
X4676787Y-5051000D01*
X4676000Y-5051000D01*
X4676000Y-5145142D01*
X4686694Y-5152894D01*
X4700271Y-5149072D01*
X4722694Y-5134559D01*
X4737857Y-5112569D01*
X4739492Y-5104933D01*
X4762144Y-5114339D01*
X4787744Y-5114361D01*
X4811404Y-5104585D01*
X4829521Y-5086499D01*
X4839339Y-5062856D01*
X4839361Y-5037256D01*
X4839361Y-5743141D01*
X4836328Y-5746174D01*
X4831000Y-5759038D01*
X4831000Y-5772962D01*
X4831000Y-5790250D01*
X4839750Y-5799000D01*
X4899000Y-5799000D01*
X4899000Y-5801000D01*
X4839750Y-5801000D01*
X4831000Y-5809750D01*
X4831000Y-5827038D01*
X4831000Y-5840962D01*
X4836328Y-5853826D01*
X4846174Y-5863672D01*
X4859038Y-5869000D01*
X4890250Y-5869000D01*
X4899000Y-5860250D01*
X4899000Y-5879528D01*
X4790000Y-5879528D01*
X4790000Y-5834973D01*
X4790000Y-5825027D01*
X4790000Y-5205027D01*
X4786194Y-5195839D01*
X4779161Y-5188806D01*
X4769973Y-5185000D01*
X4760027Y-5185000D01*
X4674000Y-5185000D01*
X4674000Y-5145142D01*
X4674000Y-5051000D01*
X4673213Y-5051000D01*
X4673213Y-5049000D01*
X4674000Y-5049000D01*
X4674000Y-4954858D01*
X4663306Y-4947106D01*
X4649729Y-4950928D01*
X4627306Y-4965441D01*
X4620000Y-4976037D01*
X4620000Y-4975000D01*
X4616575Y-4957779D01*
X4606820Y-4943180D01*
X4557858Y-4894219D01*
X4561992Y-4894322D01*
X4587608Y-4884456D01*
X4590539Y-4882498D01*
X4592846Y-4869260D01*
X4550000Y-4826414D01*
X4549443Y-4826971D01*
X4548029Y-4825557D01*
X4548586Y-4825000D01*
X4548029Y-4824443D01*
X4549443Y-4823029D01*
X4550000Y-4823586D01*
X4592846Y-4780740D01*
X4590539Y-4767502D01*
X4585156Y-4765113D01*
X4585156Y-4625000D01*
X4580665Y-4602422D01*
X4567875Y-4583281D01*
X4567046Y-4582727D01*
X4573161Y-4580194D01*
X4580194Y-4573161D01*
X4584000Y-4563973D01*
X4584000Y-4554027D01*
X4584000Y-4486027D01*
X4580194Y-4476839D01*
X4573161Y-4469806D01*
X4564361Y-4466161D01*
X4564361Y-4387256D01*
X4554585Y-4363596D01*
X4536499Y-4345479D01*
X4517266Y-4337492D01*
X4536404Y-4329585D01*
X4554521Y-4311499D01*
X4564339Y-4287856D01*
X4564361Y-4262256D01*
X4554585Y-4238596D01*
X4536499Y-4220479D01*
X4512856Y-4210661D01*
X4487256Y-4210639D01*
X4463596Y-4220415D01*
X4445479Y-4238501D01*
X4435661Y-4262144D01*
X4435639Y-4287744D01*
X4445415Y-4311404D01*
X4463501Y-4329521D01*
X4482734Y-4337507D01*
X4463596Y-4345415D01*
X4445479Y-4363501D01*
X4435661Y-4387144D01*
X4435639Y-4412744D01*
X4445415Y-4436404D01*
X4463501Y-4454521D01*
X4487144Y-4464339D01*
X4512744Y-4464361D01*
X4536404Y-4454585D01*
X4554521Y-4436499D01*
X4564339Y-4412856D01*
X4564361Y-4387256D01*
X4564361Y-4466161D01*
X4563973Y-4466000D01*
X4554027Y-4466000D01*
X4486027Y-4466000D01*
X4476839Y-4469806D01*
X4469806Y-4476839D01*
X4467297Y-4482895D01*
X4448734Y-4470491D01*
X4426156Y-4466000D01*
X4423844Y-4466000D01*
X4401266Y-4470491D01*
X4390294Y-4477823D01*
X4390294Y-4288646D01*
X4380978Y-4264524D01*
X4379198Y-4261859D01*
X4366376Y-4260038D01*
X4364962Y-4261452D01*
X4364962Y-4258624D01*
X4363141Y-4245802D01*
X4339497Y-4235332D01*
X4313646Y-4234706D01*
X4289524Y-4244022D01*
X4286859Y-4245802D01*
X4285038Y-4258624D01*
X4325000Y-4298586D01*
X4364962Y-4258624D01*
X4364962Y-4261452D01*
X4326414Y-4300000D01*
X4366376Y-4339962D01*
X4379198Y-4338141D01*
X4389668Y-4314497D01*
X4390294Y-4288646D01*
X4390294Y-4477823D01*
X4382125Y-4483281D01*
X4380010Y-4486446D01*
X4380010Y-4389108D01*
X4371654Y-4368886D01*
X4359244Y-4356454D01*
X4360476Y-4355978D01*
X4363141Y-4354198D01*
X4364962Y-4341376D01*
X4325000Y-4301414D01*
X4323586Y-4302828D01*
X4323586Y-4300000D01*
X4283624Y-4260038D01*
X4270802Y-4261859D01*
X4260332Y-4285503D01*
X4259706Y-4311354D01*
X4269022Y-4335476D01*
X4270802Y-4338141D01*
X4283624Y-4339962D01*
X4323586Y-4300000D01*
X4323586Y-4302828D01*
X4285038Y-4341376D01*
X4286859Y-4354198D01*
X4291135Y-4356092D01*
X4278400Y-4368804D01*
X4270010Y-4389012D01*
X4269990Y-4410892D01*
X4278346Y-4431114D01*
X4293804Y-4446600D01*
X4314012Y-4454990D01*
X4335892Y-4455010D01*
X4356114Y-4446654D01*
X4371600Y-4431196D01*
X4379990Y-4410988D01*
X4380010Y-4389108D01*
X4380010Y-4486446D01*
X4369335Y-4502422D01*
X4364844Y-4525000D01*
X4369335Y-4547578D01*
X4382125Y-4566719D01*
X4394518Y-4575000D01*
X4382125Y-4583281D01*
X4369335Y-4602422D01*
X4364844Y-4625000D01*
X4369335Y-4647578D01*
X4382125Y-4666719D01*
X4401266Y-4679509D01*
X4423844Y-4684000D01*
X4426156Y-4684000D01*
X4448734Y-4679509D01*
X4467875Y-4666719D01*
X4475000Y-4656056D01*
X4482125Y-4666719D01*
X4501266Y-4679509D01*
X4523844Y-4684000D01*
X4526156Y-4684000D01*
X4548734Y-4679509D01*
X4567875Y-4666719D01*
X4580665Y-4647578D01*
X4585156Y-4625000D01*
X4585156Y-4765113D01*
X4565449Y-4756366D01*
X4538008Y-4755678D01*
X4512392Y-4765544D01*
X4509461Y-4767502D01*
X4507154Y-4780739D01*
X4506566Y-4780152D01*
X4505194Y-4776839D01*
X4498161Y-4769806D01*
X4488973Y-4766000D01*
X4479027Y-4766000D01*
X4411027Y-4766000D01*
X4401839Y-4769806D01*
X4394806Y-4776839D01*
X4391000Y-4786027D01*
X4391000Y-4795973D01*
X4391000Y-4863973D01*
X4394806Y-4873161D01*
X4401645Y-4880000D01*
X4287887Y-4880000D01*
X4287887Y-4502151D01*
X4266439Y-4445141D01*
X4260739Y-4436611D01*
X4238762Y-4424069D01*
X4237348Y-4425484D01*
X4237348Y-4422655D01*
X4224806Y-4400678D01*
X4169328Y-4375532D01*
X4108450Y-4373531D01*
X4051440Y-4394979D01*
X4049000Y-4396609D01*
X4049000Y-4210250D01*
X4049000Y-4151000D01*
X4049000Y-4149000D01*
X4049000Y-4110243D01*
X4049000Y-4089750D01*
X4049000Y-4051000D01*
X4049000Y-4049000D01*
X4049000Y-3989757D01*
X4038219Y-3982013D01*
X4013099Y-3991696D01*
X3993596Y-4010256D01*
X3982680Y-4034866D01*
X3982013Y-4038219D01*
X3989758Y-4049000D01*
X4049000Y-4049000D01*
X4049000Y-4051000D01*
X3989758Y-4051000D01*
X3982013Y-4061781D01*
X3982680Y-4065134D01*
X3993339Y-4089164D01*
X3986328Y-4096174D01*
X3981000Y-4109038D01*
X3981000Y-4122962D01*
X3981000Y-4140250D01*
X3989750Y-4149000D01*
X4049000Y-4149000D01*
X4049000Y-4151000D01*
X3989750Y-4151000D01*
X3981000Y-4159750D01*
X3981000Y-4177038D01*
X3981000Y-4190962D01*
X3986328Y-4203826D01*
X3996174Y-4213672D01*
X4009038Y-4219000D01*
X4040250Y-4219000D01*
X4049000Y-4210250D01*
X4049000Y-4396609D01*
X4042910Y-4400678D01*
X4030369Y-4422655D01*
X4133858Y-4526145D01*
X4237348Y-4422655D01*
X4237348Y-4425484D01*
X4135272Y-4527559D01*
X4238762Y-4631049D01*
X4260739Y-4618507D01*
X4285885Y-4563029D01*
X4287887Y-4502151D01*
X4287887Y-4880000D01*
X4275365Y-4880000D01*
X4275365Y-4788626D01*
X4264673Y-4760770D01*
X4262447Y-4757440D01*
X4248587Y-4754402D01*
X4247172Y-4755817D01*
X4247172Y-4752988D01*
X4244135Y-4739127D01*
X4237348Y-4736106D01*
X4237348Y-4632463D01*
X4133858Y-4528973D01*
X4132444Y-4530387D01*
X4132444Y-4527559D01*
X4028954Y-4424069D01*
X4006978Y-4436611D01*
X3981831Y-4492089D01*
X3979830Y-4552967D01*
X4001278Y-4609977D01*
X4006978Y-4618507D01*
X4028954Y-4631049D01*
X4132444Y-4527559D01*
X4132444Y-4530387D01*
X4030369Y-4632463D01*
X4042910Y-4654440D01*
X4098388Y-4679586D01*
X4159266Y-4681587D01*
X4216276Y-4660139D01*
X4224806Y-4654440D01*
X4237348Y-4632463D01*
X4237348Y-4736106D01*
X4216878Y-4726991D01*
X4187051Y-4726210D01*
X4159196Y-4736902D01*
X4155865Y-4739127D01*
X4152828Y-4752988D01*
X4200000Y-4800161D01*
X4247172Y-4752988D01*
X4247172Y-4755817D01*
X4201414Y-4801575D01*
X4248587Y-4848747D01*
X4262447Y-4845709D01*
X4274584Y-4818452D01*
X4275365Y-4788626D01*
X4275365Y-4880000D01*
X4273425Y-4880000D01*
X4256204Y-4883425D01*
X4247172Y-4889460D01*
X4247172Y-4850161D01*
X4200000Y-4802989D01*
X4198586Y-4804403D01*
X4198586Y-4801575D01*
X4151413Y-4754402D01*
X4137553Y-4757440D01*
X4125416Y-4784697D01*
X4124635Y-4814524D01*
X4135327Y-4842379D01*
X4137553Y-4845709D01*
X4151413Y-4848747D01*
X4198586Y-4801575D01*
X4198586Y-4804403D01*
X4152828Y-4850161D01*
X4155865Y-4864022D01*
X4183122Y-4876158D01*
X4212949Y-4876940D01*
X4240804Y-4866248D01*
X4244135Y-4864022D01*
X4247172Y-4850161D01*
X4247172Y-4889460D01*
X4241605Y-4893180D01*
X4201359Y-4933426D01*
X4187127Y-4933414D01*
X4163229Y-4943289D01*
X4144928Y-4961558D01*
X4135011Y-4985439D01*
X4134989Y-5011298D01*
X4144864Y-5035197D01*
X4163132Y-5053497D01*
X4187014Y-5063414D01*
X4212873Y-5063436D01*
X4236771Y-5053562D01*
X4255072Y-5035293D01*
X4264989Y-5011411D01*
X4265001Y-4997064D01*
X4292065Y-4970000D01*
X4435735Y-4970000D01*
X4433670Y-4971380D01*
X4420999Y-4990343D01*
X4416550Y-5012710D01*
X4416550Y-5087290D01*
X4420999Y-5109657D01*
X4433670Y-5128620D01*
X4452632Y-5141290D01*
X4475000Y-5145740D01*
X4497368Y-5141290D01*
X4516330Y-5128620D01*
X4525000Y-5115645D01*
X4533670Y-5128620D01*
X4552632Y-5141290D01*
X4575000Y-5145740D01*
X4597368Y-5141290D01*
X4616330Y-5128620D01*
X4619717Y-5123552D01*
X4627306Y-5134559D01*
X4649729Y-5149072D01*
X4663306Y-5152894D01*
X4674000Y-5145142D01*
X4674000Y-5185000D01*
X4380027Y-5185000D01*
X4370839Y-5188806D01*
X4363806Y-5195839D01*
X4360000Y-5205027D01*
X4360000Y-5214973D01*
X4360000Y-5834973D01*
X4363806Y-5844161D01*
X4370839Y-5851194D01*
X4380027Y-5855000D01*
X4389973Y-5855000D01*
X4769973Y-5855000D01*
X4779161Y-5851194D01*
X4786194Y-5844161D01*
X4790000Y-5834973D01*
X4790000Y-5879528D01*
X4287887Y-5879528D01*
X4287887Y-5683253D01*
X4275365Y-5649970D01*
X4275365Y-5238626D01*
X4264673Y-5210770D01*
X4262447Y-5207440D01*
X4248587Y-5204402D01*
X4247172Y-5205817D01*
X4247172Y-5202988D01*
X4244135Y-5189127D01*
X4216878Y-5176991D01*
X4187051Y-5176210D01*
X4159196Y-5186902D01*
X4155865Y-5189127D01*
X4152828Y-5202988D01*
X4200000Y-5250161D01*
X4247172Y-5202988D01*
X4247172Y-5205817D01*
X4201414Y-5251575D01*
X4248587Y-5298747D01*
X4262447Y-5295709D01*
X4274584Y-5268452D01*
X4275365Y-5238626D01*
X4275365Y-5649970D01*
X4266439Y-5626243D01*
X4265011Y-5624107D01*
X4265011Y-5435553D01*
X4255136Y-5411654D01*
X4247172Y-5403676D01*
X4247172Y-5300161D01*
X4200000Y-5252989D01*
X4198586Y-5254403D01*
X4198586Y-5251575D01*
X4151413Y-5204402D01*
X4137553Y-5207440D01*
X4125416Y-5234697D01*
X4124635Y-5264524D01*
X4135327Y-5292379D01*
X4137553Y-5295709D01*
X4151413Y-5298747D01*
X4198586Y-5251575D01*
X4198586Y-5254403D01*
X4152828Y-5300161D01*
X4155865Y-5314022D01*
X4183122Y-5326158D01*
X4212949Y-5326940D01*
X4240804Y-5316248D01*
X4244135Y-5314022D01*
X4247172Y-5300161D01*
X4247172Y-5403676D01*
X4236868Y-5393353D01*
X4212986Y-5383436D01*
X4187127Y-5383414D01*
X4163229Y-5393289D01*
X4144928Y-5411558D01*
X4135011Y-5435439D01*
X4134989Y-5461298D01*
X4144864Y-5485197D01*
X4163132Y-5503497D01*
X4187014Y-5513414D01*
X4212873Y-5513436D01*
X4236771Y-5503562D01*
X4255072Y-5485293D01*
X4264989Y-5461411D01*
X4265011Y-5435553D01*
X4265011Y-5624107D01*
X4260739Y-5617713D01*
X4238762Y-5605172D01*
X4237348Y-5606586D01*
X4237348Y-5603758D01*
X4224806Y-5581781D01*
X4169328Y-5556635D01*
X4108450Y-5554633D01*
X4051440Y-5576081D01*
X4042910Y-5581781D01*
X4030369Y-5603758D01*
X4133858Y-5707247D01*
X4237348Y-5603758D01*
X4237348Y-5606586D01*
X4135272Y-5708661D01*
X4238762Y-5812151D01*
X4260739Y-5799610D01*
X4285885Y-5744131D01*
X4287887Y-5683253D01*
X4287887Y-5879528D01*
X4237348Y-5879528D01*
X4237348Y-5813565D01*
X4133858Y-5710076D01*
X4132444Y-5711490D01*
X4132444Y-5708661D01*
X4028954Y-5605172D01*
X4006978Y-5617713D01*
X3981831Y-5673191D01*
X3979830Y-5734070D01*
X4001278Y-5791080D01*
X4006978Y-5799610D01*
X4028954Y-5812151D01*
X4132444Y-5708661D01*
X4132444Y-5711490D01*
X4030369Y-5813565D01*
X4042910Y-5835542D01*
X4098388Y-5860688D01*
X4159266Y-5862690D01*
X4216276Y-5841242D01*
X4224806Y-5835542D01*
X4237348Y-5813565D01*
X4237348Y-5879528D01*
X3962992Y-5879528D01*
X3962992Y-3962992D01*
X6687761Y-3962992D01*
X6680519Y-3970222D01*
X6672509Y-3989511D01*
X6672491Y-4010397D01*
X6676872Y-4021000D01*
X6350000Y-4021000D01*
X6338902Y-4023207D01*
X6329494Y-4029494D01*
X6310890Y-4048098D01*
X6317987Y-4038219D01*
X6317320Y-4034866D01*
X6306404Y-4010256D01*
X6286901Y-3991696D01*
X6261781Y-3982013D01*
X6251000Y-3989757D01*
X6251000Y-4049000D01*
X6251787Y-4049000D01*
X6251787Y-4051000D01*
X6251000Y-4051000D01*
X6251000Y-4051787D01*
X6249000Y-4051787D01*
X6249000Y-4051000D01*
X6249000Y-4049000D01*
X6249000Y-3989757D01*
X6238219Y-3982013D01*
X6213099Y-3991696D01*
X6200000Y-4004162D01*
X6186901Y-3991696D01*
X6161781Y-3982013D01*
X6151000Y-3989757D01*
X6151000Y-4049000D01*
X6189758Y-4049000D01*
X6210242Y-4049000D01*
X6249000Y-4049000D01*
X6249000Y-4051000D01*
X6210242Y-4051000D01*
X6189758Y-4051000D01*
X6151000Y-4051000D01*
X6151000Y-4051787D01*
X6149000Y-4051787D01*
X6149000Y-4051000D01*
X6148213Y-4051000D01*
X6148213Y-4049000D01*
X6149000Y-4049000D01*
X6149000Y-3989757D01*
X6138219Y-3982013D01*
X6113099Y-3991696D01*
X6093962Y-4009907D01*
X6092875Y-4008281D01*
X6073734Y-3995491D01*
X6051156Y-3991000D01*
X6048844Y-3991000D01*
X6026266Y-3995491D01*
X6007125Y-4008281D01*
X6000000Y-4018944D01*
X5992875Y-4008281D01*
X5973734Y-3995491D01*
X5951156Y-3991000D01*
X5948844Y-3991000D01*
X5926266Y-3995491D01*
X5907125Y-4008281D01*
X5900000Y-4018944D01*
X5892875Y-4008281D01*
X5873734Y-3995491D01*
X5851156Y-3991000D01*
X5848844Y-3991000D01*
X5826266Y-3995491D01*
X5807125Y-4008281D01*
X5800000Y-4018944D01*
X5792875Y-4008281D01*
X5773734Y-3995491D01*
X5751156Y-3991000D01*
X5748844Y-3991000D01*
X5726266Y-3995491D01*
X5707125Y-4008281D01*
X5700000Y-4018944D01*
X5692875Y-4008281D01*
X5673734Y-3995491D01*
X5651156Y-3991000D01*
X5648844Y-3991000D01*
X5626266Y-3995491D01*
X5607125Y-4008281D01*
X5600000Y-4018944D01*
X5592875Y-4008281D01*
X5573734Y-3995491D01*
X5551156Y-3991000D01*
X5548844Y-3991000D01*
X5526266Y-3995491D01*
X5507125Y-4008281D01*
X5500000Y-4018944D01*
X5492875Y-4008281D01*
X5473734Y-3995491D01*
X5451156Y-3991000D01*
X5448844Y-3991000D01*
X5426266Y-3995491D01*
X5407125Y-4008281D01*
X5400000Y-4018944D01*
X5392875Y-4008281D01*
X5373734Y-3995491D01*
X5351156Y-3991000D01*
X5348844Y-3991000D01*
X5326266Y-3995491D01*
X5307125Y-4008281D01*
X5300000Y-4018944D01*
X5292875Y-4008281D01*
X5273734Y-3995491D01*
X5251156Y-3991000D01*
X5248844Y-3991000D01*
X5226266Y-3995491D01*
X5207125Y-4008281D01*
X5200000Y-4018944D01*
X5192875Y-4008281D01*
X5173734Y-3995491D01*
X5151156Y-3991000D01*
X5148844Y-3991000D01*
X5126266Y-3995491D01*
X5107125Y-4008281D01*
X5100000Y-4018944D01*
X5092875Y-4008281D01*
X5073734Y-3995491D01*
X5051156Y-3991000D01*
X5048844Y-3991000D01*
X5026266Y-3995491D01*
X5007125Y-4008281D01*
X5000000Y-4018944D01*
X4992875Y-4008281D01*
X4973734Y-3995491D01*
X4951156Y-3991000D01*
X4948844Y-3991000D01*
X4926266Y-3995491D01*
X4907125Y-4008281D01*
X4900000Y-4018944D01*
X4892875Y-4008281D01*
X4873734Y-3995491D01*
X4851156Y-3991000D01*
X4848844Y-3991000D01*
X4826266Y-3995491D01*
X4807125Y-4008281D01*
X4800000Y-4018944D01*
X4792875Y-4008281D01*
X4773734Y-3995491D01*
X4751156Y-3991000D01*
X4748844Y-3991000D01*
X4726266Y-3995491D01*
X4707125Y-4008281D01*
X4700000Y-4018944D01*
X4692875Y-4008281D01*
X4673734Y-3995491D01*
X4651156Y-3991000D01*
X4648844Y-3991000D01*
X4626266Y-3995491D01*
X4607125Y-4008281D01*
X4600000Y-4018944D01*
X4592875Y-4008281D01*
X4573734Y-3995491D01*
X4551156Y-3991000D01*
X4548844Y-3991000D01*
X4526266Y-3995491D01*
X4507125Y-4008281D01*
X4500000Y-4018944D01*
X4492875Y-4008281D01*
X4473734Y-3995491D01*
X4451156Y-3991000D01*
X4448844Y-3991000D01*
X4426266Y-3995491D01*
X4407125Y-4008281D01*
X4400000Y-4018944D01*
X4392875Y-4008281D01*
X4373734Y-3995491D01*
X4351156Y-3991000D01*
X4348844Y-3991000D01*
X4326266Y-3995491D01*
X4307125Y-4008281D01*
X4300000Y-4018944D01*
X4292875Y-4008281D01*
X4273734Y-3995491D01*
X4251156Y-3991000D01*
X4248844Y-3991000D01*
X4226266Y-3995491D01*
X4207125Y-4008281D01*
X4200000Y-4018944D01*
X4192875Y-4008281D01*
X4173734Y-3995491D01*
X4151156Y-3991000D01*
X4148844Y-3991000D01*
X4126266Y-3995491D01*
X4107125Y-4008281D01*
X4106038Y-4009907D01*
X4086901Y-3991696D01*
X4061781Y-3982013D01*
X4051000Y-3989757D01*
X4051000Y-4049000D01*
X4051787Y-4049000D01*
X4051787Y-4051000D01*
X4051000Y-4051000D01*
X4051000Y-4089750D01*
X4051000Y-4110243D01*
X4051000Y-4149000D01*
X4051787Y-4149000D01*
X4051787Y-4151000D01*
X4051000Y-4151000D01*
X4051000Y-4210250D01*
X4059750Y-4219000D01*
X4090962Y-4219000D01*
X4103826Y-4213672D01*
X4113672Y-4203826D01*
X4116180Y-4197770D01*
X4126266Y-4204509D01*
X4148844Y-4209000D01*
X4151156Y-4209000D01*
X4173734Y-4204509D01*
X4192875Y-4191719D01*
X4200000Y-4181056D01*
X4207125Y-4191719D01*
X4226266Y-4204509D01*
X4248844Y-4209000D01*
X4251156Y-4209000D01*
X4273734Y-4204509D01*
X4292875Y-4191719D01*
X4300000Y-4181056D01*
X4307125Y-4191719D01*
X4326266Y-4204509D01*
X4348844Y-4209000D01*
X4351156Y-4209000D01*
X4373734Y-4204509D01*
X4392875Y-4191719D01*
X4400000Y-4181056D01*
X4407125Y-4191719D01*
X4426266Y-4204509D01*
X4448844Y-4209000D01*
X4451156Y-4209000D01*
X4473734Y-4204509D01*
X4492875Y-4191719D01*
X4500000Y-4181056D01*
X4507125Y-4191719D01*
X4526266Y-4204509D01*
X4548844Y-4209000D01*
X4551156Y-4209000D01*
X4573734Y-4204509D01*
X4592875Y-4191719D01*
X4600000Y-4181056D01*
X4607125Y-4191719D01*
X4626266Y-4204509D01*
X4648844Y-4209000D01*
X4651156Y-4209000D01*
X4673734Y-4204509D01*
X4692875Y-4191719D01*
X4700000Y-4181056D01*
X4707125Y-4191719D01*
X4726266Y-4204509D01*
X4748844Y-4209000D01*
X4751156Y-4209000D01*
X4773734Y-4204509D01*
X4792875Y-4191719D01*
X4800000Y-4181056D01*
X4807125Y-4191719D01*
X4826266Y-4204509D01*
X4848844Y-4209000D01*
X4851156Y-4209000D01*
X4873734Y-4204509D01*
X4892875Y-4191719D01*
X4900000Y-4181056D01*
X4907125Y-4191719D01*
X4926266Y-4204509D01*
X4948844Y-4209000D01*
X4951156Y-4209000D01*
X4973734Y-4204509D01*
X4992875Y-4191719D01*
X5000000Y-4181056D01*
X5007125Y-4191719D01*
X5026266Y-4204509D01*
X5048844Y-4209000D01*
X5051156Y-4209000D01*
X5073734Y-4204509D01*
X5092875Y-4191719D01*
X5100000Y-4181056D01*
X5107125Y-4191719D01*
X5126266Y-4204509D01*
X5148844Y-4209000D01*
X5151156Y-4209000D01*
X5173734Y-4204509D01*
X5192875Y-4191719D01*
X5200000Y-4181056D01*
X5207125Y-4191719D01*
X5226266Y-4204509D01*
X5248844Y-4209000D01*
X5251156Y-4209000D01*
X5273734Y-4204509D01*
X5292875Y-4191719D01*
X5300000Y-4181056D01*
X5307125Y-4191719D01*
X5326266Y-4204509D01*
X5348844Y-4209000D01*
X5351156Y-4209000D01*
X5373734Y-4204509D01*
X5392875Y-4191719D01*
X5400000Y-4181056D01*
X5407125Y-4191719D01*
X5426266Y-4204509D01*
X5448844Y-4209000D01*
X5451156Y-4209000D01*
X5473734Y-4204509D01*
X5492875Y-4191719D01*
X5500000Y-4181056D01*
X5507125Y-4191719D01*
X5526266Y-4204509D01*
X5548844Y-4209000D01*
X5551156Y-4209000D01*
X5573734Y-4204509D01*
X5592875Y-4191719D01*
X5600000Y-4181056D01*
X5607125Y-4191719D01*
X5626266Y-4204509D01*
X5648844Y-4209000D01*
X5651156Y-4209000D01*
X5673734Y-4204509D01*
X5692875Y-4191719D01*
X5700000Y-4181056D01*
X5707125Y-4191719D01*
X5726266Y-4204509D01*
X5748844Y-4209000D01*
X5751156Y-4209000D01*
X5773734Y-4204509D01*
X5792875Y-4191719D01*
X5800000Y-4181056D01*
X5807125Y-4191719D01*
X5826266Y-4204509D01*
X5848844Y-4209000D01*
X5851156Y-4209000D01*
X5873734Y-4204509D01*
X5892875Y-4191719D01*
X5900000Y-4181056D01*
X5907125Y-4191719D01*
X5926266Y-4204509D01*
X5948844Y-4209000D01*
X5951156Y-4209000D01*
X5973734Y-4204509D01*
X5991047Y-4192941D01*
X5912757Y-4271231D01*
X5910898Y-4270459D01*
X5889197Y-4270441D01*
X5887255Y-4271243D01*
X5845506Y-4229494D01*
X5836098Y-4223207D01*
X5825000Y-4221000D01*
X5150000Y-4221000D01*
X5138902Y-4223207D01*
X5129494Y-4229494D01*
X5054494Y-4304494D01*
X5048207Y-4313902D01*
X5046000Y-4325000D01*
X5046000Y-4467356D01*
X5038596Y-4470415D01*
X5020479Y-4488501D01*
X5017365Y-4496000D01*
X4964361Y-4496000D01*
X4964361Y-4387256D01*
X4954585Y-4363596D01*
X4936499Y-4345479D01*
X4917266Y-4337492D01*
X4936404Y-4329585D01*
X4954521Y-4311499D01*
X4964339Y-4287856D01*
X4964361Y-4262256D01*
X4954585Y-4238596D01*
X4936499Y-4220479D01*
X4912856Y-4210661D01*
X4887256Y-4210639D01*
X4863596Y-4220415D01*
X4845479Y-4238501D01*
X4835661Y-4262144D01*
X4835639Y-4287744D01*
X4845415Y-4311404D01*
X4863501Y-4329521D01*
X4882734Y-4337507D01*
X4863596Y-4345415D01*
X4845479Y-4363501D01*
X4835661Y-4387144D01*
X4835649Y-4400711D01*
X4756360Y-4480000D01*
X4739069Y-4480000D01*
X4735544Y-4471489D01*
X4728511Y-4464456D01*
X4719323Y-4460650D01*
X4709377Y-4460650D01*
X4630677Y-4460650D01*
X4621489Y-4464456D01*
X4614456Y-4471489D01*
X4610650Y-4480677D01*
X4610650Y-4490623D01*
X4610650Y-4569323D01*
X4614456Y-4578511D01*
X4621489Y-4585544D01*
X4630677Y-4589350D01*
X4640623Y-4589350D01*
X4719323Y-4589350D01*
X4728511Y-4585544D01*
X4735544Y-4578511D01*
X4739069Y-4570000D01*
X4775000Y-4570000D01*
X4792221Y-4566575D01*
X4806820Y-4556820D01*
X4899290Y-4464349D01*
X4912744Y-4464361D01*
X4936404Y-4454585D01*
X4954521Y-4436499D01*
X4964339Y-4412856D01*
X4964361Y-4387256D01*
X4964361Y-4496000D01*
X4900000Y-4496000D01*
X4888902Y-4498207D01*
X4879494Y-4504494D01*
X4795255Y-4588733D01*
X4787856Y-4585661D01*
X4762256Y-4585639D01*
X4738596Y-4595415D01*
X4720479Y-4613501D01*
X4710661Y-4637144D01*
X4710639Y-4662744D01*
X4720415Y-4686404D01*
X4738501Y-4704521D01*
X4762144Y-4714339D01*
X4787744Y-4714361D01*
X4811404Y-4704585D01*
X4829521Y-4686499D01*
X4839339Y-4662856D01*
X4839361Y-4637256D01*
X4836260Y-4629752D01*
X4912012Y-4554000D01*
X5017356Y-4554000D01*
X5020415Y-4561404D01*
X5038501Y-4579521D01*
X5062144Y-4589339D01*
X5087744Y-4589361D01*
X5111404Y-4579585D01*
X5115496Y-4575500D01*
X5110661Y-4587144D01*
X5110639Y-4612744D01*
X5120415Y-4636404D01*
X5133854Y-4649866D01*
X5120300Y-4655467D01*
X5105519Y-4670222D01*
X5099996Y-4683521D01*
X5094533Y-4670300D01*
X5079778Y-4655519D01*
X5060489Y-4647509D01*
X5039603Y-4647491D01*
X5020300Y-4655467D01*
X5005519Y-4670222D01*
X4999996Y-4683521D01*
X4994533Y-4670300D01*
X4979778Y-4655519D01*
X4960489Y-4647509D01*
X4939603Y-4647491D01*
X4920300Y-4655467D01*
X4905519Y-4670222D01*
X4897509Y-4689511D01*
X4897491Y-4710397D01*
X4905467Y-4729700D01*
X4920222Y-4744481D01*
X4939511Y-4752491D01*
X4960397Y-4752509D01*
X4979700Y-4744533D01*
X4994481Y-4729778D01*
X5000004Y-4716478D01*
X5005467Y-4729700D01*
X5020222Y-4744481D01*
X5039511Y-4752491D01*
X5060397Y-4752509D01*
X5079700Y-4744533D01*
X5094481Y-4729778D01*
X5100004Y-4716478D01*
X5105467Y-4729700D01*
X5120222Y-4744481D01*
X5139511Y-4752491D01*
X5160397Y-4752509D01*
X5179700Y-4744533D01*
X5194481Y-4729778D01*
X5200004Y-4716478D01*
X5205467Y-4729700D01*
X5220222Y-4744481D01*
X5239511Y-4752491D01*
X5260397Y-4752509D01*
X5279700Y-4744533D01*
X5294481Y-4729778D01*
X5300004Y-4716478D01*
X5305467Y-4729700D01*
X5320222Y-4744481D01*
X5339511Y-4752491D01*
X5360397Y-4752509D01*
X5379700Y-4744533D01*
X5394481Y-4729778D01*
X5400004Y-4716478D01*
X5405467Y-4729700D01*
X5420222Y-4744481D01*
X5439511Y-4752491D01*
X5460397Y-4752509D01*
X5479700Y-4744533D01*
X5494481Y-4729778D01*
X5500004Y-4716478D01*
X5505467Y-4729700D01*
X5520222Y-4744481D01*
X5539511Y-4752491D01*
X5560397Y-4752509D01*
X5579700Y-4744533D01*
X5594481Y-4729778D01*
X5600004Y-4716478D01*
X5605467Y-4729700D01*
X5620222Y-4744481D01*
X5639511Y-4752491D01*
X5660397Y-4752509D01*
X5679700Y-4744533D01*
X5694481Y-4729778D01*
X5700004Y-4716478D01*
X5705467Y-4729700D01*
X5720222Y-4744481D01*
X5739511Y-4752491D01*
X5760397Y-4752509D01*
X5779700Y-4744533D01*
X5794481Y-4729778D01*
X5794494Y-4729747D01*
X5796195Y-4734145D01*
X5797864Y-4736643D01*
X5810427Y-4738159D01*
X5848586Y-4700000D01*
X5848029Y-4699443D01*
X5849443Y-4698029D01*
X5850000Y-4698586D01*
X5850557Y-4698029D01*
X5851971Y-4699443D01*
X5851414Y-4700000D01*
X5889573Y-4738159D01*
X5902136Y-4736643D01*
X5905000Y-4730164D01*
X5905000Y-4756360D01*
X5888159Y-4773201D01*
X5888159Y-4739573D01*
X5850000Y-4701414D01*
X5811841Y-4739573D01*
X5813357Y-4752136D01*
X5836098Y-4762190D01*
X5860955Y-4762776D01*
X5884145Y-4753805D01*
X5886643Y-4752136D01*
X5888159Y-4739573D01*
X5888159Y-4773201D01*
X5881360Y-4780000D01*
X4688444Y-4780000D01*
X4683464Y-4775011D01*
X4661787Y-4766010D01*
X4638316Y-4765990D01*
X4616623Y-4774953D01*
X4607157Y-4784402D01*
X4594260Y-4782154D01*
X4592846Y-4783568D01*
X4551414Y-4825000D01*
X4594260Y-4867846D01*
X4607161Y-4865597D01*
X4616536Y-4874989D01*
X4638213Y-4883990D01*
X4661684Y-4884010D01*
X4683377Y-4875047D01*
X4688433Y-4870000D01*
X5900000Y-4870000D01*
X5917221Y-4866575D01*
X5931820Y-4856820D01*
X5950000Y-4838640D01*
X5968180Y-4856820D01*
X5982779Y-4866575D01*
X6000000Y-4870000D01*
X6906360Y-4870000D01*
X6998007Y-4961647D01*
X7005467Y-4979700D01*
X7020222Y-4994481D01*
X7033521Y-5000004D01*
X7020300Y-5005467D01*
X7005519Y-5020222D01*
X6997509Y-5039511D01*
X6997491Y-5060397D01*
X7005467Y-5079700D01*
X7020222Y-5094481D01*
X7039511Y-5102491D01*
X7060397Y-5102509D01*
X7079700Y-5094533D01*
X7094481Y-5079778D01*
X7100836Y-5064475D01*
X7118180Y-5081820D01*
X7132779Y-5091575D01*
X7150000Y-5095000D01*
X7321471Y-5095000D01*
X7339511Y-5102491D01*
X7360397Y-5102509D01*
X7379700Y-5094533D01*
X7394481Y-5079778D01*
X7402491Y-5060489D01*
X7402506Y-5043518D01*
X7421000Y-5062012D01*
X7421000Y-5112702D01*
X7408491Y-5107507D01*
X7391583Y-5107493D01*
X7375957Y-5113949D01*
X7363991Y-5125894D01*
X7357507Y-5141509D01*
X7357499Y-5151489D01*
X7304546Y-5204442D01*
X7304559Y-5189197D01*
X7296272Y-5169140D01*
X7280940Y-5153782D01*
X7260898Y-5145459D01*
X7239197Y-5145441D01*
X7219140Y-5153728D01*
X7206282Y-5166563D01*
X7205587Y-5164763D01*
X7203827Y-5162129D01*
X7191052Y-5160363D01*
X7189637Y-5161777D01*
X7189637Y-5158948D01*
X7187871Y-5146173D01*
X7164390Y-5135778D01*
X7138718Y-5135160D01*
X7114763Y-5144413D01*
X7112129Y-5146173D01*
X7110363Y-5158948D01*
X7150000Y-5198586D01*
X7189637Y-5158948D01*
X7189637Y-5161777D01*
X7151414Y-5200000D01*
X7151971Y-5200557D01*
X7150557Y-5201971D01*
X7150000Y-5201414D01*
X7149443Y-5201971D01*
X7148586Y-5201114D01*
X7148029Y-5200557D01*
X7148586Y-5200000D01*
X7108948Y-5160363D01*
X7096173Y-5162129D01*
X7085778Y-5185610D01*
X7085160Y-5211282D01*
X7094413Y-5235237D01*
X7096173Y-5237871D01*
X7108948Y-5239637D01*
X7102824Y-5245762D01*
X7103063Y-5246000D01*
X6962012Y-5246000D01*
X6850554Y-5134542D01*
X6861009Y-5124106D01*
X6867493Y-5108491D01*
X6867507Y-5091583D01*
X6861051Y-5075957D01*
X6849106Y-5063991D01*
X6833491Y-5057507D01*
X6816583Y-5057493D01*
X6800957Y-5063949D01*
X6793894Y-5071000D01*
X6400000Y-5071000D01*
X6388902Y-5073207D01*
X6379494Y-5079494D01*
X6351486Y-5107501D01*
X6341583Y-5107493D01*
X6325957Y-5113949D01*
X6313991Y-5125894D01*
X6307511Y-5141499D01*
X6295506Y-5129494D01*
X6286098Y-5123207D01*
X6275000Y-5121000D01*
X5175000Y-5121000D01*
X5163902Y-5123207D01*
X5154494Y-5129494D01*
X5151486Y-5132501D01*
X5141583Y-5132493D01*
X5125957Y-5138949D01*
X5113991Y-5150894D01*
X5107507Y-5166509D01*
X5107493Y-5183417D01*
X5113949Y-5199043D01*
X5125894Y-5211009D01*
X5141509Y-5217493D01*
X5158417Y-5217507D01*
X5160836Y-5216508D01*
X5162692Y-5221000D01*
X5131102Y-5221000D01*
X5124106Y-5213991D01*
X5108491Y-5207507D01*
X5091583Y-5207493D01*
X5075957Y-5213949D01*
X5063991Y-5225894D01*
X5057507Y-5241509D01*
X5057502Y-5247506D01*
X5039603Y-5247491D01*
X5020300Y-5255467D01*
X5005519Y-5270222D01*
X5002500Y-5277492D01*
X5002500Y-5267527D01*
X4998694Y-5258339D01*
X4991661Y-5251306D01*
X4982473Y-5247500D01*
X4972527Y-5247500D01*
X4917527Y-5247500D01*
X4908339Y-5251306D01*
X4901306Y-5258339D01*
X4897500Y-5267527D01*
X4897500Y-5277473D01*
X4897500Y-5332473D01*
X4901306Y-5341661D01*
X4908339Y-5348694D01*
X4917527Y-5352500D01*
X4927473Y-5352500D01*
X4982473Y-5352500D01*
X4991661Y-5348694D01*
X4998694Y-5341661D01*
X5002500Y-5332473D01*
X5002500Y-5322527D01*
X5002500Y-5322520D01*
X5005467Y-5329700D01*
X5020222Y-5344481D01*
X5039511Y-5352491D01*
X5060397Y-5352509D01*
X5079700Y-5344533D01*
X5094481Y-5329778D01*
X5100004Y-5316478D01*
X5105467Y-5329700D01*
X5120222Y-5344481D01*
X5139511Y-5352491D01*
X5160397Y-5352509D01*
X5179700Y-5344533D01*
X5194481Y-5329778D01*
X5200004Y-5316478D01*
X5205467Y-5329700D01*
X5220222Y-5344481D01*
X5239511Y-5352491D01*
X5260397Y-5352509D01*
X5279700Y-5344533D01*
X5294481Y-5329778D01*
X5300004Y-5316478D01*
X5305467Y-5329700D01*
X5320222Y-5344481D01*
X5339511Y-5352491D01*
X5360397Y-5352509D01*
X5379700Y-5344533D01*
X5394481Y-5329778D01*
X5400004Y-5316478D01*
X5405467Y-5329700D01*
X5420222Y-5344481D01*
X5439511Y-5352491D01*
X5460397Y-5352509D01*
X5479700Y-5344533D01*
X5494481Y-5329778D01*
X5500004Y-5316478D01*
X5505467Y-5329700D01*
X5520222Y-5344481D01*
X5539511Y-5352491D01*
X5560397Y-5352509D01*
X5579700Y-5344533D01*
X5594481Y-5329778D01*
X5600004Y-5316478D01*
X5605467Y-5329700D01*
X5620222Y-5344481D01*
X5639511Y-5352491D01*
X5660397Y-5352509D01*
X5661175Y-5352188D01*
X5704494Y-5395506D01*
X5713902Y-5401793D01*
X5713902Y-5401793D01*
X5725000Y-5404000D01*
X5768868Y-5404000D01*
X5753782Y-5419060D01*
X5745459Y-5439102D01*
X5745458Y-5440902D01*
X5718180Y-5468180D01*
X5708425Y-5482779D01*
X5705000Y-5500000D01*
X5705000Y-5525000D01*
X5705000Y-5531360D01*
X5695651Y-5540709D01*
X5677422Y-5544335D01*
X5658281Y-5557125D01*
X5657727Y-5557954D01*
X5655194Y-5551839D01*
X5648161Y-5544806D01*
X5638973Y-5541000D01*
X5629027Y-5541000D01*
X5561027Y-5541000D01*
X5551839Y-5544806D01*
X5544806Y-5551839D01*
X5541000Y-5561027D01*
X5541000Y-5570973D01*
X5541000Y-5610625D01*
X5533491Y-5607507D01*
X5516583Y-5607493D01*
X5500957Y-5613949D01*
X5488991Y-5625894D01*
X5482507Y-5641509D01*
X5482493Y-5658417D01*
X5488949Y-5674043D01*
X5500894Y-5686009D01*
X5516509Y-5692493D01*
X5533417Y-5692507D01*
X5543052Y-5688526D01*
X5541000Y-5698844D01*
X5541000Y-5701156D01*
X5545491Y-5723734D01*
X5558281Y-5742875D01*
X5568944Y-5750000D01*
X5558281Y-5757125D01*
X5545491Y-5776266D01*
X5541000Y-5798844D01*
X5541000Y-5801156D01*
X5545491Y-5823734D01*
X5558281Y-5842875D01*
X5577422Y-5855665D01*
X5600000Y-5860156D01*
X5622578Y-5855665D01*
X5641719Y-5842875D01*
X5644055Y-5839380D01*
X5660256Y-5856404D01*
X5684866Y-5867320D01*
X5688219Y-5867987D01*
X5699000Y-5860242D01*
X5699000Y-5801000D01*
X5698213Y-5801000D01*
X5698213Y-5799000D01*
X5699000Y-5799000D01*
X5699000Y-5798213D01*
X5701000Y-5798213D01*
X5701000Y-5799000D01*
X5760243Y-5799000D01*
X5767987Y-5788219D01*
X5758304Y-5763099D01*
X5740093Y-5743962D01*
X5741719Y-5742875D01*
X5754509Y-5723734D01*
X5759000Y-5701156D01*
X5759000Y-5698844D01*
X5754509Y-5676266D01*
X5741719Y-5657125D01*
X5731056Y-5650000D01*
X5741719Y-5642875D01*
X5754509Y-5623734D01*
X5758135Y-5605505D01*
X5781820Y-5581820D01*
X5791575Y-5567221D01*
X5795000Y-5550000D01*
X5795000Y-5525000D01*
X5795000Y-5518640D01*
X5809082Y-5504558D01*
X5810803Y-5504559D01*
X5830860Y-5496272D01*
X5843718Y-5483437D01*
X5844413Y-5485237D01*
X5846173Y-5487871D01*
X5858948Y-5489637D01*
X5898586Y-5450000D01*
X5898029Y-5449443D01*
X5899443Y-5448029D01*
X5900000Y-5448586D01*
X5900557Y-5448029D01*
X5901971Y-5449443D01*
X5901414Y-5450000D01*
X5941052Y-5489637D01*
X5953827Y-5487871D01*
X5964222Y-5464390D01*
X5964840Y-5438718D01*
X5955587Y-5414763D01*
X5953827Y-5412129D01*
X5941052Y-5410363D01*
X5947176Y-5404238D01*
X5946937Y-5404000D01*
X6412988Y-5404000D01*
X6579494Y-5570506D01*
X6586259Y-5575026D01*
X6585038Y-5583624D01*
X6625000Y-5623586D01*
X6625557Y-5623029D01*
X6626971Y-5624443D01*
X6626414Y-5625000D01*
X6626971Y-5625557D01*
X6625557Y-5626971D01*
X6625000Y-5626414D01*
X6623586Y-5627828D01*
X6623586Y-5625000D01*
X6583624Y-5585038D01*
X6570802Y-5586859D01*
X6560332Y-5610503D01*
X6559706Y-5636354D01*
X6569022Y-5660476D01*
X6570802Y-5663141D01*
X6583624Y-5664962D01*
X6623586Y-5625000D01*
X6623586Y-5627828D01*
X6585038Y-5666376D01*
X6585801Y-5671750D01*
X6580839Y-5673806D01*
X6573806Y-5680839D01*
X6570000Y-5690027D01*
X6570000Y-5699973D01*
X6570000Y-5759973D01*
X6573806Y-5769161D01*
X6580839Y-5776194D01*
X6590027Y-5780000D01*
X6599973Y-5780000D01*
X6659973Y-5780000D01*
X6669161Y-5776194D01*
X6676194Y-5769161D01*
X6680000Y-5759973D01*
X6680000Y-5757771D01*
X6693804Y-5771600D01*
X6714012Y-5779990D01*
X6735892Y-5780010D01*
X6756114Y-5771654D01*
X6771600Y-5756196D01*
X6774998Y-5748011D01*
X6778346Y-5756114D01*
X6793804Y-5771600D01*
X6814012Y-5779990D01*
X6835892Y-5780010D01*
X6856114Y-5771654D01*
X6871600Y-5756196D01*
X6874998Y-5748011D01*
X6878346Y-5756114D01*
X6893804Y-5771600D01*
X6914012Y-5779990D01*
X6935892Y-5780010D01*
X6956114Y-5771654D01*
X6971600Y-5756196D01*
X6974998Y-5748011D01*
X6978346Y-5756114D01*
X6993804Y-5771600D01*
X7014012Y-5779990D01*
X7035892Y-5780010D01*
X7056114Y-5771654D01*
X7071600Y-5756196D01*
X7079990Y-5735988D01*
X7080010Y-5714108D01*
X7071654Y-5693886D01*
X7059244Y-5681454D01*
X7060476Y-5680978D01*
X7063141Y-5679198D01*
X7064962Y-5666376D01*
X7025000Y-5626414D01*
X6985038Y-5666376D01*
X6986859Y-5679198D01*
X6991135Y-5681092D01*
X6978400Y-5693804D01*
X6975002Y-5701989D01*
X6971654Y-5693886D01*
X6956196Y-5678400D01*
X6948011Y-5675002D01*
X6956114Y-5671654D01*
X6968546Y-5659244D01*
X6969022Y-5660476D01*
X6970802Y-5663141D01*
X6983624Y-5664962D01*
X7023586Y-5625000D01*
X6983624Y-5585038D01*
X6970802Y-5586859D01*
X6968908Y-5591135D01*
X6956196Y-5578400D01*
X6935988Y-5570010D01*
X6925025Y-5570000D01*
X6988059Y-5570000D01*
X6986859Y-5570802D01*
X6985038Y-5583624D01*
X7025000Y-5623586D01*
X7064962Y-5583624D01*
X7063141Y-5570802D01*
X7061330Y-5570000D01*
X7150000Y-5570000D01*
X7167221Y-5566575D01*
X7181820Y-5556820D01*
X7191575Y-5542221D01*
X7195000Y-5525000D01*
X7191575Y-5507779D01*
X7189049Y-5504000D01*
X7290988Y-5504000D01*
X7338733Y-5551745D01*
X7335661Y-5559144D01*
X7335639Y-5584744D01*
X7345415Y-5608404D01*
X7363501Y-5626521D01*
X7387144Y-5636339D01*
X7412744Y-5636361D01*
X7436404Y-5626585D01*
X7454521Y-5608499D01*
X7464339Y-5584856D01*
X7464361Y-5559256D01*
X7454585Y-5535596D01*
X7436499Y-5517479D01*
X7412856Y-5507661D01*
X7387256Y-5507639D01*
X7379752Y-5510740D01*
X7323506Y-5454494D01*
X7314098Y-5448207D01*
X7303000Y-5446000D01*
X6587012Y-5446000D01*
X6520012Y-5379000D01*
X6775000Y-5379000D01*
X6786098Y-5376793D01*
X6795506Y-5370506D01*
X6820506Y-5345506D01*
X6820980Y-5344796D01*
X6839511Y-5352491D01*
X6860397Y-5352509D01*
X6879700Y-5344533D01*
X6894481Y-5329778D01*
X6894804Y-5329000D01*
X6954996Y-5329000D01*
X6945479Y-5338501D01*
X6935661Y-5362144D01*
X6935639Y-5387744D01*
X6945415Y-5411404D01*
X6963501Y-5429521D01*
X6987144Y-5439339D01*
X7012744Y-5439361D01*
X7036404Y-5429585D01*
X7054521Y-5411499D01*
X7064339Y-5387856D01*
X7064361Y-5362256D01*
X7054585Y-5338596D01*
X7045006Y-5329000D01*
X7350000Y-5329000D01*
X7356239Y-5327759D01*
X7345479Y-5338501D01*
X7335661Y-5362144D01*
X7335639Y-5387744D01*
X7345415Y-5411404D01*
X7363501Y-5429521D01*
X7387144Y-5439339D01*
X7412744Y-5439361D01*
X7420248Y-5436260D01*
X7479494Y-5495506D01*
X7488902Y-5501793D01*
X7491000Y-5502210D01*
X7491000Y-5513973D01*
X7494806Y-5523161D01*
X7501839Y-5530194D01*
X7511027Y-5534000D01*
X7520973Y-5534000D01*
X7588973Y-5534000D01*
X7598161Y-5530194D01*
X7605194Y-5523161D01*
X7607985Y-5516423D01*
X7616536Y-5524989D01*
X7638213Y-5533990D01*
X7661684Y-5534010D01*
X7683377Y-5525047D01*
X7699989Y-5508464D01*
X7700004Y-5508428D01*
X7716536Y-5524989D01*
X7738213Y-5533990D01*
X7761684Y-5534010D01*
X7783377Y-5525047D01*
X7799989Y-5508464D01*
X7808990Y-5486787D01*
X7809010Y-5463316D01*
X7800047Y-5441623D01*
X7783464Y-5425011D01*
X7780655Y-5423845D01*
X7780655Y-4238762D01*
X7677165Y-4135272D01*
X7675751Y-4136687D01*
X7675751Y-4133858D01*
X7572261Y-4030369D01*
X7550285Y-4042910D01*
X7525139Y-4098388D01*
X7523137Y-4159266D01*
X7544585Y-4216276D01*
X7550285Y-4224806D01*
X7572261Y-4237348D01*
X7675751Y-4133858D01*
X7675751Y-4136687D01*
X7573676Y-4238762D01*
X7586217Y-4260739D01*
X7641695Y-4285885D01*
X7702574Y-4287887D01*
X7759584Y-4266439D01*
X7768114Y-4260739D01*
X7780655Y-4238762D01*
X7780655Y-5423845D01*
X7765294Y-5417466D01*
X7765294Y-4788646D01*
X7755978Y-4764524D01*
X7755010Y-4763073D01*
X7755010Y-4689108D01*
X7746654Y-4668886D01*
X7731196Y-4653400D01*
X7710988Y-4645010D01*
X7689108Y-4644990D01*
X7668886Y-4653346D01*
X7655000Y-4667208D01*
X7655000Y-4665027D01*
X7651194Y-4655839D01*
X7644161Y-4648806D01*
X7634973Y-4645000D01*
X7625027Y-4645000D01*
X7565027Y-4645000D01*
X7555839Y-4648806D01*
X7548806Y-4655839D01*
X7545000Y-4665027D01*
X7545000Y-4674973D01*
X7545000Y-4734973D01*
X7548806Y-4744161D01*
X7555839Y-4751194D01*
X7560801Y-4753250D01*
X7560038Y-4758624D01*
X7600000Y-4798586D01*
X7639962Y-4758624D01*
X7639199Y-4753250D01*
X7644161Y-4751194D01*
X7651194Y-4744161D01*
X7655000Y-4734973D01*
X7655000Y-4732771D01*
X7665756Y-4743546D01*
X7664524Y-4744022D01*
X7661859Y-4745802D01*
X7660038Y-4758624D01*
X7700000Y-4798586D01*
X7739962Y-4758624D01*
X7738141Y-4745802D01*
X7733865Y-4743908D01*
X7746600Y-4731196D01*
X7754990Y-4710988D01*
X7755010Y-4689108D01*
X7755010Y-4763073D01*
X7754198Y-4761859D01*
X7741376Y-4760038D01*
X7701414Y-4800000D01*
X7741376Y-4839962D01*
X7754198Y-4838141D01*
X7764668Y-4814497D01*
X7765294Y-4788646D01*
X7765294Y-5417466D01*
X7761787Y-5416010D01*
X7738316Y-5415990D01*
X7716623Y-5424953D01*
X7700011Y-5441536D01*
X7699996Y-5441572D01*
X7683464Y-5425011D01*
X7661787Y-5416010D01*
X7638316Y-5415990D01*
X7616623Y-5424953D01*
X7607985Y-5433576D01*
X7605194Y-5426839D01*
X7598161Y-5419806D01*
X7588973Y-5416000D01*
X7579027Y-5416000D01*
X7511027Y-5416000D01*
X7501839Y-5419806D01*
X7494806Y-5426839D01*
X7494233Y-5428221D01*
X7461267Y-5395255D01*
X7464339Y-5387856D01*
X7464361Y-5362256D01*
X7454585Y-5338596D01*
X7436499Y-5320479D01*
X7412856Y-5310661D01*
X7387256Y-5310639D01*
X7375527Y-5315485D01*
X7470506Y-5220506D01*
X7476793Y-5211098D01*
X7479000Y-5200000D01*
X7479000Y-5050000D01*
X7476793Y-5038902D01*
X7470506Y-5029494D01*
X7420506Y-4979494D01*
X7419767Y-4979000D01*
X7549167Y-4979000D01*
X7545010Y-4989012D01*
X7544990Y-5010892D01*
X7553346Y-5031114D01*
X7568804Y-5046600D01*
X7576989Y-5049998D01*
X7568886Y-5053346D01*
X7553400Y-5068804D01*
X7545010Y-5089012D01*
X7544990Y-5110892D01*
X7553346Y-5131114D01*
X7568804Y-5146600D01*
X7589012Y-5154990D01*
X7610892Y-5155010D01*
X7631114Y-5146654D01*
X7646600Y-5131196D01*
X7649998Y-5123011D01*
X7653346Y-5131114D01*
X7668804Y-5146600D01*
X7689012Y-5154990D01*
X7710892Y-5155010D01*
X7731114Y-5146654D01*
X7746600Y-5131196D01*
X7754990Y-5110988D01*
X7755010Y-5089108D01*
X7746654Y-5068886D01*
X7731196Y-5053400D01*
X7723011Y-5050002D01*
X7731114Y-5046654D01*
X7746600Y-5031196D01*
X7754990Y-5010988D01*
X7755010Y-4989108D01*
X7746654Y-4968886D01*
X7731196Y-4953400D01*
X7723011Y-4950002D01*
X7731114Y-4946654D01*
X7746600Y-4931196D01*
X7754990Y-4910988D01*
X7755010Y-4889108D01*
X7746654Y-4868886D01*
X7734244Y-4856454D01*
X7735476Y-4855978D01*
X7738141Y-4854198D01*
X7739962Y-4841376D01*
X7700000Y-4801414D01*
X7698586Y-4802828D01*
X7698586Y-4800000D01*
X7658624Y-4760038D01*
X7650000Y-4761263D01*
X7641376Y-4760038D01*
X7601414Y-4800000D01*
X7641376Y-4839962D01*
X7650000Y-4838737D01*
X7658624Y-4839962D01*
X7698586Y-4800000D01*
X7698586Y-4802828D01*
X7660038Y-4841376D01*
X7661859Y-4854198D01*
X7666135Y-4856092D01*
X7653400Y-4868804D01*
X7650002Y-4876989D01*
X7646654Y-4868886D01*
X7634244Y-4856454D01*
X7635476Y-4855978D01*
X7638141Y-4854198D01*
X7639962Y-4841376D01*
X7600000Y-4801414D01*
X7598586Y-4802828D01*
X7598586Y-4800000D01*
X7558624Y-4760038D01*
X7545802Y-4761859D01*
X7535332Y-4785503D01*
X7534706Y-4811354D01*
X7544022Y-4835476D01*
X7545802Y-4838141D01*
X7558624Y-4839962D01*
X7598586Y-4800000D01*
X7598586Y-4802828D01*
X7560038Y-4841376D01*
X7561859Y-4854198D01*
X7566135Y-4856092D01*
X7556611Y-4865599D01*
X7520506Y-4829494D01*
X7511098Y-4823207D01*
X7500000Y-4821000D01*
X7394823Y-4821000D01*
X7394533Y-4820300D01*
X7379778Y-4805519D01*
X7366478Y-4799996D01*
X7379700Y-4794533D01*
X7394481Y-4779778D01*
X7402491Y-4760489D01*
X7402509Y-4739603D01*
X7394533Y-4720300D01*
X7379778Y-4705519D01*
X7360489Y-4697509D01*
X7339603Y-4697491D01*
X7320300Y-4705467D01*
X7305519Y-4720222D01*
X7297509Y-4739511D01*
X7297491Y-4760397D01*
X7297812Y-4761175D01*
X7254494Y-4804494D01*
X7248207Y-4813902D01*
X7246000Y-4825000D01*
X7246000Y-4950000D01*
X7248207Y-4961098D01*
X7254494Y-4970506D01*
X7288988Y-5005000D01*
X7168640Y-5005000D01*
X7112776Y-4949136D01*
X7112776Y-4839045D01*
X7103805Y-4815855D01*
X7102500Y-4813903D01*
X7102500Y-4782473D01*
X7102500Y-4772527D01*
X7102500Y-4717527D01*
X7098694Y-4708339D01*
X7091661Y-4701306D01*
X7082473Y-4697500D01*
X7072527Y-4697500D01*
X7017527Y-4697500D01*
X7008339Y-4701306D01*
X7001306Y-4708339D01*
X6997500Y-4717527D01*
X6997500Y-4727473D01*
X6997500Y-4782473D01*
X7001306Y-4791661D01*
X7008339Y-4798694D01*
X7013023Y-4800634D01*
X7011841Y-4810427D01*
X7050000Y-4848586D01*
X7088159Y-4810427D01*
X7086977Y-4800634D01*
X7091661Y-4798694D01*
X7098694Y-4791661D01*
X7102500Y-4782473D01*
X7102500Y-4813903D01*
X7102136Y-4813357D01*
X7089573Y-4811841D01*
X7051414Y-4850000D01*
X7089573Y-4888159D01*
X7102136Y-4886643D01*
X7112190Y-4863902D01*
X7112776Y-4839045D01*
X7112776Y-4949136D01*
X7101993Y-4938353D01*
X7094533Y-4920300D01*
X7079778Y-4905519D01*
X7079747Y-4905506D01*
X7084145Y-4903805D01*
X7086643Y-4902136D01*
X7088159Y-4889573D01*
X7050000Y-4851414D01*
X7049443Y-4851971D01*
X7048029Y-4850557D01*
X7048586Y-4850000D01*
X7010427Y-4811841D01*
X6997864Y-4813357D01*
X6991467Y-4827827D01*
X6956820Y-4793180D01*
X6942221Y-4783425D01*
X6925000Y-4780000D01*
X6911012Y-4780000D01*
X6948513Y-4742499D01*
X6958417Y-4742507D01*
X6974043Y-4736051D01*
X6986009Y-4724106D01*
X6992493Y-4708491D01*
X6992507Y-4691583D01*
X6986051Y-4675957D01*
X6974106Y-4663991D01*
X6958491Y-4657507D01*
X6941583Y-4657493D01*
X6925957Y-4663949D01*
X6913991Y-4675894D01*
X6907507Y-4691509D01*
X6907499Y-4701489D01*
X6902494Y-4706493D01*
X6902509Y-4689603D01*
X6894533Y-4670300D01*
X6879778Y-4655519D01*
X6860489Y-4647509D01*
X6839603Y-4647491D01*
X6820300Y-4655467D01*
X6805519Y-4670222D01*
X6799996Y-4683521D01*
X6794533Y-4670300D01*
X6782633Y-4658379D01*
X6808839Y-4632173D01*
X6813213Y-4633990D01*
X6836684Y-4634010D01*
X6858377Y-4625047D01*
X6874989Y-4608464D01*
X6875004Y-4608428D01*
X6891536Y-4624989D01*
X6913213Y-4633990D01*
X6936684Y-4634010D01*
X6958377Y-4625047D01*
X6974989Y-4608464D01*
X6975004Y-4608428D01*
X6991536Y-4624989D01*
X7013213Y-4633990D01*
X7036684Y-4634010D01*
X7058377Y-4625047D01*
X7074989Y-4608464D01*
X7075004Y-4608428D01*
X7091536Y-4624989D01*
X7113213Y-4633990D01*
X7136684Y-4634010D01*
X7158377Y-4625047D01*
X7174989Y-4608464D01*
X7183990Y-4586787D01*
X7184010Y-4563316D01*
X7175047Y-4541623D01*
X7158464Y-4525011D01*
X7136787Y-4516010D01*
X7113316Y-4515990D01*
X7091623Y-4524953D01*
X7075011Y-4541536D01*
X7074996Y-4541572D01*
X7060384Y-4526934D01*
X7061098Y-4526793D01*
X7070506Y-4520506D01*
X7108839Y-4482173D01*
X7113213Y-4483990D01*
X7136684Y-4484010D01*
X7158377Y-4475047D01*
X7174989Y-4458464D01*
X7183990Y-4436787D01*
X7184010Y-4413316D01*
X7175047Y-4391623D01*
X7162446Y-4379000D01*
X7350000Y-4379000D01*
X7361098Y-4376793D01*
X7370506Y-4370506D01*
X7395506Y-4345506D01*
X7401793Y-4336098D01*
X7401793Y-4336098D01*
X7404000Y-4325000D01*
X7404000Y-4200000D01*
X7401793Y-4188902D01*
X7395506Y-4179494D01*
X7354000Y-4137988D01*
X7354000Y-4044823D01*
X7354700Y-4044533D01*
X7369481Y-4029778D01*
X7377491Y-4010489D01*
X7377509Y-3989603D01*
X7369533Y-3970300D01*
X7362238Y-3962992D01*
X7848031Y-3962992D01*
X7848031Y-5879528D01*
X7848031Y-5879528D01*
G37*
X7848031Y-5879528D02*
X7831194Y-5879528D01*
X7831194Y-5683253D01*
X7831194Y-4108450D01*
X7809746Y-4051440D01*
X7804046Y-4042910D01*
X7782069Y-4030369D01*
X7780655Y-4031783D01*
X7780655Y-4028954D01*
X7768114Y-4006978D01*
X7712635Y-3981831D01*
X7651757Y-3979830D01*
X7594747Y-4001278D01*
X7586217Y-4006978D01*
X7573676Y-4028954D01*
X7677165Y-4132444D01*
X7780655Y-4028954D01*
X7780655Y-4031783D01*
X7678580Y-4133858D01*
X7782069Y-4237348D01*
X7804046Y-4224806D01*
X7829192Y-4169328D01*
X7831194Y-4108450D01*
X7831194Y-5683253D01*
X7809746Y-5626243D01*
X7804046Y-5617713D01*
X7782069Y-5605172D01*
X7780655Y-5606586D01*
X7780655Y-5603758D01*
X7768114Y-5581781D01*
X7712635Y-5556635D01*
X7651757Y-5554633D01*
X7594747Y-5576081D01*
X7586217Y-5581781D01*
X7573676Y-5603758D01*
X7677165Y-5707247D01*
X7780655Y-5603758D01*
X7780655Y-5606586D01*
X7678580Y-5708661D01*
X7782069Y-5812151D01*
X7804046Y-5799610D01*
X7829192Y-5744131D01*
X7831194Y-5683253D01*
X7831194Y-5879528D01*
X7780655Y-5879528D01*
X7780655Y-5813565D01*
X7677165Y-5710076D01*
X7675751Y-5711490D01*
X7675751Y-5708661D01*
X7572261Y-5605172D01*
X7550285Y-5617713D01*
X7525139Y-5673191D01*
X7523137Y-5734070D01*
X7544585Y-5791080D01*
X7550285Y-5799610D01*
X7572261Y-5812151D01*
X7675751Y-5708661D01*
X7675751Y-5711490D01*
X7573676Y-5813565D01*
X7586217Y-5835542D01*
X7641695Y-5860688D01*
X7702574Y-5862690D01*
X7759584Y-5841242D01*
X7768114Y-5835542D01*
X7780655Y-5813565D01*
X7780655Y-5879528D01*
X7472190Y-5879528D01*
X7474350Y-5874312D01*
X7474350Y-5837750D01*
X7474350Y-5818250D01*
X7474350Y-5781688D01*
X7469022Y-5768824D01*
X7459176Y-5758978D01*
X7446312Y-5753650D01*
X7432388Y-5753650D01*
X7409750Y-5753650D01*
X7401000Y-5762400D01*
X7401000Y-5827000D01*
X7465600Y-5827000D01*
X7474350Y-5818250D01*
X7474350Y-5837750D01*
X7465600Y-5829000D01*
X7401000Y-5829000D01*
X7401000Y-5829787D01*
X7399000Y-5829787D01*
X7399000Y-5829000D01*
X7399000Y-5827000D01*
X7399000Y-5762400D01*
X7390250Y-5753650D01*
X7367612Y-5753650D01*
X7353688Y-5753650D01*
X7340824Y-5758978D01*
X7330978Y-5768824D01*
X7325650Y-5781688D01*
X7325650Y-5818250D01*
X7334400Y-5827000D01*
X7399000Y-5827000D01*
X7399000Y-5829000D01*
X7334400Y-5829000D01*
X7325650Y-5837750D01*
X7325650Y-5874312D01*
X7327810Y-5879528D01*
X7090294Y-5879528D01*
X7090294Y-5613646D01*
X7080978Y-5589524D01*
X7079198Y-5586859D01*
X7066376Y-5585038D01*
X7026414Y-5625000D01*
X7066376Y-5664962D01*
X7079198Y-5663141D01*
X7089668Y-5639497D01*
X7090294Y-5613646D01*
X7090294Y-5879528D01*
X6364840Y-5879528D01*
X6364840Y-5588718D01*
X6355587Y-5564763D01*
X6354559Y-5563225D01*
X6354559Y-5489197D01*
X6346272Y-5469140D01*
X6330940Y-5453782D01*
X6310898Y-5445459D01*
X6289197Y-5445441D01*
X6269140Y-5453728D01*
X6253782Y-5469060D01*
X6252976Y-5471000D01*
X6144235Y-5471000D01*
X6130940Y-5457682D01*
X6110898Y-5449359D01*
X6089197Y-5449341D01*
X6069140Y-5457628D01*
X6053782Y-5472960D01*
X6045459Y-5493002D01*
X6045441Y-5514703D01*
X6053728Y-5534760D01*
X6069060Y-5550118D01*
X6089102Y-5558441D01*
X6110803Y-5558459D01*
X6130860Y-5550172D01*
X6146218Y-5534840D01*
X6148643Y-5529000D01*
X6252959Y-5529000D01*
X6253728Y-5530860D01*
X6266563Y-5543718D01*
X6264763Y-5544413D01*
X6262129Y-5546173D01*
X6260363Y-5558948D01*
X6300000Y-5598586D01*
X6339637Y-5558948D01*
X6337871Y-5546173D01*
X6333083Y-5544053D01*
X6346218Y-5530940D01*
X6354541Y-5510898D01*
X6354559Y-5489197D01*
X6354559Y-5563225D01*
X6353827Y-5562129D01*
X6341052Y-5560363D01*
X6301414Y-5600000D01*
X6341052Y-5639637D01*
X6353827Y-5637871D01*
X6364222Y-5614390D01*
X6364840Y-5588718D01*
X6364840Y-5879528D01*
X6339637Y-5879528D01*
X6339637Y-5641052D01*
X6300000Y-5601414D01*
X6298586Y-5602828D01*
X6298586Y-5600000D01*
X6258948Y-5560363D01*
X6246173Y-5562129D01*
X6235778Y-5585610D01*
X6235160Y-5611282D01*
X6244413Y-5635237D01*
X6246173Y-5637871D01*
X6258948Y-5639637D01*
X6298586Y-5600000D01*
X6298586Y-5602828D01*
X6260363Y-5641052D01*
X6262129Y-5653827D01*
X6285610Y-5664222D01*
X6311282Y-5664840D01*
X6335237Y-5655587D01*
X6337871Y-5653827D01*
X6339637Y-5641052D01*
X6339637Y-5879528D01*
X6154559Y-5879528D01*
X6154559Y-5685297D01*
X6146272Y-5665240D01*
X6130940Y-5649882D01*
X6110898Y-5641559D01*
X6089197Y-5641541D01*
X6069140Y-5649828D01*
X6053782Y-5665160D01*
X6051357Y-5671000D01*
X5964840Y-5671000D01*
X5964840Y-5588718D01*
X5955587Y-5564763D01*
X5953827Y-5562129D01*
X5941052Y-5560363D01*
X5939637Y-5561777D01*
X5939637Y-5558948D01*
X5939637Y-5491052D01*
X5900000Y-5451414D01*
X5860363Y-5491052D01*
X5862129Y-5503827D01*
X5885610Y-5514222D01*
X5911282Y-5514840D01*
X5935237Y-5505587D01*
X5937871Y-5503827D01*
X5939637Y-5491052D01*
X5939637Y-5558948D01*
X5937871Y-5546173D01*
X5914390Y-5535778D01*
X5888718Y-5535160D01*
X5864763Y-5544413D01*
X5862129Y-5546173D01*
X5860363Y-5558948D01*
X5900000Y-5598586D01*
X5939637Y-5558948D01*
X5939637Y-5561777D01*
X5901414Y-5600000D01*
X5941052Y-5639637D01*
X5953827Y-5637871D01*
X5964222Y-5614390D01*
X5964840Y-5588718D01*
X5964840Y-5671000D01*
X5947041Y-5671000D01*
X5946272Y-5669140D01*
X5933437Y-5656282D01*
X5935237Y-5655587D01*
X5937871Y-5653827D01*
X5939637Y-5641052D01*
X5900000Y-5601414D01*
X5898586Y-5602828D01*
X5898586Y-5600000D01*
X5858948Y-5560363D01*
X5846173Y-5562129D01*
X5835778Y-5585610D01*
X5835160Y-5611282D01*
X5844413Y-5635237D01*
X5846173Y-5637871D01*
X5858948Y-5639637D01*
X5898586Y-5600000D01*
X5898586Y-5602828D01*
X5860363Y-5641052D01*
X5862129Y-5653827D01*
X5866917Y-5655947D01*
X5853782Y-5669060D01*
X5845459Y-5689102D01*
X5845441Y-5710803D01*
X5853728Y-5730860D01*
X5869060Y-5746218D01*
X5889102Y-5754541D01*
X5910803Y-5754559D01*
X5930860Y-5746272D01*
X5946218Y-5730940D01*
X5947024Y-5729000D01*
X6055764Y-5729000D01*
X6069060Y-5742318D01*
X6089102Y-5750641D01*
X6110803Y-5750659D01*
X6130860Y-5742372D01*
X6146218Y-5727040D01*
X6154541Y-5706998D01*
X6154559Y-5685297D01*
X6154559Y-5879528D01*
X5767987Y-5879528D01*
X5767987Y-5811781D01*
X5760243Y-5801000D01*
X5701000Y-5801000D01*
X5701000Y-5860242D01*
X5711781Y-5867987D01*
X5715134Y-5867320D01*
X5739744Y-5856404D01*
X5758304Y-5836901D01*
X5767987Y-5811781D01*
X5767987Y-5879528D01*
X5459010Y-5879528D01*
X5459010Y-5788316D01*
X5450047Y-5766623D01*
X5433464Y-5750011D01*
X5411787Y-5741010D01*
X5388316Y-5740990D01*
X5366623Y-5749953D01*
X5350011Y-5766536D01*
X5349996Y-5766572D01*
X5333464Y-5750011D01*
X5311787Y-5741010D01*
X5288316Y-5740990D01*
X5266623Y-5749953D01*
X5250011Y-5766536D01*
X5249996Y-5766572D01*
X5233464Y-5750011D01*
X5211787Y-5741010D01*
X5188316Y-5740990D01*
X5166623Y-5749953D01*
X5150011Y-5766536D01*
X5149996Y-5766572D01*
X5133464Y-5750011D01*
X5111787Y-5741010D01*
X5088316Y-5740990D01*
X5066623Y-5749953D01*
X5050011Y-5766536D01*
X5049996Y-5766572D01*
X5033464Y-5750011D01*
X5011787Y-5741010D01*
X4988316Y-5740990D01*
X4966623Y-5749953D01*
X4965642Y-5750932D01*
X4963672Y-5746174D01*
X4953826Y-5736328D01*
X4940962Y-5731000D01*
X4909750Y-5731000D01*
X4901000Y-5739750D01*
X4901000Y-5799000D01*
X4901787Y-5799000D01*
X4901787Y-5801000D01*
X4901000Y-5801000D01*
X4901000Y-5860250D01*
X4909750Y-5869000D01*
X4940962Y-5869000D01*
X4953826Y-5863672D01*
X4963672Y-5853826D01*
X4965635Y-5849086D01*
X4966536Y-5849989D01*
X4988213Y-5858990D01*
X5011684Y-5859010D01*
X5033377Y-5850047D01*
X5049989Y-5833464D01*
X5050004Y-5833428D01*
X5066536Y-5849989D01*
X5088213Y-5858990D01*
X5111684Y-5859010D01*
X5133377Y-5850047D01*
X5149989Y-5833464D01*
X5150004Y-5833428D01*
X5166536Y-5849989D01*
X5188213Y-5858990D01*
X5211684Y-5859010D01*
X5233377Y-5850047D01*
X5249989Y-5833464D01*
X5250004Y-5833428D01*
X5266536Y-5849989D01*
X5288213Y-5858990D01*
X5311684Y-5859010D01*
X5333377Y-5850047D01*
X5349989Y-5833464D01*
X5350004Y-5833428D01*
X5366536Y-5849989D01*
X5388213Y-5858990D01*
X5411684Y-5859010D01*
X5433377Y-5850047D01*
X5449989Y-5833464D01*
X5458990Y-5811787D01*
X5459010Y-5788316D01*
X5459010Y-5879528D01*
X4899000Y-5879528D01*
X4899000Y-5860250D01*
X4899000Y-5801000D01*
X4899000Y-5799000D01*
X4899000Y-5739750D01*
X4890250Y-5731000D01*
X4859038Y-5731000D01*
X4846174Y-5736328D01*
X4839361Y-5743141D01*
X4839361Y-5037256D01*
X4829585Y-5013596D01*
X4811499Y-4995479D01*
X4787856Y-4985661D01*
X4762256Y-4985639D01*
X4739488Y-4995047D01*
X4737857Y-4987431D01*
X4722694Y-4965441D01*
X4700271Y-4950928D01*
X4686694Y-4947106D01*
X4676000Y-4954858D01*
X4676000Y-5049000D01*
X4676787Y-5049000D01*
X4676787Y-5051000D01*
X4676000Y-5051000D01*
X4676000Y-5145142D01*
X4686694Y-5152894D01*
X4700271Y-5149072D01*
X4722694Y-5134559D01*
X4737857Y-5112569D01*
X4739492Y-5104933D01*
X4762144Y-5114339D01*
X4787744Y-5114361D01*
X4811404Y-5104585D01*
X4829521Y-5086499D01*
X4839339Y-5062856D01*
X4839361Y-5037256D01*
X4839361Y-5743141D01*
X4836328Y-5746174D01*
X4831000Y-5759038D01*
X4831000Y-5772962D01*
X4831000Y-5790250D01*
X4839750Y-5799000D01*
X4899000Y-5799000D01*
X4899000Y-5801000D01*
X4839750Y-5801000D01*
X4831000Y-5809750D01*
X4831000Y-5827038D01*
X4831000Y-5840962D01*
X4836328Y-5853826D01*
X4846174Y-5863672D01*
X4859038Y-5869000D01*
X4890250Y-5869000D01*
X4899000Y-5860250D01*
X4899000Y-5879528D01*
X4790000Y-5879528D01*
X4790000Y-5834973D01*
X4790000Y-5825027D01*
X4790000Y-5205027D01*
X4786194Y-5195839D01*
X4779161Y-5188806D01*
X4769973Y-5185000D01*
X4760027Y-5185000D01*
X4674000Y-5185000D01*
X4674000Y-5145142D01*
X4674000Y-5051000D01*
X4673213Y-5051000D01*
X4673213Y-5049000D01*
X4674000Y-5049000D01*
X4674000Y-4954858D01*
X4663306Y-4947106D01*
X4649729Y-4950928D01*
X4627306Y-4965441D01*
X4620000Y-4976037D01*
X4620000Y-4975000D01*
X4616575Y-4957779D01*
X4606820Y-4943180D01*
X4557858Y-4894219D01*
X4561992Y-4894322D01*
X4587608Y-4884456D01*
X4590539Y-4882498D01*
X4592846Y-4869260D01*
X4550000Y-4826414D01*
X4549443Y-4826971D01*
X4548029Y-4825557D01*
X4548586Y-4825000D01*
X4548029Y-4824443D01*
X4549443Y-4823029D01*
X4550000Y-4823586D01*
X4592846Y-4780740D01*
X4590539Y-4767502D01*
X4585156Y-4765113D01*
X4585156Y-4625000D01*
X4580665Y-4602422D01*
X4567875Y-4583281D01*
X4567046Y-4582727D01*
X4573161Y-4580194D01*
X4580194Y-4573161D01*
X4584000Y-4563973D01*
X4584000Y-4554027D01*
X4584000Y-4486027D01*
X4580194Y-4476839D01*
X4573161Y-4469806D01*
X4564361Y-4466161D01*
X4564361Y-4387256D01*
X4554585Y-4363596D01*
X4536499Y-4345479D01*
X4517266Y-4337492D01*
X4536404Y-4329585D01*
X4554521Y-4311499D01*
X4564339Y-4287856D01*
X4564361Y-4262256D01*
X4554585Y-4238596D01*
X4536499Y-4220479D01*
X4512856Y-4210661D01*
X4487256Y-4210639D01*
X4463596Y-4220415D01*
X4445479Y-4238501D01*
X4435661Y-4262144D01*
X4435639Y-4287744D01*
X4445415Y-4311404D01*
X4463501Y-4329521D01*
X4482734Y-4337507D01*
X4463596Y-4345415D01*
X4445479Y-4363501D01*
X4435661Y-4387144D01*
X4435639Y-4412744D01*
X4445415Y-4436404D01*
X4463501Y-4454521D01*
X4487144Y-4464339D01*
X4512744Y-4464361D01*
X4536404Y-4454585D01*
X4554521Y-4436499D01*
X4564339Y-4412856D01*
X4564361Y-4387256D01*
X4564361Y-4466161D01*
X4563973Y-4466000D01*
X4554027Y-4466000D01*
X4486027Y-4466000D01*
X4476839Y-4469806D01*
X4469806Y-4476839D01*
X4467297Y-4482895D01*
X4448734Y-4470491D01*
X4426156Y-4466000D01*
X4423844Y-4466000D01*
X4401266Y-4470491D01*
X4390294Y-4477823D01*
X4390294Y-4288646D01*
X4380978Y-4264524D01*
X4379198Y-4261859D01*
X4366376Y-4260038D01*
X4364962Y-4261452D01*
X4364962Y-4258624D01*
X4363141Y-4245802D01*
X4339497Y-4235332D01*
X4313646Y-4234706D01*
X4289524Y-4244022D01*
X4286859Y-4245802D01*
X4285038Y-4258624D01*
X4325000Y-4298586D01*
X4364962Y-4258624D01*
X4364962Y-4261452D01*
X4326414Y-4300000D01*
X4366376Y-4339962D01*
X4379198Y-4338141D01*
X4389668Y-4314497D01*
X4390294Y-4288646D01*
X4390294Y-4477823D01*
X4382125Y-4483281D01*
X4380010Y-4486446D01*
X4380010Y-4389108D01*
X4371654Y-4368886D01*
X4359244Y-4356454D01*
X4360476Y-4355978D01*
X4363141Y-4354198D01*
X4364962Y-4341376D01*
X4325000Y-4301414D01*
X4323586Y-4302828D01*
X4323586Y-4300000D01*
X4283624Y-4260038D01*
X4270802Y-4261859D01*
X4260332Y-4285503D01*
X4259706Y-4311354D01*
X4269022Y-4335476D01*
X4270802Y-4338141D01*
X4283624Y-4339962D01*
X4323586Y-4300000D01*
X4323586Y-4302828D01*
X4285038Y-4341376D01*
X4286859Y-4354198D01*
X4291135Y-4356092D01*
X4278400Y-4368804D01*
X4270010Y-4389012D01*
X4269990Y-4410892D01*
X4278346Y-4431114D01*
X4293804Y-4446600D01*
X4314012Y-4454990D01*
X4335892Y-4455010D01*
X4356114Y-4446654D01*
X4371600Y-4431196D01*
X4379990Y-4410988D01*
X4380010Y-4389108D01*
X4380010Y-4486446D01*
X4369335Y-4502422D01*
X4364844Y-4525000D01*
X4369335Y-4547578D01*
X4382125Y-4566719D01*
X4394518Y-4575000D01*
X4382125Y-4583281D01*
X4369335Y-4602422D01*
X4364844Y-4625000D01*
X4369335Y-4647578D01*
X4382125Y-4666719D01*
X4401266Y-4679509D01*
X4423844Y-4684000D01*
X4426156Y-4684000D01*
X4448734Y-4679509D01*
X4467875Y-4666719D01*
X4475000Y-4656056D01*
X4482125Y-4666719D01*
X4501266Y-4679509D01*
X4523844Y-4684000D01*
X4526156Y-4684000D01*
X4548734Y-4679509D01*
X4567875Y-4666719D01*
X4580665Y-4647578D01*
X4585156Y-4625000D01*
X4585156Y-4765113D01*
X4565449Y-4756366D01*
X4538008Y-4755678D01*
X4512392Y-4765544D01*
X4509461Y-4767502D01*
X4507154Y-4780739D01*
X4506566Y-4780152D01*
X4505194Y-4776839D01*
X4498161Y-4769806D01*
X4488973Y-4766000D01*
X4479027Y-4766000D01*
X4411027Y-4766000D01*
X4401839Y-4769806D01*
X4394806Y-4776839D01*
X4391000Y-4786027D01*
X4391000Y-4795973D01*
X4391000Y-4863973D01*
X4394806Y-4873161D01*
X4401645Y-4880000D01*
X4287887Y-4880000D01*
X4287887Y-4502151D01*
X4266439Y-4445141D01*
X4260739Y-4436611D01*
X4238762Y-4424069D01*
X4237348Y-4425484D01*
X4237348Y-4422655D01*
X4224806Y-4400678D01*
X4169328Y-4375532D01*
X4108450Y-4373531D01*
X4051440Y-4394979D01*
X4049000Y-4396609D01*
X4049000Y-4210250D01*
X4049000Y-4151000D01*
X4049000Y-4149000D01*
X4049000Y-4110243D01*
X4049000Y-4089750D01*
X4049000Y-4051000D01*
X4049000Y-4049000D01*
X4049000Y-3989757D01*
X4038219Y-3982013D01*
X4013099Y-3991696D01*
X3993596Y-4010256D01*
X3982680Y-4034866D01*
X3982013Y-4038219D01*
X3989758Y-4049000D01*
X4049000Y-4049000D01*
X4049000Y-4051000D01*
X3989758Y-4051000D01*
X3982013Y-4061781D01*
X3982680Y-4065134D01*
X3993339Y-4089164D01*
X3986328Y-4096174D01*
X3981000Y-4109038D01*
X3981000Y-4122962D01*
X3981000Y-4140250D01*
X3989750Y-4149000D01*
X4049000Y-4149000D01*
X4049000Y-4151000D01*
X3989750Y-4151000D01*
X3981000Y-4159750D01*
X3981000Y-4177038D01*
X3981000Y-4190962D01*
X3986328Y-4203826D01*
X3996174Y-4213672D01*
X4009038Y-4219000D01*
X4040250Y-4219000D01*
X4049000Y-4210250D01*
X4049000Y-4396609D01*
X4042910Y-4400678D01*
X4030369Y-4422655D01*
X4133858Y-4526145D01*
X4237348Y-4422655D01*
X4237348Y-4425484D01*
X4135272Y-4527559D01*
X4238762Y-4631049D01*
X4260739Y-4618507D01*
X4285885Y-4563029D01*
X4287887Y-4502151D01*
X4287887Y-4880000D01*
X4275365Y-4880000D01*
X4275365Y-4788626D01*
X4264673Y-4760770D01*
X4262447Y-4757440D01*
X4248587Y-4754402D01*
X4247172Y-4755817D01*
X4247172Y-4752988D01*
X4244135Y-4739127D01*
X4237348Y-4736106D01*
X4237348Y-4632463D01*
X4133858Y-4528973D01*
X4132444Y-4530387D01*
X4132444Y-4527559D01*
X4028954Y-4424069D01*
X4006978Y-4436611D01*
X3981831Y-4492089D01*
X3979830Y-4552967D01*
X4001278Y-4609977D01*
X4006978Y-4618507D01*
X4028954Y-4631049D01*
X4132444Y-4527559D01*
X4132444Y-4530387D01*
X4030369Y-4632463D01*
X4042910Y-4654440D01*
X4098388Y-4679586D01*
X4159266Y-4681587D01*
X4216276Y-4660139D01*
X4224806Y-4654440D01*
X4237348Y-4632463D01*
X4237348Y-4736106D01*
X4216878Y-4726991D01*
X4187051Y-4726210D01*
X4159196Y-4736902D01*
X4155865Y-4739127D01*
X4152828Y-4752988D01*
X4200000Y-4800161D01*
X4247172Y-4752988D01*
X4247172Y-4755817D01*
X4201414Y-4801575D01*
X4248587Y-4848747D01*
X4262447Y-4845709D01*
X4274584Y-4818452D01*
X4275365Y-4788626D01*
X4275365Y-4880000D01*
X4273425Y-4880000D01*
X4256204Y-4883425D01*
X4247172Y-4889460D01*
X4247172Y-4850161D01*
X4200000Y-4802989D01*
X4198586Y-4804403D01*
X4198586Y-4801575D01*
X4151413Y-4754402D01*
X4137553Y-4757440D01*
X4125416Y-4784697D01*
X4124635Y-4814524D01*
X4135327Y-4842379D01*
X4137553Y-4845709D01*
X4151413Y-4848747D01*
X4198586Y-4801575D01*
X4198586Y-4804403D01*
X4152828Y-4850161D01*
X4155865Y-4864022D01*
X4183122Y-4876158D01*
X4212949Y-4876940D01*
X4240804Y-4866248D01*
X4244135Y-4864022D01*
X4247172Y-4850161D01*
X4247172Y-4889460D01*
X4241605Y-4893180D01*
X4201359Y-4933426D01*
X4187127Y-4933414D01*
X4163229Y-4943289D01*
X4144928Y-4961558D01*
X4135011Y-4985439D01*
X4134989Y-5011298D01*
X4144864Y-5035197D01*
X4163132Y-5053497D01*
X4187014Y-5063414D01*
X4212873Y-5063436D01*
X4236771Y-5053562D01*
X4255072Y-5035293D01*
X4264989Y-5011411D01*
X4265001Y-4997064D01*
X4292065Y-4970000D01*
X4435735Y-4970000D01*
X4433670Y-4971380D01*
X4420999Y-4990343D01*
X4416550Y-5012710D01*
X4416550Y-5087290D01*
X4420999Y-5109657D01*
X4433670Y-5128620D01*
X4452632Y-5141290D01*
X4475000Y-5145740D01*
X4497368Y-5141290D01*
X4516330Y-5128620D01*
X4525000Y-5115645D01*
X4533670Y-5128620D01*
X4552632Y-5141290D01*
X4575000Y-5145740D01*
X4597368Y-5141290D01*
X4616330Y-5128620D01*
X4619717Y-5123552D01*
X4627306Y-5134559D01*
X4649729Y-5149072D01*
X4663306Y-5152894D01*
X4674000Y-5145142D01*
X4674000Y-5185000D01*
X4380027Y-5185000D01*
X4370839Y-5188806D01*
X4363806Y-5195839D01*
X4360000Y-5205027D01*
X4360000Y-5214973D01*
X4360000Y-5834973D01*
X4363806Y-5844161D01*
X4370839Y-5851194D01*
X4380027Y-5855000D01*
X4389973Y-5855000D01*
X4769973Y-5855000D01*
X4779161Y-5851194D01*
X4786194Y-5844161D01*
X4790000Y-5834973D01*
X4790000Y-5879528D01*
X4287887Y-5879528D01*
X4287887Y-5683253D01*
X4275365Y-5649970D01*
X4275365Y-5238626D01*
X4264673Y-5210770D01*
X4262447Y-5207440D01*
X4248587Y-5204402D01*
X4247172Y-5205817D01*
X4247172Y-5202988D01*
X4244135Y-5189127D01*
X4216878Y-5176991D01*
X4187051Y-5176210D01*
X4159196Y-5186902D01*
X4155865Y-5189127D01*
X4152828Y-5202988D01*
X4200000Y-5250161D01*
X4247172Y-5202988D01*
X4247172Y-5205817D01*
X4201414Y-5251575D01*
X4248587Y-5298747D01*
X4262447Y-5295709D01*
X4274584Y-5268452D01*
X4275365Y-5238626D01*
X4275365Y-5649970D01*
X4266439Y-5626243D01*
X4265011Y-5624107D01*
X4265011Y-5435553D01*
X4255136Y-5411654D01*
X4247172Y-5403676D01*
X4247172Y-5300161D01*
X4200000Y-5252989D01*
X4198586Y-5254403D01*
X4198586Y-5251575D01*
X4151413Y-5204402D01*
X4137553Y-5207440D01*
X4125416Y-5234697D01*
X4124635Y-5264524D01*
X4135327Y-5292379D01*
X4137553Y-5295709D01*
X4151413Y-5298747D01*
X4198586Y-5251575D01*
X4198586Y-5254403D01*
X4152828Y-5300161D01*
X4155865Y-5314022D01*
X4183122Y-5326158D01*
X4212949Y-5326940D01*
X4240804Y-5316248D01*
X4244135Y-5314022D01*
X4247172Y-5300161D01*
X4247172Y-5403676D01*
X4236868Y-5393353D01*
X4212986Y-5383436D01*
X4187127Y-5383414D01*
X4163229Y-5393289D01*
X4144928Y-5411558D01*
X4135011Y-5435439D01*
X4134989Y-5461298D01*
X4144864Y-5485197D01*
X4163132Y-5503497D01*
X4187014Y-5513414D01*
X4212873Y-5513436D01*
X4236771Y-5503562D01*
X4255072Y-5485293D01*
X4264989Y-5461411D01*
X4265011Y-5435553D01*
X4265011Y-5624107D01*
X4260739Y-5617713D01*
X4238762Y-5605172D01*
X4237348Y-5606586D01*
X4237348Y-5603758D01*
X4224806Y-5581781D01*
X4169328Y-5556635D01*
X4108450Y-5554633D01*
X4051440Y-5576081D01*
X4042910Y-5581781D01*
X4030369Y-5603758D01*
X4133858Y-5707247D01*
X4237348Y-5603758D01*
X4237348Y-5606586D01*
X4135272Y-5708661D01*
X4238762Y-5812151D01*
X4260739Y-5799610D01*
X4285885Y-5744131D01*
X4287887Y-5683253D01*
X4287887Y-5879528D01*
X4237348Y-5879528D01*
X4237348Y-5813565D01*
X4133858Y-5710076D01*
X4132444Y-5711490D01*
X4132444Y-5708661D01*
X4028954Y-5605172D01*
X4006978Y-5617713D01*
X3981831Y-5673191D01*
X3979830Y-5734070D01*
X4001278Y-5791080D01*
X4006978Y-5799610D01*
X4028954Y-5812151D01*
X4132444Y-5708661D01*
X4132444Y-5711490D01*
X4030369Y-5813565D01*
X4042910Y-5835542D01*
X4098388Y-5860688D01*
X4159266Y-5862690D01*
X4216276Y-5841242D01*
X4224806Y-5835542D01*
X4237348Y-5813565D01*
X4237348Y-5879528D01*
X3962992Y-5879528D01*
X3962992Y-3962992D01*
X6687761Y-3962992D01*
X6680519Y-3970222D01*
X6672509Y-3989511D01*
X6672491Y-4010397D01*
X6676872Y-4021000D01*
X6350000Y-4021000D01*
X6338902Y-4023207D01*
X6329494Y-4029494D01*
X6310890Y-4048098D01*
X6317987Y-4038219D01*
X6317320Y-4034866D01*
X6306404Y-4010256D01*
X6286901Y-3991696D01*
X6261781Y-3982013D01*
X6251000Y-3989757D01*
X6251000Y-4049000D01*
X6251787Y-4049000D01*
X6251787Y-4051000D01*
X6251000Y-4051000D01*
X6251000Y-4051787D01*
X6249000Y-4051787D01*
X6249000Y-4051000D01*
X6249000Y-4049000D01*
X6249000Y-3989757D01*
X6238219Y-3982013D01*
X6213099Y-3991696D01*
X6200000Y-4004162D01*
X6186901Y-3991696D01*
X6161781Y-3982013D01*
X6151000Y-3989757D01*
X6151000Y-4049000D01*
X6189758Y-4049000D01*
X6210242Y-4049000D01*
X6249000Y-4049000D01*
X6249000Y-4051000D01*
X6210242Y-4051000D01*
X6189758Y-4051000D01*
X6151000Y-4051000D01*
X6151000Y-4051787D01*
X6149000Y-4051787D01*
X6149000Y-4051000D01*
X6148213Y-4051000D01*
X6148213Y-4049000D01*
X6149000Y-4049000D01*
X6149000Y-3989757D01*
X6138219Y-3982013D01*
X6113099Y-3991696D01*
X6093962Y-4009907D01*
X6092875Y-4008281D01*
X6073734Y-3995491D01*
X6051156Y-3991000D01*
X6048844Y-3991000D01*
X6026266Y-3995491D01*
X6007125Y-4008281D01*
X6000000Y-4018944D01*
X5992875Y-4008281D01*
X5973734Y-3995491D01*
X5951156Y-3991000D01*
X5948844Y-3991000D01*
X5926266Y-3995491D01*
X5907125Y-4008281D01*
X5900000Y-4018944D01*
X5892875Y-4008281D01*
X5873734Y-3995491D01*
X5851156Y-3991000D01*
X5848844Y-3991000D01*
X5826266Y-3995491D01*
X5807125Y-4008281D01*
X5800000Y-4018944D01*
X5792875Y-4008281D01*
X5773734Y-3995491D01*
X5751156Y-3991000D01*
X5748844Y-3991000D01*
X5726266Y-3995491D01*
X5707125Y-4008281D01*
X5700000Y-4018944D01*
X5692875Y-4008281D01*
X5673734Y-3995491D01*
X5651156Y-3991000D01*
X5648844Y-3991000D01*
X5626266Y-3995491D01*
X5607125Y-4008281D01*
X5600000Y-4018944D01*
X5592875Y-4008281D01*
X5573734Y-3995491D01*
X5551156Y-3991000D01*
X5548844Y-3991000D01*
X5526266Y-3995491D01*
X5507125Y-4008281D01*
X5500000Y-4018944D01*
X5492875Y-4008281D01*
X5473734Y-3995491D01*
X5451156Y-3991000D01*
X5448844Y-3991000D01*
X5426266Y-3995491D01*
X5407125Y-4008281D01*
X5400000Y-4018944D01*
X5392875Y-4008281D01*
X5373734Y-3995491D01*
X5351156Y-3991000D01*
X5348844Y-3991000D01*
X5326266Y-3995491D01*
X5307125Y-4008281D01*
X5300000Y-4018944D01*
X5292875Y-4008281D01*
X5273734Y-3995491D01*
X5251156Y-3991000D01*
X5248844Y-3991000D01*
X5226266Y-3995491D01*
X5207125Y-4008281D01*
X5200000Y-4018944D01*
X5192875Y-4008281D01*
X5173734Y-3995491D01*
X5151156Y-3991000D01*
X5148844Y-3991000D01*
X5126266Y-3995491D01*
X5107125Y-4008281D01*
X5100000Y-4018944D01*
X5092875Y-4008281D01*
X5073734Y-3995491D01*
X5051156Y-3991000D01*
X5048844Y-3991000D01*
X5026266Y-3995491D01*
X5007125Y-4008281D01*
X5000000Y-4018944D01*
X4992875Y-4008281D01*
X4973734Y-3995491D01*
X4951156Y-3991000D01*
X4948844Y-3991000D01*
X4926266Y-3995491D01*
X4907125Y-4008281D01*
X4900000Y-4018944D01*
X4892875Y-4008281D01*
X4873734Y-3995491D01*
X4851156Y-3991000D01*
X4848844Y-3991000D01*
X4826266Y-3995491D01*
X4807125Y-4008281D01*
X4800000Y-4018944D01*
X4792875Y-4008281D01*
X4773734Y-3995491D01*
X4751156Y-3991000D01*
X4748844Y-3991000D01*
X4726266Y-3995491D01*
X4707125Y-4008281D01*
X4700000Y-4018944D01*
X4692875Y-4008281D01*
X4673734Y-3995491D01*
X4651156Y-3991000D01*
X4648844Y-3991000D01*
X4626266Y-3995491D01*
X4607125Y-4008281D01*
X4600000Y-4018944D01*
X4592875Y-4008281D01*
X4573734Y-3995491D01*
X4551156Y-3991000D01*
X4548844Y-3991000D01*
X4526266Y-3995491D01*
X4507125Y-4008281D01*
X4500000Y-4018944D01*
X4492875Y-4008281D01*
X4473734Y-3995491D01*
X4451156Y-3991000D01*
X4448844Y-3991000D01*
X4426266Y-3995491D01*
X4407125Y-4008281D01*
X4400000Y-4018944D01*
X4392875Y-4008281D01*
X4373734Y-3995491D01*
X4351156Y-3991000D01*
X4348844Y-3991000D01*
X4326266Y-3995491D01*
X4307125Y-4008281D01*
X4300000Y-4018944D01*
X4292875Y-4008281D01*
X4273734Y-3995491D01*
X4251156Y-3991000D01*
X4248844Y-3991000D01*
X4226266Y-3995491D01*
X4207125Y-4008281D01*
X4200000Y-4018944D01*
X4192875Y-4008281D01*
X4173734Y-3995491D01*
X4151156Y-3991000D01*
X4148844Y-3991000D01*
X4126266Y-3995491D01*
X4107125Y-4008281D01*
X4106038Y-4009907D01*
X4086901Y-3991696D01*
X4061781Y-3982013D01*
X4051000Y-3989757D01*
X4051000Y-4049000D01*
X4051787Y-4049000D01*
X4051787Y-4051000D01*
X4051000Y-4051000D01*
X4051000Y-4089750D01*
X4051000Y-4110243D01*
X4051000Y-4149000D01*
X4051787Y-4149000D01*
X4051787Y-4151000D01*
X4051000Y-4151000D01*
X4051000Y-4210250D01*
X4059750Y-4219000D01*
X4090962Y-4219000D01*
X4103826Y-4213672D01*
X4113672Y-4203826D01*
X4116180Y-4197770D01*
X4126266Y-4204509D01*
X4148844Y-4209000D01*
X4151156Y-4209000D01*
X4173734Y-4204509D01*
X4192875Y-4191719D01*
X4200000Y-4181056D01*
X4207125Y-4191719D01*
X4226266Y-4204509D01*
X4248844Y-4209000D01*
X4251156Y-4209000D01*
X4273734Y-4204509D01*
X4292875Y-4191719D01*
X4300000Y-4181056D01*
X4307125Y-4191719D01*
X4326266Y-4204509D01*
X4348844Y-4209000D01*
X4351156Y-4209000D01*
X4373734Y-4204509D01*
X4392875Y-4191719D01*
X4400000Y-4181056D01*
X4407125Y-4191719D01*
X4426266Y-4204509D01*
X4448844Y-4209000D01*
X4451156Y-4209000D01*
X4473734Y-4204509D01*
X4492875Y-4191719D01*
X4500000Y-4181056D01*
X4507125Y-4191719D01*
X4526266Y-4204509D01*
X4548844Y-4209000D01*
X4551156Y-4209000D01*
X4573734Y-4204509D01*
X4592875Y-4191719D01*
X4600000Y-4181056D01*
X4607125Y-4191719D01*
X4626266Y-4204509D01*
X4648844Y-4209000D01*
X4651156Y-4209000D01*
X4673734Y-4204509D01*
X4692875Y-4191719D01*
X4700000Y-4181056D01*
X4707125Y-4191719D01*
X4726266Y-4204509D01*
X4748844Y-4209000D01*
X4751156Y-4209000D01*
X4773734Y-4204509D01*
X4792875Y-4191719D01*
X4800000Y-4181056D01*
X4807125Y-4191719D01*
X4826266Y-4204509D01*
X4848844Y-4209000D01*
X4851156Y-4209000D01*
X4873734Y-4204509D01*
X4892875Y-4191719D01*
X4900000Y-4181056D01*
X4907125Y-4191719D01*
X4926266Y-4204509D01*
X4948844Y-4209000D01*
X4951156Y-4209000D01*
X4973734Y-4204509D01*
X4992875Y-4191719D01*
X5000000Y-4181056D01*
X5007125Y-4191719D01*
X5026266Y-4204509D01*
X5048844Y-4209000D01*
X5051156Y-4209000D01*
X5073734Y-4204509D01*
X5092875Y-4191719D01*
X5100000Y-4181056D01*
X5107125Y-4191719D01*
X5126266Y-4204509D01*
X5148844Y-4209000D01*
X5151156Y-4209000D01*
X5173734Y-4204509D01*
X5192875Y-4191719D01*
X5200000Y-4181056D01*
X5207125Y-4191719D01*
X5226266Y-4204509D01*
X5248844Y-4209000D01*
X5251156Y-4209000D01*
X5273734Y-4204509D01*
X5292875Y-4191719D01*
X5300000Y-4181056D01*
X5307125Y-4191719D01*
X5326266Y-4204509D01*
X5348844Y-4209000D01*
X5351156Y-4209000D01*
X5373734Y-4204509D01*
X5392875Y-4191719D01*
X5400000Y-4181056D01*
X5407125Y-4191719D01*
X5426266Y-4204509D01*
X5448844Y-4209000D01*
X5451156Y-4209000D01*
X5473734Y-4204509D01*
X5492875Y-4191719D01*
X5500000Y-4181056D01*
X5507125Y-4191719D01*
X5526266Y-4204509D01*
X5548844Y-4209000D01*
X5551156Y-4209000D01*
X5573734Y-4204509D01*
X5592875Y-4191719D01*
X5600000Y-4181056D01*
X5607125Y-4191719D01*
X5626266Y-4204509D01*
X5648844Y-4209000D01*
X5651156Y-4209000D01*
X5673734Y-4204509D01*
X5692875Y-4191719D01*
X5700000Y-4181056D01*
X5707125Y-4191719D01*
X5726266Y-4204509D01*
X5748844Y-4209000D01*
X5751156Y-4209000D01*
X5773734Y-4204509D01*
X5792875Y-4191719D01*
X5800000Y-4181056D01*
X5807125Y-4191719D01*
X5826266Y-4204509D01*
X5848844Y-4209000D01*
X5851156Y-4209000D01*
X5873734Y-4204509D01*
X5892875Y-4191719D01*
X5900000Y-4181056D01*
X5907125Y-4191719D01*
X5926266Y-4204509D01*
X5948844Y-4209000D01*
X5951156Y-4209000D01*
X5973734Y-4204509D01*
X5991047Y-4192941D01*
X5912757Y-4271231D01*
X5910898Y-4270459D01*
X5889197Y-4270441D01*
X5887255Y-4271243D01*
X5845506Y-4229494D01*
X5836098Y-4223207D01*
X5825000Y-4221000D01*
X5150000Y-4221000D01*
X5138902Y-4223207D01*
X5129494Y-4229494D01*
X5054494Y-4304494D01*
X5048207Y-4313902D01*
X5046000Y-4325000D01*
X5046000Y-4467356D01*
X5038596Y-4470415D01*
X5020479Y-4488501D01*
X5017365Y-4496000D01*
X4964361Y-4496000D01*
X4964361Y-4387256D01*
X4954585Y-4363596D01*
X4936499Y-4345479D01*
X4917266Y-4337492D01*
X4936404Y-4329585D01*
X4954521Y-4311499D01*
X4964339Y-4287856D01*
X4964361Y-4262256D01*
X4954585Y-4238596D01*
X4936499Y-4220479D01*
X4912856Y-4210661D01*
X4887256Y-4210639D01*
X4863596Y-4220415D01*
X4845479Y-4238501D01*
X4835661Y-4262144D01*
X4835639Y-4287744D01*
X4845415Y-4311404D01*
X4863501Y-4329521D01*
X4882734Y-4337507D01*
X4863596Y-4345415D01*
X4845479Y-4363501D01*
X4835661Y-4387144D01*
X4835649Y-4400711D01*
X4756360Y-4480000D01*
X4739069Y-4480000D01*
X4735544Y-4471489D01*
X4728511Y-4464456D01*
X4719323Y-4460650D01*
X4709377Y-4460650D01*
X4630677Y-4460650D01*
X4621489Y-4464456D01*
X4614456Y-4471489D01*
X4610650Y-4480677D01*
X4610650Y-4490623D01*
X4610650Y-4569323D01*
X4614456Y-4578511D01*
X4621489Y-4585544D01*
X4630677Y-4589350D01*
X4640623Y-4589350D01*
X4719323Y-4589350D01*
X4728511Y-4585544D01*
X4735544Y-4578511D01*
X4739069Y-4570000D01*
X4775000Y-4570000D01*
X4792221Y-4566575D01*
X4806820Y-4556820D01*
X4899290Y-4464349D01*
X4912744Y-4464361D01*
X4936404Y-4454585D01*
X4954521Y-4436499D01*
X4964339Y-4412856D01*
X4964361Y-4387256D01*
X4964361Y-4496000D01*
X4900000Y-4496000D01*
X4888902Y-4498207D01*
X4879494Y-4504494D01*
X4795255Y-4588733D01*
X4787856Y-4585661D01*
X4762256Y-4585639D01*
X4738596Y-4595415D01*
X4720479Y-4613501D01*
X4710661Y-4637144D01*
X4710639Y-4662744D01*
X4720415Y-4686404D01*
X4738501Y-4704521D01*
X4762144Y-4714339D01*
X4787744Y-4714361D01*
X4811404Y-4704585D01*
X4829521Y-4686499D01*
X4839339Y-4662856D01*
X4839361Y-4637256D01*
X4836260Y-4629752D01*
X4912012Y-4554000D01*
X5017356Y-4554000D01*
X5020415Y-4561404D01*
X5038501Y-4579521D01*
X5062144Y-4589339D01*
X5087744Y-4589361D01*
X5111404Y-4579585D01*
X5115496Y-4575500D01*
X5110661Y-4587144D01*
X5110639Y-4612744D01*
X5120415Y-4636404D01*
X5133854Y-4649866D01*
X5120300Y-4655467D01*
X5105519Y-4670222D01*
X5099996Y-4683521D01*
X5094533Y-4670300D01*
X5079778Y-4655519D01*
X5060489Y-4647509D01*
X5039603Y-4647491D01*
X5020300Y-4655467D01*
X5005519Y-4670222D01*
X4999996Y-4683521D01*
X4994533Y-4670300D01*
X4979778Y-4655519D01*
X4960489Y-4647509D01*
X4939603Y-4647491D01*
X4920300Y-4655467D01*
X4905519Y-4670222D01*
X4897509Y-4689511D01*
X4897491Y-4710397D01*
X4905467Y-4729700D01*
X4920222Y-4744481D01*
X4939511Y-4752491D01*
X4960397Y-4752509D01*
X4979700Y-4744533D01*
X4994481Y-4729778D01*
X5000004Y-4716478D01*
X5005467Y-4729700D01*
X5020222Y-4744481D01*
X5039511Y-4752491D01*
X5060397Y-4752509D01*
X5079700Y-4744533D01*
X5094481Y-4729778D01*
X5100004Y-4716478D01*
X5105467Y-4729700D01*
X5120222Y-4744481D01*
X5139511Y-4752491D01*
X5160397Y-4752509D01*
X5179700Y-4744533D01*
X5194481Y-4729778D01*
X5200004Y-4716478D01*
X5205467Y-4729700D01*
X5220222Y-4744481D01*
X5239511Y-4752491D01*
X5260397Y-4752509D01*
X5279700Y-4744533D01*
X5294481Y-4729778D01*
X5300004Y-4716478D01*
X5305467Y-4729700D01*
X5320222Y-4744481D01*
X5339511Y-4752491D01*
X5360397Y-4752509D01*
X5379700Y-4744533D01*
X5394481Y-4729778D01*
X5400004Y-4716478D01*
X5405467Y-4729700D01*
X5420222Y-4744481D01*
X5439511Y-4752491D01*
X5460397Y-4752509D01*
X5479700Y-4744533D01*
X5494481Y-4729778D01*
X5500004Y-4716478D01*
X5505467Y-4729700D01*
X5520222Y-4744481D01*
X5539511Y-4752491D01*
X5560397Y-4752509D01*
X5579700Y-4744533D01*
X5594481Y-4729778D01*
X5600004Y-4716478D01*
X5605467Y-4729700D01*
X5620222Y-4744481D01*
X5639511Y-4752491D01*
X5660397Y-4752509D01*
X5679700Y-4744533D01*
X5694481Y-4729778D01*
X5700004Y-4716478D01*
X5705467Y-4729700D01*
X5720222Y-4744481D01*
X5739511Y-4752491D01*
X5760397Y-4752509D01*
X5779700Y-4744533D01*
X5794481Y-4729778D01*
X5794494Y-4729747D01*
X5796195Y-4734145D01*
X5797864Y-4736643D01*
X5810427Y-4738159D01*
X5848586Y-4700000D01*
X5848029Y-4699443D01*
X5849443Y-4698029D01*
X5850000Y-4698586D01*
X5850557Y-4698029D01*
X5851971Y-4699443D01*
X5851414Y-4700000D01*
X5889573Y-4738159D01*
X5902136Y-4736643D01*
X5905000Y-4730164D01*
X5905000Y-4756360D01*
X5888159Y-4773201D01*
X5888159Y-4739573D01*
X5850000Y-4701414D01*
X5811841Y-4739573D01*
X5813357Y-4752136D01*
X5836098Y-4762190D01*
X5860955Y-4762776D01*
X5884145Y-4753805D01*
X5886643Y-4752136D01*
X5888159Y-4739573D01*
X5888159Y-4773201D01*
X5881360Y-4780000D01*
X4688444Y-4780000D01*
X4683464Y-4775011D01*
X4661787Y-4766010D01*
X4638316Y-4765990D01*
X4616623Y-4774953D01*
X4607157Y-4784402D01*
X4594260Y-4782154D01*
X4592846Y-4783568D01*
X4551414Y-4825000D01*
X4594260Y-4867846D01*
X4607161Y-4865597D01*
X4616536Y-4874989D01*
X4638213Y-4883990D01*
X4661684Y-4884010D01*
X4683377Y-4875047D01*
X4688433Y-4870000D01*
X5900000Y-4870000D01*
X5917221Y-4866575D01*
X5931820Y-4856820D01*
X5950000Y-4838640D01*
X5968180Y-4856820D01*
X5982779Y-4866575D01*
X6000000Y-4870000D01*
X6906360Y-4870000D01*
X6998007Y-4961647D01*
X7005467Y-4979700D01*
X7020222Y-4994481D01*
X7033521Y-5000004D01*
X7020300Y-5005467D01*
X7005519Y-5020222D01*
X6997509Y-5039511D01*
X6997491Y-5060397D01*
X7005467Y-5079700D01*
X7020222Y-5094481D01*
X7039511Y-5102491D01*
X7060397Y-5102509D01*
X7079700Y-5094533D01*
X7094481Y-5079778D01*
X7100836Y-5064475D01*
X7118180Y-5081820D01*
X7132779Y-5091575D01*
X7150000Y-5095000D01*
X7321471Y-5095000D01*
X7339511Y-5102491D01*
X7360397Y-5102509D01*
X7379700Y-5094533D01*
X7394481Y-5079778D01*
X7402491Y-5060489D01*
X7402506Y-5043518D01*
X7421000Y-5062012D01*
X7421000Y-5112702D01*
X7408491Y-5107507D01*
X7391583Y-5107493D01*
X7375957Y-5113949D01*
X7363991Y-5125894D01*
X7357507Y-5141509D01*
X7357499Y-5151489D01*
X7304546Y-5204442D01*
X7304559Y-5189197D01*
X7296272Y-5169140D01*
X7280940Y-5153782D01*
X7260898Y-5145459D01*
X7239197Y-5145441D01*
X7219140Y-5153728D01*
X7206282Y-5166563D01*
X7205587Y-5164763D01*
X7203827Y-5162129D01*
X7191052Y-5160363D01*
X7189637Y-5161777D01*
X7189637Y-5158948D01*
X7187871Y-5146173D01*
X7164390Y-5135778D01*
X7138718Y-5135160D01*
X7114763Y-5144413D01*
X7112129Y-5146173D01*
X7110363Y-5158948D01*
X7150000Y-5198586D01*
X7189637Y-5158948D01*
X7189637Y-5161777D01*
X7151414Y-5200000D01*
X7151971Y-5200557D01*
X7150557Y-5201971D01*
X7150000Y-5201414D01*
X7149443Y-5201971D01*
X7148586Y-5201114D01*
X7148029Y-5200557D01*
X7148586Y-5200000D01*
X7108948Y-5160363D01*
X7096173Y-5162129D01*
X7085778Y-5185610D01*
X7085160Y-5211282D01*
X7094413Y-5235237D01*
X7096173Y-5237871D01*
X7108948Y-5239637D01*
X7102824Y-5245762D01*
X7103063Y-5246000D01*
X6962012Y-5246000D01*
X6850554Y-5134542D01*
X6861009Y-5124106D01*
X6867493Y-5108491D01*
X6867507Y-5091583D01*
X6861051Y-5075957D01*
X6849106Y-5063991D01*
X6833491Y-5057507D01*
X6816583Y-5057493D01*
X6800957Y-5063949D01*
X6793894Y-5071000D01*
X6400000Y-5071000D01*
X6388902Y-5073207D01*
X6379494Y-5079494D01*
X6351486Y-5107501D01*
X6341583Y-5107493D01*
X6325957Y-5113949D01*
X6313991Y-5125894D01*
X6307511Y-5141499D01*
X6295506Y-5129494D01*
X6286098Y-5123207D01*
X6275000Y-5121000D01*
X5175000Y-5121000D01*
X5163902Y-5123207D01*
X5154494Y-5129494D01*
X5151486Y-5132501D01*
X5141583Y-5132493D01*
X5125957Y-5138949D01*
X5113991Y-5150894D01*
X5107507Y-5166509D01*
X5107493Y-5183417D01*
X5113949Y-5199043D01*
X5125894Y-5211009D01*
X5141509Y-5217493D01*
X5158417Y-5217507D01*
X5160836Y-5216508D01*
X5162692Y-5221000D01*
X5131102Y-5221000D01*
X5124106Y-5213991D01*
X5108491Y-5207507D01*
X5091583Y-5207493D01*
X5075957Y-5213949D01*
X5063991Y-5225894D01*
X5057507Y-5241509D01*
X5057502Y-5247506D01*
X5039603Y-5247491D01*
X5020300Y-5255467D01*
X5005519Y-5270222D01*
X5002500Y-5277492D01*
X5002500Y-5267527D01*
X4998694Y-5258339D01*
X4991661Y-5251306D01*
X4982473Y-5247500D01*
X4972527Y-5247500D01*
X4917527Y-5247500D01*
X4908339Y-5251306D01*
X4901306Y-5258339D01*
X4897500Y-5267527D01*
X4897500Y-5277473D01*
X4897500Y-5332473D01*
X4901306Y-5341661D01*
X4908339Y-5348694D01*
X4917527Y-5352500D01*
X4927473Y-5352500D01*
X4982473Y-5352500D01*
X4991661Y-5348694D01*
X4998694Y-5341661D01*
X5002500Y-5332473D01*
X5002500Y-5322527D01*
X5002500Y-5322520D01*
X5005467Y-5329700D01*
X5020222Y-5344481D01*
X5039511Y-5352491D01*
X5060397Y-5352509D01*
X5079700Y-5344533D01*
X5094481Y-5329778D01*
X5100004Y-5316478D01*
X5105467Y-5329700D01*
X5120222Y-5344481D01*
X5139511Y-5352491D01*
X5160397Y-5352509D01*
X5179700Y-5344533D01*
X5194481Y-5329778D01*
X5200004Y-5316478D01*
X5205467Y-5329700D01*
X5220222Y-5344481D01*
X5239511Y-5352491D01*
X5260397Y-5352509D01*
X5279700Y-5344533D01*
X5294481Y-5329778D01*
X5300004Y-5316478D01*
X5305467Y-5329700D01*
X5320222Y-5344481D01*
X5339511Y-5352491D01*
X5360397Y-5352509D01*
X5379700Y-5344533D01*
X5394481Y-5329778D01*
X5400004Y-5316478D01*
X5405467Y-5329700D01*
X5420222Y-5344481D01*
X5439511Y-5352491D01*
X5460397Y-5352509D01*
X5479700Y-5344533D01*
X5494481Y-5329778D01*
X5500004Y-5316478D01*
X5505467Y-5329700D01*
X5520222Y-5344481D01*
X5539511Y-5352491D01*
X5560397Y-5352509D01*
X5579700Y-5344533D01*
X5594481Y-5329778D01*
X5600004Y-5316478D01*
X5605467Y-5329700D01*
X5620222Y-5344481D01*
X5639511Y-5352491D01*
X5660397Y-5352509D01*
X5661175Y-5352188D01*
X5704494Y-5395506D01*
X5713902Y-5401793D01*
X5713902Y-5401793D01*
X5725000Y-5404000D01*
X5768868Y-5404000D01*
X5753782Y-5419060D01*
X5745459Y-5439102D01*
X5745458Y-5440902D01*
X5718180Y-5468180D01*
X5708425Y-5482779D01*
X5705000Y-5500000D01*
X5705000Y-5525000D01*
X5705000Y-5531360D01*
X5695651Y-5540709D01*
X5677422Y-5544335D01*
X5658281Y-5557125D01*
X5657727Y-5557954D01*
X5655194Y-5551839D01*
X5648161Y-5544806D01*
X5638973Y-5541000D01*
X5629027Y-5541000D01*
X5561027Y-5541000D01*
X5551839Y-5544806D01*
X5544806Y-5551839D01*
X5541000Y-5561027D01*
X5541000Y-5570973D01*
X5541000Y-5610625D01*
X5533491Y-5607507D01*
X5516583Y-5607493D01*
X5500957Y-5613949D01*
X5488991Y-5625894D01*
X5482507Y-5641509D01*
X5482493Y-5658417D01*
X5488949Y-5674043D01*
X5500894Y-5686009D01*
X5516509Y-5692493D01*
X5533417Y-5692507D01*
X5543052Y-5688526D01*
X5541000Y-5698844D01*
X5541000Y-5701156D01*
X5545491Y-5723734D01*
X5558281Y-5742875D01*
X5568944Y-5750000D01*
X5558281Y-5757125D01*
X5545491Y-5776266D01*
X5541000Y-5798844D01*
X5541000Y-5801156D01*
X5545491Y-5823734D01*
X5558281Y-5842875D01*
X5577422Y-5855665D01*
X5600000Y-5860156D01*
X5622578Y-5855665D01*
X5641719Y-5842875D01*
X5644055Y-5839380D01*
X5660256Y-5856404D01*
X5684866Y-5867320D01*
X5688219Y-5867987D01*
X5699000Y-5860242D01*
X5699000Y-5801000D01*
X5698213Y-5801000D01*
X5698213Y-5799000D01*
X5699000Y-5799000D01*
X5699000Y-5798213D01*
X5701000Y-5798213D01*
X5701000Y-5799000D01*
X5760243Y-5799000D01*
X5767987Y-5788219D01*
X5758304Y-5763099D01*
X5740093Y-5743962D01*
X5741719Y-5742875D01*
X5754509Y-5723734D01*
X5759000Y-5701156D01*
X5759000Y-5698844D01*
X5754509Y-5676266D01*
X5741719Y-5657125D01*
X5731056Y-5650000D01*
X5741719Y-5642875D01*
X5754509Y-5623734D01*
X5758135Y-5605505D01*
X5781820Y-5581820D01*
X5791575Y-5567221D01*
X5795000Y-5550000D01*
X5795000Y-5525000D01*
X5795000Y-5518640D01*
X5809082Y-5504558D01*
X5810803Y-5504559D01*
X5830860Y-5496272D01*
X5843718Y-5483437D01*
X5844413Y-5485237D01*
X5846173Y-5487871D01*
X5858948Y-5489637D01*
X5898586Y-5450000D01*
X5898029Y-5449443D01*
X5899443Y-5448029D01*
X5900000Y-5448586D01*
X5900557Y-5448029D01*
X5901971Y-5449443D01*
X5901414Y-5450000D01*
X5941052Y-5489637D01*
X5953827Y-5487871D01*
X5964222Y-5464390D01*
X5964840Y-5438718D01*
X5955587Y-5414763D01*
X5953827Y-5412129D01*
X5941052Y-5410363D01*
X5947176Y-5404238D01*
X5946937Y-5404000D01*
X6412988Y-5404000D01*
X6579494Y-5570506D01*
X6586259Y-5575026D01*
X6585038Y-5583624D01*
X6625000Y-5623586D01*
X6625557Y-5623029D01*
X6626971Y-5624443D01*
X6626414Y-5625000D01*
X6626971Y-5625557D01*
X6625557Y-5626971D01*
X6625000Y-5626414D01*
X6623586Y-5627828D01*
X6623586Y-5625000D01*
X6583624Y-5585038D01*
X6570802Y-5586859D01*
X6560332Y-5610503D01*
X6559706Y-5636354D01*
X6569022Y-5660476D01*
X6570802Y-5663141D01*
X6583624Y-5664962D01*
X6623586Y-5625000D01*
X6623586Y-5627828D01*
X6585038Y-5666376D01*
X6585801Y-5671750D01*
X6580839Y-5673806D01*
X6573806Y-5680839D01*
X6570000Y-5690027D01*
X6570000Y-5699973D01*
X6570000Y-5759973D01*
X6573806Y-5769161D01*
X6580839Y-5776194D01*
X6590027Y-5780000D01*
X6599973Y-5780000D01*
X6659973Y-5780000D01*
X6669161Y-5776194D01*
X6676194Y-5769161D01*
X6680000Y-5759973D01*
X6680000Y-5757771D01*
X6693804Y-5771600D01*
X6714012Y-5779990D01*
X6735892Y-5780010D01*
X6756114Y-5771654D01*
X6771600Y-5756196D01*
X6774998Y-5748011D01*
X6778346Y-5756114D01*
X6793804Y-5771600D01*
X6814012Y-5779990D01*
X6835892Y-5780010D01*
X6856114Y-5771654D01*
X6871600Y-5756196D01*
X6874998Y-5748011D01*
X6878346Y-5756114D01*
X6893804Y-5771600D01*
X6914012Y-5779990D01*
X6935892Y-5780010D01*
X6956114Y-5771654D01*
X6971600Y-5756196D01*
X6974998Y-5748011D01*
X6978346Y-5756114D01*
X6993804Y-5771600D01*
X7014012Y-5779990D01*
X7035892Y-5780010D01*
X7056114Y-5771654D01*
X7071600Y-5756196D01*
X7079990Y-5735988D01*
X7080010Y-5714108D01*
X7071654Y-5693886D01*
X7059244Y-5681454D01*
X7060476Y-5680978D01*
X7063141Y-5679198D01*
X7064962Y-5666376D01*
X7025000Y-5626414D01*
X6985038Y-5666376D01*
X6986859Y-5679198D01*
X6991135Y-5681092D01*
X6978400Y-5693804D01*
X6975002Y-5701989D01*
X6971654Y-5693886D01*
X6956196Y-5678400D01*
X6948011Y-5675002D01*
X6956114Y-5671654D01*
X6968546Y-5659244D01*
X6969022Y-5660476D01*
X6970802Y-5663141D01*
X6983624Y-5664962D01*
X7023586Y-5625000D01*
X6983624Y-5585038D01*
X6970802Y-5586859D01*
X6968908Y-5591135D01*
X6956196Y-5578400D01*
X6935988Y-5570010D01*
X6925025Y-5570000D01*
X6988059Y-5570000D01*
X6986859Y-5570802D01*
X6985038Y-5583624D01*
X7025000Y-5623586D01*
X7064962Y-5583624D01*
X7063141Y-5570802D01*
X7061330Y-5570000D01*
X7150000Y-5570000D01*
X7167221Y-5566575D01*
X7181820Y-5556820D01*
X7191575Y-5542221D01*
X7195000Y-5525000D01*
X7191575Y-5507779D01*
X7189049Y-5504000D01*
X7290988Y-5504000D01*
X7338733Y-5551745D01*
X7335661Y-5559144D01*
X7335639Y-5584744D01*
X7345415Y-5608404D01*
X7363501Y-5626521D01*
X7387144Y-5636339D01*
X7412744Y-5636361D01*
X7436404Y-5626585D01*
X7454521Y-5608499D01*
X7464339Y-5584856D01*
X7464361Y-5559256D01*
X7454585Y-5535596D01*
X7436499Y-5517479D01*
X7412856Y-5507661D01*
X7387256Y-5507639D01*
X7379752Y-5510740D01*
X7323506Y-5454494D01*
X7314098Y-5448207D01*
X7303000Y-5446000D01*
X6587012Y-5446000D01*
X6520012Y-5379000D01*
X6775000Y-5379000D01*
X6786098Y-5376793D01*
X6795506Y-5370506D01*
X6820506Y-5345506D01*
X6820980Y-5344796D01*
X6839511Y-5352491D01*
X6860397Y-5352509D01*
X6879700Y-5344533D01*
X6894481Y-5329778D01*
X6894804Y-5329000D01*
X6954996Y-5329000D01*
X6945479Y-5338501D01*
X6935661Y-5362144D01*
X6935639Y-5387744D01*
X6945415Y-5411404D01*
X6963501Y-5429521D01*
X6987144Y-5439339D01*
X7012744Y-5439361D01*
X7036404Y-5429585D01*
X7054521Y-5411499D01*
X7064339Y-5387856D01*
X7064361Y-5362256D01*
X7054585Y-5338596D01*
X7045006Y-5329000D01*
X7350000Y-5329000D01*
X7356239Y-5327759D01*
X7345479Y-5338501D01*
X7335661Y-5362144D01*
X7335639Y-5387744D01*
X7345415Y-5411404D01*
X7363501Y-5429521D01*
X7387144Y-5439339D01*
X7412744Y-5439361D01*
X7420248Y-5436260D01*
X7479494Y-5495506D01*
X7488902Y-5501793D01*
X7491000Y-5502210D01*
X7491000Y-5513973D01*
X7494806Y-5523161D01*
X7501839Y-5530194D01*
X7511027Y-5534000D01*
X7520973Y-5534000D01*
X7588973Y-5534000D01*
X7598161Y-5530194D01*
X7605194Y-5523161D01*
X7607985Y-5516423D01*
X7616536Y-5524989D01*
X7638213Y-5533990D01*
X7661684Y-5534010D01*
X7683377Y-5525047D01*
X7699989Y-5508464D01*
X7700004Y-5508428D01*
X7716536Y-5524989D01*
X7738213Y-5533990D01*
X7761684Y-5534010D01*
X7783377Y-5525047D01*
X7799989Y-5508464D01*
X7808990Y-5486787D01*
X7809010Y-5463316D01*
X7800047Y-5441623D01*
X7783464Y-5425011D01*
X7780655Y-5423845D01*
X7780655Y-4238762D01*
X7677165Y-4135272D01*
X7675751Y-4136687D01*
X7675751Y-4133858D01*
X7572261Y-4030369D01*
X7550285Y-4042910D01*
X7525139Y-4098388D01*
X7523137Y-4159266D01*
X7544585Y-4216276D01*
X7550285Y-4224806D01*
X7572261Y-4237348D01*
X7675751Y-4133858D01*
X7675751Y-4136687D01*
X7573676Y-4238762D01*
X7586217Y-4260739D01*
X7641695Y-4285885D01*
X7702574Y-4287887D01*
X7759584Y-4266439D01*
X7768114Y-4260739D01*
X7780655Y-4238762D01*
X7780655Y-5423845D01*
X7765294Y-5417466D01*
X7765294Y-4788646D01*
X7755978Y-4764524D01*
X7755010Y-4763073D01*
X7755010Y-4689108D01*
X7746654Y-4668886D01*
X7731196Y-4653400D01*
X7710988Y-4645010D01*
X7689108Y-4644990D01*
X7668886Y-4653346D01*
X7655000Y-4667208D01*
X7655000Y-4665027D01*
X7651194Y-4655839D01*
X7644161Y-4648806D01*
X7634973Y-4645000D01*
X7625027Y-4645000D01*
X7565027Y-4645000D01*
X7555839Y-4648806D01*
X7548806Y-4655839D01*
X7545000Y-4665027D01*
X7545000Y-4674973D01*
X7545000Y-4734973D01*
X7548806Y-4744161D01*
X7555839Y-4751194D01*
X7560801Y-4753250D01*
X7560038Y-4758624D01*
X7600000Y-4798586D01*
X7639962Y-4758624D01*
X7639199Y-4753250D01*
X7644161Y-4751194D01*
X7651194Y-4744161D01*
X7655000Y-4734973D01*
X7655000Y-4732771D01*
X7665756Y-4743546D01*
X7664524Y-4744022D01*
X7661859Y-4745802D01*
X7660038Y-4758624D01*
X7700000Y-4798586D01*
X7739962Y-4758624D01*
X7738141Y-4745802D01*
X7733865Y-4743908D01*
X7746600Y-4731196D01*
X7754990Y-4710988D01*
X7755010Y-4689108D01*
X7755010Y-4763073D01*
X7754198Y-4761859D01*
X7741376Y-4760038D01*
X7701414Y-4800000D01*
X7741376Y-4839962D01*
X7754198Y-4838141D01*
X7764668Y-4814497D01*
X7765294Y-4788646D01*
X7765294Y-5417466D01*
X7761787Y-5416010D01*
X7738316Y-5415990D01*
X7716623Y-5424953D01*
X7700011Y-5441536D01*
X7699996Y-5441572D01*
X7683464Y-5425011D01*
X7661787Y-5416010D01*
X7638316Y-5415990D01*
X7616623Y-5424953D01*
X7607985Y-5433576D01*
X7605194Y-5426839D01*
X7598161Y-5419806D01*
X7588973Y-5416000D01*
X7579027Y-5416000D01*
X7511027Y-5416000D01*
X7501839Y-5419806D01*
X7494806Y-5426839D01*
X7494233Y-5428221D01*
X7461267Y-5395255D01*
X7464339Y-5387856D01*
X7464361Y-5362256D01*
X7454585Y-5338596D01*
X7436499Y-5320479D01*
X7412856Y-5310661D01*
X7387256Y-5310639D01*
X7375527Y-5315485D01*
X7470506Y-5220506D01*
X7476793Y-5211098D01*
X7479000Y-5200000D01*
X7479000Y-5050000D01*
X7476793Y-5038902D01*
X7470506Y-5029494D01*
X7420506Y-4979494D01*
X7419767Y-4979000D01*
X7549167Y-4979000D01*
X7545010Y-4989012D01*
X7544990Y-5010892D01*
X7553346Y-5031114D01*
X7568804Y-5046600D01*
X7576989Y-5049998D01*
X7568886Y-5053346D01*
X7553400Y-5068804D01*
X7545010Y-5089012D01*
X7544990Y-5110892D01*
X7553346Y-5131114D01*
X7568804Y-5146600D01*
X7589012Y-5154990D01*
X7610892Y-5155010D01*
X7631114Y-5146654D01*
X7646600Y-5131196D01*
X7649998Y-5123011D01*
X7653346Y-5131114D01*
X7668804Y-5146600D01*
X7689012Y-5154990D01*
X7710892Y-5155010D01*
X7731114Y-5146654D01*
X7746600Y-5131196D01*
X7754990Y-5110988D01*
X7755010Y-5089108D01*
X7746654Y-5068886D01*
X7731196Y-5053400D01*
X7723011Y-5050002D01*
X7731114Y-5046654D01*
X7746600Y-5031196D01*
X7754990Y-5010988D01*
X7755010Y-4989108D01*
X7746654Y-4968886D01*
X7731196Y-4953400D01*
X7723011Y-4950002D01*
X7731114Y-4946654D01*
X7746600Y-4931196D01*
X7754990Y-4910988D01*
X7755010Y-4889108D01*
X7746654Y-4868886D01*
X7734244Y-4856454D01*
X7735476Y-4855978D01*
X7738141Y-4854198D01*
X7739962Y-4841376D01*
X7700000Y-4801414D01*
X7698586Y-4802828D01*
X7698586Y-4800000D01*
X7658624Y-4760038D01*
X7650000Y-4761263D01*
X7641376Y-4760038D01*
X7601414Y-4800000D01*
X7641376Y-4839962D01*
X7650000Y-4838737D01*
X7658624Y-4839962D01*
X7698586Y-4800000D01*
X7698586Y-4802828D01*
X7660038Y-4841376D01*
X7661859Y-4854198D01*
X7666135Y-4856092D01*
X7653400Y-4868804D01*
X7650002Y-4876989D01*
X7646654Y-4868886D01*
X7634244Y-4856454D01*
X7635476Y-4855978D01*
X7638141Y-4854198D01*
X7639962Y-4841376D01*
X7600000Y-4801414D01*
X7598586Y-4802828D01*
X7598586Y-4800000D01*
X7558624Y-4760038D01*
X7545802Y-4761859D01*
X7535332Y-4785503D01*
X7534706Y-4811354D01*
X7544022Y-4835476D01*
X7545802Y-4838141D01*
X7558624Y-4839962D01*
X7598586Y-4800000D01*
X7598586Y-4802828D01*
X7560038Y-4841376D01*
X7561859Y-4854198D01*
X7566135Y-4856092D01*
X7556611Y-4865599D01*
X7520506Y-4829494D01*
X7511098Y-4823207D01*
X7500000Y-4821000D01*
X7394823Y-4821000D01*
X7394533Y-4820300D01*
X7379778Y-4805519D01*
X7366478Y-4799996D01*
X7379700Y-4794533D01*
X7394481Y-4779778D01*
X7402491Y-4760489D01*
X7402509Y-4739603D01*
X7394533Y-4720300D01*
X7379778Y-4705519D01*
X7360489Y-4697509D01*
X7339603Y-4697491D01*
X7320300Y-4705467D01*
X7305519Y-4720222D01*
X7297509Y-4739511D01*
X7297491Y-4760397D01*
X7297812Y-4761175D01*
X7254494Y-4804494D01*
X7248207Y-4813902D01*
X7246000Y-4825000D01*
X7246000Y-4950000D01*
X7248207Y-4961098D01*
X7254494Y-4970506D01*
X7288988Y-5005000D01*
X7168640Y-5005000D01*
X7112776Y-4949136D01*
X7112776Y-4839045D01*
X7103805Y-4815855D01*
X7102500Y-4813903D01*
X7102500Y-4782473D01*
X7102500Y-4772527D01*
X7102500Y-4717527D01*
X7098694Y-4708339D01*
X7091661Y-4701306D01*
X7082473Y-4697500D01*
X7072527Y-4697500D01*
X7017527Y-4697500D01*
X7008339Y-4701306D01*
X7001306Y-4708339D01*
X6997500Y-4717527D01*
X6997500Y-4727473D01*
X6997500Y-4782473D01*
X7001306Y-4791661D01*
X7008339Y-4798694D01*
X7013023Y-4800634D01*
X7011841Y-4810427D01*
X7050000Y-4848586D01*
X7088159Y-4810427D01*
X7086977Y-4800634D01*
X7091661Y-4798694D01*
X7098694Y-4791661D01*
X7102500Y-4782473D01*
X7102500Y-4813903D01*
X7102136Y-4813357D01*
X7089573Y-4811841D01*
X7051414Y-4850000D01*
X7089573Y-4888159D01*
X7102136Y-4886643D01*
X7112190Y-4863902D01*
X7112776Y-4839045D01*
X7112776Y-4949136D01*
X7101993Y-4938353D01*
X7094533Y-4920300D01*
X7079778Y-4905519D01*
X7079747Y-4905506D01*
X7084145Y-4903805D01*
X7086643Y-4902136D01*
X7088159Y-4889573D01*
X7050000Y-4851414D01*
X7049443Y-4851971D01*
X7048029Y-4850557D01*
X7048586Y-4850000D01*
X7010427Y-4811841D01*
X6997864Y-4813357D01*
X6991467Y-4827827D01*
X6956820Y-4793180D01*
X6942221Y-4783425D01*
X6925000Y-4780000D01*
X6911012Y-4780000D01*
X6948513Y-4742499D01*
X6958417Y-4742507D01*
X6974043Y-4736051D01*
X6986009Y-4724106D01*
X6992493Y-4708491D01*
X6992507Y-4691583D01*
X6986051Y-4675957D01*
X6974106Y-4663991D01*
X6958491Y-4657507D01*
X6941583Y-4657493D01*
X6925957Y-4663949D01*
X6913991Y-4675894D01*
X6907507Y-4691509D01*
X6907499Y-4701489D01*
X6902494Y-4706493D01*
X6902509Y-4689603D01*
X6894533Y-4670300D01*
X6879778Y-4655519D01*
X6860489Y-4647509D01*
X6839603Y-4647491D01*
X6820300Y-4655467D01*
X6805519Y-4670222D01*
X6799996Y-4683521D01*
X6794533Y-4670300D01*
X6782633Y-4658379D01*
X6808839Y-4632173D01*
X6813213Y-4633990D01*
X6836684Y-4634010D01*
X6858377Y-4625047D01*
X6874989Y-4608464D01*
X6875004Y-4608428D01*
X6891536Y-4624989D01*
X6913213Y-4633990D01*
X6936684Y-4634010D01*
X6958377Y-4625047D01*
X6974989Y-4608464D01*
X6975004Y-4608428D01*
X6991536Y-4624989D01*
X7013213Y-4633990D01*
X7036684Y-4634010D01*
X7058377Y-4625047D01*
X7074989Y-4608464D01*
X7075004Y-4608428D01*
X7091536Y-4624989D01*
X7113213Y-4633990D01*
X7136684Y-4634010D01*
X7158377Y-4625047D01*
X7174989Y-4608464D01*
X7183990Y-4586787D01*
X7184010Y-4563316D01*
X7175047Y-4541623D01*
X7158464Y-4525011D01*
X7136787Y-4516010D01*
X7113316Y-4515990D01*
X7091623Y-4524953D01*
X7075011Y-4541536D01*
X7074996Y-4541572D01*
X7060384Y-4526934D01*
X7061098Y-4526793D01*
X7070506Y-4520506D01*
X7108839Y-4482173D01*
X7113213Y-4483990D01*
X7136684Y-4484010D01*
X7158377Y-4475047D01*
X7174989Y-4458464D01*
X7183990Y-4436787D01*
X7184010Y-4413316D01*
X7175047Y-4391623D01*
X7162446Y-4379000D01*
X7350000Y-4379000D01*
X7361098Y-4376793D01*
X7370506Y-4370506D01*
X7395506Y-4345506D01*
X7401793Y-4336098D01*
X7401793Y-4336098D01*
X7404000Y-4325000D01*
X7404000Y-4200000D01*
X7401793Y-4188902D01*
X7395506Y-4179494D01*
X7354000Y-4137988D01*
X7354000Y-4044823D01*
X7354700Y-4044533D01*
X7369481Y-4029778D01*
X7377491Y-4010489D01*
X7377509Y-3989603D01*
X7369533Y-3970300D01*
X7362238Y-3962992D01*
X7848031Y-3962992D01*
X7848031Y-5879528D01*
M02*
