%FSLAX36Y36*%
G04 Gerber Fmt 3.6, Leading zero omitted, Abs format (unit inch)*
G04 Created by KiCad (PCBNEW (2014-jul-16 BZR unknown)-product) date Sun 05 Oct 2014 02:20:23 PM PDT*
%MOIN*%
G01*
G04 APERTURE LIST*
%ADD10C,0.003937*%
%ADD11C,0.008000*%
%ADD12C,0.000100*%
G04 APERTURE END LIST*
D10*
D11*
X7765114Y-4621295D02*
X7765114Y-4581295D01*
X7747971Y-4621295D02*
X7747971Y-4600343D01*
X7749876Y-4596533D01*
X7753686Y-4594629D01*
X7759400Y-4594629D01*
X7763209Y-4596533D01*
X7765114Y-4598438D01*
X7711781Y-4621295D02*
X7711781Y-4600343D01*
X7713686Y-4596533D01*
X7717495Y-4594629D01*
X7725114Y-4594629D01*
X7728924Y-4596533D01*
X7711781Y-4619390D02*
X7715590Y-4621295D01*
X7725114Y-4621295D01*
X7728924Y-4619390D01*
X7730829Y-4615581D01*
X7730829Y-4611771D01*
X7728924Y-4607962D01*
X7725114Y-4606057D01*
X7715590Y-4606057D01*
X7711781Y-4604152D01*
X7692733Y-4621295D02*
X7692733Y-4594629D01*
X7692733Y-4602248D02*
X7690829Y-4598438D01*
X7688924Y-4596533D01*
X7685114Y-4594629D01*
X7681305Y-4594629D01*
X7650829Y-4621295D02*
X7650829Y-4581295D01*
X7650829Y-4619390D02*
X7654638Y-4621295D01*
X7662257Y-4621295D01*
X7666067Y-4619390D01*
X7667971Y-4617486D01*
X7669876Y-4613676D01*
X7669876Y-4602248D01*
X7667971Y-4598438D01*
X7666067Y-4596533D01*
X7662257Y-4594629D01*
X7654638Y-4594629D01*
X7650829Y-4596533D01*
X7635590Y-4594629D02*
X7627971Y-4621295D01*
X7620352Y-4602248D01*
X7612733Y-4621295D01*
X7605114Y-4594629D01*
X7572733Y-4621295D02*
X7572733Y-4600343D01*
X7574638Y-4596533D01*
X7578448Y-4594629D01*
X7586067Y-4594629D01*
X7589876Y-4596533D01*
X7572733Y-4619390D02*
X7576543Y-4621295D01*
X7586067Y-4621295D01*
X7589876Y-4619390D01*
X7591781Y-4615581D01*
X7591781Y-4611771D01*
X7589876Y-4607962D01*
X7586067Y-4606057D01*
X7576543Y-4606057D01*
X7572733Y-4604152D01*
X7553686Y-4621295D02*
X7553686Y-4594629D01*
X7553686Y-4602248D02*
X7551781Y-4598438D01*
X7549876Y-4596533D01*
X7546067Y-4594629D01*
X7542257Y-4594629D01*
X7513686Y-4619390D02*
X7517495Y-4621295D01*
X7525114Y-4621295D01*
X7528924Y-4619390D01*
X7530829Y-4615581D01*
X7530829Y-4600343D01*
X7528924Y-4596533D01*
X7525114Y-4594629D01*
X7517495Y-4594629D01*
X7513686Y-4596533D01*
X7511781Y-4600343D01*
X7511781Y-4604152D01*
X7530829Y-4607962D01*
X7795476Y-4568095D02*
X7799286Y-4566190D01*
X7801190Y-4564286D01*
X7803095Y-4560476D01*
X7803095Y-4549048D01*
X7801190Y-4545238D01*
X7799286Y-4543333D01*
X7795476Y-4541429D01*
X7789762Y-4541429D01*
X7785952Y-4543333D01*
X7784048Y-4545238D01*
X7782143Y-4549048D01*
X7782143Y-4560476D01*
X7784048Y-4564286D01*
X7785952Y-4566190D01*
X7789762Y-4568095D01*
X7795476Y-4568095D01*
X7765000Y-4541429D02*
X7765000Y-4581429D01*
X7765000Y-4543333D02*
X7761190Y-4541429D01*
X7753571Y-4541429D01*
X7749762Y-4543333D01*
X7747857Y-4545238D01*
X7745952Y-4549048D01*
X7745952Y-4560476D01*
X7747857Y-4564286D01*
X7749762Y-4566190D01*
X7753571Y-4568095D01*
X7761190Y-4568095D01*
X7765000Y-4566190D01*
X7713571Y-4566190D02*
X7717381Y-4568095D01*
X7725000Y-4568095D01*
X7728809Y-4566190D01*
X7730714Y-4562381D01*
X7730714Y-4547143D01*
X7728809Y-4543333D01*
X7725000Y-4541429D01*
X7717381Y-4541429D01*
X7713571Y-4543333D01*
X7711667Y-4547143D01*
X7711667Y-4550952D01*
X7730714Y-4554762D01*
X7694524Y-4541429D02*
X7694524Y-4568095D01*
X7694524Y-4545238D02*
X7692619Y-4543333D01*
X7688809Y-4541429D01*
X7683095Y-4541429D01*
X7679286Y-4543333D01*
X7677381Y-4547143D01*
X7677381Y-4568095D01*
X7629762Y-4566190D02*
X7625952Y-4568095D01*
X7618333Y-4568095D01*
X7614524Y-4566190D01*
X7612619Y-4562381D01*
X7612619Y-4560476D01*
X7614524Y-4556667D01*
X7618333Y-4554762D01*
X7624048Y-4554762D01*
X7627857Y-4552857D01*
X7629762Y-4549048D01*
X7629762Y-4547143D01*
X7627857Y-4543333D01*
X7624048Y-4541429D01*
X7618333Y-4541429D01*
X7614524Y-4543333D01*
X7589762Y-4568095D02*
X7593571Y-4566190D01*
X7595476Y-4564286D01*
X7597381Y-4560476D01*
X7597381Y-4549048D01*
X7595476Y-4545238D01*
X7593571Y-4543333D01*
X7589762Y-4541429D01*
X7584048Y-4541429D01*
X7580238Y-4543333D01*
X7578333Y-4545238D01*
X7576429Y-4549048D01*
X7576429Y-4560476D01*
X7578333Y-4564286D01*
X7580238Y-4566190D01*
X7584048Y-4568095D01*
X7589762Y-4568095D01*
X7542143Y-4541429D02*
X7542143Y-4568095D01*
X7559286Y-4541429D02*
X7559286Y-4562381D01*
X7557381Y-4566190D01*
X7553571Y-4568095D01*
X7547857Y-4568095D01*
X7544048Y-4566190D01*
X7542143Y-4564286D01*
X7523095Y-4568095D02*
X7523095Y-4541429D01*
X7523095Y-4549048D02*
X7521190Y-4545238D01*
X7519286Y-4543333D01*
X7515476Y-4541429D01*
X7511667Y-4541429D01*
X7481191Y-4566190D02*
X7485000Y-4568095D01*
X7492619Y-4568095D01*
X7496429Y-4566190D01*
X7498333Y-4564286D01*
X7500238Y-4560476D01*
X7500238Y-4549048D01*
X7498333Y-4545238D01*
X7496429Y-4543333D01*
X7492619Y-4541429D01*
X7485000Y-4541429D01*
X7481191Y-4543333D01*
X7448810Y-4566190D02*
X7452619Y-4568095D01*
X7460238Y-4568095D01*
X7464048Y-4566190D01*
X7465952Y-4562381D01*
X7465952Y-4547143D01*
X7464048Y-4543333D01*
X7460238Y-4541429D01*
X7452619Y-4541429D01*
X7448810Y-4543333D01*
X7446905Y-4547143D01*
X7446905Y-4550952D01*
X7465952Y-4554762D01*
D12*
G36*
X7574200Y-4512300D02*
X7575600Y-4511600D01*
X7578500Y-4509700D01*
X7582700Y-4507000D01*
X7587600Y-4503700D01*
X7592500Y-4500300D01*
X7596600Y-4497600D01*
X7599500Y-4495800D01*
X7600700Y-4495100D01*
X7601300Y-4495400D01*
X7603700Y-4496500D01*
X7607100Y-4498300D01*
X7609000Y-4499300D01*
X7612200Y-4500700D01*
X7613700Y-4500900D01*
X7614000Y-4500500D01*
X7615100Y-4498100D01*
X7616900Y-4494000D01*
X7619300Y-4488600D01*
X7622000Y-4482200D01*
X7624900Y-4475400D01*
X7627800Y-4468400D01*
X7630600Y-4461800D01*
X7633000Y-4455800D01*
X7635000Y-4450900D01*
X7636300Y-4447500D01*
X7636700Y-4446100D01*
X7636600Y-4445800D01*
X7635000Y-4444200D01*
X7632300Y-4442200D01*
X7626400Y-4437400D01*
X7620500Y-4430100D01*
X7617000Y-4421800D01*
X7615800Y-4412600D01*
X7616800Y-4404100D01*
X7620200Y-4395900D01*
X7625900Y-4388600D01*
X7632800Y-4383100D01*
X7640900Y-4379600D01*
X7650000Y-4378500D01*
X7658700Y-4379500D01*
X7667100Y-4382800D01*
X7674400Y-4388400D01*
X7677500Y-4392000D01*
X7681800Y-4399500D01*
X7684300Y-4407400D01*
X7684500Y-4409500D01*
X7684200Y-4418200D01*
X7681600Y-4426600D01*
X7676900Y-4434200D01*
X7670500Y-4440300D01*
X7669700Y-4440900D01*
X7666700Y-4443100D01*
X7664700Y-4444700D01*
X7663200Y-4446000D01*
X7674300Y-4472900D01*
X7676100Y-4477200D01*
X7679200Y-4484500D01*
X7681900Y-4490800D01*
X7684000Y-4495900D01*
X7685500Y-4499300D01*
X7686200Y-4500600D01*
X7686300Y-4500700D01*
X7687200Y-4500900D01*
X7689300Y-4500100D01*
X7693000Y-4498300D01*
X7695500Y-4497000D01*
X7698400Y-4495600D01*
X7699700Y-4495100D01*
X7700800Y-4495700D01*
X7703500Y-4497500D01*
X7707500Y-4500200D01*
X7712300Y-4503400D01*
X7716900Y-4506600D01*
X7721100Y-4509300D01*
X7724200Y-4511300D01*
X7725700Y-4512100D01*
X7725900Y-4512100D01*
X7727300Y-4511400D01*
X7729700Y-4509300D01*
X7733300Y-4505900D01*
X7738500Y-4500800D01*
X7739300Y-4500000D01*
X7743600Y-4495600D01*
X7747000Y-4492000D01*
X7749400Y-4489400D01*
X7750200Y-4488200D01*
X7750200Y-4488200D01*
X7749400Y-4486800D01*
X7747500Y-4483700D01*
X7744700Y-4479400D01*
X7741300Y-4474400D01*
X7732400Y-4461500D01*
X7737300Y-4449300D01*
X7738800Y-4445500D01*
X7740700Y-4441000D01*
X7742100Y-4437800D01*
X7742800Y-4436300D01*
X7744200Y-4435900D01*
X7747500Y-4435100D01*
X7752300Y-4434100D01*
X7758100Y-4433000D01*
X7763600Y-4432000D01*
X7768600Y-4431000D01*
X7772200Y-4430300D01*
X7773800Y-4430000D01*
X7774200Y-4429800D01*
X7774500Y-4429000D01*
X7774800Y-4427300D01*
X7774900Y-4424300D01*
X7774900Y-4419500D01*
X7774900Y-4412600D01*
X7774900Y-4411900D01*
X7774900Y-4405300D01*
X7774800Y-4400100D01*
X7774600Y-4396700D01*
X7774400Y-4395300D01*
X7774300Y-4395300D01*
X7772800Y-4394900D01*
X7769300Y-4394200D01*
X7764300Y-4393200D01*
X7758400Y-4392100D01*
X7758000Y-4392000D01*
X7752100Y-4390900D01*
X7747100Y-4389800D01*
X7743700Y-4389000D01*
X7742200Y-4388600D01*
X7741900Y-4388200D01*
X7740700Y-4385900D01*
X7739000Y-4382200D01*
X7737000Y-4377700D01*
X7735100Y-4373100D01*
X7733400Y-4368900D01*
X7732300Y-4365800D01*
X7732000Y-4364400D01*
X7732000Y-4364300D01*
X7732900Y-4362900D01*
X7734900Y-4359900D01*
X7737800Y-4355600D01*
X7741200Y-4350600D01*
X7741500Y-4350200D01*
X7744900Y-4345200D01*
X7747700Y-4341000D01*
X7749500Y-4338000D01*
X7750200Y-4336600D01*
X7750200Y-4336500D01*
X7749100Y-4335000D01*
X7746500Y-4332200D01*
X7742900Y-4328400D01*
X7738500Y-4324000D01*
X7737100Y-4322600D01*
X7732200Y-4317900D01*
X7728900Y-4314700D01*
X7726800Y-4313100D01*
X7725800Y-4312700D01*
X7725700Y-4312800D01*
X7724200Y-4313700D01*
X7721100Y-4315700D01*
X7716800Y-4318600D01*
X7711700Y-4322100D01*
X7711300Y-4322300D01*
X7706400Y-4325700D01*
X7702200Y-4328500D01*
X7699200Y-4330500D01*
X7697900Y-4331300D01*
X7697700Y-4331300D01*
X7695700Y-4330700D01*
X7692100Y-4329400D01*
X7687800Y-4327700D01*
X7683100Y-4325900D01*
X7678900Y-4324100D01*
X7675800Y-4322600D01*
X7674300Y-4321800D01*
X7674300Y-4321700D01*
X7673700Y-4319900D01*
X7672900Y-4316200D01*
X7671800Y-4311100D01*
X7670600Y-4304900D01*
X7670500Y-4304000D01*
X7669300Y-4298000D01*
X7668400Y-4293100D01*
X7667700Y-4289700D01*
X7667300Y-4288300D01*
X7666500Y-4288100D01*
X7663600Y-4287900D01*
X7659100Y-4287800D01*
X7653800Y-4287700D01*
X7648100Y-4287700D01*
X7642600Y-4287900D01*
X7637900Y-4288000D01*
X7634500Y-4288300D01*
X7633100Y-4288500D01*
X7633100Y-4288600D01*
X7632500Y-4290500D01*
X7631700Y-4294200D01*
X7630700Y-4299400D01*
X7629500Y-4305500D01*
X7629300Y-4306600D01*
X7628200Y-4312500D01*
X7627200Y-4317400D01*
X7626400Y-4320800D01*
X7626100Y-4322100D01*
X7625500Y-4322400D01*
X7623100Y-4323400D01*
X7619100Y-4325100D01*
X7614200Y-4327100D01*
X7602700Y-4331700D01*
X7588700Y-4322100D01*
X7587400Y-4321200D01*
X7582400Y-4317800D01*
X7578200Y-4315000D01*
X7575300Y-4313200D01*
X7574100Y-4312500D01*
X7574000Y-4312500D01*
X7572600Y-4313800D01*
X7569900Y-4316400D01*
X7566100Y-4320100D01*
X7561600Y-4324500D01*
X7558400Y-4327700D01*
X7554500Y-4331700D01*
X7552100Y-4334300D01*
X7550700Y-4336000D01*
X7550200Y-4337000D01*
X7550400Y-4337700D01*
X7551300Y-4339200D01*
X7553300Y-4342200D01*
X7556200Y-4346500D01*
X7559600Y-4351500D01*
X7562400Y-4355600D01*
X7565500Y-4360300D01*
X7567500Y-4363700D01*
X7568200Y-4365300D01*
X7568000Y-4366000D01*
X7567000Y-4368800D01*
X7565300Y-4372900D01*
X7563200Y-4377900D01*
X7558400Y-4389000D01*
X7551100Y-4390400D01*
X7546700Y-4391200D01*
X7540500Y-4392400D01*
X7534600Y-4393500D01*
X7525400Y-4395300D01*
X7525000Y-4429200D01*
X7526500Y-4429800D01*
X7527800Y-4430100D01*
X7531200Y-4430900D01*
X7536100Y-4431900D01*
X7541900Y-4432900D01*
X7546800Y-4433900D01*
X7551700Y-4434800D01*
X7555300Y-4435500D01*
X7556800Y-4435800D01*
X7557200Y-4436300D01*
X7558500Y-4438700D01*
X7560200Y-4442500D01*
X7562200Y-4447100D01*
X7564200Y-4451900D01*
X7565900Y-4456200D01*
X7567100Y-4459600D01*
X7567600Y-4461300D01*
X7566900Y-4462600D01*
X7565000Y-4465500D01*
X7562300Y-4469600D01*
X7558900Y-4474500D01*
X7555600Y-4479400D01*
X7552800Y-4483600D01*
X7550800Y-4486700D01*
X7550000Y-4488000D01*
X7550400Y-4489000D01*
X7552300Y-4491300D01*
X7556000Y-4495200D01*
X7561500Y-4500600D01*
X7562400Y-4501500D01*
X7566800Y-4505700D01*
X7570500Y-4509100D01*
X7573100Y-4511400D01*
X7574200Y-4512300D01*
X7574200Y-4512300D01*
G37*
X7574200Y-4512300D02*
X7575600Y-4511600D01*
X7578500Y-4509700D01*
X7582700Y-4507000D01*
X7587600Y-4503700D01*
X7592500Y-4500300D01*
X7596600Y-4497600D01*
X7599500Y-4495800D01*
X7600700Y-4495100D01*
X7601300Y-4495400D01*
X7603700Y-4496500D01*
X7607100Y-4498300D01*
X7609000Y-4499300D01*
X7612200Y-4500700D01*
X7613700Y-4500900D01*
X7614000Y-4500500D01*
X7615100Y-4498100D01*
X7616900Y-4494000D01*
X7619300Y-4488600D01*
X7622000Y-4482200D01*
X7624900Y-4475400D01*
X7627800Y-4468400D01*
X7630600Y-4461800D01*
X7633000Y-4455800D01*
X7635000Y-4450900D01*
X7636300Y-4447500D01*
X7636700Y-4446100D01*
X7636600Y-4445800D01*
X7635000Y-4444200D01*
X7632300Y-4442200D01*
X7626400Y-4437400D01*
X7620500Y-4430100D01*
X7617000Y-4421800D01*
X7615800Y-4412600D01*
X7616800Y-4404100D01*
X7620200Y-4395900D01*
X7625900Y-4388600D01*
X7632800Y-4383100D01*
X7640900Y-4379600D01*
X7650000Y-4378500D01*
X7658700Y-4379500D01*
X7667100Y-4382800D01*
X7674400Y-4388400D01*
X7677500Y-4392000D01*
X7681800Y-4399500D01*
X7684300Y-4407400D01*
X7684500Y-4409500D01*
X7684200Y-4418200D01*
X7681600Y-4426600D01*
X7676900Y-4434200D01*
X7670500Y-4440300D01*
X7669700Y-4440900D01*
X7666700Y-4443100D01*
X7664700Y-4444700D01*
X7663200Y-4446000D01*
X7674300Y-4472900D01*
X7676100Y-4477200D01*
X7679200Y-4484500D01*
X7681900Y-4490800D01*
X7684000Y-4495900D01*
X7685500Y-4499300D01*
X7686200Y-4500600D01*
X7686300Y-4500700D01*
X7687200Y-4500900D01*
X7689300Y-4500100D01*
X7693000Y-4498300D01*
X7695500Y-4497000D01*
X7698400Y-4495600D01*
X7699700Y-4495100D01*
X7700800Y-4495700D01*
X7703500Y-4497500D01*
X7707500Y-4500200D01*
X7712300Y-4503400D01*
X7716900Y-4506600D01*
X7721100Y-4509300D01*
X7724200Y-4511300D01*
X7725700Y-4512100D01*
X7725900Y-4512100D01*
X7727300Y-4511400D01*
X7729700Y-4509300D01*
X7733300Y-4505900D01*
X7738500Y-4500800D01*
X7739300Y-4500000D01*
X7743600Y-4495600D01*
X7747000Y-4492000D01*
X7749400Y-4489400D01*
X7750200Y-4488200D01*
X7750200Y-4488200D01*
X7749400Y-4486800D01*
X7747500Y-4483700D01*
X7744700Y-4479400D01*
X7741300Y-4474400D01*
X7732400Y-4461500D01*
X7737300Y-4449300D01*
X7738800Y-4445500D01*
X7740700Y-4441000D01*
X7742100Y-4437800D01*
X7742800Y-4436300D01*
X7744200Y-4435900D01*
X7747500Y-4435100D01*
X7752300Y-4434100D01*
X7758100Y-4433000D01*
X7763600Y-4432000D01*
X7768600Y-4431000D01*
X7772200Y-4430300D01*
X7773800Y-4430000D01*
X7774200Y-4429800D01*
X7774500Y-4429000D01*
X7774800Y-4427300D01*
X7774900Y-4424300D01*
X7774900Y-4419500D01*
X7774900Y-4412600D01*
X7774900Y-4411900D01*
X7774900Y-4405300D01*
X7774800Y-4400100D01*
X7774600Y-4396700D01*
X7774400Y-4395300D01*
X7774300Y-4395300D01*
X7772800Y-4394900D01*
X7769300Y-4394200D01*
X7764300Y-4393200D01*
X7758400Y-4392100D01*
X7758000Y-4392000D01*
X7752100Y-4390900D01*
X7747100Y-4389800D01*
X7743700Y-4389000D01*
X7742200Y-4388600D01*
X7741900Y-4388200D01*
X7740700Y-4385900D01*
X7739000Y-4382200D01*
X7737000Y-4377700D01*
X7735100Y-4373100D01*
X7733400Y-4368900D01*
X7732300Y-4365800D01*
X7732000Y-4364400D01*
X7732000Y-4364300D01*
X7732900Y-4362900D01*
X7734900Y-4359900D01*
X7737800Y-4355600D01*
X7741200Y-4350600D01*
X7741500Y-4350200D01*
X7744900Y-4345200D01*
X7747700Y-4341000D01*
X7749500Y-4338000D01*
X7750200Y-4336600D01*
X7750200Y-4336500D01*
X7749100Y-4335000D01*
X7746500Y-4332200D01*
X7742900Y-4328400D01*
X7738500Y-4324000D01*
X7737100Y-4322600D01*
X7732200Y-4317900D01*
X7728900Y-4314700D01*
X7726800Y-4313100D01*
X7725800Y-4312700D01*
X7725700Y-4312800D01*
X7724200Y-4313700D01*
X7721100Y-4315700D01*
X7716800Y-4318600D01*
X7711700Y-4322100D01*
X7711300Y-4322300D01*
X7706400Y-4325700D01*
X7702200Y-4328500D01*
X7699200Y-4330500D01*
X7697900Y-4331300D01*
X7697700Y-4331300D01*
X7695700Y-4330700D01*
X7692100Y-4329400D01*
X7687800Y-4327700D01*
X7683100Y-4325900D01*
X7678900Y-4324100D01*
X7675800Y-4322600D01*
X7674300Y-4321800D01*
X7674300Y-4321700D01*
X7673700Y-4319900D01*
X7672900Y-4316200D01*
X7671800Y-4311100D01*
X7670600Y-4304900D01*
X7670500Y-4304000D01*
X7669300Y-4298000D01*
X7668400Y-4293100D01*
X7667700Y-4289700D01*
X7667300Y-4288300D01*
X7666500Y-4288100D01*
X7663600Y-4287900D01*
X7659100Y-4287800D01*
X7653800Y-4287700D01*
X7648100Y-4287700D01*
X7642600Y-4287900D01*
X7637900Y-4288000D01*
X7634500Y-4288300D01*
X7633100Y-4288500D01*
X7633100Y-4288600D01*
X7632500Y-4290500D01*
X7631700Y-4294200D01*
X7630700Y-4299400D01*
X7629500Y-4305500D01*
X7629300Y-4306600D01*
X7628200Y-4312500D01*
X7627200Y-4317400D01*
X7626400Y-4320800D01*
X7626100Y-4322100D01*
X7625500Y-4322400D01*
X7623100Y-4323400D01*
X7619100Y-4325100D01*
X7614200Y-4327100D01*
X7602700Y-4331700D01*
X7588700Y-4322100D01*
X7587400Y-4321200D01*
X7582400Y-4317800D01*
X7578200Y-4315000D01*
X7575300Y-4313200D01*
X7574100Y-4312500D01*
X7574000Y-4312500D01*
X7572600Y-4313800D01*
X7569900Y-4316400D01*
X7566100Y-4320100D01*
X7561600Y-4324500D01*
X7558400Y-4327700D01*
X7554500Y-4331700D01*
X7552100Y-4334300D01*
X7550700Y-4336000D01*
X7550200Y-4337000D01*
X7550400Y-4337700D01*
X7551300Y-4339200D01*
X7553300Y-4342200D01*
X7556200Y-4346500D01*
X7559600Y-4351500D01*
X7562400Y-4355600D01*
X7565500Y-4360300D01*
X7567500Y-4363700D01*
X7568200Y-4365300D01*
X7568000Y-4366000D01*
X7567000Y-4368800D01*
X7565300Y-4372900D01*
X7563200Y-4377900D01*
X7558400Y-4389000D01*
X7551100Y-4390400D01*
X7546700Y-4391200D01*
X7540500Y-4392400D01*
X7534600Y-4393500D01*
X7525400Y-4395300D01*
X7525000Y-4429200D01*
X7526500Y-4429800D01*
X7527800Y-4430100D01*
X7531200Y-4430900D01*
X7536100Y-4431900D01*
X7541900Y-4432900D01*
X7546800Y-4433900D01*
X7551700Y-4434800D01*
X7555300Y-4435500D01*
X7556800Y-4435800D01*
X7557200Y-4436300D01*
X7558500Y-4438700D01*
X7560200Y-4442500D01*
X7562200Y-4447100D01*
X7564200Y-4451900D01*
X7565900Y-4456200D01*
X7567100Y-4459600D01*
X7567600Y-4461300D01*
X7566900Y-4462600D01*
X7565000Y-4465500D01*
X7562300Y-4469600D01*
X7558900Y-4474500D01*
X7555600Y-4479400D01*
X7552800Y-4483600D01*
X7550800Y-4486700D01*
X7550000Y-4488000D01*
X7550400Y-4489000D01*
X7552300Y-4491300D01*
X7556000Y-4495200D01*
X7561500Y-4500600D01*
X7562400Y-4501500D01*
X7566800Y-4505700D01*
X7570500Y-4509100D01*
X7573100Y-4511400D01*
X7574200Y-4512300D01*
M02*
