%FSLAX36Y36*%
G04 Gerber Fmt 3.6, Leading zero omitted, Abs format (unit inch)*
G04 Created by KiCad (PCBNEW (2014-jul-16 BZR unknown)-product) date Sun 19 Oct 2014 07:04:48 PM PDT*
%MOIN*%
G01*
G04 APERTURE LIST*
%ADD10C,0.003937*%
%ADD11C,0.059100*%
%ADD12C,0.078700*%
%ADD13R,0.078700X0.078700*%
%ADD14C,0.060000*%
%ADD15C,0.236220*%
%ADD16R,0.068000X0.068000*%
%ADD17C,0.068000*%
%ADD18O,0.068000X0.068000*%
%ADD19C,0.080000*%
%ADD20R,0.060000X0.060000*%
%ADD21O,0.066900X0.137800*%
%ADD22R,0.380000X0.620000*%
%ADD23R,0.055000X0.055000*%
%ADD24C,0.055000*%
%ADD25C,0.157480*%
%ADD26C,0.078740*%
%ADD27R,0.088000X0.088000*%
%ADD28C,0.035000*%
%ADD29C,0.008000*%
%ADD30C,0.040000*%
%ADD31C,0.010000*%
G04 APERTURE END LIST*
D10*
D11*
X5925000Y-5700000D03*
X5925000Y-5600000D03*
X6325000Y-5500000D03*
X6325000Y-5600000D03*
X5950000Y-4550000D03*
X5850000Y-4550000D03*
X5825000Y-5450000D03*
X5925000Y-5450000D03*
X7250000Y-5200000D03*
X7150000Y-5200000D03*
X6000000Y-4325000D03*
X5900000Y-4325000D03*
X6675000Y-4100000D03*
X6675000Y-4200000D03*
X6550000Y-4175000D03*
X6550000Y-4075000D03*
D12*
X5075000Y-4575000D03*
D13*
X4675000Y-4575000D03*
D14*
X4350000Y-4435000D03*
X4350000Y-4335000D03*
D15*
X4133858Y-4527559D03*
X7677165Y-4133858D03*
X4133858Y-5708661D03*
X7677165Y-5708661D03*
D16*
X7750000Y-5500000D03*
D17*
X7650000Y-5500000D03*
X7550000Y-5500000D03*
D16*
X4525000Y-4575000D03*
D18*
X4525000Y-4675000D03*
X4425000Y-4575000D03*
X4425000Y-4675000D03*
D19*
X4200000Y-4998425D03*
X4200000Y-4801575D03*
X4200000Y-5448425D03*
X4200000Y-5251575D03*
D20*
X7600000Y-4700000D03*
D14*
X7700000Y-4700000D03*
X7600000Y-4800000D03*
X7700000Y-4800000D03*
X7600000Y-4900000D03*
X7700000Y-4900000D03*
X7600000Y-5000000D03*
X7700000Y-5000000D03*
X7600000Y-5100000D03*
X7700000Y-5100000D03*
D16*
X5200000Y-4325000D03*
D17*
X5300000Y-4325000D03*
X5400000Y-4325000D03*
X5500000Y-4325000D03*
X5600000Y-4325000D03*
X5700000Y-4325000D03*
D16*
X7275000Y-4425000D03*
D17*
X7375000Y-4425000D03*
X7475000Y-4425000D03*
X7575000Y-4425000D03*
X7675000Y-4425000D03*
X7775000Y-4425000D03*
D16*
X5575000Y-5450000D03*
D18*
X5675000Y-5450000D03*
X5575000Y-5550000D03*
X5675000Y-5550000D03*
X5575000Y-5650000D03*
X5675000Y-5650000D03*
D16*
X5200000Y-4475000D03*
D17*
X5300000Y-4475000D03*
X5400000Y-4475000D03*
X5500000Y-4475000D03*
D20*
X6625000Y-5725000D03*
D14*
X6625000Y-5625000D03*
X6725000Y-5725000D03*
X6725000Y-5625000D03*
X6825000Y-5725000D03*
X6825000Y-5625000D03*
X6925000Y-5725000D03*
X6925000Y-5625000D03*
X7025000Y-5725000D03*
X7025000Y-5625000D03*
D16*
X4125000Y-4100000D03*
D18*
X4125000Y-4000000D03*
X4225000Y-4100000D03*
X4225000Y-4000000D03*
X4325000Y-4100000D03*
X4325000Y-4000000D03*
X4425000Y-4100000D03*
X4425000Y-4000000D03*
X4525000Y-4100000D03*
X4525000Y-4000000D03*
X4625000Y-4100000D03*
X4625000Y-4000000D03*
X4725000Y-4100000D03*
X4725000Y-4000000D03*
X4825000Y-4100000D03*
X4825000Y-4000000D03*
X4925000Y-4100000D03*
X4925000Y-4000000D03*
X5025000Y-4100000D03*
X5025000Y-4000000D03*
X5125000Y-4100000D03*
X5125000Y-4000000D03*
X5225000Y-4100000D03*
X5225000Y-4000000D03*
X5325000Y-4100000D03*
X5325000Y-4000000D03*
X5425000Y-4100000D03*
X5425000Y-4000000D03*
X5525000Y-4100000D03*
X5525000Y-4000000D03*
X5625000Y-4100000D03*
X5625000Y-4000000D03*
X5725000Y-4100000D03*
X5725000Y-4000000D03*
X5825000Y-4100000D03*
X5825000Y-4000000D03*
X5925000Y-4100000D03*
X5925000Y-4000000D03*
X6025000Y-4100000D03*
X6025000Y-4000000D03*
X6125000Y-4100000D03*
X6125000Y-4000000D03*
X6225000Y-4100000D03*
X6225000Y-4000000D03*
X6325000Y-4100000D03*
X6325000Y-4000000D03*
D21*
X4575000Y-5050000D03*
X4675000Y-5050000D03*
X4475000Y-5050000D03*
D22*
X4575000Y-5520000D03*
D12*
X7400000Y-5375000D03*
X7800000Y-5375000D03*
X4775000Y-4675000D03*
X4775000Y-5075000D03*
X4525000Y-4325000D03*
X4925000Y-4325000D03*
X4525000Y-4450000D03*
X4925000Y-4450000D03*
D13*
X7400000Y-5828000D03*
D12*
X7400000Y-5572000D03*
D23*
X6825000Y-4300000D03*
D24*
X6925000Y-4300000D03*
X7025000Y-4300000D03*
X7125000Y-4300000D03*
X7225000Y-4300000D03*
X7325000Y-4300000D03*
X7425000Y-4300000D03*
X7425000Y-4000000D03*
X7325000Y-4000000D03*
X7225000Y-4000000D03*
X7125000Y-4000000D03*
X7025000Y-4000000D03*
X6925000Y-4000000D03*
X6825000Y-4000000D03*
D23*
X7050000Y-4750000D03*
D24*
X7050000Y-4850000D03*
X7050000Y-4950000D03*
X7050000Y-5050000D03*
X7350000Y-5050000D03*
X7350000Y-4950000D03*
X7350000Y-4850000D03*
X7350000Y-4750000D03*
D23*
X4950000Y-5300000D03*
D24*
X5050000Y-5300000D03*
X5150000Y-5300000D03*
X5250000Y-5300000D03*
X5350000Y-5300000D03*
X5450000Y-5300000D03*
X5550000Y-5300000D03*
X5650000Y-5300000D03*
X5750000Y-5300000D03*
X5850000Y-5300000D03*
X5950000Y-5300000D03*
X6050000Y-5300000D03*
X6150000Y-5300000D03*
X6250000Y-5300000D03*
X6350000Y-5300000D03*
X6450000Y-5300000D03*
X6550000Y-5300000D03*
X6650000Y-5300000D03*
X6750000Y-5300000D03*
X6850000Y-5300000D03*
X6850000Y-4700000D03*
X6750000Y-4700000D03*
X6650000Y-4700000D03*
X6550000Y-4700000D03*
X6450000Y-4700000D03*
X6350000Y-4700000D03*
X6250000Y-4700000D03*
X6150000Y-4700000D03*
X6050000Y-4700000D03*
X5950000Y-4700000D03*
X5850000Y-4700000D03*
X5750000Y-4700000D03*
X5650000Y-4700000D03*
X5550000Y-4700000D03*
X5450000Y-4700000D03*
X5350000Y-4700000D03*
X5250000Y-4700000D03*
X5150000Y-4700000D03*
X5050000Y-4700000D03*
X4950000Y-4700000D03*
D11*
X6125000Y-5696100D03*
X6125000Y-5503900D03*
D16*
X6725000Y-4425000D03*
D17*
X6825000Y-4425000D03*
X6925000Y-4425000D03*
X7025000Y-4425000D03*
X7125000Y-4425000D03*
D12*
X5575000Y-4600000D03*
X5175000Y-4600000D03*
X6150000Y-4325000D03*
X6550000Y-4325000D03*
D16*
X6725000Y-4575000D03*
D17*
X6825000Y-4575000D03*
X6925000Y-4575000D03*
X7025000Y-4575000D03*
X7125000Y-4575000D03*
D16*
X4450000Y-4825000D03*
D17*
X4550000Y-4825000D03*
X4650000Y-4825000D03*
D25*
X7025197Y-5374213D03*
D26*
X6624803Y-5525787D03*
D12*
X4510000Y-4225000D03*
X4110000Y-4225000D03*
X5030000Y-4205000D03*
X4630000Y-4205000D03*
D23*
X5150000Y-5425000D03*
D24*
X5150000Y-5525000D03*
X5150000Y-5625000D03*
X5150000Y-5725000D03*
X5450000Y-5725000D03*
X5450000Y-5625000D03*
X5450000Y-5525000D03*
X5450000Y-5425000D03*
D26*
X4900000Y-5478150D03*
X5000000Y-5478150D03*
X4850000Y-5675000D03*
X5050000Y-5675000D03*
D27*
X4025000Y-4050000D03*
X6425000Y-4050000D03*
X5275000Y-4200000D03*
D28*
X5375000Y-4600000D03*
X7325000Y-4650000D03*
X6750000Y-5000000D03*
X6450000Y-5000000D03*
X6325000Y-5000000D03*
X6600000Y-5000000D03*
X6075000Y-5000000D03*
X6300000Y-4325000D03*
X4975000Y-4575000D03*
X6875000Y-4082000D03*
X7225000Y-4150000D03*
X7125000Y-4175000D03*
X7000000Y-4125000D03*
X4675000Y-4450000D03*
X4800000Y-4225000D03*
X5450000Y-4200000D03*
X6675000Y-4300000D03*
X5150000Y-4925000D03*
X5800000Y-5000000D03*
X6825000Y-5425000D03*
X5400000Y-5250000D03*
X6600000Y-5150000D03*
X6500000Y-5150000D03*
X6825000Y-5100000D03*
X6350000Y-5150000D03*
X7100000Y-4125000D03*
X5425000Y-5200000D03*
X6800000Y-5250000D03*
X6800000Y-5200000D03*
X6950000Y-4700000D03*
X6200000Y-4775000D03*
X6400000Y-4575000D03*
X6875000Y-4150000D03*
X5100000Y-5100000D03*
X5375000Y-5475000D03*
X7150000Y-5525000D03*
D29*
X5925000Y-5700000D02*
X6121100Y-5700000D01*
X6121100Y-5700000D02*
X6125000Y-5696100D01*
X6096100Y-5700000D02*
X6100000Y-5696100D01*
D30*
X5050000Y-5675000D02*
X4850000Y-5675000D01*
X5925000Y-5600000D02*
X5825000Y-5600000D01*
X5775000Y-5650000D02*
X5675000Y-5650000D01*
X5825000Y-5600000D02*
X5775000Y-5650000D01*
X6325000Y-5600000D02*
X5925000Y-5600000D01*
X6525000Y-5600000D02*
X6325000Y-5600000D01*
X6150000Y-4475000D02*
X6300000Y-4325000D01*
X5900000Y-4475000D02*
X6150000Y-4475000D01*
D29*
X6625000Y-5550000D02*
X6600000Y-5550000D01*
D30*
X4675000Y-4975000D02*
X4550000Y-4850000D01*
X4550000Y-4850000D02*
X4550000Y-4825000D01*
X4550000Y-4775000D02*
X4525000Y-4750000D01*
X4251575Y-4750000D02*
X4200000Y-4801575D01*
X4525000Y-4750000D02*
X4251575Y-4750000D01*
X4800000Y-4750000D02*
X4575000Y-4750000D01*
X4550000Y-4775000D02*
X4550000Y-4825000D01*
X4575000Y-4750000D02*
X4550000Y-4775000D01*
X5200000Y-4475000D02*
X5225000Y-4500000D01*
X5225000Y-4500000D02*
X5225000Y-4525000D01*
X5300000Y-4600000D02*
X5375000Y-4600000D01*
X5225000Y-4525000D02*
X5300000Y-4600000D01*
X5850000Y-4550000D02*
X5850000Y-4525000D01*
X5850000Y-4525000D02*
X5900000Y-4475000D01*
X7050000Y-4850000D02*
X7125000Y-4850000D01*
X7125000Y-4850000D02*
X7325000Y-4650000D01*
X7525000Y-4800000D02*
X7600000Y-4800000D01*
X7325000Y-4650000D02*
X7375000Y-4650000D01*
X7375000Y-4650000D02*
X7525000Y-4800000D01*
X6600000Y-5000000D02*
X6450000Y-5000000D01*
X6325000Y-5000000D02*
X6075000Y-5000000D01*
X6450000Y-5000000D02*
X6325000Y-5000000D01*
X6750000Y-5000000D02*
X6600000Y-5000000D01*
X6875000Y-5000000D02*
X6750000Y-5000000D01*
X7000000Y-5125000D02*
X6875000Y-5000000D01*
X4675000Y-4975000D02*
X4675000Y-5050000D01*
X5800000Y-5000000D02*
X5850000Y-5000000D01*
X6075000Y-5000000D02*
X5850000Y-5000000D01*
X7700000Y-4800000D02*
X7600000Y-4800000D01*
X7100000Y-5675000D02*
X7050000Y-5625000D01*
X7100000Y-5775000D02*
X7100000Y-5675000D01*
X7075000Y-5800000D02*
X7100000Y-5775000D01*
X7050000Y-5625000D02*
X7025000Y-5625000D01*
X6600000Y-5600000D02*
X6525000Y-5600000D01*
X6625000Y-5625000D02*
X6600000Y-5600000D01*
X6575000Y-5800000D02*
X6525000Y-5750000D01*
X6525000Y-5750000D02*
X6525000Y-5600000D01*
X7075000Y-5800000D02*
X6575000Y-5800000D01*
X7075000Y-5125000D02*
X7000000Y-5125000D01*
X7150000Y-5200000D02*
X7075000Y-5125000D01*
X4075000Y-4100000D02*
X4025000Y-4050000D01*
X4125000Y-4100000D02*
X4075000Y-4100000D01*
X6325000Y-4000000D02*
X6225000Y-4000000D01*
X6325000Y-4100000D02*
X6225000Y-4100000D01*
X6375000Y-4050000D02*
X6425000Y-4050000D01*
X6325000Y-4100000D02*
X6375000Y-4050000D01*
X4800000Y-4750000D02*
X4975000Y-4575000D01*
X5100000Y-5725000D02*
X5050000Y-5675000D01*
X5150000Y-5725000D02*
X5100000Y-5725000D01*
X5200000Y-4250000D02*
X5200000Y-4325000D01*
X5250000Y-4200000D02*
X5200000Y-4250000D01*
X5275000Y-4200000D02*
X5250000Y-4200000D01*
X7350000Y-4350000D02*
X7375000Y-4350000D01*
X7375000Y-4350000D02*
X7425000Y-4300000D01*
X7275000Y-4425000D02*
X7350000Y-4350000D01*
X6918000Y-4125000D02*
X6875000Y-4082000D01*
X7125000Y-4175000D02*
X7050000Y-4175000D01*
X7225000Y-4150000D02*
X7200000Y-4175000D01*
X7200000Y-4175000D02*
X7125000Y-4175000D01*
X7050000Y-4175000D02*
X7000000Y-4125000D01*
X7000000Y-4125000D02*
X6918000Y-4125000D01*
X4675000Y-4350000D02*
X4675000Y-4450000D01*
X5200000Y-4325000D02*
X5050000Y-4325000D01*
X4950000Y-4225000D02*
X4800000Y-4225000D01*
X5050000Y-4325000D02*
X4950000Y-4225000D01*
X4800000Y-4225000D02*
X4675000Y-4350000D01*
X5275000Y-4200000D02*
X5450000Y-4200000D01*
X5225000Y-5000000D02*
X5150000Y-4925000D01*
X5250000Y-5000000D02*
X5225000Y-5000000D01*
X4725000Y-4925000D02*
X4675000Y-4975000D01*
X5250000Y-5000000D02*
X5800000Y-5000000D01*
X5150000Y-4925000D02*
X4725000Y-4925000D01*
D29*
X6325000Y-5500000D02*
X6128900Y-5500000D01*
X6128900Y-5500000D02*
X6125000Y-5503900D01*
X6450000Y-5350000D02*
X6475000Y-5375000D01*
X5750000Y-5300000D02*
X5800000Y-5350000D01*
X5800000Y-5350000D02*
X6450000Y-5350000D01*
X6875000Y-5375000D02*
X6475000Y-5375000D01*
X7397000Y-5572000D02*
X7400000Y-5572000D01*
X6975000Y-5275000D02*
X7100000Y-5275000D01*
X7100000Y-5275000D02*
X7397000Y-5572000D01*
X6875000Y-5375000D02*
X6975000Y-5275000D01*
X5825000Y-4250000D02*
X5400000Y-4250000D01*
X5825000Y-4250000D02*
X5900000Y-4325000D01*
X5025000Y-4525000D02*
X4925000Y-4525000D01*
X4925000Y-4525000D02*
X4775000Y-4675000D01*
X5075000Y-4575000D02*
X5025000Y-4525000D01*
X5950000Y-4275000D02*
X5900000Y-4325000D01*
X5075000Y-4475000D02*
X5150000Y-4400000D01*
X5150000Y-4400000D02*
X5300000Y-4400000D01*
X5300000Y-4400000D02*
X5350000Y-4350000D01*
X5350000Y-4350000D02*
X5350000Y-4300000D01*
X5350000Y-4300000D02*
X5400000Y-4250000D01*
X5075000Y-4575000D02*
X5075000Y-4475000D01*
X6525000Y-4200000D02*
X6075000Y-4200000D01*
X6075000Y-4200000D02*
X6000000Y-4275000D01*
X6000000Y-4275000D02*
X5950000Y-4275000D01*
X6550000Y-4175000D02*
X6525000Y-4200000D01*
X5650000Y-5300000D02*
X5600000Y-5250000D01*
X5600000Y-5250000D02*
X5400000Y-5250000D01*
X6425000Y-5375000D02*
X5725000Y-5375000D01*
X6475000Y-5425000D02*
X6425000Y-5375000D01*
X5725000Y-5375000D02*
X5650000Y-5300000D01*
X6825000Y-5425000D02*
X6475000Y-5425000D01*
X6600000Y-5150000D02*
X6500000Y-5150000D01*
X7100000Y-4125000D02*
X7200000Y-4125000D01*
X7200000Y-4125000D02*
X7325000Y-4000000D01*
X6825000Y-5100000D02*
X6400000Y-5100000D01*
X6400000Y-5100000D02*
X6350000Y-5150000D01*
X6350000Y-5300000D02*
X6275000Y-5225000D01*
X5450000Y-5225000D02*
X6275000Y-5225000D01*
X5450000Y-5225000D02*
X5425000Y-5200000D01*
X6800000Y-5325000D02*
X6775000Y-5350000D01*
X6500000Y-5350000D02*
X6775000Y-5350000D01*
X6450000Y-5300000D02*
X6500000Y-5350000D01*
X6800000Y-5325000D02*
X6800000Y-5250000D01*
X6800000Y-5200000D02*
X6725000Y-5200000D01*
X6725000Y-5200000D02*
X6675000Y-5250000D01*
X6600000Y-5250000D02*
X6675000Y-5250000D01*
X6550000Y-5300000D02*
X6600000Y-5250000D01*
X6950000Y-4700000D02*
X6875000Y-4775000D01*
X6875000Y-4775000D02*
X6200000Y-4775000D01*
X7125000Y-4425000D02*
X7200000Y-4500000D01*
X7600000Y-4500000D02*
X7675000Y-4425000D01*
X7200000Y-4500000D02*
X7600000Y-4500000D01*
X7050000Y-4500000D02*
X6675000Y-4500000D01*
X6400000Y-4525000D02*
X6300000Y-4625000D01*
X6300000Y-4625000D02*
X5700000Y-4625000D01*
X5700000Y-4625000D02*
X5600000Y-4525000D01*
X5600000Y-4525000D02*
X5575000Y-4525000D01*
X5575000Y-4525000D02*
X5550000Y-4550000D01*
X7125000Y-4425000D02*
X7050000Y-4500000D01*
X6650000Y-4525000D02*
X6400000Y-4525000D01*
X6675000Y-4500000D02*
X6650000Y-4525000D01*
X5300000Y-4525000D02*
X5325000Y-4550000D01*
X5325000Y-4550000D02*
X5550000Y-4550000D01*
X5300000Y-4475000D02*
X5300000Y-4525000D01*
X6150000Y-4325000D02*
X6075000Y-4400000D01*
X5475000Y-4400000D02*
X5400000Y-4475000D01*
X6075000Y-4400000D02*
X5475000Y-4400000D01*
X6925000Y-4575000D02*
X6875000Y-4525000D01*
X6675000Y-4525000D02*
X6625000Y-4575000D01*
X6625000Y-4575000D02*
X6400000Y-4575000D01*
X6875000Y-4525000D02*
X6675000Y-4525000D01*
X5675000Y-4150000D02*
X6500000Y-4150000D01*
X6500000Y-4150000D02*
X6525000Y-4125000D01*
X6525000Y-4125000D02*
X6600000Y-4125000D01*
X6600000Y-4125000D02*
X6625000Y-4150000D01*
X6625000Y-4150000D02*
X6875000Y-4150000D01*
X5625000Y-4100000D02*
X5675000Y-4150000D01*
X7700000Y-4900000D02*
X7650000Y-4950000D01*
X7650000Y-4950000D02*
X7575000Y-4950000D01*
X7375000Y-4925000D02*
X7550000Y-4925000D01*
X7550000Y-4925000D02*
X7575000Y-4950000D01*
X7350000Y-4950000D02*
X7375000Y-4925000D01*
X7600000Y-4900000D02*
X7400000Y-4900000D01*
X7350000Y-4850000D02*
X7350000Y-4850000D01*
X7400000Y-4900000D02*
X7350000Y-4850000D01*
D30*
X4575000Y-5050000D02*
X4575000Y-4975000D01*
X4273425Y-4925000D02*
X4200000Y-4998425D01*
X4525000Y-4925000D02*
X4273425Y-4925000D01*
X4575000Y-4975000D02*
X4525000Y-4925000D01*
D29*
X7025000Y-4300000D02*
X6975000Y-4250000D01*
X6525000Y-4250000D02*
X6500000Y-4225000D01*
X6100000Y-4225000D02*
X6000000Y-4325000D01*
X6500000Y-4225000D02*
X6100000Y-4225000D01*
X6975000Y-4250000D02*
X6525000Y-4250000D01*
X6600000Y-4025000D02*
X6750000Y-4025000D01*
X6750000Y-4025000D02*
X6775000Y-4050000D01*
X6775000Y-4050000D02*
X7075000Y-4050000D01*
X7075000Y-4050000D02*
X7125000Y-4000000D01*
X6550000Y-4075000D02*
X6600000Y-4025000D01*
X6075000Y-4300000D02*
X6075000Y-4325000D01*
X5825000Y-4325000D02*
X5700000Y-4325000D01*
X5875000Y-4375000D02*
X5825000Y-4325000D01*
X6025000Y-4375000D02*
X5875000Y-4375000D01*
X6075000Y-4325000D02*
X6025000Y-4375000D01*
X6775000Y-4375000D02*
X6625000Y-4375000D01*
X6625000Y-4375000D02*
X6600000Y-4400000D01*
X6825000Y-4425000D02*
X6775000Y-4375000D01*
X6525000Y-4400000D02*
X6375000Y-4250000D01*
X6375000Y-4250000D02*
X6125000Y-4250000D01*
X6125000Y-4250000D02*
X6075000Y-4300000D01*
X6600000Y-4400000D02*
X6525000Y-4400000D01*
X6875000Y-4475000D02*
X6650000Y-4475000D01*
X6650000Y-4475000D02*
X6625000Y-4500000D01*
X6625000Y-4500000D02*
X6375000Y-4500000D01*
X6375000Y-4500000D02*
X6275000Y-4600000D01*
X6275000Y-4600000D02*
X5725000Y-4600000D01*
X6925000Y-4425000D02*
X6875000Y-4475000D01*
X5425000Y-4400000D02*
X5375000Y-4400000D01*
X5375000Y-4400000D02*
X5350000Y-4425000D01*
X5625000Y-4500000D02*
X5725000Y-4600000D01*
X5350000Y-4500000D02*
X5350000Y-4425000D01*
X5376186Y-4526186D02*
X5350000Y-4500000D01*
X5548814Y-4526186D02*
X5376186Y-4526186D01*
X5575000Y-4500000D02*
X5548814Y-4526186D01*
X5625000Y-4500000D02*
X5575000Y-4500000D01*
X5500000Y-4325000D02*
X5425000Y-4400000D01*
X6750000Y-4650000D02*
X5625000Y-4650000D01*
X5625000Y-4650000D02*
X5575000Y-4600000D01*
X6825000Y-4575000D02*
X6750000Y-4650000D01*
X6600000Y-4325000D02*
X6625000Y-4350000D01*
X6625000Y-4350000D02*
X7050000Y-4350000D01*
X6550000Y-4325000D02*
X6600000Y-4325000D01*
X7425000Y-4000000D02*
X7175000Y-4250000D01*
X7075000Y-4325000D02*
X7075000Y-4275000D01*
X7075000Y-4275000D02*
X7100000Y-4250000D01*
X7100000Y-4250000D02*
X7175000Y-4250000D01*
X7050000Y-4350000D02*
X7075000Y-4325000D01*
X7450000Y-5150000D02*
X7450000Y-5050000D01*
X7450000Y-5050000D02*
X7400000Y-5000000D01*
X7400000Y-5000000D02*
X7325000Y-5000000D01*
X7325000Y-5000000D02*
X7275000Y-4950000D01*
X7275000Y-4950000D02*
X7275000Y-4825000D01*
X7275000Y-4825000D02*
X7350000Y-4750000D01*
X7125000Y-5275000D02*
X7325000Y-5275000D01*
X7325000Y-5275000D02*
X7450000Y-5150000D01*
X7100000Y-5250000D02*
X6950000Y-5250000D01*
X7125000Y-5275000D02*
X7100000Y-5250000D01*
X6900000Y-5300000D02*
X6950000Y-5250000D01*
X6850000Y-5300000D02*
X6900000Y-5300000D01*
X5450000Y-5425000D02*
X5400000Y-5375000D01*
X4225000Y-4110000D02*
X4225000Y-4100000D01*
X4110000Y-4225000D02*
X4225000Y-4110000D01*
X4575000Y-4150000D02*
X4250000Y-4150000D01*
X4250000Y-4150000D02*
X4175000Y-4225000D01*
X4175000Y-4225000D02*
X4110000Y-4225000D01*
X4630000Y-4205000D02*
X4575000Y-4150000D01*
X5375000Y-5350000D02*
X5325000Y-5350000D01*
X5400000Y-5375000D02*
X5375000Y-5350000D01*
X5300000Y-5325000D02*
X5300000Y-5275000D01*
X5300000Y-5275000D02*
X5275000Y-5250000D01*
X5275000Y-5250000D02*
X5250000Y-5250000D01*
X5325000Y-5350000D02*
X5300000Y-5325000D01*
X5250000Y-5250000D02*
X5100000Y-5100000D01*
X4975000Y-4125000D02*
X4975000Y-4050000D01*
X4975000Y-4050000D02*
X5025000Y-4000000D01*
X4560000Y-4275000D02*
X4650000Y-4275000D01*
X4510000Y-4225000D02*
X4560000Y-4275000D01*
X5375000Y-5475000D02*
X5375000Y-5650000D01*
X5375000Y-5650000D02*
X5450000Y-5725000D01*
X4950000Y-4150000D02*
X4775000Y-4150000D01*
X4775000Y-4150000D02*
X4650000Y-4275000D01*
X4975000Y-4125000D02*
X4950000Y-4150000D01*
X5150000Y-5625000D02*
X5375000Y-5850000D01*
X7025197Y-5374213D02*
X7074213Y-5374213D01*
X7074213Y-5374213D02*
X7200000Y-5500000D01*
X7200000Y-5500000D02*
X7200000Y-5775000D01*
X7200000Y-5775000D02*
X7125000Y-5850000D01*
X7125000Y-5850000D02*
X5375000Y-5850000D01*
D30*
X6925000Y-4000000D02*
X6825000Y-4000000D01*
X5825000Y-5450000D02*
X5675000Y-5450000D01*
X6925000Y-4825000D02*
X6175000Y-4825000D01*
X7050000Y-4950000D02*
X6925000Y-4825000D01*
X4650000Y-4825000D02*
X5900000Y-4825000D01*
X5950000Y-4775000D02*
X5950000Y-4700000D01*
X5900000Y-4825000D02*
X5950000Y-4775000D01*
X6725000Y-5625000D02*
X6725000Y-5575000D01*
X6775000Y-5525000D02*
X7150000Y-5525000D01*
X6725000Y-5575000D02*
X6775000Y-5525000D01*
X7350000Y-5050000D02*
X7150000Y-5050000D01*
X7150000Y-5050000D02*
X7050000Y-4950000D01*
X6250000Y-4550000D02*
X6350000Y-4450000D01*
X6350000Y-4450000D02*
X6600000Y-4450000D01*
X6600000Y-4450000D02*
X6625000Y-4425000D01*
X6625000Y-4425000D02*
X6725000Y-4425000D01*
X5950000Y-4550000D02*
X6250000Y-4550000D01*
X4925000Y-4475000D02*
X4925000Y-4450000D01*
X4825000Y-4575000D02*
X4925000Y-4475000D01*
X4675000Y-4575000D02*
X4825000Y-4575000D01*
X6125000Y-4775000D02*
X6175000Y-4825000D01*
X5950000Y-4775000D02*
X6125000Y-4775000D01*
D31*
G36*
X4126787Y-4101000D02*
X4126000Y-4101000D01*
X4126000Y-4101787D01*
X4124000Y-4101787D01*
X4124000Y-4101000D01*
X4123213Y-4101000D01*
X4123213Y-4099000D01*
X4124000Y-4099000D01*
X4124000Y-4060243D01*
X4124000Y-4039750D01*
X4124000Y-4001000D01*
X4123213Y-4001000D01*
X4123213Y-3999000D01*
X4124000Y-3999000D01*
X4124000Y-3998213D01*
X4126000Y-3998213D01*
X4126000Y-3999000D01*
X4126787Y-3999000D01*
X4126787Y-4001000D01*
X4126000Y-4001000D01*
X4126000Y-4039750D01*
X4126000Y-4060243D01*
X4126000Y-4099000D01*
X4126787Y-4099000D01*
X4126787Y-4101000D01*
X4126787Y-4101000D01*
G37*
X4126787Y-4101000D02*
X4126000Y-4101000D01*
X4126000Y-4101787D01*
X4124000Y-4101787D01*
X4124000Y-4101000D01*
X4123213Y-4101000D01*
X4123213Y-4099000D01*
X4124000Y-4099000D01*
X4124000Y-4060243D01*
X4124000Y-4039750D01*
X4124000Y-4001000D01*
X4123213Y-4001000D01*
X4123213Y-3999000D01*
X4124000Y-3999000D01*
X4124000Y-3998213D01*
X4126000Y-3998213D01*
X4126000Y-3999000D01*
X4126787Y-3999000D01*
X4126787Y-4001000D01*
X4126000Y-4001000D01*
X4126000Y-4039750D01*
X4126000Y-4060243D01*
X4126000Y-4099000D01*
X4126787Y-4099000D01*
X4126787Y-4101000D01*
G36*
X5201787Y-4476000D02*
X5201000Y-4476000D01*
X5201000Y-4476787D01*
X5199000Y-4476787D01*
X5199000Y-4476000D01*
X5139750Y-4476000D01*
X5131000Y-4484750D01*
X5131000Y-4502038D01*
X5131000Y-4515962D01*
X5136328Y-4528826D01*
X5146174Y-4538672D01*
X5150540Y-4540480D01*
X5138596Y-4545415D01*
X5134211Y-4549792D01*
X5129585Y-4538596D01*
X5111499Y-4520479D01*
X5104000Y-4517365D01*
X5104000Y-4487012D01*
X5131000Y-4460012D01*
X5131000Y-4465250D01*
X5139750Y-4474000D01*
X5199000Y-4474000D01*
X5199000Y-4473213D01*
X5201000Y-4473213D01*
X5201000Y-4474000D01*
X5201787Y-4474000D01*
X5201787Y-4476000D01*
X5201787Y-4476000D01*
G37*
X5201787Y-4476000D02*
X5201000Y-4476000D01*
X5201000Y-4476787D01*
X5199000Y-4476787D01*
X5199000Y-4476000D01*
X5139750Y-4476000D01*
X5131000Y-4484750D01*
X5131000Y-4502038D01*
X5131000Y-4515962D01*
X5136328Y-4528826D01*
X5146174Y-4538672D01*
X5150540Y-4540480D01*
X5138596Y-4545415D01*
X5134211Y-4549792D01*
X5129585Y-4538596D01*
X5111499Y-4520479D01*
X5104000Y-4517365D01*
X5104000Y-4487012D01*
X5131000Y-4460012D01*
X5131000Y-4465250D01*
X5139750Y-4474000D01*
X5199000Y-4474000D01*
X5199000Y-4473213D01*
X5201000Y-4473213D01*
X5201000Y-4474000D01*
X5201787Y-4474000D01*
X5201787Y-4476000D01*
G36*
X5533854Y-4649866D02*
X5520300Y-4655467D01*
X5505519Y-4670222D01*
X5499996Y-4683521D01*
X5494533Y-4670300D01*
X5479778Y-4655519D01*
X5460489Y-4647509D01*
X5439603Y-4647491D01*
X5420300Y-4655467D01*
X5405519Y-4670222D01*
X5399996Y-4683521D01*
X5394533Y-4670300D01*
X5379778Y-4655519D01*
X5360489Y-4647509D01*
X5339603Y-4647491D01*
X5320300Y-4655467D01*
X5305519Y-4670222D01*
X5299996Y-4683521D01*
X5294533Y-4670300D01*
X5279778Y-4655519D01*
X5260489Y-4647509D01*
X5239603Y-4647491D01*
X5220300Y-4655467D01*
X5205519Y-4670222D01*
X5199996Y-4683521D01*
X5194533Y-4670300D01*
X5188353Y-4664109D01*
X5211404Y-4654585D01*
X5229521Y-4636499D01*
X5239339Y-4612856D01*
X5239361Y-4587256D01*
X5229585Y-4563596D01*
X5211499Y-4545479D01*
X5201000Y-4541119D01*
X5201000Y-4535250D01*
X5209750Y-4544000D01*
X5240962Y-4544000D01*
X5253826Y-4538672D01*
X5263672Y-4528826D01*
X5265635Y-4524086D01*
X5266536Y-4524989D01*
X5271399Y-4527008D01*
X5273207Y-4536098D01*
X5279494Y-4545506D01*
X5304494Y-4570506D01*
X5313902Y-4576793D01*
X5313902Y-4576793D01*
X5325000Y-4579000D01*
X5514043Y-4579000D01*
X5510661Y-4587144D01*
X5510639Y-4612744D01*
X5520415Y-4636404D01*
X5533854Y-4649866D01*
X5533854Y-4649866D01*
G37*
X5533854Y-4649866D02*
X5520300Y-4655467D01*
X5505519Y-4670222D01*
X5499996Y-4683521D01*
X5494533Y-4670300D01*
X5479778Y-4655519D01*
X5460489Y-4647509D01*
X5439603Y-4647491D01*
X5420300Y-4655467D01*
X5405519Y-4670222D01*
X5399996Y-4683521D01*
X5394533Y-4670300D01*
X5379778Y-4655519D01*
X5360489Y-4647509D01*
X5339603Y-4647491D01*
X5320300Y-4655467D01*
X5305519Y-4670222D01*
X5299996Y-4683521D01*
X5294533Y-4670300D01*
X5279778Y-4655519D01*
X5260489Y-4647509D01*
X5239603Y-4647491D01*
X5220300Y-4655467D01*
X5205519Y-4670222D01*
X5199996Y-4683521D01*
X5194533Y-4670300D01*
X5188353Y-4664109D01*
X5211404Y-4654585D01*
X5229521Y-4636499D01*
X5239339Y-4612856D01*
X5239361Y-4587256D01*
X5229585Y-4563596D01*
X5211499Y-4545479D01*
X5201000Y-4541119D01*
X5201000Y-4535250D01*
X5209750Y-4544000D01*
X5240962Y-4544000D01*
X5253826Y-4538672D01*
X5263672Y-4528826D01*
X5265635Y-4524086D01*
X5266536Y-4524989D01*
X5271399Y-4527008D01*
X5273207Y-4536098D01*
X5279494Y-4545506D01*
X5304494Y-4570506D01*
X5313902Y-4576793D01*
X5313902Y-4576793D01*
X5325000Y-4579000D01*
X5514043Y-4579000D01*
X5510661Y-4587144D01*
X5510639Y-4612744D01*
X5520415Y-4636404D01*
X5533854Y-4649866D01*
G36*
X6023850Y-5254000D02*
X6020300Y-5255467D01*
X6005519Y-5270222D01*
X6005506Y-5270253D01*
X6003805Y-5265855D01*
X6002136Y-5263357D01*
X5989573Y-5261841D01*
X5951414Y-5300000D01*
X5951971Y-5300557D01*
X5950557Y-5301971D01*
X5950000Y-5301414D01*
X5949443Y-5301971D01*
X5948029Y-5300557D01*
X5948586Y-5300000D01*
X5910427Y-5261841D01*
X5897864Y-5263357D01*
X5894660Y-5270606D01*
X5894533Y-5270300D01*
X5879778Y-5255519D01*
X5876120Y-5254000D01*
X5912617Y-5254000D01*
X5911841Y-5260427D01*
X5950000Y-5298586D01*
X5988159Y-5260427D01*
X5987383Y-5254000D01*
X6023850Y-5254000D01*
X6023850Y-5254000D01*
G37*
X6023850Y-5254000D02*
X6020300Y-5255467D01*
X6005519Y-5270222D01*
X6005506Y-5270253D01*
X6003805Y-5265855D01*
X6002136Y-5263357D01*
X5989573Y-5261841D01*
X5951414Y-5300000D01*
X5951971Y-5300557D01*
X5950557Y-5301971D01*
X5950000Y-5301414D01*
X5949443Y-5301971D01*
X5948029Y-5300557D01*
X5948586Y-5300000D01*
X5910427Y-5261841D01*
X5897864Y-5263357D01*
X5894660Y-5270606D01*
X5894533Y-5270300D01*
X5879778Y-5255519D01*
X5876120Y-5254000D01*
X5912617Y-5254000D01*
X5911841Y-5260427D01*
X5950000Y-5298586D01*
X5988159Y-5260427D01*
X5987383Y-5254000D01*
X6023850Y-5254000D01*
G36*
X6326787Y-4101000D02*
X6326000Y-4101000D01*
X6326000Y-4101787D01*
X6324000Y-4101787D01*
X6324000Y-4101000D01*
X6324000Y-4099000D01*
X6324000Y-4060243D01*
X6324000Y-4039757D01*
X6324000Y-4001000D01*
X6285242Y-4001000D01*
X6264758Y-4001000D01*
X6226000Y-4001000D01*
X6226000Y-4039757D01*
X6226000Y-4060243D01*
X6226000Y-4099000D01*
X6264758Y-4099000D01*
X6285242Y-4099000D01*
X6324000Y-4099000D01*
X6324000Y-4101000D01*
X6285242Y-4101000D01*
X6264758Y-4101000D01*
X6226000Y-4101000D01*
X6226000Y-4101787D01*
X6224000Y-4101787D01*
X6224000Y-4101000D01*
X6223213Y-4101000D01*
X6223213Y-4099000D01*
X6224000Y-4099000D01*
X6224000Y-4060243D01*
X6224000Y-4039757D01*
X6224000Y-4001000D01*
X6223213Y-4001000D01*
X6223213Y-3999000D01*
X6224000Y-3999000D01*
X6224000Y-3998213D01*
X6226000Y-3998213D01*
X6226000Y-3999000D01*
X6264758Y-3999000D01*
X6285242Y-3999000D01*
X6324000Y-3999000D01*
X6324000Y-3998213D01*
X6326000Y-3998213D01*
X6326000Y-3999000D01*
X6326787Y-3999000D01*
X6326787Y-4001000D01*
X6326000Y-4001000D01*
X6326000Y-4039757D01*
X6326000Y-4060243D01*
X6326000Y-4099000D01*
X6326787Y-4099000D01*
X6326787Y-4101000D01*
X6326787Y-4101000D01*
G37*
X6326787Y-4101000D02*
X6326000Y-4101000D01*
X6326000Y-4101787D01*
X6324000Y-4101787D01*
X6324000Y-4101000D01*
X6324000Y-4099000D01*
X6324000Y-4060243D01*
X6324000Y-4039757D01*
X6324000Y-4001000D01*
X6285242Y-4001000D01*
X6264758Y-4001000D01*
X6226000Y-4001000D01*
X6226000Y-4039757D01*
X6226000Y-4060243D01*
X6226000Y-4099000D01*
X6264758Y-4099000D01*
X6285242Y-4099000D01*
X6324000Y-4099000D01*
X6324000Y-4101000D01*
X6285242Y-4101000D01*
X6264758Y-4101000D01*
X6226000Y-4101000D01*
X6226000Y-4101787D01*
X6224000Y-4101787D01*
X6224000Y-4101000D01*
X6223213Y-4101000D01*
X6223213Y-4099000D01*
X6224000Y-4099000D01*
X6224000Y-4060243D01*
X6224000Y-4039757D01*
X6224000Y-4001000D01*
X6223213Y-4001000D01*
X6223213Y-3999000D01*
X6224000Y-3999000D01*
X6224000Y-3998213D01*
X6226000Y-3998213D01*
X6226000Y-3999000D01*
X6264758Y-3999000D01*
X6285242Y-3999000D01*
X6324000Y-3999000D01*
X6324000Y-3998213D01*
X6326000Y-3998213D01*
X6326000Y-3999000D01*
X6326787Y-3999000D01*
X6326787Y-4001000D01*
X6326000Y-4001000D01*
X6326000Y-4039757D01*
X6326000Y-4060243D01*
X6326000Y-4099000D01*
X6326787Y-4099000D01*
X6326787Y-4101000D01*
G36*
X6488988Y-4405000D02*
X6350000Y-4405000D01*
X6332779Y-4408425D01*
X6318180Y-4418180D01*
X6231360Y-4505000D01*
X5982157Y-4505000D01*
X5980940Y-4503782D01*
X5960898Y-4495459D01*
X5939197Y-4495441D01*
X5919140Y-4503728D01*
X5906282Y-4516563D01*
X5905587Y-4514763D01*
X5903827Y-4512129D01*
X5891052Y-4510363D01*
X5889637Y-4511777D01*
X5889637Y-4508948D01*
X5887871Y-4496173D01*
X5864390Y-4485778D01*
X5838718Y-4485160D01*
X5814763Y-4494413D01*
X5812129Y-4496173D01*
X5810363Y-4508948D01*
X5850000Y-4548586D01*
X5889637Y-4508948D01*
X5889637Y-4511777D01*
X5851414Y-4550000D01*
X5851971Y-4550557D01*
X5850557Y-4551971D01*
X5850000Y-4551414D01*
X5849443Y-4551971D01*
X5848029Y-4550557D01*
X5848586Y-4550000D01*
X5808948Y-4510363D01*
X5796173Y-4512129D01*
X5785778Y-4535610D01*
X5785160Y-4561282D01*
X5788913Y-4571000D01*
X5737012Y-4571000D01*
X5645506Y-4479494D01*
X5636098Y-4473207D01*
X5625000Y-4471000D01*
X5575000Y-4471000D01*
X5563902Y-4473207D01*
X5558999Y-4476484D01*
X5559010Y-4463316D01*
X5550047Y-4441623D01*
X5537446Y-4429000D01*
X6075000Y-4429000D01*
X6086098Y-4426793D01*
X6095506Y-4420506D01*
X6129745Y-4386267D01*
X6137144Y-4389339D01*
X6162744Y-4389361D01*
X6186404Y-4379585D01*
X6204521Y-4361499D01*
X6214339Y-4337856D01*
X6214361Y-4312256D01*
X6204585Y-4288596D01*
X6195006Y-4279000D01*
X6362988Y-4279000D01*
X6488988Y-4405000D01*
X6488988Y-4405000D01*
G37*
X6488988Y-4405000D02*
X6350000Y-4405000D01*
X6332779Y-4408425D01*
X6318180Y-4418180D01*
X6231360Y-4505000D01*
X5982157Y-4505000D01*
X5980940Y-4503782D01*
X5960898Y-4495459D01*
X5939197Y-4495441D01*
X5919140Y-4503728D01*
X5906282Y-4516563D01*
X5905587Y-4514763D01*
X5903827Y-4512129D01*
X5891052Y-4510363D01*
X5889637Y-4511777D01*
X5889637Y-4508948D01*
X5887871Y-4496173D01*
X5864390Y-4485778D01*
X5838718Y-4485160D01*
X5814763Y-4494413D01*
X5812129Y-4496173D01*
X5810363Y-4508948D01*
X5850000Y-4548586D01*
X5889637Y-4508948D01*
X5889637Y-4511777D01*
X5851414Y-4550000D01*
X5851971Y-4550557D01*
X5850557Y-4551971D01*
X5850000Y-4551414D01*
X5849443Y-4551971D01*
X5848029Y-4550557D01*
X5848586Y-4550000D01*
X5808948Y-4510363D01*
X5796173Y-4512129D01*
X5785778Y-4535610D01*
X5785160Y-4561282D01*
X5788913Y-4571000D01*
X5737012Y-4571000D01*
X5645506Y-4479494D01*
X5636098Y-4473207D01*
X5625000Y-4471000D01*
X5575000Y-4471000D01*
X5563902Y-4473207D01*
X5558999Y-4476484D01*
X5559010Y-4463316D01*
X5550047Y-4441623D01*
X5537446Y-4429000D01*
X6075000Y-4429000D01*
X6086098Y-4426793D01*
X6095506Y-4420506D01*
X6129745Y-4386267D01*
X6137144Y-4389339D01*
X6162744Y-4389361D01*
X6186404Y-4379585D01*
X6204521Y-4361499D01*
X6214339Y-4337856D01*
X6214361Y-4312256D01*
X6204585Y-4288596D01*
X6195006Y-4279000D01*
X6362988Y-4279000D01*
X6488988Y-4405000D01*
G36*
X6676971Y-4200557D02*
X6675557Y-4201971D01*
X6675000Y-4201414D01*
X6674443Y-4201971D01*
X6673029Y-4200557D01*
X6673586Y-4200000D01*
X6673029Y-4199443D01*
X6674443Y-4198029D01*
X6675000Y-4198586D01*
X6675557Y-4198029D01*
X6676971Y-4199443D01*
X6676414Y-4200000D01*
X6676971Y-4200557D01*
X6676971Y-4200557D01*
G37*
X6676971Y-4200557D02*
X6675557Y-4201971D01*
X6675000Y-4201414D01*
X6674443Y-4201971D01*
X6673029Y-4200557D01*
X6673586Y-4200000D01*
X6673029Y-4199443D01*
X6674443Y-4198029D01*
X6675000Y-4198586D01*
X6675557Y-4198029D01*
X6676971Y-4199443D01*
X6676414Y-4200000D01*
X6676971Y-4200557D01*
G36*
X6726787Y-4576000D02*
X6726000Y-4576000D01*
X6726000Y-4576787D01*
X6724000Y-4576787D01*
X6724000Y-4576000D01*
X6723213Y-4576000D01*
X6723213Y-4574000D01*
X6724000Y-4574000D01*
X6724000Y-4573213D01*
X6726000Y-4573213D01*
X6726000Y-4574000D01*
X6726787Y-4574000D01*
X6726787Y-4576000D01*
X6726787Y-4576000D01*
G37*
X6726787Y-4576000D02*
X6726000Y-4576000D01*
X6726000Y-4576787D01*
X6724000Y-4576787D01*
X6724000Y-4576000D01*
X6723213Y-4576000D01*
X6723213Y-4574000D01*
X6724000Y-4574000D01*
X6724000Y-4573213D01*
X6726000Y-4573213D01*
X6726000Y-4574000D01*
X6726787Y-4574000D01*
X6726787Y-4576000D01*
G36*
X6772500Y-4321000D02*
X6637012Y-4321000D01*
X6620506Y-4304494D01*
X6611098Y-4298207D01*
X6608329Y-4297657D01*
X6604585Y-4288596D01*
X6595006Y-4279000D01*
X6772500Y-4279000D01*
X6772500Y-4321000D01*
X6772500Y-4321000D01*
G37*
X6772500Y-4321000D02*
X6637012Y-4321000D01*
X6620506Y-4304494D01*
X6611098Y-4298207D01*
X6608329Y-4297657D01*
X6604585Y-4288596D01*
X6595006Y-4279000D01*
X6772500Y-4279000D01*
X6772500Y-4321000D01*
G36*
X6787761Y-3962992D02*
X6780519Y-3970222D01*
X6772509Y-3989511D01*
X6772494Y-4006482D01*
X6770506Y-4004494D01*
X6761098Y-3998207D01*
X6750000Y-3996000D01*
X6600000Y-3996000D01*
X6588902Y-3998207D01*
X6579494Y-4004494D01*
X6562757Y-4021231D01*
X6560898Y-4020459D01*
X6539197Y-4020441D01*
X6519140Y-4028728D01*
X6504000Y-4043842D01*
X6503782Y-4044060D01*
X6501730Y-4049000D01*
X6495250Y-4049000D01*
X6504000Y-4040250D01*
X6504000Y-4012962D01*
X6504000Y-3999038D01*
X6498672Y-3986174D01*
X6488826Y-3976328D01*
X6475962Y-3971000D01*
X6434750Y-3971000D01*
X6426000Y-3979750D01*
X6426000Y-4049000D01*
X6426787Y-4049000D01*
X6426787Y-4051000D01*
X6426000Y-4051000D01*
X6426000Y-4051787D01*
X6424000Y-4051787D01*
X6424000Y-4051000D01*
X6423213Y-4051000D01*
X6423213Y-4049000D01*
X6424000Y-4049000D01*
X6424000Y-3979750D01*
X6415250Y-3971000D01*
X6386170Y-3971000D01*
X6382618Y-3962992D01*
X6787761Y-3962992D01*
X6787761Y-3962992D01*
G37*
X6787761Y-3962992D02*
X6780519Y-3970222D01*
X6772509Y-3989511D01*
X6772494Y-4006482D01*
X6770506Y-4004494D01*
X6761098Y-3998207D01*
X6750000Y-3996000D01*
X6600000Y-3996000D01*
X6588902Y-3998207D01*
X6579494Y-4004494D01*
X6562757Y-4021231D01*
X6560898Y-4020459D01*
X6539197Y-4020441D01*
X6519140Y-4028728D01*
X6504000Y-4043842D01*
X6503782Y-4044060D01*
X6501730Y-4049000D01*
X6495250Y-4049000D01*
X6504000Y-4040250D01*
X6504000Y-4012962D01*
X6504000Y-3999038D01*
X6498672Y-3986174D01*
X6488826Y-3976328D01*
X6475962Y-3971000D01*
X6434750Y-3971000D01*
X6426000Y-3979750D01*
X6426000Y-4049000D01*
X6426787Y-4049000D01*
X6426787Y-4051000D01*
X6426000Y-4051000D01*
X6426000Y-4051787D01*
X6424000Y-4051787D01*
X6424000Y-4051000D01*
X6423213Y-4051000D01*
X6423213Y-4049000D01*
X6424000Y-4049000D01*
X6424000Y-3979750D01*
X6415250Y-3971000D01*
X6386170Y-3971000D01*
X6382618Y-3962992D01*
X6787761Y-3962992D01*
G36*
X7331482Y-4052506D02*
X7162988Y-4221000D01*
X7100000Y-4221000D01*
X7088902Y-4223207D01*
X7079494Y-4229494D01*
X7054494Y-4254494D01*
X7054020Y-4255204D01*
X7035489Y-4247509D01*
X7014603Y-4247491D01*
X7013825Y-4247812D01*
X6995506Y-4229494D01*
X6986098Y-4223207D01*
X6975000Y-4221000D01*
X6736296Y-4221000D01*
X6739222Y-4214390D01*
X6739840Y-4188718D01*
X6736087Y-4179000D01*
X6843898Y-4179000D01*
X6850894Y-4186009D01*
X6866509Y-4192493D01*
X6883417Y-4192507D01*
X6899043Y-4186051D01*
X6911009Y-4174106D01*
X6917493Y-4158491D01*
X6917507Y-4141583D01*
X6911051Y-4125957D01*
X6899106Y-4113991D01*
X6883491Y-4107507D01*
X6866583Y-4107493D01*
X6850957Y-4113949D01*
X6843894Y-4121000D01*
X6725346Y-4121000D01*
X6729541Y-4110898D01*
X6729559Y-4089197D01*
X6721272Y-4069140D01*
X6706158Y-4054000D01*
X6737988Y-4054000D01*
X6754494Y-4070506D01*
X6763902Y-4076793D01*
X6763902Y-4076793D01*
X6775000Y-4079000D01*
X7075000Y-4079000D01*
X7086098Y-4076793D01*
X7095506Y-4070506D01*
X7113812Y-4052200D01*
X7114511Y-4052491D01*
X7135397Y-4052509D01*
X7154700Y-4044533D01*
X7169481Y-4029778D01*
X7175004Y-4016478D01*
X7180467Y-4029700D01*
X7195222Y-4044481D01*
X7214511Y-4052491D01*
X7231482Y-4052506D01*
X7187988Y-4096000D01*
X7131102Y-4096000D01*
X7124106Y-4088991D01*
X7108491Y-4082507D01*
X7091583Y-4082493D01*
X7075957Y-4088949D01*
X7063991Y-4100894D01*
X7057507Y-4116509D01*
X7057493Y-4133417D01*
X7063949Y-4149043D01*
X7075894Y-4161009D01*
X7091509Y-4167493D01*
X7108417Y-4167507D01*
X7124043Y-4161051D01*
X7131106Y-4154000D01*
X7200000Y-4154000D01*
X7211098Y-4151793D01*
X7220506Y-4145506D01*
X7313812Y-4052200D01*
X7314511Y-4052491D01*
X7331482Y-4052506D01*
X7331482Y-4052506D01*
G37*
X7331482Y-4052506D02*
X7162988Y-4221000D01*
X7100000Y-4221000D01*
X7088902Y-4223207D01*
X7079494Y-4229494D01*
X7054494Y-4254494D01*
X7054020Y-4255204D01*
X7035489Y-4247509D01*
X7014603Y-4247491D01*
X7013825Y-4247812D01*
X6995506Y-4229494D01*
X6986098Y-4223207D01*
X6975000Y-4221000D01*
X6736296Y-4221000D01*
X6739222Y-4214390D01*
X6739840Y-4188718D01*
X6736087Y-4179000D01*
X6843898Y-4179000D01*
X6850894Y-4186009D01*
X6866509Y-4192493D01*
X6883417Y-4192507D01*
X6899043Y-4186051D01*
X6911009Y-4174106D01*
X6917493Y-4158491D01*
X6917507Y-4141583D01*
X6911051Y-4125957D01*
X6899106Y-4113991D01*
X6883491Y-4107507D01*
X6866583Y-4107493D01*
X6850957Y-4113949D01*
X6843894Y-4121000D01*
X6725346Y-4121000D01*
X6729541Y-4110898D01*
X6729559Y-4089197D01*
X6721272Y-4069140D01*
X6706158Y-4054000D01*
X6737988Y-4054000D01*
X6754494Y-4070506D01*
X6763902Y-4076793D01*
X6763902Y-4076793D01*
X6775000Y-4079000D01*
X7075000Y-4079000D01*
X7086098Y-4076793D01*
X7095506Y-4070506D01*
X7113812Y-4052200D01*
X7114511Y-4052491D01*
X7135397Y-4052509D01*
X7154700Y-4044533D01*
X7169481Y-4029778D01*
X7175004Y-4016478D01*
X7180467Y-4029700D01*
X7195222Y-4044481D01*
X7214511Y-4052491D01*
X7231482Y-4052506D01*
X7187988Y-4096000D01*
X7131102Y-4096000D01*
X7124106Y-4088991D01*
X7108491Y-4082507D01*
X7091583Y-4082493D01*
X7075957Y-4088949D01*
X7063991Y-4100894D01*
X7057507Y-4116509D01*
X7057493Y-4133417D01*
X7063949Y-4149043D01*
X7075894Y-4161009D01*
X7091509Y-4167493D01*
X7108417Y-4167507D01*
X7124043Y-4161051D01*
X7131106Y-4154000D01*
X7200000Y-4154000D01*
X7211098Y-4151793D01*
X7220506Y-4145506D01*
X7313812Y-4052200D01*
X7314511Y-4052491D01*
X7331482Y-4052506D01*
G36*
X7848031Y-5879528D02*
X7831194Y-5879528D01*
X7831194Y-5683253D01*
X7809746Y-5626243D01*
X7809000Y-5625127D01*
X7809000Y-5538973D01*
X7809000Y-5529027D01*
X7809000Y-5461027D01*
X7805194Y-5451839D01*
X7798161Y-5444806D01*
X7788973Y-5441000D01*
X7779027Y-5441000D01*
X7711027Y-5441000D01*
X7701839Y-5444806D01*
X7694806Y-5451839D01*
X7692015Y-5458577D01*
X7683464Y-5450011D01*
X7661787Y-5441010D01*
X7638316Y-5440990D01*
X7616623Y-5449953D01*
X7600011Y-5466536D01*
X7599996Y-5466572D01*
X7583464Y-5450011D01*
X7561787Y-5441010D01*
X7538316Y-5440990D01*
X7516623Y-5449953D01*
X7500011Y-5466536D01*
X7491010Y-5488213D01*
X7490990Y-5511684D01*
X7499953Y-5533377D01*
X7516536Y-5549989D01*
X7538213Y-5558990D01*
X7561684Y-5559010D01*
X7583377Y-5550047D01*
X7599989Y-5533464D01*
X7600004Y-5533428D01*
X7616536Y-5549989D01*
X7638213Y-5558990D01*
X7640173Y-5558991D01*
X7594747Y-5576081D01*
X7586217Y-5581781D01*
X7573676Y-5603758D01*
X7677165Y-5707247D01*
X7780655Y-5603758D01*
X7768114Y-5581781D01*
X7717854Y-5559000D01*
X7720973Y-5559000D01*
X7788973Y-5559000D01*
X7798161Y-5555194D01*
X7805194Y-5548161D01*
X7809000Y-5538973D01*
X7809000Y-5625127D01*
X7804046Y-5617713D01*
X7782069Y-5605172D01*
X7678580Y-5708661D01*
X7782069Y-5812151D01*
X7804046Y-5799610D01*
X7829192Y-5744131D01*
X7831194Y-5683253D01*
X7831194Y-5879528D01*
X7780655Y-5879528D01*
X7780655Y-5813565D01*
X7677165Y-5710076D01*
X7675751Y-5711490D01*
X7675751Y-5708661D01*
X7572261Y-5605172D01*
X7550285Y-5617713D01*
X7525139Y-5673191D01*
X7523137Y-5734070D01*
X7544585Y-5791080D01*
X7550285Y-5799610D01*
X7572261Y-5812151D01*
X7675751Y-5708661D01*
X7675751Y-5711490D01*
X7573676Y-5813565D01*
X7586217Y-5835542D01*
X7641695Y-5860688D01*
X7702574Y-5862690D01*
X7759584Y-5841242D01*
X7768114Y-5835542D01*
X7780655Y-5813565D01*
X7780655Y-5879528D01*
X7472190Y-5879528D01*
X7474350Y-5874312D01*
X7474350Y-5837750D01*
X7474350Y-5818250D01*
X7474350Y-5781688D01*
X7469022Y-5768824D01*
X7459176Y-5758978D01*
X7446312Y-5753650D01*
X7432388Y-5753650D01*
X7409750Y-5753650D01*
X7401000Y-5762400D01*
X7401000Y-5827000D01*
X7465600Y-5827000D01*
X7474350Y-5818250D01*
X7474350Y-5837750D01*
X7465600Y-5829000D01*
X7401000Y-5829000D01*
X7401000Y-5829787D01*
X7399000Y-5829787D01*
X7399000Y-5829000D01*
X7399000Y-5827000D01*
X7399000Y-5762400D01*
X7390250Y-5753650D01*
X7367612Y-5753650D01*
X7353688Y-5753650D01*
X7340824Y-5758978D01*
X7330978Y-5768824D01*
X7325650Y-5781688D01*
X7325650Y-5818250D01*
X7334400Y-5827000D01*
X7399000Y-5827000D01*
X7399000Y-5829000D01*
X7334400Y-5829000D01*
X7325650Y-5837750D01*
X7325650Y-5874312D01*
X7327810Y-5879528D01*
X5188159Y-5879528D01*
X5188159Y-5764573D01*
X5150000Y-5726414D01*
X5111841Y-5764573D01*
X5113357Y-5777136D01*
X5136098Y-5787190D01*
X5160955Y-5787776D01*
X5184145Y-5778805D01*
X5186643Y-5777136D01*
X5188159Y-5764573D01*
X5188159Y-5879528D01*
X4924731Y-5879528D01*
X4924731Y-5662151D01*
X4914125Y-5634531D01*
X4911928Y-5631243D01*
X4898133Y-5628282D01*
X4896718Y-5629696D01*
X4896718Y-5626867D01*
X4893757Y-5613072D01*
X4866728Y-5601041D01*
X4837151Y-5600269D01*
X4809531Y-5610875D01*
X4806243Y-5613072D01*
X4803282Y-5626867D01*
X4850000Y-5673586D01*
X4896718Y-5626867D01*
X4896718Y-5629696D01*
X4851414Y-5675000D01*
X4898133Y-5721718D01*
X4911928Y-5718757D01*
X4923959Y-5691728D01*
X4924731Y-5662151D01*
X4924731Y-5879528D01*
X4896718Y-5879528D01*
X4896718Y-5723133D01*
X4850000Y-5676414D01*
X4848586Y-5677828D01*
X4848586Y-5675000D01*
X4801867Y-5628282D01*
X4790000Y-5630829D01*
X4790000Y-5205027D01*
X4786194Y-5195839D01*
X4779161Y-5188806D01*
X4769973Y-5185000D01*
X4760027Y-5185000D01*
X4674000Y-5185000D01*
X4674000Y-5145142D01*
X4674000Y-5051000D01*
X4673213Y-5051000D01*
X4673213Y-5049000D01*
X4674000Y-5049000D01*
X4674000Y-4954858D01*
X4663306Y-4947106D01*
X4649729Y-4950928D01*
X4627306Y-4965441D01*
X4620000Y-4976037D01*
X4620000Y-4975000D01*
X4616575Y-4957779D01*
X4606820Y-4943180D01*
X4557858Y-4894219D01*
X4561992Y-4894322D01*
X4587608Y-4884456D01*
X4590539Y-4882498D01*
X4592846Y-4869260D01*
X4550000Y-4826414D01*
X4549443Y-4826971D01*
X4548029Y-4825557D01*
X4548586Y-4825000D01*
X4548029Y-4824443D01*
X4549443Y-4823029D01*
X4550000Y-4823586D01*
X4592846Y-4780740D01*
X4590539Y-4767502D01*
X4585156Y-4765113D01*
X4585156Y-4675000D01*
X4580665Y-4652422D01*
X4567875Y-4633281D01*
X4567046Y-4632727D01*
X4573161Y-4630194D01*
X4580194Y-4623161D01*
X4584000Y-4613973D01*
X4584000Y-4604027D01*
X4584000Y-4536027D01*
X4580194Y-4526839D01*
X4573161Y-4519806D01*
X4563973Y-4516000D01*
X4554027Y-4516000D01*
X4486027Y-4516000D01*
X4476839Y-4519806D01*
X4469806Y-4526839D01*
X4467297Y-4532895D01*
X4448734Y-4520491D01*
X4426156Y-4516000D01*
X4423844Y-4516000D01*
X4415294Y-4517701D01*
X4415294Y-4323646D01*
X4405978Y-4299524D01*
X4404198Y-4296859D01*
X4391376Y-4295038D01*
X4389962Y-4296452D01*
X4389962Y-4293624D01*
X4388141Y-4280802D01*
X4364497Y-4270332D01*
X4338646Y-4269706D01*
X4314524Y-4279022D01*
X4311859Y-4280802D01*
X4310038Y-4293624D01*
X4350000Y-4333586D01*
X4389962Y-4293624D01*
X4389962Y-4296452D01*
X4351414Y-4335000D01*
X4391376Y-4374962D01*
X4404198Y-4373141D01*
X4414668Y-4349497D01*
X4415294Y-4323646D01*
X4415294Y-4517701D01*
X4405010Y-4519746D01*
X4405010Y-4424108D01*
X4396654Y-4403886D01*
X4384244Y-4391454D01*
X4385476Y-4390978D01*
X4388141Y-4389198D01*
X4389962Y-4376376D01*
X4350000Y-4336414D01*
X4348586Y-4337828D01*
X4348586Y-4335000D01*
X4308624Y-4295038D01*
X4295802Y-4296859D01*
X4285332Y-4320503D01*
X4284706Y-4346354D01*
X4294022Y-4370476D01*
X4295802Y-4373141D01*
X4308624Y-4374962D01*
X4348586Y-4335000D01*
X4348586Y-4337828D01*
X4310038Y-4376376D01*
X4311859Y-4389198D01*
X4316135Y-4391092D01*
X4303400Y-4403804D01*
X4295010Y-4424012D01*
X4294990Y-4445892D01*
X4303346Y-4466114D01*
X4318804Y-4481600D01*
X4339012Y-4489990D01*
X4360892Y-4490010D01*
X4381114Y-4481654D01*
X4396600Y-4466196D01*
X4404990Y-4445988D01*
X4405010Y-4424108D01*
X4405010Y-4519746D01*
X4401266Y-4520491D01*
X4382125Y-4533281D01*
X4369335Y-4552422D01*
X4364844Y-4575000D01*
X4369335Y-4597578D01*
X4382125Y-4616719D01*
X4394518Y-4625000D01*
X4382125Y-4633281D01*
X4369335Y-4652422D01*
X4364844Y-4675000D01*
X4369335Y-4697578D01*
X4382125Y-4716719D01*
X4401266Y-4729509D01*
X4423844Y-4734000D01*
X4426156Y-4734000D01*
X4448734Y-4729509D01*
X4467875Y-4716719D01*
X4475000Y-4706056D01*
X4482125Y-4716719D01*
X4501266Y-4729509D01*
X4523844Y-4734000D01*
X4526156Y-4734000D01*
X4548734Y-4729509D01*
X4567875Y-4716719D01*
X4580665Y-4697578D01*
X4585156Y-4675000D01*
X4585156Y-4765113D01*
X4565449Y-4756366D01*
X4538008Y-4755678D01*
X4512392Y-4765544D01*
X4509461Y-4767502D01*
X4507154Y-4780739D01*
X4506566Y-4780152D01*
X4505194Y-4776839D01*
X4498161Y-4769806D01*
X4488973Y-4766000D01*
X4479027Y-4766000D01*
X4411027Y-4766000D01*
X4401839Y-4769806D01*
X4394806Y-4776839D01*
X4391000Y-4786027D01*
X4391000Y-4795973D01*
X4391000Y-4863973D01*
X4394806Y-4873161D01*
X4401645Y-4880000D01*
X4287887Y-4880000D01*
X4287887Y-4502151D01*
X4266439Y-4445141D01*
X4260739Y-4436611D01*
X4238762Y-4424069D01*
X4237348Y-4425484D01*
X4237348Y-4422655D01*
X4224806Y-4400678D01*
X4169328Y-4375532D01*
X4108450Y-4373531D01*
X4051440Y-4394979D01*
X4042910Y-4400678D01*
X4030369Y-4422655D01*
X4133858Y-4526145D01*
X4237348Y-4422655D01*
X4237348Y-4425484D01*
X4135272Y-4527559D01*
X4238762Y-4631049D01*
X4260739Y-4618507D01*
X4285885Y-4563029D01*
X4287887Y-4502151D01*
X4287887Y-4880000D01*
X4275365Y-4880000D01*
X4275365Y-4788626D01*
X4264673Y-4760770D01*
X4262447Y-4757440D01*
X4248587Y-4754402D01*
X4247172Y-4755817D01*
X4247172Y-4752988D01*
X4244135Y-4739127D01*
X4237348Y-4736106D01*
X4237348Y-4632463D01*
X4133858Y-4528973D01*
X4132444Y-4530387D01*
X4132444Y-4527559D01*
X4028954Y-4424069D01*
X4006978Y-4436611D01*
X3981831Y-4492089D01*
X3979830Y-4552967D01*
X4001278Y-4609977D01*
X4006978Y-4618507D01*
X4028954Y-4631049D01*
X4132444Y-4527559D01*
X4132444Y-4530387D01*
X4030369Y-4632463D01*
X4042910Y-4654440D01*
X4098388Y-4679586D01*
X4159266Y-4681587D01*
X4216276Y-4660139D01*
X4224806Y-4654440D01*
X4237348Y-4632463D01*
X4237348Y-4736106D01*
X4216878Y-4726991D01*
X4187051Y-4726210D01*
X4159196Y-4736902D01*
X4155865Y-4739127D01*
X4152828Y-4752988D01*
X4200000Y-4800161D01*
X4247172Y-4752988D01*
X4247172Y-4755817D01*
X4201414Y-4801575D01*
X4248587Y-4848747D01*
X4262447Y-4845709D01*
X4274584Y-4818452D01*
X4275365Y-4788626D01*
X4275365Y-4880000D01*
X4273425Y-4880000D01*
X4256204Y-4883425D01*
X4247172Y-4889460D01*
X4247172Y-4850161D01*
X4200000Y-4802989D01*
X4198586Y-4804403D01*
X4198586Y-4801575D01*
X4151413Y-4754402D01*
X4137553Y-4757440D01*
X4125416Y-4784697D01*
X4124635Y-4814524D01*
X4135327Y-4842379D01*
X4137553Y-4845709D01*
X4151413Y-4848747D01*
X4198586Y-4801575D01*
X4198586Y-4804403D01*
X4152828Y-4850161D01*
X4155865Y-4864022D01*
X4183122Y-4876158D01*
X4212949Y-4876940D01*
X4240804Y-4866248D01*
X4244135Y-4864022D01*
X4247172Y-4850161D01*
X4247172Y-4889460D01*
X4241605Y-4893180D01*
X4201359Y-4933426D01*
X4187127Y-4933414D01*
X4163229Y-4943289D01*
X4144928Y-4961558D01*
X4135011Y-4985439D01*
X4134989Y-5011298D01*
X4144864Y-5035197D01*
X4163132Y-5053497D01*
X4187014Y-5063414D01*
X4212873Y-5063436D01*
X4236771Y-5053562D01*
X4255072Y-5035293D01*
X4264989Y-5011411D01*
X4265001Y-4997064D01*
X4292065Y-4970000D01*
X4435735Y-4970000D01*
X4433670Y-4971380D01*
X4420999Y-4990343D01*
X4416550Y-5012710D01*
X4416550Y-5087290D01*
X4420999Y-5109657D01*
X4433670Y-5128620D01*
X4452632Y-5141290D01*
X4475000Y-5145740D01*
X4497368Y-5141290D01*
X4516330Y-5128620D01*
X4525000Y-5115645D01*
X4533670Y-5128620D01*
X4552632Y-5141290D01*
X4575000Y-5145740D01*
X4597368Y-5141290D01*
X4616330Y-5128620D01*
X4619717Y-5123552D01*
X4627306Y-5134559D01*
X4649729Y-5149072D01*
X4663306Y-5152894D01*
X4674000Y-5145142D01*
X4674000Y-5185000D01*
X4380027Y-5185000D01*
X4370839Y-5188806D01*
X4363806Y-5195839D01*
X4360000Y-5205027D01*
X4360000Y-5214973D01*
X4360000Y-5834973D01*
X4363806Y-5844161D01*
X4370839Y-5851194D01*
X4380027Y-5855000D01*
X4389973Y-5855000D01*
X4769973Y-5855000D01*
X4779161Y-5851194D01*
X4786194Y-5844161D01*
X4790000Y-5834973D01*
X4790000Y-5825027D01*
X4790000Y-5719171D01*
X4801867Y-5721718D01*
X4848586Y-5675000D01*
X4848586Y-5677828D01*
X4803282Y-5723133D01*
X4806243Y-5736928D01*
X4833272Y-5748959D01*
X4862849Y-5749731D01*
X4890469Y-5739125D01*
X4893757Y-5736928D01*
X4896718Y-5723133D01*
X4896718Y-5879528D01*
X4287887Y-5879528D01*
X4287887Y-5683253D01*
X4275365Y-5649970D01*
X4275365Y-5238626D01*
X4264673Y-5210770D01*
X4262447Y-5207440D01*
X4248587Y-5204402D01*
X4247172Y-5205817D01*
X4247172Y-5202988D01*
X4244135Y-5189127D01*
X4216878Y-5176991D01*
X4187051Y-5176210D01*
X4159196Y-5186902D01*
X4155865Y-5189127D01*
X4152828Y-5202988D01*
X4200000Y-5250161D01*
X4247172Y-5202988D01*
X4247172Y-5205817D01*
X4201414Y-5251575D01*
X4248587Y-5298747D01*
X4262447Y-5295709D01*
X4274584Y-5268452D01*
X4275365Y-5238626D01*
X4275365Y-5649970D01*
X4266439Y-5626243D01*
X4265011Y-5624107D01*
X4265011Y-5435553D01*
X4255136Y-5411654D01*
X4247172Y-5403676D01*
X4247172Y-5300161D01*
X4200000Y-5252989D01*
X4198586Y-5254403D01*
X4198586Y-5251575D01*
X4151413Y-5204402D01*
X4137553Y-5207440D01*
X4125416Y-5234697D01*
X4124635Y-5264524D01*
X4135327Y-5292379D01*
X4137553Y-5295709D01*
X4151413Y-5298747D01*
X4198586Y-5251575D01*
X4198586Y-5254403D01*
X4152828Y-5300161D01*
X4155865Y-5314022D01*
X4183122Y-5326158D01*
X4212949Y-5326940D01*
X4240804Y-5316248D01*
X4244135Y-5314022D01*
X4247172Y-5300161D01*
X4247172Y-5403676D01*
X4236868Y-5393353D01*
X4212986Y-5383436D01*
X4187127Y-5383414D01*
X4163229Y-5393289D01*
X4144928Y-5411558D01*
X4135011Y-5435439D01*
X4134989Y-5461298D01*
X4144864Y-5485197D01*
X4163132Y-5503497D01*
X4187014Y-5513414D01*
X4212873Y-5513436D01*
X4236771Y-5503562D01*
X4255072Y-5485293D01*
X4264989Y-5461411D01*
X4265011Y-5435553D01*
X4265011Y-5624107D01*
X4260739Y-5617713D01*
X4238762Y-5605172D01*
X4237348Y-5606586D01*
X4237348Y-5603758D01*
X4224806Y-5581781D01*
X4169328Y-5556635D01*
X4108450Y-5554633D01*
X4051440Y-5576081D01*
X4042910Y-5581781D01*
X4030369Y-5603758D01*
X4133858Y-5707247D01*
X4237348Y-5603758D01*
X4237348Y-5606586D01*
X4135272Y-5708661D01*
X4238762Y-5812151D01*
X4260739Y-5799610D01*
X4285885Y-5744131D01*
X4287887Y-5683253D01*
X4287887Y-5879528D01*
X4237348Y-5879528D01*
X4237348Y-5813565D01*
X4133858Y-5710076D01*
X4132444Y-5711490D01*
X4132444Y-5708661D01*
X4028954Y-5605172D01*
X4006978Y-5617713D01*
X3981831Y-5673191D01*
X3979830Y-5734070D01*
X4001278Y-5791080D01*
X4006978Y-5799610D01*
X4028954Y-5812151D01*
X4132444Y-5708661D01*
X4132444Y-5711490D01*
X4030369Y-5813565D01*
X4042910Y-5835542D01*
X4098388Y-5860688D01*
X4159266Y-5862690D01*
X4216276Y-5841242D01*
X4224806Y-5835542D01*
X4237348Y-5813565D01*
X4237348Y-5879528D01*
X3962992Y-5879528D01*
X3962992Y-4124425D01*
X3974038Y-4129000D01*
X4015250Y-4129000D01*
X4024000Y-4120250D01*
X4024000Y-4051000D01*
X4023213Y-4051000D01*
X4023213Y-4049000D01*
X4024000Y-4049000D01*
X4024000Y-3979750D01*
X4015250Y-3971000D01*
X3974038Y-3971000D01*
X3962992Y-3975575D01*
X3962992Y-3962992D01*
X4067382Y-3962992D01*
X4063830Y-3971000D01*
X4034750Y-3971000D01*
X4026000Y-3979750D01*
X4026000Y-4049000D01*
X4026787Y-4049000D01*
X4026787Y-4051000D01*
X4026000Y-4051000D01*
X4026000Y-4120250D01*
X4034750Y-4129000D01*
X4056000Y-4129000D01*
X4056000Y-4140962D01*
X4061328Y-4153826D01*
X4071174Y-4163672D01*
X4080534Y-4167548D01*
X4073596Y-4170415D01*
X4055479Y-4188501D01*
X4045661Y-4212144D01*
X4045639Y-4237744D01*
X4055415Y-4261404D01*
X4073501Y-4279521D01*
X4097144Y-4289339D01*
X4122744Y-4289361D01*
X4146404Y-4279585D01*
X4164521Y-4261499D01*
X4167635Y-4254000D01*
X4175000Y-4254000D01*
X4186098Y-4251793D01*
X4195506Y-4245506D01*
X4262012Y-4179000D01*
X4464996Y-4179000D01*
X4455479Y-4188501D01*
X4445661Y-4212144D01*
X4445639Y-4237744D01*
X4455415Y-4261404D01*
X4473501Y-4279521D01*
X4477719Y-4281273D01*
X4470479Y-4288501D01*
X4460661Y-4312144D01*
X4460639Y-4337744D01*
X4470415Y-4361404D01*
X4488501Y-4379521D01*
X4507734Y-4387507D01*
X4488596Y-4395415D01*
X4470479Y-4413501D01*
X4460661Y-4437144D01*
X4460639Y-4462744D01*
X4470415Y-4486404D01*
X4488501Y-4504521D01*
X4512144Y-4514339D01*
X4537744Y-4514361D01*
X4561404Y-4504585D01*
X4579521Y-4486499D01*
X4589339Y-4462856D01*
X4589361Y-4437256D01*
X4579585Y-4413596D01*
X4561499Y-4395479D01*
X4542266Y-4387492D01*
X4561404Y-4379585D01*
X4579521Y-4361499D01*
X4589339Y-4337856D01*
X4589361Y-4312256D01*
X4585950Y-4304000D01*
X4650000Y-4304000D01*
X4661098Y-4301793D01*
X4670506Y-4295506D01*
X4787012Y-4179000D01*
X4950000Y-4179000D01*
X4961098Y-4176793D01*
X4970506Y-4170506D01*
X4992416Y-4148596D01*
X4994549Y-4150021D01*
X4993596Y-4150415D01*
X4975479Y-4168501D01*
X4965661Y-4192144D01*
X4965639Y-4217744D01*
X4975415Y-4241404D01*
X4993501Y-4259521D01*
X5017144Y-4269339D01*
X5042744Y-4269361D01*
X5066404Y-4259585D01*
X5084521Y-4241499D01*
X5094339Y-4217856D01*
X5094361Y-4192256D01*
X5084585Y-4168596D01*
X5066499Y-4150479D01*
X5059263Y-4147474D01*
X5067875Y-4141719D01*
X5075000Y-4131056D01*
X5082125Y-4141719D01*
X5101266Y-4154509D01*
X5123844Y-4159000D01*
X5126156Y-4159000D01*
X5148734Y-4154509D01*
X5167875Y-4141719D01*
X5175000Y-4131056D01*
X5182125Y-4141719D01*
X5196000Y-4150990D01*
X5196000Y-4162962D01*
X5196000Y-4190250D01*
X5204750Y-4199000D01*
X5274000Y-4199000D01*
X5274000Y-4198213D01*
X5276000Y-4198213D01*
X5276000Y-4199000D01*
X5345250Y-4199000D01*
X5354000Y-4190250D01*
X5354000Y-4162962D01*
X5354000Y-4150990D01*
X5367875Y-4141719D01*
X5375000Y-4131056D01*
X5382125Y-4141719D01*
X5401266Y-4154509D01*
X5423844Y-4159000D01*
X5426156Y-4159000D01*
X5448734Y-4154509D01*
X5467875Y-4141719D01*
X5475000Y-4131056D01*
X5482125Y-4141719D01*
X5501266Y-4154509D01*
X5523844Y-4159000D01*
X5526156Y-4159000D01*
X5548734Y-4154509D01*
X5567875Y-4141719D01*
X5575000Y-4131056D01*
X5582125Y-4141719D01*
X5601266Y-4154509D01*
X5623844Y-4159000D01*
X5626156Y-4159000D01*
X5640195Y-4156207D01*
X5654494Y-4170506D01*
X5663902Y-4176793D01*
X5675000Y-4179000D01*
X6055233Y-4179000D01*
X6054494Y-4179494D01*
X5987988Y-4246000D01*
X5950000Y-4246000D01*
X5938902Y-4248207D01*
X5929494Y-4254494D01*
X5912757Y-4271231D01*
X5910898Y-4270459D01*
X5889197Y-4270441D01*
X5887255Y-4271243D01*
X5845506Y-4229494D01*
X5836098Y-4223207D01*
X5825000Y-4221000D01*
X5400000Y-4221000D01*
X5388902Y-4223207D01*
X5379494Y-4229494D01*
X5351153Y-4257834D01*
X5354000Y-4250962D01*
X5354000Y-4237038D01*
X5354000Y-4209750D01*
X5345250Y-4201000D01*
X5276000Y-4201000D01*
X5276000Y-4201787D01*
X5274000Y-4201787D01*
X5274000Y-4201000D01*
X5204750Y-4201000D01*
X5196000Y-4209750D01*
X5196000Y-4237038D01*
X5196000Y-4250962D01*
X5199000Y-4258204D01*
X5199000Y-4264750D01*
X5190250Y-4256000D01*
X5159038Y-4256000D01*
X5146174Y-4261328D01*
X5136328Y-4271174D01*
X5131000Y-4284038D01*
X5131000Y-4297962D01*
X5131000Y-4315250D01*
X5139750Y-4324000D01*
X5199000Y-4324000D01*
X5199000Y-4323213D01*
X5201000Y-4323213D01*
X5201000Y-4324000D01*
X5201787Y-4324000D01*
X5201787Y-4326000D01*
X5201000Y-4326000D01*
X5201000Y-4326787D01*
X5199000Y-4326787D01*
X5199000Y-4326000D01*
X5139750Y-4326000D01*
X5131000Y-4334750D01*
X5131000Y-4352038D01*
X5131000Y-4365962D01*
X5135064Y-4375772D01*
X5129494Y-4379494D01*
X5054494Y-4454494D01*
X5048207Y-4463902D01*
X5046000Y-4475000D01*
X5046000Y-4504988D01*
X5045506Y-4504494D01*
X5036098Y-4498207D01*
X5025000Y-4496000D01*
X4970004Y-4496000D01*
X4979521Y-4486499D01*
X4989339Y-4462856D01*
X4989361Y-4437256D01*
X4979585Y-4413596D01*
X4961499Y-4395479D01*
X4942266Y-4387492D01*
X4961404Y-4379585D01*
X4979521Y-4361499D01*
X4989339Y-4337856D01*
X4989361Y-4312256D01*
X4979585Y-4288596D01*
X4961499Y-4270479D01*
X4937856Y-4260661D01*
X4912256Y-4260639D01*
X4888596Y-4270415D01*
X4870479Y-4288501D01*
X4860661Y-4312144D01*
X4860639Y-4337744D01*
X4870415Y-4361404D01*
X4888501Y-4379521D01*
X4907734Y-4387507D01*
X4888596Y-4395415D01*
X4870479Y-4413501D01*
X4860661Y-4437144D01*
X4860639Y-4462744D01*
X4864433Y-4471927D01*
X4806360Y-4530000D01*
X4739069Y-4530000D01*
X4735544Y-4521489D01*
X4728511Y-4514456D01*
X4719323Y-4510650D01*
X4709377Y-4510650D01*
X4630677Y-4510650D01*
X4621489Y-4514456D01*
X4614456Y-4521489D01*
X4610650Y-4530677D01*
X4610650Y-4540623D01*
X4610650Y-4619323D01*
X4614456Y-4628511D01*
X4621489Y-4635544D01*
X4630677Y-4639350D01*
X4640623Y-4639350D01*
X4719323Y-4639350D01*
X4720293Y-4638948D01*
X4710661Y-4662144D01*
X4710639Y-4687744D01*
X4720415Y-4711404D01*
X4738501Y-4729521D01*
X4762144Y-4739339D01*
X4787744Y-4739361D01*
X4811404Y-4729585D01*
X4829521Y-4711499D01*
X4839339Y-4687856D01*
X4839361Y-4662256D01*
X4836260Y-4654752D01*
X4937012Y-4554000D01*
X5012988Y-4554000D01*
X5013733Y-4554745D01*
X5010661Y-4562144D01*
X5010639Y-4587744D01*
X5020415Y-4611404D01*
X5038501Y-4629521D01*
X5062144Y-4639339D01*
X5087744Y-4639361D01*
X5111404Y-4629585D01*
X5115789Y-4625208D01*
X5120415Y-4636404D01*
X5133854Y-4649866D01*
X5120300Y-4655467D01*
X5105519Y-4670222D01*
X5099996Y-4683521D01*
X5094533Y-4670300D01*
X5079778Y-4655519D01*
X5060489Y-4647509D01*
X5039603Y-4647491D01*
X5020300Y-4655467D01*
X5005519Y-4670222D01*
X4999996Y-4683521D01*
X4994533Y-4670300D01*
X4979778Y-4655519D01*
X4960489Y-4647509D01*
X4939603Y-4647491D01*
X4920300Y-4655467D01*
X4905519Y-4670222D01*
X4897509Y-4689511D01*
X4897491Y-4710397D01*
X4905467Y-4729700D01*
X4920222Y-4744481D01*
X4939511Y-4752491D01*
X4960397Y-4752509D01*
X4979700Y-4744533D01*
X4994481Y-4729778D01*
X5000004Y-4716478D01*
X5005467Y-4729700D01*
X5020222Y-4744481D01*
X5039511Y-4752491D01*
X5060397Y-4752509D01*
X5079700Y-4744533D01*
X5094481Y-4729778D01*
X5100004Y-4716478D01*
X5105467Y-4729700D01*
X5120222Y-4744481D01*
X5139511Y-4752491D01*
X5160397Y-4752509D01*
X5179700Y-4744533D01*
X5194481Y-4729778D01*
X5200004Y-4716478D01*
X5205467Y-4729700D01*
X5220222Y-4744481D01*
X5239511Y-4752491D01*
X5260397Y-4752509D01*
X5279700Y-4744533D01*
X5294481Y-4729778D01*
X5300004Y-4716478D01*
X5305467Y-4729700D01*
X5320222Y-4744481D01*
X5339511Y-4752491D01*
X5360397Y-4752509D01*
X5379700Y-4744533D01*
X5394481Y-4729778D01*
X5400004Y-4716478D01*
X5405467Y-4729700D01*
X5420222Y-4744481D01*
X5439511Y-4752491D01*
X5460397Y-4752509D01*
X5479700Y-4744533D01*
X5494481Y-4729778D01*
X5500004Y-4716478D01*
X5505467Y-4729700D01*
X5520222Y-4744481D01*
X5539511Y-4752491D01*
X5560397Y-4752509D01*
X5579700Y-4744533D01*
X5594481Y-4729778D01*
X5600004Y-4716478D01*
X5605467Y-4729700D01*
X5620222Y-4744481D01*
X5639511Y-4752491D01*
X5660397Y-4752509D01*
X5679700Y-4744533D01*
X5694481Y-4729778D01*
X5700004Y-4716478D01*
X5705467Y-4729700D01*
X5720222Y-4744481D01*
X5739511Y-4752491D01*
X5760397Y-4752509D01*
X5779700Y-4744533D01*
X5794481Y-4729778D01*
X5794494Y-4729747D01*
X5796195Y-4734145D01*
X5797864Y-4736643D01*
X5810427Y-4738159D01*
X5848586Y-4700000D01*
X5848029Y-4699443D01*
X5849443Y-4698029D01*
X5850000Y-4698586D01*
X5850557Y-4698029D01*
X5851971Y-4699443D01*
X5851414Y-4700000D01*
X5889573Y-4738159D01*
X5902136Y-4736643D01*
X5905000Y-4730164D01*
X5905000Y-4756360D01*
X5888159Y-4773201D01*
X5888159Y-4739573D01*
X5850000Y-4701414D01*
X5811841Y-4739573D01*
X5813357Y-4752136D01*
X5836098Y-4762190D01*
X5860955Y-4762776D01*
X5884145Y-4753805D01*
X5886643Y-4752136D01*
X5888159Y-4739573D01*
X5888159Y-4773201D01*
X5881360Y-4780000D01*
X4688444Y-4780000D01*
X4683464Y-4775011D01*
X4661787Y-4766010D01*
X4638316Y-4765990D01*
X4616623Y-4774953D01*
X4607157Y-4784402D01*
X4594260Y-4782154D01*
X4592846Y-4783568D01*
X4551414Y-4825000D01*
X4594260Y-4867846D01*
X4607161Y-4865597D01*
X4616536Y-4874989D01*
X4638213Y-4883990D01*
X4661684Y-4884010D01*
X4683377Y-4875047D01*
X4688433Y-4870000D01*
X5900000Y-4870000D01*
X5917221Y-4866575D01*
X5931820Y-4856820D01*
X5968640Y-4820000D01*
X6106360Y-4820000D01*
X6143180Y-4856820D01*
X6157779Y-4866575D01*
X6175000Y-4870000D01*
X6906360Y-4870000D01*
X6998007Y-4961647D01*
X7005467Y-4979700D01*
X7020222Y-4994481D01*
X7033521Y-5000004D01*
X7020300Y-5005467D01*
X7005519Y-5020222D01*
X6997509Y-5039511D01*
X6997491Y-5060397D01*
X7005467Y-5079700D01*
X7020222Y-5094481D01*
X7039511Y-5102491D01*
X7060397Y-5102509D01*
X7079700Y-5094533D01*
X7094481Y-5079778D01*
X7100836Y-5064475D01*
X7118180Y-5081820D01*
X7132779Y-5091575D01*
X7150000Y-5095000D01*
X7321471Y-5095000D01*
X7339511Y-5102491D01*
X7360397Y-5102509D01*
X7379700Y-5094533D01*
X7394481Y-5079778D01*
X7402491Y-5060489D01*
X7402506Y-5043518D01*
X7421000Y-5062012D01*
X7421000Y-5137988D01*
X7312988Y-5246000D01*
X7281132Y-5246000D01*
X7296218Y-5230940D01*
X7304541Y-5210898D01*
X7304559Y-5189197D01*
X7296272Y-5169140D01*
X7280940Y-5153782D01*
X7260898Y-5145459D01*
X7239197Y-5145441D01*
X7219140Y-5153728D01*
X7206282Y-5166563D01*
X7205587Y-5164763D01*
X7203827Y-5162129D01*
X7191052Y-5160363D01*
X7189637Y-5161777D01*
X7189637Y-5158948D01*
X7187871Y-5146173D01*
X7164390Y-5135778D01*
X7138718Y-5135160D01*
X7114763Y-5144413D01*
X7112129Y-5146173D01*
X7110363Y-5158948D01*
X7150000Y-5198586D01*
X7189637Y-5158948D01*
X7189637Y-5161777D01*
X7151414Y-5200000D01*
X7151971Y-5200557D01*
X7150557Y-5201971D01*
X7150000Y-5201414D01*
X7149443Y-5201971D01*
X7148029Y-5200557D01*
X7148586Y-5200000D01*
X7108948Y-5160363D01*
X7096173Y-5162129D01*
X7085778Y-5185610D01*
X7085160Y-5211282D01*
X7088913Y-5221000D01*
X6950000Y-5221000D01*
X6938902Y-5223207D01*
X6929494Y-5229494D01*
X6891613Y-5267375D01*
X6879778Y-5255519D01*
X6867507Y-5250424D01*
X6867507Y-5091583D01*
X6861051Y-5075957D01*
X6849106Y-5063991D01*
X6833491Y-5057507D01*
X6816583Y-5057493D01*
X6800957Y-5063949D01*
X6793894Y-5071000D01*
X6400000Y-5071000D01*
X6388902Y-5073207D01*
X6379494Y-5079494D01*
X6351486Y-5107501D01*
X6341583Y-5107493D01*
X6325957Y-5113949D01*
X6313991Y-5125894D01*
X6307507Y-5141509D01*
X6307493Y-5158417D01*
X6313949Y-5174043D01*
X6325894Y-5186009D01*
X6341509Y-5192493D01*
X6358417Y-5192507D01*
X6374043Y-5186051D01*
X6386009Y-5174106D01*
X6392493Y-5158491D01*
X6392501Y-5148511D01*
X6412012Y-5129000D01*
X6462702Y-5129000D01*
X6457507Y-5141509D01*
X6457493Y-5158417D01*
X6463949Y-5174043D01*
X6475894Y-5186009D01*
X6491509Y-5192493D01*
X6508417Y-5192507D01*
X6524043Y-5186051D01*
X6531106Y-5179000D01*
X6568898Y-5179000D01*
X6575894Y-5186009D01*
X6591509Y-5192493D01*
X6608417Y-5192507D01*
X6624043Y-5186051D01*
X6636009Y-5174106D01*
X6642493Y-5158491D01*
X6642507Y-5141583D01*
X6637308Y-5129000D01*
X6793898Y-5129000D01*
X6800894Y-5136009D01*
X6816509Y-5142493D01*
X6833417Y-5142507D01*
X6849043Y-5136051D01*
X6861009Y-5124106D01*
X6867493Y-5108491D01*
X6867507Y-5091583D01*
X6867507Y-5250424D01*
X6860489Y-5247509D01*
X6842502Y-5247493D01*
X6842507Y-5241583D01*
X6836051Y-5225957D01*
X6835104Y-5225009D01*
X6836009Y-5224106D01*
X6842493Y-5208491D01*
X6842507Y-5191583D01*
X6836051Y-5175957D01*
X6824106Y-5163991D01*
X6808491Y-5157507D01*
X6791583Y-5157493D01*
X6775957Y-5163949D01*
X6768894Y-5171000D01*
X6725000Y-5171000D01*
X6713902Y-5173207D01*
X6704494Y-5179494D01*
X6662988Y-5221000D01*
X6600000Y-5221000D01*
X6588902Y-5223207D01*
X6579494Y-5229494D01*
X6561188Y-5247800D01*
X6560489Y-5247509D01*
X6539603Y-5247491D01*
X6520300Y-5255467D01*
X6505519Y-5270222D01*
X6499996Y-5283521D01*
X6494533Y-5270300D01*
X6479778Y-5255519D01*
X6460489Y-5247509D01*
X6439603Y-5247491D01*
X6420300Y-5255467D01*
X6405519Y-5270222D01*
X6399996Y-5283521D01*
X6394533Y-5270300D01*
X6379778Y-5255519D01*
X6360489Y-5247509D01*
X6339603Y-5247491D01*
X6338825Y-5247812D01*
X6295506Y-5204494D01*
X6286098Y-5198207D01*
X6275000Y-5196000D01*
X5467504Y-5196000D01*
X5467507Y-5191583D01*
X5461051Y-5175957D01*
X5449106Y-5163991D01*
X5433491Y-5157507D01*
X5416583Y-5157493D01*
X5400957Y-5163949D01*
X5388991Y-5175894D01*
X5382507Y-5191509D01*
X5382493Y-5208417D01*
X5383492Y-5210836D01*
X5375957Y-5213949D01*
X5363991Y-5225894D01*
X5357507Y-5241509D01*
X5357502Y-5247506D01*
X5339603Y-5247491D01*
X5320971Y-5255189D01*
X5320506Y-5254494D01*
X5295506Y-5229494D01*
X5286098Y-5223207D01*
X5275000Y-5221000D01*
X5262012Y-5221000D01*
X5142499Y-5101486D01*
X5142507Y-5091583D01*
X5136051Y-5075957D01*
X5124106Y-5063991D01*
X5108491Y-5057507D01*
X5091583Y-5057493D01*
X5075957Y-5063949D01*
X5063991Y-5075894D01*
X5057507Y-5091509D01*
X5057493Y-5108417D01*
X5063949Y-5124043D01*
X5075894Y-5136009D01*
X5091509Y-5142493D01*
X5101489Y-5142501D01*
X5217375Y-5258387D01*
X5205519Y-5270222D01*
X5199996Y-5283521D01*
X5194533Y-5270300D01*
X5179778Y-5255519D01*
X5160489Y-5247509D01*
X5139603Y-5247491D01*
X5120300Y-5255467D01*
X5105519Y-5270222D01*
X5099996Y-5283521D01*
X5094533Y-5270300D01*
X5079778Y-5255519D01*
X5060489Y-5247509D01*
X5039603Y-5247491D01*
X5020300Y-5255467D01*
X5005519Y-5270222D01*
X5002500Y-5277492D01*
X5002500Y-5267527D01*
X4998694Y-5258339D01*
X4991661Y-5251306D01*
X4982473Y-5247500D01*
X4972527Y-5247500D01*
X4917527Y-5247500D01*
X4908339Y-5251306D01*
X4901306Y-5258339D01*
X4897500Y-5267527D01*
X4897500Y-5277473D01*
X4897500Y-5332473D01*
X4901306Y-5341661D01*
X4908339Y-5348694D01*
X4917527Y-5352500D01*
X4927473Y-5352500D01*
X4982473Y-5352500D01*
X4991661Y-5348694D01*
X4998694Y-5341661D01*
X5002500Y-5332473D01*
X5002500Y-5322527D01*
X5002500Y-5322520D01*
X5005467Y-5329700D01*
X5020222Y-5344481D01*
X5039511Y-5352491D01*
X5060397Y-5352509D01*
X5079700Y-5344533D01*
X5094481Y-5329778D01*
X5100004Y-5316478D01*
X5105467Y-5329700D01*
X5120222Y-5344481D01*
X5139511Y-5352491D01*
X5160397Y-5352509D01*
X5179700Y-5344533D01*
X5194481Y-5329778D01*
X5200004Y-5316478D01*
X5205467Y-5329700D01*
X5220222Y-5344481D01*
X5239511Y-5352491D01*
X5260397Y-5352509D01*
X5279029Y-5344810D01*
X5279494Y-5345506D01*
X5304494Y-5370506D01*
X5313902Y-5376793D01*
X5313902Y-5376793D01*
X5325000Y-5379000D01*
X5362988Y-5379000D01*
X5379494Y-5395506D01*
X5397800Y-5413812D01*
X5397509Y-5414511D01*
X5397491Y-5435397D01*
X5398949Y-5438926D01*
X5383491Y-5432507D01*
X5366583Y-5432493D01*
X5350957Y-5438949D01*
X5338991Y-5450894D01*
X5332507Y-5466509D01*
X5332493Y-5483417D01*
X5338949Y-5499043D01*
X5346000Y-5506106D01*
X5346000Y-5650000D01*
X5348207Y-5661098D01*
X5354494Y-5670506D01*
X5397800Y-5713812D01*
X5397509Y-5714511D01*
X5397491Y-5735397D01*
X5405467Y-5754700D01*
X5420222Y-5769481D01*
X5439511Y-5777491D01*
X5460397Y-5777509D01*
X5479700Y-5769533D01*
X5494481Y-5754778D01*
X5502491Y-5735489D01*
X5502509Y-5714603D01*
X5494533Y-5695300D01*
X5479778Y-5680519D01*
X5466478Y-5674996D01*
X5479700Y-5669533D01*
X5494481Y-5654778D01*
X5502491Y-5635489D01*
X5502509Y-5614603D01*
X5494533Y-5595300D01*
X5479778Y-5580519D01*
X5466478Y-5574996D01*
X5479700Y-5569533D01*
X5494481Y-5554778D01*
X5502491Y-5535489D01*
X5502509Y-5514603D01*
X5494533Y-5495300D01*
X5479778Y-5480519D01*
X5466478Y-5474996D01*
X5479700Y-5469533D01*
X5494481Y-5454778D01*
X5502491Y-5435489D01*
X5502509Y-5414603D01*
X5494533Y-5395300D01*
X5479778Y-5380519D01*
X5460489Y-5372509D01*
X5439603Y-5372491D01*
X5438825Y-5372812D01*
X5420506Y-5354494D01*
X5395506Y-5329494D01*
X5394796Y-5329020D01*
X5400004Y-5316478D01*
X5405467Y-5329700D01*
X5420222Y-5344481D01*
X5439511Y-5352491D01*
X5460397Y-5352509D01*
X5479700Y-5344533D01*
X5494481Y-5329778D01*
X5500004Y-5316478D01*
X5505467Y-5329700D01*
X5520222Y-5344481D01*
X5539511Y-5352491D01*
X5560397Y-5352509D01*
X5579700Y-5344533D01*
X5594481Y-5329778D01*
X5600004Y-5316478D01*
X5605467Y-5329700D01*
X5620222Y-5344481D01*
X5639511Y-5352491D01*
X5660397Y-5352509D01*
X5661175Y-5352188D01*
X5704494Y-5395506D01*
X5713902Y-5401793D01*
X5713902Y-5401793D01*
X5725000Y-5404000D01*
X5793868Y-5404000D01*
X5792866Y-5405000D01*
X5713539Y-5405000D01*
X5697578Y-5394335D01*
X5675000Y-5389844D01*
X5652422Y-5394335D01*
X5633281Y-5407125D01*
X5632727Y-5407954D01*
X5630194Y-5401839D01*
X5623161Y-5394806D01*
X5613973Y-5391000D01*
X5604027Y-5391000D01*
X5536027Y-5391000D01*
X5526839Y-5394806D01*
X5519806Y-5401839D01*
X5516000Y-5411027D01*
X5516000Y-5420973D01*
X5516000Y-5488973D01*
X5519806Y-5498161D01*
X5526839Y-5505194D01*
X5532895Y-5507702D01*
X5520491Y-5526266D01*
X5516000Y-5548844D01*
X5516000Y-5551156D01*
X5520491Y-5573734D01*
X5533281Y-5592875D01*
X5543944Y-5600000D01*
X5533281Y-5607125D01*
X5520491Y-5626266D01*
X5516000Y-5648844D01*
X5516000Y-5651156D01*
X5520491Y-5673734D01*
X5533281Y-5692875D01*
X5552422Y-5705665D01*
X5575000Y-5710156D01*
X5597578Y-5705665D01*
X5616719Y-5692875D01*
X5619055Y-5689380D01*
X5635256Y-5706404D01*
X5659866Y-5717320D01*
X5663219Y-5717987D01*
X5674000Y-5710242D01*
X5674000Y-5651000D01*
X5673213Y-5651000D01*
X5673213Y-5649000D01*
X5674000Y-5649000D01*
X5674000Y-5648213D01*
X5676000Y-5648213D01*
X5676000Y-5649000D01*
X5735243Y-5649000D01*
X5742987Y-5638219D01*
X5733304Y-5613099D01*
X5715093Y-5593962D01*
X5716719Y-5592875D01*
X5729509Y-5573734D01*
X5734000Y-5551156D01*
X5734000Y-5548844D01*
X5729509Y-5526266D01*
X5716719Y-5507125D01*
X5706056Y-5500000D01*
X5713539Y-5495000D01*
X5792843Y-5495000D01*
X5794060Y-5496218D01*
X5814102Y-5504541D01*
X5835803Y-5504559D01*
X5855860Y-5496272D01*
X5868718Y-5483437D01*
X5869413Y-5485237D01*
X5871173Y-5487871D01*
X5883948Y-5489637D01*
X5923586Y-5450000D01*
X5923029Y-5449443D01*
X5924443Y-5448029D01*
X5925000Y-5448586D01*
X5925557Y-5448029D01*
X5926971Y-5449443D01*
X5926414Y-5450000D01*
X5966052Y-5489637D01*
X5978827Y-5487871D01*
X5989222Y-5464390D01*
X5989840Y-5438718D01*
X5980587Y-5414763D01*
X5978827Y-5412129D01*
X5966052Y-5410363D01*
X5972176Y-5404238D01*
X5971937Y-5404000D01*
X6412988Y-5404000D01*
X6454494Y-5445506D01*
X6463902Y-5451793D01*
X6475000Y-5454000D01*
X6604289Y-5454000D01*
X6584334Y-5461662D01*
X6581046Y-5463860D01*
X6578085Y-5477655D01*
X6624803Y-5524373D01*
X6671521Y-5477655D01*
X6668560Y-5463860D01*
X6646410Y-5454000D01*
X6793898Y-5454000D01*
X6800894Y-5461009D01*
X6816509Y-5467493D01*
X6833417Y-5467507D01*
X6849043Y-5461051D01*
X6861009Y-5449106D01*
X6867493Y-5433491D01*
X6867507Y-5416583D01*
X6862308Y-5404000D01*
X6875000Y-5404000D01*
X6886098Y-5401793D01*
X6895506Y-5395506D01*
X6921461Y-5369551D01*
X6921439Y-5394757D01*
X6937199Y-5432900D01*
X6966356Y-5462108D01*
X7004471Y-5477935D01*
X7045741Y-5477971D01*
X7083884Y-5462211D01*
X7102558Y-5443570D01*
X7138988Y-5480000D01*
X6775000Y-5480000D01*
X6757779Y-5483425D01*
X6743180Y-5493180D01*
X6698894Y-5537466D01*
X6699534Y-5512939D01*
X6688928Y-5485319D01*
X6686731Y-5482030D01*
X6672936Y-5479069D01*
X6626217Y-5525787D01*
X6672936Y-5572506D01*
X6680833Y-5570810D01*
X6680000Y-5575000D01*
X6680000Y-5588059D01*
X6679198Y-5586859D01*
X6669053Y-5585418D01*
X6671521Y-5573920D01*
X6624803Y-5527202D01*
X6623389Y-5528616D01*
X6623389Y-5525787D01*
X6576671Y-5479069D01*
X6562875Y-5482030D01*
X6550844Y-5509060D01*
X6550073Y-5538636D01*
X6560678Y-5566256D01*
X6562875Y-5569545D01*
X6576671Y-5572506D01*
X6623389Y-5525787D01*
X6623389Y-5528616D01*
X6578085Y-5573920D01*
X6580565Y-5585472D01*
X6570802Y-5586859D01*
X6560332Y-5610503D01*
X6559706Y-5636354D01*
X6569022Y-5660476D01*
X6570802Y-5663141D01*
X6583624Y-5664962D01*
X6623586Y-5625000D01*
X6590516Y-5591931D01*
X6595614Y-5594200D01*
X6625000Y-5623586D01*
X6654560Y-5594026D01*
X6659152Y-5592263D01*
X6626414Y-5625000D01*
X6666376Y-5664962D01*
X6679198Y-5663141D01*
X6681092Y-5658865D01*
X6693804Y-5671600D01*
X6701989Y-5674998D01*
X6693886Y-5678346D01*
X6680000Y-5692208D01*
X6680000Y-5690027D01*
X6676194Y-5680839D01*
X6669161Y-5673806D01*
X6664199Y-5671750D01*
X6664962Y-5666376D01*
X6625000Y-5626414D01*
X6585038Y-5666376D01*
X6585801Y-5671750D01*
X6580839Y-5673806D01*
X6573806Y-5680839D01*
X6570000Y-5690027D01*
X6570000Y-5699973D01*
X6570000Y-5759973D01*
X6573806Y-5769161D01*
X6580839Y-5776194D01*
X6590027Y-5780000D01*
X6599973Y-5780000D01*
X6659973Y-5780000D01*
X6669161Y-5776194D01*
X6676194Y-5769161D01*
X6680000Y-5759973D01*
X6680000Y-5757771D01*
X6693804Y-5771600D01*
X6714012Y-5779990D01*
X6735892Y-5780010D01*
X6756114Y-5771654D01*
X6771600Y-5756196D01*
X6774998Y-5748011D01*
X6778346Y-5756114D01*
X6793804Y-5771600D01*
X6814012Y-5779990D01*
X6835892Y-5780010D01*
X6856114Y-5771654D01*
X6871600Y-5756196D01*
X6874998Y-5748011D01*
X6878346Y-5756114D01*
X6893804Y-5771600D01*
X6914012Y-5779990D01*
X6935892Y-5780010D01*
X6956114Y-5771654D01*
X6971600Y-5756196D01*
X6974998Y-5748011D01*
X6978346Y-5756114D01*
X6993804Y-5771600D01*
X7014012Y-5779990D01*
X7035892Y-5780010D01*
X7056114Y-5771654D01*
X7071600Y-5756196D01*
X7079990Y-5735988D01*
X7080010Y-5714108D01*
X7071654Y-5693886D01*
X7059244Y-5681454D01*
X7060476Y-5680978D01*
X7063141Y-5679198D01*
X7064962Y-5666376D01*
X7025000Y-5626414D01*
X6985038Y-5666376D01*
X6986859Y-5679198D01*
X6991135Y-5681092D01*
X6978400Y-5693804D01*
X6975002Y-5701989D01*
X6971654Y-5693886D01*
X6956196Y-5678400D01*
X6948011Y-5675002D01*
X6956114Y-5671654D01*
X6968546Y-5659244D01*
X6969022Y-5660476D01*
X6970802Y-5663141D01*
X6983624Y-5664962D01*
X7023586Y-5625000D01*
X6983624Y-5585038D01*
X6970802Y-5586859D01*
X6968908Y-5591135D01*
X6956196Y-5578400D01*
X6935988Y-5570010D01*
X6925025Y-5570000D01*
X6988059Y-5570000D01*
X6986859Y-5570802D01*
X6985038Y-5583624D01*
X7025000Y-5623586D01*
X7064962Y-5583624D01*
X7063141Y-5570802D01*
X7061330Y-5570000D01*
X7150000Y-5570000D01*
X7167221Y-5566575D01*
X7171000Y-5564049D01*
X7171000Y-5762988D01*
X7112988Y-5821000D01*
X7090294Y-5821000D01*
X7090294Y-5613646D01*
X7080978Y-5589524D01*
X7079198Y-5586859D01*
X7066376Y-5585038D01*
X7026414Y-5625000D01*
X7066376Y-5664962D01*
X7079198Y-5663141D01*
X7089668Y-5639497D01*
X7090294Y-5613646D01*
X7090294Y-5821000D01*
X6389840Y-5821000D01*
X6389840Y-5588718D01*
X6380587Y-5564763D01*
X6379559Y-5563225D01*
X6379559Y-5489197D01*
X6371272Y-5469140D01*
X6355940Y-5453782D01*
X6335898Y-5445459D01*
X6314197Y-5445441D01*
X6294140Y-5453728D01*
X6278782Y-5469060D01*
X6277976Y-5471000D01*
X6169235Y-5471000D01*
X6155940Y-5457682D01*
X6135898Y-5449359D01*
X6114197Y-5449341D01*
X6094140Y-5457628D01*
X6078782Y-5472960D01*
X6070459Y-5493002D01*
X6070441Y-5514703D01*
X6078728Y-5534760D01*
X6094060Y-5550118D01*
X6114102Y-5558441D01*
X6135803Y-5558459D01*
X6155860Y-5550172D01*
X6171218Y-5534840D01*
X6173643Y-5529000D01*
X6277959Y-5529000D01*
X6278728Y-5530860D01*
X6291563Y-5543718D01*
X6289763Y-5544413D01*
X6287129Y-5546173D01*
X6285363Y-5558948D01*
X6325000Y-5598586D01*
X6364637Y-5558948D01*
X6362871Y-5546173D01*
X6358083Y-5544053D01*
X6371218Y-5530940D01*
X6379541Y-5510898D01*
X6379559Y-5489197D01*
X6379559Y-5563225D01*
X6378827Y-5562129D01*
X6366052Y-5560363D01*
X6326414Y-5600000D01*
X6366052Y-5639637D01*
X6378827Y-5637871D01*
X6389222Y-5614390D01*
X6389840Y-5588718D01*
X6389840Y-5821000D01*
X6364637Y-5821000D01*
X6364637Y-5641052D01*
X6325000Y-5601414D01*
X6323586Y-5602828D01*
X6323586Y-5600000D01*
X6283948Y-5560363D01*
X6271173Y-5562129D01*
X6260778Y-5585610D01*
X6260160Y-5611282D01*
X6269413Y-5635237D01*
X6271173Y-5637871D01*
X6283948Y-5639637D01*
X6323586Y-5600000D01*
X6323586Y-5602828D01*
X6285363Y-5641052D01*
X6287129Y-5653827D01*
X6310610Y-5664222D01*
X6336282Y-5664840D01*
X6360237Y-5655587D01*
X6362871Y-5653827D01*
X6364637Y-5641052D01*
X6364637Y-5821000D01*
X6179559Y-5821000D01*
X6179559Y-5685297D01*
X6171272Y-5665240D01*
X6155940Y-5649882D01*
X6135898Y-5641559D01*
X6114197Y-5641541D01*
X6094140Y-5649828D01*
X6078782Y-5665160D01*
X6076357Y-5671000D01*
X5989840Y-5671000D01*
X5989840Y-5588718D01*
X5980587Y-5564763D01*
X5978827Y-5562129D01*
X5966052Y-5560363D01*
X5964637Y-5561777D01*
X5964637Y-5558948D01*
X5964637Y-5491052D01*
X5925000Y-5451414D01*
X5885363Y-5491052D01*
X5887129Y-5503827D01*
X5910610Y-5514222D01*
X5936282Y-5514840D01*
X5960237Y-5505587D01*
X5962871Y-5503827D01*
X5964637Y-5491052D01*
X5964637Y-5558948D01*
X5962871Y-5546173D01*
X5939390Y-5535778D01*
X5913718Y-5535160D01*
X5889763Y-5544413D01*
X5887129Y-5546173D01*
X5885363Y-5558948D01*
X5925000Y-5598586D01*
X5964637Y-5558948D01*
X5964637Y-5561777D01*
X5926414Y-5600000D01*
X5966052Y-5639637D01*
X5978827Y-5637871D01*
X5989222Y-5614390D01*
X5989840Y-5588718D01*
X5989840Y-5671000D01*
X5972041Y-5671000D01*
X5971272Y-5669140D01*
X5958437Y-5656282D01*
X5960237Y-5655587D01*
X5962871Y-5653827D01*
X5964637Y-5641052D01*
X5925000Y-5601414D01*
X5923586Y-5602828D01*
X5923586Y-5600000D01*
X5883948Y-5560363D01*
X5871173Y-5562129D01*
X5860778Y-5585610D01*
X5860160Y-5611282D01*
X5869413Y-5635237D01*
X5871173Y-5637871D01*
X5883948Y-5639637D01*
X5923586Y-5600000D01*
X5923586Y-5602828D01*
X5885363Y-5641052D01*
X5887129Y-5653827D01*
X5891917Y-5655947D01*
X5878782Y-5669060D01*
X5870459Y-5689102D01*
X5870441Y-5710803D01*
X5878728Y-5730860D01*
X5894060Y-5746218D01*
X5914102Y-5754541D01*
X5935803Y-5754559D01*
X5955860Y-5746272D01*
X5971218Y-5730940D01*
X5972024Y-5729000D01*
X6080764Y-5729000D01*
X6094060Y-5742318D01*
X6114102Y-5750641D01*
X6135803Y-5750659D01*
X6155860Y-5742372D01*
X6171218Y-5727040D01*
X6179541Y-5706998D01*
X6179559Y-5685297D01*
X6179559Y-5821000D01*
X5742987Y-5821000D01*
X5742987Y-5661781D01*
X5735243Y-5651000D01*
X5676000Y-5651000D01*
X5676000Y-5710242D01*
X5686781Y-5717987D01*
X5690134Y-5717320D01*
X5714744Y-5706404D01*
X5733304Y-5686901D01*
X5742987Y-5661781D01*
X5742987Y-5821000D01*
X5387012Y-5821000D01*
X5202200Y-5636188D01*
X5202491Y-5635489D01*
X5202509Y-5614603D01*
X5194533Y-5595300D01*
X5179778Y-5580519D01*
X5166478Y-5574996D01*
X5179700Y-5569533D01*
X5194481Y-5554778D01*
X5202491Y-5535489D01*
X5202509Y-5514603D01*
X5194533Y-5495300D01*
X5179778Y-5480519D01*
X5172508Y-5477500D01*
X5182473Y-5477500D01*
X5191661Y-5473694D01*
X5198694Y-5466661D01*
X5202500Y-5457473D01*
X5202500Y-5447527D01*
X5202500Y-5392527D01*
X5198694Y-5383339D01*
X5191661Y-5376306D01*
X5182473Y-5372500D01*
X5172527Y-5372500D01*
X5117527Y-5372500D01*
X5108339Y-5376306D01*
X5101306Y-5383339D01*
X5097500Y-5392527D01*
X5097500Y-5402473D01*
X5097500Y-5457473D01*
X5101306Y-5466661D01*
X5108339Y-5473694D01*
X5117527Y-5477500D01*
X5127473Y-5477500D01*
X5127480Y-5477500D01*
X5120300Y-5480467D01*
X5105519Y-5495222D01*
X5097509Y-5514511D01*
X5097491Y-5535397D01*
X5105467Y-5554700D01*
X5120222Y-5569481D01*
X5133521Y-5575004D01*
X5120300Y-5580467D01*
X5105519Y-5595222D01*
X5097509Y-5614511D01*
X5097499Y-5626087D01*
X5096718Y-5626867D01*
X5093757Y-5613072D01*
X5066728Y-5601041D01*
X5064381Y-5600980D01*
X5064381Y-5465402D01*
X5054602Y-5441735D01*
X5036510Y-5423611D01*
X5012860Y-5413791D01*
X4987252Y-5413768D01*
X4963585Y-5423547D01*
X4949992Y-5437116D01*
X4936510Y-5423611D01*
X4912860Y-5413791D01*
X4887252Y-5413768D01*
X4863585Y-5423547D01*
X4845461Y-5441639D01*
X4839361Y-5456330D01*
X4839361Y-5062256D01*
X4829585Y-5038596D01*
X4811499Y-5020479D01*
X4787856Y-5010661D01*
X4762256Y-5010639D01*
X4743450Y-5018409D01*
X4743450Y-5013550D01*
X4737857Y-4987431D01*
X4722694Y-4965441D01*
X4700271Y-4950928D01*
X4686694Y-4947106D01*
X4676000Y-4954858D01*
X4676000Y-5049000D01*
X4676787Y-5049000D01*
X4676787Y-5051000D01*
X4676000Y-5051000D01*
X4676000Y-5145142D01*
X4686694Y-5152894D01*
X4700271Y-5149072D01*
X4722694Y-5134559D01*
X4731206Y-5122214D01*
X4738501Y-5129521D01*
X4762144Y-5139339D01*
X4787744Y-5139361D01*
X4811404Y-5129585D01*
X4829521Y-5111499D01*
X4839339Y-5087856D01*
X4839361Y-5062256D01*
X4839361Y-5456330D01*
X4835641Y-5465289D01*
X4835619Y-5490897D01*
X4845398Y-5514565D01*
X4863490Y-5532688D01*
X4887140Y-5542509D01*
X4912748Y-5542531D01*
X4936415Y-5532752D01*
X4950008Y-5519183D01*
X4963490Y-5532688D01*
X4987140Y-5542509D01*
X5012748Y-5542531D01*
X5036415Y-5532752D01*
X5054539Y-5514660D01*
X5064359Y-5491010D01*
X5064381Y-5465402D01*
X5064381Y-5600980D01*
X5037151Y-5600269D01*
X5009531Y-5610875D01*
X5006243Y-5613072D01*
X5003282Y-5626867D01*
X5050000Y-5673586D01*
X5050557Y-5673029D01*
X5051971Y-5674443D01*
X5051414Y-5675000D01*
X5051971Y-5675557D01*
X5050557Y-5676971D01*
X5050000Y-5676414D01*
X5048586Y-5677828D01*
X5048586Y-5675000D01*
X5001867Y-5628282D01*
X4988072Y-5631243D01*
X4976041Y-5658272D01*
X4975269Y-5687849D01*
X4985875Y-5715469D01*
X4988072Y-5718757D01*
X5001867Y-5721718D01*
X5048586Y-5675000D01*
X5048586Y-5677828D01*
X5003282Y-5723133D01*
X5006243Y-5736928D01*
X5033272Y-5748959D01*
X5062849Y-5749731D01*
X5088712Y-5739800D01*
X5096195Y-5759145D01*
X5097864Y-5761643D01*
X5110427Y-5763159D01*
X5148586Y-5725000D01*
X5148029Y-5724443D01*
X5149443Y-5723029D01*
X5150000Y-5723586D01*
X5150557Y-5723029D01*
X5151971Y-5724443D01*
X5151414Y-5725000D01*
X5189573Y-5763159D01*
X5202136Y-5761643D01*
X5212190Y-5738902D01*
X5212436Y-5728448D01*
X5354494Y-5870506D01*
X5363902Y-5876793D01*
X5363902Y-5876793D01*
X5375000Y-5879000D01*
X5375000Y-5879000D01*
X5375000Y-5879000D01*
X7125000Y-5879000D01*
X7136098Y-5876793D01*
X7145506Y-5870506D01*
X7220506Y-5795506D01*
X7226793Y-5786098D01*
X7226793Y-5786098D01*
X7229000Y-5775000D01*
X7229000Y-5500000D01*
X7226793Y-5488902D01*
X7220506Y-5479494D01*
X7128925Y-5387913D01*
X7128955Y-5353668D01*
X7122829Y-5338841D01*
X7337853Y-5553865D01*
X7335661Y-5559144D01*
X7335639Y-5584744D01*
X7345415Y-5608404D01*
X7363501Y-5626521D01*
X7387144Y-5636339D01*
X7412744Y-5636361D01*
X7436404Y-5626585D01*
X7454521Y-5608499D01*
X7464339Y-5584856D01*
X7464361Y-5559256D01*
X7464361Y-5362256D01*
X7454585Y-5338596D01*
X7436499Y-5320479D01*
X7412856Y-5310661D01*
X7387256Y-5310639D01*
X7363596Y-5320415D01*
X7345479Y-5338501D01*
X7335661Y-5362144D01*
X7335639Y-5387744D01*
X7345415Y-5411404D01*
X7363501Y-5429521D01*
X7387144Y-5439339D01*
X7412744Y-5439361D01*
X7436404Y-5429585D01*
X7454521Y-5411499D01*
X7464339Y-5387856D01*
X7464361Y-5362256D01*
X7464361Y-5559256D01*
X7454585Y-5535596D01*
X7436499Y-5517479D01*
X7412856Y-5507661D01*
X7387256Y-5507639D01*
X7377629Y-5511617D01*
X7170012Y-5304000D01*
X7325000Y-5304000D01*
X7336098Y-5301793D01*
X7345506Y-5295506D01*
X7470506Y-5170506D01*
X7476793Y-5161098D01*
X7479000Y-5150000D01*
X7479000Y-5050000D01*
X7476793Y-5038902D01*
X7470506Y-5029494D01*
X7420506Y-4979494D01*
X7411098Y-4973207D01*
X7400000Y-4971000D01*
X7398126Y-4971000D01*
X7402491Y-4960489D01*
X7402496Y-4954000D01*
X7537988Y-4954000D01*
X7553222Y-4969234D01*
X7545010Y-4989012D01*
X7544990Y-5010892D01*
X7553346Y-5031114D01*
X7568804Y-5046600D01*
X7576989Y-5049998D01*
X7568886Y-5053346D01*
X7553400Y-5068804D01*
X7545010Y-5089012D01*
X7544990Y-5110892D01*
X7553346Y-5131114D01*
X7568804Y-5146600D01*
X7589012Y-5154990D01*
X7610892Y-5155010D01*
X7631114Y-5146654D01*
X7646600Y-5131196D01*
X7649998Y-5123011D01*
X7653346Y-5131114D01*
X7668804Y-5146600D01*
X7689012Y-5154990D01*
X7710892Y-5155010D01*
X7731114Y-5146654D01*
X7746600Y-5131196D01*
X7754990Y-5110988D01*
X7755010Y-5089108D01*
X7746654Y-5068886D01*
X7731196Y-5053400D01*
X7723011Y-5050002D01*
X7731114Y-5046654D01*
X7746600Y-5031196D01*
X7754990Y-5010988D01*
X7755010Y-4989108D01*
X7746654Y-4968886D01*
X7731196Y-4953400D01*
X7723011Y-4950002D01*
X7731114Y-4946654D01*
X7746600Y-4931196D01*
X7754990Y-4910988D01*
X7755010Y-4889108D01*
X7746654Y-4868886D01*
X7734244Y-4856454D01*
X7735476Y-4855978D01*
X7738141Y-4854198D01*
X7739962Y-4841376D01*
X7700000Y-4801414D01*
X7698586Y-4802828D01*
X7698586Y-4800000D01*
X7658624Y-4760038D01*
X7650000Y-4761263D01*
X7641376Y-4760038D01*
X7601414Y-4800000D01*
X7641376Y-4839962D01*
X7650000Y-4838737D01*
X7658624Y-4839962D01*
X7698586Y-4800000D01*
X7698586Y-4802828D01*
X7660038Y-4841376D01*
X7661859Y-4854198D01*
X7666135Y-4856092D01*
X7653400Y-4868804D01*
X7650002Y-4876989D01*
X7646654Y-4868886D01*
X7634244Y-4856454D01*
X7635476Y-4855978D01*
X7638141Y-4854198D01*
X7639962Y-4841376D01*
X7600000Y-4801414D01*
X7598586Y-4802828D01*
X7598586Y-4800000D01*
X7558624Y-4760038D01*
X7545802Y-4761859D01*
X7535332Y-4785503D01*
X7534706Y-4811354D01*
X7544022Y-4835476D01*
X7545802Y-4838141D01*
X7558624Y-4839962D01*
X7598586Y-4800000D01*
X7598586Y-4802828D01*
X7560038Y-4841376D01*
X7561859Y-4854198D01*
X7566135Y-4856092D01*
X7553400Y-4868804D01*
X7552489Y-4871000D01*
X7412012Y-4871000D01*
X7402200Y-4861188D01*
X7402491Y-4860489D01*
X7402509Y-4839603D01*
X7394533Y-4820300D01*
X7379778Y-4805519D01*
X7366478Y-4799996D01*
X7379700Y-4794533D01*
X7394481Y-4779778D01*
X7402491Y-4760489D01*
X7402509Y-4739603D01*
X7394533Y-4720300D01*
X7379778Y-4705519D01*
X7360489Y-4697509D01*
X7339603Y-4697491D01*
X7320300Y-4705467D01*
X7305519Y-4720222D01*
X7297509Y-4739511D01*
X7297491Y-4760397D01*
X7297812Y-4761175D01*
X7254494Y-4804494D01*
X7248207Y-4813902D01*
X7246000Y-4825000D01*
X7246000Y-4950000D01*
X7248207Y-4961098D01*
X7254494Y-4970506D01*
X7288988Y-5005000D01*
X7168640Y-5005000D01*
X7112776Y-4949136D01*
X7112776Y-4839045D01*
X7103805Y-4815855D01*
X7102500Y-4813903D01*
X7102500Y-4782473D01*
X7102500Y-4772527D01*
X7102500Y-4717527D01*
X7098694Y-4708339D01*
X7091661Y-4701306D01*
X7082473Y-4697500D01*
X7072527Y-4697500D01*
X7017527Y-4697500D01*
X7008339Y-4701306D01*
X7001306Y-4708339D01*
X6997500Y-4717527D01*
X6997500Y-4727473D01*
X6997500Y-4782473D01*
X7001306Y-4791661D01*
X7008339Y-4798694D01*
X7013023Y-4800634D01*
X7011841Y-4810427D01*
X7050000Y-4848586D01*
X7088159Y-4810427D01*
X7086977Y-4800634D01*
X7091661Y-4798694D01*
X7098694Y-4791661D01*
X7102500Y-4782473D01*
X7102500Y-4813903D01*
X7102136Y-4813357D01*
X7089573Y-4811841D01*
X7051414Y-4850000D01*
X7089573Y-4888159D01*
X7102136Y-4886643D01*
X7112190Y-4863902D01*
X7112776Y-4839045D01*
X7112776Y-4949136D01*
X7101993Y-4938353D01*
X7094533Y-4920300D01*
X7079778Y-4905519D01*
X7079747Y-4905506D01*
X7084145Y-4903805D01*
X7086643Y-4902136D01*
X7088159Y-4889573D01*
X7050000Y-4851414D01*
X7049443Y-4851971D01*
X7048029Y-4850557D01*
X7048586Y-4850000D01*
X7010427Y-4811841D01*
X6997864Y-4813357D01*
X6991467Y-4827827D01*
X6956820Y-4793180D01*
X6942221Y-4783425D01*
X6925000Y-4780000D01*
X6911012Y-4780000D01*
X6948513Y-4742499D01*
X6958417Y-4742507D01*
X6974043Y-4736051D01*
X6986009Y-4724106D01*
X6992493Y-4708491D01*
X6992507Y-4691583D01*
X6986051Y-4675957D01*
X6974106Y-4663991D01*
X6958491Y-4657507D01*
X6941583Y-4657493D01*
X6925957Y-4663949D01*
X6913991Y-4675894D01*
X6907507Y-4691509D01*
X6907499Y-4701489D01*
X6902494Y-4706493D01*
X6902509Y-4689603D01*
X6894533Y-4670300D01*
X6879778Y-4655519D01*
X6860489Y-4647509D01*
X6839603Y-4647491D01*
X6820300Y-4655467D01*
X6805519Y-4670222D01*
X6799996Y-4683521D01*
X6794533Y-4670300D01*
X6782633Y-4658379D01*
X6808839Y-4632173D01*
X6813213Y-4633990D01*
X6836684Y-4634010D01*
X6858377Y-4625047D01*
X6874989Y-4608464D01*
X6875004Y-4608428D01*
X6891536Y-4624989D01*
X6913213Y-4633990D01*
X6936684Y-4634010D01*
X6958377Y-4625047D01*
X6974989Y-4608464D01*
X6975004Y-4608428D01*
X6991536Y-4624989D01*
X7013213Y-4633990D01*
X7036684Y-4634010D01*
X7058377Y-4625047D01*
X7074989Y-4608464D01*
X7075004Y-4608428D01*
X7091536Y-4624989D01*
X7113213Y-4633990D01*
X7136684Y-4634010D01*
X7158377Y-4625047D01*
X7174989Y-4608464D01*
X7183990Y-4586787D01*
X7184010Y-4563316D01*
X7175047Y-4541623D01*
X7158464Y-4525011D01*
X7136787Y-4516010D01*
X7113316Y-4515990D01*
X7091623Y-4524953D01*
X7075011Y-4541536D01*
X7074996Y-4541572D01*
X7060384Y-4526934D01*
X7061098Y-4526793D01*
X7070506Y-4520506D01*
X7108839Y-4482173D01*
X7113213Y-4483990D01*
X7136684Y-4484010D01*
X7141152Y-4482164D01*
X7179494Y-4520506D01*
X7188902Y-4526793D01*
X7188902Y-4526793D01*
X7200000Y-4529000D01*
X7600000Y-4529000D01*
X7611098Y-4526793D01*
X7620506Y-4520506D01*
X7658839Y-4482173D01*
X7663213Y-4483990D01*
X7686684Y-4484010D01*
X7708377Y-4475047D01*
X7724989Y-4458464D01*
X7725004Y-4458428D01*
X7741536Y-4474989D01*
X7763213Y-4483990D01*
X7786684Y-4484010D01*
X7808377Y-4475047D01*
X7824989Y-4458464D01*
X7833990Y-4436787D01*
X7834010Y-4413316D01*
X7831194Y-4406499D01*
X7831194Y-4108450D01*
X7809746Y-4051440D01*
X7804046Y-4042910D01*
X7782069Y-4030369D01*
X7780655Y-4031783D01*
X7780655Y-4028954D01*
X7768114Y-4006978D01*
X7712635Y-3981831D01*
X7651757Y-3979830D01*
X7594747Y-4001278D01*
X7586217Y-4006978D01*
X7573676Y-4028954D01*
X7677165Y-4132444D01*
X7780655Y-4028954D01*
X7780655Y-4031783D01*
X7678580Y-4133858D01*
X7782069Y-4237348D01*
X7804046Y-4224806D01*
X7829192Y-4169328D01*
X7831194Y-4108450D01*
X7831194Y-4406499D01*
X7825047Y-4391623D01*
X7808464Y-4375011D01*
X7786787Y-4366010D01*
X7780655Y-4366005D01*
X7780655Y-4238762D01*
X7677165Y-4135272D01*
X7675751Y-4136687D01*
X7675751Y-4133858D01*
X7572261Y-4030369D01*
X7550285Y-4042910D01*
X7525139Y-4098388D01*
X7523137Y-4159266D01*
X7544585Y-4216276D01*
X7550285Y-4224806D01*
X7572261Y-4237348D01*
X7675751Y-4133858D01*
X7675751Y-4136687D01*
X7573676Y-4238762D01*
X7586217Y-4260739D01*
X7641695Y-4285885D01*
X7702574Y-4287887D01*
X7759584Y-4266439D01*
X7768114Y-4260739D01*
X7780655Y-4238762D01*
X7780655Y-4366005D01*
X7763316Y-4365990D01*
X7741623Y-4374953D01*
X7725011Y-4391536D01*
X7724996Y-4391572D01*
X7708464Y-4375011D01*
X7686787Y-4366010D01*
X7663316Y-4365990D01*
X7641623Y-4374953D01*
X7625011Y-4391536D01*
X7624996Y-4391572D01*
X7608464Y-4375011D01*
X7586787Y-4366010D01*
X7563316Y-4365990D01*
X7541623Y-4374953D01*
X7525011Y-4391536D01*
X7524996Y-4391572D01*
X7508464Y-4375011D01*
X7487776Y-4366421D01*
X7487776Y-4289045D01*
X7478805Y-4265855D01*
X7477136Y-4263357D01*
X7464573Y-4261841D01*
X7463159Y-4263255D01*
X7463159Y-4260427D01*
X7461643Y-4247864D01*
X7438902Y-4237810D01*
X7414045Y-4237224D01*
X7390855Y-4246195D01*
X7388357Y-4247864D01*
X7386841Y-4260427D01*
X7425000Y-4298586D01*
X7463159Y-4260427D01*
X7463159Y-4263255D01*
X7426414Y-4300000D01*
X7464573Y-4338159D01*
X7477136Y-4336643D01*
X7487190Y-4313902D01*
X7487776Y-4289045D01*
X7487776Y-4366421D01*
X7486787Y-4366010D01*
X7463316Y-4365990D01*
X7463159Y-4366054D01*
X7463159Y-4339573D01*
X7425000Y-4301414D01*
X7386841Y-4339573D01*
X7388357Y-4352136D01*
X7411098Y-4362190D01*
X7435955Y-4362776D01*
X7459145Y-4353805D01*
X7461643Y-4352136D01*
X7463159Y-4339573D01*
X7463159Y-4366054D01*
X7441623Y-4374953D01*
X7425011Y-4391536D01*
X7424996Y-4391572D01*
X7408464Y-4375011D01*
X7386787Y-4366010D01*
X7363316Y-4365990D01*
X7341623Y-4374953D01*
X7340642Y-4375932D01*
X7338672Y-4371174D01*
X7328826Y-4361328D01*
X7315962Y-4356000D01*
X7284750Y-4356000D01*
X7276000Y-4364750D01*
X7276000Y-4424000D01*
X7276787Y-4424000D01*
X7276787Y-4426000D01*
X7276000Y-4426000D01*
X7276000Y-4426787D01*
X7274000Y-4426787D01*
X7274000Y-4426000D01*
X7274000Y-4424000D01*
X7274000Y-4364750D01*
X7265250Y-4356000D01*
X7234038Y-4356000D01*
X7221174Y-4361328D01*
X7211328Y-4371174D01*
X7206000Y-4384038D01*
X7206000Y-4397962D01*
X7206000Y-4415250D01*
X7214750Y-4424000D01*
X7274000Y-4424000D01*
X7274000Y-4426000D01*
X7214750Y-4426000D01*
X7206000Y-4434750D01*
X7206000Y-4452038D01*
X7206000Y-4464988D01*
X7182173Y-4441161D01*
X7183990Y-4436787D01*
X7184010Y-4413316D01*
X7175047Y-4391623D01*
X7158464Y-4375011D01*
X7136787Y-4366010D01*
X7113316Y-4365990D01*
X7091623Y-4374953D01*
X7075011Y-4391536D01*
X7074996Y-4391572D01*
X7060384Y-4376934D01*
X7061098Y-4376793D01*
X7070506Y-4370506D01*
X7095506Y-4345506D01*
X7095980Y-4344796D01*
X7114511Y-4352491D01*
X7135397Y-4352509D01*
X7154700Y-4344533D01*
X7169481Y-4329778D01*
X7175004Y-4316478D01*
X7180467Y-4329700D01*
X7195222Y-4344481D01*
X7214511Y-4352491D01*
X7235397Y-4352509D01*
X7254700Y-4344533D01*
X7269481Y-4329778D01*
X7275004Y-4316478D01*
X7280467Y-4329700D01*
X7295222Y-4344481D01*
X7314511Y-4352491D01*
X7335397Y-4352509D01*
X7354700Y-4344533D01*
X7369481Y-4329778D01*
X7369494Y-4329747D01*
X7371195Y-4334145D01*
X7372864Y-4336643D01*
X7385427Y-4338159D01*
X7423586Y-4300000D01*
X7385427Y-4261841D01*
X7372864Y-4263357D01*
X7369660Y-4270606D01*
X7369533Y-4270300D01*
X7354778Y-4255519D01*
X7335489Y-4247509D01*
X7314603Y-4247491D01*
X7295300Y-4255467D01*
X7280519Y-4270222D01*
X7274996Y-4283521D01*
X7269533Y-4270300D01*
X7254778Y-4255519D01*
X7235489Y-4247509D01*
X7218518Y-4247494D01*
X7413812Y-4052200D01*
X7414511Y-4052491D01*
X7435397Y-4052509D01*
X7454700Y-4044533D01*
X7469481Y-4029778D01*
X7477491Y-4010489D01*
X7477509Y-3989603D01*
X7469533Y-3970300D01*
X7462238Y-3962992D01*
X7848031Y-3962992D01*
X7848031Y-5332031D01*
X7836499Y-5320479D01*
X7812856Y-5310661D01*
X7787256Y-5310639D01*
X7765294Y-5319714D01*
X7765294Y-4788646D01*
X7755978Y-4764524D01*
X7755010Y-4763073D01*
X7755010Y-4689108D01*
X7746654Y-4668886D01*
X7731196Y-4653400D01*
X7710988Y-4645010D01*
X7689108Y-4644990D01*
X7668886Y-4653346D01*
X7655000Y-4667208D01*
X7655000Y-4665027D01*
X7651194Y-4655839D01*
X7644161Y-4648806D01*
X7634973Y-4645000D01*
X7625027Y-4645000D01*
X7565027Y-4645000D01*
X7555839Y-4648806D01*
X7548806Y-4655839D01*
X7545000Y-4665027D01*
X7545000Y-4674973D01*
X7545000Y-4734973D01*
X7548806Y-4744161D01*
X7555839Y-4751194D01*
X7560801Y-4753250D01*
X7560038Y-4758624D01*
X7600000Y-4798586D01*
X7639962Y-4758624D01*
X7639199Y-4753250D01*
X7644161Y-4751194D01*
X7651194Y-4744161D01*
X7655000Y-4734973D01*
X7655000Y-4732771D01*
X7665756Y-4743546D01*
X7664524Y-4744022D01*
X7661859Y-4745802D01*
X7660038Y-4758624D01*
X7700000Y-4798586D01*
X7739962Y-4758624D01*
X7738141Y-4745802D01*
X7733865Y-4743908D01*
X7746600Y-4731196D01*
X7754990Y-4710988D01*
X7755010Y-4689108D01*
X7755010Y-4763073D01*
X7754198Y-4761859D01*
X7741376Y-4760038D01*
X7701414Y-4800000D01*
X7741376Y-4839962D01*
X7754198Y-4838141D01*
X7764668Y-4814497D01*
X7765294Y-4788646D01*
X7765294Y-5319714D01*
X7763596Y-5320415D01*
X7745479Y-5338501D01*
X7735661Y-5362144D01*
X7735639Y-5387744D01*
X7745415Y-5411404D01*
X7763501Y-5429521D01*
X7787144Y-5439339D01*
X7812744Y-5439361D01*
X7836404Y-5429585D01*
X7848031Y-5417978D01*
X7848031Y-5879528D01*
X7848031Y-5879528D01*
G37*
X7848031Y-5879528D02*
X7831194Y-5879528D01*
X7831194Y-5683253D01*
X7809746Y-5626243D01*
X7809000Y-5625127D01*
X7809000Y-5538973D01*
X7809000Y-5529027D01*
X7809000Y-5461027D01*
X7805194Y-5451839D01*
X7798161Y-5444806D01*
X7788973Y-5441000D01*
X7779027Y-5441000D01*
X7711027Y-5441000D01*
X7701839Y-5444806D01*
X7694806Y-5451839D01*
X7692015Y-5458577D01*
X7683464Y-5450011D01*
X7661787Y-5441010D01*
X7638316Y-5440990D01*
X7616623Y-5449953D01*
X7600011Y-5466536D01*
X7599996Y-5466572D01*
X7583464Y-5450011D01*
X7561787Y-5441010D01*
X7538316Y-5440990D01*
X7516623Y-5449953D01*
X7500011Y-5466536D01*
X7491010Y-5488213D01*
X7490990Y-5511684D01*
X7499953Y-5533377D01*
X7516536Y-5549989D01*
X7538213Y-5558990D01*
X7561684Y-5559010D01*
X7583377Y-5550047D01*
X7599989Y-5533464D01*
X7600004Y-5533428D01*
X7616536Y-5549989D01*
X7638213Y-5558990D01*
X7640173Y-5558991D01*
X7594747Y-5576081D01*
X7586217Y-5581781D01*
X7573676Y-5603758D01*
X7677165Y-5707247D01*
X7780655Y-5603758D01*
X7768114Y-5581781D01*
X7717854Y-5559000D01*
X7720973Y-5559000D01*
X7788973Y-5559000D01*
X7798161Y-5555194D01*
X7805194Y-5548161D01*
X7809000Y-5538973D01*
X7809000Y-5625127D01*
X7804046Y-5617713D01*
X7782069Y-5605172D01*
X7678580Y-5708661D01*
X7782069Y-5812151D01*
X7804046Y-5799610D01*
X7829192Y-5744131D01*
X7831194Y-5683253D01*
X7831194Y-5879528D01*
X7780655Y-5879528D01*
X7780655Y-5813565D01*
X7677165Y-5710076D01*
X7675751Y-5711490D01*
X7675751Y-5708661D01*
X7572261Y-5605172D01*
X7550285Y-5617713D01*
X7525139Y-5673191D01*
X7523137Y-5734070D01*
X7544585Y-5791080D01*
X7550285Y-5799610D01*
X7572261Y-5812151D01*
X7675751Y-5708661D01*
X7675751Y-5711490D01*
X7573676Y-5813565D01*
X7586217Y-5835542D01*
X7641695Y-5860688D01*
X7702574Y-5862690D01*
X7759584Y-5841242D01*
X7768114Y-5835542D01*
X7780655Y-5813565D01*
X7780655Y-5879528D01*
X7472190Y-5879528D01*
X7474350Y-5874312D01*
X7474350Y-5837750D01*
X7474350Y-5818250D01*
X7474350Y-5781688D01*
X7469022Y-5768824D01*
X7459176Y-5758978D01*
X7446312Y-5753650D01*
X7432388Y-5753650D01*
X7409750Y-5753650D01*
X7401000Y-5762400D01*
X7401000Y-5827000D01*
X7465600Y-5827000D01*
X7474350Y-5818250D01*
X7474350Y-5837750D01*
X7465600Y-5829000D01*
X7401000Y-5829000D01*
X7401000Y-5829787D01*
X7399000Y-5829787D01*
X7399000Y-5829000D01*
X7399000Y-5827000D01*
X7399000Y-5762400D01*
X7390250Y-5753650D01*
X7367612Y-5753650D01*
X7353688Y-5753650D01*
X7340824Y-5758978D01*
X7330978Y-5768824D01*
X7325650Y-5781688D01*
X7325650Y-5818250D01*
X7334400Y-5827000D01*
X7399000Y-5827000D01*
X7399000Y-5829000D01*
X7334400Y-5829000D01*
X7325650Y-5837750D01*
X7325650Y-5874312D01*
X7327810Y-5879528D01*
X5188159Y-5879528D01*
X5188159Y-5764573D01*
X5150000Y-5726414D01*
X5111841Y-5764573D01*
X5113357Y-5777136D01*
X5136098Y-5787190D01*
X5160955Y-5787776D01*
X5184145Y-5778805D01*
X5186643Y-5777136D01*
X5188159Y-5764573D01*
X5188159Y-5879528D01*
X4924731Y-5879528D01*
X4924731Y-5662151D01*
X4914125Y-5634531D01*
X4911928Y-5631243D01*
X4898133Y-5628282D01*
X4896718Y-5629696D01*
X4896718Y-5626867D01*
X4893757Y-5613072D01*
X4866728Y-5601041D01*
X4837151Y-5600269D01*
X4809531Y-5610875D01*
X4806243Y-5613072D01*
X4803282Y-5626867D01*
X4850000Y-5673586D01*
X4896718Y-5626867D01*
X4896718Y-5629696D01*
X4851414Y-5675000D01*
X4898133Y-5721718D01*
X4911928Y-5718757D01*
X4923959Y-5691728D01*
X4924731Y-5662151D01*
X4924731Y-5879528D01*
X4896718Y-5879528D01*
X4896718Y-5723133D01*
X4850000Y-5676414D01*
X4848586Y-5677828D01*
X4848586Y-5675000D01*
X4801867Y-5628282D01*
X4790000Y-5630829D01*
X4790000Y-5205027D01*
X4786194Y-5195839D01*
X4779161Y-5188806D01*
X4769973Y-5185000D01*
X4760027Y-5185000D01*
X4674000Y-5185000D01*
X4674000Y-5145142D01*
X4674000Y-5051000D01*
X4673213Y-5051000D01*
X4673213Y-5049000D01*
X4674000Y-5049000D01*
X4674000Y-4954858D01*
X4663306Y-4947106D01*
X4649729Y-4950928D01*
X4627306Y-4965441D01*
X4620000Y-4976037D01*
X4620000Y-4975000D01*
X4616575Y-4957779D01*
X4606820Y-4943180D01*
X4557858Y-4894219D01*
X4561992Y-4894322D01*
X4587608Y-4884456D01*
X4590539Y-4882498D01*
X4592846Y-4869260D01*
X4550000Y-4826414D01*
X4549443Y-4826971D01*
X4548029Y-4825557D01*
X4548586Y-4825000D01*
X4548029Y-4824443D01*
X4549443Y-4823029D01*
X4550000Y-4823586D01*
X4592846Y-4780740D01*
X4590539Y-4767502D01*
X4585156Y-4765113D01*
X4585156Y-4675000D01*
X4580665Y-4652422D01*
X4567875Y-4633281D01*
X4567046Y-4632727D01*
X4573161Y-4630194D01*
X4580194Y-4623161D01*
X4584000Y-4613973D01*
X4584000Y-4604027D01*
X4584000Y-4536027D01*
X4580194Y-4526839D01*
X4573161Y-4519806D01*
X4563973Y-4516000D01*
X4554027Y-4516000D01*
X4486027Y-4516000D01*
X4476839Y-4519806D01*
X4469806Y-4526839D01*
X4467297Y-4532895D01*
X4448734Y-4520491D01*
X4426156Y-4516000D01*
X4423844Y-4516000D01*
X4415294Y-4517701D01*
X4415294Y-4323646D01*
X4405978Y-4299524D01*
X4404198Y-4296859D01*
X4391376Y-4295038D01*
X4389962Y-4296452D01*
X4389962Y-4293624D01*
X4388141Y-4280802D01*
X4364497Y-4270332D01*
X4338646Y-4269706D01*
X4314524Y-4279022D01*
X4311859Y-4280802D01*
X4310038Y-4293624D01*
X4350000Y-4333586D01*
X4389962Y-4293624D01*
X4389962Y-4296452D01*
X4351414Y-4335000D01*
X4391376Y-4374962D01*
X4404198Y-4373141D01*
X4414668Y-4349497D01*
X4415294Y-4323646D01*
X4415294Y-4517701D01*
X4405010Y-4519746D01*
X4405010Y-4424108D01*
X4396654Y-4403886D01*
X4384244Y-4391454D01*
X4385476Y-4390978D01*
X4388141Y-4389198D01*
X4389962Y-4376376D01*
X4350000Y-4336414D01*
X4348586Y-4337828D01*
X4348586Y-4335000D01*
X4308624Y-4295038D01*
X4295802Y-4296859D01*
X4285332Y-4320503D01*
X4284706Y-4346354D01*
X4294022Y-4370476D01*
X4295802Y-4373141D01*
X4308624Y-4374962D01*
X4348586Y-4335000D01*
X4348586Y-4337828D01*
X4310038Y-4376376D01*
X4311859Y-4389198D01*
X4316135Y-4391092D01*
X4303400Y-4403804D01*
X4295010Y-4424012D01*
X4294990Y-4445892D01*
X4303346Y-4466114D01*
X4318804Y-4481600D01*
X4339012Y-4489990D01*
X4360892Y-4490010D01*
X4381114Y-4481654D01*
X4396600Y-4466196D01*
X4404990Y-4445988D01*
X4405010Y-4424108D01*
X4405010Y-4519746D01*
X4401266Y-4520491D01*
X4382125Y-4533281D01*
X4369335Y-4552422D01*
X4364844Y-4575000D01*
X4369335Y-4597578D01*
X4382125Y-4616719D01*
X4394518Y-4625000D01*
X4382125Y-4633281D01*
X4369335Y-4652422D01*
X4364844Y-4675000D01*
X4369335Y-4697578D01*
X4382125Y-4716719D01*
X4401266Y-4729509D01*
X4423844Y-4734000D01*
X4426156Y-4734000D01*
X4448734Y-4729509D01*
X4467875Y-4716719D01*
X4475000Y-4706056D01*
X4482125Y-4716719D01*
X4501266Y-4729509D01*
X4523844Y-4734000D01*
X4526156Y-4734000D01*
X4548734Y-4729509D01*
X4567875Y-4716719D01*
X4580665Y-4697578D01*
X4585156Y-4675000D01*
X4585156Y-4765113D01*
X4565449Y-4756366D01*
X4538008Y-4755678D01*
X4512392Y-4765544D01*
X4509461Y-4767502D01*
X4507154Y-4780739D01*
X4506566Y-4780152D01*
X4505194Y-4776839D01*
X4498161Y-4769806D01*
X4488973Y-4766000D01*
X4479027Y-4766000D01*
X4411027Y-4766000D01*
X4401839Y-4769806D01*
X4394806Y-4776839D01*
X4391000Y-4786027D01*
X4391000Y-4795973D01*
X4391000Y-4863973D01*
X4394806Y-4873161D01*
X4401645Y-4880000D01*
X4287887Y-4880000D01*
X4287887Y-4502151D01*
X4266439Y-4445141D01*
X4260739Y-4436611D01*
X4238762Y-4424069D01*
X4237348Y-4425484D01*
X4237348Y-4422655D01*
X4224806Y-4400678D01*
X4169328Y-4375532D01*
X4108450Y-4373531D01*
X4051440Y-4394979D01*
X4042910Y-4400678D01*
X4030369Y-4422655D01*
X4133858Y-4526145D01*
X4237348Y-4422655D01*
X4237348Y-4425484D01*
X4135272Y-4527559D01*
X4238762Y-4631049D01*
X4260739Y-4618507D01*
X4285885Y-4563029D01*
X4287887Y-4502151D01*
X4287887Y-4880000D01*
X4275365Y-4880000D01*
X4275365Y-4788626D01*
X4264673Y-4760770D01*
X4262447Y-4757440D01*
X4248587Y-4754402D01*
X4247172Y-4755817D01*
X4247172Y-4752988D01*
X4244135Y-4739127D01*
X4237348Y-4736106D01*
X4237348Y-4632463D01*
X4133858Y-4528973D01*
X4132444Y-4530387D01*
X4132444Y-4527559D01*
X4028954Y-4424069D01*
X4006978Y-4436611D01*
X3981831Y-4492089D01*
X3979830Y-4552967D01*
X4001278Y-4609977D01*
X4006978Y-4618507D01*
X4028954Y-4631049D01*
X4132444Y-4527559D01*
X4132444Y-4530387D01*
X4030369Y-4632463D01*
X4042910Y-4654440D01*
X4098388Y-4679586D01*
X4159266Y-4681587D01*
X4216276Y-4660139D01*
X4224806Y-4654440D01*
X4237348Y-4632463D01*
X4237348Y-4736106D01*
X4216878Y-4726991D01*
X4187051Y-4726210D01*
X4159196Y-4736902D01*
X4155865Y-4739127D01*
X4152828Y-4752988D01*
X4200000Y-4800161D01*
X4247172Y-4752988D01*
X4247172Y-4755817D01*
X4201414Y-4801575D01*
X4248587Y-4848747D01*
X4262447Y-4845709D01*
X4274584Y-4818452D01*
X4275365Y-4788626D01*
X4275365Y-4880000D01*
X4273425Y-4880000D01*
X4256204Y-4883425D01*
X4247172Y-4889460D01*
X4247172Y-4850161D01*
X4200000Y-4802989D01*
X4198586Y-4804403D01*
X4198586Y-4801575D01*
X4151413Y-4754402D01*
X4137553Y-4757440D01*
X4125416Y-4784697D01*
X4124635Y-4814524D01*
X4135327Y-4842379D01*
X4137553Y-4845709D01*
X4151413Y-4848747D01*
X4198586Y-4801575D01*
X4198586Y-4804403D01*
X4152828Y-4850161D01*
X4155865Y-4864022D01*
X4183122Y-4876158D01*
X4212949Y-4876940D01*
X4240804Y-4866248D01*
X4244135Y-4864022D01*
X4247172Y-4850161D01*
X4247172Y-4889460D01*
X4241605Y-4893180D01*
X4201359Y-4933426D01*
X4187127Y-4933414D01*
X4163229Y-4943289D01*
X4144928Y-4961558D01*
X4135011Y-4985439D01*
X4134989Y-5011298D01*
X4144864Y-5035197D01*
X4163132Y-5053497D01*
X4187014Y-5063414D01*
X4212873Y-5063436D01*
X4236771Y-5053562D01*
X4255072Y-5035293D01*
X4264989Y-5011411D01*
X4265001Y-4997064D01*
X4292065Y-4970000D01*
X4435735Y-4970000D01*
X4433670Y-4971380D01*
X4420999Y-4990343D01*
X4416550Y-5012710D01*
X4416550Y-5087290D01*
X4420999Y-5109657D01*
X4433670Y-5128620D01*
X4452632Y-5141290D01*
X4475000Y-5145740D01*
X4497368Y-5141290D01*
X4516330Y-5128620D01*
X4525000Y-5115645D01*
X4533670Y-5128620D01*
X4552632Y-5141290D01*
X4575000Y-5145740D01*
X4597368Y-5141290D01*
X4616330Y-5128620D01*
X4619717Y-5123552D01*
X4627306Y-5134559D01*
X4649729Y-5149072D01*
X4663306Y-5152894D01*
X4674000Y-5145142D01*
X4674000Y-5185000D01*
X4380027Y-5185000D01*
X4370839Y-5188806D01*
X4363806Y-5195839D01*
X4360000Y-5205027D01*
X4360000Y-5214973D01*
X4360000Y-5834973D01*
X4363806Y-5844161D01*
X4370839Y-5851194D01*
X4380027Y-5855000D01*
X4389973Y-5855000D01*
X4769973Y-5855000D01*
X4779161Y-5851194D01*
X4786194Y-5844161D01*
X4790000Y-5834973D01*
X4790000Y-5825027D01*
X4790000Y-5719171D01*
X4801867Y-5721718D01*
X4848586Y-5675000D01*
X4848586Y-5677828D01*
X4803282Y-5723133D01*
X4806243Y-5736928D01*
X4833272Y-5748959D01*
X4862849Y-5749731D01*
X4890469Y-5739125D01*
X4893757Y-5736928D01*
X4896718Y-5723133D01*
X4896718Y-5879528D01*
X4287887Y-5879528D01*
X4287887Y-5683253D01*
X4275365Y-5649970D01*
X4275365Y-5238626D01*
X4264673Y-5210770D01*
X4262447Y-5207440D01*
X4248587Y-5204402D01*
X4247172Y-5205817D01*
X4247172Y-5202988D01*
X4244135Y-5189127D01*
X4216878Y-5176991D01*
X4187051Y-5176210D01*
X4159196Y-5186902D01*
X4155865Y-5189127D01*
X4152828Y-5202988D01*
X4200000Y-5250161D01*
X4247172Y-5202988D01*
X4247172Y-5205817D01*
X4201414Y-5251575D01*
X4248587Y-5298747D01*
X4262447Y-5295709D01*
X4274584Y-5268452D01*
X4275365Y-5238626D01*
X4275365Y-5649970D01*
X4266439Y-5626243D01*
X4265011Y-5624107D01*
X4265011Y-5435553D01*
X4255136Y-5411654D01*
X4247172Y-5403676D01*
X4247172Y-5300161D01*
X4200000Y-5252989D01*
X4198586Y-5254403D01*
X4198586Y-5251575D01*
X4151413Y-5204402D01*
X4137553Y-5207440D01*
X4125416Y-5234697D01*
X4124635Y-5264524D01*
X4135327Y-5292379D01*
X4137553Y-5295709D01*
X4151413Y-5298747D01*
X4198586Y-5251575D01*
X4198586Y-5254403D01*
X4152828Y-5300161D01*
X4155865Y-5314022D01*
X4183122Y-5326158D01*
X4212949Y-5326940D01*
X4240804Y-5316248D01*
X4244135Y-5314022D01*
X4247172Y-5300161D01*
X4247172Y-5403676D01*
X4236868Y-5393353D01*
X4212986Y-5383436D01*
X4187127Y-5383414D01*
X4163229Y-5393289D01*
X4144928Y-5411558D01*
X4135011Y-5435439D01*
X4134989Y-5461298D01*
X4144864Y-5485197D01*
X4163132Y-5503497D01*
X4187014Y-5513414D01*
X4212873Y-5513436D01*
X4236771Y-5503562D01*
X4255072Y-5485293D01*
X4264989Y-5461411D01*
X4265011Y-5435553D01*
X4265011Y-5624107D01*
X4260739Y-5617713D01*
X4238762Y-5605172D01*
X4237348Y-5606586D01*
X4237348Y-5603758D01*
X4224806Y-5581781D01*
X4169328Y-5556635D01*
X4108450Y-5554633D01*
X4051440Y-5576081D01*
X4042910Y-5581781D01*
X4030369Y-5603758D01*
X4133858Y-5707247D01*
X4237348Y-5603758D01*
X4237348Y-5606586D01*
X4135272Y-5708661D01*
X4238762Y-5812151D01*
X4260739Y-5799610D01*
X4285885Y-5744131D01*
X4287887Y-5683253D01*
X4287887Y-5879528D01*
X4237348Y-5879528D01*
X4237348Y-5813565D01*
X4133858Y-5710076D01*
X4132444Y-5711490D01*
X4132444Y-5708661D01*
X4028954Y-5605172D01*
X4006978Y-5617713D01*
X3981831Y-5673191D01*
X3979830Y-5734070D01*
X4001278Y-5791080D01*
X4006978Y-5799610D01*
X4028954Y-5812151D01*
X4132444Y-5708661D01*
X4132444Y-5711490D01*
X4030369Y-5813565D01*
X4042910Y-5835542D01*
X4098388Y-5860688D01*
X4159266Y-5862690D01*
X4216276Y-5841242D01*
X4224806Y-5835542D01*
X4237348Y-5813565D01*
X4237348Y-5879528D01*
X3962992Y-5879528D01*
X3962992Y-4124425D01*
X3974038Y-4129000D01*
X4015250Y-4129000D01*
X4024000Y-4120250D01*
X4024000Y-4051000D01*
X4023213Y-4051000D01*
X4023213Y-4049000D01*
X4024000Y-4049000D01*
X4024000Y-3979750D01*
X4015250Y-3971000D01*
X3974038Y-3971000D01*
X3962992Y-3975575D01*
X3962992Y-3962992D01*
X4067382Y-3962992D01*
X4063830Y-3971000D01*
X4034750Y-3971000D01*
X4026000Y-3979750D01*
X4026000Y-4049000D01*
X4026787Y-4049000D01*
X4026787Y-4051000D01*
X4026000Y-4051000D01*
X4026000Y-4120250D01*
X4034750Y-4129000D01*
X4056000Y-4129000D01*
X4056000Y-4140962D01*
X4061328Y-4153826D01*
X4071174Y-4163672D01*
X4080534Y-4167548D01*
X4073596Y-4170415D01*
X4055479Y-4188501D01*
X4045661Y-4212144D01*
X4045639Y-4237744D01*
X4055415Y-4261404D01*
X4073501Y-4279521D01*
X4097144Y-4289339D01*
X4122744Y-4289361D01*
X4146404Y-4279585D01*
X4164521Y-4261499D01*
X4167635Y-4254000D01*
X4175000Y-4254000D01*
X4186098Y-4251793D01*
X4195506Y-4245506D01*
X4262012Y-4179000D01*
X4464996Y-4179000D01*
X4455479Y-4188501D01*
X4445661Y-4212144D01*
X4445639Y-4237744D01*
X4455415Y-4261404D01*
X4473501Y-4279521D01*
X4477719Y-4281273D01*
X4470479Y-4288501D01*
X4460661Y-4312144D01*
X4460639Y-4337744D01*
X4470415Y-4361404D01*
X4488501Y-4379521D01*
X4507734Y-4387507D01*
X4488596Y-4395415D01*
X4470479Y-4413501D01*
X4460661Y-4437144D01*
X4460639Y-4462744D01*
X4470415Y-4486404D01*
X4488501Y-4504521D01*
X4512144Y-4514339D01*
X4537744Y-4514361D01*
X4561404Y-4504585D01*
X4579521Y-4486499D01*
X4589339Y-4462856D01*
X4589361Y-4437256D01*
X4579585Y-4413596D01*
X4561499Y-4395479D01*
X4542266Y-4387492D01*
X4561404Y-4379585D01*
X4579521Y-4361499D01*
X4589339Y-4337856D01*
X4589361Y-4312256D01*
X4585950Y-4304000D01*
X4650000Y-4304000D01*
X4661098Y-4301793D01*
X4670506Y-4295506D01*
X4787012Y-4179000D01*
X4950000Y-4179000D01*
X4961098Y-4176793D01*
X4970506Y-4170506D01*
X4992416Y-4148596D01*
X4994549Y-4150021D01*
X4993596Y-4150415D01*
X4975479Y-4168501D01*
X4965661Y-4192144D01*
X4965639Y-4217744D01*
X4975415Y-4241404D01*
X4993501Y-4259521D01*
X5017144Y-4269339D01*
X5042744Y-4269361D01*
X5066404Y-4259585D01*
X5084521Y-4241499D01*
X5094339Y-4217856D01*
X5094361Y-4192256D01*
X5084585Y-4168596D01*
X5066499Y-4150479D01*
X5059263Y-4147474D01*
X5067875Y-4141719D01*
X5075000Y-4131056D01*
X5082125Y-4141719D01*
X5101266Y-4154509D01*
X5123844Y-4159000D01*
X5126156Y-4159000D01*
X5148734Y-4154509D01*
X5167875Y-4141719D01*
X5175000Y-4131056D01*
X5182125Y-4141719D01*
X5196000Y-4150990D01*
X5196000Y-4162962D01*
X5196000Y-4190250D01*
X5204750Y-4199000D01*
X5274000Y-4199000D01*
X5274000Y-4198213D01*
X5276000Y-4198213D01*
X5276000Y-4199000D01*
X5345250Y-4199000D01*
X5354000Y-4190250D01*
X5354000Y-4162962D01*
X5354000Y-4150990D01*
X5367875Y-4141719D01*
X5375000Y-4131056D01*
X5382125Y-4141719D01*
X5401266Y-4154509D01*
X5423844Y-4159000D01*
X5426156Y-4159000D01*
X5448734Y-4154509D01*
X5467875Y-4141719D01*
X5475000Y-4131056D01*
X5482125Y-4141719D01*
X5501266Y-4154509D01*
X5523844Y-4159000D01*
X5526156Y-4159000D01*
X5548734Y-4154509D01*
X5567875Y-4141719D01*
X5575000Y-4131056D01*
X5582125Y-4141719D01*
X5601266Y-4154509D01*
X5623844Y-4159000D01*
X5626156Y-4159000D01*
X5640195Y-4156207D01*
X5654494Y-4170506D01*
X5663902Y-4176793D01*
X5675000Y-4179000D01*
X6055233Y-4179000D01*
X6054494Y-4179494D01*
X5987988Y-4246000D01*
X5950000Y-4246000D01*
X5938902Y-4248207D01*
X5929494Y-4254494D01*
X5912757Y-4271231D01*
X5910898Y-4270459D01*
X5889197Y-4270441D01*
X5887255Y-4271243D01*
X5845506Y-4229494D01*
X5836098Y-4223207D01*
X5825000Y-4221000D01*
X5400000Y-4221000D01*
X5388902Y-4223207D01*
X5379494Y-4229494D01*
X5351153Y-4257834D01*
X5354000Y-4250962D01*
X5354000Y-4237038D01*
X5354000Y-4209750D01*
X5345250Y-4201000D01*
X5276000Y-4201000D01*
X5276000Y-4201787D01*
X5274000Y-4201787D01*
X5274000Y-4201000D01*
X5204750Y-4201000D01*
X5196000Y-4209750D01*
X5196000Y-4237038D01*
X5196000Y-4250962D01*
X5199000Y-4258204D01*
X5199000Y-4264750D01*
X5190250Y-4256000D01*
X5159038Y-4256000D01*
X5146174Y-4261328D01*
X5136328Y-4271174D01*
X5131000Y-4284038D01*
X5131000Y-4297962D01*
X5131000Y-4315250D01*
X5139750Y-4324000D01*
X5199000Y-4324000D01*
X5199000Y-4323213D01*
X5201000Y-4323213D01*
X5201000Y-4324000D01*
X5201787Y-4324000D01*
X5201787Y-4326000D01*
X5201000Y-4326000D01*
X5201000Y-4326787D01*
X5199000Y-4326787D01*
X5199000Y-4326000D01*
X5139750Y-4326000D01*
X5131000Y-4334750D01*
X5131000Y-4352038D01*
X5131000Y-4365962D01*
X5135064Y-4375772D01*
X5129494Y-4379494D01*
X5054494Y-4454494D01*
X5048207Y-4463902D01*
X5046000Y-4475000D01*
X5046000Y-4504988D01*
X5045506Y-4504494D01*
X5036098Y-4498207D01*
X5025000Y-4496000D01*
X4970004Y-4496000D01*
X4979521Y-4486499D01*
X4989339Y-4462856D01*
X4989361Y-4437256D01*
X4979585Y-4413596D01*
X4961499Y-4395479D01*
X4942266Y-4387492D01*
X4961404Y-4379585D01*
X4979521Y-4361499D01*
X4989339Y-4337856D01*
X4989361Y-4312256D01*
X4979585Y-4288596D01*
X4961499Y-4270479D01*
X4937856Y-4260661D01*
X4912256Y-4260639D01*
X4888596Y-4270415D01*
X4870479Y-4288501D01*
X4860661Y-4312144D01*
X4860639Y-4337744D01*
X4870415Y-4361404D01*
X4888501Y-4379521D01*
X4907734Y-4387507D01*
X4888596Y-4395415D01*
X4870479Y-4413501D01*
X4860661Y-4437144D01*
X4860639Y-4462744D01*
X4864433Y-4471927D01*
X4806360Y-4530000D01*
X4739069Y-4530000D01*
X4735544Y-4521489D01*
X4728511Y-4514456D01*
X4719323Y-4510650D01*
X4709377Y-4510650D01*
X4630677Y-4510650D01*
X4621489Y-4514456D01*
X4614456Y-4521489D01*
X4610650Y-4530677D01*
X4610650Y-4540623D01*
X4610650Y-4619323D01*
X4614456Y-4628511D01*
X4621489Y-4635544D01*
X4630677Y-4639350D01*
X4640623Y-4639350D01*
X4719323Y-4639350D01*
X4720293Y-4638948D01*
X4710661Y-4662144D01*
X4710639Y-4687744D01*
X4720415Y-4711404D01*
X4738501Y-4729521D01*
X4762144Y-4739339D01*
X4787744Y-4739361D01*
X4811404Y-4729585D01*
X4829521Y-4711499D01*
X4839339Y-4687856D01*
X4839361Y-4662256D01*
X4836260Y-4654752D01*
X4937012Y-4554000D01*
X5012988Y-4554000D01*
X5013733Y-4554745D01*
X5010661Y-4562144D01*
X5010639Y-4587744D01*
X5020415Y-4611404D01*
X5038501Y-4629521D01*
X5062144Y-4639339D01*
X5087744Y-4639361D01*
X5111404Y-4629585D01*
X5115789Y-4625208D01*
X5120415Y-4636404D01*
X5133854Y-4649866D01*
X5120300Y-4655467D01*
X5105519Y-4670222D01*
X5099996Y-4683521D01*
X5094533Y-4670300D01*
X5079778Y-4655519D01*
X5060489Y-4647509D01*
X5039603Y-4647491D01*
X5020300Y-4655467D01*
X5005519Y-4670222D01*
X4999996Y-4683521D01*
X4994533Y-4670300D01*
X4979778Y-4655519D01*
X4960489Y-4647509D01*
X4939603Y-4647491D01*
X4920300Y-4655467D01*
X4905519Y-4670222D01*
X4897509Y-4689511D01*
X4897491Y-4710397D01*
X4905467Y-4729700D01*
X4920222Y-4744481D01*
X4939511Y-4752491D01*
X4960397Y-4752509D01*
X4979700Y-4744533D01*
X4994481Y-4729778D01*
X5000004Y-4716478D01*
X5005467Y-4729700D01*
X5020222Y-4744481D01*
X5039511Y-4752491D01*
X5060397Y-4752509D01*
X5079700Y-4744533D01*
X5094481Y-4729778D01*
X5100004Y-4716478D01*
X5105467Y-4729700D01*
X5120222Y-4744481D01*
X5139511Y-4752491D01*
X5160397Y-4752509D01*
X5179700Y-4744533D01*
X5194481Y-4729778D01*
X5200004Y-4716478D01*
X5205467Y-4729700D01*
X5220222Y-4744481D01*
X5239511Y-4752491D01*
X5260397Y-4752509D01*
X5279700Y-4744533D01*
X5294481Y-4729778D01*
X5300004Y-4716478D01*
X5305467Y-4729700D01*
X5320222Y-4744481D01*
X5339511Y-4752491D01*
X5360397Y-4752509D01*
X5379700Y-4744533D01*
X5394481Y-4729778D01*
X5400004Y-4716478D01*
X5405467Y-4729700D01*
X5420222Y-4744481D01*
X5439511Y-4752491D01*
X5460397Y-4752509D01*
X5479700Y-4744533D01*
X5494481Y-4729778D01*
X5500004Y-4716478D01*
X5505467Y-4729700D01*
X5520222Y-4744481D01*
X5539511Y-4752491D01*
X5560397Y-4752509D01*
X5579700Y-4744533D01*
X5594481Y-4729778D01*
X5600004Y-4716478D01*
X5605467Y-4729700D01*
X5620222Y-4744481D01*
X5639511Y-4752491D01*
X5660397Y-4752509D01*
X5679700Y-4744533D01*
X5694481Y-4729778D01*
X5700004Y-4716478D01*
X5705467Y-4729700D01*
X5720222Y-4744481D01*
X5739511Y-4752491D01*
X5760397Y-4752509D01*
X5779700Y-4744533D01*
X5794481Y-4729778D01*
X5794494Y-4729747D01*
X5796195Y-4734145D01*
X5797864Y-4736643D01*
X5810427Y-4738159D01*
X5848586Y-4700000D01*
X5848029Y-4699443D01*
X5849443Y-4698029D01*
X5850000Y-4698586D01*
X5850557Y-4698029D01*
X5851971Y-4699443D01*
X5851414Y-4700000D01*
X5889573Y-4738159D01*
X5902136Y-4736643D01*
X5905000Y-4730164D01*
X5905000Y-4756360D01*
X5888159Y-4773201D01*
X5888159Y-4739573D01*
X5850000Y-4701414D01*
X5811841Y-4739573D01*
X5813357Y-4752136D01*
X5836098Y-4762190D01*
X5860955Y-4762776D01*
X5884145Y-4753805D01*
X5886643Y-4752136D01*
X5888159Y-4739573D01*
X5888159Y-4773201D01*
X5881360Y-4780000D01*
X4688444Y-4780000D01*
X4683464Y-4775011D01*
X4661787Y-4766010D01*
X4638316Y-4765990D01*
X4616623Y-4774953D01*
X4607157Y-4784402D01*
X4594260Y-4782154D01*
X4592846Y-4783568D01*
X4551414Y-4825000D01*
X4594260Y-4867846D01*
X4607161Y-4865597D01*
X4616536Y-4874989D01*
X4638213Y-4883990D01*
X4661684Y-4884010D01*
X4683377Y-4875047D01*
X4688433Y-4870000D01*
X5900000Y-4870000D01*
X5917221Y-4866575D01*
X5931820Y-4856820D01*
X5968640Y-4820000D01*
X6106360Y-4820000D01*
X6143180Y-4856820D01*
X6157779Y-4866575D01*
X6175000Y-4870000D01*
X6906360Y-4870000D01*
X6998007Y-4961647D01*
X7005467Y-4979700D01*
X7020222Y-4994481D01*
X7033521Y-5000004D01*
X7020300Y-5005467D01*
X7005519Y-5020222D01*
X6997509Y-5039511D01*
X6997491Y-5060397D01*
X7005467Y-5079700D01*
X7020222Y-5094481D01*
X7039511Y-5102491D01*
X7060397Y-5102509D01*
X7079700Y-5094533D01*
X7094481Y-5079778D01*
X7100836Y-5064475D01*
X7118180Y-5081820D01*
X7132779Y-5091575D01*
X7150000Y-5095000D01*
X7321471Y-5095000D01*
X7339511Y-5102491D01*
X7360397Y-5102509D01*
X7379700Y-5094533D01*
X7394481Y-5079778D01*
X7402491Y-5060489D01*
X7402506Y-5043518D01*
X7421000Y-5062012D01*
X7421000Y-5137988D01*
X7312988Y-5246000D01*
X7281132Y-5246000D01*
X7296218Y-5230940D01*
X7304541Y-5210898D01*
X7304559Y-5189197D01*
X7296272Y-5169140D01*
X7280940Y-5153782D01*
X7260898Y-5145459D01*
X7239197Y-5145441D01*
X7219140Y-5153728D01*
X7206282Y-5166563D01*
X7205587Y-5164763D01*
X7203827Y-5162129D01*
X7191052Y-5160363D01*
X7189637Y-5161777D01*
X7189637Y-5158948D01*
X7187871Y-5146173D01*
X7164390Y-5135778D01*
X7138718Y-5135160D01*
X7114763Y-5144413D01*
X7112129Y-5146173D01*
X7110363Y-5158948D01*
X7150000Y-5198586D01*
X7189637Y-5158948D01*
X7189637Y-5161777D01*
X7151414Y-5200000D01*
X7151971Y-5200557D01*
X7150557Y-5201971D01*
X7150000Y-5201414D01*
X7149443Y-5201971D01*
X7148029Y-5200557D01*
X7148586Y-5200000D01*
X7108948Y-5160363D01*
X7096173Y-5162129D01*
X7085778Y-5185610D01*
X7085160Y-5211282D01*
X7088913Y-5221000D01*
X6950000Y-5221000D01*
X6938902Y-5223207D01*
X6929494Y-5229494D01*
X6891613Y-5267375D01*
X6879778Y-5255519D01*
X6867507Y-5250424D01*
X6867507Y-5091583D01*
X6861051Y-5075957D01*
X6849106Y-5063991D01*
X6833491Y-5057507D01*
X6816583Y-5057493D01*
X6800957Y-5063949D01*
X6793894Y-5071000D01*
X6400000Y-5071000D01*
X6388902Y-5073207D01*
X6379494Y-5079494D01*
X6351486Y-5107501D01*
X6341583Y-5107493D01*
X6325957Y-5113949D01*
X6313991Y-5125894D01*
X6307507Y-5141509D01*
X6307493Y-5158417D01*
X6313949Y-5174043D01*
X6325894Y-5186009D01*
X6341509Y-5192493D01*
X6358417Y-5192507D01*
X6374043Y-5186051D01*
X6386009Y-5174106D01*
X6392493Y-5158491D01*
X6392501Y-5148511D01*
X6412012Y-5129000D01*
X6462702Y-5129000D01*
X6457507Y-5141509D01*
X6457493Y-5158417D01*
X6463949Y-5174043D01*
X6475894Y-5186009D01*
X6491509Y-5192493D01*
X6508417Y-5192507D01*
X6524043Y-5186051D01*
X6531106Y-5179000D01*
X6568898Y-5179000D01*
X6575894Y-5186009D01*
X6591509Y-5192493D01*
X6608417Y-5192507D01*
X6624043Y-5186051D01*
X6636009Y-5174106D01*
X6642493Y-5158491D01*
X6642507Y-5141583D01*
X6637308Y-5129000D01*
X6793898Y-5129000D01*
X6800894Y-5136009D01*
X6816509Y-5142493D01*
X6833417Y-5142507D01*
X6849043Y-5136051D01*
X6861009Y-5124106D01*
X6867493Y-5108491D01*
X6867507Y-5091583D01*
X6867507Y-5250424D01*
X6860489Y-5247509D01*
X6842502Y-5247493D01*
X6842507Y-5241583D01*
X6836051Y-5225957D01*
X6835104Y-5225009D01*
X6836009Y-5224106D01*
X6842493Y-5208491D01*
X6842507Y-5191583D01*
X6836051Y-5175957D01*
X6824106Y-5163991D01*
X6808491Y-5157507D01*
X6791583Y-5157493D01*
X6775957Y-5163949D01*
X6768894Y-5171000D01*
X6725000Y-5171000D01*
X6713902Y-5173207D01*
X6704494Y-5179494D01*
X6662988Y-5221000D01*
X6600000Y-5221000D01*
X6588902Y-5223207D01*
X6579494Y-5229494D01*
X6561188Y-5247800D01*
X6560489Y-5247509D01*
X6539603Y-5247491D01*
X6520300Y-5255467D01*
X6505519Y-5270222D01*
X6499996Y-5283521D01*
X6494533Y-5270300D01*
X6479778Y-5255519D01*
X6460489Y-5247509D01*
X6439603Y-5247491D01*
X6420300Y-5255467D01*
X6405519Y-5270222D01*
X6399996Y-5283521D01*
X6394533Y-5270300D01*
X6379778Y-5255519D01*
X6360489Y-5247509D01*
X6339603Y-5247491D01*
X6338825Y-5247812D01*
X6295506Y-5204494D01*
X6286098Y-5198207D01*
X6275000Y-5196000D01*
X5467504Y-5196000D01*
X5467507Y-5191583D01*
X5461051Y-5175957D01*
X5449106Y-5163991D01*
X5433491Y-5157507D01*
X5416583Y-5157493D01*
X5400957Y-5163949D01*
X5388991Y-5175894D01*
X5382507Y-5191509D01*
X5382493Y-5208417D01*
X5383492Y-5210836D01*
X5375957Y-5213949D01*
X5363991Y-5225894D01*
X5357507Y-5241509D01*
X5357502Y-5247506D01*
X5339603Y-5247491D01*
X5320971Y-5255189D01*
X5320506Y-5254494D01*
X5295506Y-5229494D01*
X5286098Y-5223207D01*
X5275000Y-5221000D01*
X5262012Y-5221000D01*
X5142499Y-5101486D01*
X5142507Y-5091583D01*
X5136051Y-5075957D01*
X5124106Y-5063991D01*
X5108491Y-5057507D01*
X5091583Y-5057493D01*
X5075957Y-5063949D01*
X5063991Y-5075894D01*
X5057507Y-5091509D01*
X5057493Y-5108417D01*
X5063949Y-5124043D01*
X5075894Y-5136009D01*
X5091509Y-5142493D01*
X5101489Y-5142501D01*
X5217375Y-5258387D01*
X5205519Y-5270222D01*
X5199996Y-5283521D01*
X5194533Y-5270300D01*
X5179778Y-5255519D01*
X5160489Y-5247509D01*
X5139603Y-5247491D01*
X5120300Y-5255467D01*
X5105519Y-5270222D01*
X5099996Y-5283521D01*
X5094533Y-5270300D01*
X5079778Y-5255519D01*
X5060489Y-5247509D01*
X5039603Y-5247491D01*
X5020300Y-5255467D01*
X5005519Y-5270222D01*
X5002500Y-5277492D01*
X5002500Y-5267527D01*
X4998694Y-5258339D01*
X4991661Y-5251306D01*
X4982473Y-5247500D01*
X4972527Y-5247500D01*
X4917527Y-5247500D01*
X4908339Y-5251306D01*
X4901306Y-5258339D01*
X4897500Y-5267527D01*
X4897500Y-5277473D01*
X4897500Y-5332473D01*
X4901306Y-5341661D01*
X4908339Y-5348694D01*
X4917527Y-5352500D01*
X4927473Y-5352500D01*
X4982473Y-5352500D01*
X4991661Y-5348694D01*
X4998694Y-5341661D01*
X5002500Y-5332473D01*
X5002500Y-5322527D01*
X5002500Y-5322520D01*
X5005467Y-5329700D01*
X5020222Y-5344481D01*
X5039511Y-5352491D01*
X5060397Y-5352509D01*
X5079700Y-5344533D01*
X5094481Y-5329778D01*
X5100004Y-5316478D01*
X5105467Y-5329700D01*
X5120222Y-5344481D01*
X5139511Y-5352491D01*
X5160397Y-5352509D01*
X5179700Y-5344533D01*
X5194481Y-5329778D01*
X5200004Y-5316478D01*
X5205467Y-5329700D01*
X5220222Y-5344481D01*
X5239511Y-5352491D01*
X5260397Y-5352509D01*
X5279029Y-5344810D01*
X5279494Y-5345506D01*
X5304494Y-5370506D01*
X5313902Y-5376793D01*
X5313902Y-5376793D01*
X5325000Y-5379000D01*
X5362988Y-5379000D01*
X5379494Y-5395506D01*
X5397800Y-5413812D01*
X5397509Y-5414511D01*
X5397491Y-5435397D01*
X5398949Y-5438926D01*
X5383491Y-5432507D01*
X5366583Y-5432493D01*
X5350957Y-5438949D01*
X5338991Y-5450894D01*
X5332507Y-5466509D01*
X5332493Y-5483417D01*
X5338949Y-5499043D01*
X5346000Y-5506106D01*
X5346000Y-5650000D01*
X5348207Y-5661098D01*
X5354494Y-5670506D01*
X5397800Y-5713812D01*
X5397509Y-5714511D01*
X5397491Y-5735397D01*
X5405467Y-5754700D01*
X5420222Y-5769481D01*
X5439511Y-5777491D01*
X5460397Y-5777509D01*
X5479700Y-5769533D01*
X5494481Y-5754778D01*
X5502491Y-5735489D01*
X5502509Y-5714603D01*
X5494533Y-5695300D01*
X5479778Y-5680519D01*
X5466478Y-5674996D01*
X5479700Y-5669533D01*
X5494481Y-5654778D01*
X5502491Y-5635489D01*
X5502509Y-5614603D01*
X5494533Y-5595300D01*
X5479778Y-5580519D01*
X5466478Y-5574996D01*
X5479700Y-5569533D01*
X5494481Y-5554778D01*
X5502491Y-5535489D01*
X5502509Y-5514603D01*
X5494533Y-5495300D01*
X5479778Y-5480519D01*
X5466478Y-5474996D01*
X5479700Y-5469533D01*
X5494481Y-5454778D01*
X5502491Y-5435489D01*
X5502509Y-5414603D01*
X5494533Y-5395300D01*
X5479778Y-5380519D01*
X5460489Y-5372509D01*
X5439603Y-5372491D01*
X5438825Y-5372812D01*
X5420506Y-5354494D01*
X5395506Y-5329494D01*
X5394796Y-5329020D01*
X5400004Y-5316478D01*
X5405467Y-5329700D01*
X5420222Y-5344481D01*
X5439511Y-5352491D01*
X5460397Y-5352509D01*
X5479700Y-5344533D01*
X5494481Y-5329778D01*
X5500004Y-5316478D01*
X5505467Y-5329700D01*
X5520222Y-5344481D01*
X5539511Y-5352491D01*
X5560397Y-5352509D01*
X5579700Y-5344533D01*
X5594481Y-5329778D01*
X5600004Y-5316478D01*
X5605467Y-5329700D01*
X5620222Y-5344481D01*
X5639511Y-5352491D01*
X5660397Y-5352509D01*
X5661175Y-5352188D01*
X5704494Y-5395506D01*
X5713902Y-5401793D01*
X5713902Y-5401793D01*
X5725000Y-5404000D01*
X5793868Y-5404000D01*
X5792866Y-5405000D01*
X5713539Y-5405000D01*
X5697578Y-5394335D01*
X5675000Y-5389844D01*
X5652422Y-5394335D01*
X5633281Y-5407125D01*
X5632727Y-5407954D01*
X5630194Y-5401839D01*
X5623161Y-5394806D01*
X5613973Y-5391000D01*
X5604027Y-5391000D01*
X5536027Y-5391000D01*
X5526839Y-5394806D01*
X5519806Y-5401839D01*
X5516000Y-5411027D01*
X5516000Y-5420973D01*
X5516000Y-5488973D01*
X5519806Y-5498161D01*
X5526839Y-5505194D01*
X5532895Y-5507702D01*
X5520491Y-5526266D01*
X5516000Y-5548844D01*
X5516000Y-5551156D01*
X5520491Y-5573734D01*
X5533281Y-5592875D01*
X5543944Y-5600000D01*
X5533281Y-5607125D01*
X5520491Y-5626266D01*
X5516000Y-5648844D01*
X5516000Y-5651156D01*
X5520491Y-5673734D01*
X5533281Y-5692875D01*
X5552422Y-5705665D01*
X5575000Y-5710156D01*
X5597578Y-5705665D01*
X5616719Y-5692875D01*
X5619055Y-5689380D01*
X5635256Y-5706404D01*
X5659866Y-5717320D01*
X5663219Y-5717987D01*
X5674000Y-5710242D01*
X5674000Y-5651000D01*
X5673213Y-5651000D01*
X5673213Y-5649000D01*
X5674000Y-5649000D01*
X5674000Y-5648213D01*
X5676000Y-5648213D01*
X5676000Y-5649000D01*
X5735243Y-5649000D01*
X5742987Y-5638219D01*
X5733304Y-5613099D01*
X5715093Y-5593962D01*
X5716719Y-5592875D01*
X5729509Y-5573734D01*
X5734000Y-5551156D01*
X5734000Y-5548844D01*
X5729509Y-5526266D01*
X5716719Y-5507125D01*
X5706056Y-5500000D01*
X5713539Y-5495000D01*
X5792843Y-5495000D01*
X5794060Y-5496218D01*
X5814102Y-5504541D01*
X5835803Y-5504559D01*
X5855860Y-5496272D01*
X5868718Y-5483437D01*
X5869413Y-5485237D01*
X5871173Y-5487871D01*
X5883948Y-5489637D01*
X5923586Y-5450000D01*
X5923029Y-5449443D01*
X5924443Y-5448029D01*
X5925000Y-5448586D01*
X5925557Y-5448029D01*
X5926971Y-5449443D01*
X5926414Y-5450000D01*
X5966052Y-5489637D01*
X5978827Y-5487871D01*
X5989222Y-5464390D01*
X5989840Y-5438718D01*
X5980587Y-5414763D01*
X5978827Y-5412129D01*
X5966052Y-5410363D01*
X5972176Y-5404238D01*
X5971937Y-5404000D01*
X6412988Y-5404000D01*
X6454494Y-5445506D01*
X6463902Y-5451793D01*
X6475000Y-5454000D01*
X6604289Y-5454000D01*
X6584334Y-5461662D01*
X6581046Y-5463860D01*
X6578085Y-5477655D01*
X6624803Y-5524373D01*
X6671521Y-5477655D01*
X6668560Y-5463860D01*
X6646410Y-5454000D01*
X6793898Y-5454000D01*
X6800894Y-5461009D01*
X6816509Y-5467493D01*
X6833417Y-5467507D01*
X6849043Y-5461051D01*
X6861009Y-5449106D01*
X6867493Y-5433491D01*
X6867507Y-5416583D01*
X6862308Y-5404000D01*
X6875000Y-5404000D01*
X6886098Y-5401793D01*
X6895506Y-5395506D01*
X6921461Y-5369551D01*
X6921439Y-5394757D01*
X6937199Y-5432900D01*
X6966356Y-5462108D01*
X7004471Y-5477935D01*
X7045741Y-5477971D01*
X7083884Y-5462211D01*
X7102558Y-5443570D01*
X7138988Y-5480000D01*
X6775000Y-5480000D01*
X6757779Y-5483425D01*
X6743180Y-5493180D01*
X6698894Y-5537466D01*
X6699534Y-5512939D01*
X6688928Y-5485319D01*
X6686731Y-5482030D01*
X6672936Y-5479069D01*
X6626217Y-5525787D01*
X6672936Y-5572506D01*
X6680833Y-5570810D01*
X6680000Y-5575000D01*
X6680000Y-5588059D01*
X6679198Y-5586859D01*
X6669053Y-5585418D01*
X6671521Y-5573920D01*
X6624803Y-5527202D01*
X6623389Y-5528616D01*
X6623389Y-5525787D01*
X6576671Y-5479069D01*
X6562875Y-5482030D01*
X6550844Y-5509060D01*
X6550073Y-5538636D01*
X6560678Y-5566256D01*
X6562875Y-5569545D01*
X6576671Y-5572506D01*
X6623389Y-5525787D01*
X6623389Y-5528616D01*
X6578085Y-5573920D01*
X6580565Y-5585472D01*
X6570802Y-5586859D01*
X6560332Y-5610503D01*
X6559706Y-5636354D01*
X6569022Y-5660476D01*
X6570802Y-5663141D01*
X6583624Y-5664962D01*
X6623586Y-5625000D01*
X6590516Y-5591931D01*
X6595614Y-5594200D01*
X6625000Y-5623586D01*
X6654560Y-5594026D01*
X6659152Y-5592263D01*
X6626414Y-5625000D01*
X6666376Y-5664962D01*
X6679198Y-5663141D01*
X6681092Y-5658865D01*
X6693804Y-5671600D01*
X6701989Y-5674998D01*
X6693886Y-5678346D01*
X6680000Y-5692208D01*
X6680000Y-5690027D01*
X6676194Y-5680839D01*
X6669161Y-5673806D01*
X6664199Y-5671750D01*
X6664962Y-5666376D01*
X6625000Y-5626414D01*
X6585038Y-5666376D01*
X6585801Y-5671750D01*
X6580839Y-5673806D01*
X6573806Y-5680839D01*
X6570000Y-5690027D01*
X6570000Y-5699973D01*
X6570000Y-5759973D01*
X6573806Y-5769161D01*
X6580839Y-5776194D01*
X6590027Y-5780000D01*
X6599973Y-5780000D01*
X6659973Y-5780000D01*
X6669161Y-5776194D01*
X6676194Y-5769161D01*
X6680000Y-5759973D01*
X6680000Y-5757771D01*
X6693804Y-5771600D01*
X6714012Y-5779990D01*
X6735892Y-5780010D01*
X6756114Y-5771654D01*
X6771600Y-5756196D01*
X6774998Y-5748011D01*
X6778346Y-5756114D01*
X6793804Y-5771600D01*
X6814012Y-5779990D01*
X6835892Y-5780010D01*
X6856114Y-5771654D01*
X6871600Y-5756196D01*
X6874998Y-5748011D01*
X6878346Y-5756114D01*
X6893804Y-5771600D01*
X6914012Y-5779990D01*
X6935892Y-5780010D01*
X6956114Y-5771654D01*
X6971600Y-5756196D01*
X6974998Y-5748011D01*
X6978346Y-5756114D01*
X6993804Y-5771600D01*
X7014012Y-5779990D01*
X7035892Y-5780010D01*
X7056114Y-5771654D01*
X7071600Y-5756196D01*
X7079990Y-5735988D01*
X7080010Y-5714108D01*
X7071654Y-5693886D01*
X7059244Y-5681454D01*
X7060476Y-5680978D01*
X7063141Y-5679198D01*
X7064962Y-5666376D01*
X7025000Y-5626414D01*
X6985038Y-5666376D01*
X6986859Y-5679198D01*
X6991135Y-5681092D01*
X6978400Y-5693804D01*
X6975002Y-5701989D01*
X6971654Y-5693886D01*
X6956196Y-5678400D01*
X6948011Y-5675002D01*
X6956114Y-5671654D01*
X6968546Y-5659244D01*
X6969022Y-5660476D01*
X6970802Y-5663141D01*
X6983624Y-5664962D01*
X7023586Y-5625000D01*
X6983624Y-5585038D01*
X6970802Y-5586859D01*
X6968908Y-5591135D01*
X6956196Y-5578400D01*
X6935988Y-5570010D01*
X6925025Y-5570000D01*
X6988059Y-5570000D01*
X6986859Y-5570802D01*
X6985038Y-5583624D01*
X7025000Y-5623586D01*
X7064962Y-5583624D01*
X7063141Y-5570802D01*
X7061330Y-5570000D01*
X7150000Y-5570000D01*
X7167221Y-5566575D01*
X7171000Y-5564049D01*
X7171000Y-5762988D01*
X7112988Y-5821000D01*
X7090294Y-5821000D01*
X7090294Y-5613646D01*
X7080978Y-5589524D01*
X7079198Y-5586859D01*
X7066376Y-5585038D01*
X7026414Y-5625000D01*
X7066376Y-5664962D01*
X7079198Y-5663141D01*
X7089668Y-5639497D01*
X7090294Y-5613646D01*
X7090294Y-5821000D01*
X6389840Y-5821000D01*
X6389840Y-5588718D01*
X6380587Y-5564763D01*
X6379559Y-5563225D01*
X6379559Y-5489197D01*
X6371272Y-5469140D01*
X6355940Y-5453782D01*
X6335898Y-5445459D01*
X6314197Y-5445441D01*
X6294140Y-5453728D01*
X6278782Y-5469060D01*
X6277976Y-5471000D01*
X6169235Y-5471000D01*
X6155940Y-5457682D01*
X6135898Y-5449359D01*
X6114197Y-5449341D01*
X6094140Y-5457628D01*
X6078782Y-5472960D01*
X6070459Y-5493002D01*
X6070441Y-5514703D01*
X6078728Y-5534760D01*
X6094060Y-5550118D01*
X6114102Y-5558441D01*
X6135803Y-5558459D01*
X6155860Y-5550172D01*
X6171218Y-5534840D01*
X6173643Y-5529000D01*
X6277959Y-5529000D01*
X6278728Y-5530860D01*
X6291563Y-5543718D01*
X6289763Y-5544413D01*
X6287129Y-5546173D01*
X6285363Y-5558948D01*
X6325000Y-5598586D01*
X6364637Y-5558948D01*
X6362871Y-5546173D01*
X6358083Y-5544053D01*
X6371218Y-5530940D01*
X6379541Y-5510898D01*
X6379559Y-5489197D01*
X6379559Y-5563225D01*
X6378827Y-5562129D01*
X6366052Y-5560363D01*
X6326414Y-5600000D01*
X6366052Y-5639637D01*
X6378827Y-5637871D01*
X6389222Y-5614390D01*
X6389840Y-5588718D01*
X6389840Y-5821000D01*
X6364637Y-5821000D01*
X6364637Y-5641052D01*
X6325000Y-5601414D01*
X6323586Y-5602828D01*
X6323586Y-5600000D01*
X6283948Y-5560363D01*
X6271173Y-5562129D01*
X6260778Y-5585610D01*
X6260160Y-5611282D01*
X6269413Y-5635237D01*
X6271173Y-5637871D01*
X6283948Y-5639637D01*
X6323586Y-5600000D01*
X6323586Y-5602828D01*
X6285363Y-5641052D01*
X6287129Y-5653827D01*
X6310610Y-5664222D01*
X6336282Y-5664840D01*
X6360237Y-5655587D01*
X6362871Y-5653827D01*
X6364637Y-5641052D01*
X6364637Y-5821000D01*
X6179559Y-5821000D01*
X6179559Y-5685297D01*
X6171272Y-5665240D01*
X6155940Y-5649882D01*
X6135898Y-5641559D01*
X6114197Y-5641541D01*
X6094140Y-5649828D01*
X6078782Y-5665160D01*
X6076357Y-5671000D01*
X5989840Y-5671000D01*
X5989840Y-5588718D01*
X5980587Y-5564763D01*
X5978827Y-5562129D01*
X5966052Y-5560363D01*
X5964637Y-5561777D01*
X5964637Y-5558948D01*
X5964637Y-5491052D01*
X5925000Y-5451414D01*
X5885363Y-5491052D01*
X5887129Y-5503827D01*
X5910610Y-5514222D01*
X5936282Y-5514840D01*
X5960237Y-5505587D01*
X5962871Y-5503827D01*
X5964637Y-5491052D01*
X5964637Y-5558948D01*
X5962871Y-5546173D01*
X5939390Y-5535778D01*
X5913718Y-5535160D01*
X5889763Y-5544413D01*
X5887129Y-5546173D01*
X5885363Y-5558948D01*
X5925000Y-5598586D01*
X5964637Y-5558948D01*
X5964637Y-5561777D01*
X5926414Y-5600000D01*
X5966052Y-5639637D01*
X5978827Y-5637871D01*
X5989222Y-5614390D01*
X5989840Y-5588718D01*
X5989840Y-5671000D01*
X5972041Y-5671000D01*
X5971272Y-5669140D01*
X5958437Y-5656282D01*
X5960237Y-5655587D01*
X5962871Y-5653827D01*
X5964637Y-5641052D01*
X5925000Y-5601414D01*
X5923586Y-5602828D01*
X5923586Y-5600000D01*
X5883948Y-5560363D01*
X5871173Y-5562129D01*
X5860778Y-5585610D01*
X5860160Y-5611282D01*
X5869413Y-5635237D01*
X5871173Y-5637871D01*
X5883948Y-5639637D01*
X5923586Y-5600000D01*
X5923586Y-5602828D01*
X5885363Y-5641052D01*
X5887129Y-5653827D01*
X5891917Y-5655947D01*
X5878782Y-5669060D01*
X5870459Y-5689102D01*
X5870441Y-5710803D01*
X5878728Y-5730860D01*
X5894060Y-5746218D01*
X5914102Y-5754541D01*
X5935803Y-5754559D01*
X5955860Y-5746272D01*
X5971218Y-5730940D01*
X5972024Y-5729000D01*
X6080764Y-5729000D01*
X6094060Y-5742318D01*
X6114102Y-5750641D01*
X6135803Y-5750659D01*
X6155860Y-5742372D01*
X6171218Y-5727040D01*
X6179541Y-5706998D01*
X6179559Y-5685297D01*
X6179559Y-5821000D01*
X5742987Y-5821000D01*
X5742987Y-5661781D01*
X5735243Y-5651000D01*
X5676000Y-5651000D01*
X5676000Y-5710242D01*
X5686781Y-5717987D01*
X5690134Y-5717320D01*
X5714744Y-5706404D01*
X5733304Y-5686901D01*
X5742987Y-5661781D01*
X5742987Y-5821000D01*
X5387012Y-5821000D01*
X5202200Y-5636188D01*
X5202491Y-5635489D01*
X5202509Y-5614603D01*
X5194533Y-5595300D01*
X5179778Y-5580519D01*
X5166478Y-5574996D01*
X5179700Y-5569533D01*
X5194481Y-5554778D01*
X5202491Y-5535489D01*
X5202509Y-5514603D01*
X5194533Y-5495300D01*
X5179778Y-5480519D01*
X5172508Y-5477500D01*
X5182473Y-5477500D01*
X5191661Y-5473694D01*
X5198694Y-5466661D01*
X5202500Y-5457473D01*
X5202500Y-5447527D01*
X5202500Y-5392527D01*
X5198694Y-5383339D01*
X5191661Y-5376306D01*
X5182473Y-5372500D01*
X5172527Y-5372500D01*
X5117527Y-5372500D01*
X5108339Y-5376306D01*
X5101306Y-5383339D01*
X5097500Y-5392527D01*
X5097500Y-5402473D01*
X5097500Y-5457473D01*
X5101306Y-5466661D01*
X5108339Y-5473694D01*
X5117527Y-5477500D01*
X5127473Y-5477500D01*
X5127480Y-5477500D01*
X5120300Y-5480467D01*
X5105519Y-5495222D01*
X5097509Y-5514511D01*
X5097491Y-5535397D01*
X5105467Y-5554700D01*
X5120222Y-5569481D01*
X5133521Y-5575004D01*
X5120300Y-5580467D01*
X5105519Y-5595222D01*
X5097509Y-5614511D01*
X5097499Y-5626087D01*
X5096718Y-5626867D01*
X5093757Y-5613072D01*
X5066728Y-5601041D01*
X5064381Y-5600980D01*
X5064381Y-5465402D01*
X5054602Y-5441735D01*
X5036510Y-5423611D01*
X5012860Y-5413791D01*
X4987252Y-5413768D01*
X4963585Y-5423547D01*
X4949992Y-5437116D01*
X4936510Y-5423611D01*
X4912860Y-5413791D01*
X4887252Y-5413768D01*
X4863585Y-5423547D01*
X4845461Y-5441639D01*
X4839361Y-5456330D01*
X4839361Y-5062256D01*
X4829585Y-5038596D01*
X4811499Y-5020479D01*
X4787856Y-5010661D01*
X4762256Y-5010639D01*
X4743450Y-5018409D01*
X4743450Y-5013550D01*
X4737857Y-4987431D01*
X4722694Y-4965441D01*
X4700271Y-4950928D01*
X4686694Y-4947106D01*
X4676000Y-4954858D01*
X4676000Y-5049000D01*
X4676787Y-5049000D01*
X4676787Y-5051000D01*
X4676000Y-5051000D01*
X4676000Y-5145142D01*
X4686694Y-5152894D01*
X4700271Y-5149072D01*
X4722694Y-5134559D01*
X4731206Y-5122214D01*
X4738501Y-5129521D01*
X4762144Y-5139339D01*
X4787744Y-5139361D01*
X4811404Y-5129585D01*
X4829521Y-5111499D01*
X4839339Y-5087856D01*
X4839361Y-5062256D01*
X4839361Y-5456330D01*
X4835641Y-5465289D01*
X4835619Y-5490897D01*
X4845398Y-5514565D01*
X4863490Y-5532688D01*
X4887140Y-5542509D01*
X4912748Y-5542531D01*
X4936415Y-5532752D01*
X4950008Y-5519183D01*
X4963490Y-5532688D01*
X4987140Y-5542509D01*
X5012748Y-5542531D01*
X5036415Y-5532752D01*
X5054539Y-5514660D01*
X5064359Y-5491010D01*
X5064381Y-5465402D01*
X5064381Y-5600980D01*
X5037151Y-5600269D01*
X5009531Y-5610875D01*
X5006243Y-5613072D01*
X5003282Y-5626867D01*
X5050000Y-5673586D01*
X5050557Y-5673029D01*
X5051971Y-5674443D01*
X5051414Y-5675000D01*
X5051971Y-5675557D01*
X5050557Y-5676971D01*
X5050000Y-5676414D01*
X5048586Y-5677828D01*
X5048586Y-5675000D01*
X5001867Y-5628282D01*
X4988072Y-5631243D01*
X4976041Y-5658272D01*
X4975269Y-5687849D01*
X4985875Y-5715469D01*
X4988072Y-5718757D01*
X5001867Y-5721718D01*
X5048586Y-5675000D01*
X5048586Y-5677828D01*
X5003282Y-5723133D01*
X5006243Y-5736928D01*
X5033272Y-5748959D01*
X5062849Y-5749731D01*
X5088712Y-5739800D01*
X5096195Y-5759145D01*
X5097864Y-5761643D01*
X5110427Y-5763159D01*
X5148586Y-5725000D01*
X5148029Y-5724443D01*
X5149443Y-5723029D01*
X5150000Y-5723586D01*
X5150557Y-5723029D01*
X5151971Y-5724443D01*
X5151414Y-5725000D01*
X5189573Y-5763159D01*
X5202136Y-5761643D01*
X5212190Y-5738902D01*
X5212436Y-5728448D01*
X5354494Y-5870506D01*
X5363902Y-5876793D01*
X5363902Y-5876793D01*
X5375000Y-5879000D01*
X5375000Y-5879000D01*
X5375000Y-5879000D01*
X7125000Y-5879000D01*
X7136098Y-5876793D01*
X7145506Y-5870506D01*
X7220506Y-5795506D01*
X7226793Y-5786098D01*
X7226793Y-5786098D01*
X7229000Y-5775000D01*
X7229000Y-5500000D01*
X7226793Y-5488902D01*
X7220506Y-5479494D01*
X7128925Y-5387913D01*
X7128955Y-5353668D01*
X7122829Y-5338841D01*
X7337853Y-5553865D01*
X7335661Y-5559144D01*
X7335639Y-5584744D01*
X7345415Y-5608404D01*
X7363501Y-5626521D01*
X7387144Y-5636339D01*
X7412744Y-5636361D01*
X7436404Y-5626585D01*
X7454521Y-5608499D01*
X7464339Y-5584856D01*
X7464361Y-5559256D01*
X7464361Y-5362256D01*
X7454585Y-5338596D01*
X7436499Y-5320479D01*
X7412856Y-5310661D01*
X7387256Y-5310639D01*
X7363596Y-5320415D01*
X7345479Y-5338501D01*
X7335661Y-5362144D01*
X7335639Y-5387744D01*
X7345415Y-5411404D01*
X7363501Y-5429521D01*
X7387144Y-5439339D01*
X7412744Y-5439361D01*
X7436404Y-5429585D01*
X7454521Y-5411499D01*
X7464339Y-5387856D01*
X7464361Y-5362256D01*
X7464361Y-5559256D01*
X7454585Y-5535596D01*
X7436499Y-5517479D01*
X7412856Y-5507661D01*
X7387256Y-5507639D01*
X7377629Y-5511617D01*
X7170012Y-5304000D01*
X7325000Y-5304000D01*
X7336098Y-5301793D01*
X7345506Y-5295506D01*
X7470506Y-5170506D01*
X7476793Y-5161098D01*
X7479000Y-5150000D01*
X7479000Y-5050000D01*
X7476793Y-5038902D01*
X7470506Y-5029494D01*
X7420506Y-4979494D01*
X7411098Y-4973207D01*
X7400000Y-4971000D01*
X7398126Y-4971000D01*
X7402491Y-4960489D01*
X7402496Y-4954000D01*
X7537988Y-4954000D01*
X7553222Y-4969234D01*
X7545010Y-4989012D01*
X7544990Y-5010892D01*
X7553346Y-5031114D01*
X7568804Y-5046600D01*
X7576989Y-5049998D01*
X7568886Y-5053346D01*
X7553400Y-5068804D01*
X7545010Y-5089012D01*
X7544990Y-5110892D01*
X7553346Y-5131114D01*
X7568804Y-5146600D01*
X7589012Y-5154990D01*
X7610892Y-5155010D01*
X7631114Y-5146654D01*
X7646600Y-5131196D01*
X7649998Y-5123011D01*
X7653346Y-5131114D01*
X7668804Y-5146600D01*
X7689012Y-5154990D01*
X7710892Y-5155010D01*
X7731114Y-5146654D01*
X7746600Y-5131196D01*
X7754990Y-5110988D01*
X7755010Y-5089108D01*
X7746654Y-5068886D01*
X7731196Y-5053400D01*
X7723011Y-5050002D01*
X7731114Y-5046654D01*
X7746600Y-5031196D01*
X7754990Y-5010988D01*
X7755010Y-4989108D01*
X7746654Y-4968886D01*
X7731196Y-4953400D01*
X7723011Y-4950002D01*
X7731114Y-4946654D01*
X7746600Y-4931196D01*
X7754990Y-4910988D01*
X7755010Y-4889108D01*
X7746654Y-4868886D01*
X7734244Y-4856454D01*
X7735476Y-4855978D01*
X7738141Y-4854198D01*
X7739962Y-4841376D01*
X7700000Y-4801414D01*
X7698586Y-4802828D01*
X7698586Y-4800000D01*
X7658624Y-4760038D01*
X7650000Y-4761263D01*
X7641376Y-4760038D01*
X7601414Y-4800000D01*
X7641376Y-4839962D01*
X7650000Y-4838737D01*
X7658624Y-4839962D01*
X7698586Y-4800000D01*
X7698586Y-4802828D01*
X7660038Y-4841376D01*
X7661859Y-4854198D01*
X7666135Y-4856092D01*
X7653400Y-4868804D01*
X7650002Y-4876989D01*
X7646654Y-4868886D01*
X7634244Y-4856454D01*
X7635476Y-4855978D01*
X7638141Y-4854198D01*
X7639962Y-4841376D01*
X7600000Y-4801414D01*
X7598586Y-4802828D01*
X7598586Y-4800000D01*
X7558624Y-4760038D01*
X7545802Y-4761859D01*
X7535332Y-4785503D01*
X7534706Y-4811354D01*
X7544022Y-4835476D01*
X7545802Y-4838141D01*
X7558624Y-4839962D01*
X7598586Y-4800000D01*
X7598586Y-4802828D01*
X7560038Y-4841376D01*
X7561859Y-4854198D01*
X7566135Y-4856092D01*
X7553400Y-4868804D01*
X7552489Y-4871000D01*
X7412012Y-4871000D01*
X7402200Y-4861188D01*
X7402491Y-4860489D01*
X7402509Y-4839603D01*
X7394533Y-4820300D01*
X7379778Y-4805519D01*
X7366478Y-4799996D01*
X7379700Y-4794533D01*
X7394481Y-4779778D01*
X7402491Y-4760489D01*
X7402509Y-4739603D01*
X7394533Y-4720300D01*
X7379778Y-4705519D01*
X7360489Y-4697509D01*
X7339603Y-4697491D01*
X7320300Y-4705467D01*
X7305519Y-4720222D01*
X7297509Y-4739511D01*
X7297491Y-4760397D01*
X7297812Y-4761175D01*
X7254494Y-4804494D01*
X7248207Y-4813902D01*
X7246000Y-4825000D01*
X7246000Y-4950000D01*
X7248207Y-4961098D01*
X7254494Y-4970506D01*
X7288988Y-5005000D01*
X7168640Y-5005000D01*
X7112776Y-4949136D01*
X7112776Y-4839045D01*
X7103805Y-4815855D01*
X7102500Y-4813903D01*
X7102500Y-4782473D01*
X7102500Y-4772527D01*
X7102500Y-4717527D01*
X7098694Y-4708339D01*
X7091661Y-4701306D01*
X7082473Y-4697500D01*
X7072527Y-4697500D01*
X7017527Y-4697500D01*
X7008339Y-4701306D01*
X7001306Y-4708339D01*
X6997500Y-4717527D01*
X6997500Y-4727473D01*
X6997500Y-4782473D01*
X7001306Y-4791661D01*
X7008339Y-4798694D01*
X7013023Y-4800634D01*
X7011841Y-4810427D01*
X7050000Y-4848586D01*
X7088159Y-4810427D01*
X7086977Y-4800634D01*
X7091661Y-4798694D01*
X7098694Y-4791661D01*
X7102500Y-4782473D01*
X7102500Y-4813903D01*
X7102136Y-4813357D01*
X7089573Y-4811841D01*
X7051414Y-4850000D01*
X7089573Y-4888159D01*
X7102136Y-4886643D01*
X7112190Y-4863902D01*
X7112776Y-4839045D01*
X7112776Y-4949136D01*
X7101993Y-4938353D01*
X7094533Y-4920300D01*
X7079778Y-4905519D01*
X7079747Y-4905506D01*
X7084145Y-4903805D01*
X7086643Y-4902136D01*
X7088159Y-4889573D01*
X7050000Y-4851414D01*
X7049443Y-4851971D01*
X7048029Y-4850557D01*
X7048586Y-4850000D01*
X7010427Y-4811841D01*
X6997864Y-4813357D01*
X6991467Y-4827827D01*
X6956820Y-4793180D01*
X6942221Y-4783425D01*
X6925000Y-4780000D01*
X6911012Y-4780000D01*
X6948513Y-4742499D01*
X6958417Y-4742507D01*
X6974043Y-4736051D01*
X6986009Y-4724106D01*
X6992493Y-4708491D01*
X6992507Y-4691583D01*
X6986051Y-4675957D01*
X6974106Y-4663991D01*
X6958491Y-4657507D01*
X6941583Y-4657493D01*
X6925957Y-4663949D01*
X6913991Y-4675894D01*
X6907507Y-4691509D01*
X6907499Y-4701489D01*
X6902494Y-4706493D01*
X6902509Y-4689603D01*
X6894533Y-4670300D01*
X6879778Y-4655519D01*
X6860489Y-4647509D01*
X6839603Y-4647491D01*
X6820300Y-4655467D01*
X6805519Y-4670222D01*
X6799996Y-4683521D01*
X6794533Y-4670300D01*
X6782633Y-4658379D01*
X6808839Y-4632173D01*
X6813213Y-4633990D01*
X6836684Y-4634010D01*
X6858377Y-4625047D01*
X6874989Y-4608464D01*
X6875004Y-4608428D01*
X6891536Y-4624989D01*
X6913213Y-4633990D01*
X6936684Y-4634010D01*
X6958377Y-4625047D01*
X6974989Y-4608464D01*
X6975004Y-4608428D01*
X6991536Y-4624989D01*
X7013213Y-4633990D01*
X7036684Y-4634010D01*
X7058377Y-4625047D01*
X7074989Y-4608464D01*
X7075004Y-4608428D01*
X7091536Y-4624989D01*
X7113213Y-4633990D01*
X7136684Y-4634010D01*
X7158377Y-4625047D01*
X7174989Y-4608464D01*
X7183990Y-4586787D01*
X7184010Y-4563316D01*
X7175047Y-4541623D01*
X7158464Y-4525011D01*
X7136787Y-4516010D01*
X7113316Y-4515990D01*
X7091623Y-4524953D01*
X7075011Y-4541536D01*
X7074996Y-4541572D01*
X7060384Y-4526934D01*
X7061098Y-4526793D01*
X7070506Y-4520506D01*
X7108839Y-4482173D01*
X7113213Y-4483990D01*
X7136684Y-4484010D01*
X7141152Y-4482164D01*
X7179494Y-4520506D01*
X7188902Y-4526793D01*
X7188902Y-4526793D01*
X7200000Y-4529000D01*
X7600000Y-4529000D01*
X7611098Y-4526793D01*
X7620506Y-4520506D01*
X7658839Y-4482173D01*
X7663213Y-4483990D01*
X7686684Y-4484010D01*
X7708377Y-4475047D01*
X7724989Y-4458464D01*
X7725004Y-4458428D01*
X7741536Y-4474989D01*
X7763213Y-4483990D01*
X7786684Y-4484010D01*
X7808377Y-4475047D01*
X7824989Y-4458464D01*
X7833990Y-4436787D01*
X7834010Y-4413316D01*
X7831194Y-4406499D01*
X7831194Y-4108450D01*
X7809746Y-4051440D01*
X7804046Y-4042910D01*
X7782069Y-4030369D01*
X7780655Y-4031783D01*
X7780655Y-4028954D01*
X7768114Y-4006978D01*
X7712635Y-3981831D01*
X7651757Y-3979830D01*
X7594747Y-4001278D01*
X7586217Y-4006978D01*
X7573676Y-4028954D01*
X7677165Y-4132444D01*
X7780655Y-4028954D01*
X7780655Y-4031783D01*
X7678580Y-4133858D01*
X7782069Y-4237348D01*
X7804046Y-4224806D01*
X7829192Y-4169328D01*
X7831194Y-4108450D01*
X7831194Y-4406499D01*
X7825047Y-4391623D01*
X7808464Y-4375011D01*
X7786787Y-4366010D01*
X7780655Y-4366005D01*
X7780655Y-4238762D01*
X7677165Y-4135272D01*
X7675751Y-4136687D01*
X7675751Y-4133858D01*
X7572261Y-4030369D01*
X7550285Y-4042910D01*
X7525139Y-4098388D01*
X7523137Y-4159266D01*
X7544585Y-4216276D01*
X7550285Y-4224806D01*
X7572261Y-4237348D01*
X7675751Y-4133858D01*
X7675751Y-4136687D01*
X7573676Y-4238762D01*
X7586217Y-4260739D01*
X7641695Y-4285885D01*
X7702574Y-4287887D01*
X7759584Y-4266439D01*
X7768114Y-4260739D01*
X7780655Y-4238762D01*
X7780655Y-4366005D01*
X7763316Y-4365990D01*
X7741623Y-4374953D01*
X7725011Y-4391536D01*
X7724996Y-4391572D01*
X7708464Y-4375011D01*
X7686787Y-4366010D01*
X7663316Y-4365990D01*
X7641623Y-4374953D01*
X7625011Y-4391536D01*
X7624996Y-4391572D01*
X7608464Y-4375011D01*
X7586787Y-4366010D01*
X7563316Y-4365990D01*
X7541623Y-4374953D01*
X7525011Y-4391536D01*
X7524996Y-4391572D01*
X7508464Y-4375011D01*
X7487776Y-4366421D01*
X7487776Y-4289045D01*
X7478805Y-4265855D01*
X7477136Y-4263357D01*
X7464573Y-4261841D01*
X7463159Y-4263255D01*
X7463159Y-4260427D01*
X7461643Y-4247864D01*
X7438902Y-4237810D01*
X7414045Y-4237224D01*
X7390855Y-4246195D01*
X7388357Y-4247864D01*
X7386841Y-4260427D01*
X7425000Y-4298586D01*
X7463159Y-4260427D01*
X7463159Y-4263255D01*
X7426414Y-4300000D01*
X7464573Y-4338159D01*
X7477136Y-4336643D01*
X7487190Y-4313902D01*
X7487776Y-4289045D01*
X7487776Y-4366421D01*
X7486787Y-4366010D01*
X7463316Y-4365990D01*
X7463159Y-4366054D01*
X7463159Y-4339573D01*
X7425000Y-4301414D01*
X7386841Y-4339573D01*
X7388357Y-4352136D01*
X7411098Y-4362190D01*
X7435955Y-4362776D01*
X7459145Y-4353805D01*
X7461643Y-4352136D01*
X7463159Y-4339573D01*
X7463159Y-4366054D01*
X7441623Y-4374953D01*
X7425011Y-4391536D01*
X7424996Y-4391572D01*
X7408464Y-4375011D01*
X7386787Y-4366010D01*
X7363316Y-4365990D01*
X7341623Y-4374953D01*
X7340642Y-4375932D01*
X7338672Y-4371174D01*
X7328826Y-4361328D01*
X7315962Y-4356000D01*
X7284750Y-4356000D01*
X7276000Y-4364750D01*
X7276000Y-4424000D01*
X7276787Y-4424000D01*
X7276787Y-4426000D01*
X7276000Y-4426000D01*
X7276000Y-4426787D01*
X7274000Y-4426787D01*
X7274000Y-4426000D01*
X7274000Y-4424000D01*
X7274000Y-4364750D01*
X7265250Y-4356000D01*
X7234038Y-4356000D01*
X7221174Y-4361328D01*
X7211328Y-4371174D01*
X7206000Y-4384038D01*
X7206000Y-4397962D01*
X7206000Y-4415250D01*
X7214750Y-4424000D01*
X7274000Y-4424000D01*
X7274000Y-4426000D01*
X7214750Y-4426000D01*
X7206000Y-4434750D01*
X7206000Y-4452038D01*
X7206000Y-4464988D01*
X7182173Y-4441161D01*
X7183990Y-4436787D01*
X7184010Y-4413316D01*
X7175047Y-4391623D01*
X7158464Y-4375011D01*
X7136787Y-4366010D01*
X7113316Y-4365990D01*
X7091623Y-4374953D01*
X7075011Y-4391536D01*
X7074996Y-4391572D01*
X7060384Y-4376934D01*
X7061098Y-4376793D01*
X7070506Y-4370506D01*
X7095506Y-4345506D01*
X7095980Y-4344796D01*
X7114511Y-4352491D01*
X7135397Y-4352509D01*
X7154700Y-4344533D01*
X7169481Y-4329778D01*
X7175004Y-4316478D01*
X7180467Y-4329700D01*
X7195222Y-4344481D01*
X7214511Y-4352491D01*
X7235397Y-4352509D01*
X7254700Y-4344533D01*
X7269481Y-4329778D01*
X7275004Y-4316478D01*
X7280467Y-4329700D01*
X7295222Y-4344481D01*
X7314511Y-4352491D01*
X7335397Y-4352509D01*
X7354700Y-4344533D01*
X7369481Y-4329778D01*
X7369494Y-4329747D01*
X7371195Y-4334145D01*
X7372864Y-4336643D01*
X7385427Y-4338159D01*
X7423586Y-4300000D01*
X7385427Y-4261841D01*
X7372864Y-4263357D01*
X7369660Y-4270606D01*
X7369533Y-4270300D01*
X7354778Y-4255519D01*
X7335489Y-4247509D01*
X7314603Y-4247491D01*
X7295300Y-4255467D01*
X7280519Y-4270222D01*
X7274996Y-4283521D01*
X7269533Y-4270300D01*
X7254778Y-4255519D01*
X7235489Y-4247509D01*
X7218518Y-4247494D01*
X7413812Y-4052200D01*
X7414511Y-4052491D01*
X7435397Y-4052509D01*
X7454700Y-4044533D01*
X7469481Y-4029778D01*
X7477491Y-4010489D01*
X7477509Y-3989603D01*
X7469533Y-3970300D01*
X7462238Y-3962992D01*
X7848031Y-3962992D01*
X7848031Y-5332031D01*
X7836499Y-5320479D01*
X7812856Y-5310661D01*
X7787256Y-5310639D01*
X7765294Y-5319714D01*
X7765294Y-4788646D01*
X7755978Y-4764524D01*
X7755010Y-4763073D01*
X7755010Y-4689108D01*
X7746654Y-4668886D01*
X7731196Y-4653400D01*
X7710988Y-4645010D01*
X7689108Y-4644990D01*
X7668886Y-4653346D01*
X7655000Y-4667208D01*
X7655000Y-4665027D01*
X7651194Y-4655839D01*
X7644161Y-4648806D01*
X7634973Y-4645000D01*
X7625027Y-4645000D01*
X7565027Y-4645000D01*
X7555839Y-4648806D01*
X7548806Y-4655839D01*
X7545000Y-4665027D01*
X7545000Y-4674973D01*
X7545000Y-4734973D01*
X7548806Y-4744161D01*
X7555839Y-4751194D01*
X7560801Y-4753250D01*
X7560038Y-4758624D01*
X7600000Y-4798586D01*
X7639962Y-4758624D01*
X7639199Y-4753250D01*
X7644161Y-4751194D01*
X7651194Y-4744161D01*
X7655000Y-4734973D01*
X7655000Y-4732771D01*
X7665756Y-4743546D01*
X7664524Y-4744022D01*
X7661859Y-4745802D01*
X7660038Y-4758624D01*
X7700000Y-4798586D01*
X7739962Y-4758624D01*
X7738141Y-4745802D01*
X7733865Y-4743908D01*
X7746600Y-4731196D01*
X7754990Y-4710988D01*
X7755010Y-4689108D01*
X7755010Y-4763073D01*
X7754198Y-4761859D01*
X7741376Y-4760038D01*
X7701414Y-4800000D01*
X7741376Y-4839962D01*
X7754198Y-4838141D01*
X7764668Y-4814497D01*
X7765294Y-4788646D01*
X7765294Y-5319714D01*
X7763596Y-5320415D01*
X7745479Y-5338501D01*
X7735661Y-5362144D01*
X7735639Y-5387744D01*
X7745415Y-5411404D01*
X7763501Y-5429521D01*
X7787144Y-5439339D01*
X7812744Y-5439361D01*
X7836404Y-5429585D01*
X7848031Y-5417978D01*
X7848031Y-5879528D01*
M02*
