M48
;DRILL file {kicad (2014-jul-16 BZR unknown)-product} date Sun 19 Oct 2014 04:51:03 PM PDT
;FORMAT={2:4/ absolute / inch / suppress leading zeros}
FMAT,2
INCH,TZ
T1C0.025
T2C0.030
T3C0.032
T4C0.032
T5C0.039
T6C0.039
T7C0.040
T8C0.047
T9C0.050
T10C0.079
T11C0.125
T12C0.150
%
G90
G05
M72
T1
X46750Y-44500
X48000Y-42250
X49750Y-45750
X51000Y-51000
X51500Y-49250
X53750Y-46000
X53750Y-54750
X54000Y-52500
X54250Y-52000
X54500Y-42000
X58000Y-50000
X60750Y-50000
X62000Y-47750
X63000Y-43250
X63250Y-50000
X63500Y-51500
X64000Y-45750
X64500Y-50000
X65000Y-51500
X66000Y-50000
X66000Y-51500
X66750Y-43000
X67500Y-50000
X68000Y-52000
X68000Y-52500
X68250Y-51000
X68250Y-54250
X68750Y-40820
X68750Y-41500
X69500Y-47000
X70000Y-41250
X71000Y-41250
X71250Y-41750
X71500Y-55250
X72250Y-41500
X73250Y-46500
T2
X43500Y-43350
X43500Y-44350
T3
X58250Y-54500
X58500Y-45500
X59000Y-43250
X59250Y-54500
X59250Y-56000
X59250Y-57000
X59500Y-45500
X60000Y-43250
X61250Y-55039
X61250Y-56961
X63250Y-55000
X63250Y-56000
X65500Y-40750
X65500Y-41750
X66750Y-41000
X66750Y-42000
X71500Y-52000
X72500Y-52000
T4
X49500Y-47000
X49500Y-53000
X50500Y-47000
X50500Y-53000
X51500Y-47000
X51500Y-53000
X51500Y-54250
X51500Y-55250
X51500Y-56250
X51500Y-57250
X52500Y-47000
X52500Y-53000
X53500Y-47000
X53500Y-53000
X54500Y-47000
X54500Y-53000
X54500Y-54250
X54500Y-55250
X54500Y-56250
X54500Y-57250
X55500Y-47000
X55500Y-53000
X56500Y-47000
X56500Y-53000
X57500Y-47000
X57500Y-53000
X58500Y-47000
X58500Y-53000
X59500Y-47000
X59500Y-53000
X60500Y-47000
X60500Y-53000
X61500Y-47000
X61500Y-53000
X62500Y-47000
X62500Y-53000
X63500Y-47000
X63500Y-53000
X64500Y-47000
X64500Y-53000
X65500Y-47000
X65500Y-53000
X66500Y-47000
X66500Y-53000
X67500Y-47000
X67500Y-53000
X68250Y-40000
X68250Y-43000
X68500Y-47000
X68500Y-53000
X69250Y-40000
X69250Y-43000
X70250Y-40000
X70250Y-43000
X70500Y-47500
X70500Y-48500
X70500Y-49500
X70500Y-50500
X71250Y-40000
X71250Y-43000
X72250Y-40000
X72250Y-43000
X73250Y-40000
X73250Y-43000
X73500Y-47500
X73500Y-48500
X73500Y-49500
X73500Y-50500
X74250Y-40000
X74250Y-43000
T5
X48500Y-56750
X49000Y-54781
X50000Y-54781
X50500Y-56750
X66248Y-55258
T6
X41100Y-42250
X44750Y-50500
X45100Y-42250
X45250Y-43250
X45250Y-44500
X45750Y-50500
X46300Y-42050
X46750Y-45750
X46750Y-50500
X47750Y-46750
X47750Y-50750
X49250Y-43250
X49250Y-44500
X50300Y-42050
X51750Y-46000
X55750Y-46000
X61500Y-43250
X65500Y-43250
X74000Y-53750
X78000Y-53750
T7
X40250Y-40500
X41250Y-40000
X41250Y-41000
X42000Y-48016
X42000Y-49984
X42000Y-52516
X42000Y-54484
X42250Y-40000
X42250Y-41000
X43250Y-40000
X43250Y-41000
X44250Y-40000
X44250Y-41000
X44250Y-45750
X44250Y-46750
X44500Y-48250
X45250Y-40000
X45250Y-41000
X45250Y-45750
X45250Y-46750
X45500Y-48250
X46250Y-40000
X46250Y-41000
X46500Y-48250
X47250Y-40000
X47250Y-41000
X48250Y-40000
X48250Y-41000
X49250Y-40000
X49250Y-41000
X50250Y-40000
X50250Y-41000
X51250Y-40000
X51250Y-41000
X52000Y-43250
X52000Y-44750
X52250Y-40000
X52250Y-41000
X52750Y-42000
X53000Y-43250
X53000Y-44750
X53250Y-40000
X53250Y-41000
X54000Y-43250
X54000Y-44750
X54250Y-40000
X54250Y-41000
X55000Y-43250
X55000Y-44750
X55250Y-40000
X55250Y-41000
X55750Y-54500
X55750Y-55500
X55750Y-56500
X56000Y-43250
X56250Y-40000
X56250Y-41000
X56750Y-54500
X56750Y-55500
X56750Y-56500
X57000Y-43250
X57250Y-40000
X57250Y-41000
X58250Y-40000
X58250Y-41000
X59250Y-40000
X59250Y-41000
X60250Y-40000
X60250Y-41000
X61250Y-40000
X61250Y-41000
X62250Y-40000
X62250Y-41000
X63250Y-40000
X63250Y-41000
X64250Y-40500
X66250Y-56250
X66250Y-57250
X67250Y-44250
X67250Y-45750
X67250Y-56250
X67250Y-57250
X68250Y-44250
X68250Y-45750
X68250Y-56250
X68250Y-57250
X69250Y-44250
X69250Y-45750
X69250Y-56250
X69250Y-57250
X70250Y-44250
X70250Y-45750
X70250Y-56250
X70250Y-57250
X71250Y-44250
X71250Y-45750
X72750Y-44250
X73750Y-44250
X74750Y-44250
X75500Y-55000
X75750Y-44250
X76000Y-47000
X76000Y-48000
X76000Y-49000
X76000Y-50000
X76000Y-51000
X76500Y-55000
X76750Y-44250
X77000Y-47000
X77000Y-48000
X77000Y-49000
X77000Y-50000
X77000Y-51000
X77500Y-55000
X77750Y-44250
T8
X74000Y-55720
X74000Y-58280
T9
X50750Y-45750
T10
X70252Y-53742
T11
X41339Y-45276
X41339Y-57087
X76772Y-41339
X76772Y-57087
T12
X45750Y-57100
T0
M30
