%FSLAX36Y36*%
G04 Gerber Fmt 3.6, Leading zero omitted, Abs format (unit inch)*
G04 Created by KiCad (PCBNEW (2014-jul-16 BZR unknown)-product) date Sun 19 Oct 2014 04:52:17 PM PDT*
%MOIN*%
G01*
G04 APERTURE LIST*
%ADD10C,0.003937*%
%ADD11C,0.059100*%
%ADD12C,0.078700*%
%ADD13R,0.078700X0.078700*%
%ADD14C,0.060000*%
%ADD15C,0.236220*%
%ADD16R,0.068000X0.068000*%
%ADD17C,0.068000*%
%ADD18O,0.068000X0.068000*%
%ADD19C,0.080000*%
%ADD20R,0.060000X0.060000*%
%ADD21O,0.066900X0.137800*%
%ADD22R,0.380000X0.620000*%
%ADD23R,0.055000X0.055000*%
%ADD24C,0.055000*%
%ADD25C,0.157480*%
%ADD26C,0.078740*%
%ADD27R,0.088000X0.088000*%
G04 APERTURE END LIST*
D10*
D11*
X5925000Y-5700000D03*
X5925000Y-5600000D03*
X6325000Y-5500000D03*
X6325000Y-5600000D03*
X5950000Y-4550000D03*
X5850000Y-4550000D03*
X5825000Y-5450000D03*
X5925000Y-5450000D03*
X7250000Y-5200000D03*
X7150000Y-5200000D03*
X6000000Y-4325000D03*
X5900000Y-4325000D03*
X6675000Y-4100000D03*
X6675000Y-4200000D03*
X6550000Y-4175000D03*
X6550000Y-4075000D03*
D12*
X5075000Y-4575000D03*
D13*
X4675000Y-4575000D03*
D14*
X4350000Y-4435000D03*
X4350000Y-4335000D03*
D15*
X4133858Y-4527559D03*
X7677165Y-4133858D03*
X4133858Y-5708661D03*
X7677165Y-5708661D03*
D16*
X7750000Y-5500000D03*
D17*
X7650000Y-5500000D03*
X7550000Y-5500000D03*
D16*
X4525000Y-4575000D03*
D18*
X4525000Y-4675000D03*
X4425000Y-4575000D03*
X4425000Y-4675000D03*
D19*
X4200000Y-4998425D03*
X4200000Y-4801575D03*
X4200000Y-5448425D03*
X4200000Y-5251575D03*
D20*
X7600000Y-4700000D03*
D14*
X7700000Y-4700000D03*
X7600000Y-4800000D03*
X7700000Y-4800000D03*
X7600000Y-4900000D03*
X7700000Y-4900000D03*
X7600000Y-5000000D03*
X7700000Y-5000000D03*
X7600000Y-5100000D03*
X7700000Y-5100000D03*
D16*
X5200000Y-4325000D03*
D17*
X5300000Y-4325000D03*
X5400000Y-4325000D03*
X5500000Y-4325000D03*
X5600000Y-4325000D03*
X5700000Y-4325000D03*
D16*
X7275000Y-4425000D03*
D17*
X7375000Y-4425000D03*
X7475000Y-4425000D03*
X7575000Y-4425000D03*
X7675000Y-4425000D03*
X7775000Y-4425000D03*
D16*
X5575000Y-5450000D03*
D18*
X5675000Y-5450000D03*
X5575000Y-5550000D03*
X5675000Y-5550000D03*
X5575000Y-5650000D03*
X5675000Y-5650000D03*
D16*
X5200000Y-4475000D03*
D17*
X5300000Y-4475000D03*
X5400000Y-4475000D03*
X5500000Y-4475000D03*
D20*
X6625000Y-5725000D03*
D14*
X6625000Y-5625000D03*
X6725000Y-5725000D03*
X6725000Y-5625000D03*
X6825000Y-5725000D03*
X6825000Y-5625000D03*
X6925000Y-5725000D03*
X6925000Y-5625000D03*
X7025000Y-5725000D03*
X7025000Y-5625000D03*
D16*
X4125000Y-4100000D03*
D18*
X4125000Y-4000000D03*
X4225000Y-4100000D03*
X4225000Y-4000000D03*
X4325000Y-4100000D03*
X4325000Y-4000000D03*
X4425000Y-4100000D03*
X4425000Y-4000000D03*
X4525000Y-4100000D03*
X4525000Y-4000000D03*
X4625000Y-4100000D03*
X4625000Y-4000000D03*
X4725000Y-4100000D03*
X4725000Y-4000000D03*
X4825000Y-4100000D03*
X4825000Y-4000000D03*
X4925000Y-4100000D03*
X4925000Y-4000000D03*
X5025000Y-4100000D03*
X5025000Y-4000000D03*
X5125000Y-4100000D03*
X5125000Y-4000000D03*
X5225000Y-4100000D03*
X5225000Y-4000000D03*
X5325000Y-4100000D03*
X5325000Y-4000000D03*
X5425000Y-4100000D03*
X5425000Y-4000000D03*
X5525000Y-4100000D03*
X5525000Y-4000000D03*
X5625000Y-4100000D03*
X5625000Y-4000000D03*
X5725000Y-4100000D03*
X5725000Y-4000000D03*
X5825000Y-4100000D03*
X5825000Y-4000000D03*
X5925000Y-4100000D03*
X5925000Y-4000000D03*
X6025000Y-4100000D03*
X6025000Y-4000000D03*
X6125000Y-4100000D03*
X6125000Y-4000000D03*
X6225000Y-4100000D03*
X6225000Y-4000000D03*
X6325000Y-4100000D03*
X6325000Y-4000000D03*
D21*
X4575000Y-5050000D03*
X4675000Y-5050000D03*
X4475000Y-5050000D03*
D22*
X4575000Y-5520000D03*
D12*
X7400000Y-5375000D03*
X7800000Y-5375000D03*
X4775000Y-4675000D03*
X4775000Y-5075000D03*
X4525000Y-4325000D03*
X4925000Y-4325000D03*
X4525000Y-4450000D03*
X4925000Y-4450000D03*
D13*
X7400000Y-5828000D03*
D12*
X7400000Y-5572000D03*
D23*
X6825000Y-4300000D03*
D24*
X6925000Y-4300000D03*
X7025000Y-4300000D03*
X7125000Y-4300000D03*
X7225000Y-4300000D03*
X7325000Y-4300000D03*
X7425000Y-4300000D03*
X7425000Y-4000000D03*
X7325000Y-4000000D03*
X7225000Y-4000000D03*
X7125000Y-4000000D03*
X7025000Y-4000000D03*
X6925000Y-4000000D03*
X6825000Y-4000000D03*
D23*
X7050000Y-4750000D03*
D24*
X7050000Y-4850000D03*
X7050000Y-4950000D03*
X7050000Y-5050000D03*
X7350000Y-5050000D03*
X7350000Y-4950000D03*
X7350000Y-4850000D03*
X7350000Y-4750000D03*
D23*
X4950000Y-5300000D03*
D24*
X5050000Y-5300000D03*
X5150000Y-5300000D03*
X5250000Y-5300000D03*
X5350000Y-5300000D03*
X5450000Y-5300000D03*
X5550000Y-5300000D03*
X5650000Y-5300000D03*
X5750000Y-5300000D03*
X5850000Y-5300000D03*
X5950000Y-5300000D03*
X6050000Y-5300000D03*
X6150000Y-5300000D03*
X6250000Y-5300000D03*
X6350000Y-5300000D03*
X6450000Y-5300000D03*
X6550000Y-5300000D03*
X6650000Y-5300000D03*
X6750000Y-5300000D03*
X6850000Y-5300000D03*
X6850000Y-4700000D03*
X6750000Y-4700000D03*
X6650000Y-4700000D03*
X6550000Y-4700000D03*
X6450000Y-4700000D03*
X6350000Y-4700000D03*
X6250000Y-4700000D03*
X6150000Y-4700000D03*
X6050000Y-4700000D03*
X5950000Y-4700000D03*
X5850000Y-4700000D03*
X5750000Y-4700000D03*
X5650000Y-4700000D03*
X5550000Y-4700000D03*
X5450000Y-4700000D03*
X5350000Y-4700000D03*
X5250000Y-4700000D03*
X5150000Y-4700000D03*
X5050000Y-4700000D03*
X4950000Y-4700000D03*
D11*
X6125000Y-5696100D03*
X6125000Y-5503900D03*
D16*
X6725000Y-4425000D03*
D17*
X6825000Y-4425000D03*
X6925000Y-4425000D03*
X7025000Y-4425000D03*
X7125000Y-4425000D03*
D12*
X5575000Y-4600000D03*
X5175000Y-4600000D03*
X6150000Y-4325000D03*
X6550000Y-4325000D03*
D16*
X6725000Y-4575000D03*
D17*
X6825000Y-4575000D03*
X6925000Y-4575000D03*
X7025000Y-4575000D03*
X7125000Y-4575000D03*
D16*
X4450000Y-4825000D03*
D17*
X4550000Y-4825000D03*
X4650000Y-4825000D03*
D25*
X7025197Y-5374213D03*
D26*
X6624803Y-5525787D03*
D12*
X4510000Y-4225000D03*
X4110000Y-4225000D03*
X5030000Y-4205000D03*
X4630000Y-4205000D03*
D23*
X5150000Y-5425000D03*
D24*
X5150000Y-5525000D03*
X5150000Y-5625000D03*
X5150000Y-5725000D03*
X5450000Y-5725000D03*
X5450000Y-5625000D03*
X5450000Y-5525000D03*
X5450000Y-5425000D03*
D26*
X4900000Y-5478150D03*
X5000000Y-5478150D03*
X4850000Y-5675000D03*
X5050000Y-5675000D03*
D27*
X4025000Y-4050000D03*
X6425000Y-4050000D03*
X5275000Y-4200000D03*
M02*
