%FSLAX36Y36*%
G04 Gerber Fmt 3.6, Leading zero omitted, Abs format (unit inch)*
G04 Created by KiCad (PCBNEW (2014-jul-16 BZR unknown)-product) date Sun 19 Oct 2014 04:52:17 PM PDT*
%MOIN*%
G01*
G04 APERTURE LIST*
%ADD10C,0.003937*%
%ADD11C,0.008000*%
%ADD12C,0.000100*%
%ADD13C,0.010000*%
G04 APERTURE END LIST*
D10*
D11*
X6077743Y-4775543D02*
X6072029Y-4777448D01*
X6070124Y-4779352D01*
X6068219Y-4783162D01*
X6068219Y-4788876D01*
X6070124Y-4792686D01*
X6072029Y-4794590D01*
X6075838Y-4796495D01*
X6091076Y-4796495D01*
X6091076Y-4756495D01*
X6077743Y-4756495D01*
X6073933Y-4758400D01*
X6072029Y-4760305D01*
X6070124Y-4764114D01*
X6070124Y-4767924D01*
X6072029Y-4771733D01*
X6073933Y-4773638D01*
X6077743Y-4775543D01*
X6091076Y-4775543D01*
X6051076Y-4756495D02*
X6051076Y-4788876D01*
X6049171Y-4792686D01*
X6047267Y-4794590D01*
X6043457Y-4796495D01*
X6035838Y-4796495D01*
X6032029Y-4794590D01*
X6030124Y-4792686D01*
X6028219Y-4788876D01*
X6028219Y-4756495D01*
X6011076Y-4794590D02*
X6005362Y-4796495D01*
X5995838Y-4796495D01*
X5992029Y-4794590D01*
X5990124Y-4792686D01*
X5988219Y-4788876D01*
X5988219Y-4785067D01*
X5990124Y-4781257D01*
X5992029Y-4779352D01*
X5995838Y-4777448D01*
X6003457Y-4775543D01*
X6007267Y-4773638D01*
X6009171Y-4771733D01*
X6011076Y-4767924D01*
X6011076Y-4764114D01*
X6009171Y-4760305D01*
X6007267Y-4758400D01*
X6003457Y-4756495D01*
X5993933Y-4756495D01*
X5988219Y-4758400D01*
X5927267Y-4775543D02*
X5921552Y-4777448D01*
X5919648Y-4779352D01*
X5917743Y-4783162D01*
X5917743Y-4788876D01*
X5919648Y-4792686D01*
X5921552Y-4794590D01*
X5925362Y-4796495D01*
X5940600Y-4796495D01*
X5940600Y-4756495D01*
X5927267Y-4756495D01*
X5923457Y-4758400D01*
X5921552Y-4760305D01*
X5919648Y-4764114D01*
X5919648Y-4767924D01*
X5921552Y-4771733D01*
X5923457Y-4773638D01*
X5927267Y-4775543D01*
X5940600Y-4775543D01*
X5900600Y-4775543D02*
X5887267Y-4775543D01*
X5881552Y-4796495D02*
X5900600Y-4796495D01*
X5900600Y-4756495D01*
X5881552Y-4756495D01*
X5866314Y-4785067D02*
X5847267Y-4785067D01*
X5870124Y-4796495D02*
X5856790Y-4756495D01*
X5843457Y-4796495D01*
X5809171Y-4758400D02*
X5812981Y-4756495D01*
X5818695Y-4756495D01*
X5824410Y-4758400D01*
X5828219Y-4762210D01*
X5830124Y-4766019D01*
X5832029Y-4773638D01*
X5832029Y-4779352D01*
X5830124Y-4786971D01*
X5828219Y-4790781D01*
X5824410Y-4794590D01*
X5818695Y-4796495D01*
X5814886Y-4796495D01*
X5809171Y-4794590D01*
X5807267Y-4792686D01*
X5807267Y-4779352D01*
X5814886Y-4779352D01*
X5771076Y-4796495D02*
X5790124Y-4796495D01*
X5790124Y-4756495D01*
X5757743Y-4775543D02*
X5744410Y-4775543D01*
X5738695Y-4796495D02*
X5757743Y-4796495D01*
X5757743Y-4756495D01*
X5738695Y-4756495D01*
X5708219Y-4775543D02*
X5702505Y-4777448D01*
X5700600Y-4779352D01*
X5698695Y-4783162D01*
X5698695Y-4788876D01*
X5700600Y-4792686D01*
X5702505Y-4794590D01*
X5706314Y-4796495D01*
X5721552Y-4796495D01*
X5721552Y-4756495D01*
X5708219Y-4756495D01*
X5704410Y-4758400D01*
X5702505Y-4760305D01*
X5700600Y-4764114D01*
X5700600Y-4767924D01*
X5702505Y-4771733D01*
X5704410Y-4773638D01*
X5708219Y-4775543D01*
X5721552Y-4775543D01*
X5673933Y-4756495D02*
X5666314Y-4756495D01*
X5662505Y-4758400D01*
X5658695Y-4762210D01*
X5656791Y-4769829D01*
X5656791Y-4783162D01*
X5658695Y-4790781D01*
X5662505Y-4794590D01*
X5666314Y-4796495D01*
X5673933Y-4796495D01*
X5677743Y-4794590D01*
X5681552Y-4790781D01*
X5683457Y-4783162D01*
X5683457Y-4769829D01*
X5681552Y-4762210D01*
X5677743Y-4758400D01*
X5673933Y-4756495D01*
X5639648Y-4796495D02*
X5639648Y-4756495D01*
X5616791Y-4796495D01*
X5616791Y-4756495D01*
X5597743Y-4775543D02*
X5584410Y-4775543D01*
X5578695Y-4796495D02*
X5597743Y-4796495D01*
X5597743Y-4756495D01*
X5578695Y-4756495D01*
X5508219Y-4796495D02*
X5521552Y-4777448D01*
X5531076Y-4796495D02*
X5531076Y-4756495D01*
X5515838Y-4756495D01*
X5512029Y-4758400D01*
X5510124Y-4760305D01*
X5508219Y-4764114D01*
X5508219Y-4769829D01*
X5510124Y-4773638D01*
X5512029Y-4775543D01*
X5515838Y-4777448D01*
X5531076Y-4777448D01*
X5491076Y-4775543D02*
X5477743Y-4775543D01*
X5472029Y-4796495D02*
X5491076Y-4796495D01*
X5491076Y-4756495D01*
X5472029Y-4756495D01*
X5460600Y-4756495D02*
X5447267Y-4796495D01*
X5433933Y-4756495D01*
X5420600Y-4792686D02*
X5418695Y-4794590D01*
X5420600Y-4796495D01*
X5422505Y-4794590D01*
X5420600Y-4792686D01*
X5420600Y-4796495D01*
X5357743Y-4775543D02*
X5352029Y-4777448D01*
X5350124Y-4779352D01*
X5348219Y-4783162D01*
X5348219Y-4788876D01*
X5350124Y-4792686D01*
X5352029Y-4794590D01*
X5355838Y-4796495D01*
X5371076Y-4796495D01*
X5371076Y-4756495D01*
X5357743Y-4756495D01*
X5353933Y-4758400D01*
X5352029Y-4760305D01*
X5350124Y-4764114D01*
X5350124Y-4767924D01*
X5352029Y-4771733D01*
X5353933Y-4773638D01*
X5357743Y-4775543D01*
X5371076Y-4775543D01*
X5249171Y-4796495D02*
X5272029Y-4796495D01*
X5260600Y-4796495D02*
X5260600Y-4756495D01*
X5264410Y-4762210D01*
X5268219Y-4766019D01*
X5272029Y-4767924D01*
X5230124Y-4796495D02*
X5222505Y-4796495D01*
X5218695Y-4794590D01*
X5216791Y-4792686D01*
X5212981Y-4786971D01*
X5211076Y-4779352D01*
X5211076Y-4764114D01*
X5212981Y-4760305D01*
X5214886Y-4758400D01*
X5218695Y-4756495D01*
X5226314Y-4756495D01*
X5230124Y-4758400D01*
X5232029Y-4760305D01*
X5233933Y-4764114D01*
X5233933Y-4773638D01*
X5232029Y-4777448D01*
X5230124Y-4779352D01*
X5226314Y-4781257D01*
X5218695Y-4781257D01*
X5214886Y-4779352D01*
X5212981Y-4777448D01*
X5211076Y-4773638D01*
X5186314Y-4756495D02*
X5178695Y-4756495D01*
X5174886Y-4758400D01*
X5171076Y-4762210D01*
X5169171Y-4769829D01*
X5169171Y-4783162D01*
X5171076Y-4790781D01*
X5174886Y-4794590D01*
X5178695Y-4796495D01*
X5186314Y-4796495D01*
X5190124Y-4794590D01*
X5193933Y-4790781D01*
X5195838Y-4783162D01*
X5195838Y-4769829D01*
X5193933Y-4762210D01*
X5190124Y-4758400D01*
X5186314Y-4756495D01*
X5129171Y-4792686D02*
X5131076Y-4794590D01*
X5136791Y-4796495D01*
X5140600Y-4796495D01*
X5146314Y-4794590D01*
X5150124Y-4790781D01*
X5152029Y-4786971D01*
X5153933Y-4779352D01*
X5153933Y-4773638D01*
X5152029Y-4766019D01*
X5150124Y-4762210D01*
X5146314Y-4758400D01*
X5140600Y-4756495D01*
X5136791Y-4756495D01*
X5131076Y-4758400D01*
X5129171Y-4760305D01*
X5117743Y-4756495D02*
X5094886Y-4756495D01*
X5106314Y-4796495D02*
X5106314Y-4756495D01*
X5083457Y-4760305D02*
X5081552Y-4758400D01*
X5077743Y-4756495D01*
X5068219Y-4756495D01*
X5064410Y-4758400D01*
X5062505Y-4760305D01*
X5060600Y-4764114D01*
X5060600Y-4767924D01*
X5062505Y-4773638D01*
X5085362Y-4796495D01*
X5060600Y-4796495D01*
X5035838Y-4756495D02*
X5032029Y-4756495D01*
X5028219Y-4758400D01*
X5026314Y-4760305D01*
X5024410Y-4764114D01*
X5022505Y-4771733D01*
X5022505Y-4781257D01*
X5024410Y-4788876D01*
X5026314Y-4792686D01*
X5028219Y-4794590D01*
X5032029Y-4796495D01*
X5035838Y-4796495D01*
X5039648Y-4794590D01*
X5041552Y-4792686D01*
X5043457Y-4788876D01*
X5045362Y-4781257D01*
X5045362Y-4771733D01*
X5043457Y-4764114D01*
X5041552Y-4760305D01*
X5039648Y-4758400D01*
X5035838Y-4756495D01*
X4984410Y-4796495D02*
X5007267Y-4796495D01*
X4995838Y-4796495D02*
X4995838Y-4756495D01*
X4999648Y-4762210D01*
X5003457Y-4766019D01*
X5007267Y-4767924D01*
X4950124Y-4769829D02*
X4950124Y-4796495D01*
X4959648Y-4754590D02*
X4969171Y-4783162D01*
X4944410Y-4783162D01*
X6778524Y-4904833D02*
X6780429Y-4902929D01*
X6784238Y-4897214D01*
X6786143Y-4893405D01*
X6788048Y-4887690D01*
X6789952Y-4878167D01*
X6789952Y-4870548D01*
X6788048Y-4861024D01*
X6786143Y-4855310D01*
X6784238Y-4851500D01*
X6780429Y-4845786D01*
X6778524Y-4843881D01*
X6746143Y-4887690D02*
X6749952Y-4889595D01*
X6757571Y-4889595D01*
X6761381Y-4887690D01*
X6763286Y-4885786D01*
X6765190Y-4881976D01*
X6765190Y-4870548D01*
X6763286Y-4866738D01*
X6761381Y-4864833D01*
X6757571Y-4862929D01*
X6749952Y-4862929D01*
X6746143Y-4864833D01*
X6732809Y-4904833D02*
X6730905Y-4902929D01*
X6727095Y-4897214D01*
X6725190Y-4893405D01*
X6723286Y-4887690D01*
X6721381Y-4878167D01*
X6721381Y-4870548D01*
X6723286Y-4861024D01*
X6725190Y-4855310D01*
X6727095Y-4851500D01*
X6730905Y-4845786D01*
X6732809Y-4843881D01*
X6649000Y-4885786D02*
X6650905Y-4887690D01*
X6656619Y-4889595D01*
X6660429Y-4889595D01*
X6666143Y-4887690D01*
X6669952Y-4883881D01*
X6671857Y-4880071D01*
X6673762Y-4872452D01*
X6673762Y-4866738D01*
X6671857Y-4859119D01*
X6669952Y-4855310D01*
X6666143Y-4851500D01*
X6660429Y-4849595D01*
X6656619Y-4849595D01*
X6650905Y-4851500D01*
X6649000Y-4853405D01*
X6626143Y-4889595D02*
X6629952Y-4887690D01*
X6631857Y-4885786D01*
X6633762Y-4881976D01*
X6633762Y-4870548D01*
X6631857Y-4866738D01*
X6629952Y-4864833D01*
X6626143Y-4862929D01*
X6620429Y-4862929D01*
X6616619Y-4864833D01*
X6614714Y-4866738D01*
X6612810Y-4870548D01*
X6612810Y-4881976D01*
X6614714Y-4885786D01*
X6616619Y-4887690D01*
X6620429Y-4889595D01*
X6626143Y-4889595D01*
X6595667Y-4862929D02*
X6595667Y-4902929D01*
X6595667Y-4864833D02*
X6591857Y-4862929D01*
X6584238Y-4862929D01*
X6580429Y-4864833D01*
X6578524Y-4866738D01*
X6576619Y-4870548D01*
X6576619Y-4881976D01*
X6578524Y-4885786D01*
X6580429Y-4887690D01*
X6584238Y-4889595D01*
X6591857Y-4889595D01*
X6595667Y-4887690D01*
X6563286Y-4862929D02*
X6553762Y-4889595D01*
X6544238Y-4862929D02*
X6553762Y-4889595D01*
X6557571Y-4899119D01*
X6559476Y-4901024D01*
X6563286Y-4902929D01*
X6529000Y-4889595D02*
X6529000Y-4862929D01*
X6529000Y-4870548D02*
X6527095Y-4866738D01*
X6525190Y-4864833D01*
X6521381Y-4862929D01*
X6517571Y-4862929D01*
X6504238Y-4889595D02*
X6504238Y-4862929D01*
X6504238Y-4849595D02*
X6506143Y-4851500D01*
X6504238Y-4853405D01*
X6502333Y-4851500D01*
X6504238Y-4849595D01*
X6504238Y-4853405D01*
X6468048Y-4862929D02*
X6468048Y-4895310D01*
X6469952Y-4899119D01*
X6471857Y-4901024D01*
X6475667Y-4902929D01*
X6481381Y-4902929D01*
X6485190Y-4901024D01*
X6468048Y-4887690D02*
X6471857Y-4889595D01*
X6479476Y-4889595D01*
X6483286Y-4887690D01*
X6485190Y-4885786D01*
X6487095Y-4881976D01*
X6487095Y-4870548D01*
X6485190Y-4866738D01*
X6483286Y-4864833D01*
X6479476Y-4862929D01*
X6471857Y-4862929D01*
X6468048Y-4864833D01*
X6449000Y-4889595D02*
X6449000Y-4849595D01*
X6431857Y-4889595D02*
X6431857Y-4868643D01*
X6433762Y-4864833D01*
X6437571Y-4862929D01*
X6443286Y-4862929D01*
X6447095Y-4864833D01*
X6449000Y-4866738D01*
X6418524Y-4862929D02*
X6403286Y-4862929D01*
X6412810Y-4849595D02*
X6412810Y-4883881D01*
X6410905Y-4887690D01*
X6407095Y-4889595D01*
X6403286Y-4889595D01*
X6361381Y-4853405D02*
X6359476Y-4851500D01*
X6355667Y-4849595D01*
X6346143Y-4849595D01*
X6342333Y-4851500D01*
X6340429Y-4853405D01*
X6338524Y-4857214D01*
X6338524Y-4861024D01*
X6340429Y-4866738D01*
X6363286Y-4889595D01*
X6338524Y-4889595D01*
X6313762Y-4849595D02*
X6309952Y-4849595D01*
X6306143Y-4851500D01*
X6304238Y-4853405D01*
X6302333Y-4857214D01*
X6300429Y-4864833D01*
X6300429Y-4874357D01*
X6302333Y-4881976D01*
X6304238Y-4885786D01*
X6306143Y-4887690D01*
X6309952Y-4889595D01*
X6313762Y-4889595D01*
X6317571Y-4887690D01*
X6319476Y-4885786D01*
X6321381Y-4881976D01*
X6323286Y-4874357D01*
X6323286Y-4864833D01*
X6321381Y-4857214D01*
X6319476Y-4853405D01*
X6317571Y-4851500D01*
X6313762Y-4849595D01*
X6275667Y-4849595D02*
X6271857Y-4849595D01*
X6268048Y-4851500D01*
X6266143Y-4853405D01*
X6264238Y-4857214D01*
X6262333Y-4864833D01*
X6262333Y-4874357D01*
X6264238Y-4881976D01*
X6266143Y-4885786D01*
X6268048Y-4887690D01*
X6271857Y-4889595D01*
X6275667Y-4889595D01*
X6279476Y-4887690D01*
X6281381Y-4885786D01*
X6283286Y-4881976D01*
X6285191Y-4874357D01*
X6285191Y-4864833D01*
X6283286Y-4857214D01*
X6281381Y-4853405D01*
X6279476Y-4851500D01*
X6275667Y-4849595D01*
X6224238Y-4889595D02*
X6247095Y-4889595D01*
X6235667Y-4889595D02*
X6235667Y-4849595D01*
X6239476Y-4855310D01*
X6243286Y-4859119D01*
X6247095Y-4861024D01*
X6189952Y-4862929D02*
X6189952Y-4889595D01*
X6199476Y-4847690D02*
X6209000Y-4876262D01*
X6184238Y-4876262D01*
X6767095Y-4953595D02*
X6767095Y-4913595D01*
X6767095Y-4928833D02*
X6763286Y-4926929D01*
X6755667Y-4926929D01*
X6751857Y-4928833D01*
X6749952Y-4930738D01*
X6748048Y-4934548D01*
X6748048Y-4945976D01*
X6749952Y-4949786D01*
X6751857Y-4951690D01*
X6755667Y-4953595D01*
X6763286Y-4953595D01*
X6767095Y-4951690D01*
X6734714Y-4926929D02*
X6725190Y-4953595D01*
X6715667Y-4926929D02*
X6725190Y-4953595D01*
X6729000Y-4963119D01*
X6730905Y-4965024D01*
X6734714Y-4966929D01*
X6673762Y-4913595D02*
X6664238Y-4953595D01*
X6656619Y-4925024D01*
X6649000Y-4953595D01*
X6639476Y-4913595D01*
X6607095Y-4953595D02*
X6607095Y-4932643D01*
X6609000Y-4928833D01*
X6612810Y-4926929D01*
X6620429Y-4926929D01*
X6624238Y-4928833D01*
X6607095Y-4951690D02*
X6610905Y-4953595D01*
X6620429Y-4953595D01*
X6624238Y-4951690D01*
X6626143Y-4947881D01*
X6626143Y-4944071D01*
X6624238Y-4940262D01*
X6620429Y-4938357D01*
X6610905Y-4938357D01*
X6607095Y-4936452D01*
X6591857Y-4926929D02*
X6582333Y-4953595D01*
X6572810Y-4926929D02*
X6582333Y-4953595D01*
X6586143Y-4963119D01*
X6588048Y-4965024D01*
X6591857Y-4966929D01*
X6557571Y-4926929D02*
X6557571Y-4953595D01*
X6557571Y-4930738D02*
X6555667Y-4928833D01*
X6551857Y-4926929D01*
X6546143Y-4926929D01*
X6542333Y-4928833D01*
X6540429Y-4932643D01*
X6540429Y-4953595D01*
X6506143Y-4951690D02*
X6509952Y-4953595D01*
X6517571Y-4953595D01*
X6521381Y-4951690D01*
X6523286Y-4947881D01*
X6523286Y-4932643D01*
X6521381Y-4928833D01*
X6517571Y-4926929D01*
X6509952Y-4926929D01*
X6506143Y-4928833D01*
X6504238Y-4932643D01*
X6504238Y-4936452D01*
X6523286Y-4940262D01*
X6435667Y-4915500D02*
X6439476Y-4913595D01*
X6445191Y-4913595D01*
X6450905Y-4915500D01*
X6454714Y-4919310D01*
X6456619Y-4923119D01*
X6458524Y-4930738D01*
X6458524Y-4936452D01*
X6456619Y-4944071D01*
X6454714Y-4947881D01*
X6450905Y-4951690D01*
X6445191Y-4953595D01*
X6441381Y-4953595D01*
X6435667Y-4951690D01*
X6433762Y-4949786D01*
X6433762Y-4936452D01*
X6441381Y-4936452D01*
X6416619Y-4953595D02*
X6416619Y-4926929D01*
X6416619Y-4934548D02*
X6414714Y-4930738D01*
X6412810Y-4928833D01*
X6409000Y-4926929D01*
X6405191Y-4926929D01*
X6374714Y-4953595D02*
X6374714Y-4932643D01*
X6376619Y-4928833D01*
X6380429Y-4926929D01*
X6388048Y-4926929D01*
X6391857Y-4928833D01*
X6374714Y-4951690D02*
X6378524Y-4953595D01*
X6388048Y-4953595D01*
X6391857Y-4951690D01*
X6393762Y-4947881D01*
X6393762Y-4944071D01*
X6391857Y-4940262D01*
X6388048Y-4938357D01*
X6378524Y-4938357D01*
X6374714Y-4936452D01*
X6355667Y-4953595D02*
X6355667Y-4926929D01*
X6355667Y-4930738D02*
X6353762Y-4928833D01*
X6349952Y-4926929D01*
X6344238Y-4926929D01*
X6340429Y-4928833D01*
X6338524Y-4932643D01*
X6338524Y-4953595D01*
X6338524Y-4932643D02*
X6336619Y-4928833D01*
X6332810Y-4926929D01*
X6327095Y-4926929D01*
X6323286Y-4928833D01*
X6321381Y-4932643D01*
X6321381Y-4953595D01*
X6296619Y-4953595D02*
X6300429Y-4951690D01*
X6302333Y-4947881D01*
X6302333Y-4913595D01*
X6281381Y-4953595D02*
X6281381Y-4926929D01*
X6281381Y-4913595D02*
X6283286Y-4915500D01*
X6281381Y-4917405D01*
X6279476Y-4915500D01*
X6281381Y-4913595D01*
X6281381Y-4917405D01*
X6245191Y-4951690D02*
X6249000Y-4953595D01*
X6256619Y-4953595D01*
X6260429Y-4951690D01*
X6262333Y-4949786D01*
X6264238Y-4945976D01*
X6264238Y-4934548D01*
X6262333Y-4930738D01*
X6260429Y-4928833D01*
X6256619Y-4926929D01*
X6249000Y-4926929D01*
X6245191Y-4928833D01*
X6228048Y-4953595D02*
X6228048Y-4913595D01*
X6210905Y-4953595D02*
X6210905Y-4932643D01*
X6212810Y-4928833D01*
X6216619Y-4926929D01*
X6222333Y-4926929D01*
X6226143Y-4928833D01*
X6228048Y-4930738D01*
X5691014Y-5157395D02*
X5691014Y-5117395D01*
X5673871Y-5157395D02*
X5673871Y-5136443D01*
X5675776Y-5132633D01*
X5679586Y-5130729D01*
X5685300Y-5130729D01*
X5689109Y-5132633D01*
X5691014Y-5134538D01*
X5637681Y-5157395D02*
X5637681Y-5136443D01*
X5639586Y-5132633D01*
X5643395Y-5130729D01*
X5651014Y-5130729D01*
X5654824Y-5132633D01*
X5637681Y-5155490D02*
X5641490Y-5157395D01*
X5651014Y-5157395D01*
X5654824Y-5155490D01*
X5656729Y-5151681D01*
X5656729Y-5147871D01*
X5654824Y-5144062D01*
X5651014Y-5142157D01*
X5641490Y-5142157D01*
X5637681Y-5140252D01*
X5618633Y-5157395D02*
X5618633Y-5130729D01*
X5618633Y-5138348D02*
X5616729Y-5134538D01*
X5614824Y-5132633D01*
X5611014Y-5130729D01*
X5607205Y-5130729D01*
X5576729Y-5157395D02*
X5576729Y-5117395D01*
X5576729Y-5155490D02*
X5580538Y-5157395D01*
X5588157Y-5157395D01*
X5591967Y-5155490D01*
X5593871Y-5153586D01*
X5595776Y-5149776D01*
X5595776Y-5138348D01*
X5593871Y-5134538D01*
X5591967Y-5132633D01*
X5588157Y-5130729D01*
X5580538Y-5130729D01*
X5576729Y-5132633D01*
X5561490Y-5130729D02*
X5553871Y-5157395D01*
X5546252Y-5138348D01*
X5538633Y-5157395D01*
X5531014Y-5130729D01*
X5498633Y-5157395D02*
X5498633Y-5136443D01*
X5500538Y-5132633D01*
X5504348Y-5130729D01*
X5511967Y-5130729D01*
X5515776Y-5132633D01*
X5498633Y-5155490D02*
X5502443Y-5157395D01*
X5511967Y-5157395D01*
X5515776Y-5155490D01*
X5517681Y-5151681D01*
X5517681Y-5147871D01*
X5515776Y-5144062D01*
X5511967Y-5142157D01*
X5502443Y-5142157D01*
X5498633Y-5140252D01*
X5479586Y-5157395D02*
X5479586Y-5130729D01*
X5479586Y-5138348D02*
X5477681Y-5134538D01*
X5475776Y-5132633D01*
X5471967Y-5130729D01*
X5468157Y-5130729D01*
X5439586Y-5155490D02*
X5443395Y-5157395D01*
X5451014Y-5157395D01*
X5454824Y-5155490D01*
X5456729Y-5151681D01*
X5456729Y-5136443D01*
X5454824Y-5132633D01*
X5451014Y-5130729D01*
X5443395Y-5130729D01*
X5439586Y-5132633D01*
X5437681Y-5136443D01*
X5437681Y-5140252D01*
X5456729Y-5144062D01*
X5721476Y-5103595D02*
X5725286Y-5101690D01*
X5727190Y-5099786D01*
X5729095Y-5095976D01*
X5729095Y-5084548D01*
X5727190Y-5080738D01*
X5725286Y-5078833D01*
X5721476Y-5076929D01*
X5715762Y-5076929D01*
X5711952Y-5078833D01*
X5710048Y-5080738D01*
X5708143Y-5084548D01*
X5708143Y-5095976D01*
X5710048Y-5099786D01*
X5711952Y-5101690D01*
X5715762Y-5103595D01*
X5721476Y-5103595D01*
X5691000Y-5076929D02*
X5691000Y-5116929D01*
X5691000Y-5078833D02*
X5687190Y-5076929D01*
X5679571Y-5076929D01*
X5675762Y-5078833D01*
X5673857Y-5080738D01*
X5671952Y-5084548D01*
X5671952Y-5095976D01*
X5673857Y-5099786D01*
X5675762Y-5101690D01*
X5679571Y-5103595D01*
X5687190Y-5103595D01*
X5691000Y-5101690D01*
X5639571Y-5101690D02*
X5643381Y-5103595D01*
X5651000Y-5103595D01*
X5654809Y-5101690D01*
X5656714Y-5097881D01*
X5656714Y-5082643D01*
X5654809Y-5078833D01*
X5651000Y-5076929D01*
X5643381Y-5076929D01*
X5639571Y-5078833D01*
X5637667Y-5082643D01*
X5637667Y-5086452D01*
X5656714Y-5090262D01*
X5620524Y-5076929D02*
X5620524Y-5103595D01*
X5620524Y-5080738D02*
X5618619Y-5078833D01*
X5614809Y-5076929D01*
X5609095Y-5076929D01*
X5605286Y-5078833D01*
X5603381Y-5082643D01*
X5603381Y-5103595D01*
X5555762Y-5101690D02*
X5551952Y-5103595D01*
X5544333Y-5103595D01*
X5540524Y-5101690D01*
X5538619Y-5097881D01*
X5538619Y-5095976D01*
X5540524Y-5092167D01*
X5544333Y-5090262D01*
X5550048Y-5090262D01*
X5553857Y-5088357D01*
X5555762Y-5084548D01*
X5555762Y-5082643D01*
X5553857Y-5078833D01*
X5550048Y-5076929D01*
X5544333Y-5076929D01*
X5540524Y-5078833D01*
X5515762Y-5103595D02*
X5519571Y-5101690D01*
X5521476Y-5099786D01*
X5523381Y-5095976D01*
X5523381Y-5084548D01*
X5521476Y-5080738D01*
X5519571Y-5078833D01*
X5515762Y-5076929D01*
X5510048Y-5076929D01*
X5506238Y-5078833D01*
X5504333Y-5080738D01*
X5502429Y-5084548D01*
X5502429Y-5095976D01*
X5504333Y-5099786D01*
X5506238Y-5101690D01*
X5510048Y-5103595D01*
X5515762Y-5103595D01*
X5468143Y-5076929D02*
X5468143Y-5103595D01*
X5485286Y-5076929D02*
X5485286Y-5097881D01*
X5483381Y-5101690D01*
X5479571Y-5103595D01*
X5473857Y-5103595D01*
X5470048Y-5101690D01*
X5468143Y-5099786D01*
X5449095Y-5103595D02*
X5449095Y-5076929D01*
X5449095Y-5084548D02*
X5447190Y-5080738D01*
X5445286Y-5078833D01*
X5441476Y-5076929D01*
X5437667Y-5076929D01*
X5407191Y-5101690D02*
X5411000Y-5103595D01*
X5418619Y-5103595D01*
X5422429Y-5101690D01*
X5424333Y-5099786D01*
X5426238Y-5095976D01*
X5426238Y-5084548D01*
X5424333Y-5080738D01*
X5422429Y-5078833D01*
X5418619Y-5076929D01*
X5411000Y-5076929D01*
X5407191Y-5078833D01*
X5374810Y-5101690D02*
X5378619Y-5103595D01*
X5386238Y-5103595D01*
X5390048Y-5101690D01*
X5391952Y-5097881D01*
X5391952Y-5082643D01*
X5390048Y-5078833D01*
X5386238Y-5076929D01*
X5378619Y-5076929D01*
X5374810Y-5078833D01*
X5372905Y-5082643D01*
X5372905Y-5086452D01*
X5391952Y-5090262D01*
D12*
G36*
X5625800Y-5062300D02*
X5624400Y-5061600D01*
X5621500Y-5059700D01*
X5617300Y-5057000D01*
X5612400Y-5053700D01*
X5607500Y-5050300D01*
X5603400Y-5047600D01*
X5600500Y-5045800D01*
X5599300Y-5045100D01*
X5598700Y-5045400D01*
X5596300Y-5046500D01*
X5592900Y-5048300D01*
X5591000Y-5049300D01*
X5587800Y-5050700D01*
X5586300Y-5050900D01*
X5586000Y-5050500D01*
X5584900Y-5048100D01*
X5583100Y-5044000D01*
X5580700Y-5038600D01*
X5578000Y-5032200D01*
X5575100Y-5025400D01*
X5572200Y-5018400D01*
X5569400Y-5011800D01*
X5567000Y-5005800D01*
X5565000Y-5000900D01*
X5563700Y-4997500D01*
X5563300Y-4996100D01*
X5563400Y-4995800D01*
X5565000Y-4994200D01*
X5567700Y-4992200D01*
X5573600Y-4987400D01*
X5579500Y-4980100D01*
X5583000Y-4971800D01*
X5584200Y-4962600D01*
X5583200Y-4954100D01*
X5579800Y-4945900D01*
X5574100Y-4938600D01*
X5567200Y-4933100D01*
X5559100Y-4929600D01*
X5550000Y-4928500D01*
X5541300Y-4929500D01*
X5532900Y-4932800D01*
X5525600Y-4938400D01*
X5522500Y-4942000D01*
X5518200Y-4949500D01*
X5515700Y-4957400D01*
X5515500Y-4959500D01*
X5515800Y-4968200D01*
X5518400Y-4976600D01*
X5523100Y-4984200D01*
X5529500Y-4990300D01*
X5530300Y-4990900D01*
X5533300Y-4993100D01*
X5535300Y-4994700D01*
X5536800Y-4996000D01*
X5525700Y-5022900D01*
X5523900Y-5027200D01*
X5520800Y-5034500D01*
X5518100Y-5040800D01*
X5516000Y-5045900D01*
X5514500Y-5049300D01*
X5513800Y-5050600D01*
X5513700Y-5050700D01*
X5512800Y-5050900D01*
X5510700Y-5050100D01*
X5507000Y-5048300D01*
X5504500Y-5047000D01*
X5501600Y-5045600D01*
X5500300Y-5045100D01*
X5499200Y-5045700D01*
X5496500Y-5047500D01*
X5492500Y-5050200D01*
X5487700Y-5053400D01*
X5483100Y-5056600D01*
X5478900Y-5059300D01*
X5475800Y-5061300D01*
X5474300Y-5062100D01*
X5474100Y-5062100D01*
X5472700Y-5061400D01*
X5470300Y-5059300D01*
X5466700Y-5055900D01*
X5461500Y-5050800D01*
X5460700Y-5050000D01*
X5456400Y-5045600D01*
X5453000Y-5042000D01*
X5450600Y-5039400D01*
X5449800Y-5038200D01*
X5449800Y-5038200D01*
X5450600Y-5036800D01*
X5452500Y-5033700D01*
X5455300Y-5029400D01*
X5458700Y-5024400D01*
X5467600Y-5011500D01*
X5462700Y-4999300D01*
X5461200Y-4995500D01*
X5459300Y-4991000D01*
X5457900Y-4987800D01*
X5457200Y-4986300D01*
X5455800Y-4985900D01*
X5452500Y-4985100D01*
X5447700Y-4984100D01*
X5441900Y-4983000D01*
X5436400Y-4982000D01*
X5431400Y-4981000D01*
X5427800Y-4980300D01*
X5426200Y-4980000D01*
X5425800Y-4979800D01*
X5425500Y-4979000D01*
X5425200Y-4977300D01*
X5425100Y-4974300D01*
X5425100Y-4969500D01*
X5425100Y-4962600D01*
X5425100Y-4961900D01*
X5425100Y-4955300D01*
X5425200Y-4950100D01*
X5425400Y-4946700D01*
X5425600Y-4945300D01*
X5425700Y-4945300D01*
X5427200Y-4944900D01*
X5430700Y-4944200D01*
X5435700Y-4943200D01*
X5441600Y-4942100D01*
X5442000Y-4942000D01*
X5447900Y-4940900D01*
X5452900Y-4939800D01*
X5456300Y-4939000D01*
X5457800Y-4938600D01*
X5458100Y-4938200D01*
X5459300Y-4935900D01*
X5461000Y-4932200D01*
X5463000Y-4927700D01*
X5464900Y-4923100D01*
X5466600Y-4918900D01*
X5467700Y-4915800D01*
X5468000Y-4914400D01*
X5468000Y-4914300D01*
X5467100Y-4912900D01*
X5465100Y-4909900D01*
X5462200Y-4905600D01*
X5458800Y-4900600D01*
X5458500Y-4900200D01*
X5455100Y-4895200D01*
X5452300Y-4891000D01*
X5450500Y-4888000D01*
X5449800Y-4886600D01*
X5449800Y-4886500D01*
X5450900Y-4885000D01*
X5453500Y-4882200D01*
X5457100Y-4878400D01*
X5461500Y-4874000D01*
X5462900Y-4872600D01*
X5467800Y-4867900D01*
X5471100Y-4864700D01*
X5473200Y-4863100D01*
X5474200Y-4862700D01*
X5474300Y-4862800D01*
X5475800Y-4863700D01*
X5478900Y-4865700D01*
X5483200Y-4868600D01*
X5488300Y-4872100D01*
X5488700Y-4872300D01*
X5493600Y-4875700D01*
X5497800Y-4878500D01*
X5500800Y-4880500D01*
X5502100Y-4881300D01*
X5502300Y-4881300D01*
X5504300Y-4880700D01*
X5507900Y-4879400D01*
X5512200Y-4877700D01*
X5516900Y-4875900D01*
X5521100Y-4874100D01*
X5524200Y-4872600D01*
X5525700Y-4871800D01*
X5525700Y-4871700D01*
X5526300Y-4869900D01*
X5527100Y-4866200D01*
X5528200Y-4861100D01*
X5529400Y-4854900D01*
X5529500Y-4854000D01*
X5530700Y-4848000D01*
X5531600Y-4843100D01*
X5532300Y-4839700D01*
X5532700Y-4838300D01*
X5533500Y-4838100D01*
X5536400Y-4837900D01*
X5540900Y-4837800D01*
X5546200Y-4837700D01*
X5551900Y-4837700D01*
X5557400Y-4837900D01*
X5562100Y-4838000D01*
X5565500Y-4838300D01*
X5566900Y-4838500D01*
X5566900Y-4838600D01*
X5567500Y-4840500D01*
X5568300Y-4844200D01*
X5569300Y-4849400D01*
X5570500Y-4855500D01*
X5570700Y-4856600D01*
X5571800Y-4862500D01*
X5572800Y-4867400D01*
X5573600Y-4870800D01*
X5573900Y-4872100D01*
X5574500Y-4872400D01*
X5576900Y-4873400D01*
X5580900Y-4875100D01*
X5585800Y-4877100D01*
X5597300Y-4881700D01*
X5611300Y-4872100D01*
X5612600Y-4871200D01*
X5617600Y-4867800D01*
X5621800Y-4865000D01*
X5624700Y-4863200D01*
X5625900Y-4862500D01*
X5626000Y-4862500D01*
X5627400Y-4863800D01*
X5630100Y-4866400D01*
X5633900Y-4870100D01*
X5638400Y-4874500D01*
X5641600Y-4877700D01*
X5645500Y-4881700D01*
X5647900Y-4884300D01*
X5649300Y-4886000D01*
X5649800Y-4887000D01*
X5649600Y-4887700D01*
X5648700Y-4889200D01*
X5646700Y-4892200D01*
X5643800Y-4896500D01*
X5640400Y-4901500D01*
X5637600Y-4905600D01*
X5634500Y-4910300D01*
X5632500Y-4913700D01*
X5631800Y-4915300D01*
X5632000Y-4916000D01*
X5633000Y-4918800D01*
X5634700Y-4922900D01*
X5636800Y-4927900D01*
X5641600Y-4939000D01*
X5648900Y-4940400D01*
X5653300Y-4941200D01*
X5659500Y-4942400D01*
X5665400Y-4943500D01*
X5674600Y-4945300D01*
X5675000Y-4979200D01*
X5673500Y-4979800D01*
X5672200Y-4980100D01*
X5668800Y-4980900D01*
X5663900Y-4981900D01*
X5658100Y-4982900D01*
X5653200Y-4983900D01*
X5648300Y-4984800D01*
X5644700Y-4985500D01*
X5643200Y-4985800D01*
X5642800Y-4986300D01*
X5641500Y-4988700D01*
X5639800Y-4992500D01*
X5637800Y-4997100D01*
X5635800Y-5001900D01*
X5634100Y-5006200D01*
X5632900Y-5009600D01*
X5632400Y-5011300D01*
X5633100Y-5012600D01*
X5635000Y-5015500D01*
X5637700Y-5019600D01*
X5641100Y-5024500D01*
X5644400Y-5029400D01*
X5647200Y-5033600D01*
X5649200Y-5036700D01*
X5650000Y-5038000D01*
X5649600Y-5039000D01*
X5647700Y-5041300D01*
X5644000Y-5045200D01*
X5638500Y-5050600D01*
X5637600Y-5051500D01*
X5633200Y-5055700D01*
X5629500Y-5059100D01*
X5626900Y-5061400D01*
X5625800Y-5062300D01*
X5625800Y-5062300D01*
G37*
X5625800Y-5062300D02*
X5624400Y-5061600D01*
X5621500Y-5059700D01*
X5617300Y-5057000D01*
X5612400Y-5053700D01*
X5607500Y-5050300D01*
X5603400Y-5047600D01*
X5600500Y-5045800D01*
X5599300Y-5045100D01*
X5598700Y-5045400D01*
X5596300Y-5046500D01*
X5592900Y-5048300D01*
X5591000Y-5049300D01*
X5587800Y-5050700D01*
X5586300Y-5050900D01*
X5586000Y-5050500D01*
X5584900Y-5048100D01*
X5583100Y-5044000D01*
X5580700Y-5038600D01*
X5578000Y-5032200D01*
X5575100Y-5025400D01*
X5572200Y-5018400D01*
X5569400Y-5011800D01*
X5567000Y-5005800D01*
X5565000Y-5000900D01*
X5563700Y-4997500D01*
X5563300Y-4996100D01*
X5563400Y-4995800D01*
X5565000Y-4994200D01*
X5567700Y-4992200D01*
X5573600Y-4987400D01*
X5579500Y-4980100D01*
X5583000Y-4971800D01*
X5584200Y-4962600D01*
X5583200Y-4954100D01*
X5579800Y-4945900D01*
X5574100Y-4938600D01*
X5567200Y-4933100D01*
X5559100Y-4929600D01*
X5550000Y-4928500D01*
X5541300Y-4929500D01*
X5532900Y-4932800D01*
X5525600Y-4938400D01*
X5522500Y-4942000D01*
X5518200Y-4949500D01*
X5515700Y-4957400D01*
X5515500Y-4959500D01*
X5515800Y-4968200D01*
X5518400Y-4976600D01*
X5523100Y-4984200D01*
X5529500Y-4990300D01*
X5530300Y-4990900D01*
X5533300Y-4993100D01*
X5535300Y-4994700D01*
X5536800Y-4996000D01*
X5525700Y-5022900D01*
X5523900Y-5027200D01*
X5520800Y-5034500D01*
X5518100Y-5040800D01*
X5516000Y-5045900D01*
X5514500Y-5049300D01*
X5513800Y-5050600D01*
X5513700Y-5050700D01*
X5512800Y-5050900D01*
X5510700Y-5050100D01*
X5507000Y-5048300D01*
X5504500Y-5047000D01*
X5501600Y-5045600D01*
X5500300Y-5045100D01*
X5499200Y-5045700D01*
X5496500Y-5047500D01*
X5492500Y-5050200D01*
X5487700Y-5053400D01*
X5483100Y-5056600D01*
X5478900Y-5059300D01*
X5475800Y-5061300D01*
X5474300Y-5062100D01*
X5474100Y-5062100D01*
X5472700Y-5061400D01*
X5470300Y-5059300D01*
X5466700Y-5055900D01*
X5461500Y-5050800D01*
X5460700Y-5050000D01*
X5456400Y-5045600D01*
X5453000Y-5042000D01*
X5450600Y-5039400D01*
X5449800Y-5038200D01*
X5449800Y-5038200D01*
X5450600Y-5036800D01*
X5452500Y-5033700D01*
X5455300Y-5029400D01*
X5458700Y-5024400D01*
X5467600Y-5011500D01*
X5462700Y-4999300D01*
X5461200Y-4995500D01*
X5459300Y-4991000D01*
X5457900Y-4987800D01*
X5457200Y-4986300D01*
X5455800Y-4985900D01*
X5452500Y-4985100D01*
X5447700Y-4984100D01*
X5441900Y-4983000D01*
X5436400Y-4982000D01*
X5431400Y-4981000D01*
X5427800Y-4980300D01*
X5426200Y-4980000D01*
X5425800Y-4979800D01*
X5425500Y-4979000D01*
X5425200Y-4977300D01*
X5425100Y-4974300D01*
X5425100Y-4969500D01*
X5425100Y-4962600D01*
X5425100Y-4961900D01*
X5425100Y-4955300D01*
X5425200Y-4950100D01*
X5425400Y-4946700D01*
X5425600Y-4945300D01*
X5425700Y-4945300D01*
X5427200Y-4944900D01*
X5430700Y-4944200D01*
X5435700Y-4943200D01*
X5441600Y-4942100D01*
X5442000Y-4942000D01*
X5447900Y-4940900D01*
X5452900Y-4939800D01*
X5456300Y-4939000D01*
X5457800Y-4938600D01*
X5458100Y-4938200D01*
X5459300Y-4935900D01*
X5461000Y-4932200D01*
X5463000Y-4927700D01*
X5464900Y-4923100D01*
X5466600Y-4918900D01*
X5467700Y-4915800D01*
X5468000Y-4914400D01*
X5468000Y-4914300D01*
X5467100Y-4912900D01*
X5465100Y-4909900D01*
X5462200Y-4905600D01*
X5458800Y-4900600D01*
X5458500Y-4900200D01*
X5455100Y-4895200D01*
X5452300Y-4891000D01*
X5450500Y-4888000D01*
X5449800Y-4886600D01*
X5449800Y-4886500D01*
X5450900Y-4885000D01*
X5453500Y-4882200D01*
X5457100Y-4878400D01*
X5461500Y-4874000D01*
X5462900Y-4872600D01*
X5467800Y-4867900D01*
X5471100Y-4864700D01*
X5473200Y-4863100D01*
X5474200Y-4862700D01*
X5474300Y-4862800D01*
X5475800Y-4863700D01*
X5478900Y-4865700D01*
X5483200Y-4868600D01*
X5488300Y-4872100D01*
X5488700Y-4872300D01*
X5493600Y-4875700D01*
X5497800Y-4878500D01*
X5500800Y-4880500D01*
X5502100Y-4881300D01*
X5502300Y-4881300D01*
X5504300Y-4880700D01*
X5507900Y-4879400D01*
X5512200Y-4877700D01*
X5516900Y-4875900D01*
X5521100Y-4874100D01*
X5524200Y-4872600D01*
X5525700Y-4871800D01*
X5525700Y-4871700D01*
X5526300Y-4869900D01*
X5527100Y-4866200D01*
X5528200Y-4861100D01*
X5529400Y-4854900D01*
X5529500Y-4854000D01*
X5530700Y-4848000D01*
X5531600Y-4843100D01*
X5532300Y-4839700D01*
X5532700Y-4838300D01*
X5533500Y-4838100D01*
X5536400Y-4837900D01*
X5540900Y-4837800D01*
X5546200Y-4837700D01*
X5551900Y-4837700D01*
X5557400Y-4837900D01*
X5562100Y-4838000D01*
X5565500Y-4838300D01*
X5566900Y-4838500D01*
X5566900Y-4838600D01*
X5567500Y-4840500D01*
X5568300Y-4844200D01*
X5569300Y-4849400D01*
X5570500Y-4855500D01*
X5570700Y-4856600D01*
X5571800Y-4862500D01*
X5572800Y-4867400D01*
X5573600Y-4870800D01*
X5573900Y-4872100D01*
X5574500Y-4872400D01*
X5576900Y-4873400D01*
X5580900Y-4875100D01*
X5585800Y-4877100D01*
X5597300Y-4881700D01*
X5611300Y-4872100D01*
X5612600Y-4871200D01*
X5617600Y-4867800D01*
X5621800Y-4865000D01*
X5624700Y-4863200D01*
X5625900Y-4862500D01*
X5626000Y-4862500D01*
X5627400Y-4863800D01*
X5630100Y-4866400D01*
X5633900Y-4870100D01*
X5638400Y-4874500D01*
X5641600Y-4877700D01*
X5645500Y-4881700D01*
X5647900Y-4884300D01*
X5649300Y-4886000D01*
X5649800Y-4887000D01*
X5649600Y-4887700D01*
X5648700Y-4889200D01*
X5646700Y-4892200D01*
X5643800Y-4896500D01*
X5640400Y-4901500D01*
X5637600Y-4905600D01*
X5634500Y-4910300D01*
X5632500Y-4913700D01*
X5631800Y-4915300D01*
X5632000Y-4916000D01*
X5633000Y-4918800D01*
X5634700Y-4922900D01*
X5636800Y-4927900D01*
X5641600Y-4939000D01*
X5648900Y-4940400D01*
X5653300Y-4941200D01*
X5659500Y-4942400D01*
X5665400Y-4943500D01*
X5674600Y-4945300D01*
X5675000Y-4979200D01*
X5673500Y-4979800D01*
X5672200Y-4980100D01*
X5668800Y-4980900D01*
X5663900Y-4981900D01*
X5658100Y-4982900D01*
X5653200Y-4983900D01*
X5648300Y-4984800D01*
X5644700Y-4985500D01*
X5643200Y-4985800D01*
X5642800Y-4986300D01*
X5641500Y-4988700D01*
X5639800Y-4992500D01*
X5637800Y-4997100D01*
X5635800Y-5001900D01*
X5634100Y-5006200D01*
X5632900Y-5009600D01*
X5632400Y-5011300D01*
X5633100Y-5012600D01*
X5635000Y-5015500D01*
X5637700Y-5019600D01*
X5641100Y-5024500D01*
X5644400Y-5029400D01*
X5647200Y-5033600D01*
X5649200Y-5036700D01*
X5650000Y-5038000D01*
X5649600Y-5039000D01*
X5647700Y-5041300D01*
X5644000Y-5045200D01*
X5638500Y-5050600D01*
X5637600Y-5051500D01*
X5633200Y-5055700D01*
X5629500Y-5059100D01*
X5626900Y-5061400D01*
X5625800Y-5062300D01*
D13*
X3975000Y-4100000D02*
X3975000Y-4000000D01*
X3975000Y-4000000D02*
X4075000Y-4000000D01*
X4075000Y-4000000D02*
X4075000Y-4100000D01*
X4075000Y-4100000D02*
X3975000Y-4100000D01*
X6375000Y-4100000D02*
X6375000Y-4000000D01*
X6375000Y-4000000D02*
X6475000Y-4000000D01*
X6475000Y-4000000D02*
X6475000Y-4100000D01*
X6475000Y-4100000D02*
X6375000Y-4100000D01*
X5225000Y-4250000D02*
X5225000Y-4150000D01*
X5225000Y-4150000D02*
X5325000Y-4150000D01*
X5325000Y-4150000D02*
X5325000Y-4250000D01*
X5325000Y-4250000D02*
X5225000Y-4250000D01*
D11*
X4074524Y-4168095D02*
X4074524Y-4128095D01*
X4051667Y-4168095D01*
X4051667Y-4128095D01*
X4011667Y-4168095D02*
X4034524Y-4168095D01*
X4023095Y-4168095D02*
X4023095Y-4128095D01*
X4026905Y-4133810D01*
X4030714Y-4137619D01*
X4034524Y-4139524D01*
X3973571Y-4168095D02*
X3996429Y-4168095D01*
X3985000Y-4168095D02*
X3985000Y-4128095D01*
X3988809Y-4133810D01*
X3992619Y-4137619D01*
X3996429Y-4139524D01*
X6499524Y-4168095D02*
X6499524Y-4128095D01*
X6476667Y-4168095D01*
X6476667Y-4128095D01*
X6436667Y-4168095D02*
X6459524Y-4168095D01*
X6448095Y-4168095D02*
X6448095Y-4128095D01*
X6451905Y-4133810D01*
X6455714Y-4137619D01*
X6459524Y-4139524D01*
X6421429Y-4131905D02*
X6419524Y-4130000D01*
X6415714Y-4128095D01*
X6406190Y-4128095D01*
X6402381Y-4130000D01*
X6400476Y-4131905D01*
X6398571Y-4135714D01*
X6398571Y-4139524D01*
X6400476Y-4145238D01*
X6423333Y-4168095D01*
X6398571Y-4168095D01*
X5199524Y-4218095D02*
X5199524Y-4178095D01*
X5176667Y-4218095D01*
X5176667Y-4178095D01*
X5136667Y-4218095D02*
X5159524Y-4218095D01*
X5148095Y-4218095D02*
X5148095Y-4178095D01*
X5151905Y-4183810D01*
X5155714Y-4187619D01*
X5159524Y-4189524D01*
X5123333Y-4178095D02*
X5098571Y-4178095D01*
X5111905Y-4193333D01*
X5106190Y-4193333D01*
X5102381Y-4195238D01*
X5100476Y-4197143D01*
X5098571Y-4200952D01*
X5098571Y-4210476D01*
X5100476Y-4214286D01*
X5102381Y-4216190D01*
X5106190Y-4218095D01*
X5117619Y-4218095D01*
X5121429Y-4216190D01*
X5123333Y-4214286D01*
M02*
